<svg width="64" height="64" viewBox="0 0 64 64" fill="none" xmlns="http://www.w3.org/2000/svg">
<g clip-path="url(#clip0_10704_16123)">
<path d="M32.1401 1.93359C21.0257 2.02621 0.09375 4.15646 0.09375 32.1275C0.09375 60.0986 21.4888 62.0436 32.0474 62.4141C42.6987 62.1362 64.0938 60.2838 64.0938 32.1275C64.0938 3.97122 43.2544 2.02621 32.1401 1.93359ZM30.6581 4.15646C31.4917 4.15646 32.7884 4.15646 33.622 4.15646V25.922H30.6581V4.15646ZM3.70591 32.1275C3.70591 9.99148 18.2472 4.15646 29.8246 4.15646L20.2848 31.2939L16.1169 56.7643C15.0055 56.579 3.61329 51.1145 3.70591 32.1275ZM32.2327 60.4691C27.046 60.3764 19.4512 58.7093 17.5988 57.5052L30.2877 29.7194H33.9925L46.5887 57.6905C44.7363 58.8945 37.3267 60.4691 32.2327 60.4691ZM48.0706 56.9495L44.2732 31.2939L34.4555 4.15646C46.033 4.15646 60.5742 10.0841 60.5742 32.1275C60.6668 51.1145 49.182 56.7643 48.0706 56.9495Z" fill="black"/>
</g>
<defs>
<clipPath id="clip0_10704_16123">
<rect width="64" height="64" fill="white"/>
</clipPath>
</defs>
</svg>
