<svg width="64" height="64" viewBox="0 0 64 64" fill="none" xmlns="http://www.w3.org/2000/svg">
<g clip-path="url(#clip0_11880_35060)">
<path d="M62.4554 31.9991C62.4554 48.8196 48.8196 62.4553 31.9992 62.4553C15.1787 62.4553 1.54297 48.8196 1.54297 31.9991C1.54297 15.1787 15.1787 1.54297 31.9992 1.54297C48.8196 1.54297 62.4554 15.1787 62.4554 31.9991Z" fill="#1E1D51"/>
<path d="M31.8807 10.623C29.2795 10.6719 26.784 11.1349 24.4641 11.9446V28.6643H31.8807V10.623ZM18.3904 15.6058C14.5229 18.8883 11.7955 23.4156 10.8681 28.5447H18.3904V15.6058ZM24.2017 34.5962V52.0756C26.5826 52.8839 29.1434 53.3462 31.813 53.3951V34.5962H24.2017ZM10.8438 34.6438C11.6147 40.106 14.3999 44.9375 18.4381 48.3912V34.6438H10.8438Z" fill="url(#paint0_linear_11880_35060)"/>
<path d="M32.4219 10.8379C43.9138 11.0625 53.1625 20.4539 53.1625 31.9996C53.1625 43.5451 43.9137 52.9314 32.4219 53.156V10.8379Z" fill="url(#paint1_linear_11880_35060)"/>
<path d="M23.9109 12.209V29.1371H31.764V34.1342H23.9109V51.8322C22.0954 51.0829 20.4045 50.0954 18.8789 48.9079V34.1342H10.6975C10.629 33.4395 10.5938 32.7352 10.5938 32.0227C10.5938 31.044 10.6602 30.081 10.7881 29.1371C10.7979 29.0651 10.8079 28.9933 10.8183 28.9216C10.8079 28.9933 10.7979 29.0652 10.7881 29.1371H18.8788V15.1344C20.4044 13.9465 22.0954 12.9587 23.9109 12.209Z" fill="url(#paint2_linear_11880_35060)"/>
<path d="M45.0574 17.9648H37.7773V18.9806H45.0574V17.9648Z" fill="#9D0D16"/>
<path d="M32.0889 4.01648e-05C21.0096 -0.0175188 10.222 5.72279 4.28846 16.0001C-4.54306 31.2968 0.70437 50.8793 16.001 59.7108C31.2975 68.5422 50.8801 63.2949 59.7116 47.9982C68.543 32.7017 63.2956 13.1192 47.999 4.28763C42.9798 1.38983 37.4996 0.00865556 32.0889 4.01648e-05ZM32 1.54285C48.8118 1.54285 62.4565 15.1874 62.4565 31.9992C62.4565 48.811 48.8118 62.4556 32 62.4556C15.1882 62.4556 1.54359 48.811 1.54359 31.9992C1.54359 15.1874 15.1882 1.54285 32 1.54285ZM30.1662 2.60944V8.92231H32.0898V6.79545L33.6432 8.92231L36.1744 9.29269L33.9809 6.45789C34.4621 6.35779 35.3649 5.84677 35.3649 4.77018C35.3648 3.15836 33.9134 2.64332 33.0021 2.64332L30.1662 2.60944ZM32.5968 3.99348C33.1199 3.99348 33.4909 4.34811 33.5079 4.73629C33.5247 5.12448 33.2562 5.54573 32.6645 5.54573H32.0561L32.0233 4.02729L32.5968 3.99348ZM41.665 4.35213C41.6308 4.35196 41.5963 4.35254 41.5623 4.35319C39.9027 4.387 38.4995 5.39328 38.1636 7.03668C37.8291 8.67344 39.3156 10.6103 41.1328 11.0227C43.1042 11.4702 44.9442 10.534 45.359 8.40907C45.7141 6.58942 44.3768 4.80275 42.3909 4.42409C42.1465 4.37756 41.9039 4.3536 41.665 4.35213ZM18.3859 6.01875L16.6644 6.92985L17.4739 14.0522L19.297 12.702L19.0611 11.6227L21.0525 10.4407L21.9636 11.1159L24.0567 10.2725L18.3859 6.01875ZM41.7095 6.09703C41.8265 6.09736 41.9452 6.10811 42.065 6.13092C43.0232 6.31365 43.6314 7.14204 43.4639 8.02073C43.2962 8.89941 42.4158 9.49757 41.4576 9.31484C40.4994 9.13211 40.0267 8.20419 40.1943 7.3255C40.3408 6.55668 40.8904 6.09481 41.7095 6.09703ZM18.4536 8.28001L19.9044 9.39426L18.8579 10.0016L18.4536 8.28001ZM50.5544 9.19209L45.1537 12.939L46.7399 14.1875L49.3397 12.1623L48.0223 15.4361L48.6975 16.0773L52.0062 14.7272L50.0149 17.4276L51.2295 19.1492L55.0442 13.6807L53.8284 12.23L50.7227 13.4785L51.9724 10.3391L50.5544 9.19209ZM32 9.98996C19.8555 9.98996 9.98963 19.8558 9.98963 32.0003C9.98963 44.1448 19.8555 54.0095 32 54.0095C44.1445 54.0095 54.0103 44.1447 54.0103 32.0003C54.0103 19.8558 44.1445 9.98996 32 9.98996ZM11.8372 10.7105L9.20456 13.7484L13.7947 17.8328L15.0783 16.3483L13.3228 14.7949L14.6053 13.4108L13.491 12.3982L12.2085 13.8162L11.5674 13.2088L12.9514 11.6893L11.8372 10.7105ZM31.5746 10.8386V28.3064H24.7274V12.1179C26.8693 11.3338 29.173 10.886 31.5746 10.8386ZM32.4212 10.8386C40.4808 10.9962 47.4366 15.6627 50.8729 22.4189C50.8284 22.3595 50.7835 22.3014 50.7376 22.2442C49.8956 21.1984 48.835 20.5048 47.9314 19.9237C47.8595 19.8777 47.7754 19.8545 47.6902 19.857C47.5585 19.8608 47.436 19.9258 47.359 20.0327C47.1487 20.3239 46.7518 20.566 46.2342 20.566H42.335C42.1392 20.566 41.9536 20.6194 41.7931 20.7353C41.6329 20.8513 41.4905 21.0589 41.4905 21.3046V21.7491C41.4887 21.7516 41.4851 21.7584 41.4683 21.7713C41.4302 21.8006 41.3552 21.8316 41.2715 21.8316H37.9118L37.915 21.5512V21.548V21.5459C37.915 21.0344 37.6541 20.5697 37.2515 20.2762L37.2452 20.2709L37.24 20.2677L35.7712 19.272L35.7692 19.27L35.7671 19.2689C35.5332 19.1146 35.272 19.0415 35.0254 19.0467C34.9431 19.0484 34.8626 19.0594 34.7851 19.0785C34.4753 19.1544 34.2231 19.3501 34.0603 19.6001C33.7345 20.1002 33.8093 20.8907 34.4359 21.3386L35.1248 21.8656L35.1301 21.8698L35.1353 21.873C35.2803 21.9768 35.3607 22.1021 35.3607 22.1365L35.3438 23.2528V23.256V23.2592C35.3438 23.2728 35.3418 23.2762 35.3406 23.2815C35.3213 23.2814 35.2842 23.277 35.2073 23.2518C35.0444 23.1984 34.9208 23.1296 34.729 23.0571C34.5373 22.9847 34.2907 22.927 33.9735 22.927C33.415 22.927 32.9562 23.179 32.6689 23.5142C32.5681 23.6317 32.486 23.7575 32.4212 23.8877V10.8386H32.4212ZM23.8809 12.449V29.1528H31.5746V34.0837H23.8809V51.5472C22.1022 50.8078 20.4457 49.8334 18.951 48.6617V34.0837H10.9356C10.8686 33.3982 10.834 32.7033 10.834 32.0002C10.834 31.0345 10.8991 30.0843 11.0245 29.1527H18.951V15.3357C20.4456 14.1636 22.1022 13.1888 23.8809 12.449ZM38.2282 15.7029C37.8823 15.7029 37.6017 15.9835 37.6017 16.3292C37.6017 16.675 37.8823 16.9557 38.2282 16.9557C38.5739 16.9557 38.8546 16.6751 38.8546 16.3292C38.8546 15.9834 38.5739 15.7029 38.2282 15.7029ZM39.8239 15.7029C39.4781 15.7029 39.1975 15.9835 39.1975 16.3292C39.1975 16.675 39.4781 16.9557 39.8239 16.9557C40.1697 16.9557 40.4503 16.6751 40.4503 16.3292C40.4503 15.9834 40.1696 15.7029 39.8239 15.7029ZM41.4185 15.7029C41.0727 15.7029 40.792 15.9835 40.792 16.3292C40.792 16.675 41.0727 16.9557 41.4185 16.9557C41.7643 16.9557 42.0449 16.6751 42.0449 16.3292C42.0449 15.9834 41.7643 15.7029 41.4185 15.7029ZM43.0131 15.7029C42.6673 15.7029 42.3867 15.9835 42.3867 16.3292C42.3867 16.675 42.6673 16.9557 43.0131 16.9557C43.3589 16.9557 43.6395 16.6751 43.6395 16.3292C43.6395 15.9834 43.3589 15.7029 43.0131 15.7029ZM44.6087 15.7029C44.263 15.7029 43.9823 15.9835 43.9824 16.3292C43.9824 16.675 44.263 16.9557 44.6087 16.9557C44.9546 16.9557 45.2352 16.6751 45.2352 16.3292C45.2352 15.9834 44.9546 15.7029 44.6087 15.7029ZM18.1045 16.0362V28.3064H11.1557C12.0124 23.4421 14.5315 19.1492 18.1045 16.0362ZM37.7785 17.3398V18.3556H45.0585V17.3398H37.7785ZM37.7785 18.7069V19.7227H45.0585V18.7069H37.7785ZM58.0482 18.7111L52.3098 21.0401L53.9299 24.8208L55.4483 24.1796L54.605 22.2548L55.314 21.9173L56.1245 23.7743L57.5075 23.1998L56.7318 21.4116L57.407 21.1079L58.2165 23.0316L59.6343 22.4581L58.0482 18.7111ZM5.62581 19.4201L4.81637 21.2083L10.4193 23.8082L12.2085 20.1619L10.8245 19.4529L9.74413 21.3438L5.62581 19.4201ZM35.0495 19.8909C35.1162 19.8871 35.1942 19.9045 35.3003 19.9745L36.7648 20.9681C36.9474 21.1012 37.0685 21.3473 37.0685 21.5459L37.0516 22.9183V22.9204V22.9236C37.0516 23.4641 37.325 23.9247 37.678 24.2463C37.8861 24.4359 38.1245 24.5855 38.3796 24.677C38.1245 24.7684 37.8861 24.9181 37.678 25.1077C37.325 25.4292 37.0516 25.8899 37.0516 26.4303V26.4335V26.4357L37.0685 27.8134C37.0685 28.0119 36.9346 28.2612 36.7522 28.3943L35.2962 29.3816C35.1547 29.4749 35.0681 29.4736 34.9862 29.4535C34.9042 29.4334 34.8237 29.3752 34.7692 29.2916C34.6603 29.1244 34.6129 28.9296 34.928 28.7044L34.9332 28.7002L34.9385 28.6959L35.639 28.1615C35.8759 27.9921 36.2072 27.7071 36.2072 27.2177V27.2145V27.2113L36.1903 26.0886C36.1903 25.8491 36.1042 25.5786 35.8622 25.3955C35.6203 25.2124 35.2746 25.1897 34.9438 25.2981C34.7076 25.3756 34.5532 25.4588 34.4295 25.5055C34.3058 25.5522 34.2011 25.5806 33.9734 25.5806C33.6544 25.5806 33.4585 25.4607 33.3111 25.2885C33.1635 25.1164 33.0877 24.8767 33.0877 24.7192V24.6346C33.0877 24.4771 33.1635 24.2374 33.3111 24.0653C33.4586 23.8931 33.6545 23.7732 33.9734 23.7732C34.201 23.7732 34.3058 23.8016 34.4295 23.8484C34.5532 23.895 34.7076 23.9782 34.9438 24.0557C35.2746 24.1642 35.6203 24.1415 35.8622 23.9583C36.1042 23.7752 36.1903 23.4984 36.1903 23.2589L36.2072 22.1426V22.1394V22.1362C36.2072 21.6467 35.8653 21.3545 35.6284 21.185L34.9385 20.658L34.9332 20.6538L34.928 20.6496C34.6129 20.4243 34.6603 20.2295 34.7692 20.0623C34.8236 19.9786 34.9042 19.9205 34.9862 19.9004C35.0065 19.8954 35.0273 19.8922 35.0495 19.8909ZM47.7705 20.8316C48.5806 21.3612 49.4209 21.959 50.0783 22.7754C50.816 23.6919 51.3385 24.871 51.3385 26.609C51.3385 29.8746 48.2889 32.4975 45.3557 32.4975H38.2672C38.0658 32.4975 37.8598 32.5899 37.7351 32.7325C37.6103 32.8751 37.5601 33.0472 37.5615 33.2118C37.5629 33.3764 37.6158 33.5446 37.7393 33.6848C37.8627 33.8251 38.0656 33.9187 38.2673 33.9187H45.1876C47.6756 33.9187 49.0022 35.5201 49.0022 37.4106C49.0022 39.2529 47.6243 40.985 45.2045 40.985H38.0738C37.901 40.985 37.7172 41.0633 37.6039 41.1892C37.4905 41.3151 37.4432 41.4681 37.4441 41.6146C37.445 41.7611 37.4928 41.9116 37.605 42.0358C37.7172 42.1599 37.9003 42.2389 38.0738 42.2389H43.3814C44.5238 42.2389 45.4956 43.3522 45.4956 44.4155C45.4956 44.9547 45.3424 45.4525 45.0036 45.8144C44.6648 46.1763 44.1235 46.4386 43.2132 46.4386H40.0304C39.9034 46.4386 39.77 46.4665 39.6473 46.5551C39.5245 46.6437 39.4241 46.8131 39.4293 46.9889C39.4345 47.1648 39.5358 47.3155 39.6537 47.3995C39.7715 47.4833 39.903 47.5138 40.0304 47.5138H42.1414C42.4391 47.5138 42.6594 47.6441 42.8334 47.8556C43.0073 48.067 43.1086 48.3635 43.1086 48.6005C43.1086 48.8956 42.9995 49.1682 42.807 49.3391C42.6821 49.4498 42.5094 49.5267 42.2726 49.5454C42.2842 49.4235 42.2862 49.2853 42.2049 49.12C42.1083 48.9238 41.8391 48.7677 41.6103 48.7677H40.3436C39.9024 48.7677 39.4155 48.6014 39.0559 48.2873C38.6961 47.9733 38.4496 47.5282 38.4496 46.8874C38.4496 46.2981 38.6958 45.878 39.0452 45.5763C39.3947 45.2745 39.8589 45.117 40.2008 45.117H43.3138C43.4544 45.117 43.5912 45.0928 43.7223 45.0133C43.8532 44.9338 43.988 44.7664 43.9879 44.5583C43.9876 44.3501 43.852 44.1826 43.7212 44.1033C43.5903 44.0239 43.4543 44.0007 43.3138 44.0007H38.4368C36.5603 44.0007 35.5154 42.6727 35.5154 41.241C35.5154 39.9637 36.6093 38.4496 38.2676 38.4496H45.5253C45.7229 38.4496 45.9262 38.3574 46.047 38.2168C46.1679 38.0761 46.2153 37.9088 46.2142 37.7491C46.213 37.5894 46.1634 37.4251 46.0438 37.2867C45.9242 37.1482 45.7233 37.055 45.5253 37.055H38.1332C36.0666 37.055 34.4318 35.5226 34.4318 33.2086C34.4318 31.2758 36.0134 29.2935 38.3522 29.2935H45.0523C45.4177 29.2935 45.7455 29.1292 45.9464 28.8893C46.1474 28.6495 46.2369 28.354 46.2385 28.0629C46.2401 27.7719 46.1533 27.4738 45.9518 27.2322C45.7502 26.9908 45.4201 26.827 45.0523 26.827H37.9036L37.8983 26.4259C37.8983 26.1784 38.0328 25.9293 38.2486 25.7328C38.4643 25.5363 38.7545 25.4238 38.9321 25.4238H42.9383C43.0933 25.4238 43.2467 25.388 43.3975 25.2842C43.5483 25.1803 43.6885 24.9564 43.6885 24.6768C43.6885 24.3888 43.6027 24.2432 43.3975 24.0695C43.2467 23.9656 43.0933 23.9297 42.9383 23.9297H38.9321C38.7545 23.9297 38.4643 23.8173 38.2486 23.6207C38.0328 23.4242 37.8983 23.171 37.8983 22.9234L37.9015 22.6779H42.7911C43.0618 22.6779 43.3088 22.5911 43.5033 22.4419C43.6977 22.2927 43.8567 22.0639 43.8567 21.7752V21.4123H46.2344C46.8509 21.4126 47.3868 21.1827 47.7705 20.8316ZM52.0845 25.316C52.7834 27.4171 53.1617 29.6648 53.1617 32.0002C53.1617 39.3931 49.3705 45.9 43.6257 49.6839C43.8499 49.3648 43.9548 48.9801 43.9548 48.6003C43.9548 48.1478 43.7924 47.689 43.4871 47.3178C43.475 47.3031 43.4606 47.2899 43.448 47.2755C44.4107 47.229 45.1438 46.9031 45.6213 46.3929C46.1375 45.8416 46.3419 45.1169 46.3419 44.4153C46.3419 43.3788 45.7616 42.3815 44.8828 41.8313H45.2044C48.0403 41.8313 49.8486 39.6891 49.8486 37.4105C49.8486 35.4785 48.592 33.7477 46.5017 33.2318C49.5029 32.668 52.185 29.9675 52.185 26.609C52.185 26.1493 52.1493 25.7193 52.0845 25.316ZM32.4212 25.4663C32.4859 25.5965 32.568 25.7224 32.6688 25.8398C32.9561 26.1751 33.415 26.4271 33.9734 26.4271C34.2906 26.4271 34.5372 26.3694 34.7289 26.297C34.9207 26.2246 35.0443 26.1557 35.2072 26.1023C35.2842 26.0771 35.3212 26.0728 35.3405 26.0727C35.3417 26.078 35.3437 26.0817 35.3437 26.0949V26.0981V26.1013L35.3606 27.224C35.3606 27.2586 35.2802 27.3775 35.1353 27.4812L35.13 27.4844L35.1248 27.4886L34.4253 28.024C33.7987 28.4719 33.7345 29.254 34.0603 29.7541C34.1988 29.9668 34.4024 30.1396 34.6507 30.2334C33.9727 31.0823 33.5852 32.1428 33.5852 33.2089C33.5852 35.5601 35.1099 37.3425 37.1321 37.7895C35.6176 38.3071 34.6688 39.82 34.6688 41.2412C34.6688 43.1046 36.1446 44.8473 38.4368 44.8473H38.603C38.5658 44.8763 38.5279 44.9039 38.4919 44.9351C37.984 45.3736 37.603 46.0499 37.603 46.8874C37.603 47.7577 37.971 48.4652 38.4982 48.9253C39.0254 49.3854 39.6968 49.6142 40.3436 49.6142H41.4039C41.3819 49.6915 41.3574 49.7634 41.3574 49.7634C41.3054 49.8809 41.3097 50.0154 41.369 50.1295C41.4283 50.2435 41.5361 50.3246 41.6621 50.3496C41.965 50.4096 42.2514 50.4137 42.5108 50.3697C39.5279 52.08 36.0889 53.0852 32.4214 53.1568V25.4663H32.4212ZM9.60973 26.2038L3.02708 28.3645L2.7911 30.322L9.03619 33.6975L9.00231 31.4363L8.05847 30.9993L8.20034 28.6745L9.30606 28.3983L9.60973 26.2038ZM58.0144 26.407C55.811 26.407 54.7066 28.2124 54.7066 30.0184C54.7066 31.8242 56.0132 33.6308 58.0144 33.6308C60.0146 33.6308 61.356 31.993 61.356 30.0184C61.3558 28.0774 60.1838 26.407 58.0144 26.407ZM37.9129 27.6736H45.0521C45.1968 27.6736 45.2499 27.7129 45.3019 27.7752C45.3539 27.8374 45.3925 27.9447 45.3918 28.0587C45.3913 28.1728 45.3513 28.2816 45.2977 28.3455C45.2441 28.4094 45.1906 28.4471 45.0522 28.4471H38.3522C38.1481 28.4471 37.9488 28.4601 37.7543 28.4842C37.857 28.2775 37.9152 28.0481 37.9152 27.808V27.8059V27.8027L37.9129 27.6736ZM58.0566 28.3645C59.0278 28.3645 59.594 29.2715 59.594 30.0184C59.594 30.7485 59.0068 31.6723 58.0566 31.6723C57.1059 31.6723 56.553 30.8707 56.553 30.0184C56.553 29.1662 57.0855 28.3645 58.0566 28.3645ZM6.71898 29.0449L6.63857 30.3401L4.85034 29.5115L6.71898 29.0449ZM11.035 34.9303H18.1045V47.9612C14.3456 44.6874 11.7527 40.1079 11.035 34.9303ZM24.7274 34.9303H31.5746V53.1567C29.1729 53.1094 26.8692 52.6611 24.7274 51.8774V34.9303Z" fill="url(#paint3_linear_11880_35060)"/>
<path d="M35.0477 19.8911C35.1144 19.8873 35.1924 19.9047 35.2985 19.9747L36.763 20.9683C36.9456 21.1014 37.0667 21.3475 37.0667 21.5461L37.0498 22.9185V22.9206V22.9238C37.0498 23.4643 37.3232 23.9249 37.6762 24.2465C37.8843 24.4361 38.1227 24.5857 38.3778 24.6772C38.1227 24.7686 37.8843 24.9183 37.6762 25.1079C37.3232 25.4294 37.0498 25.8901 37.0498 26.4305V26.4337V26.4359L37.0667 27.8136C37.0667 28.0121 36.9328 28.2614 36.7504 28.3945L35.2944 29.3818C35.1529 29.4751 35.0663 29.4738 34.9844 29.4537C34.9024 29.4336 34.8219 29.3754 34.7674 29.2918C34.6585 29.1246 34.6111 28.9298 34.9262 28.7046L34.9314 28.7004L34.9367 28.6961L35.6372 28.1617C35.874 27.9923 36.2054 27.7073 36.2054 27.2179V27.2147V27.2115L36.1885 26.0888C36.1885 25.8493 36.1024 25.5788 35.8604 25.3957C35.6185 25.2126 35.2728 25.1899 34.942 25.2983C34.7058 25.3758 34.5514 25.459 34.4277 25.5057C34.304 25.5524 34.1993 25.5808 33.9716 25.5808C33.6526 25.5808 33.4567 25.4609 33.3093 25.2887C33.1617 25.1166 33.0859 24.8769 33.0859 24.7194V24.6348C33.0859 24.4773 33.1617 24.2376 33.3093 24.0655C33.4568 23.8933 33.6527 23.7734 33.9716 23.7734C34.1992 23.7734 34.304 23.8018 34.4277 23.8485C34.5514 23.8952 34.7058 23.9784 34.942 24.0559C35.2728 24.1644 35.6185 24.1417 35.8604 23.9585C36.1024 23.7754 36.1885 23.4986 36.1885 23.2591L36.2054 22.1428V22.1396V22.1364C36.2054 21.6469 35.8635 21.3547 35.6266 21.1852L34.9367 20.6582L34.9314 20.654L34.9262 20.6498C34.6111 20.4245 34.6585 20.2297 34.7674 20.0625C34.8218 19.9788 34.9024 19.9207 34.9844 19.9006C35.0047 19.8956 35.0255 19.8924 35.0477 19.8911Z" fill="#9D0D16"/>
<path d="M47.7723 20.832C48.5824 21.3616 49.4227 21.9593 50.08 22.7758C50.8178 23.6923 51.3403 24.8713 51.3403 26.6094C51.3403 29.875 48.2907 32.4979 45.3575 32.4979H38.269C38.0676 32.4979 37.8615 32.5902 37.7368 32.7328C37.6121 32.8754 37.5619 33.0476 37.5633 33.2122C37.5647 33.3768 37.6176 33.545 37.7411 33.6852C37.8645 33.8254 38.0673 33.9191 38.2691 33.9191H45.1894C47.6773 33.9191 49.0039 35.5205 49.0039 37.411C49.0039 39.2533 47.6261 40.9854 45.2063 40.9854H38.0755C37.9027 40.9854 37.719 41.0637 37.6056 41.1896C37.4923 41.3155 37.445 41.4685 37.4459 41.615C37.4468 41.7614 37.4945 41.912 37.6068 42.0362C37.7189 42.1603 37.9021 42.2393 38.0755 42.2393H43.3832C44.5256 42.2393 45.4974 43.3526 45.4974 44.4159C45.4974 44.955 45.3441 45.4529 45.0053 45.8148C44.6665 46.1767 44.1253 46.439 43.215 46.439H40.0321C39.9052 46.439 39.7718 46.4668 39.649 46.5555C39.5263 46.6441 39.4258 46.8135 39.4311 46.9893C39.4363 47.1652 39.5376 47.3159 39.6554 47.3998C39.7732 47.4837 39.9048 47.5141 40.0321 47.5141H42.1431C42.4409 47.5141 42.6611 47.6444 42.8352 47.856C43.0091 48.0674 43.1104 48.3639 43.1104 48.6008C43.1104 48.896 43.0013 49.1686 42.8087 49.3395C42.6839 49.4502 42.5111 49.5271 42.2743 49.5458C42.286 49.4239 42.288 49.2857 42.2066 49.1204C42.1101 48.9242 41.8409 48.7681 41.612 48.7681H40.3454C39.9042 48.7681 39.4173 48.6017 39.0577 48.2876C38.6979 47.9736 38.4513 47.5286 38.4513 46.8878C38.4513 46.2985 38.6976 45.8784 39.047 45.5767C39.3965 45.2749 39.8606 45.1174 40.2025 45.1174H43.3156C43.4561 45.1174 43.593 45.0931 43.724 45.0136C43.855 44.9342 43.9898 44.7668 43.9896 44.5587C43.9894 44.3505 43.8537 44.183 43.723 44.1037C43.5921 44.0243 43.456 44.001 43.3156 44.001H38.4386C36.5621 44.001 35.5172 42.6731 35.5172 41.2414C35.5172 39.9641 36.6111 38.4499 38.2693 38.4499H45.5271C45.7247 38.4499 45.9279 38.3578 46.0488 38.2172C46.1696 38.0765 46.2171 37.9092 46.2159 37.7495C46.2148 37.5898 46.1652 37.4255 46.0456 37.2871C45.926 37.1486 45.7251 37.0554 45.5271 37.0554H38.1349C36.0684 37.0554 34.4336 35.523 34.4336 33.209C34.4336 31.2762 36.0151 29.2939 38.354 29.2939H45.0541C45.4195 29.2939 45.7472 29.1296 45.9482 28.8897C46.1491 28.6499 46.2386 28.3543 46.2403 28.0633C46.2418 27.7723 46.155 27.4742 45.9535 27.2326C45.752 26.9911 45.4218 26.8274 45.0541 26.8274H37.9054L37.9001 26.4263C37.9001 26.1787 38.0346 25.9297 38.2504 25.7332C38.4661 25.5367 38.7563 25.4242 38.9339 25.4242H42.94C43.095 25.4242 43.2485 25.3883 43.3993 25.2845C43.5501 25.1807 43.6902 24.9568 43.6902 24.6772C43.6902 24.3892 43.6045 24.2436 43.3993 24.0699C43.2485 23.966 43.095 23.9301 42.94 23.9301H38.9339C38.7563 23.9301 38.4661 23.8176 38.2504 23.6211C38.0346 23.4246 37.9001 23.1714 37.9001 22.9238L37.9032 22.6783H42.7929C43.0636 22.6783 43.3106 22.5915 43.5051 22.4423C43.6995 22.2931 43.8585 22.0643 43.8585 21.7756V21.4127H46.2362C46.8526 21.413 47.3885 21.183 47.7723 20.832Z" fill="url(#paint4_linear_11880_35060)"/>
</g>
<defs>
<linearGradient id="paint0_linear_11880_35060" x1="19.291" y1="17.7211" x2="32.9149" y2="54.7168" gradientUnits="userSpaceOnUse">
<stop stop-color="white"/>
<stop offset="1" stop-color="#53EEEF"/>
</linearGradient>
<linearGradient id="paint1_linear_11880_35060" x1="32.6731" y1="11.7724" x2="46.9327" y2="52.6444" gradientUnits="userSpaceOnUse">
<stop stop-color="#2F7FBE"/>
<stop offset="1" stop-color="#225D8B"/>
</linearGradient>
<linearGradient id="paint2_linear_11880_35060" x1="14.1584" y1="17.1187" x2="32.909" y2="53.7618" gradientUnits="userSpaceOnUse">
<stop stop-color="#D50D16"/>
<stop offset="0.5" stop-color="#880D16"/>
<stop offset="1" stop-color="#520D16"/>
</linearGradient>
<linearGradient id="paint3_linear_11880_35060" x1="10.0497" y1="13.2512" x2="51.4669" y2="48.6266" gradientUnits="userSpaceOnUse">
<stop stop-color="#F8FFBF"/>
<stop offset="0.5089" stop-color="#F8E45E"/>
<stop offset="0.75" stop-color="#F8D35E"/>
<stop offset="1" stop-color="#EE8E0A"/>
</linearGradient>
<linearGradient id="paint4_linear_11880_35060" x1="39.8915" y1="23.0559" x2="48.2921" y2="48.0347" gradientUnits="userSpaceOnUse">
<stop stop-color="#157031"/>
<stop offset="1" stop-color="#0F5324"/>
</linearGradient>
<clipPath id="clip0_11880_35060">
<rect width="64" height="64" fill="white"/>
</clipPath>
</defs>
</svg>
