<svg width="64" height="64" viewBox="0 0 64 64" fill="none" xmlns="http://www.w3.org/2000/svg">
<g clip-path="url(#clip0_10704_21897)">
<path d="M62.4553 31.9991C62.4553 48.8196 48.8196 62.4553 31.9991 62.4553C15.1787 62.4553 1.543 48.8196 1.54297 31.9991C1.54297 15.1787 15.1787 1.54297 31.9991 1.54297C48.8196 1.54297 62.4553 15.1787 62.4553 31.9991Z" fill="#1E1D51"/>
<path d="M31.8806 10.623C29.2794 10.672 26.784 11.1349 24.4641 11.9447V28.6643H31.8806V10.623ZM18.3904 15.6058C14.5228 18.8884 11.7955 23.4157 10.8681 28.5448H18.3904V15.6058ZM24.2017 34.5962V52.0756C26.5826 52.884 29.1433 53.3463 31.8129 53.3951V34.5962H24.2017ZM10.8438 34.6439C11.6148 40.1061 14.3999 44.9376 18.438 48.3912V34.6439H10.8438V34.6439Z" fill="url(#paint0_linear_10704_21897)"/>
<path d="M32.4219 10.8389C43.9138 11.0636 53.1624 20.455 53.1624 32.0006C53.1624 43.5462 43.9138 52.9324 32.4219 53.157V10.8389Z" fill="url(#paint1_linear_10704_21897)"/>
<path d="M23.9108 12.21V29.1381H31.7639V34.1352H23.9108V51.8333C22.1094 51.0897 20.4168 50.106 18.8789 48.909V34.1352H10.6974C10.6283 33.4335 10.5937 32.7289 10.5938 32.0238C10.5936 31.0586 10.6586 30.0945 10.7881 29.1381H18.8788V15.1354C20.4167 13.938 22.1094 12.9539 23.9108 12.21V12.21Z" fill="url(#paint2_linear_10704_21897)"/>
<path d="M37.7773 17.9648H45.0573V18.9807H37.7773V17.9648Z" fill="#9D0D16"/>
<path d="M32.0889 4.0541e-05C21.0096 -0.0176007 10.2221 5.72279 4.28842 16.0001C-4.54305 31.2967 0.7044 50.8793 16.001 59.7108C31.2975 68.5423 50.8801 63.2948 59.7116 47.9983C68.5431 32.7017 63.2956 13.1191 47.9991 4.28762C42.9799 1.38977 37.4997 0.00864109 32.0889 4.0541e-05V4.0541e-05ZM32 1.54279C48.8118 1.54279 62.4564 15.1874 62.4564 31.9992C62.4564 48.811 48.8118 62.4556 32 62.4556C15.1882 62.4556 1.5436 48.811 1.5436 31.9992C1.5436 15.1874 15.1882 1.54279 32 1.54279V1.54279ZM30.1663 2.60939V8.92226H32.0899V6.79542L33.6433 8.92226L36.1744 9.29263L33.9808 6.45787C34.4622 6.35784 35.3649 5.84675 35.3649 4.77013C35.3649 3.1583 33.9135 2.64329 33.0021 2.64329L30.1663 2.60939V2.60939ZM32.5968 3.99344C33.12 3.99344 33.491 4.34809 33.5078 4.73627C33.5247 5.12448 33.2562 5.54574 32.6645 5.54574H32.0561L32.0233 4.0273L32.5968 3.99344ZM41.665 4.35216C41.6309 4.35195 41.5964 4.35253 41.5624 4.35321C39.9028 4.387 38.4995 5.39326 38.1637 7.03664C37.8291 8.67342 39.3157 10.6102 41.1328 11.0227C43.1043 11.4702 44.9442 10.534 45.359 8.40904C45.7142 6.58945 44.3768 4.80277 42.3909 4.42407C42.1466 4.37752 41.9039 4.35361 41.665 4.35216V4.35216ZM18.386 6.01873L16.6644 6.92978L17.4739 14.0521L19.2971 12.7019L19.0611 11.6226L21.0525 10.4407L21.9635 11.1158L24.0565 10.2725L18.386 6.01873V6.01873ZM41.7095 6.09702C41.8265 6.09736 41.9453 6.10806 42.065 6.13088C43.0232 6.31359 43.6315 7.14202 43.4639 8.0207C43.2964 8.89941 42.4158 9.49752 41.4576 9.31481C40.4995 9.1321 40.0267 8.20422 40.1942 7.32551C40.3408 6.55667 40.8904 6.09478 41.7095 6.09702ZM18.4537 8.27997L19.9044 9.39418L18.8579 10.0016L18.4537 8.27997V8.27997ZM50.5545 9.19206L45.1537 12.9389L46.7399 14.1875L49.3397 12.1623L48.0224 15.4362L48.6975 16.0774L52.0063 14.7272L50.0149 17.4276L51.2296 19.1492L55.0441 13.6807L53.8283 12.23L50.7227 13.4786L51.9723 10.3391L50.5545 9.19206V9.19206ZM32 9.98992C19.8555 9.98992 9.98967 19.8558 9.98967 32.0002C9.98967 44.1448 19.8555 54.0095 32 54.0095C44.1445 54.0095 54.0103 44.1448 54.0103 32.0002C54.0103 19.8558 44.1445 9.98992 32 9.98992ZM11.8372 10.7105L9.20452 13.7484L13.7947 17.8328L15.0782 16.3483L13.3228 14.7949L14.6052 13.4109L13.491 12.3982L12.2086 13.8161L11.5673 13.2088L12.9514 11.6893L11.8372 10.7105V10.7105ZM31.5746 10.8385V28.3063H24.7274V12.1178C26.8693 11.3338 29.173 10.8859 31.5746 10.8385V10.8385ZM32.4211 10.8385C40.4808 10.9961 47.4366 15.6627 50.873 22.4188C50.8288 22.3598 50.7837 22.3016 50.7375 22.2442C49.8956 21.1984 48.8349 20.5047 47.9313 19.9237C47.8595 19.8777 47.7754 19.8545 47.6901 19.857C47.6251 19.8589 47.5614 19.8758 47.504 19.9062C47.4465 19.9367 47.3969 19.98 47.3589 20.0327C47.1486 20.3239 46.7516 20.566 46.2341 20.566H42.3349C42.1392 20.566 41.9534 20.6193 41.7931 20.7353C41.6328 20.8514 41.4904 21.0589 41.4904 21.3046V21.749C41.4885 21.7516 41.485 21.7584 41.4682 21.7712C41.4301 21.8005 41.3551 21.8315 41.2714 21.8315H37.9118L37.915 21.5511V21.5458C37.915 21.0344 37.6542 20.5697 37.2516 20.2761L37.2452 20.2708L37.2399 20.2676L35.7712 19.2719L35.7691 19.2698L35.767 19.2688C35.5332 19.1144 35.2719 19.0412 35.0253 19.0466C34.9443 19.0484 34.8637 19.059 34.7851 19.0783C34.4752 19.1542 34.2231 19.35 34.0602 19.6C33.7345 20.1001 33.8093 20.8905 34.4359 21.3385L35.1247 21.8654L35.13 21.8697L35.1353 21.8729C35.2803 21.9766 35.3607 22.1019 35.3607 22.1363L35.3438 23.2527V23.259C35.3438 23.2727 35.3417 23.276 35.3406 23.2813C35.3213 23.2812 35.2842 23.2769 35.2072 23.2516C35.0443 23.1982 34.9207 23.1294 34.729 23.0569C34.5372 22.9845 34.2907 22.9268 33.9735 22.9268C33.415 22.9268 32.9562 23.1788 32.6688 23.514C32.5712 23.6279 32.488 23.7533 32.4212 23.8876V10.8385H32.4211ZM23.8809 12.449V29.1528H31.5746V34.0837H23.8809V51.5472C22.1147 50.8127 20.4563 49.842 18.951 48.6617V34.0837H10.9356C10.8679 33.3913 10.834 32.696 10.8341 32.0002C10.8339 31.0479 10.8976 30.0966 11.0245 29.1528H18.951V15.3356C20.4563 14.155 22.1147 13.1839 23.8809 12.449V12.449ZM38.2282 15.7028C37.8824 15.7028 37.6018 15.9835 37.6018 16.3292C37.6018 16.675 37.8824 16.9557 38.2282 16.9557C38.574 16.9557 38.8546 16.675 38.8546 16.3292C38.8546 15.9835 38.574 15.7028 38.2282 15.7028ZM39.8239 15.7028C39.4781 15.7028 39.1974 15.9835 39.1974 16.3292C39.1974 16.675 39.4781 16.9557 39.8239 16.9557C40.1697 16.9557 40.4503 16.675 40.4503 16.3292C40.4503 15.9835 40.1697 15.7028 39.8239 15.7028ZM41.4185 15.7028C41.0727 15.7028 40.7921 15.9835 40.7921 16.3292C40.7921 16.675 41.0727 16.9557 41.4185 16.9557C41.7643 16.9557 42.0449 16.675 42.0449 16.3292C42.0449 15.9835 41.7643 15.7028 41.4185 15.7028ZM43.0131 15.7028C42.6673 15.7028 42.3867 15.9835 42.3867 16.3292C42.3867 16.675 42.6674 16.9557 43.0131 16.9557C43.3589 16.9557 43.6395 16.675 43.6395 16.3292C43.6395 15.9835 43.3589 15.7028 43.0131 15.7028ZM44.6088 15.7028C44.263 15.7028 43.9824 15.9835 43.9824 16.3292C43.9824 16.675 44.263 16.9557 44.6088 16.9557C44.9546 16.9557 45.2352 16.675 45.2352 16.3292C45.2352 15.9835 44.9546 15.7028 44.6088 15.7028ZM18.1045 16.0361V28.3063H11.1557C12.0125 23.4421 14.5315 19.1492 18.1045 16.0361ZM37.7785 17.3397V18.3555H45.0585V17.3397H37.7785ZM37.7785 18.7068V19.7227H45.0585V18.7068H37.7785ZM58.0482 18.7111L52.3099 21.04L53.9299 24.8208L55.4484 24.1795L54.605 22.2548L55.314 21.9172L56.1245 23.7743L57.5075 23.1997L56.7319 21.4114L57.407 21.1078L58.2165 23.0314L59.6344 22.4579L58.0482 18.7111V18.7111ZM5.62591 19.42L4.81644 21.2083L10.4193 23.8081L12.2086 20.1618L10.8245 19.4528L9.74419 21.3437L5.62591 19.42ZM35.0495 19.8909C35.1163 19.887 35.1942 19.9045 35.3003 19.9745L36.7648 20.9681C36.9473 21.1012 37.0685 21.3473 37.0685 21.5458L37.0515 22.9182V22.9235C37.0515 23.464 37.3249 23.9246 37.678 24.2462C37.8861 24.4358 38.1245 24.5854 38.3795 24.6768C38.1245 24.7683 37.8862 24.9179 37.678 25.1075C37.3249 25.4291 37.0515 25.8897 37.0515 26.4302V26.4355L37.0685 27.8132C37.0685 28.0117 36.9346 28.261 36.7521 28.3941L35.2961 29.3813C35.1546 29.4747 35.0681 29.4734 34.9861 29.4533C34.9041 29.4332 34.8236 29.375 34.7691 29.2914C34.6602 29.1242 34.6128 28.9294 34.9279 28.7041L34.9332 28.6999L34.9384 28.6956L35.639 28.1613C35.8759 27.9918 36.2072 27.7069 36.2072 27.2174V27.2111L36.1902 26.0884C36.1902 25.8489 36.1042 25.5784 35.8622 25.3953C35.6202 25.2122 35.2745 25.1895 34.9437 25.2979C34.7075 25.3754 34.5532 25.4586 34.4295 25.5053C34.3058 25.5521 34.201 25.5805 33.9734 25.5805C33.6544 25.5805 33.4585 25.4605 33.311 25.2884C33.1635 25.1164 33.0877 24.8766 33.0877 24.7192V24.6345C33.0877 24.4771 33.1634 24.2374 33.311 24.0653C33.4585 23.8932 33.6545 23.7732 33.9734 23.7732C34.201 23.7732 34.3058 23.8016 34.4295 23.8483C34.5531 23.8951 34.7075 23.9783 34.9437 24.0557C35.2745 24.1642 35.6202 24.1415 35.8622 23.9584C36.1042 23.7753 36.1902 23.4985 36.1902 23.259L36.2072 22.1426V22.1363C36.2072 21.6468 35.8653 21.3545 35.6284 21.185L34.9384 20.6581L34.9332 20.6538L34.9279 20.6496C34.6128 20.4244 34.6602 20.2295 34.7691 20.0623C34.8236 19.9787 34.9041 19.9205 34.9861 19.9004C35.0069 19.8953 35.0281 19.8922 35.0495 19.8909ZM47.7705 20.8316C48.5807 21.3611 49.421 21.9589 50.0783 22.7754C50.8161 23.6918 51.3385 24.8709 51.3385 26.609C51.3385 29.8746 48.289 32.4976 45.3558 32.4976H38.2673C38.0659 32.4976 37.8599 32.5899 37.7351 32.7325C37.6103 32.8751 37.5602 33.0473 37.5615 33.2118C37.5629 33.3764 37.6159 33.5446 37.7393 33.6848C37.8627 33.8251 38.0656 33.9186 38.2673 33.9186H45.1876C47.6756 33.9186 49.0021 35.52 49.0021 37.4105C49.0021 39.2528 47.6243 40.9849 45.2045 40.9849H38.0737C37.9009 40.9849 37.7172 41.0632 37.6039 41.1891C37.4905 41.315 37.4432 41.4681 37.4441 41.6144C37.445 41.7608 37.4927 41.9115 37.6049 42.0356C37.7172 42.1597 37.9003 42.2388 38.0737 42.2388H43.3813C44.5237 42.2388 45.4955 43.3521 45.4955 44.4153C45.4955 44.9545 45.3423 45.4523 45.0035 45.8142C44.6647 46.1761 44.1234 46.4385 43.2131 46.4385H40.0302C39.9034 46.4385 39.7699 46.4663 39.6472 46.5549C39.5244 46.6436 39.424 46.8129 39.4292 46.9887C39.4344 47.1646 39.5357 47.3154 39.6535 47.3993C39.7713 47.4832 39.9029 47.5136 40.0302 47.5136H42.1412C42.439 47.5136 42.6592 47.6438 42.8332 47.8554C43.0073 48.0669 43.1084 48.3634 43.1084 48.6003C43.1084 48.8954 42.9994 49.1681 42.8068 49.3389C42.6819 49.4496 42.5093 49.5265 42.2724 49.5452C42.2841 49.4232 42.2861 49.2851 42.2047 49.1198C42.1082 48.9237 41.8389 48.7675 41.6101 48.7675H40.3435C39.9024 48.7675 39.4155 48.6012 39.0557 48.2871C38.696 47.9731 38.4494 47.528 38.4494 46.8872C38.4494 46.298 38.6957 45.8778 39.0452 45.5761C39.3946 45.2744 39.8587 45.1169 40.2007 45.1169H43.3137C43.4543 45.1169 43.5912 45.0927 43.7221 45.0132C43.8531 44.9338 43.988 44.7664 43.9877 44.5582C43.9875 44.3501 43.8519 44.1826 43.7211 44.1032C43.5903 44.0239 43.4542 44.0006 43.3137 44.0006H38.4368C36.5603 44.0006 35.5153 42.6726 35.5153 41.2409C35.5153 39.9636 36.6093 38.4495 38.2675 38.4495H45.5252C45.7228 38.4495 45.9261 38.3574 46.0469 38.2168C46.1678 38.0762 46.2153 37.9088 46.2141 37.7491C46.213 37.5894 46.1634 37.4251 46.0438 37.2867C45.9242 37.1483 45.7233 37.0549 45.5253 37.0549H38.1331C36.0667 37.0549 34.4318 35.5226 34.4318 33.2086C34.4318 31.2757 36.0134 29.2935 38.3522 29.2935H45.0523C45.4177 29.2935 45.7455 29.1291 45.9464 28.8893C46.1474 28.6494 46.237 28.3538 46.2385 28.0629C46.24 27.7719 46.1532 27.4737 45.9517 27.2322C45.7502 26.9907 45.42 26.8269 45.0523 26.8269H37.9035L37.8983 26.4259C37.8983 26.1784 38.0328 25.9294 38.2485 25.7328C38.4643 25.5363 38.7545 25.4238 38.9321 25.4238H42.9382C43.0932 25.4238 43.2466 25.388 43.3974 25.2842C43.5482 25.1803 43.6884 24.9564 43.6884 24.6768C43.6884 24.3888 43.6027 24.2431 43.3974 24.0694C43.2466 23.9656 43.0932 23.9297 42.9382 23.9297H38.9321C38.7545 23.9297 38.4643 23.8173 38.2485 23.6207C38.0328 23.4242 37.8983 23.171 37.8983 22.9234L37.9014 22.6779H42.7911C43.0618 22.6779 43.3087 22.5912 43.5032 22.442C43.6977 22.2928 43.8566 22.0639 43.8566 21.7753V21.4124H46.2343C46.8509 21.4125 47.3869 21.1827 47.7705 20.8316V20.8316ZM52.0845 25.316C52.7834 27.4171 53.1617 29.6648 53.1617 32.0002C53.1617 39.3931 49.3706 45.9001 43.6257 49.6839C43.85 49.3648 43.9548 48.9801 43.9548 48.6003C43.9548 48.1478 43.7924 47.689 43.4872 47.3179C43.4751 47.3032 43.4606 47.29 43.448 47.2755C44.4109 47.229 45.1439 46.9032 45.6214 46.3931C46.1376 45.8417 46.342 45.117 46.342 44.4154C46.342 43.3789 45.7618 42.3815 44.8828 41.8315H45.2045C48.0404 41.8315 49.8487 39.6892 49.8487 37.4106C49.8487 35.4786 48.5921 33.7478 46.5018 33.232C49.5029 32.6682 52.1851 29.9677 52.1851 26.6091C52.1851 26.1493 52.1494 25.7192 52.0845 25.316V25.316ZM32.4211 25.4662C32.4879 25.6005 32.5711 25.7259 32.6687 25.8397C32.9561 26.175 33.415 26.427 33.9734 26.427C34.2906 26.427 34.5372 26.3694 34.7289 26.2969C34.9206 26.2244 35.0443 26.1556 35.2072 26.1022C35.2841 26.0769 35.3212 26.0726 35.3405 26.0725C35.3417 26.0779 35.3437 26.0816 35.3437 26.0948V26.1011L35.3606 27.2238C35.3606 27.2583 35.2802 27.3772 35.1352 27.4809L35.13 27.4841L35.1247 27.4883L34.4253 28.0237C33.7987 28.4717 33.7345 29.2537 34.0602 29.7538C34.1988 29.9666 34.4023 30.1394 34.6507 30.2332C33.9727 31.082 33.5851 32.1426 33.5851 33.2086C33.5851 35.5599 35.1098 37.3422 37.132 37.7893C35.6174 38.3068 34.6686 39.8197 34.6686 41.241C34.6686 43.1044 36.1445 44.8471 38.4367 44.8471H38.6028C38.5656 44.8761 38.5278 44.9038 38.4917 44.9349C37.9838 45.3735 37.6029 46.0498 37.6029 46.8872C37.6029 47.7576 37.9709 48.4651 38.4981 48.9252C39.0252 49.3853 39.6967 49.614 40.3435 49.614H41.4037C41.3818 49.6913 41.3571 49.7632 41.3571 49.7632C41.3315 49.8213 41.3193 49.8843 41.3213 49.9477C41.3234 50.011 41.3396 50.0732 41.3689 50.1294C41.3981 50.1857 41.4396 50.2347 41.4904 50.2727C41.5411 50.3108 41.5997 50.337 41.6619 50.3494C41.9649 50.4094 42.2511 50.4136 42.5105 50.3695C39.5277 52.0798 36.0887 53.085 32.4211 53.1567V25.4662V25.4662ZM9.60979 26.2038L3.02712 28.3645L2.79115 30.3221L9.0363 33.6975L9.00244 31.4363L8.05858 30.9993L8.20039 28.6745L9.30613 28.3984L9.60979 26.2038V26.2038ZM58.0143 26.4069C55.8111 26.4069 54.7066 28.2125 54.7066 30.0184C54.7066 31.8243 56.0132 33.6309 58.0143 33.6309C60.0146 33.6309 61.3559 31.9931 61.3559 30.0184C61.3559 28.0774 60.1839 26.4069 58.0143 26.4069ZM37.9129 27.6735H45.0521C45.1968 27.6735 45.2499 27.7128 45.3019 27.7751C45.3538 27.8374 45.3924 27.9446 45.3918 28.0587C45.3912 28.1728 45.3512 28.2815 45.2976 28.3455C45.2441 28.4094 45.1906 28.447 45.0521 28.447H38.352C38.148 28.447 37.9487 28.4601 37.7542 28.4841C37.8569 28.2774 37.915 28.0481 37.915 27.8079V27.8026L37.9129 27.6735V27.6735ZM58.0567 28.3645C59.0278 28.3645 59.5941 29.2714 59.5941 30.0184C59.5941 30.7485 59.0069 31.6722 58.0567 31.6722C57.106 31.6722 56.553 30.8707 56.553 30.0184C56.553 29.1661 57.0855 28.3645 58.0567 28.3645ZM6.71896 29.0449L6.63854 30.34L4.8503 29.5115L6.71896 29.0449ZM11.0351 34.9302H18.1045V47.9612C14.3456 44.6874 11.7528 40.1079 11.0351 34.9302ZM24.7274 34.9302H31.5746V53.1567C29.173 53.1093 26.8694 52.6611 24.7274 51.8774V34.9302Z" fill="url(#paint3_linear_10704_21897)"/>
<path d="M35.0477 19.8911C35.1145 19.8873 35.1924 19.9047 35.2985 19.9747L36.763 20.9683C36.9455 21.1014 37.0667 21.3475 37.0667 21.5461L37.0497 22.9185V22.9237C37.0497 23.4643 37.3231 23.9248 37.6762 24.2464C37.8843 24.436 38.1227 24.5856 38.3777 24.6771C38.1227 24.7685 37.8844 24.9181 37.6762 25.1077C37.3231 25.4293 37.0497 25.8899 37.0497 26.4304V26.4357L37.0667 27.8134C37.0667 28.0119 36.9328 28.2613 36.7503 28.3943L35.2943 29.3815C35.1528 29.4749 35.0663 29.4736 34.9843 29.4535C34.9023 29.4334 34.8218 29.3752 34.7673 29.2916C34.6584 29.1244 34.611 28.9296 34.9261 28.7043L34.9314 28.7001L34.9366 28.6959L35.6372 28.1615C35.8741 27.992 36.2054 27.7072 36.2054 27.2176V27.2113L36.1884 26.0886C36.1884 25.8491 36.1024 25.5787 35.8604 25.3955C35.6184 25.2124 35.2727 25.1897 34.9419 25.2982C34.7057 25.3756 34.5514 25.4588 34.4277 25.5056C34.304 25.5523 34.1992 25.5807 33.9716 25.5807C33.6526 25.5807 33.4567 25.4608 33.3092 25.2886C33.1617 25.1166 33.0859 24.8768 33.0859 24.7194V24.6347C33.0859 24.4773 33.1616 24.2376 33.3092 24.0655C33.4567 23.8934 33.6527 23.7734 33.9716 23.7734C34.1992 23.7734 34.304 23.8018 34.4277 23.8486C34.5513 23.8953 34.7057 23.9786 34.9419 24.056C35.2727 24.1644 35.6184 24.1418 35.8604 23.9586C36.1024 23.7755 36.1884 23.4987 36.1884 23.2592L36.2054 22.1428V22.1365C36.2054 21.647 35.8635 21.3547 35.6266 21.1852L34.9366 20.6583L34.9314 20.654L34.9261 20.6498C34.611 20.4246 34.6584 20.2298 34.7673 20.0625C34.8218 19.9789 34.9023 19.9207 34.9843 19.9006C35.0051 19.8956 35.0263 19.8924 35.0477 19.8911Z" fill="#9D0D16"/>
<path d="M47.7723 20.832C48.5825 21.3616 49.4228 21.9594 50.0801 22.7758C50.8179 23.6923 51.3403 24.8713 51.3403 26.6095C51.3403 29.875 48.2908 32.498 45.3576 32.498H38.2691C38.0677 32.498 37.8617 32.5903 37.7369 32.7329C37.6121 32.8756 37.562 33.0477 37.5633 33.2122C37.5647 33.3768 37.6177 33.545 37.7411 33.6852C37.8645 33.8255 38.0674 33.9191 38.2691 33.9191H45.1894C47.6774 33.9191 49.0039 35.5204 49.0039 37.4109C49.0039 39.2533 47.6261 40.9853 45.2063 40.9853H38.0755C37.9027 40.9853 37.719 41.0636 37.6057 41.1895C37.4923 41.3155 37.445 41.4685 37.4459 41.6149C37.4468 41.7613 37.4945 41.9119 37.6067 42.036C37.719 42.1602 37.9021 42.2392 38.0755 42.2392H43.3831C44.5255 42.2392 45.4973 43.3525 45.4973 44.4158C45.4973 44.955 45.3441 45.4528 45.0053 45.8146C44.6665 46.1765 44.1252 46.4389 43.2149 46.4389H40.032C39.9052 46.4389 39.7717 46.4667 39.649 46.5554C39.5262 46.644 39.4258 46.8133 39.431 46.9892C39.4362 47.165 39.5375 47.3158 39.6553 47.3997C39.7731 47.4837 39.9047 47.514 40.032 47.514H42.143C42.4408 47.514 42.661 47.6443 42.835 47.8558C43.0091 48.0674 43.1102 48.3638 43.1102 48.6007C43.1102 48.8958 43.0012 49.1686 42.8086 49.3393C42.6837 49.4501 42.5111 49.527 42.2742 49.5456C42.2859 49.4237 42.2879 49.2856 42.2065 49.1203C42.11 48.9242 41.8407 48.7679 41.6119 48.7679H40.3453C39.9042 48.7679 39.4173 48.6016 39.0575 48.2875C38.6978 47.9735 38.4512 47.5284 38.4512 46.8876C38.4512 46.2984 38.6975 45.8783 39.047 45.5766C39.3964 45.2749 39.8605 45.1173 40.2025 45.1173H43.3155C43.4561 45.1173 43.593 45.0931 43.7239 45.0137C43.8549 44.9342 43.9898 44.7668 43.9896 44.5586C43.9893 44.3505 43.8537 44.183 43.7229 44.1036C43.5921 44.0243 43.456 44.001 43.3155 44.001H38.4386C36.5621 44.001 35.5171 42.6731 35.5171 41.2414C35.5171 39.9641 36.6111 38.45 38.2693 38.45H45.527C45.7246 38.45 45.9279 38.3578 46.0487 38.2172C46.1696 38.0766 46.2171 37.9092 46.2159 37.7495C46.2148 37.5898 46.1652 37.4255 46.0456 37.2871C45.926 37.1487 45.7251 37.0554 45.5271 37.0554H38.1349C36.0685 37.0554 34.4336 35.523 34.4336 33.209C34.4336 31.2761 36.0152 29.2939 38.354 29.2939H45.0541C45.4195 29.2939 45.7473 29.1296 45.9482 28.8897C46.1492 28.6499 46.2388 28.3543 46.2403 28.0633C46.2418 27.7723 46.155 27.4742 45.9535 27.2327C45.752 26.9912 45.4218 26.8274 45.0541 26.8274H37.9053L37.9001 26.4263C37.9001 26.1788 38.0346 25.9298 38.2503 25.7333C38.4661 25.5367 38.7563 25.4243 38.9339 25.4243H42.94C43.095 25.4243 43.2484 25.3885 43.3992 25.2846C43.55 25.1808 43.6902 24.9568 43.6902 24.6772C43.6902 24.3892 43.6045 24.2436 43.3992 24.0698C43.2484 23.966 43.095 23.9302 42.94 23.9302H38.9339C38.7563 23.9302 38.4661 23.8177 38.2503 23.6212C38.0346 23.4247 37.9001 23.1714 37.9001 22.9239L37.9032 22.6784H42.7929C43.0636 22.6784 43.3105 22.5916 43.505 22.4424C43.6995 22.2932 43.8584 22.0644 43.8584 21.7758V21.4128H46.2361C46.8527 21.413 47.3887 21.1831 47.7723 20.832V20.832Z" fill="url(#paint4_linear_10704_21897)"/>
</g>
<defs>
<linearGradient id="paint0_linear_10704_21897" x1="19.2909" y1="17.7211" x2="32.9148" y2="54.7167" gradientUnits="userSpaceOnUse">
<stop stop-color="white"/>
<stop offset="1" stop-color="#53EEEF"/>
</linearGradient>
<linearGradient id="paint1_linear_10704_21897" x1="32.6731" y1="11.7733" x2="46.9327" y2="52.6454" gradientUnits="userSpaceOnUse">
<stop stop-color="#2F7FBE"/>
<stop offset="1" stop-color="#225D8B"/>
</linearGradient>
<linearGradient id="paint2_linear_10704_21897" x1="14.1613" y1="17.1207" x2="32.9119" y2="53.7638" gradientUnits="userSpaceOnUse">
<stop stop-color="#D50D16"/>
<stop offset="0.5" stop-color="#880D16"/>
<stop offset="1" stop-color="#520D16"/>
</linearGradient>
<linearGradient id="paint3_linear_10704_21897" x1="10.05" y1="13.2513" x2="51.4672" y2="48.6267" gradientUnits="userSpaceOnUse">
<stop stop-color="#F8FFBF"/>
<stop offset="0.509" stop-color="#F8E45E"/>
<stop offset="0.75" stop-color="#F8D35E"/>
<stop offset="1" stop-color="#EE8E0A"/>
</linearGradient>
<linearGradient id="paint4_linear_10704_21897" x1="39.8915" y1="23.056" x2="48.2921" y2="48.0348" gradientUnits="userSpaceOnUse">
<stop stop-color="#157031"/>
<stop offset="1" stop-color="#0F5324"/>
</linearGradient>
<clipPath id="clip0_10704_21897">
<rect width="64" height="64" fill="white"/>
</clipPath>
</defs>
</svg>
