<svg width="64" height="55" viewBox="0 0 64 55" fill="none" xmlns="http://www.w3.org/2000/svg">
<g clip-path="url(#clip0_10704_21896)">
<path fill-rule="evenodd" clip-rule="evenodd" d="M40.3867 0H63.998V44.7372H40.3867V0Z" fill="url(#paint0_linear_10704_21896)"/>
<path fill-rule="evenodd" clip-rule="evenodd" d="M0 0.125219V44.2409L38.5336 2.29212C38.5336 2.29212 39.9607 0.195024 38.0965 0.195024C36.6403 0.195024 0 0.202638 0 0.125V0.125219Z" fill="url(#paint1_linear_10704_21896)"/>
<path d="M3.58576 53.8354H1.86371L1.62673 54.7961H0.0820312L1.92053 48.9766H3.56894L5.40769 54.7958H3.82579L3.58576 53.8351M3.26851 52.5769L2.72805 50.4848L2.19089 52.5769H3.26877M5.80801 50.5804H7.07598V51.1955C7.25843 50.9389 7.44189 50.7562 7.62664 50.6476C7.81342 50.5394 8.03816 50.4851 8.30063 50.4851C8.58322 50.4851 8.80669 50.5445 8.9713 50.6634C9.13617 50.7827 9.27071 50.9601 9.37519 51.1955C9.58872 50.9203 9.7834 50.7338 9.95923 50.6359C10.135 50.5353 10.3516 50.4851 10.6098 50.4851C10.9902 50.4851 11.2873 50.6201 11.5009 50.89C11.7144 51.1573 11.8212 51.5767 11.8212 52.1483V54.7958H10.4597V52.3942C10.4597 52.2038 10.4286 52.0621 10.3662 51.9696C10.2749 51.8241 10.1616 51.7513 10.026 51.7513C9.86571 51.7513 9.73677 51.8201 9.63867 51.9577C9.54082 52.0953 9.49189 52.3162 9.49189 52.6204V54.7958H8.13041V52.4737C8.13041 52.2884 8.12174 52.1628 8.10391 52.0965C8.07486 51.9908 8.02491 51.9059 7.95357 51.8425C7.88644 51.7778 7.79656 51.7421 7.70334 51.7431C7.5479 51.7431 7.41973 51.8134 7.31958 51.9536C7.21944 52.0937 7.1695 52.3241 7.1695 52.6441V54.7958H5.80801V50.5804M16.5664 53.089H13.8434C13.8679 53.3482 13.9267 53.5413 14.0202 53.6685C14.1515 53.8509 14.3227 53.9424 14.5342 53.9424C14.6675 53.9424 14.7941 53.9027 14.9144 53.8232C14.9878 53.773 15.0668 53.6843 15.1514 53.5574L16.4894 53.7042C16.2848 54.1277 16.0379 54.4319 15.7487 54.6172C15.4594 54.7996 15.0446 54.8911 14.5041 54.8911C14.0348 54.8911 13.6653 54.8129 13.3962 54.6567C13.1271 54.4982 12.9034 54.248 12.7255 53.9068C12.5497 53.5628 12.4618 53.1591 12.4618 52.6959C12.4618 52.0372 12.6386 51.5038 12.9923 51.0964C13.3483 50.6887 13.8388 50.4848 14.4641 50.4848C14.9712 50.4848 15.3715 50.5763 15.6653 50.759C15.9589 50.9415 16.1826 51.2062 16.336 51.5528C16.4894 51.8993 16.5664 52.3506 16.5664 52.9063V53.089M15.1847 52.3149C15.158 52.0028 15.0869 51.779 14.9712 51.644C14.8578 51.5089 14.7075 51.4417 14.5207 51.4417C14.3049 51.4417 14.1326 51.5436 14.0034 51.7474C13.9211 51.8743 13.8689 52.0634 13.8467 52.3149H15.1847M17.2103 50.5804H18.4818V51.2709C18.6041 50.972 18.7298 50.7669 18.8589 50.6558C18.9899 50.5419 19.1512 50.4851 19.3426 50.4851C19.5429 50.4851 19.762 50.559 20 50.7073L19.5796 51.8585C19.4193 51.779 19.2926 51.7393 19.1991 51.7393C19.021 51.7393 18.8832 51.8267 18.7853 52.0012C18.6452 52.2474 18.5751 52.7078 18.5751 53.3826V54.7958H17.2103V50.5804M20.277 48.9766H21.6352V50.0761H20.277V48.9766M20.277 50.5804H21.6352V54.7958H20.277V50.5804ZM25.1521 53.1484L26.4436 53.3232C26.3722 53.6433 26.2555 53.9213 26.0932 54.1565C25.9337 54.3869 25.7192 54.5739 25.4691 54.7005C25.2179 54.8302 24.8973 54.8949 24.5082 54.8949C24.1321 54.8949 23.8184 54.8542 23.5672 54.7719C23.3232 54.6905 23.1022 54.5517 22.923 54.3672C22.7411 54.1766 22.5972 53.9529 22.4993 53.7082C22.3971 53.4567 22.3459 53.1234 22.3459 52.7078C22.3459 52.2739 22.408 51.9128 22.5326 51.6241C22.6227 51.4143 22.7492 51.2222 22.9064 51.0566C23.0644 50.8872 23.2268 50.7616 23.3937 50.6795C23.6584 50.5498 23.9976 50.4851 24.4114 50.4851C24.9898 50.4851 25.4302 50.6082 25.7329 50.854C26.0376 51.1002 26.2512 51.4603 26.3735 51.934L25.0953 52.1363C25.0553 51.9564 24.9819 51.8213 24.8752 51.7314C24.7707 51.6389 24.6293 51.5925 24.4514 51.5925C24.2267 51.5925 24.0442 51.6891 23.9041 51.8822C23.7665 52.0728 23.6971 52.3626 23.6971 52.7514C23.6971 53.098 23.7662 53.3614 23.9041 53.5413C24.0422 53.7215 24.2177 53.8114 24.4315 53.8114C24.6094 53.8114 24.7585 53.7572 24.8785 53.6486C25.0008 53.5401 25.092 53.3734 25.1521 53.1484M28.3121 51.9457L27.0141 51.7831C27.063 51.513 27.1331 51.3015 27.2243 51.1479C27.3178 50.9916 27.4511 50.8569 27.6249 50.743C27.7495 50.6609 27.9205 50.5977 28.1386 50.5526C28.3716 50.5061 28.6087 50.4835 28.8462 50.4851C29.2532 50.4851 29.5801 50.5129 29.8273 50.5684C30.0742 50.6214 30.2798 50.7338 30.4444 50.9058C30.5601 51.0248 30.6513 51.1942 30.7181 51.4139C30.7824 51.6155 30.8162 51.8256 30.8182 52.0372V53.8986C30.8182 54.0974 30.8284 54.2533 30.8483 54.3672C30.8705 54.4783 30.9171 54.621 30.9885 54.7958H29.7136C29.6627 54.6873 29.6293 54.6052 29.6137 54.5497C29.5926 54.4607 29.5769 54.3705 29.5668 54.2795C29.389 54.4834 29.2121 54.6292 29.0363 54.7163C28.796 54.8328 28.517 54.8911 28.1987 54.8911C27.776 54.8911 27.4547 54.7747 27.2345 54.5418C27.0164 54.3088 26.9073 54.0219 26.9073 53.6805C26.9073 53.3602 26.9863 53.0969 27.1443 52.8905C27.3023 52.6841 27.5938 52.5305 28.0186 52.4301C28.5282 52.3083 28.8585 52.2237 29.0098 52.176C29.1736 52.1206 29.334 52.0556 29.4901 51.9814C29.4901 51.7831 29.4557 51.644 29.3867 51.5647C29.3179 51.4852 29.1966 51.4455 29.0231 51.4455C28.8006 51.4455 28.6337 51.488 28.5223 51.5726C28.4357 51.6389 28.3656 51.7632 28.3121 51.9457M29.4901 52.7952C29.2995 52.876 29.1045 52.9462 28.9061 53.0055C28.6304 53.0929 28.4558 53.1787 28.3822 53.2636C28.3087 53.3453 28.2683 53.4514 28.2688 53.5612C28.2688 53.6884 28.3055 53.7928 28.3789 53.8746C28.4546 53.9541 28.5649 53.9939 28.7094 53.9939C28.8605 53.9939 29.0006 53.9503 29.1298 53.8629C29.2611 53.7755 29.3533 53.6698 29.4068 53.5454C29.4624 53.4183 29.4901 53.2544 29.4901 53.0531V52.7952M31.6393 50.5804H32.9039V51.2669C33.093 50.9866 33.2844 50.7868 33.4778 50.6675C33.6714 50.546 33.9071 50.4851 34.1851 50.4851C34.5612 50.4851 34.8548 50.6186 35.066 50.8859C35.2798 51.1507 35.3866 51.5607 35.3866 52.1167V54.7958H34.0218V52.4777C34.0218 52.213 33.9805 52.0265 33.8982 51.9179C33.8159 51.8068 33.7002 51.7513 33.5512 51.7513C33.3865 51.7513 33.253 51.8252 33.1508 51.9735C33.0484 52.1218 32.9972 52.3878 32.9972 52.7713V54.7958H31.639V50.5804M38.5598 48.9766H40.5487L41.3162 52.5172L42.0804 48.9766H44.0626V54.7958H42.8277V50.3579L41.8701 54.7958H40.7523L39.798 50.3579V54.7958H38.5598V48.9766M44.7666 52.6999C44.7666 52.0568 44.9491 51.5278 45.3137 51.1122C45.6786 50.6943 46.1714 50.4851 46.7922 50.4851C47.5018 50.4851 48.038 50.7297 48.4006 51.2195C48.6918 51.6137 48.8376 52.0993 48.8376 52.676C48.8376 53.3245 48.6564 53.8563 48.2938 54.2719C47.9332 54.6847 47.4338 54.8911 46.7955 54.8911C46.226 54.8911 45.7655 54.7191 45.4139 54.3751C44.9825 53.9491 44.7666 53.3905 44.7666 52.6999M46.1281 52.6959C46.1281 53.0717 46.1916 53.3497 46.3182 53.5296C46.4474 53.7095 46.6087 53.7995 46.8021 53.7995C46.9978 53.7995 47.1581 53.7108 47.2827 53.5334C47.4093 53.3561 47.4728 53.0717 47.4728 52.6801C47.4728 52.3149 47.4093 52.0438 47.2827 51.8664C47.1558 51.6865 46.9991 51.5963 46.8121 51.5963C46.6141 51.5963 46.4507 51.6878 46.3215 51.8703C46.1926 52.0502 46.1279 52.3256 46.1279 52.6959M51.1368 48.9766V50.5804H51.8842V51.7592H51.1368V53.2557C51.1368 53.4356 51.1513 53.5546 51.1801 53.6129C51.2247 53.7029 51.3024 53.748 51.4138 53.748C51.5139 53.748 51.6541 53.7133 51.8342 53.6445L51.9344 54.7601C51.5983 54.8473 51.2846 54.8911 50.9933 54.8911C50.6552 54.8911 50.406 54.8394 50.2457 54.7362C50.0857 54.633 49.9667 54.477 49.889 54.2678C49.813 54.0563 49.7753 53.7149 49.7753 53.2437V51.7592H49.2749V50.5804H49.7753V49.8062L51.1368 48.9766M52.3614 52.6999C52.3614 52.0568 52.5439 51.5278 52.9088 51.1122C53.2734 50.6943 53.7663 50.4851 54.3867 50.4851C55.0966 50.4851 55.6328 50.7297 55.9954 51.2195C56.2866 51.6137 56.4324 52.0993 56.4324 52.676C56.4324 53.3245 56.2512 53.8563 55.8886 54.2719C55.5281 54.6847 55.0286 54.8911 54.3903 54.8911C53.8208 54.8911 53.3603 54.7191 53.0087 54.3751C52.5773 53.9491 52.3614 53.3905 52.3614 52.6999M53.7229 52.6959C53.7229 53.0717 53.7864 53.3497 53.913 53.5296C54.0422 53.7095 54.2035 53.7995 54.3972 53.7995C54.5926 53.7995 54.7529 53.7108 54.8775 53.5334C55.0041 53.3561 55.0676 53.0717 55.0676 52.6801C55.0676 52.3149 55.0041 52.0438 54.8775 51.8664C54.7506 51.6865 54.5939 51.5963 54.4069 51.5963C54.2089 51.5963 54.0455 51.6878 53.9163 51.8703C53.7874 52.0502 53.7227 52.3256 53.7227 52.6959M57.1066 50.5804H58.3779V51.2709C58.5002 50.972 58.6259 50.7669 58.755 50.6558C58.8863 50.5419 59.0476 50.4851 59.2389 50.4851C59.439 50.4851 59.6581 50.559 59.8964 50.7073L59.4759 51.8585C59.3154 51.779 59.1887 51.7393 59.0952 51.7393C58.9174 51.7393 58.7793 51.8267 58.6817 52.0012C58.5415 52.2474 58.4714 52.7078 58.4714 53.3826V54.7958H57.1066V50.5804M60.0564 53.6287L61.4044 53.4779C61.4602 53.6685 61.5379 53.8048 61.638 53.8869C61.7382 53.9689 61.8717 54.01 62.0386 54.01C62.2208 54.01 62.3622 53.9636 62.4624 53.8708C62.5401 53.802 62.5791 53.7161 62.5791 53.6129C62.5791 53.4965 62.5281 53.4065 62.4257 53.3428C62.3523 53.298 62.1576 53.2424 61.8416 53.1762C61.3702 53.0783 61.0418 52.9884 60.8573 52.9063C60.6748 52.8217 60.5202 52.6801 60.3935 52.4816C60.2687 52.2831 60.2065 52.0568 60.2065 51.8027C60.2065 51.525 60.2743 51.2855 60.4101 51.0841C60.5459 50.8834 60.7327 50.7338 60.9707 50.6357C61.2087 50.5353 61.528 50.4851 61.9283 50.4851C62.3513 50.4851 62.6624 50.5233 62.8627 50.6C63.0593 50.6725 63.2332 50.7958 63.3667 50.9573C63.5023 51.1188 63.6147 51.3369 63.7036 51.6121L62.4155 51.7632C62.3824 51.6282 62.3266 51.5288 62.2488 51.4654C62.1418 51.3808 62.0129 51.3385 61.8615 51.3385C61.7081 51.3385 61.5957 51.3716 61.5246 51.4378C61.4915 51.467 61.4651 51.5031 61.4473 51.5435C61.4294 51.5838 61.4205 51.6276 61.4212 51.6718C61.4212 51.775 61.4658 51.8532 61.5547 51.9062C61.6436 51.9589 61.8371 52.0066 62.1352 52.0489C62.587 52.11 62.9226 52.1944 63.143 52.3029C63.3632 52.4115 63.5313 52.5664 63.647 52.7675C63.7648 52.9683 63.826 53.1974 63.8239 53.4302C63.8239 53.6738 63.7614 53.9106 63.6368 54.1409C63.5145 54.371 63.3198 54.555 63.053 54.6926C62.788 54.8277 62.4267 54.8949 61.9685 54.8949C61.3213 54.8949 60.8596 54.7854 60.5836 54.5655C60.3099 54.3458 60.1341 54.0336 60.0561 53.6287" fill="black"/>
<path d="M3.58576 53.8354H1.86371L1.62673 54.7961H0.0820312L1.92053 48.9766H3.56894L5.40769 54.7958H3.82579L3.58576 53.8351M3.26851 52.5769L2.72805 50.4848L2.19089 52.5769H3.26877M5.80801 50.5804H7.07598V51.1955C7.25843 50.9389 7.44189 50.7562 7.62664 50.6476C7.81342 50.5394 8.03816 50.4851 8.30063 50.4851C8.58322 50.4851 8.80669 50.5445 8.9713 50.6634C9.13617 50.7827 9.27071 50.9601 9.37519 51.1955C9.58872 50.9203 9.7834 50.7338 9.95923 50.6359C10.135 50.5353 10.3516 50.4851 10.6098 50.4851C10.9902 50.4851 11.2873 50.6201 11.5009 50.89C11.7144 51.1573 11.8212 51.5767 11.8212 52.1483V54.7958H10.4597V52.3942C10.4597 52.2038 10.4286 52.0621 10.3662 51.9696C10.2749 51.8241 10.1616 51.7513 10.026 51.7513C9.86571 51.7513 9.73677 51.8201 9.63867 51.9577C9.54082 52.0953 9.49189 52.3162 9.49189 52.6204V54.7958H8.13041V52.4737C8.13041 52.2884 8.12174 52.1628 8.10391 52.0965C8.07486 51.9908 8.02491 51.9059 7.95357 51.8425C7.88644 51.7778 7.79656 51.7421 7.70334 51.7431C7.5479 51.7431 7.41973 51.8134 7.31958 51.9536C7.21944 52.0937 7.1695 52.3241 7.1695 52.6441V54.7958H5.80801V50.5804M16.5664 53.089H13.8434C13.8679 53.3482 13.9267 53.5413 14.0202 53.6685C14.1515 53.8509 14.3227 53.9424 14.5342 53.9424C14.6675 53.9424 14.7941 53.9027 14.9144 53.8232C14.9878 53.773 15.0668 53.6843 15.1514 53.5574L16.4894 53.7042C16.2848 54.1277 16.0379 54.4319 15.7487 54.6172C15.4594 54.7996 15.0446 54.8911 14.5041 54.8911C14.0348 54.8911 13.6653 54.8129 13.3962 54.6567C13.1271 54.4982 12.9034 54.248 12.7255 53.9068C12.5497 53.5628 12.4618 53.1591 12.4618 52.6959C12.4618 52.0372 12.6386 51.5038 12.9923 51.0964C13.3483 50.6887 13.8388 50.4848 14.4641 50.4848C14.9712 50.4848 15.3715 50.5763 15.6653 50.759C15.9589 50.9415 16.1826 51.2062 16.336 51.5528C16.4894 51.8993 16.5664 52.3506 16.5664 52.9063V53.089M15.1847 52.3149C15.158 52.0028 15.0869 51.779 14.9712 51.644C14.8578 51.5089 14.7075 51.4417 14.5207 51.4417C14.3049 51.4417 14.1326 51.5436 14.0034 51.7474C13.9211 51.8743 13.8689 52.0634 13.8467 52.3149H15.1847M17.2103 50.5804H18.4818V51.2709C18.6041 50.972 18.7298 50.7669 18.8589 50.6558C18.9899 50.5419 19.1512 50.4851 19.3426 50.4851C19.5429 50.4851 19.762 50.559 20 50.7073L19.5796 51.8585C19.4193 51.779 19.2926 51.7393 19.1991 51.7393C19.021 51.7393 18.8832 51.8267 18.7853 52.0012C18.6452 52.2474 18.5751 52.7078 18.5751 53.3826V54.7958H17.2103V50.5804M20.277 48.9766H21.6352V50.0761H20.277V48.9766M25.1521 53.1484L26.4436 53.3232C26.3722 53.6433 26.2555 53.9213 26.0932 54.1565C25.9337 54.3869 25.7192 54.5739 25.4691 54.7005C25.2179 54.8302 24.8973 54.8949 24.5082 54.8949C24.1321 54.8949 23.8184 54.8542 23.5672 54.7719C23.3232 54.6905 23.1022 54.5517 22.923 54.3672C22.7411 54.1766 22.5972 53.9529 22.4993 53.7082C22.3971 53.4567 22.3459 53.1234 22.3459 52.7078C22.3459 52.2739 22.408 51.9128 22.5326 51.6241C22.6227 51.4143 22.7492 51.2222 22.9064 51.0566C23.0644 50.8872 23.2268 50.7616 23.3937 50.6795C23.6584 50.5498 23.9976 50.4851 24.4114 50.4851C24.9898 50.4851 25.4302 50.6082 25.7329 50.854C26.0376 51.1002 26.2512 51.4603 26.3735 51.934L25.0953 52.1363C25.0553 51.9564 24.9819 51.8213 24.8752 51.7314C24.7707 51.6389 24.6293 51.5925 24.4514 51.5925C24.2267 51.5925 24.0442 51.6891 23.9041 51.8822C23.7665 52.0728 23.6971 52.3626 23.6971 52.7514C23.6971 53.098 23.7662 53.3614 23.9041 53.5413C24.0422 53.7215 24.2177 53.8114 24.4315 53.8114C24.6094 53.8114 24.7585 53.7572 24.8785 53.6486C25.0008 53.5401 25.092 53.3734 25.1521 53.1484M28.3121 51.9457L27.0141 51.7831C27.063 51.513 27.1331 51.3015 27.2243 51.1479C27.3178 50.9916 27.4511 50.8569 27.6249 50.743C27.7495 50.6609 27.9205 50.5977 28.1386 50.5526C28.3716 50.5061 28.6087 50.4835 28.8462 50.4851C29.2532 50.4851 29.5801 50.5129 29.8273 50.5684C30.0742 50.6214 30.2798 50.7338 30.4444 50.9058C30.5601 51.0248 30.6513 51.1942 30.7181 51.4139C30.7824 51.6155 30.8162 51.8256 30.8182 52.0372V53.8986C30.8182 54.0974 30.8284 54.2533 30.8483 54.3672C30.8705 54.4783 30.9171 54.621 30.9885 54.7958H29.7136C29.6627 54.6873 29.6293 54.6052 29.6137 54.5497C29.5926 54.4607 29.5769 54.3705 29.5668 54.2795C29.389 54.4834 29.2121 54.6292 29.0363 54.7163C28.796 54.8328 28.517 54.8911 28.1987 54.8911C27.776 54.8911 27.4547 54.7747 27.2345 54.5418C27.0164 54.3088 26.9073 54.0219 26.9073 53.6805C26.9073 53.3602 26.9863 53.0969 27.1443 52.8905C27.3023 52.6841 27.5938 52.5305 28.0186 52.4301C28.5282 52.3083 28.8585 52.2237 29.0098 52.176C29.1736 52.1206 29.334 52.0556 29.4901 51.9814C29.4901 51.7831 29.4557 51.644 29.3867 51.5647C29.3179 51.4852 29.1966 51.4455 29.0231 51.4455C28.8006 51.4455 28.6337 51.488 28.5223 51.5726C28.4357 51.6389 28.3656 51.7632 28.3121 51.9457M29.4901 52.7952C29.2995 52.876 29.1045 52.9462 28.9061 53.0055C28.6304 53.0929 28.4558 53.1787 28.3822 53.2636C28.3087 53.3453 28.2683 53.4514 28.2688 53.5612C28.2688 53.6884 28.3055 53.7928 28.3789 53.8746C28.4546 53.9541 28.5649 53.9939 28.7094 53.9939C28.8605 53.9939 29.0006 53.9503 29.1298 53.8629C29.2611 53.7755 29.3533 53.6698 29.4068 53.5454C29.4624 53.4183 29.4901 53.2544 29.4901 53.0531V52.7952M31.6393 50.5804H32.9039V51.2669C33.093 50.9866 33.2844 50.7868 33.4778 50.6675C33.6714 50.546 33.9071 50.4851 34.1851 50.4851C34.5612 50.4851 34.8548 50.6186 35.066 50.8859C35.2798 51.1507 35.3866 51.5607 35.3866 52.1167V54.7958H34.0218V52.4777C34.0218 52.213 33.9805 52.0265 33.8982 51.9179C33.8159 51.8068 33.7002 51.7513 33.5512 51.7513C33.3865 51.7513 33.253 51.8252 33.1508 51.9735C33.0484 52.1218 32.9972 52.3878 32.9972 52.7713V54.7958H31.639V50.5804M38.5598 48.9766H40.5487L41.3162 52.5172L42.0804 48.9766H44.0626V54.7958H42.8277V50.3579L41.8701 54.7958H40.7523L39.798 50.3579V54.7958H38.5598V48.9766M44.7666 52.6999C44.7666 52.0568 44.9491 51.5278 45.3137 51.1122C45.6786 50.6943 46.1714 50.4851 46.7922 50.4851C47.5018 50.4851 48.038 50.7297 48.4006 51.2195C48.6918 51.6137 48.8376 52.0993 48.8376 52.676C48.8376 53.3245 48.6564 53.8563 48.2938 54.2719C47.9332 54.6847 47.4338 54.8911 46.7955 54.8911C46.226 54.8911 45.7655 54.7191 45.4139 54.3751C44.9825 53.9491 44.7666 53.3905 44.7666 52.6999M46.1281 52.6959C46.1281 53.0717 46.1916 53.3497 46.3182 53.5296C46.4474 53.7095 46.6087 53.7995 46.8021 53.7995C46.9978 53.7995 47.1581 53.7108 47.2827 53.5334C47.4093 53.3561 47.4728 53.0717 47.4728 52.6801C47.4728 52.3149 47.4093 52.0438 47.2827 51.8664C47.1558 51.6865 46.9991 51.5963 46.8121 51.5963C46.6141 51.5963 46.4507 51.6878 46.3215 51.8703C46.1926 52.0502 46.1279 52.3256 46.1279 52.6959M51.1368 48.9766V50.5804H51.8842V51.7592H51.1368V53.2557C51.1368 53.4356 51.1513 53.5546 51.1801 53.6129C51.2247 53.7029 51.3024 53.748 51.4138 53.748C51.5139 53.748 51.6541 53.7133 51.8342 53.6445L51.9344 54.7601C51.5983 54.8473 51.2846 54.8911 50.9933 54.8911C50.6552 54.8911 50.406 54.8394 50.2457 54.7362C50.0857 54.633 49.9667 54.477 49.889 54.2678C49.813 54.0563 49.7753 53.7149 49.7753 53.2437V51.7592H49.2749V50.5804H49.7753V49.8062L51.1368 48.9766M52.3614 52.6999C52.3614 52.0568 52.5439 51.5278 52.9088 51.1122C53.2734 50.6943 53.7663 50.4851 54.3867 50.4851C55.0966 50.4851 55.6328 50.7297 55.9954 51.2195C56.2866 51.6137 56.4324 52.0993 56.4324 52.676C56.4324 53.3245 56.2512 53.8563 55.8886 54.2719C55.5281 54.6847 55.0286 54.8911 54.3903 54.8911C53.8208 54.8911 53.3603 54.7191 53.0087 54.3751C52.5773 53.9491 52.3614 53.3905 52.3614 52.6999M53.7229 52.6959C53.7229 53.0717 53.7864 53.3497 53.913 53.5296C54.0422 53.7095 54.2035 53.7995 54.3972 53.7995C54.5926 53.7995 54.7529 53.7108 54.8775 53.5334C55.0041 53.3561 55.0676 53.0717 55.0676 52.6801C55.0676 52.3149 55.0041 52.0438 54.8775 51.8664C54.7506 51.6865 54.5939 51.5963 54.4069 51.5963C54.2089 51.5963 54.0455 51.6878 53.9163 51.8703C53.7874 52.0502 53.7227 52.3256 53.7227 52.6959M57.1066 50.5804H58.3779V51.2709C58.5002 50.972 58.6259 50.7669 58.755 50.6558C58.8863 50.5419 59.0476 50.4851 59.2389 50.4851C59.439 50.4851 59.6581 50.559 59.8964 50.7073L59.4759 51.8585C59.3154 51.779 59.1887 51.7393 59.0952 51.7393C58.9174 51.7393 58.7793 51.8267 58.6817 52.0012C58.5415 52.2474 58.4714 52.7078 58.4714 53.3826V54.7958H57.1066V50.5804M60.0564 53.6287L61.4044 53.4779C61.4602 53.6685 61.5379 53.8048 61.638 53.8869C61.7382 53.9689 61.8717 54.01 62.0386 54.01C62.2208 54.01 62.3622 53.9636 62.4624 53.8708C62.5401 53.802 62.5791 53.7161 62.5791 53.6129C62.5791 53.4965 62.5281 53.4065 62.4257 53.3428C62.3523 53.298 62.1576 53.2424 61.8416 53.1762C61.3702 53.0783 61.0418 52.9884 60.8573 52.9063C60.6748 52.8217 60.5202 52.6801 60.3935 52.4816C60.2687 52.2831 60.2065 52.0568 60.2065 51.8027C60.2065 51.525 60.2743 51.2855 60.4101 51.0841C60.5459 50.8834 60.7327 50.7338 60.9707 50.6357C61.2087 50.5353 61.528 50.4851 61.9283 50.4851C62.3513 50.4851 62.6624 50.5233 62.8627 50.6C63.0593 50.6725 63.2332 50.7958 63.3667 50.9573C63.5023 51.1188 63.6147 51.3369 63.7036 51.6121L62.4155 51.7632C62.3824 51.6282 62.3266 51.5288 62.2488 51.4654C62.1418 51.3808 62.0129 51.3385 61.8615 51.3385C61.7081 51.3385 61.5957 51.3716 61.5246 51.4378C61.4915 51.467 61.4651 51.5031 61.4473 51.5435C61.4294 51.5838 61.4205 51.6276 61.4212 51.6718C61.4212 51.775 61.4658 51.8532 61.5547 51.9062C61.6436 51.9589 61.8371 52.0066 62.1352 52.0489C62.587 52.11 62.9226 52.1944 63.143 52.3029C63.3632 52.4115 63.5313 52.5664 63.647 52.7675C63.7648 52.9683 63.826 53.1974 63.8239 53.4302C63.8239 53.6738 63.7614 53.9106 63.6368 54.1409C63.5145 54.371 63.3198 54.555 63.053 54.6926C62.788 54.8277 62.4267 54.8949 61.9685 54.8949C61.3213 54.8949 60.8596 54.7854 60.5836 54.5655C60.3099 54.3458 60.1341 54.0336 60.0561 53.6287M20.277 50.5804H21.6352V54.7958H20.277V50.5804Z" stroke="black" stroke-width="0.230943"/>
</g>
<defs>
<linearGradient id="paint0_linear_10704_21896" x1="40.3867" y1="22.3686" x2="114.759" y2="42.2965" gradientUnits="userSpaceOnUse">
<stop stop-color="#0247AF"/>
<stop offset="1" stop-color="#2A2C2F"/>
</linearGradient>
<linearGradient id="paint1_linear_10704_21896" x1="24.8539" y1="0.125" x2="24.8539" y2="177.769" gradientUnits="userSpaceOnUse">
<stop stop-color="#EF1106"/>
<stop offset="1" stop-color="#2A1A15"/>
</linearGradient>
<clipPath id="clip0_10704_21896">
<rect width="64" height="55" fill="white"/>
</clipPath>
</defs>
</svg>
