<svg width="64" height="64" viewBox="0 0 64 64" fill="none" xmlns="http://www.w3.org/2000/svg">
<path d="M60.5885 0H3.38672V38.8467H60.5885V0Z" fill="white"/>
<path d="M27.5531 44.8691C24.8338 44.8691 24.1055 46.9144 24.1055 48.5596C24.1055 51.2789 25.9654 52.25 27.5531 52.25C28.8469 52.25 30.3209 51.6049 30.8227 49.8949H28.5129C28.33 50.2978 28.0116 50.4776 27.5046 50.4776C26.7323 50.4776 26.3976 50.0561 26.3135 49.0694H30.9773C30.9925 48.9067 31.0008 48.737 31.0008 48.5596C31.0008 46.9144 30.2724 44.8691 27.5531 44.8691H27.5531ZM27.5046 46.4958C28.2984 46.4958 28.5721 46.9825 28.6671 47.5641H26.3421C26.4371 46.9825 26.7108 46.4958 27.5047 46.4958H27.5046Z" fill="black"/>
<path d="M42.1165 56.5215C39.8099 56.5215 38.9359 57.3655 38.9359 58.8037C38.9359 60.242 39.8161 60.6962 41.121 60.8917C42.4259 61.0872 43.0633 61.1831 43.0633 61.7658C43.0633 62.3485 42.482 62.4456 42.0922 62.4456C41.0354 62.4456 40.8782 61.523 40.8782 61.523H38.6445C38.6445 63.6347 41.0755 63.9842 42.0679 63.9995C44.3988 63.9984 45.427 62.9312 45.427 61.7658C45.427 60.6004 45.27 59.5568 42.4321 59.4593C41.2611 59.419 41.1696 58.9869 41.1696 58.6581C41.1696 58.1731 41.6538 57.9782 42.0436 57.9782C43.1004 57.9782 43.1119 58.8037 43.1119 58.8037H45.2469C45.2469 56.8614 43.2465 56.5206 42.0436 56.5215C40.8406 56.5225 42.1165 56.5215 42.1165 56.5215Z" fill="black"/>
<path d="M5.91351 42.1484L3 52.0544H5.71927L6.29344 49.9178H9.34028L9.89529 51.9572H12.6146L9.60394 42.1484H5.9135H5.91351ZM7.80728 44.285L8.75873 47.7812H6.86757L7.80725 44.285H7.80728Z" fill="black"/>
<path d="M17.0789 44.916C15.6242 44.916 15.1366 45.8386 15.1366 45.8386L15.0395 45.0617H13V51.957H15.2337V47.781C15.2337 47.781 15.2365 46.7127 16.2534 46.7127C17.176 46.7127 17.176 47.6838 17.176 47.6838V51.957H19.264V47.781C19.264 47.781 19.2669 46.7127 20.2838 46.7127C21.2064 46.7127 21.2064 47.6838 21.2064 47.6838V51.957H23.3915V47.3925C23.3915 45.7157 22.7117 44.916 21.0607 44.916C19.6039 44.916 19.0212 45.9357 19.0212 45.9357C19.0212 45.9357 18.5336 44.916 17.0789 44.916Z" fill="black"/>
<path d="M58.8429 44.8691C57.4584 44.8691 56.6092 45.8403 56.6092 45.8403L56.5121 45.0634H54.4727V51.9587H56.7063V47.7826C56.7063 47.7826 56.7092 46.7144 57.7261 46.7144C58.6487 46.7144 58.6487 47.6855 58.6487 47.6855V51.9587H60.8824V47.3942C60.8824 46.0924 60.3062 44.8691 58.8429 44.8691Z" fill="black"/>
<path d="M31.6523 51.9573V45.062H33.5947L33.6918 46.0331C33.6918 46.0331 34.3716 44.9648 35.4399 44.9648C35.7329 44.9648 35.8284 45.062 35.8284 45.062V47.1014C35.0275 47.1014 33.886 47.1172 33.886 48.3639V51.9573H31.6523Z" fill="black"/>
<path d="M34.1719 63.7073V56.812H36.1142L36.2113 57.7831C36.2113 57.7831 36.8911 56.7148 37.9594 56.7148C38.2525 56.7148 38.3479 56.812 38.3479 56.812V58.8514C37.5471 58.8514 36.4056 58.8672 36.4056 60.1139V63.7073H34.1719Z" fill="black"/>
<path d="M36.5039 45.0625H38.7376V51.9578H36.5039V45.0625Z" fill="black"/>
<path d="M36.5039 42.2461H38.7376V44.1884H36.5039V42.2461Z" fill="black"/>
<path d="M50.1028 44.8691C46.995 44.8691 46.995 47.5884 46.995 47.5884H49.1316C49.1316 47.5884 49.1316 46.3745 50.1999 46.3745C50.8797 46.3745 51.1225 46.7144 51.1225 47.1999C51.1225 47.6855 50.5883 47.8798 49.9085 47.8798C47.4806 47.8798 46.8008 48.7026 46.8008 50.1135C46.8008 51.1458 47.3835 52.25 49.2287 52.25C51.0739 52.25 51.2682 51.376 51.2682 51.376L51.4624 51.9587H53.599L53.5018 51.4731V47.3942C53.5018 46.516 53.1965 44.8691 50.1028 44.8691ZM51.2196 48.948V49.6279C51.2196 50.3646 50.6171 50.6476 50.1028 50.6476C49.6172 50.6476 49.0345 50.4048 49.0345 49.9192C49.0345 49.5759 49.1316 49.3331 49.4472 49.1761C49.7628 49.0192 50.3455 49.0452 51.2196 48.948Z" fill="black"/>
<path d="M3.67969 63.7087V53.8027H7.17589L8.924 59.6297L10.575 53.8027H14.1683V63.7087H11.9346V59.2413L11.9832 57.2018L9.99228 63.7087H7.95283L5.93765 57.2018L6.01049 59.047V63.7087H3.67969Z" fill="black"/>
<path d="M21.9375 58.2718V56.815H22.8116V55.1641H25.0938V56.815H26.3078V58.2718H25.0938V61.3795C25.0938 62.308 26.3078 62.0594 26.3078 62.0594V63.8075C26.3078 63.8075 25.2395 63.9046 24.7539 63.9046C23.3769 63.9046 22.7144 63.419 22.7144 62.0594V58.2718H21.9375Z" fill="black"/>
<path d="M39.2266 0H60.5923V38.8467H39.2266V0Z" fill="#007DBA"/>
<path d="M3.38672 0V38.8467L37.5058 2.45317C38.3778 1.52272 37.7182 0.000291351 36.4431 0L3.38672 0Z" fill="#DA291C"/>
<path d="M18.4906 56.6191C15.7713 56.6191 15.043 58.6644 15.043 60.3096C15.043 63.0289 16.9029 64 18.4906 64C20.0784 64 21.9383 63.0289 21.9383 60.3096C21.9383 58.6644 21.2099 56.6191 18.4906 56.6191ZM18.4906 58.3187C19.646 58.3187 19.656 59.4355 19.656 60.3096C19.656 61.7226 19.3647 62.3005 18.4906 62.3005C17.6166 62.3005 17.3252 61.7178 17.3252 60.3096C17.3252 59.4355 17.3352 58.3187 18.4906 58.3187Z" fill="black"/>
<path d="M29.9516 56.6191C27.2323 56.6191 26.5039 58.6644 26.5039 60.3096C26.5039 63.0289 28.3638 64 29.9516 64C31.5393 64 33.3992 63.0289 33.3992 60.3096C33.3992 58.6644 32.6708 56.6191 29.9516 56.6191ZM29.9516 58.3187C31.107 58.3187 31.117 59.4355 31.117 60.3096C31.117 61.7226 30.8256 62.3005 29.9516 62.3005C29.0775 62.3005 28.7862 61.7178 28.7862 60.3096C28.7862 59.4355 28.7962 58.3187 29.9516 58.3187Z" fill="black"/>
<path d="M42.9437 44.8691C40.2245 44.8691 39.4961 46.9144 39.4961 48.5596C39.4961 51.2789 41.356 52.25 42.9437 52.25C44.4017 52.25 46.0878 51.43 46.354 49.1908H44.0755C43.975 50.0949 43.6361 50.4776 42.8952 50.4776C41.9847 50.4776 41.6812 49.8949 41.6812 48.4867C41.6812 47.6127 41.6917 46.4958 42.8952 46.4958C43.6894 46.4958 43.9641 46.9822 44.059 47.5641H46.2975C46.0288 46.191 45.1297 44.8691 42.9437 44.8691V44.8691Z" fill="black"/>
</svg>
