<?xml version="1.0" encoding="UTF-8" standalone="no"?>
<svg
   xmlns:dc="http://purl.org/dc/elements/1.1/"
   xmlns:cc="http://creativecommons.org/ns#"
   xmlns:rdf="http://www.w3.org/1999/02/22-rdf-syntax-ns#"
   xmlns:svg="http://www.w3.org/2000/svg"
   xmlns="http://www.w3.org/2000/svg"
   viewBox="0 0 258.66666 258.66666"
   height="258.66666"
   width="258.66666"
   xml:space="preserve"
   id="svg2"
   version="1.1"><metadata
     id="metadata8"><rdf:RDF><cc:Work
         rdf:about=""><dc:format>image/svg+xml</dc:format><dc:type
           rdf:resource="http://purl.org/dc/dcmitype/StillImage" /></cc:Work></rdf:RDF></metadata><defs
     id="defs6" /><g
     transform="matrix(1.3333333,0,0,-1.3333333,0,258.66667)"
     id="g10"><g
       transform="scale(0.1)"
       id="g12"><path
         id="path14"
         style="fill:#ffffff;fill-opacity:1;fill-rule:evenodd;stroke:none"
         d="M 2.59766,1933.23 H 1930.16 V 5.66797 H 2.59766 V 1933.23" /><path
         id="path16"
         style="fill:#2e3192;fill-opacity:1;fill-rule:evenodd;stroke:none"
         d="m 966.258,190.152 c 442.682,0 801.322,349.071 801.322,779.297 0,430.471 -358.64,779.301 -801.322,779.301 -442.199,0 -801.082,-348.83 -801.082,-779.301 0,-430.226 358.883,-779.297 801.082,-779.297" /><path
         id="path18"
         style="fill:#ffffff;fill-opacity:1;fill-rule:evenodd;stroke:none"
         d="m 1035.93,464.281 c 0,0 51.47,1.196 82.36,12.93 31.12,11.492 60.81,7.66 72.3,21.785 11.73,14.367 23.22,11.734 36.15,14.367 12.93,2.633 49.08,15.325 55.55,-1.437 6.46,-16.758 1.19,-33.516 12.93,-39.985 11.49,-6.464 32.08,-42.375 38.54,-61.765 6.47,-19.395 -11.49,-31.125 -41.18,-47.887 -29.69,-16.758 -129.04,-59.371 -154.9,-59.371 -25.86,0 -34.72,0 -42.61,-6.465 -7.67,-6.226 -50.28,-24.422 -55.31,1.434 -5.27,25.859 11.49,29.687 -1.44,59.379 -12.93,29.683 -33.52,94.089 -2.39,107.015" /><path
         id="path20"
         style="fill:#ffffff;fill-opacity:1;fill-rule:evenodd;stroke:none"
         d="m 968.172,511.688 c 260.488,0 471.648,211.164 471.648,471.406 0,260.246 -211.16,471.406 -471.648,471.406 -260.242,0 -471.406,-211.16 -471.406,-471.406 0,-260.242 211.164,-471.406 471.406,-471.406" /><path
         id="path22"
         style="fill:#2e3192;fill-opacity:1;fill-rule:evenodd;stroke:none"
         d="m 792.203,1420.03 c 0,0 -2.633,-33.52 18.195,-33.52 20.59,0 51.477,20.59 38.547,-7.9 -12.929,-28.25 -28.25,-43.81 -28.25,-90.26 0,-46.45 -5.269,-72.3 -10.297,-95.29 -5.265,-23.22 -2.632,-36.15 10.297,-82.6 12.93,-46.44 105.344,-64.64 182.915,-72.3 77.33,-7.66 129.04,-20.59 152.27,-15.56 23.22,5.27 67.03,-2.64 92.89,-7.66 25.62,-5.27 72.06,-46.448 33.52,-100.557 -38.79,-54.344 -51.72,-84.992 -67.04,-123.774 -15.56,-38.55 -41.42,-36.152 -51.71,-67.039 -10.3,-30.882 -23.23,-41.179 -30.89,-77.332 -7.9,-36.152 -33.52,-41.422 -41.42,-59.375 -7.66,-18.195 -11.49,-36.152 -11.49,-56.738 0,-20.594 -68.47,-24.664 -94.33,-1.437 -25.613,23.222 -72.062,73.738 -97.68,120.183 -25.855,46.449 -20.589,74.699 -25.855,147.004 -5.031,72.063 2.633,79.727 -17.957,107.977 -20.828,28.488 -15.563,64.64 -28.492,72.296 -12.926,7.903 -10.293,38.792 -85.231,10.301 C 655.496,958.195 683.75,934.973 629.641,940 c -54.11,5.27 -60.571,44.051 -14.125,74.94 46.445,30.88 84.992,49.08 99.355,70.86 14.129,22.03 29.692,39.99 -19.391,56.75 -49.078,16.75 -27.054,42.61 -11.73,71.1 15.563,28.25 36.148,43.81 36.148,78.53 0,34.96 2.637,51.71 24.665,50.52 21.781,-1.44 23.218,-6.47 20.585,-20.83 -2.632,-14.13 14.129,-17.96 14.129,18.19 0,36.15 -9.097,74.7 12.926,79.97" /><path
         id="path24"
         style="fill:#ffffff;fill-opacity:1;fill-rule:evenodd;stroke:none"
         d="m 745.758,1262.5 c 16.758,0.71 24.422,-5.04 22.023,-19.16 -2.633,-14.36 -11.73,-25.86 -16.758,-20.83 -5.265,5.27 -47.882,38.79 -5.265,39.99" /><path
         id="path26"
         style="fill:#ffffff;fill-opacity:1;fill-rule:evenodd;stroke:none"
         d="m 727.801,1185.16 c 0,0 23.222,9.1 20.59,-10.29 -2.633,-19.4 -23.223,-15.57 -20.59,10.29" /><path
         id="path28"
         style="fill:#ffffff;fill-opacity:1;fill-rule:evenodd;stroke:none"
         d="m 943.039,892.359 c 0,0 -2.637,-42.375 -2.637,-79.726 0,-37.348 3.832,-67.039 14.125,-101.988 10.293,-34.719 11.731,-87.629 36.149,-110.852 24.424,-23.223 65.844,-43.813 70.874,9.094 5.26,52.676 18.19,84.996 3.83,84.996 -14.13,0 -5.03,27.051 16.75,25.855 22.03,-1.195 71.11,3.832 67.28,36.153 -3.83,32.32 6.47,67.035 19.39,81.164 12.69,14.363 -15.56,56.5 -89.06,72.066 -73.5,15.559 -136.701,24.414 -136.701,-16.762" /><path
         id="path30"
         style="fill:#ffffff;fill-opacity:1;fill-rule:evenodd;stroke:none"
         d="m 238.676,896.188 c 0,0 -14.848,41.417 7.179,37.347 22.028,-3.828 33.52,-13.402 60.575,-28.969 27.054,-15.32 63.925,-24.418 71.105,-26.332 6.945,-1.918 45.731,-18.195 52.195,-45.73 6.461,-27.531 1.196,-29.688 9.094,-38.547 7.664,-9.098 27.059,-40.699 9.578,-50.996 -17.476,-10.293 -54.828,-58.656 -63.922,-85.231 -8.863,-26.335 -15.324,-67.753 -32.8,-50.996 -17.481,16.762 -15.563,39.504 -28.969,40.704 -13.648,1.433 -40.703,11.726 -25.859,26.574 14.843,14.84 24.421,18.676 27.054,30.886 2.633,12.207 3.352,7.657 -5.027,27.77 -8.621,19.871 -29.207,84.512 -29.688,92.176 -0.718,7.66 -20.109,14.844 -31.601,23.222 -11.735,8.379 -23.227,15.321 -22.746,23.704 0.719,8.378 3.351,17.476 3.832,24.418" /><path
         id="path32"
         style="fill:#2e3192;fill-opacity:1;fill-rule:evenodd;stroke:none"
         d="m 322.711,824.844 c 0,0 16.762,2.633 25.613,-3.832 9.102,-6.465 12.93,-14.125 25.379,-14.844 12.215,-0.719 24.422,-2.633 19.156,-15.559 -5.031,-12.933 -22.504,-27.773 -28.972,-37.351 -6.461,-9.578 -12.207,-13.645 -28.25,12.211 -16.282,25.855 -25.379,58.176 -12.926,59.375" /><path
         id="path34"
         style="fill:#ffffff;fill-opacity:1;fill-rule:evenodd;stroke:none"
         d="m 684.23,342.418 c 0,0 -42.859,9.098 -28.011,25.859 14.597,16.52 28.965,21.305 56.5,36.153 27.293,14.843 54.347,41.418 59.851,46.445 5.27,5.027 39.266,29.449 66.321,20.352 27.054,-9.102 25.855,-14.364 37.828,-12.692 11.73,1.918 48.363,1.676 48.121,-18.433 -0.481,-20.352 21.07,-77.571 38.785,-99.118 17.715,-21.55 49.555,-48.843 26.094,-54.828 -23.461,-5.984 -41.656,7.422 -49.797,-3.351 -8.379,-10.774 -31.363,-28.489 -36.149,-7.899 -4.789,20.348 -3.113,30.645 -11.734,39.262 -9.098,8.617 -5.023,6.703 -26.332,10.055 -21.547,3.593 -87.148,19.871 -94.094,23.465 -6.941,3.351 -23.222,-9.336 -36.39,-14.844 -13.168,-5.27 -25.379,-11.492 -32.321,-6.465 -6.703,4.789 -12.929,11.73 -18.672,16.039" /><path
         id="path36"
         style="fill:#2e3192;fill-opacity:1;fill-rule:evenodd;stroke:none"
         d="m 789.09,376.176 c 0,0 6.703,15.562 17,19.871 10.297,4.312 18.914,3.594 25.855,13.648 6.946,10.055 15.086,19.395 23.227,8.141 8.379,-11.012 11.73,-33.758 16.754,-44.293 4.793,-10.531 5.031,-17.473 -25.375,-17.715 -30.406,0 -62.727,9.098 -57.461,20.348" /><path
         id="path38"
         style="fill:#ffffff;fill-opacity:1;fill-rule:evenodd;stroke:none"
         d="m 380.648,561.004 c 0,0 -10.293,27.059 3.832,32.324 14.364,5.027 24.657,3.828 46.446,23.223 22.023,19.394 28.488,29.687 46.449,45.012 18.191,15.562 45.246,12.925 51.711,-7.665 6.465,-20.585 19.391,-63.203 20.59,-112.285 1.195,-48.84 14.125,-82.597 25.855,-83.797 11.492,-1.195 38.547,33.52 45.012,52.914 6.461,19.395 25.859,34.711 39.984,28.493 14.364,-6.465 42.614,-23.227 28.489,-49.082 -14.125,-25.86 -46.446,-28.493 -50.278,-49.082 -3.832,-20.59 -7.66,-50.278 -24.66,-60.575 -16.758,-10.289 -79.965,17.961 -81.164,47.649 -1.195,29.683 -15.559,65.84 -16.758,99.355 -1.195,33.516 -1.195,65.84 -25.855,51.715 -24.418,-14.367 -30.887,-14.367 -43.813,-27.293 -12.929,-12.687 -19.394,-57.937 -65.84,9.094" /><path
         id="path40"
         style="fill:#ffffff;fill-opacity:1;fill-rule:evenodd;stroke:none"
         d="m 1500.16,851.418 c 0,0 22.02,20.352 58.18,7.66 36.14,-12.93 57.93,-28.488 76.13,-18.195 17.96,10.535 29.69,48.844 29.69,82.359 0,33.52 14.12,55.543 29.68,42.617 15.32,-12.929 6.47,-39.98 1.2,-68.234 -5.27,-28.488 -14.13,-38.547 -14.13,-55.305 0,-16.761 -7.89,-39.98 -19.39,-52.91 -11.73,-12.93 0,-15.562 -3.83,-28.492 -3.83,-12.926 -31.13,-19.152 -71.1,4.07 -39.99,23.223 -56.75,21.785 -67.04,21.785 -10.3,0 -39.98,2.637 -19.39,64.645" /><path
         id="path42"
         style="fill:#ffffff;fill-opacity:1;fill-rule:evenodd;stroke:none"
         d="m 1328.73,576.57 c 0,0 42.62,33.039 82.6,89.063 32.08,45.012 46.45,82.359 84.99,65.597 38.79,-16.757 90.27,-42.378 104.63,-48.839 14.12,-6.465 17.96,-24.661 6.46,-42.618 -11.73,-18.195 -34.95,-39.98 -46.44,-63.203 -11.74,-23.222 -62.01,-78.769 -78.77,-83.797 -16.76,-5.269 -34.96,-46.445 -50.28,-46.445 -15.56,0 -129.04,95.285 -103.19,130.242" /><path
         id="path44"
         style="fill:#2e3192;fill-opacity:1;fill-rule:evenodd;stroke:none"
         d="m 1395.77,597.156 c 0,0 36.15,30.887 42.62,46.449 6.46,15.559 23.22,22.028 42.61,22.028 19.16,0 48.84,-27.297 57.94,-33.52 9.1,-6.465 14.13,-20.828 -5.27,-41.418 -19.15,-20.59 -29.45,-38.785 -45.01,-52.91 -15.56,-14.129 -30.88,-34.719 -54.1,-11.496 -23.23,23.223 -49.08,51.477 -38.79,70.867" /><path
         id="path46"
         style="fill:#2e3192;fill-opacity:1;fill-rule:evenodd;stroke:none"
         d="m 1105.36,431.965 c 0,0 9.1,7.894 22.02,12.926 12.93,5.269 28.5,14.125 34.96,9.097 6.46,-5.265 20.59,1.196 32.08,5.028 11.73,4.07 31.12,12.925 41.42,-5.028 10.3,-18.195 29.69,-52.91 11.49,-70.867 -17.95,-18.195 -51.47,-22.027 -65.84,-27.293 -14.12,-5.027 -26.33,-22.746 -52.91,-16.762 -16.76,3.832 -17.95,14.368 -14.12,24.661 3.83,10.296 -3.83,11.492 -10.3,20.589 -6.46,9.098 -2.63,45.25 1.2,47.649" /></g></g></svg>