<svg width="64" height="64" viewBox="0 0 64 64" fill="none" xmlns="http://www.w3.org/2000/svg">
<path fill-rule="evenodd" clip-rule="evenodd" d="M32.0823 57.6875C46.7805 57.6875 58.6883 46.0975 58.6883 31.8128C58.6883 17.5201 46.7805 5.93806 32.0823 5.93806C17.4002 5.93806 5.48438 17.5201 5.48438 31.8128C5.48438 46.0975 17.4002 57.6875 32.0823 57.6875Z" fill="#2E3192"/>
<path fill-rule="evenodd" clip-rule="evenodd" d="M34.3982 48.5865C34.3982 48.5865 36.1071 48.5468 37.1327 48.1572C38.166 47.7757 39.1518 47.9029 39.5333 47.4339C39.9228 46.9569 40.3043 47.0443 40.7336 46.9569C41.1629 46.8695 42.3631 46.448 42.578 47.0046C42.7925 47.561 42.6175 48.1174 43.0073 48.3322C43.3888 48.5468 44.0724 49.7392 44.2869 50.3829C44.5017 51.0269 43.9054 51.4164 42.9196 51.9729C41.9338 52.5293 38.6352 53.9442 37.7765 53.9442C36.9179 53.9442 36.6237 53.9442 36.3618 54.1588C36.1071 54.3656 34.6924 54.9697 34.5253 54.1112C34.3504 53.2526 34.9068 53.1255 34.4775 52.1397C34.0482 51.1541 33.3646 49.0157 34.3982 48.5865Z" fill="white"/>
<path fill-rule="evenodd" clip-rule="evenodd" d="M32.1441 47.0117C40.7929 47.0117 47.804 40.0005 47.804 31.3598C47.804 22.719 40.7929 15.7079 32.1441 15.7079C23.5034 15.7079 16.4922 22.719 16.4922 31.3598C16.4922 40.0005 23.5034 47.0117 32.1441 47.0117Z" fill="white"/>
<path fill-rule="evenodd" clip-rule="evenodd" d="M26.3033 16.852C26.3033 16.852 26.2159 17.9649 26.9075 17.9649C27.5911 17.9649 28.6166 17.2813 28.1873 18.2272C27.758 19.1652 27.2493 19.6818 27.2493 21.2241C27.2493 22.7663 27.0744 23.6246 26.9075 24.3879C26.7326 25.1589 26.8201 25.5882 27.2493 27.1305C27.6786 28.6724 30.747 29.2767 33.3226 29.531C35.8901 29.7854 37.607 30.2147 38.3783 30.0477C39.1493 29.8727 40.6039 30.1353 41.4625 30.302C42.3132 30.477 43.8551 31.8442 42.5755 33.6407C41.2875 35.4451 40.8582 36.4627 40.3496 37.7504C39.8329 39.0303 38.9743 38.9507 38.6327 39.9762C38.2907 41.0016 37.8614 41.3435 37.607 42.5438C37.3447 43.7442 36.4941 43.9192 36.2318 44.5152C35.9775 45.1194 35.8503 45.7156 35.8503 46.3991C35.8503 47.0829 33.5769 47.218 32.7183 46.4468C31.8679 45.6758 30.3257 43.9985 29.4751 42.4564C28.6166 40.9142 28.7915 39.9762 28.6166 37.5755C28.4496 35.1828 28.704 34.9284 28.0204 33.9904C27.3289 33.0445 27.5037 31.8442 27.0744 31.59C26.6452 31.3276 26.7326 30.302 24.2445 31.248C21.7643 32.1861 22.7024 32.9571 20.9059 32.7902C19.1093 32.6152 18.8947 31.3276 20.4369 30.302C21.979 29.2767 23.2588 28.6724 23.7357 27.9493C24.2048 27.2178 24.7216 26.6215 23.0919 26.065C21.4624 25.5089 22.1936 24.6503 22.7024 23.7043C23.2191 22.7663 23.9026 22.2497 23.9026 21.0969C23.9026 19.9362 23.9902 19.38 24.7216 19.4195C25.4447 19.4673 25.4925 19.6343 25.405 20.1111C25.3176 20.5803 25.8742 20.7074 25.8742 19.5072C25.8742 18.3069 25.5721 17.0269 26.3033 16.852Z" fill="#2E3192"/>
<path fill-rule="evenodd" clip-rule="evenodd" d="M24.7632 22.0835C25.3196 22.0599 25.5741 22.2509 25.4944 22.7197C25.407 23.1965 25.105 23.5783 24.938 23.4113C24.7632 23.2363 23.3482 22.1234 24.7632 22.0835Z" fill="white"/>
<path fill-rule="evenodd" clip-rule="evenodd" d="M24.1679 24.6504C24.1679 24.6504 24.9389 24.3482 24.8515 24.992C24.7641 25.6362 24.0804 25.509 24.1679 24.6504Z" fill="white"/>
<path fill-rule="evenodd" clip-rule="evenodd" d="M31.3102 34.3725C31.3102 34.3725 31.2227 35.7795 31.2227 37.0196C31.2227 38.2597 31.3499 39.2455 31.6916 40.4059C32.0334 41.5587 32.0811 43.3154 32.8919 44.0865C33.7028 44.8575 35.0781 45.5412 35.2451 43.7845C35.4197 42.0355 35.849 40.9624 35.3722 40.9624C34.9031 40.9624 35.2052 40.0643 35.9284 40.104C36.6598 40.1437 38.2894 39.9768 38.1623 38.9036C38.0351 37.8305 38.3771 36.6779 38.8061 36.2088C39.2274 35.7319 38.2894 34.3328 35.849 33.816C33.4086 33.2994 31.3102 33.0054 31.3102 34.3725Z" fill="white"/>
<path fill-rule="evenodd" clip-rule="evenodd" d="M7.92422 34.2451C7.92422 34.2451 7.43123 32.8699 8.16259 33.0051C8.89397 33.1322 9.27553 33.45 10.1738 33.9669C11.0721 34.4756 12.2963 34.7777 12.5347 34.8412C12.7653 34.9049 14.0531 35.4453 14.2677 36.3596C14.4822 37.2737 14.3074 37.3453 14.5697 37.6394C14.8241 37.9415 15.4681 38.9907 14.8877 39.3326C14.3074 39.6744 13.0672 41.2801 12.7653 42.1625C12.471 43.0369 12.2565 44.4121 11.6762 43.8557C11.0958 43.2992 11.1595 42.5441 10.7144 42.5042C10.2613 42.4566 9.36296 42.1149 9.85582 41.6219C10.3486 41.1292 10.6667 41.0018 10.7541 40.5964C10.8415 40.1911 10.8654 40.3422 10.5872 39.6744C10.3009 39.0146 9.61742 36.8683 9.60145 36.6139C9.57761 36.3596 8.93378 36.121 8.55222 35.8429C8.16259 35.5647 7.78102 35.3342 7.79699 35.0558C7.82086 34.7776 7.90825 34.4756 7.92422 34.2451Z" fill="white"/>
<path fill-rule="evenodd" clip-rule="evenodd" d="M10.7123 36.6131C10.7123 36.6131 11.2689 36.5257 11.5627 36.7403C11.8649 36.955 11.992 37.2093 12.4054 37.2332C12.8109 37.257 13.2163 37.3206 13.0414 37.7498C12.8744 38.1792 12.2942 38.6719 12.0795 38.9899C11.8649 39.3079 11.6742 39.443 11.1415 38.5845C10.6009 37.726 10.2988 36.6529 10.7123 36.6131Z" fill="#2E3192"/>
<path fill-rule="evenodd" clip-rule="evenodd" d="M22.7213 52.6325C22.7213 52.6325 21.2983 52.3305 21.7913 51.774C22.276 51.2254 22.753 51.0666 23.6673 50.5736C24.5735 50.0808 25.4717 49.1984 25.6545 49.0315C25.8294 48.8646 26.9582 48.0537 27.8565 48.3557C28.7547 48.658 28.7149 48.8327 29.1125 48.7772C29.5019 48.7135 30.7182 48.7215 30.7102 49.3892C30.6942 50.0649 31.4098 51.9647 31.998 52.6801C32.5862 53.3957 33.6433 54.3019 32.8644 54.5006C32.0854 54.6993 31.4813 54.2541 31.211 54.6118C30.9328 54.9696 30.1696 55.5577 30.0107 54.8741C29.8517 54.1985 29.9074 53.8566 29.6211 53.5705C29.3191 53.2844 29.4544 53.348 28.7468 53.2367C28.0314 53.1174 25.8533 52.5769 25.6227 52.4576C25.3922 52.3463 24.8517 52.7675 24.4144 52.9504C23.9772 53.1254 23.5718 53.332 23.3413 53.1651C23.1187 53.0061 22.912 52.7756 22.7213 52.6325Z" fill="white"/>
<path fill-rule="evenodd" clip-rule="evenodd" d="M26.1985 51.5119C26.1985 51.5119 26.4211 50.9952 26.763 50.8521C27.1049 50.709 27.391 50.7328 27.6214 50.399C27.8521 50.0651 28.1223 49.755 28.3926 50.1287C28.6708 50.4943 28.7821 51.2495 28.9489 51.5993C29.108 51.949 29.1159 52.1795 28.1064 52.1875C27.0968 52.1875 26.0237 51.8854 26.1985 51.5119Z" fill="#2E3192"/>
<path fill-rule="evenodd" clip-rule="evenodd" d="M12.6397 45.3741C12.6397 45.3741 12.298 44.4756 12.767 44.3008C13.2439 44.1339 13.5856 44.1737 14.3091 43.5298C15.0403 42.8858 15.255 42.5441 15.8513 42.0353C16.4553 41.5186 17.3536 41.6061 17.5683 42.2898C17.7829 42.9732 18.2121 44.3883 18.2519 46.0179C18.2916 47.6395 18.7209 48.7603 19.1104 48.8002C19.4919 48.8399 20.3902 47.6872 20.6049 47.0433C20.8194 46.3993 21.4634 45.8908 21.9324 46.0973C22.4094 46.3119 23.3473 46.8684 22.8783 47.7269C22.4094 48.5855 21.3362 48.6729 21.209 49.3565C21.0818 50.0402 20.9547 51.0259 20.3902 51.3678C19.8338 51.7094 17.7352 50.7714 17.6954 49.7857C17.6557 48.8002 17.1788 47.5997 17.1389 46.4869C17.0993 45.3741 17.0993 44.3008 16.2805 44.7698C15.4698 45.2468 15.255 45.2468 14.8258 45.676C14.3965 46.0973 14.1819 47.5997 12.6397 45.3741Z" fill="white"/>
<path fill-rule="evenodd" clip-rule="evenodd" d="M49.8062 35.7314C49.8062 35.7314 50.5374 35.0557 51.738 35.4771C52.9379 35.9064 53.6614 36.4229 54.2657 36.0812C54.862 35.7314 55.2515 34.4594 55.2515 33.3467C55.2515 32.2337 55.7203 31.5025 56.2369 31.9317C56.7456 32.3609 56.4517 33.2591 56.2768 34.1972C56.1018 35.1431 55.8076 35.4771 55.8076 36.0335C55.8076 36.59 55.5456 37.3609 55.1638 37.7902C54.7743 38.2195 55.1638 38.3069 55.0366 38.7362C54.9095 39.1654 54.0031 39.3721 52.6759 38.6011C51.3482 37.83 50.7917 37.8778 50.45 37.8778C50.1081 37.8778 49.1226 37.7902 49.8062 35.7314Z" fill="white"/>
<path fill-rule="evenodd" clip-rule="evenodd" d="M44.1149 44.8573C44.1149 44.8573 45.53 43.7603 46.8574 41.9002C47.9226 40.4056 48.3997 39.1656 49.6793 39.7222C50.9672 40.2785 52.6765 41.1292 53.1533 41.3437C53.6221 41.5584 53.7496 42.1626 53.3678 42.7588C52.9783 43.3629 52.2073 44.0862 51.8259 44.8573C51.4361 45.6283 49.767 47.4726 49.2105 47.6395C48.654 47.8145 48.0497 49.1816 47.5411 49.1816C47.0244 49.1816 43.2566 46.0179 44.1149 44.8573Z" fill="white"/>
<path fill-rule="evenodd" clip-rule="evenodd" d="M46.3428 44.1739C46.3428 44.1739 47.5431 43.1484 47.7579 42.6317C47.9724 42.1151 48.5289 41.9003 49.1727 41.9003C49.8088 41.9003 50.7943 42.8066 51.0964 43.0132C51.3986 43.2279 51.5656 43.7048 50.9214 44.3884C50.2856 45.0721 49.9436 45.6762 49.427 46.1452C48.9104 46.6143 48.4017 47.2979 47.6307 46.5269C46.8594 45.7558 46.0011 44.8177 46.3428 44.1739Z" fill="#2E3192"/>
<path fill-rule="evenodd" clip-rule="evenodd" d="M36.702 49.6582C36.702 49.6582 37.0042 49.3961 37.4332 49.2291C37.8625 49.0541 38.3794 48.7601 38.5939 48.927C38.8084 49.1018 39.2776 48.8873 39.6591 48.7601C40.0485 48.6249 40.6923 48.3309 41.0343 48.927C41.3763 49.5311 42.0201 50.6838 41.4158 51.28C40.8198 51.8841 39.7069 52.0113 39.2297 52.1862C38.7609 52.3531 38.3555 52.9414 37.473 52.7427C36.9165 52.6155 36.877 52.2657 37.0042 51.9239C37.1313 51.582 36.877 51.5423 36.6622 51.2403C36.4477 50.9382 36.5749 49.7379 36.702 49.6582Z" fill="#2E3192"/>
</svg>
