<svg width="64" height="71" viewBox="0 0 64 71" fill="none" xmlns="http://www.w3.org/2000/svg">
<path d="M62.9016 28.448C62.6805 28.042 62.2824 28.014 62.1055 28H36.6337C35.9133 28 35.332 28.245 34.896 28.7209C34.5864 29.0639 34.3778 29.5049 34.2641 30.0438C34.2578 30.0648 34.2262 30.1698 34.0113 30.1698H28.9751C28.7603 30.1698 28.7287 30.0578 28.7224 30.0438C28.6149 29.5049 28.4001 29.0639 28.0905 28.7209C27.6608 28.245 27.0731 28 26.3591 28H0.89362C0.729327 28.007 0.324913 28.035 0.103749 28.448C-0.00367329 28.644 -0.0795011 28.9799 0.147982 29.4489L0.615585 30.3098C0.805154 30.6528 1.02632 30.7788 1.48128 30.8138C1.4876 30.8138 1.70245 30.8348 1.84778 31.1218L2.32171 32.0457C2.42281 32.2557 2.65661 32.7526 3.46544 32.8786C3.47808 32.8786 3.71188 32.9066 3.84458 33.1796L4.43224 34.3205C4.60285 34.6845 4.84297 34.8245 5.27898 34.9715L15.9328 38.4362C16.2929 38.5552 16.4446 39.0102 16.4446 39.0102C16.6974 39.7381 17.0259 40.3401 18.6941 40.893L27.408 43.5248C27.5154 43.5668 28.5138 43.9028 29.2658 43.0979L31.3131 40.935C31.3131 40.935 31.3953 40.844 31.509 40.844C31.6228 40.844 31.7112 40.942 31.7112 40.942C31.7175 40.949 33.7522 43.0979 33.7522 43.0979C34.5042 43.9028 35.5026 43.5668 35.6163 43.5248C35.61 43.5248 44.3239 40.893 44.3302 40.893C45.9921 40.3401 46.3333 39.7241 46.5734 39.0102C46.5861 38.9822 46.7251 38.5552 47.0853 38.4362C47.0853 38.4362 48.6966 37.9113 57.739 34.9715C58.1751 34.8245 58.4152 34.6845 58.5858 34.3205L59.1671 33.1866C59.2998 32.9066 59.5273 32.8786 59.54 32.8716C60.3551 32.7526 60.5889 32.2557 60.69 32.0387L61.1639 31.1148C61.3093 30.8278 61.5241 30.8068 61.5368 30.8068C61.9917 30.7718 62.2129 30.6458 62.4024 30.3028L62.87 29.4419C62.9712 29.2389 63.0154 29.0499 63.0154 28.8679C63.0027 28.7209 62.9712 28.574 62.9016 28.448ZM34.7317 30.1628C34.8202 29.7289 34.9908 29.3719 35.2372 29.0989C35.5784 28.7209 36.046 28.532 36.6337 28.532H48.3364C47.932 28.8679 47.7235 29.2879 47.7108 29.3159C47.5718 29.5959 47.4075 29.9249 47.2053 30.2958H34.6875C34.7127 30.2398 34.7317 30.1628 34.7317 30.1628ZM18.8837 34.6285L18.8774 34.6215V30.7018H44.1154V34.6285H18.8837ZM18.5109 31.2338L16.4383 31.3877C16.2929 31.1498 16.1539 30.9188 16.0275 30.7018H18.5109V31.2338ZM18.5109 31.6607V32.2207L17.127 32.4237C16.9754 32.2067 16.8364 31.9967 16.6974 31.7937L18.5109 31.6607ZM18.5109 32.6267V33.2706L17.8664 33.4176C17.7021 33.2076 17.5441 32.9976 17.3924 32.7946L18.5109 32.6267ZM18.5109 33.6906V34.2015C18.3845 34.0545 18.2645 33.9146 18.1507 33.7676C18.2961 33.7396 18.4161 33.7116 18.5109 33.6906ZM23.1743 35.0345H25.4554L22.2707 37.5613C21.7209 37.1903 21.1775 36.7843 20.6594 36.3434C21.8536 35.7204 22.9595 35.1465 23.1743 35.0345ZM20.3308 36.0564C20.2992 36.0284 19.5725 35.3564 19.2692 35.0345H22.3023L20.3308 36.0564ZM26.0873 35.0345H27.3132L24.1727 38.6602C23.6419 38.4012 23.1237 38.1072 22.6182 37.7853C24.1221 36.5954 25.6956 35.3494 26.0873 35.0345ZM27.8251 35.0345H28.8677L26.4475 39.5701C25.7967 39.3671 25.1585 39.1222 24.5392 38.8352C25.8535 37.3093 27.4396 35.4754 27.8251 35.0345ZM29.2911 35.0345H30.1694L28.893 40.1301C28.1852 40.0251 27.4902 39.8781 26.814 39.6821C27.7429 37.9463 28.9814 35.6224 29.2911 35.0345ZM33.708 35.0345L36.1851 39.6751C35.5089 39.8711 34.8138 40.0181 34.1061 40.1231L32.8297 35.0345H33.708ZM34.1377 35.0345H35.1803L38.4662 38.8352C37.8469 39.1222 37.2087 39.3671 36.5516 39.5701L34.1377 35.0345ZM35.6859 35.0345H36.9117L40.3808 37.7853C39.8753 38.1072 39.3572 38.4012 38.8264 38.6602C37.6826 37.3443 36.3051 35.7484 35.6859 35.0345ZM37.5436 35.0345H39.8248L42.3397 36.3364C41.8153 36.7843 41.2781 37.1903 40.7284 37.5543C39.5151 36.5954 38.2324 35.5804 37.5436 35.0345ZM40.6968 35.0345H43.7299C43.4203 35.3774 42.6873 36.0354 42.6683 36.0564C41.929 35.6784 41.2086 35.3004 40.6968 35.0345ZM44.4882 33.6906L44.8547 33.7746C44.7346 33.9216 44.6146 34.0615 44.4882 34.2085V33.6906ZM44.4882 33.2776V32.6337L45.6129 32.8016C45.4613 33.0116 45.3033 33.2146 45.139 33.4246C44.8484 33.3546 44.6209 33.3056 44.4882 33.2776ZM44.4882 32.2207V31.6607L46.3017 31.7937C46.169 31.9967 46.0237 32.2137 45.872 32.4237L44.4882 32.2207ZM44.4882 31.2338V30.6948H46.9778C46.8515 30.9118 46.7125 31.1428 46.5671 31.3807L44.4882 31.2338ZM26.3654 28.532C26.953 28.532 27.427 28.7209 27.7619 29.0989C28.0083 29.3719 28.1789 29.7289 28.2674 30.1628C28.2674 30.1628 28.2863 30.2398 28.3053 30.2888H15.7937C15.6042 29.9389 15.2882 29.3089 15.2882 29.3089C15.2756 29.2809 15.0607 28.8609 14.6626 28.525H26.3654V28.532ZM1.51288 30.2888C1.19061 30.2608 1.1211 30.2188 1.02 30.0368C1.02 30.0368 0.596628 29.2599 0.565033 29.1969C0.495524 29.0499 0.470249 28.9449 0.476568 28.8749C0.482887 28.6859 0.602947 28.539 0.912576 28.532H13.6074C14.4668 28.532 14.9723 29.5119 14.9723 29.5119C15.086 29.7429 15.2187 30.0089 15.3704 30.2958H1.51288V30.2888ZM3.23164 32.2837C2.90937 32.1577 2.80195 31.9477 2.73876 31.8077C2.54287 31.4367 2.28379 30.8768 2.15109 30.7018H15.5915C15.7179 30.9328 15.8633 31.1708 16.0149 31.4227L4.22371 32.2907C4.04046 32.3117 3.50335 32.3607 3.23164 32.2837ZM5.41168 34.1665C4.98199 34.2295 4.84929 34.0755 4.82402 34.0335L4.26163 32.9346C4.22371 32.8506 4.17948 32.7876 4.12893 32.7246C4.20476 32.7176 16.2677 31.8287 16.2677 31.8287C16.4067 32.0457 16.552 32.2627 16.7037 32.4937L5.41168 34.1665ZM8.14779 35.3704C6.97879 34.9855 6.02462 34.6775 5.62021 34.5445L16.9691 32.8576C17.127 33.0746 17.285 33.2916 17.4556 33.5156L9.69594 35.2795C9.39895 35.3494 8.57748 35.4894 8.14779 35.3704ZM11.996 36.6164C11.1303 36.3364 10.2141 36.0354 9.35472 35.7554C9.5822 35.7204 9.74649 35.6854 9.76545 35.6784C9.76545 35.6784 15.3893 34.3975 17.7337 33.8656C17.9612 34.1525 18.2076 34.4395 18.4667 34.7335L13.2662 36.5114C13.2472 36.5184 12.5395 36.7773 11.996 36.6164ZM16.0528 37.9392C15.9391 37.9043 14.7069 37.5053 13.1145 36.9803C13.2662 36.9383 13.3673 36.9033 13.3799 36.9033C13.3736 36.9033 17.7463 35.4124 18.7637 35.0625C19.1365 35.4614 19.5346 35.8604 19.9643 36.2524L17.1523 37.7083C16.9628 37.8133 16.4193 38.0512 16.0528 37.9392ZM18.3024 40.2001C17.2029 39.7381 17.0386 39.2832 16.8806 38.8352C16.868 38.7932 16.7858 38.5622 16.6089 38.3312C16.9817 38.2542 17.2913 38.0792 17.3103 38.0722C17.3103 38.0722 18.7953 37.3023 20.2802 36.5324C20.8173 37.0013 21.3734 37.4283 21.9421 37.8203L19.3134 39.9061C19.3071 39.9131 18.7637 40.3611 18.3024 40.2001ZM21.4619 41.194L19.1302 40.4871C19.364 40.3751 19.5219 40.2421 19.5346 40.2351C19.5346 40.2351 20.8363 39.2062 22.2896 38.0512C22.8141 38.3942 23.3512 38.7022 23.901 38.9752L22.3718 40.739C22.2391 40.9 21.8094 41.285 21.4619 41.194ZM24.6909 42.1669L22.1822 41.411C22.4413 41.25 22.6245 41.04 22.6372 41.026C22.6372 41.026 23.3512 40.2001 24.2612 39.1502C24.9057 39.4581 25.5692 39.7171 26.2516 39.9341L25.4238 41.488C25.3227 41.691 24.9815 42.2229 24.6909 42.1669ZM28.3748 42.2229C28.3748 42.2299 28.2737 42.7269 27.9578 42.9369C27.8187 43.0349 27.6481 43.0559 27.4586 43.0069L25.2659 42.3419C25.5313 42.1039 25.7145 41.754 25.7461 41.691C25.7461 41.691 26.1189 40.998 26.6245 40.0461C27.3322 40.2561 28.0589 40.4171 28.7982 40.5291L28.3748 42.2229ZM28.9309 42.7269C28.7603 42.9089 28.577 43.0069 28.3938 43.0629C28.6339 42.7619 28.7224 42.3769 28.735 42.3209L29.171 40.5921C29.7144 40.662 30.2705 40.711 30.8329 40.732C30.3779 41.194 28.9309 42.7269 28.9309 42.7269ZM29.2658 40.1791L30.5549 35.0345H31.3131V40.3191C30.618 40.3121 29.9356 40.2701 29.2658 40.1791ZM31.6859 40.3191V35.0345H32.4505L33.7396 40.1791C33.0635 40.2701 32.381 40.3121 31.6859 40.3191ZM33.7522 42.3909C33.7522 42.3909 32.5706 41.145 32.1725 40.718C32.7349 40.697 33.291 40.648 33.8344 40.5781L34.2704 42.3139C34.283 42.3769 34.3715 42.7549 34.6116 43.0559C34.2767 42.9509 34.1756 42.8459 33.7522 42.3909ZM35.5468 43.0069C35.3509 43.0559 35.1867 43.0349 35.0413 42.9369C34.738 42.7339 34.6369 42.2579 34.6306 42.2299L34.2072 40.5361C34.9465 40.4241 35.6732 40.2631 36.3809 40.0531L37.2593 41.705C37.2909 41.768 37.4678 42.1109 37.7332 42.3489L35.5468 43.0069ZM38.3082 42.1669C38.0176 42.2159 37.6763 41.691 37.5815 41.495L36.7474 39.9341C37.4299 39.7171 38.0934 39.4581 38.7379 39.1502L40.3619 41.026C40.3745 41.04 40.5578 41.25 40.8169 41.411L38.3082 42.1669ZM41.9543 41.068L41.5372 41.194C41.1897 41.285 40.76 40.9 40.6273 40.746C40.6273 40.746 39.9575 39.9761 39.0981 38.9822C39.6478 38.7092 40.185 38.3942 40.7094 38.0582L43.4708 40.2421C43.4835 40.2491 43.6414 40.3821 43.8689 40.4941C43.256 40.676 41.9543 41.068 41.9543 41.068ZM46.1185 38.8352C45.9605 39.2832 45.7962 39.7381 44.6904 40.2001C44.2354 40.3541 43.692 39.9061 43.6857 39.9061C43.6857 39.9061 42.4535 38.9262 41.0507 37.8203C41.6194 37.4283 42.1754 37.0013 42.7125 36.5394L45.6888 38.0792C45.7077 38.0862 46.011 38.2612 46.3839 38.3382C46.2133 38.5622 46.1311 38.7932 46.1185 38.8352ZM46.9526 37.9392C46.5861 38.0512 46.0426 37.8133 45.8594 37.7153C45.8594 37.7153 44.4692 36.9943 43.0411 36.2524C43.4708 35.8674 43.8689 35.4684 44.2417 35.0625L49.6318 36.9033C49.6445 36.9103 49.7392 36.9453 49.8909 36.9803L46.9526 37.9392ZM51.0093 36.6164C50.4659 36.7773 49.7519 36.5184 49.7456 36.5114H49.7392L44.545 34.7335C44.8041 34.4465 45.0442 34.1525 45.278 33.8656L53.2399 35.6784C53.2589 35.6854 53.4232 35.7204 53.6507 35.7554L51.0093 36.6164ZM54.8576 35.3704C54.4342 35.4964 53.6001 35.3564 53.3095 35.2865C53.3095 35.2865 47.9952 34.0755 45.5498 33.5226C45.7204 33.2986 45.8847 33.0816 46.0363 32.8646L57.3789 34.5515L54.8576 35.3704ZM58.7438 32.9416C58.7438 32.9346 58.2825 33.8446 58.1814 34.0335C58.1561 34.0685 58.0234 34.2295 57.5937 34.1665L46.3017 32.4867C46.4534 32.2627 46.605 32.0387 46.7377 31.8217L58.7374 32.7036C58.7564 32.7036 58.8069 32.7106 58.8765 32.7176C58.8259 32.7806 58.7817 32.8576 58.7438 32.9416ZM60.7469 30.8628L60.2666 31.8007C60.1971 31.9407 60.096 32.1577 59.7738 32.2767C59.502 32.3537 58.9649 32.3047 58.7817 32.2767L46.9968 31.4087C47.1485 31.1568 47.2938 30.9188 47.4202 30.6878H60.8606C60.8101 30.7508 60.7785 30.8068 60.7469 30.8628ZM62.4404 29.1969C62.434 29.2109 61.9854 30.0368 61.9854 30.0368C61.8969 30.1908 61.8464 30.2608 61.4925 30.2888H47.635C47.793 30.0018 47.9257 29.7359 48.0331 29.5049C48.0394 29.4979 48.526 28.525 49.398 28.525H62.0928C62.2255 28.532 62.3961 28.546 62.4909 28.7139C62.5036 28.7349 62.5288 28.7839 62.5288 28.8679C62.5288 28.9449 62.5099 29.0499 62.4404 29.1969Z" fill="black"/>
<path d="M20.4375 31.3379L19.3633 33.9977H19.6666V33.9697C19.7551 33.6477 19.8625 33.3397 19.9699 33.0388C19.9699 33.0388 19.9889 33.0038 19.9952 32.9898H20.8356C20.9493 33.2767 21.0631 33.5847 21.1831 33.9697V33.9977H21.5812L20.5512 31.3379H20.4375ZM22.5417 31.3379C22.0678 31.3379 21.7708 31.6109 21.7708 32.0588C21.7708 32.5208 22.0804 32.6608 22.3522 32.7798C22.5986 32.8848 22.845 32.9828 22.845 33.2977C22.845 33.5917 22.6302 33.8437 22.3774 33.8437C22.1499 33.8437 21.992 33.7247 21.8403 33.4587H21.7708L21.7013 33.8227H21.7266C21.853 33.9767 22.131 34.0537 22.289 34.0537C22.7945 34.0537 23.1547 33.6897 23.1547 33.1718C23.1547 32.7448 22.8577 32.5978 22.5733 32.4718C22.3206 32.3598 22.0804 32.2688 22.0804 31.9538C22.0804 31.7159 22.2637 31.5409 22.4975 31.5409C22.6871 31.5409 22.8261 31.6529 22.8956 31.8489H22.9651L23.0599 31.5129C22.9145 31.3799 22.6934 31.3379 22.5417 31.3379ZM26.2762 31.3379C25.5243 31.3379 24.9935 31.8769 24.9935 32.6818C24.9935 33.4937 25.518 34.0537 26.2762 34.0537C27.0661 34.0537 27.5843 33.4727 27.5843 32.6328C27.5843 31.7229 26.9271 31.3379 26.2762 31.3379ZM35.2808 31.3379L34.2065 33.9977H34.4846V33.9697C34.573 33.6407 34.6994 33.3397 34.8132 33.0388C34.8132 33.0388 34.8321 33.0038 34.8384 32.9898H35.6536C35.7673 33.2767 35.8874 33.5987 36.0011 33.9697L36.0264 33.9977H36.4245L35.3755 31.3379H35.2808ZM23.2874 31.3869V31.6459H23.3126C23.5148 31.6179 23.717 31.6179 24.033 31.6179V33.9977H24.3616V31.6179C24.6017 31.6179 24.8481 31.6179 25.063 31.6459H25.0883V31.3869H25.063H23.2874ZM27.9571 31.3869V33.9977H28.1909V31.9818C28.2035 31.9958 29.6632 33.7667 29.6632 33.7667L29.8528 33.9977H29.9665V31.3869H29.9412H29.7327C29.7327 31.3869 29.7327 33.2837 29.7327 33.3257C29.7201 33.3117 28.1214 31.3869 28.1214 31.3869H27.9571ZM31.641 31.3869V31.4149C31.6094 31.7999 31.4009 33.3677 31.3124 33.9767V34.0047H31.5905V33.9767C31.5905 33.6057 31.6474 33.0598 31.7042 32.4788C31.7042 32.4788 31.7421 32.2198 31.7485 32.1148C31.7864 32.1988 32.235 33.1228 32.3993 33.5077L32.5889 33.9487H32.6584C32.8543 33.4447 33.1386 32.8708 33.5241 32.1148C33.5746 32.5628 33.6505 33.4587 33.6884 33.9767V34.0047H34.0612V33.9767C33.9791 33.3397 33.8843 32.5138 33.7832 31.4149V31.3869H33.7579H33.6631L33.1007 32.5278C33.1007 32.5278 32.7342 33.2627 32.7026 33.3257C32.3488 32.6748 32.0391 31.9818 31.7674 31.3869H31.7421H31.641ZM36.6393 31.3869V33.9977H36.9679C36.9679 33.9977 36.9679 32.7728 36.9679 32.7308H37.0627C37.0753 32.7448 37.3407 33.0948 37.3407 33.0948L37.7388 33.6617L37.9474 33.9977H37.9726H38.3897C38.3897 33.9977 37.4987 32.7588 37.4545 32.7028C37.8842 32.6048 38.1559 32.3458 38.1559 31.9818C38.1559 31.5829 37.8842 31.3869 37.3597 31.3869H36.6393ZM38.3391 31.3869V31.6459H38.3644C38.5666 31.6179 38.7688 31.6179 39.0848 31.6179V33.9977H39.4134C39.4134 33.9977 39.4134 31.6669 39.4134 31.6179C39.6535 31.6179 39.8999 31.6179 40.1148 31.6459H40.14V31.3869H40.1148H38.3391ZM40.4181 31.3869V33.9977H40.7467V31.3869H40.4181ZM41.2332 31.3869V33.9977H41.467V31.9818C41.4797 31.9958 42.9393 33.7667 42.9393 33.7667L43.1289 33.9977H43.2427V31.3869H43.0089V33.3257C42.9962 33.3117 41.3975 31.3869 41.3975 31.3869H41.2332ZM26.2952 31.4919C26.5669 31.4919 26.8386 31.6319 26.9966 31.8559C27.1735 32.1008 27.2051 32.3458 27.2051 32.6538C27.2051 32.6748 27.2051 32.6888 27.2051 32.7028C27.2051 32.9548 27.1167 33.3327 26.9018 33.5847C26.7375 33.7807 26.5227 33.8717 26.2699 33.8717C25.7202 33.8717 25.36 33.4237 25.36 32.7308C25.3663 31.9678 25.7202 31.4919 26.2952 31.4919ZM36.9616 31.5689C37.1006 31.5619 37.3344 31.5479 37.4545 31.5689C37.6883 31.6109 37.802 31.7509 37.802 32.0098C37.802 32.2758 37.6441 32.4648 37.385 32.5278C37.2396 32.5628 37.0501 32.5558 36.9679 32.5558V31.5689H36.9616ZM20.4185 31.9049C20.4501 31.9888 20.7471 32.7238 20.7661 32.7868H20.09C20.1152 32.7238 20.3806 31.9958 20.4185 31.9049ZM35.2618 31.9049C35.2934 31.9888 35.5651 32.7238 35.5904 32.7868H34.9143C34.9332 32.7238 35.2239 31.9958 35.2618 31.9049Z" fill="black"/>
</svg>
