<svg width="64" height="24" viewBox="0 0 64 24" fill="none" xmlns="http://www.w3.org/2000/svg">
<g clip-path="url(#clip0_10704_21899)">
<path d="M11.3112 2C8.76885 2.08744 6.36159 3.20163 4.60839 5.10238C2.85518 7.00312 1.89645 9.5382 1.93885 12.1611C1.98125 14.7841 3.0214 17.2848 4.83507 19.1242C6.64873 20.9636 9.09067 21.9944 11.6345 21.9944C14.1783 21.9944 16.6202 20.9636 18.4339 19.1242C20.2475 17.2848 21.2877 14.7841 21.3301 12.1611C21.3725 9.5382 20.4138 7.00312 18.6606 5.10238C16.9073 3.20163 14.5001 2.08744 11.9577 2H11.3112ZM24.887 2C22.3446 2.08744 19.9373 3.20163 18.1841 5.10238C16.4309 7.00312 15.4722 9.5382 15.5146 12.1611C15.557 14.7841 16.5972 17.2848 18.4108 19.1242C20.2245 20.9636 22.6664 21.9944 25.2102 21.9944C27.754 21.9944 30.196 20.9636 32.0096 19.1242C33.8233 17.2848 34.8634 14.7841 34.9058 12.1611C34.9482 9.5382 33.9895 7.00312 32.2363 5.10238C30.4831 3.20163 28.0758 2.08744 25.5335 2H24.887ZM38.4627 2C35.9204 2.08744 33.5131 3.20163 31.7599 5.10238C30.0067 7.00312 29.048 9.5382 29.0904 12.1611C29.1328 14.7841 30.1729 17.2848 31.9866 19.1242C33.8002 20.9636 36.2422 21.9944 38.786 21.9944C41.3298 21.9944 43.7717 20.9636 45.5854 19.1242C47.3991 17.2848 48.4392 14.7841 48.4816 12.1611C48.524 9.5382 47.5653 7.00312 45.8121 5.10238C44.0589 3.20163 41.6516 2.08744 39.1092 2H38.4627ZM52.0385 2C49.4961 2.08744 47.0889 3.20163 45.3357 5.10238C43.5825 7.00312 42.6237 9.5382 42.6661 12.1611C42.7085 14.7841 43.7487 17.2848 45.5623 19.1242C47.376 20.9636 49.8179 21.9944 52.3617 21.9944C54.9055 21.9944 57.3475 20.9636 59.1611 19.1242C60.9748 17.2848 62.015 14.7841 62.0574 12.1611C62.0998 9.5382 61.141 7.00312 59.3878 5.10238C57.6346 3.20163 55.2274 2.08744 52.685 2H52.0385Z" stroke="black" stroke-width="2.33333"/>
</g>
<defs>
<clipPath id="clip0_10704_21899">
<rect width="64" height="24" fill="white"/>
</clipPath>
</defs>
</svg>
