<svg width="64" height="23" viewBox="0 0 64 23" fill="none" xmlns="http://www.w3.org/2000/svg">
<path d="M30.7602 2H32.8855C34.3803 2.14559 35.8777 2.44992 37.2522 3.07171C37.5034 3.19456 37.7911 3.28656 38.0661 3.17029C39.7904 2.72391 41.5962 2.8235 43.3488 3.02976C45.3998 3.25977 47.4638 3.1066 49.5163 2.98527C50.9034 2.87254 52.2966 2.91146 53.6874 2.91146C54.8 2.91349 55.9091 3.02015 57.0198 3.07677C58.8862 3.1799 60.7521 2.99841 62.6099 2.8321C62.8232 2.85333 63.0841 2.73908 63.2741 2.88265C63.5764 3.12732 63.8085 3.45086 63.9996 3.78754V4.01907C63.4774 4.35727 62.9314 4.65755 62.3632 4.91132C62.5174 5.27732 62.6801 5.63928 62.8182 6.01236C62.3248 6.43801 61.6666 6.55125 61.0665 6.75346C61.1135 7.123 61.3729 7.5805 61.0286 7.87472C60.517 8.28369 59.7971 8.2028 59.2451 8.51724C59.0666 8.87515 59.2997 9.37916 59.01 9.69916C58.4211 10.1117 57.6401 9.90541 56.997 10.1708C56.9313 10.2011 56.899 10.2699 56.8787 10.3351C56.7832 10.6374 56.7625 10.9665 56.6118 11.2506C56.489 11.4412 56.2645 11.56 56.0411 11.5787C55.3814 11.6282 54.7186 11.5792 54.0599 11.6282C53.8279 11.928 53.8269 12.3597 53.5701 12.6499C52.7552 12.9537 51.8664 12.7283 51.0252 12.84C50.8746 13.0993 50.8519 13.4168 50.6962 13.6736C50.5071 13.9309 50.1259 13.894 49.8474 13.9284C49.2241 13.981 48.6189 13.8076 48.0073 13.7287C47.8506 14.0209 47.6777 14.348 47.3334 14.4516C46.6641 14.5901 46.0286 14.3212 45.3876 14.1791C45.2719 14.4026 45.1768 14.6639 44.9392 14.7878C44.4807 14.9738 43.9914 14.7782 43.5586 14.6174C42.7078 17.3685 40.5543 19.6049 37.962 20.7985C37.6526 20.9795 37.2087 21.0381 37.0657 21.4157C36.9671 21.5937 36.8832 21.7782 36.7957 21.9612C36.4383 21.8343 36.0895 21.6806 35.7179 21.5967C35.5557 21.8606 35.3914 22.1235 35.224 22.3843C34.905 22.2231 34.5901 22.0532 34.2706 21.894C34.0507 22.1452 33.8323 22.398 33.6154 22.6517C33.3349 22.4414 33.0558 22.2301 32.7722 22.0244C32.519 22.2554 32.2778 22.4996 32.021 22.7266H31.9265C31.7111 22.494 31.4912 22.2655 31.2526 22.0567C30.9771 22.2534 30.7006 22.449 30.4236 22.6432C30.2072 22.3949 29.9918 22.1462 29.778 21.8965C29.462 22.0618 29.1466 22.2271 28.8286 22.3874C28.6507 22.1225 28.4732 21.8586 28.2958 21.5942C27.944 21.6816 27.6103 21.8242 27.2721 21.9526C27.0952 21.6842 26.9794 21.3136 26.6372 21.2166C24.2096 20.3036 22.0364 18.5954 20.7751 16.3079C20.4106 15.6755 20.1826 14.9799 19.9678 14.2858C19.4011 14.484 18.8046 14.7155 18.1954 14.5957C17.8572 14.5158 17.7839 14.1205 17.6252 13.8581C16.8704 13.9436 16.1369 14.1973 15.37 14.1756C15.2037 14.164 15.0333 14.1003 14.9206 13.9744C14.7421 13.7606 14.7189 13.4557 14.5354 13.2469C13.7255 13.1403 12.8783 13.3531 12.0881 13.114C11.6933 12.9669 11.7545 12.4502 11.4921 12.1954C10.4442 11.8517 9.25769 12.109 8.25726 11.5883C8.03331 11.3553 8.06668 10.9857 7.9772 10.691C7.19363 10.5186 6.39136 10.4216 5.62701 10.1688C5.57089 10.1471 5.51731 10.1167 5.47333 10.0748C5.40255 9.73707 5.39396 9.39079 5.34947 9.04956C5.34998 8.97474 5.27162 8.94896 5.21703 8.92065C4.63618 8.68608 4.00073 8.59913 3.44213 8.30795C3.28541 8.25184 3.20453 8.08603 3.22222 7.92729C3.25154 7.66391 3.36529 7.42075 3.44263 7.16951C2.75764 6.7934 2.02514 6.51738 1.31791 6.18828C1.39677 5.76111 1.50192 5.33748 1.66672 4.93508C1.07829 4.67727 0.493393 4.39973 0 3.98014V3.79866C0.23507 3.44884 0.462556 3.06565 0.822491 2.83007C1.05402 2.78154 1.29465 2.83058 1.5282 2.83614C3.41988 3.03936 5.32673 3.18091 7.22902 3.06464C9.3128 2.89428 11.4057 2.87355 13.4945 2.93118C15.783 3.04391 18.0806 3.29061 20.3697 3.05149C22.1319 2.86344 23.9382 2.70925 25.6822 3.11721C26.07 3.26786 26.4365 3.04037 26.7883 2.90691C28.0577 2.40998 29.4034 2.12133 30.7602 2ZM26.7261 3.43923C26.9597 3.56106 27.1958 3.68643 27.4511 3.75519C27.9996 3.66672 28.5213 3.46299 29.0667 3.35784C29.913 3.14855 30.7845 3.07677 31.6525 3.02521C33.209 3.00347 34.7584 3.29314 36.228 3.79714C36.5687 3.94274 36.8973 3.67784 37.1728 3.50343C36.4054 3.13642 35.5708 2.93219 34.7463 2.74009C33.894 2.54445 33.022 2.45042 32.1494 2.41453C30.3002 2.42767 28.448 2.75879 26.7261 3.43923ZM0.945839 3.20265C0.633424 3.31285 0.42818 3.59493 0.227992 3.84365C0.50502 3.97256 0.781037 4.10602 1.0707 4.20662C2.11967 4.60902 3.2657 4.49224 4.3637 4.56251C6.93733 4.60497 9.50995 4.68586 12.0821 4.77786C13.5142 4.83802 14.9484 4.82437 16.379 4.91385C16.3993 4.83903 16.4195 4.76422 16.4392 4.6894C15.6263 4.56403 14.8154 4.41591 13.996 4.33907C12.0487 4.17174 10.0923 4.1409 8.13897 4.1136C7.91401 4.13686 7.70725 4.04283 7.53891 3.90533C8.05758 3.85983 8.57776 3.8113 9.09947 3.8204C10.981 3.85174 12.8641 3.92353 14.7381 4.10299C16.2056 4.30014 17.6722 4.55746 19.1579 4.54684C20.6588 4.63885 22.1617 4.43714 23.6616 4.56605C24.0888 4.60902 24.5317 4.67828 24.9083 4.89616C25.1145 5.13173 25.2808 5.44617 25.1984 5.76971C25.1004 6.69431 24.2784 7.35251 24.1763 8.27408C24.149 8.59863 24.3557 8.85038 24.5772 9.05512C24.7895 8.85544 24.9851 8.63958 25.161 8.40653C24.838 8.03648 24.8805 7.47636 25.1747 7.10531C25.5498 6.45065 26.2262 6.06645 26.6938 5.49015C26.9536 5.17622 27.2741 4.84914 27.3302 4.42602C27.2671 4.12422 26.946 3.98116 26.6897 3.8755C25.3461 3.34723 23.8689 3.33156 22.4469 3.37705C21.0471 3.44277 19.6493 3.55196 18.2495 3.59999C16.418 3.5459 14.594 3.34318 12.7625 3.28454C10.9664 3.18647 9.17529 3.40081 7.38068 3.42103C5.92931 3.4822 4.47643 3.3998 3.03113 3.27291C2.33705 3.22641 1.63993 3.10255 0.945839 3.20265ZM57.1178 3.43519C56.1083 3.41143 55.0993 3.36644 54.0913 3.31083C51.8488 3.16119 49.6062 3.38514 47.3698 3.53073C46.4265 3.61061 45.4776 3.62274 44.5353 3.52972C42.6244 3.44833 40.6999 3.22287 38.7946 3.48827C38.0995 3.60454 37.375 3.74457 36.7881 4.16062C36.5884 4.31025 36.6623 4.58172 36.7649 4.76573C37.1203 5.41331 37.7011 5.88648 38.2243 6.39201C38.5863 6.7661 38.9725 7.1872 39.061 7.72053C39.1085 7.97835 38.9331 8.17904 38.8259 8.39237C38.9841 8.62947 39.1676 8.84735 39.3552 9.0622C39.5402 8.92419 39.7465 8.76394 39.7864 8.52078C39.8718 7.83427 39.4037 7.28173 39.1267 6.7019C38.8987 6.24692 38.6272 5.68478 38.8744 5.18431C38.9897 4.86633 39.337 4.76624 39.6272 4.6712C40.6493 4.44017 41.7079 4.53319 42.7468 4.55341C43.5789 4.61003 44.412 4.54027 45.2451 4.52712C46.5797 4.50943 47.895 4.26021 49.217 4.09995C50.2023 3.97408 51.1966 3.95841 52.1864 3.88662C53.6115 3.85022 55.0411 3.76884 56.4632 3.91999C56.2726 4.05294 56.0436 4.12574 55.8101 4.1136C54.0215 4.13029 52.233 4.17932 50.4495 4.31329C49.4773 4.37395 48.5204 4.55796 47.5573 4.69091C47.5983 4.82892 47.6382 4.96592 47.6842 5.10292C47.6802 5.03113 47.6761 4.95884 47.6736 4.88655C52.0712 4.77483 56.4672 4.59335 60.8663 4.52156C61.8743 4.52611 62.8864 4.3239 63.7812 3.85022C63.533 3.46754 63.1301 3.08233 62.6357 3.16524C60.7976 3.2714 58.962 3.51102 57.1178 3.43519ZM27.7124 4.1222C27.7584 4.54937 27.7827 5.02254 27.491 5.37691C26.8904 6.21204 26.0012 6.79239 25.4062 7.63358C25.3263 7.75137 25.2864 7.88887 25.2475 8.02435C25.7884 7.56887 26.3293 7.10379 26.9486 6.75548C29.4727 5.30159 32.6282 5.04276 35.3711 6.00933C36.6269 6.42841 37.7572 7.15586 38.7501 8.02284C38.655 7.75794 38.5322 7.4981 38.3305 7.2969C37.6945 6.53709 36.821 5.97697 36.3357 5.09483C36.1946 4.84004 36.2811 4.53572 36.2725 4.2597C33.5538 3.17383 30.4832 3.28454 27.7124 4.1222ZM44.3306 4.90475C44.414 5.07714 44.5348 5.25761 44.7446 5.27581C45.6611 5.3941 46.661 5.51745 47.4952 5.03467C47.4593 4.91688 47.4209 4.7996 47.3779 4.68434C46.3653 4.80314 45.3436 4.79556 44.3306 4.90475ZM16.5802 4.7263C16.5585 4.82892 16.5378 4.93205 16.5186 5.03518C16.8866 5.21262 17.2713 5.40573 17.6919 5.37843C18.2389 5.35821 18.7894 5.34203 19.3303 5.24952C19.5128 5.22728 19.577 5.03366 19.6564 4.89666C18.6347 4.79303 17.607 4.74197 16.5802 4.7263ZM1.86034 4.87644C1.66824 5.1747 1.47057 5.51745 1.47462 5.87738C1.71727 6.10538 2.06912 6.15188 2.37648 6.2444C3.29552 6.50575 4.25602 6.56439 5.20692 6.55277C6.71793 6.58108 8.2244 6.45166 9.7339 6.41931C12.1301 6.34651 14.5227 6.18575 16.9189 6.12155C16.8962 6.18677 16.8729 6.25147 16.8507 6.31669C16.9296 6.27877 17.0084 6.23985 17.0868 6.20041L17.1373 5.69489C16.696 5.45173 16.2572 5.10494 15.7234 5.14184C13.1563 5.07562 10.5882 5.05742 8.02168 5.0003C5.96723 4.97957 3.91479 4.87442 1.86034 4.87644ZM19.7979 4.87139C19.7322 5.03821 19.6796 5.20958 19.6392 5.38399C19.7838 5.48004 19.9106 5.61451 20.0765 5.67416C20.3247 5.6777 20.5572 5.56699 20.7963 5.51391C20.5254 5.78689 20.0446 5.94866 20.0674 6.41122C20.217 6.44711 20.3676 6.49412 20.5233 6.48806C20.9131 6.51283 21.2159 6.24338 21.5566 6.10285C21.2457 6.47795 20.6699 6.66904 20.6219 7.21349C20.8939 7.33128 21.1967 7.40963 21.4909 7.3156C21.8832 7.16496 22.2184 6.90107 22.5485 6.64679C22.2704 7.04009 21.8878 7.34088 21.5915 7.71851C21.4586 7.8914 21.6234 8.17702 21.8387 8.16944C22.3862 8.21241 22.7588 7.74682 23.1278 7.41924C22.9145 7.87674 22.4989 8.2665 22.5384 8.80741C22.7123 8.82005 22.8826 8.82864 23.0575 8.84027C23.2001 8.71439 23.3447 8.58852 23.4857 8.46012C23.4407 8.68457 23.3118 8.94239 23.422 9.16179C23.6541 9.40393 24.0251 9.27755 24.3214 9.26744C24.1257 8.92217 23.8644 8.56375 23.9918 8.14012C24.0939 7.68413 24.3972 7.30549 24.6181 6.90208C24.8441 6.53052 25.1059 6.12256 25.0023 5.66355C24.8663 5.40269 24.5746 5.28187 24.3107 5.18987C23.2481 4.86734 22.1253 4.9553 21.0314 4.91031C20.6204 4.88706 20.2089 4.8815 19.7979 4.87139ZM39.6828 5.1838C39.3663 5.29856 38.9275 5.48358 38.9543 5.88193C39.0827 6.79997 39.9416 7.4344 40.0376 8.3671C40.0452 8.72349 39.796 8.9985 39.6727 9.31445C39.9568 9.28109 40.3364 9.38523 40.5573 9.14055C40.6984 8.94087 40.5599 8.69013 40.5386 8.47376C40.6584 8.59155 40.7798 8.70833 40.9026 8.8246C41.0416 8.81904 41.3202 8.80792 41.4592 8.80286C41.4981 8.27813 41.126 7.88887 40.8834 7.46575C41.1619 7.69829 41.4198 7.97279 41.763 8.11231C41.9809 8.20988 42.221 8.12141 42.446 8.09058C42.3964 7.90909 42.4111 7.69475 42.2746 7.55118C42.0026 7.2605 41.7185 6.97943 41.4834 6.65741C41.9324 6.99611 42.4182 7.49102 43.0395 7.3333C43.2341 7.33785 43.364 7.14524 43.3215 6.96376C43.0698 6.64022 42.7281 6.40364 42.4404 6.11498C42.6699 6.22417 42.8949 6.34348 43.1305 6.43953C43.3822 6.54822 43.6602 6.45924 43.9181 6.41274C43.9201 5.94411 43.459 5.75505 43.1608 5.49925C43.4838 5.56244 43.9312 5.83896 44.1991 5.50481C44.4448 5.34658 44.2603 5.08067 44.2133 4.8724C42.7048 4.98968 41.1609 4.79859 39.6828 5.1838ZM48.1771 5.14387C47.6918 5.1287 47.2616 5.39612 46.8794 5.66607C48.7428 5.77325 50.6077 5.84857 52.4726 5.93501C54.6802 6.00882 56.8863 6.14885 59.0965 6.15643C60.287 6.20193 61.5109 6.21811 62.6579 5.84655C62.5325 5.52554 62.3526 5.23082 62.1812 4.93306C57.5127 4.9366 52.8456 5.12567 48.1771 5.14387ZM19.2302 5.51037C18.666 5.59328 18.0938 5.62462 17.5347 5.73584C17.2814 5.79498 17.2132 6.10588 17.2556 6.32882C17.3734 6.49059 17.5711 6.56894 17.7515 6.63719C18.2571 6.6195 18.7459 6.46986 19.2418 6.37988C19.4865 6.31567 19.7635 6.29495 19.9708 6.1347C19.9824 6.01388 19.9258 5.90064 19.8358 5.82279C19.6619 5.68377 19.4804 5.46487 19.2302 5.51037ZM44.5606 5.52503C44.3382 5.66254 44.0429 5.84503 44.0293 6.13419C44.2194 6.29748 44.4848 6.31618 44.7183 6.3733C45.15 6.45318 45.5767 6.56389 46.0114 6.63112C46.3122 6.69128 46.5433 6.47997 46.7839 6.3455C46.7096 6.12004 46.7161 5.77678 46.428 5.72067C45.8138 5.60389 45.1864 5.52554 44.5606 5.52503ZM31.3148 5.91732C29.3089 6.06139 27.3014 6.77014 25.7934 8.129C24.9613 8.88375 24.2764 9.8402 24.014 10.9468C23.7531 12.1767 23.9392 13.5199 24.6181 14.5886C25.1696 15.5405 26.0118 16.2892 26.9324 16.8756C28.6497 17.9296 30.7077 18.425 32.7171 18.2466C34.9596 18.0788 37.2249 17.1693 38.7319 15.4556C39.5544 14.5295 40.1109 13.3147 40.0852 12.06C40.1049 10.6688 39.4088 9.35945 38.4528 8.38783C36.5965 6.55378 33.8869 5.7323 31.3148 5.91732ZM46.839 5.95473C46.8855 6.23631 46.8981 6.52092 46.883 6.80553C49.1973 7.1235 51.5313 7.26202 53.8547 7.49355C55.3687 7.59769 56.8732 7.81254 58.3872 7.91162C59.286 7.88735 60.288 8.00919 61.0923 7.51428C61.0534 7.25343 61.0129 6.98297 60.8598 6.76003C60.6333 6.63618 60.3532 6.68319 60.1075 6.64679C56.2665 6.42335 52.421 6.28332 48.581 6.04825C47.9997 6.02196 47.4208 5.9431 46.839 5.95473ZM14.8326 6.52496C11.1221 6.80098 7.4009 6.87832 3.68427 7.04616C3.53312 7.32622 3.38955 7.61336 3.30361 7.92173C4.28281 8.33272 5.3697 8.43332 6.42018 8.33019C10.1646 8.00615 13.8944 7.51782 17.6363 7.17305C17.288 7.54612 16.7491 7.55876 16.2764 7.60982C12.8813 8.01424 9.49024 8.45203 6.08906 8.80084C5.89089 8.83875 5.55876 8.81601 5.51377 9.08141C5.39143 9.34731 5.46726 9.6941 5.76805 9.78004C6.81752 10.0965 7.94636 10.1556 9.02667 9.96405C10.6944 9.69158 12.3449 9.3276 13.9955 8.96716C15.3675 8.70277 16.7344 8.41209 18.114 8.18915C17.8964 8.07535 17.6905 7.9404 17.4993 7.78625C17.5554 7.57646 17.6191 7.36868 17.6904 7.16344C17.3962 6.89905 17.1272 6.56642 16.7324 6.45419C16.0985 6.42588 15.4656 6.49615 14.8326 6.52496ZM18.6539 6.8025C18.3774 6.87226 18.0998 6.95971 17.8628 7.12148C17.7495 7.27921 17.7258 7.4799 17.6742 7.6624C18.072 7.81961 18.5058 8.03143 18.9375 7.89292C19.2797 7.77867 19.6053 7.62195 19.939 7.48647C20.2038 7.36414 20.5496 7.27365 20.5749 6.92079C20.3651 6.81817 20.1568 6.70645 19.9329 6.63972C19.4976 6.56591 19.07 6.69431 18.6539 6.8025ZM44.0652 6.63517C43.7775 6.70291 43.4626 6.85709 43.4125 7.18467C43.9651 7.44704 44.5232 7.70233 45.0995 7.90808C45.5261 8.04508 45.9407 7.79939 46.3309 7.66037C46.2657 7.49254 46.2455 7.30549 46.1591 7.14726C46.0327 6.99915 45.8183 6.97235 45.6485 6.9031C45.1369 6.74284 44.6091 6.56389 44.0652 6.63517ZM46.3628 7.08963C46.3916 7.3611 46.4159 7.63358 46.4255 7.90656C49.5825 8.3671 52.7238 8.92672 55.8763 9.41758C56.8666 9.52324 57.8792 9.51666 58.8629 9.35136C59.2866 9.24823 58.9873 8.70125 58.9524 8.41411C57.5071 8.19876 56.0487 8.09007 54.5993 7.91061C52.5752 7.70132 50.5526 7.48091 48.5305 7.25342C47.8096 7.17861 47.0907 7.03251 46.3628 7.08963ZM20.1174 7.6538C19.6528 7.86056 19.1953 8.08451 18.7449 8.32059C18.7803 8.49297 18.8162 8.66485 18.8526 8.83774C19.209 8.9616 19.5922 9.10416 19.9723 8.9803C20.4596 8.79073 20.9131 8.52078 21.3448 8.22757C21.5081 8.12293 21.4707 7.83326 21.2993 7.74884C20.9485 7.54815 20.4895 7.45361 20.1174 7.6538ZM42.7331 7.73317C42.5648 7.80192 42.5476 8.00363 42.4879 8.15225C42.9662 8.43332 43.4287 8.74675 43.9373 8.97221C44.2507 9.11629 44.6182 9.03439 44.9256 8.90801C45.1354 8.83016 45.2375 8.59459 45.2259 8.38277C45.1839 8.25993 45.0408 8.22707 44.9448 8.16337C44.5126 7.94802 44.0773 7.73721 43.6279 7.5623C43.32 7.49608 43.0066 7.59617 42.7331 7.73317ZM45.3952 8.36457C45.328 8.48994 45.3174 8.63654 45.2835 8.77304C45.4154 8.76141 45.5499 8.75787 45.6798 8.79174C47.8485 9.39635 50.041 9.91097 52.2137 10.5004C53.5261 10.8664 54.8991 11.1702 56.2665 10.9979C56.6917 10.9357 56.7316 10.413 56.8064 10.0798C56.2534 9.92311 55.6857 9.82706 55.1241 9.71281C52.9053 9.29474 50.6845 8.89133 48.4632 8.48994C47.6514 8.3489 46.8309 8.20887 46.0039 8.22909C45.8022 8.24476 45.5646 8.23415 45.3952 8.36457ZM15.2335 9.04501C12.8525 9.52121 10.4871 10.0712 8.11419 10.5838C8.12077 10.8892 8.21328 11.2511 8.54996 11.3411C9.37093 11.5529 10.2354 11.5913 11.0786 11.5175C12.0108 11.3927 12.897 11.057 13.7963 10.7972C15.4964 10.3149 17.1848 9.79167 18.8743 9.27351C18.7555 8.98384 18.6893 8.67749 18.6155 8.37468C17.471 8.50359 16.3603 8.81904 15.2335 9.04501ZM21.3716 8.56375C20.8969 8.8342 20.4551 9.15926 19.9935 9.45095C20.0456 9.6026 20.033 9.81846 20.1841 9.92058C20.3904 9.96507 20.6067 9.95799 20.8176 9.96203C21.456 9.93221 21.8878 9.40393 22.3033 8.98637C22.4888 8.86201 22.3619 8.58144 22.1784 8.53645C21.913 8.50309 21.6309 8.495 21.3716 8.56375ZM41.8262 8.53948C41.6113 8.57538 41.535 8.89386 41.6983 9.03288C42.0244 9.34984 42.3615 9.66327 42.7533 9.89783C43.0935 10.0267 43.4616 9.94939 43.8099 9.91199C43.9651 9.82807 43.9398 9.6021 44.007 9.46662C43.6056 9.2093 43.2113 8.94087 42.814 8.678C42.5445 8.43332 42.1518 8.52128 41.8262 8.53948ZM44.5849 9.4651C45.882 9.97518 47.156 10.5439 48.438 11.0909C49.1442 11.3922 49.8307 11.74 50.549 12.013C51.4843 12.335 52.514 12.4214 53.4821 12.2051C53.7192 12.0488 53.8168 11.7607 53.9169 11.5069C53.5504 11.3487 53.1621 11.2531 52.7809 11.1394C50.7406 10.5328 48.6958 9.94181 46.654 9.34125C46.2349 9.23913 45.8224 9.10011 45.3927 9.0536C45.1035 9.14106 44.8588 9.33821 44.5849 9.4651ZM22.461 9.24469C22.0637 9.5015 21.7508 9.86346 21.4237 10.2001C21.5263 10.3766 21.5854 10.598 21.7553 10.7234C22.0207 10.8027 22.3564 10.8452 22.5566 10.6046C22.9145 10.2502 23.2592 9.85739 23.4609 9.39028C23.1784 9.18453 22.7901 9.09506 22.461 9.24469ZM40.5806 9.54851C40.803 9.94535 41.1023 10.3023 41.441 10.6061C41.6634 10.8336 42.0092 10.7284 42.2882 10.7825C42.3525 10.5788 42.5385 10.3831 42.498 10.1562C42.3777 9.90491 42.1245 9.74668 41.9344 9.55407C41.6993 9.35894 41.4405 9.09506 41.1008 9.17493C40.8854 9.14005 40.5336 9.28513 40.5806 9.54851ZM17.3951 9.99944C16.1677 10.4281 14.9196 10.7962 13.7023 11.2542C13.0264 11.5292 12.304 11.6793 11.6498 12.0079C11.7201 12.2212 11.7793 12.4482 11.9183 12.6277C12.1276 12.7642 12.3965 12.7419 12.6371 12.7667C13.498 12.7591 14.4252 12.8268 15.2148 12.4118C16.3674 11.8522 17.4963 11.2446 18.6524 10.692C19.0983 10.4701 19.534 10.2234 20.0072 10.0616C19.9076 9.85638 19.8727 9.53587 19.5992 9.49745C18.8283 9.43527 18.1196 9.79774 17.3951 9.99944ZM23.4524 9.73C23.2158 10.0106 23.0292 10.3295 22.8528 10.6495C22.7916 10.7709 22.7158 10.919 22.7952 11.0504C22.9054 11.3209 23.2239 11.3836 23.4781 11.4432C23.6065 10.7769 23.832 10.1395 24.1227 9.52829C23.8972 9.58542 23.6429 9.58491 23.4524 9.73ZM39.8228 9.52121C40.118 10.1304 40.4026 10.7501 40.5118 11.4245C40.8268 11.4361 41.1892 11.2264 41.2373 10.9033C41.0881 10.4873 40.8242 10.1177 40.5629 9.76387C40.3769 9.56166 40.072 9.57985 39.8228 9.52121ZM44.1612 9.6026C44.047 9.87812 43.9428 10.191 43.6375 10.3007C45.0489 11.0464 46.3077 12.0382 47.66 12.8799C48.1412 13.1782 48.7135 13.2429 49.264 13.3056C49.7139 13.3491 50.1982 13.4203 50.632 13.2505C50.7593 13.0907 50.7538 12.8693 50.7882 12.6797C49.037 11.83 47.2803 10.9913 45.516 10.1683C45.0732 9.96102 44.648 9.69208 44.1612 9.6026ZM19.4622 10.5934C17.8946 11.4402 16.2961 12.2273 14.7315 13.0801C14.7437 13.3526 14.8736 13.6296 15.1729 13.6675C15.8583 13.7216 16.5499 13.5937 17.203 13.3885C18.0351 13.0275 18.7247 12.4214 19.4683 11.9154C20.1073 11.4372 20.8049 11.0115 21.3221 10.3932C20.7099 10.1951 20.0153 10.2583 19.4622 10.5934ZM42.7872 10.3528C42.5557 10.5757 42.4829 10.9165 42.2382 11.1328C43.3918 11.8335 44.3154 12.8445 45.4518 13.5685C45.836 13.8354 46.3163 13.8824 46.7611 13.9835C47.1337 14.0967 47.4982 13.9218 47.8334 13.7757C47.7676 13.6145 47.6857 13.4547 47.5245 13.3708C46.3239 12.4821 45.1328 11.5802 43.9363 10.6865C43.6097 10.4377 43.2078 10.2603 42.7872 10.3528ZM18.9279 12.6888C18.5103 13.0417 18.0367 13.3501 17.7349 13.8167C18.3516 14.3414 19.2974 14.1685 19.9066 13.7176C20.9091 12.978 21.6719 11.9659 22.6845 11.2385C22.2204 11.1096 21.635 11.2739 21.3307 10.7992C20.5087 11.4013 19.7287 12.059 18.9279 12.6888ZM41.4754 11.1313C41.3176 11.3082 41.1635 11.4892 41.0138 11.6727C41.7372 12.2283 42.4025 12.8552 43.0632 13.4825C43.456 13.8298 43.864 14.1983 44.3842 14.3358C44.6506 14.4486 44.9347 14.3429 45.1879 14.2474C45.1586 13.8531 44.8128 13.6463 44.553 13.4077C43.7947 12.7692 43.0824 12.0782 42.3236 11.4402C42.0967 11.2178 41.7696 11.193 41.4754 11.1313ZM22.6268 11.5999C21.818 12.3102 21.1188 13.1302 20.3793 13.9092C20.4869 14.0108 20.5936 14.1321 20.7463 14.163C21.1891 14.2201 21.6441 14.1609 22.0606 14.0012C22.686 13.7257 23.0388 13.1104 23.5034 12.6433C23.4872 12.3759 23.4695 12.1095 23.4357 11.8436C23.1627 11.7733 22.8993 11.6717 22.6268 11.5999ZM40.57 11.7961C40.531 12.2313 40.4886 12.6671 40.4451 13.1024C40.9178 13.4764 41.2823 13.9911 41.8368 14.257C42.1007 14.3495 42.3833 14.4157 42.6664 14.3889C42.907 14.4708 43.0314 14.2595 43.1471 14.1073C42.6088 13.5169 42.0107 12.9836 41.4885 12.3779C41.2388 12.1095 40.9729 11.791 40.57 11.7961ZM22.9296 14.0502C23.1096 14.3925 23.5964 14.3591 23.9164 14.4182C23.7906 13.9506 23.6637 13.4815 23.4888 13.0296C23.2405 13.3197 22.8397 13.6215 22.9296 14.0502ZM40.4183 13.4254C40.2747 13.8192 40.1266 14.2115 39.9775 14.6033C40.2894 14.5689 40.6933 14.5669 40.8697 14.2545C40.9633 13.9107 40.6503 13.6322 40.4183 13.4254ZM21.5738 14.6432C22.5495 17.1107 24.6788 19.0216 27.1341 19.9644C27.4693 19.4123 27.8838 18.8861 28.0375 18.2466C27.1397 17.6511 26.1802 17.139 25.385 16.4004C24.8673 15.9844 24.4973 15.4308 24.0822 14.9217C23.8906 14.8004 23.6404 14.8171 23.4291 14.7539C23.0995 14.7018 22.8275 14.488 22.5768 14.2833C22.2452 14.4112 21.9105 14.53 21.5738 14.6432ZM41.2277 14.4501C41.072 14.5841 40.9254 14.7347 40.7408 14.8287C40.4491 14.9622 40.1104 14.9111 39.8157 15.0284C39.473 15.4116 39.2364 15.8848 38.8633 16.2437C38.3042 16.7725 37.6945 17.2512 37.0333 17.645C36.7168 17.8285 36.3736 17.9827 36.1117 18.2446C35.9995 18.3699 36.0854 18.5474 36.138 18.6839C36.3256 19.0731 36.5536 19.4406 36.7674 19.8157C37.7506 19.4467 38.6889 18.924 39.4684 18.2142C40.5548 17.277 41.4799 16.1047 41.9708 14.7458C41.7221 14.6508 41.4743 14.5507 41.2277 14.4501ZM20.7751 14.6371C20.8944 14.9642 21.0026 15.2979 21.176 15.6012C21.6421 16.4398 22.091 17.3104 22.7871 17.9867C23.4549 18.6212 24.1217 19.2733 24.9209 19.744C25.5215 20.0943 26.1306 20.4421 26.7843 20.6837C26.8753 20.5124 26.9562 20.3359 27.0198 20.1524C26.3606 19.8355 25.6868 19.5423 25.0746 19.1363C24.4321 18.7551 23.8957 18.2294 23.3442 17.7325C22.4423 16.8771 21.7826 15.7923 21.318 14.6457C21.182 14.6437 20.9106 14.6397 20.7751 14.6371ZM42.1775 14.7913C41.5942 16.3539 40.4481 17.6349 39.1661 18.6702C38.472 19.2435 37.6622 19.6479 36.8458 20.0149C36.9322 20.2055 37.0237 20.3925 37.1152 20.5811C38.4124 20.1666 39.5149 19.3006 40.5068 18.3932C41.5446 17.4281 42.3251 16.1916 42.7665 14.8459C42.5693 14.8282 42.3737 14.8095 42.1775 14.7913ZM35.8489 17.732C33.3819 18.7228 30.5368 18.694 28.0754 17.7016C27.3884 17.462 26.7873 17.0414 26.166 16.6739C26.763 17.2669 27.6325 17.4625 28.2185 18.0661C28.3651 18.2203 28.27 18.4564 28.2134 18.6333C27.9207 19.2799 27.5016 19.8617 27.2013 20.5053C27.0542 20.7813 27.0916 21.1165 27.2145 21.3955C27.2696 21.488 27.3636 21.5881 27.4824 21.5462C27.8312 21.4663 28.1436 21.2246 28.31 20.9082C28.7012 20.2207 28.7917 19.4133 29.1648 18.7172C29.2234 18.7415 29.2821 18.7658 29.3412 18.7905C29.2133 19.4179 28.9297 19.9952 28.7007 20.5882C28.5875 20.9451 28.4571 21.3869 28.7139 21.715C28.7705 21.853 28.9434 21.9551 29.0875 21.8919C29.4292 21.7504 29.7128 21.4627 29.8154 21.1038C30.01 20.4097 30.006 19.6777 30.2254 18.9882C30.2699 18.9877 30.3588 18.9872 30.4028 18.9872C30.4261 19.52 30.2441 20.0331 30.1197 20.5452C30.0464 20.8834 29.9221 21.2317 30.0126 21.5805C30.1142 21.8065 30.3063 21.9779 30.4756 22.1548C30.6601 22.0431 30.8386 21.9208 31.0009 21.7772C31.1874 21.5608 31.2602 21.2722 31.2759 20.9926C31.3158 20.3738 31.2658 19.748 31.3648 19.1333C31.4134 19.1348 31.5109 19.1373 31.5595 19.1388C31.5969 19.8643 31.3254 20.5675 31.3648 21.2914C31.3623 21.6902 31.6464 22.0117 31.9548 22.2251C32.2864 22.1685 32.5351 21.856 32.6489 21.5578C32.7505 20.7257 32.3349 19.9118 32.523 19.0842C32.5781 19.156 32.6408 19.2253 32.6767 19.3102C32.8056 20.0063 32.6908 20.7277 32.8486 21.4193C32.9391 21.7792 33.302 21.9652 33.5806 22.1649C33.6781 22.0497 33.7722 21.9314 33.8626 21.81C34.1442 21.5067 33.986 21.0568 33.9263 20.6999C33.8136 20.1246 33.5229 19.5448 33.6903 18.9493C34.1043 19.5746 33.9481 20.392 34.2029 21.0755C34.2929 21.536 34.7468 21.7448 35.1164 21.9516C35.2554 21.6988 35.4364 21.4501 35.4793 21.1594C35.3752 20.3324 34.7539 19.6368 34.8004 18.7809C35.2933 19.3557 35.2842 20.162 35.6401 20.8061C35.8241 21.2327 36.2927 21.4258 36.7138 21.5401C36.8397 21.2337 36.9706 20.8905 36.8432 20.5614C36.6097 20.0372 36.3246 19.5372 36.0369 19.0408C35.9217 18.8249 35.721 18.6379 35.6916 18.3861C35.8221 17.9615 36.2735 17.8078 36.594 17.5611C37.2911 17.0697 38.0792 16.6577 38.5843 15.948C37.7906 16.6987 36.8897 17.369 35.8489 17.732Z" fill="black"/>
<path d="M31.1096 6.02411C33.5447 5.79814 36.1209 6.46695 37.9792 8.09929C38.9705 8.96273 39.7328 10.1522 39.9072 11.4742C40.1175 13.0873 39.3537 14.6944 38.2117 15.7985C37.2997 16.7241 36.1193 17.3393 34.8929 17.7382C32.1666 18.5637 29.0384 18.2123 26.6822 16.5643C25.2495 15.5573 24.1035 13.9614 24.0565 12.1622C23.966 10.9009 24.5241 9.6735 25.3456 8.74434C26.7691 7.06397 28.9631 6.22935 31.1096 6.02411ZM30.2846 7.5695C29.1178 7.8258 27.8965 8.27774 27.1645 9.2797C27.3611 9.5274 27.6048 9.73517 27.7817 9.99855C27.8105 11.4322 27.8368 12.873 27.7655 14.3051C27.5947 14.5645 27.352 14.7692 27.1675 15.0184C28.2508 16.0932 29.7937 16.5082 31.2653 16.6912C32.4659 16.7711 33.6974 16.7195 34.8444 16.3242C35.2493 16.168 35.6259 15.942 35.9712 15.6797C36.4585 15.2404 36.8185 14.6054 36.7517 13.9295C36.7745 12.9928 36.0056 12.3189 35.2974 11.8356C35.2943 11.8073 35.2888 11.7512 35.2862 11.7234C35.7634 11.3857 36.317 11.0142 36.4671 10.4111C36.5637 9.91615 36.5303 9.36159 36.2351 8.93493C35.8024 8.25145 35.0395 7.87332 34.2878 7.64786C32.9876 7.27124 31.6035 7.32028 30.2846 7.5695Z" fill="black"/>
<path d="M31.4609 8.04076C32.1131 7.97757 32.8375 7.93712 33.4092 8.32183C33.9178 8.65295 34.0614 9.3167 34.025 9.88593C34.0427 10.5583 33.6994 11.2968 33.0245 11.5203C32.3977 11.6952 31.7122 11.7053 31.0914 11.495C30.5419 11.313 30.1541 10.7681 30.1107 10.1973C30.0278 9.61244 30.0632 8.93756 30.4979 8.48764C30.7648 8.24903 31.0975 8.06805 31.4609 8.04076ZM31.6121 12.1846C32.4735 12.0663 33.5953 12.1724 34.0644 13.0242C34.3894 13.7845 34.3864 14.742 33.9178 15.4462C33.4942 16.0614 32.6863 16.1691 31.9988 16.1494C31.5069 16.1059 30.9908 16.0013 30.5995 15.6803C30.005 15.1611 29.9762 14.281 30.0556 13.5576C30.1804 12.8099 30.8811 12.2685 31.6121 12.1846Z" fill="black"/>
<path d="M26.7286 3.43876C28.4504 2.75833 30.3027 2.42721 32.1519 2.41406C33.0244 2.44995 33.8965 2.54398 34.7488 2.73962C35.5733 2.93172 36.4079 3.13595 37.1753 3.50297C36.8998 3.67737 36.5712 3.94227 36.2305 3.79668C34.7609 3.29267 33.2115 3.003 31.655 3.02474C30.787 3.0763 29.9155 3.14809 29.0692 3.35737C28.5237 3.46252 28.002 3.66625 27.4535 3.75472C27.1983 3.68597 26.9622 3.5606 26.7286 3.43876ZM0.948315 3.20218C1.6424 3.10208 2.33952 3.22594 3.03361 3.27245C4.47891 3.39933 5.93179 3.48173 7.38315 3.42056C9.17777 3.40034 10.9689 3.186 12.765 3.28407C14.5965 3.34271 16.4204 3.54543 18.252 3.59952C19.6518 3.5515 21.0495 3.4423 22.4493 3.37658C23.8714 3.33109 25.3485 3.34676 26.6922 3.87503C26.9485 3.98069 27.2695 4.12375 27.3327 4.42555C27.2766 4.84868 26.9561 5.17575 26.6963 5.48968C26.2287 6.06598 25.5523 6.45018 25.1772 7.10484C24.8829 7.47589 24.8405 8.03602 25.1635 8.40606C24.9876 8.63911 24.792 8.85497 24.5796 9.05465C24.3582 8.84991 24.1514 8.59816 24.1787 8.27361C24.2809 7.35204 25.1028 6.69384 25.2009 5.76924C25.2833 5.4457 25.117 5.13126 24.9107 4.89569C24.5341 4.67781 24.0913 4.60855 23.6641 4.56558C22.1642 4.43667 20.6613 4.63838 19.1604 4.54637C17.6747 4.55699 16.2081 4.29967 14.7406 4.10252C12.8666 3.92306 10.9835 3.85127 9.10194 3.81993C8.58024 3.81083 8.06005 3.85936 7.54138 3.90486C7.70972 4.04236 7.91648 4.13639 8.14144 4.11313C10.0948 4.14043 12.0512 4.17127 13.9985 4.3386C14.8179 4.41544 15.6288 4.56356 16.4417 4.68893C16.422 4.76375 16.4017 4.83856 16.3815 4.91338C14.9509 4.8239 13.5167 4.83755 12.0845 4.7774C9.51243 4.68539 6.93981 4.60451 4.36618 4.56204C3.26817 4.49177 2.12215 4.60855 1.07318 4.20615C0.783514 4.10555 0.507497 3.97209 0.230469 3.84318C0.430657 3.59447 0.6359 3.31238 0.948315 3.20218ZM57.1203 3.43472C58.9645 3.51055 60.8001 3.27093 62.6381 3.16477C63.1325 3.08186 63.5355 3.46707 63.7837 3.84976C62.8889 4.32343 61.8768 4.52564 60.8688 4.52109C56.4697 4.59288 52.0737 4.77436 47.6761 4.88608C47.6786 4.95837 47.6827 5.03066 47.6867 5.10245C47.6407 4.96545 47.6008 4.82845 47.5598 4.69045C48.5229 4.55749 49.4798 4.37348 50.4519 4.31282C52.2354 4.17885 54.024 4.12982 55.8125 4.11313C56.0461 4.12527 56.2751 4.05247 56.4657 3.91952C55.0436 3.76837 53.614 3.84976 52.1889 3.88615C51.1991 3.95794 50.2047 3.97361 49.2195 4.09949C47.8975 4.25974 46.5821 4.50896 45.2475 4.52666C44.4144 4.5398 43.5813 4.60956 42.7492 4.55294C41.7104 4.53272 40.6518 4.4397 39.6296 4.67073C39.3395 4.76577 38.9922 4.86586 38.8769 5.18384C38.6297 5.68431 38.9012 6.24645 39.1292 6.70143C39.4062 7.28127 39.8743 7.83381 39.7889 8.52031C39.7489 8.76347 39.5427 8.92372 39.3577 9.06173C39.1701 8.84688 38.9866 8.629 38.8284 8.39191C38.9356 8.17857 39.111 7.97788 39.0634 7.72006C38.975 7.18673 38.5888 6.76563 38.2268 6.39154C37.7036 5.88601 37.1227 5.41284 36.7674 4.76526C36.6647 4.58125 36.5909 4.30978 36.7906 4.16015C37.3775 3.7441 38.1019 3.60407 38.797 3.4878C40.7024 3.2224 42.6269 3.44786 44.5378 3.52925C45.4801 3.62227 46.429 3.61014 47.3723 3.53026C49.6087 3.38467 51.8512 3.16072 54.0937 3.31036C55.1018 3.36597 56.1108 3.41096 57.1203 3.43472Z" fill="white"/>
<path d="M27.7183 4.12136C30.4891 3.2837 33.5597 3.17299 36.2784 4.25886C36.287 4.53488 36.2006 4.8392 36.3416 5.09399C36.8269 5.97613 37.7004 6.53625 38.3364 7.29606C38.5381 7.49726 38.6609 7.7571 38.756 8.02199C37.7631 7.15502 36.6328 6.42756 35.3771 6.00848C32.6341 5.04192 29.4786 5.30075 26.9545 6.75464C26.3352 7.10295 25.7943 7.56803 25.2534 8.02351C25.2923 7.88803 25.3323 7.75053 25.4121 7.63274C26.0071 6.79154 26.8963 6.2112 27.4969 5.37607C27.7886 5.0217 27.7643 4.54853 27.7183 4.12136ZM44.3365 4.90391C45.3496 4.79472 46.3712 4.8023 47.3838 4.6835C47.4268 4.79876 47.4652 4.91604 47.5011 5.03383C46.667 5.51661 45.667 5.39326 44.7505 5.27497C44.5407 5.25677 44.4199 5.07629 44.3365 4.90391ZM16.5862 4.72546C17.6129 4.74113 18.6406 4.79219 19.6623 4.89582C19.5829 5.03282 19.5187 5.22644 19.3362 5.24868C18.7953 5.34119 18.2448 5.35737 17.6978 5.37759C17.2772 5.40489 16.8925 5.21178 16.5245 5.03434C16.5437 4.93121 16.5644 4.82808 16.5862 4.72546ZM1.86625 4.8756C3.9207 4.87358 5.97314 4.97873 8.0276 4.99945C10.5942 5.05658 13.1622 5.07478 15.7293 5.141C16.2631 5.1041 16.7019 5.45089 17.1432 5.69405L17.0927 6.19957C17.0143 6.239 16.9355 6.27793 16.8566 6.31584C16.8788 6.25063 16.9021 6.18592 16.9249 6.12071C14.5287 6.18491 12.136 6.34567 9.73981 6.41847C8.23031 6.45082 6.72384 6.58023 5.21283 6.55192C4.26193 6.56355 3.30143 6.50491 2.38239 6.24355C2.07503 6.15104 1.72318 6.10453 1.48053 5.87654C1.47649 5.51661 1.67415 5.17386 1.86625 4.8756ZM19.8038 4.87055C20.2148 4.88066 20.6263 4.88622 21.0373 4.90947C22.1313 4.95446 23.254 4.8665 24.3167 5.18903C24.5805 5.28103 24.8722 5.40185 25.0082 5.6627C25.1118 6.12172 24.85 6.52968 24.624 6.90124C24.4031 7.30465 24.0998 7.68329 23.9977 8.13928C23.8703 8.56291 24.1316 8.92132 24.3273 9.2666C24.031 9.27671 23.66 9.40309 23.4279 9.16094C23.3177 8.94155 23.4466 8.68373 23.4916 8.45927C23.3506 8.58768 23.206 8.71355 23.0635 8.83943C22.8885 8.8278 22.7182 8.81921 22.5443 8.80657C22.5048 8.26566 22.9204 7.8759 23.1337 7.4184C22.7647 7.74598 22.3921 8.21157 21.8446 8.1686C21.6293 8.17618 21.4645 7.89056 21.5974 7.71767C21.8937 7.34004 22.2764 7.03925 22.5544 6.64595C22.2243 6.90023 21.8891 7.16412 21.4968 7.31476C21.2026 7.40879 20.8998 7.33043 20.6278 7.21265C20.6759 6.6682 21.2516 6.47711 21.5625 6.10201C21.2218 6.24254 20.919 6.51199 20.5293 6.48722C20.3736 6.49328 20.2229 6.44627 20.0733 6.41038C20.0505 5.94782 20.5313 5.78605 20.8022 5.51307C20.5631 5.56615 20.3306 5.67686 20.0824 5.67332C19.9166 5.61367 19.7897 5.4792 19.6451 5.38315C19.6855 5.20874 19.7381 5.03737 19.8038 4.87055ZM39.6887 5.18296C41.1668 4.79775 42.7107 4.98884 44.2192 4.87156C44.2662 5.07983 44.4507 5.34574 44.2051 5.50397C43.9371 5.83812 43.4897 5.5616 43.1667 5.49841C43.465 5.7542 43.926 5.94327 43.924 6.41189C43.6662 6.4584 43.3881 6.54737 43.1364 6.43869C42.9008 6.34264 42.6758 6.22333 42.4463 6.11414C42.734 6.40279 43.0757 6.63938 43.3275 6.96292C43.3699 7.1444 43.24 7.33701 43.0454 7.33246C42.4241 7.49018 41.9383 6.99527 41.4894 6.65657C41.7244 6.97859 42.0085 7.25966 42.2805 7.55034C42.417 7.69391 42.4023 7.90825 42.4519 8.08973C42.2269 8.12057 41.9868 8.20904 41.7689 8.11147C41.4257 7.97195 41.1679 7.69745 40.8893 7.4649C41.132 7.88803 41.504 8.27728 41.4651 8.80202C41.3261 8.80708 41.0475 8.8182 40.9085 8.82376C40.7857 8.70749 40.6643 8.59071 40.5445 8.47292C40.5658 8.68929 40.7043 8.94003 40.5632 9.13971C40.3423 9.38439 39.9627 9.28025 39.6786 9.31361C39.8019 8.99766 40.0511 8.72265 40.0436 8.36626C39.9475 7.43356 39.0886 6.79913 38.9602 5.88109C38.9334 5.48274 39.3722 5.29771 39.6887 5.18296ZM48.183 5.14302C52.8516 5.12482 57.5186 4.93576 62.1871 4.93222C62.3585 5.22997 62.5385 5.5247 62.6638 5.8457C61.5168 6.21727 60.2929 6.20109 59.1024 6.15559C56.8922 6.14801 54.6861 6.00798 52.4785 5.93417C50.6136 5.84773 48.7487 5.7724 46.8853 5.66523C47.2675 5.39528 47.6977 5.12786 48.183 5.14302Z" fill="white"/>
<path d="M19.2352 5.50904C19.4854 5.46354 19.6669 5.68244 19.8408 5.82146C19.9308 5.89931 19.9874 6.01255 19.9758 6.13337C19.7685 6.29362 19.4915 6.31434 19.2468 6.37855C18.7509 6.46853 18.262 6.61817 17.7565 6.63586C17.5761 6.56761 17.3784 6.48926 17.2606 6.32749C17.2181 6.10455 17.2864 5.79365 17.5397 5.73451C18.0988 5.62329 18.671 5.59195 19.2352 5.50904ZM44.5656 5.5237C45.1914 5.52421 45.8188 5.60256 46.433 5.71934C46.7211 5.77545 46.7146 6.11871 46.7889 6.34417C46.5482 6.47864 46.3172 6.68995 46.0164 6.62979C45.5817 6.56256 45.155 6.45185 44.7233 6.37197C44.4897 6.31485 44.2243 6.29615 44.0343 6.13286C44.0479 5.8437 44.3431 5.66121 44.5656 5.5237ZM31.3198 5.91599C33.8919 5.73097 36.6015 6.55245 38.4578 8.3865C39.4138 9.35812 40.1099 10.6674 40.0902 12.0586C40.1159 13.3134 39.5594 14.5281 38.7369 15.4543C37.2299 17.168 34.9646 18.0774 32.7221 18.2453C30.7127 18.4237 28.6547 17.9283 26.9374 16.8743C26.0168 16.2879 25.1746 15.5392 24.6231 14.5873C23.9442 13.5186 23.7581 12.1754 24.019 10.9455C24.2813 9.83887 24.9663 8.88242 25.7984 8.12767C27.3064 6.76881 29.3139 6.06006 31.3198 5.91599ZM31.1176 6.02266C28.9711 6.2279 26.7771 7.06252 25.3536 8.74289C24.5321 9.67205 23.974 10.8995 24.0645 12.1608C24.1115 13.9599 25.2575 15.5559 26.6902 16.5629C29.0464 18.2109 32.1746 18.5622 34.9009 17.7367C36.1273 17.3378 37.3077 16.7226 38.2197 15.797C39.3617 14.6929 40.1255 13.0859 39.9152 11.4727C39.7408 10.1508 38.9785 8.96128 37.9872 8.09784C36.1289 6.4655 33.5527 5.79669 31.1176 6.02266ZM46.844 5.9534C47.4258 5.94177 48.0047 6.02063 48.586 6.04692C52.426 6.28199 56.2715 6.42202 60.1125 6.64546C60.3582 6.68186 60.6383 6.63485 60.8647 6.7587C61.0179 6.98164 61.0584 7.2521 61.0973 7.51295C60.293 8.00786 59.291 7.88602 58.3922 7.91029C56.8782 7.81121 55.3737 7.59636 53.8597 7.49222C51.5363 7.26069 49.2023 7.12217 46.888 6.8042C46.9031 6.51959 46.8905 6.23498 46.844 5.9534ZM14.8376 6.52363C15.4705 6.49482 16.1035 6.42455 16.7374 6.45286C17.1322 6.56509 17.4011 6.89772 17.6954 7.16211C17.6241 7.36735 17.5604 7.57513 17.5043 7.78492C17.6959 7.9391 17.9011 8.07408 18.119 8.18782C16.7394 8.41076 15.3725 8.70144 14.0005 8.96583C12.3499 9.32627 10.6994 9.69025 9.03165 9.96272C7.95134 10.1543 6.8225 10.0952 5.77303 9.77871C5.47224 9.69277 5.39642 9.34598 5.51875 9.08008C5.56375 8.81468 5.89588 8.83742 6.09404 8.79951C9.49522 8.4507 12.8863 8.01291 16.2814 7.60849C16.7541 7.55743 17.293 7.54479 17.6413 7.17172C13.8994 7.51649 10.1696 8.00482 6.42516 8.32887C5.37468 8.43199 4.2878 8.33139 3.30859 7.9204C3.39453 7.61203 3.5381 7.32489 3.68925 7.04483C7.40588 6.87699 11.1271 6.79965 14.8376 6.52363Z" fill="white"/>
<path d="M18.6569 6.80178C19.0729 6.6936 19.5006 6.56519 19.9359 6.639C20.1598 6.70573 20.3681 6.81745 20.5779 6.92007C20.5526 7.27293 20.2068 7.36342 19.9419 7.48576C19.6083 7.62124 19.2827 7.77795 18.9405 7.8922C18.5088 8.03071 18.075 7.8189 17.6772 7.66168C17.7288 7.47919 17.7525 7.27849 17.8657 7.12077C18.1028 6.959 18.3804 6.87154 18.6569 6.80178ZM44.0682 6.63445C44.6121 6.56317 45.1399 6.74213 45.6515 6.90238C45.8213 6.97164 46.0357 6.99843 46.1621 7.14655C46.2485 7.30478 46.2687 7.49182 46.3339 7.65966C45.9437 7.79868 45.5291 8.04436 45.1025 7.90737C44.5262 7.70162 43.9681 7.44633 43.4155 7.18396C43.4656 6.85638 43.7805 6.70219 44.0682 6.63445ZM46.3658 7.08892C47.0937 7.0318 47.8126 7.17789 48.5335 7.25271C50.5556 7.4802 52.5782 7.70061 54.6023 7.90989C56.0517 8.08936 57.5101 8.19804 58.9554 8.4134C58.9903 8.70054 59.2895 9.24751 58.8659 9.35064C57.8822 9.51595 56.8696 9.52252 55.8793 9.41687C52.7268 8.926 49.5855 8.36638 46.4285 7.90585C46.4189 7.63287 46.3946 7.36039 46.3658 7.08892ZM30.2906 7.56866C31.6095 7.31944 32.9936 7.2704 34.2938 7.64702C35.0455 7.87248 35.8084 8.25062 36.2411 8.93409C36.5363 9.36075 36.5697 9.91531 36.4731 10.4102C36.323 11.0133 35.7695 11.3849 35.2922 11.7226C35.2948 11.7504 35.3003 11.8065 35.3034 11.8348C36.0116 12.3181 36.7805 12.9919 36.7578 13.9287C36.8245 14.6046 36.4645 15.2395 35.9772 15.6788C35.6319 15.9412 35.2553 16.1672 34.8504 16.3234C33.7034 16.7187 32.4719 16.7702 31.2713 16.6904C29.7997 16.5074 28.2568 16.0923 27.1735 15.0176C27.358 14.7684 27.6007 14.5636 27.7715 14.3043C27.8428 12.8721 27.8165 11.4314 27.7877 9.99772C27.6108 9.73434 27.3671 9.52657 27.1705 9.27886C27.9025 8.27691 29.1238 7.82497 30.2906 7.56866ZM31.4669 8.04083C31.1034 8.06812 30.7708 8.2491 30.5039 8.48771C30.0691 8.93763 30.0338 9.6125 30.1167 10.1974C30.1601 10.7681 30.5479 11.3131 31.0974 11.4951C31.7182 11.7054 32.4037 11.6953 33.0305 11.5204C33.7054 11.2969 34.0486 10.5583 34.0309 9.88599C34.0673 9.31677 33.9238 8.65302 33.4152 8.3219C32.8435 7.93719 32.119 7.97763 31.4669 8.04083ZM31.6181 12.1846C30.8871 12.2685 30.1864 12.81 30.0616 13.5576C29.9822 14.281 30.011 15.1612 30.6055 15.6803C30.9968 16.0013 31.5129 16.106 32.0048 16.1495C32.6923 16.1692 33.5001 16.0615 33.9238 15.4463C34.3924 14.7421 34.3954 13.7846 34.0704 13.0243C33.6013 12.1725 32.4795 12.0663 31.6181 12.1846ZM20.1204 7.65309C20.4925 7.4529 20.9515 7.54743 21.3023 7.74813C21.4737 7.83255 21.5111 8.12221 21.3478 8.22686C20.9161 8.52006 20.4626 8.79001 19.9753 8.97959C19.5952 9.10344 19.212 8.96088 18.8556 8.83703C18.8192 8.66414 18.7833 8.49226 18.7479 8.31988C19.1983 8.08379 19.6558 7.85985 20.1204 7.65309ZM42.7361 7.73245C43.0096 7.59546 43.323 7.49536 43.6309 7.56159C44.0803 7.7365 44.5156 7.9473 44.9478 8.16266C45.0438 8.22635 45.1869 8.25921 45.2289 8.38205C45.2405 8.59387 45.1384 8.82944 44.9286 8.9073C44.6212 9.03368 44.2537 9.11557 43.9403 8.9715C43.4317 8.74603 42.9691 8.43261 42.4909 8.15153C42.5506 8.00291 42.5678 7.80121 42.7361 7.73245ZM45.3982 8.36386C45.5676 8.23343 45.8051 8.24405 46.0069 8.22838C46.8339 8.20815 47.6544 8.34818 48.4662 8.48923C50.6875 8.89061 52.9083 9.29402 55.127 9.71209C55.6887 9.82634 56.2564 9.92239 56.8094 10.0791C56.7346 10.4122 56.6947 10.935 56.2695 10.9971C54.9021 11.1695 53.5291 10.8657 52.2167 10.4997C50.044 9.91026 47.8515 9.39563 45.6828 8.79103C45.5529 8.75716 45.4184 8.76069 45.2865 8.77232C45.3204 8.63583 45.331 8.48923 45.3982 8.36386ZM15.2365 9.04429C16.3633 8.81832 17.474 8.50288 18.6185 8.37397C18.6923 8.67678 18.7585 8.98313 18.8773 9.27279C17.1878 9.79096 15.4994 10.3142 13.7993 10.7964C12.9 11.0563 12.0138 11.392 11.0816 11.5168C10.2384 11.5906 9.37393 11.5522 8.55295 11.3404C8.21627 11.2504 8.12376 10.8885 8.11719 10.5831C10.4901 10.0705 12.8555 9.5205 15.2365 9.04429ZM21.3746 8.56303C21.6339 8.49428 21.916 8.50237 22.1814 8.53573C22.3649 8.58073 22.4918 8.86129 22.3063 8.98565C21.8907 9.40322 21.459 9.93149 20.8205 9.96132C20.6097 9.95727 20.3934 9.96435 20.1871 9.91986C20.036 9.81775 20.0486 9.60189 19.9965 9.45023C20.4581 9.15854 20.8999 8.83349 21.3746 8.56303ZM41.8292 8.53877C42.1547 8.52057 42.5475 8.43261 42.817 8.67728C43.2143 8.94016 43.6086 9.20859 44.01 9.4659C43.9428 9.60138 43.9681 9.82735 43.8129 9.91127C43.4646 9.94868 43.0965 10.026 42.7563 9.89712C42.3645 9.66255 42.0274 9.34913 41.7013 9.03216C41.538 8.89314 41.6143 8.57466 41.8292 8.53877ZM44.5878 9.46439C44.8618 9.3375 45.1065 9.14034 45.3957 9.05289C45.8254 9.0994 46.2379 9.23842 46.657 9.34053C48.6988 9.9411 50.7436 10.5321 52.7839 11.1387C53.1651 11.2524 53.5533 11.348 53.9199 11.5062C53.8198 11.76 53.7222 12.0481 53.4851 12.2043C52.517 12.4207 51.4873 12.3343 50.552 12.0122C49.8337 11.7393 49.1472 11.3915 48.441 11.0902C47.1589 10.5432 45.885 9.97446 44.5878 9.46439ZM22.464 9.24398C22.7931 9.09434 23.1814 9.18382 23.4639 9.38957C23.2622 9.85667 22.9175 10.2495 22.5596 10.6038C22.3594 10.8445 22.0237 10.802 21.7583 10.7226C21.5884 10.5973 21.5293 10.3758 21.4267 10.1994C21.7537 9.86274 22.0667 9.50078 22.464 9.24398ZM40.5836 9.5478C40.5366 9.28442 40.8884 9.13933 41.1038 9.17421C41.4435 9.09434 41.7023 9.35822 41.9374 9.55336C42.1274 9.74596 42.3807 9.90419 42.501 10.1554C42.5415 10.3824 42.3554 10.5781 42.2912 10.7818C42.0122 10.7277 41.6664 10.8328 41.444 10.6054C41.1053 10.3015 40.806 9.94464 40.5836 9.5478ZM17.3981 9.99873C18.1226 9.79702 18.8313 9.43456 19.6022 9.49674C19.8757 9.53516 19.9106 9.85566 20.0102 10.0609C19.537 10.2227 19.1013 10.4694 18.6554 10.6913C17.4992 11.2438 16.3704 11.8515 15.2178 12.4111C14.4282 12.8261 13.501 12.7584 12.6401 12.766C12.3995 12.7412 12.1306 12.7634 11.9213 12.627C11.7822 12.4475 11.7231 12.2205 11.6528 12.0072C12.307 11.6786 13.0294 11.5284 13.7053 11.2534C14.9226 10.7954 16.1707 10.4274 17.3981 9.99873ZM23.4553 9.72928C23.6459 9.5842 23.9002 9.5847 24.1257 9.52758C23.835 10.1388 23.6095 10.7762 23.4811 11.4425C23.2268 11.3829 22.9084 11.3202 22.7982 11.0497C22.7188 10.9183 22.7946 10.7702 22.8558 10.6488C23.0322 10.3288 23.2188 10.0098 23.4553 9.72928ZM39.8258 9.5205C40.075 9.57914 40.3798 9.56094 40.5659 9.76315C40.8272 10.117 41.0911 10.4866 41.2402 10.9026C41.1922 11.2256 40.8298 11.4354 40.5148 11.4238C40.4056 10.7494 40.121 10.1297 39.8258 9.5205ZM44.1642 9.60189C44.651 9.69137 45.0762 9.96031 45.519 10.1676C47.2833 10.9906 49.04 11.8292 50.7911 12.679C50.7568 12.8686 50.7623 13.09 50.6349 13.2498C50.2012 13.4196 49.7169 13.3483 49.267 13.3049C48.7165 13.2422 48.1442 13.1775 47.663 12.8792C46.3107 12.0375 45.0519 11.0457 43.6405 10.3C43.9458 10.1903 44.05 9.8774 44.1642 9.60189ZM19.4652 10.5927C20.0183 10.2576 20.7129 10.1944 21.3251 10.3925C20.8079 11.0108 20.1103 11.4364 19.4713 11.9147C18.7277 12.4207 18.0381 13.0268 17.206 13.3878C16.5529 13.593 15.8613 13.7209 15.1758 13.6668C14.8766 13.6289 14.7467 13.3519 14.7345 13.0794C16.2991 12.2266 17.8976 11.4395 19.4652 10.5927ZM42.7902 10.3521C43.2108 10.2596 43.6127 10.437 43.9393 10.6857C45.1358 11.5795 46.3269 12.4814 47.5275 13.3701C47.6887 13.454 47.7706 13.6137 47.8364 13.775C47.5012 13.9211 47.1367 14.096 46.7641 13.9828C46.3193 13.8817 45.839 13.8347 45.4548 13.5677C44.3184 12.8438 43.3948 11.8328 42.2412 11.1321C42.4859 10.9158 42.5587 10.575 42.7902 10.3521ZM18.9309 12.6881C19.7316 12.0582 20.5117 11.4005 21.3337 10.7985C21.638 11.2732 22.2234 11.1089 22.6875 11.2378C21.6749 11.9652 20.912 12.9773 19.9096 13.7169C19.3004 14.1678 18.3546 14.3407 17.7379 13.816C18.0396 13.3494 18.5133 13.041 18.9309 12.6881ZM41.4784 11.1306C41.7726 11.1923 42.0996 11.217 42.3266 11.4395C43.0854 12.0774 43.7977 12.7685 44.556 13.407C44.8158 13.6456 45.1616 13.8524 45.1909 14.2467C44.9377 14.3422 44.6536 14.4479 44.3871 14.3351C43.867 14.1976 43.459 13.8291 43.0662 13.4818C42.4055 12.8544 41.7402 12.2276 41.0168 11.672C41.1664 11.4885 41.3206 11.3075 41.4784 11.1306ZM22.6298 11.5992C22.9023 11.671 23.1657 11.7726 23.4387 11.8429C23.4725 12.1088 23.4902 12.3752 23.5064 12.6426C23.0418 13.1097 22.689 13.725 22.0636 14.0005C21.6471 14.1602 21.1921 14.2194 20.7493 14.1622C20.5966 14.1314 20.4899 14.0101 20.3823 13.9085C21.1218 13.1294 21.821 12.3095 22.6298 11.5992ZM40.573 11.7954C40.9759 11.7903 41.2418 12.1088 41.4915 12.3772C42.0137 12.9828 42.6117 13.5162 43.1501 14.1066C43.0344 14.2588 42.91 14.4701 42.6694 14.3882C42.3863 14.415 42.1037 14.3488 41.8398 14.2563C41.2852 13.9904 40.9208 13.4757 40.4481 13.1016C40.4916 12.6664 40.534 12.2306 40.573 11.7954ZM22.9326 14.0495C22.8427 13.6208 23.2435 13.319 23.4917 13.0288C23.6667 13.4808 23.7935 13.9499 23.9194 14.4175C23.5994 14.3584 23.1126 14.3917 22.9326 14.0495ZM40.4213 13.4247C40.6533 13.6314 40.9663 13.91 40.8727 14.2537C40.6963 14.5662 40.2924 14.5682 39.9805 14.6026C40.1296 14.2108 40.2777 13.8185 40.4213 13.4247ZM21.5768 14.6425C21.9135 14.5293 22.2482 14.4105 22.5798 14.2826C22.8305 14.4873 23.1025 14.7011 23.4321 14.7532C23.6434 14.8164 23.8936 14.7997 24.0852 14.921C24.5003 15.4301 24.8703 15.9836 25.388 16.3997C26.1832 17.1383 27.1427 17.6504 28.0405 18.2459C27.8868 18.8854 27.4723 19.4116 27.1371 19.9637C24.6818 19.0208 22.5525 17.11 21.5768 14.6425ZM41.2306 14.4494C41.4773 14.55 41.7251 14.6501 41.9738 14.7451C41.4829 16.104 40.5578 17.2763 39.4714 18.2135C38.6919 18.9233 37.7536 19.446 36.7704 19.815C36.5566 19.4399 36.3286 19.0724 36.141 18.6832C36.0884 18.5467 36.0025 18.3692 36.1147 18.2439C36.3766 17.982 36.7198 17.8278 37.0363 17.6443C37.6975 17.2505 38.3072 16.7718 38.8663 16.243C39.2394 15.8841 39.476 15.4109 39.8187 15.0277C40.1134 14.9104 40.4521 14.9615 40.7438 14.828C40.9283 14.734 41.0749 14.5833 41.2306 14.4494Z" fill="white"/>
<path d="M20.7773 14.6357C20.9128 14.6383 21.1843 14.6423 21.3203 14.6443C21.7849 15.7909 22.4446 16.8757 23.3464 17.7311C23.898 18.228 24.4343 18.7538 25.0768 19.1349C25.689 19.5409 26.3629 19.8341 27.0221 20.151C26.9584 20.3345 26.8775 20.511 26.7865 20.6823C26.1329 20.4407 25.5237 20.0929 24.9232 19.7426C24.1239 19.2719 23.4571 18.6198 22.7893 17.9854C22.0932 17.309 21.6443 16.4384 21.1782 15.5998C21.0048 15.2965 20.8966 14.9628 20.7773 14.6357ZM42.1798 14.7899C42.3759 14.8081 42.5716 14.8268 42.7687 14.8445C42.3274 16.1902 41.5469 17.4268 40.509 18.3918C39.5172 19.2992 38.4146 20.1652 37.1175 20.5797C37.026 20.3912 36.9345 20.2041 36.848 20.0135C37.6644 19.6465 38.4743 19.2421 39.1684 18.6688C40.4504 17.6335 41.5964 16.3525 42.1798 14.7899Z" fill="white"/>
<path d="M35.8508 17.7322C36.8917 17.3693 37.7925 16.6989 38.5862 15.9482C38.0812 16.658 37.2931 17.07 36.596 17.5614C36.2755 17.8081 35.824 17.9618 35.6936 18.3864C35.7229 18.6381 35.9236 18.8252 36.0389 19.041C36.3265 19.5375 36.6116 20.0374 36.8452 20.5617C36.9726 20.8908 36.8416 21.234 36.7158 21.5404C36.2947 21.4261 35.826 21.233 35.642 20.8063C35.2861 20.1623 35.2952 19.356 34.8024 18.7812C34.7558 19.6371 35.3771 20.3327 35.4813 21.1597C35.4383 21.4504 35.2573 21.6991 35.1183 21.9519C34.7488 21.7451 34.2948 21.5363 34.2048 21.0758C33.95 20.3923 34.1062 19.5749 33.6922 18.9495C33.5249 19.5451 33.8156 20.1249 33.9283 20.7002C33.9879 21.0571 34.1462 21.507 33.8646 21.8103C33.7741 21.9316 33.6801 22.0499 33.5825 22.1652C33.304 21.9655 32.941 21.7795 32.8505 21.4195C32.6928 20.728 32.8075 20.0066 32.6786 19.3105C32.6427 19.2256 32.5801 19.1563 32.525 19.0845C32.3369 19.9121 32.7524 20.726 32.6508 21.5581C32.5371 21.8563 32.2884 22.1687 31.9567 22.2254C31.6484 22.012 31.3643 21.6905 31.3668 21.2917C31.3274 20.5677 31.5988 19.8646 31.5614 19.1391C31.5129 19.1376 31.4153 19.1351 31.3668 19.1336C31.2677 19.7483 31.3178 20.3741 31.2778 20.9929C31.2622 21.2724 31.1894 21.5611 31.0028 21.7775C30.8405 21.921 30.6621 22.0434 30.4776 22.1551C30.3082 21.9782 30.1161 21.8068 30.0145 21.5808C29.924 21.232 30.0484 20.8837 30.1217 20.5455C30.246 20.0334 30.428 19.5203 30.4048 18.9875C30.3608 18.9875 30.2718 18.988 30.2273 18.9885C30.0079 19.678 30.012 20.41 29.8174 21.1041C29.7147 21.463 29.4311 21.7507 29.0894 21.8922C28.9453 21.9554 28.7724 21.8533 28.7158 21.7153C28.459 21.3872 28.5894 20.9454 28.7027 20.5885C28.9317 19.9955 29.2153 19.4182 29.3432 18.7908C29.284 18.766 29.2254 18.7418 29.1667 18.7175C28.7937 19.4136 28.7032 20.2209 28.3119 20.9085C28.1456 21.2249 27.8332 21.4666 27.4844 21.5464C27.3656 21.5884 27.2715 21.4883 27.2164 21.3958C27.0936 21.1167 27.0562 20.7816 27.2033 20.5056C27.5036 19.862 27.9226 19.2802 28.2153 18.6336C28.272 18.4567 28.367 18.2206 28.2204 18.0664C27.6345 17.4628 26.765 17.2672 26.168 16.6742C26.7893 17.0417 27.3903 17.4623 28.0773 17.7019C30.5387 18.6943 33.3838 18.7231 35.8508 17.7322Z" fill="white"/>
</svg>
