<svg width="64" height="64" viewBox="0 0 64 64" fill="none" xmlns="http://www.w3.org/2000/svg">
<g clip-path="url(#clip0_11262_10280)">
<path d="M50.9611 32.0001C50.9611 42.4799 42.4779 50.963 31.9981 50.963V32.0001H50.9611ZM31.9981 13.0371V32.0001H13.0352C13.0352 21.5202 21.5183 13.0371 31.9981 13.0371Z" fill="#0166B1"/>
<path d="M31.9981 13.0371C42.478 13.0371 50.9611 21.5202 50.9611 32.0001H31.9981V13.0371ZM13.0352 32.0001H31.9981V50.963C21.5183 50.963 13.0352 42.4799 13.0352 32.0001Z" fill="white"/>
<path d="M32 13.037V14.0767C41.882 14.0767 49.9233 22.1162 49.9233 32H50.963C50.963 21.5277 42.4723 13.037 32 13.037ZM32 49.9233C22.1181 49.9233 14.0767 41.8838 14.0767 32H13.037C13.037 42.4723 21.5277 50.963 32 50.963M32 0C14.3274 0 0 14.3274 0 32C0 49.6726 14.3274 64 32 64C49.6726 64 64 49.6726 64 32C64 14.3274 49.6726 0 32 0ZM61.9191 32C61.9191 48.523 48.5249 61.9191 32 61.9191C15.4751 61.9191 2.0809 48.523 2.0809 32C2.0809 15.477 15.477 2.0809 32 2.0809C48.523 2.0809 61.9191 15.477 61.9191 32Z" fill="#6F6F6F"/>
<path d="M18.3265 16.5631C19.3491 15.4934 19.928 14.2576 18.9055 13.0778C18.3491 12.4375 17.4148 12.2975 16.6404 12.613L16.5633 12.6429L16.5878 12.5757C16.7024 12.2714 16.7757 11.3007 15.943 10.6305C15.537 10.3038 15.0276 10.1825 14.5125 10.2347C13.552 10.3318 12.8133 10.9833 10.802 13.2104C10.1948 13.8824 9.31133 14.9427 8.78125 15.6297L14.3058 20.8343C16.1366 18.8219 16.8829 18.0733 18.3265 16.5631ZM11.1178 15.29C12.2306 13.9384 13.4129 12.7119 13.9486 12.2266C14.1178 12.0735 14.302 11.9204 14.5257 11.8607C14.8885 11.7618 15.2626 12.0175 15.3471 12.3871C15.4317 12.7586 15.1968 13.1114 14.9355 13.4027C14.3471 14.0616 12.1892 16.3036 12.1892 16.3036L11.1178 15.29ZM13.2813 17.3285C13.2813 17.3285 15.3829 15.122 16.069 14.4163C16.3415 14.1363 16.5163 13.9664 16.7043 13.875C16.9468 13.7573 17.2118 13.7331 17.4487 13.8899C17.6818 14.0448 17.7889 14.3118 17.7306 14.5769C17.6611 14.8923 17.4017 15.1929 17.1874 15.4225C16.8979 15.7305 14.4054 18.3795 14.4016 18.3832L13.2813 17.3285ZM32.6331 10.3561L34.402 6.42092L34.5147 6.07183L34.4828 6.43585L34.6689 11.6946C35.2892 11.7524 35.9302 11.8383 36.5618 11.9428L36.2742 4.15465C35.3907 4.05758 34.511 3.98851 33.6313 3.95117L31.8888 8.24662L31.8267 8.56584L31.7647 8.24662L30.0241 3.95117C29.1444 3.98851 28.2646 4.05758 27.3812 4.15465L27.0936 11.9428C27.7252 11.8383 28.3661 11.7543 28.9865 11.6946L29.1726 6.43585L29.1406 6.07183L29.2534 6.42092L31.0222 10.3561H32.6331H32.6331ZM47.3232 18.4971C47.7574 18.96 48.3834 19.7068 48.7349 20.1604L55.2087 16.0796C54.8854 15.6596 54.3703 15.0211 53.985 14.5713L49.8853 17.2631L49.6052 17.5021L49.8139 17.1997L51.624 13.6117L50.3439 12.3405L46.7292 14.1382L46.4247 14.3454L46.6672 14.0672L49.3796 9.99766C48.9022 9.59443 48.4435 9.22481 47.8589 8.77679L43.7499 15.2004C44.2705 15.598 44.9566 16.1823 45.3946 16.5799L49.2631 14.5862L49.5112 14.4051L49.3289 14.6515L47.3232 18.4971Z" fill="#6F6F6F"/>
</g>
<defs>
<clipPath id="clip0_11262_10280">
<rect width="64" height="64" fill="white"/>
</clipPath>
</defs>
</svg>
