<svg width="64" height="64" viewBox="0 0 64 64" fill="none" xmlns="http://www.w3.org/2000/svg">
<g clip-path="url(#clip0_11140_10671)">
<g clip-path="url(#clip1_11140_10671)">
<path d="M32.0001 0C14.3276 0 0 14.3262 0 31.9993C0 49.6722 14.3276 63.9987 32.0001 63.9987C49.6738 63.9987 63.9999 49.6722 63.9999 31.9993C64.0001 14.3262 49.6739 0 32.0001 0ZM32.0001 62.3985C15.2103 62.3985 1.60139 48.7886 1.60139 31.9993C1.60139 15.2103 15.2103 1.59956 32.0001 1.59956C48.7898 1.59956 62.3997 15.2102 62.3997 31.9993C62.3997 48.7885 48.7898 62.3985 32.0001 62.3985Z" fill="url(#paint0_linear_11140_10671)"/>
<path d="M62.6279 31.9994C62.6279 48.9139 48.9134 62.6279 31.9988 62.6279C15.084 62.6279 1.37109 48.9139 1.37109 31.9994C1.37109 15.084 15.084 1.37109 31.9988 1.37109C48.9134 1.37109 62.6279 15.084 62.6279 31.9994Z" fill="#333333"/>
<path d="M62.3999 31.9994C62.3999 48.7886 48.7899 62.3986 32.0002 62.3986C15.2105 62.3986 1.60156 48.7886 1.60156 31.9994C1.60156 15.2103 15.2105 1.59961 32.0002 1.59961C48.7899 1.59961 62.3999 15.2103 62.3999 31.9994Z" fill="url(#paint1_radial_11140_10671)"/>
<path d="M52.3825 31.9997C52.3825 43.2552 43.2578 52.3796 32.0019 52.3796C20.7458 52.3796 11.6211 43.2554 11.6211 31.9997C11.6211 20.7436 20.7458 11.6191 32.0019 11.6191C43.2577 11.6191 52.3825 20.7437 52.3825 31.9997Z" fill="url(#paint2_linear_11140_10671)"/>
<path d="M32.8148 11.0693L34.9319 5.45818V11.0693H36.5399V3.0332H34.1234L31.9255 8.78698H31.9464L29.7485 3.0332H27.332V11.0693H28.94V5.45818L31.0571 11.0693H32.8148ZM54.8815 14.6728L52.1343 18.6784L56.4493 16.5562L57.6197 17.9597L50.8285 21.3697L49.4562 19.7083L52.0887 15.7392L52.0731 15.7196L47.6944 17.5938L46.3064 15.9436L50.8857 9.87995L52.0563 11.2842L49.1889 15.1454L53.6264 13.1663L54.8815 14.6728Z" fill="black"/>
<path d="M17.7691 13.1362C17.1219 12.5079 16.1232 12.3185 15.1844 12.9005C15.3642 12.4357 15.2912 11.9625 15.1962 11.7C14.7913 10.9638 14.6494 10.8706 14.3187 10.5913C13.2393 9.68699 12.1039 10.4592 11.2927 11.4259L7.37109 16.0996L13.5361 21.2718L17.6714 16.3444C18.6166 15.2182 18.7625 14.1017 17.7691 13.1362ZM9.79392 15.3901L12.1495 12.5829C12.4229 12.258 13.0401 12.2711 13.4359 12.6044C13.872 12.9703 13.8733 13.4884 13.5804 13.838L11.251 16.6128L9.79392 15.3901ZM16.2926 15.8568L13.8369 18.7833L12.2993 17.4909L14.7732 14.5419C15.0532 14.2085 15.6768 14.1115 16.0974 14.4643C16.5712 14.8628 16.618 15.4689 16.2926 15.8568Z" fill="#333333"/>
<path d="M32.8346 10.7588L34.9516 5.14776V10.7588H36.5596V2.72266H34.1429L31.9452 8.47624H31.966L29.7682 2.72266H27.3516V10.7588H28.9596V5.14776L31.0768 10.7588H32.8346Z" fill="url(#paint3_radial_11140_10671)"/>
<path d="M54.898 14.1326L52.1519 18.1384L56.4669 16.0154L57.6362 17.4197L50.8459 20.8296L49.4737 19.1677L52.1063 15.199L52.0909 15.1788L47.7106 17.0538L46.3242 15.4028L50.9034 9.33984L52.0738 10.7436L49.2069 14.6047L53.6427 12.6263L54.898 14.1326Z" fill="url(#paint4_radial_11140_10671)"/>
<path d="M17.4802 12.9782C16.8344 12.35 15.8344 12.1605 14.897 12.7419C15.0753 12.277 15.0024 11.8038 14.9075 11.5426C14.5025 10.8051 14.3619 10.7132 14.0285 10.4334C12.9491 9.52847 11.8151 10.3011 11.0052 11.2687L7.08203 15.9416L13.2472 21.1139L17.3825 16.1858C18.3266 15.0595 18.4736 13.9437 17.4802 12.9782ZM9.50536 15.232L11.8607 12.4255C12.1329 12.1 12.75 12.1131 13.1471 12.4456C13.5833 12.8122 13.5846 13.331 13.2903 13.6793L10.9624 16.4546L9.50536 15.232ZM16.0051 15.6987L13.5494 18.6251L12.0091 17.3328L14.4844 14.3831C14.7643 14.0504 15.3866 13.9534 15.8072 14.3063C16.2837 14.7053 16.3306 15.3102 16.0051 15.6987Z" fill="url(#paint5_radial_11140_10671)"/>
<path d="M12.2969 32.0019C12.2969 21.1202 21.1183 12.2988 31.9993 12.2988C42.8815 12.2988 51.7016 21.1202 51.7016 32.0019C51.7016 42.883 42.8815 51.7041 31.9993 51.7041C21.1181 51.7041 12.2969 42.883 12.2969 32.0019Z" fill="url(#paint6_radial_11140_10671)"/>
<path d="M12.8633 32.0019C12.8633 21.4333 21.4306 12.8652 31.9993 12.8652C42.568 12.8652 51.1365 21.4333 51.1365 32.0019C51.1365 42.5705 42.5678 51.1385 31.9992 51.1385C21.4307 51.1385 12.8633 42.5705 12.8633 32.0019Z" fill="url(#paint7_radial_11140_10671)"/>
<path d="M12.832 31.9999H31.998V12.834C21.4124 12.834 12.832 21.4144 12.832 31.9999Z" fill="url(#paint8_radial_11140_10671)"/>
<path d="M32 32V51.1661C42.5855 51.1661 51.1659 42.5841 51.1659 32H32Z" fill="url(#paint9_radial_11140_10671)"/>
<path d="M51.3252 31.6607H32.3404V12.6758H31.6607V31.6607H12.6758V32.3404H31.6607V51.3259H32.3404V32.3404H51.3252V31.6607Z" fill="url(#paint10_radial_11140_10671)"/>
<path d="M32.34 13.2135C42.4504 13.3933 50.6088 21.5511 50.7897 31.6606H51.1281C50.9474 21.3636 42.6377 13.0528 32.3398 12.873L32.34 13.2135Z" fill="url(#paint11_linear_11140_10671)"/>
<path d="M13.1758 31.6568C13.3554 21.5335 21.5256 13.364 31.649 13.1836V12.8438C21.337 13.0241 13.0169 21.3459 12.8359 31.6568L13.1758 31.6568Z" fill="#C2D7E8"/>
<path d="M31.6592 50.7881C21.549 50.6085 13.3906 42.4501 13.2108 32.3398H12.8711C13.052 42.6375 21.3615 50.9486 31.6593 51.1282L31.6592 50.7881Z" fill="url(#paint12_linear_11140_10671)"/>
<path d="M50.7896 32.3398C50.6087 42.4501 42.4501 50.6085 32.3398 50.7881V51.1282C42.6376 50.9486 50.9484 42.6376 51.1281 32.3398H50.7896Z" fill="#12404F"/>
<path d="M31.2975 12.8438V31.2864H12.8555V31.6503H31.6607V12.8438H31.2975Z" fill="url(#paint13_linear_11140_10671)"/>
<path d="M31.2661 50.9491V32.7284H13.0078V32.3691H31.6255V50.9491H31.2661Z" fill="url(#paint14_linear_11140_10671)"/>
<path d="M32.7292 50.9491V32.7284H50.9498V32.3691H32.3711V50.9491H32.7292Z" fill="url(#paint15_linear_11140_10671)"/>
<path d="M32.7292 13.0059V31.2264H50.9498V31.5852H32.3711V13.0059H32.7292Z" fill="url(#paint16_linear_11140_10671)"/>
</g>
</g>
<defs>
<linearGradient id="paint0_linear_11140_10671" x1="-4.68429" y1="-3.45014" x2="63.2129" y2="62.161" gradientUnits="userSpaceOnUse">
<stop stop-color="#DFF4FF"/>
<stop offset="0.098" stop-color="#D6EAF5"/>
<stop offset="0.268" stop-color="#BFD0D9"/>
<stop offset="0.488" stop-color="#98A5AC"/>
<stop offset="0.747" stop-color="#646B6E"/>
<stop offset="1" stop-color="#2B2B2B"/>
</linearGradient>
<radialGradient id="paint1_radial_11140_10671" cx="0" cy="0" r="1" gradientUnits="userSpaceOnUse" gradientTransform="translate(-0.398648 2.11655) scale(45.4632 45.4632)">
<stop stop-color="white"/>
<stop offset="0.306" stop-color="#A8A8A8"/>
<stop offset="0.646" stop-color="#4F4F4F"/>
<stop offset="0.885" stop-color="#161616"/>
<stop offset="1"/>
</radialGradient>
<linearGradient id="paint2_linear_11140_10671" x1="55.3661" y1="54.577" x2="12.1226" y2="12.7896" gradientUnits="userSpaceOnUse">
<stop stop-color="#DFF4FF"/>
<stop offset="0.086" stop-color="#D6EAF5"/>
<stop offset="0.233" stop-color="#BED0D9"/>
<stop offset="0.424" stop-color="#96A4AC"/>
<stop offset="0.652" stop-color="#5F686D"/>
<stop offset="0.907" stop-color="#1A1D1E"/>
<stop offset="1"/>
</linearGradient>
<radialGradient id="paint3_radial_11140_10671" cx="0" cy="0" r="1" gradientUnits="userSpaceOnUse" gradientTransform="translate(-8.56274 -2.51191) scale(109.241 109.241)">
<stop stop-color="white"/>
<stop offset="0.31" stop-color="#FDFDFD"/>
<stop offset="0.451" stop-color="#F6F6F6"/>
<stop offset="0.557" stop-color="#E9E9E9"/>
<stop offset="0.646" stop-color="#D7D7D7"/>
<stop offset="0.724" stop-color="#BFBFBF"/>
<stop offset="0.794" stop-color="#A2A2A2"/>
<stop offset="0.859" stop-color="#808080"/>
<stop offset="0.92" stop-color="#575757"/>
<stop offset="0.975" stop-color="#2B2B2B"/>
<stop offset="1" stop-color="#141414"/>
</radialGradient>
<radialGradient id="paint4_radial_11140_10671" cx="0" cy="0" r="1" gradientUnits="userSpaceOnUse" gradientTransform="translate(-8.56966 -2.51286) scale(109.251 109.251)">
<stop stop-color="white"/>
<stop offset="0.31" stop-color="#FDFDFD"/>
<stop offset="0.451" stop-color="#F6F6F6"/>
<stop offset="0.557" stop-color="#E9E9E9"/>
<stop offset="0.646" stop-color="#D7D7D7"/>
<stop offset="0.724" stop-color="#BFBFBF"/>
<stop offset="0.794" stop-color="#A2A2A2"/>
<stop offset="0.859" stop-color="#808080"/>
<stop offset="0.92" stop-color="#575757"/>
<stop offset="0.975" stop-color="#2B2B2B"/>
<stop offset="1" stop-color="#141414"/>
</radialGradient>
<radialGradient id="paint5_radial_11140_10671" cx="0" cy="0" r="1" gradientUnits="userSpaceOnUse" gradientTransform="translate(-8.57429 -2.54513) scale(109.334 109.334)">
<stop stop-color="white"/>
<stop offset="0.31" stop-color="#FDFDFD"/>
<stop offset="0.451" stop-color="#F6F6F6"/>
<stop offset="0.557" stop-color="#E9E9E9"/>
<stop offset="0.646" stop-color="#D7D7D7"/>
<stop offset="0.724" stop-color="#BFBFBF"/>
<stop offset="0.794" stop-color="#A2A2A2"/>
<stop offset="0.859" stop-color="#808080"/>
<stop offset="0.92" stop-color="#575757"/>
<stop offset="0.975" stop-color="#2B2B2B"/>
<stop offset="1" stop-color="#141414"/>
</radialGradient>
<radialGradient id="paint6_radial_11140_10671" cx="0" cy="0" r="1" gradientUnits="userSpaceOnUse" gradientTransform="translate(11.0004 12.6338) scale(29.4657 29.4657)">
<stop stop-color="#E6E6E6"/>
<stop offset="0.104" stop-color="#D6D6D6"/>
<stop offset="0.307" stop-color="#ADADAD"/>
<stop offset="0.588" stop-color="#6C6C6C"/>
<stop offset="0.933" stop-color="#121212"/>
<stop offset="1"/>
</radialGradient>
<radialGradient id="paint7_radial_11140_10671" cx="0" cy="0" r="1" gradientUnits="userSpaceOnUse" gradientTransform="translate(19.0596 16.597) scale(42.8516 42.8517)">
<stop stop-color="white"/>
<stop offset="0.344" stop-color="#FDFDFD"/>
<stop offset="0.481" stop-color="#F6F6F6"/>
<stop offset="0.582" stop-color="#EAEAEA"/>
<stop offset="0.665" stop-color="#D8D8D8"/>
<stop offset="0.737" stop-color="#C2C2C2"/>
<stop offset="0.802" stop-color="#A6A6A6"/>
<stop offset="0.86" stop-color="#848484"/>
<stop offset="0.913" stop-color="#5F5F5F"/>
<stop offset="0.949" stop-color="#404040"/>
<stop offset="0.957" stop-color="#404040"/>
<stop offset="1"/>
</radialGradient>
<radialGradient id="paint8_radial_11140_10671" cx="0" cy="0" r="1" gradientUnits="userSpaceOnUse" gradientTransform="translate(6.47659 0.351459) scale(75.8908)">
<stop offset="0.169" stop-color="white"/>
<stop offset="0.196" stop-color="#E0EFF7"/>
<stop offset="0.241" stop-color="#B2D9EC"/>
<stop offset="0.287" stop-color="#8BC5E2"/>
<stop offset="0.335" stop-color="#6BB5DA"/>
<stop offset="0.384" stop-color="#52A9D4"/>
<stop offset="0.436" stop-color="#41A0CF"/>
<stop offset="0.491" stop-color="#369BCD"/>
<stop offset="0.556" stop-color="#3399CC"/>
<stop offset="0.606" stop-color="#3396C8"/>
<stop offset="0.655" stop-color="#328EBC"/>
<stop offset="0.705" stop-color="#3180A8"/>
<stop offset="0.754" stop-color="#2F6D8C"/>
<stop offset="0.803" stop-color="#2D5468"/>
<stop offset="0.851" stop-color="#2A373D"/>
<stop offset="0.871" stop-color="#292929"/>
</radialGradient>
<radialGradient id="paint9_radial_11140_10671" cx="0" cy="0" r="1" gradientUnits="userSpaceOnUse" gradientTransform="translate(6.47861 0.350959) scale(75.8893 75.8893)">
<stop offset="0.169" stop-color="white"/>
<stop offset="0.196" stop-color="#E0EFF7"/>
<stop offset="0.241" stop-color="#B2D9EC"/>
<stop offset="0.287" stop-color="#8BC5E2"/>
<stop offset="0.335" stop-color="#6BB5DA"/>
<stop offset="0.384" stop-color="#52A9D4"/>
<stop offset="0.436" stop-color="#41A0CF"/>
<stop offset="0.491" stop-color="#369BCD"/>
<stop offset="0.556" stop-color="#3399CC"/>
<stop offset="0.606" stop-color="#3396C8"/>
<stop offset="0.655" stop-color="#328EBC"/>
<stop offset="0.705" stop-color="#3180A8"/>
<stop offset="0.754" stop-color="#2F6D8C"/>
<stop offset="0.803" stop-color="#2D5468"/>
<stop offset="0.851" stop-color="#2A373D"/>
<stop offset="0.871" stop-color="#292929"/>
</radialGradient>
<radialGradient id="paint10_radial_11140_10671" cx="0" cy="0" r="1" gradientUnits="userSpaceOnUse" gradientTransform="translate(11.4042 13.0043) scale(28.901)">
<stop stop-color="#E6E6E6"/>
<stop offset="0.104" stop-color="#D6D6D6"/>
<stop offset="0.307" stop-color="#ADADAD"/>
<stop offset="0.588" stop-color="#6C6C6C"/>
<stop offset="0.933" stop-color="#121212"/>
<stop offset="1"/>
</radialGradient>
<linearGradient id="paint11_linear_11140_10671" x1="28.2105" y1="5.78816" x2="56.3947" y2="33.0234" gradientUnits="userSpaceOnUse">
<stop stop-color="#F0F4FF"/>
<stop offset="0.109" stop-color="#EBEFF9"/>
<stop offset="0.247" stop-color="#DCE0EA"/>
<stop offset="0.403" stop-color="#C4C7CF"/>
<stop offset="0.57" stop-color="#A2A4AB"/>
<stop offset="0.747" stop-color="#76777C"/>
<stop offset="0.929" stop-color="#414243"/>
<stop offset="1" stop-color="#2B2B2B"/>
</linearGradient>
<linearGradient id="paint12_linear_11140_10671" x1="5.33328" y1="28.7819" x2="33.5178" y2="56.0176" gradientUnits="userSpaceOnUse">
<stop stop-color="#F0F4FF"/>
<stop offset="0.109" stop-color="#EBEFF9"/>
<stop offset="0.247" stop-color="#DCE0EA"/>
<stop offset="0.403" stop-color="#C4C7CF"/>
<stop offset="0.57" stop-color="#A2A4AB"/>
<stop offset="0.747" stop-color="#76777C"/>
<stop offset="0.929" stop-color="#414243"/>
<stop offset="1" stop-color="#2B2B2B"/>
</linearGradient>
<linearGradient id="paint13_linear_11140_10671" x1="18.9697" y1="19.0693" x2="33.5845" y2="33.1921" gradientUnits="userSpaceOnUse">
<stop stop-color="#C2D7E8"/>
<stop offset="0.134" stop-color="#BACFE1"/>
<stop offset="0.343" stop-color="#A4BACD"/>
<stop offset="0.6" stop-color="#8098AC"/>
<stop offset="0.894" stop-color="#4E697F"/>
<stop offset="1" stop-color="#3A566D"/>
</linearGradient>
<linearGradient id="paint14_linear_11140_10671" x1="11.6502" y1="22.5301" x2="39.5511" y2="49.4916" gradientUnits="userSpaceOnUse">
<stop stop-color="#F0F4FF"/>
<stop offset="0.097" stop-color="#E8EBF6"/>
<stop offset="0.257" stop-color="#D1D4DD"/>
<stop offset="0.459" stop-color="#ABAEB5"/>
<stop offset="0.695" stop-color="#78797D"/>
<stop offset="0.958" stop-color="#363637"/>
<stop offset="1" stop-color="#2B2B2B"/>
</linearGradient>
<linearGradient id="paint15_linear_11140_10671" x1="32.2145" y1="32.5313" x2="42.0014" y2="41.9887" gradientUnits="userSpaceOnUse">
<stop stop-color="#D9DEF0"/>
<stop offset="0.123" stop-color="#D4DAEC"/>
<stop offset="0.263" stop-color="#C7CFE2"/>
<stop offset="0.411" stop-color="#B0BCD1"/>
<stop offset="0.566" stop-color="#90A1B8"/>
<stop offset="0.725" stop-color="#677F99"/>
<stop offset="0.885" stop-color="#355674"/>
<stop offset="0.972" stop-color="#173D5D"/>
</linearGradient>
<linearGradient id="paint16_linear_11140_10671" x1="22.2029" y1="12.2967" x2="50.0736" y2="39.2289" gradientUnits="userSpaceOnUse">
<stop stop-color="#F0F4FF"/>
<stop offset="0.109" stop-color="#EBEFF9"/>
<stop offset="0.247" stop-color="#DCE0EA"/>
<stop offset="0.403" stop-color="#C4C7CF"/>
<stop offset="0.57" stop-color="#A2A4AB"/>
<stop offset="0.747" stop-color="#76777C"/>
<stop offset="0.929" stop-color="#414243"/>
<stop offset="1" stop-color="#2B2B2B"/>
</linearGradient>
<clipPath id="clip0_11140_10671">
<rect width="64" height="64" fill="white"/>
</clipPath>
<clipPath id="clip1_11140_10671">
<rect width="64" height="64" fill="white"/>
</clipPath>
</defs>
</svg>
