<svg width="64" height="64" viewBox="0 0 64 64" fill="none" xmlns="http://www.w3.org/2000/svg">
<g clip-path="url(#clip0_10708_10332)">
<path d="M32.0001 0C14.3276 0 0 14.3265 0 32C0 49.6732 14.3276 64 32.0001 64C49.6738 64 64 49.6732 64 32C64.0001 14.3265 49.6739 0 32.0001 0ZM32.0001 62.3999C15.2103 62.3999 1.60139 48.7896 1.60139 32C1.60139 15.2106 15.2103 1.5996 32.0001 1.5996C48.7898 1.5996 62.3998 15.2106 62.3998 32C62.3998 48.7896 48.7898 62.3999 32.0001 62.3999Z" fill="url(#paint0_linear_10708_10332)"/>
<path d="M62.6279 32.0001C62.6279 48.9149 48.9135 62.6291 31.9988 62.6291C15.084 62.6291 1.37109 48.9149 1.37109 32.0001C1.37109 15.0843 15.084 1.37109 31.9988 1.37109C48.9135 1.37109 62.6279 15.0843 62.6279 32.0001Z" fill="#333333"/>
<path d="M62.4 32C62.4 48.7896 48.7899 62.3999 32.0003 62.3999C15.2105 62.3999 1.60156 48.7896 1.60156 32C1.60156 15.2106 15.2105 1.59961 32.0003 1.59961C48.7899 1.59961 62.4 15.2106 62.4 32Z" fill="url(#paint1_radial_10708_10332)"/>
<path d="M52.3786 32.0002C52.3786 43.256 43.2539 52.3805 31.998 52.3805C20.7419 52.3805 11.6172 43.256 11.6172 32.0002C11.6172 20.7439 20.7419 11.6191 31.998 11.6191C43.2539 11.6191 52.3786 20.744 52.3786 32.0002Z" fill="url(#paint2_linear_10708_10332)"/>
<path d="M34.9319 11.0695H36.5398V3.0332H34.1234L31.9255 8.7871H31.9464L29.7485 3.0332H27.332V11.0695H28.94V5.45823L31.0571 11.0695H32.8148L34.9319 5.45823V11.0695ZM56.4494 16.5565L57.6197 17.96L50.8285 21.3701L49.4562 19.7087L52.0888 15.7394L52.0732 15.7199L47.6944 17.5941L46.3064 15.9439L50.8857 9.8801L52.0563 11.2844L49.189 15.1457L53.6265 13.1665L54.8816 14.673L52.1343 18.6788L56.4494 16.5565Z" fill="black"/>
<path d="M17.7691 13.1363C17.1219 12.508 16.1233 12.3186 15.1845 12.9006C15.3642 12.4357 15.2913 11.9625 15.1962 11.7001C14.7913 10.9638 14.6494 10.8706 14.3187 10.5913C13.2393 9.68698 12.1039 10.4592 11.2927 11.4259L7.37109 16.0997L13.5362 21.2721L17.6715 16.3445C18.6166 15.2183 18.7625 14.1018 17.7691 13.1363ZM9.79399 15.3902L12.1496 12.5829C12.4229 12.258 13.0401 12.271 13.4359 12.6045C13.8721 12.9703 13.8733 13.4885 13.5804 13.8381L11.2511 16.6129L9.79399 15.3902ZM16.2926 15.8569L13.837 18.7835L12.2993 17.4911L14.7732 14.542C15.0532 14.2085 15.6769 14.1116 16.0974 14.4644C16.5712 14.8629 16.6181 15.469 16.2926 15.8569Z" fill="#333333"/>
<path d="M34.9516 10.758H36.5597V2.72168H34.143L31.9453 8.47539H31.9661L29.7683 2.72168H27.3516V10.758H28.9596V5.14683L31.0768 10.758H32.8346L34.9516 5.14683V10.758Z" fill="url(#paint3_radial_10708_10332)"/>
<path d="M56.467 16.0156L57.6363 17.4198L50.8459 20.8299L49.4737 19.1679L52.1064 15.1991L52.0909 15.179L47.7107 17.054L46.3242 15.4029L50.9035 9.33984L52.0739 10.7436L49.2069 14.6048L53.6428 12.6264L54.8981 14.1327L52.152 18.1386L56.467 16.0156Z" fill="url(#paint4_radial_10708_10332)"/>
<path d="M17.4762 12.9783C16.8304 12.35 15.8304 12.1605 14.893 12.742C15.0713 12.2771 14.9985 11.8038 14.9035 11.5427C14.4985 10.8051 14.3579 10.7133 14.0245 10.4334C12.9452 9.52846 11.8111 10.3011 11.0012 11.2687L7.07812 15.9417L13.2433 21.1142L17.3786 16.1859C18.3226 15.0596 18.4696 13.9438 17.4762 12.9783ZM9.50133 15.2321L11.8567 12.4256C12.1289 12.1001 12.746 12.1131 13.1431 12.4457C13.5793 12.8123 13.5806 13.331 13.2863 13.6794L10.9583 16.4547L9.50133 15.2321ZM16.0011 15.6989L13.5454 18.6253L12.0051 17.3329L14.4804 14.3832C14.7603 14.0505 15.3826 13.9535 15.8032 14.3064C16.2797 14.7054 16.3266 15.3103 16.0011 15.6989Z" fill="url(#paint5_radial_10708_10332)"/>
<path d="M12.3008 32.0012C12.3008 21.1194 21.1221 12.2979 32.0032 12.2979C42.8854 12.2979 51.7055 21.1194 51.7055 32.0012C51.7055 42.8827 42.8854 51.7039 32.0032 51.7039C21.1221 51.7039 12.3008 42.8827 12.3008 32.0012Z" fill="url(#paint6_radial_10708_10332)"/>
<path d="M12.8672 32.0013C12.8672 21.4325 21.4346 12.8643 32.0032 12.8643C42.5719 12.8643 51.1404 21.4325 51.1404 32.0013C51.1404 42.5702 42.5718 51.1385 32.0032 51.1385C21.4347 51.1385 12.8672 42.5702 12.8672 32.0013Z" fill="url(#paint7_radial_10708_10332)"/>
<path d="M12.832 32.0003H31.998V12.834C21.4124 12.834 12.832 21.4146 12.832 32.0003Z" fill="url(#paint8_radial_10708_10332)"/>
<path d="M32 32V51.1666C42.5855 51.1666 51.166 42.5844 51.166 32H32Z" fill="url(#paint9_radial_10708_10332)"/>
<path d="M32.3404 12.6738H31.6607V31.6591H12.6758V32.3389H31.6607V51.3248H32.3404V32.3389H51.3253V31.6591H32.3404V12.6738Z" fill="url(#paint10_radial_10708_10332)"/>
<path d="M32.336 13.2135C42.4463 13.3933 50.6048 21.5512 50.7858 31.661H51.1242C50.9434 21.3637 42.6338 13.0528 32.3359 12.873V13.2135H32.336Z" fill="url(#paint11_linear_10708_10332)"/>
<path d="M13.1758 31.6572C13.3554 21.5337 21.5256 13.364 31.649 13.1836V12.8438C21.337 13.0241 13.0169 21.3461 12.8359 31.6572H13.1758V31.6572Z" fill="#C2D7E8"/>
<path d="M31.6593 50.7885C21.549 50.6089 13.3906 42.4503 13.2108 32.3398H12.8711C13.052 42.6377 21.3616 50.949 31.6593 51.1285V50.7885H31.6593Z" fill="url(#paint12_linear_10708_10332)"/>
<path d="M50.7857 32.3398C50.6048 42.4503 42.4462 50.6089 32.3359 50.7885V51.1285C42.6337 50.949 50.9445 42.6378 51.1242 32.3398H50.7857Z" fill="#12404F"/>
<path d="M12.8555 31.2868V31.6507H31.6607V12.8438H31.2975V31.2868H12.8555Z" fill="url(#paint13_linear_10708_10332)"/>
<path d="M13.0039 32.7294V32.3701H31.6216V50.9505H31.2623V32.7294H13.0039Z" fill="url(#paint14_linear_10708_10332)"/>
<path d="M50.9498 32.7294V32.3701H32.3711V50.9505H32.7292V32.7294H50.9498Z" fill="url(#paint15_linear_10708_10332)"/>
<path d="M50.9498 31.2268V31.5856H32.3711V13.0059H32.7292V31.2268H50.9498Z" fill="url(#paint16_linear_10708_10332)"/>
</g>
<defs>
<linearGradient id="paint0_linear_10708_10332" x1="-4.68435" y1="-3.45022" x2="63.2143" y2="62.1609" gradientUnits="userSpaceOnUse">
<stop stop-color="#DFF4FF"/>
<stop offset="0.098" stop-color="#D6EAF5"/>
<stop offset="0.268" stop-color="#BFD0D9"/>
<stop offset="0.488" stop-color="#98A5AC"/>
<stop offset="0.747" stop-color="#646B6E"/>
<stop offset="1" stop-color="#2B2B2B"/>
</linearGradient>
<radialGradient id="paint1_radial_10708_10332" cx="0" cy="0" r="1" gradientUnits="userSpaceOnUse" gradientTransform="translate(-0.39865 2.11643) scale(45.4633 45.4642)">
<stop stop-color="white"/>
<stop offset="0.306" stop-color="#A8A8A8"/>
<stop offset="0.646" stop-color="#4F4F4F"/>
<stop offset="0.885" stop-color="#161616"/>
<stop offset="1"/>
</radialGradient>
<linearGradient id="paint2_linear_10708_10332" x1="55.3623" y1="54.5781" x2="12.1179" y2="12.7906" gradientUnits="userSpaceOnUse">
<stop stop-color="#DFF4FF"/>
<stop offset="0.086" stop-color="#D6EAF5"/>
<stop offset="0.233" stop-color="#BED0D9"/>
<stop offset="0.424" stop-color="#96A4AC"/>
<stop offset="0.652" stop-color="#5F686D"/>
<stop offset="0.907" stop-color="#1A1D1E"/>
<stop offset="1"/>
</linearGradient>
<radialGradient id="paint3_radial_10708_10332" cx="0" cy="0" r="1" gradientUnits="userSpaceOnUse" gradientTransform="translate(-8.56277 -2.51318) scale(109.242 109.244)">
<stop stop-color="white"/>
<stop offset="0.31" stop-color="#FDFDFD"/>
<stop offset="0.451" stop-color="#F6F6F6"/>
<stop offset="0.557" stop-color="#E9E9E9"/>
<stop offset="0.646" stop-color="#D7D7D7"/>
<stop offset="0.724" stop-color="#BFBFBF"/>
<stop offset="0.794" stop-color="#A2A2A2"/>
<stop offset="0.859" stop-color="#808080"/>
<stop offset="0.92" stop-color="#575757"/>
<stop offset="0.975" stop-color="#2B2B2B"/>
<stop offset="1" stop-color="#141414"/>
</radialGradient>
<radialGradient id="paint4_radial_10708_10332" cx="0" cy="0" r="1" gradientUnits="userSpaceOnUse" gradientTransform="translate(-8.56967 -2.5133) scale(109.251 109.253)">
<stop stop-color="white"/>
<stop offset="0.31" stop-color="#FDFDFD"/>
<stop offset="0.451" stop-color="#F6F6F6"/>
<stop offset="0.557" stop-color="#E9E9E9"/>
<stop offset="0.646" stop-color="#D7D7D7"/>
<stop offset="0.724" stop-color="#BFBFBF"/>
<stop offset="0.794" stop-color="#A2A2A2"/>
<stop offset="0.859" stop-color="#808080"/>
<stop offset="0.92" stop-color="#575757"/>
<stop offset="0.975" stop-color="#2B2B2B"/>
<stop offset="1" stop-color="#141414"/>
</radialGradient>
<radialGradient id="paint5_radial_10708_10332" cx="0" cy="0" r="1" gradientUnits="userSpaceOnUse" gradientTransform="translate(-8.57822 -2.5456) scale(109.335 109.337)">
<stop stop-color="white"/>
<stop offset="0.31" stop-color="#FDFDFD"/>
<stop offset="0.451" stop-color="#F6F6F6"/>
<stop offset="0.557" stop-color="#E9E9E9"/>
<stop offset="0.646" stop-color="#D7D7D7"/>
<stop offset="0.724" stop-color="#BFBFBF"/>
<stop offset="0.794" stop-color="#A2A2A2"/>
<stop offset="0.859" stop-color="#808080"/>
<stop offset="0.92" stop-color="#575757"/>
<stop offset="0.975" stop-color="#2B2B2B"/>
<stop offset="1" stop-color="#141414"/>
</radialGradient>
<radialGradient id="paint6_radial_10708_10332" cx="0" cy="0" r="1" gradientUnits="userSpaceOnUse" gradientTransform="translate(11.0043 12.6328) scale(29.4658 29.4664)">
<stop stop-color="#E6E6E6"/>
<stop offset="0.104" stop-color="#D6D6D6"/>
<stop offset="0.307" stop-color="#ADADAD"/>
<stop offset="0.588" stop-color="#6C6C6C"/>
<stop offset="0.933" stop-color="#121212"/>
<stop offset="1"/>
</radialGradient>
<radialGradient id="paint7_radial_10708_10332" cx="0" cy="0" r="1" gradientUnits="userSpaceOnUse" gradientTransform="translate(19.0636 16.5961) scale(42.8517 42.8526)">
<stop stop-color="white"/>
<stop offset="0.344" stop-color="#FDFDFD"/>
<stop offset="0.481" stop-color="#F6F6F6"/>
<stop offset="0.582" stop-color="#EAEAEA"/>
<stop offset="0.665" stop-color="#D8D8D8"/>
<stop offset="0.737" stop-color="#C2C2C2"/>
<stop offset="0.802" stop-color="#A6A6A6"/>
<stop offset="0.86" stop-color="#848484"/>
<stop offset="0.913" stop-color="#5F5F5F"/>
<stop offset="0.949" stop-color="#404040"/>
<stop offset="0.957" stop-color="#404040"/>
<stop offset="1"/>
</radialGradient>
<radialGradient id="paint8_radial_10708_10332" cx="0" cy="0" r="1" gradientUnits="userSpaceOnUse" gradientTransform="translate(6.47659 0.351066) scale(75.8908 75.8924)">
<stop offset="0.169" stop-color="white"/>
<stop offset="0.196" stop-color="#E0EFF7"/>
<stop offset="0.241" stop-color="#B2D9EC"/>
<stop offset="0.287" stop-color="#8BC5E2"/>
<stop offset="0.335" stop-color="#6BB5DA"/>
<stop offset="0.384" stop-color="#52A9D4"/>
<stop offset="0.436" stop-color="#41A0CF"/>
<stop offset="0.491" stop-color="#369BCD"/>
<stop offset="0.556" stop-color="#3399CC"/>
<stop offset="0.606" stop-color="#3396C8"/>
<stop offset="0.655" stop-color="#328EBC"/>
<stop offset="0.705" stop-color="#3180A8"/>
<stop offset="0.754" stop-color="#2F6D8C"/>
<stop offset="0.803" stop-color="#2D5468"/>
<stop offset="0.851" stop-color="#2A373D"/>
<stop offset="0.871" stop-color="#292929"/>
</radialGradient>
<radialGradient id="paint9_radial_10708_10332" cx="0" cy="0" r="1" gradientUnits="userSpaceOnUse" gradientTransform="translate(6.47859 0.350214) scale(75.8894 75.891)">
<stop offset="0.169" stop-color="white"/>
<stop offset="0.196" stop-color="#E0EFF7"/>
<stop offset="0.241" stop-color="#B2D9EC"/>
<stop offset="0.287" stop-color="#8BC5E2"/>
<stop offset="0.335" stop-color="#6BB5DA"/>
<stop offset="0.384" stop-color="#52A9D4"/>
<stop offset="0.436" stop-color="#41A0CF"/>
<stop offset="0.491" stop-color="#369BCD"/>
<stop offset="0.556" stop-color="#3399CC"/>
<stop offset="0.606" stop-color="#3396C8"/>
<stop offset="0.655" stop-color="#328EBC"/>
<stop offset="0.705" stop-color="#3180A8"/>
<stop offset="0.754" stop-color="#2F6D8C"/>
<stop offset="0.803" stop-color="#2D5468"/>
<stop offset="0.851" stop-color="#2A373D"/>
<stop offset="0.871" stop-color="#292929"/>
</radialGradient>
<radialGradient id="paint10_radial_10708_10332" cx="0" cy="0" r="1" gradientUnits="userSpaceOnUse" gradientTransform="translate(11.4042 13.0024) scale(28.901 28.9016)">
<stop stop-color="#E6E6E6"/>
<stop offset="0.104" stop-color="#D6D6D6"/>
<stop offset="0.307" stop-color="#ADADAD"/>
<stop offset="0.588" stop-color="#6C6C6C"/>
<stop offset="0.933" stop-color="#121212"/>
<stop offset="1"/>
</radialGradient>
<linearGradient id="paint11_linear_10708_10332" x1="28.2066" y1="5.788" x2="56.3913" y2="33.0232" gradientUnits="userSpaceOnUse">
<stop stop-color="#F0F4FF"/>
<stop offset="0.109" stop-color="#EBEFF9"/>
<stop offset="0.247" stop-color="#DCE0EA"/>
<stop offset="0.403" stop-color="#C4C7CF"/>
<stop offset="0.57" stop-color="#A2A4AB"/>
<stop offset="0.747" stop-color="#76777C"/>
<stop offset="0.929" stop-color="#414243"/>
<stop offset="1" stop-color="#2B2B2B"/>
</linearGradient>
<linearGradient id="paint12_linear_10708_10332" x1="5.33315" y1="28.7819" x2="33.5184" y2="56.0175" gradientUnits="userSpaceOnUse">
<stop stop-color="#F0F4FF"/>
<stop offset="0.109" stop-color="#EBEFF9"/>
<stop offset="0.247" stop-color="#DCE0EA"/>
<stop offset="0.403" stop-color="#C4C7CF"/>
<stop offset="0.57" stop-color="#A2A4AB"/>
<stop offset="0.747" stop-color="#76777C"/>
<stop offset="0.929" stop-color="#414243"/>
<stop offset="1" stop-color="#2B2B2B"/>
</linearGradient>
<linearGradient id="paint13_linear_10708_10332" x1="18.9697" y1="19.0695" x2="33.5848" y2="33.1922" gradientUnits="userSpaceOnUse">
<stop stop-color="#C2D7E8"/>
<stop offset="0.134" stop-color="#BACFE1"/>
<stop offset="0.343" stop-color="#A4BACD"/>
<stop offset="0.6" stop-color="#8098AC"/>
<stop offset="0.894" stop-color="#4E697F"/>
<stop offset="1" stop-color="#3A566D"/>
</linearGradient>
<linearGradient id="paint14_linear_10708_10332" x1="11.6462" y1="22.5307" x2="39.5478" y2="49.4923" gradientUnits="userSpaceOnUse">
<stop stop-color="#F0F4FF"/>
<stop offset="0.097" stop-color="#E8EBF6"/>
<stop offset="0.257" stop-color="#D1D4DD"/>
<stop offset="0.459" stop-color="#ABAEB5"/>
<stop offset="0.695" stop-color="#78797D"/>
<stop offset="0.958" stop-color="#363637"/>
<stop offset="1" stop-color="#2B2B2B"/>
</linearGradient>
<linearGradient id="paint15_linear_10708_10332" x1="32.2145" y1="32.5322" x2="42.0016" y2="41.9896" gradientUnits="userSpaceOnUse">
<stop stop-color="#D9DEF0"/>
<stop offset="0.123" stop-color="#D4DAEC"/>
<stop offset="0.263" stop-color="#C7CFE2"/>
<stop offset="0.411" stop-color="#B0BCD1"/>
<stop offset="0.566" stop-color="#90A1B8"/>
<stop offset="0.725" stop-color="#677F99"/>
<stop offset="0.885" stop-color="#355674"/>
<stop offset="0.972" stop-color="#173D5D"/>
</linearGradient>
<linearGradient id="paint16_linear_10708_10332" x1="22.2028" y1="12.2965" x2="50.0741" y2="39.2289" gradientUnits="userSpaceOnUse">
<stop stop-color="#F0F4FF"/>
<stop offset="0.109" stop-color="#EBEFF9"/>
<stop offset="0.247" stop-color="#DCE0EA"/>
<stop offset="0.403" stop-color="#C4C7CF"/>
<stop offset="0.57" stop-color="#A2A4AB"/>
<stop offset="0.747" stop-color="#76777C"/>
<stop offset="0.929" stop-color="#414243"/>
<stop offset="1" stop-color="#2B2B2B"/>
</linearGradient>
<clipPath id="clip0_10708_10332">
<rect width="64" height="64" fill="white"/>
</clipPath>
</defs>
</svg>
