<?xml version="1.0" standalone="no"?>
<!DOCTYPE svg PUBLIC "-//W3C//DTD SVG 20010904//EN"
 "http://www.w3.org/TR/2001/REC-SVG-20010904/DTD/svg10.dtd">
<svg version="1.0" xmlns="http://www.w3.org/2000/svg"
 width="187.000000pt" height="187.000000pt" viewBox="0 0 187.000000 187.000000"
 preserveAspectRatio="xMidYMid meet">
<metadata>
Created by potrace 1.16, written by Peter Selinger 2001-2019
</metadata>
<g transform="translate(0.000000,187.000000) scale(0.100000,-0.100000)"
fill="#000000" stroke="none">
<path d="M795 1402 c-33 -16 -75 -41 -92 -56 l-33 -28 30 -24 c27 -23 35 -25
122 -22 l93 3 3 63 c5 100 -19 113 -123 64z m107 -53 c-2 -29 -8 -57 -15 -61
-7 -4 -42 -8 -78 -8 -52 0 -69 4 -83 19 -16 18 -16 20 14 41 35 25 140 69 155
66 6 -2 9 -27 7 -57z"/>
<path d="M961 1416 c-7 -9 -11 -40 -9 -78 l3 -63 94 -3 c52 -1 98 1 103 6 6 6
-18 7 -60 4 -39 -2 -82 -2 -97 2 -24 6 -26 10 -23 59 3 49 5 52 28 49 14 -1
37 -3 52 -4 15 -1 25 -5 22 -10 -3 -4 2 -5 10 -2 15 6 69 -24 62 -35 -8 -13
22 -41 38 -35 9 3 16 10 16 14 0 13 -67 59 -122 85 -60 28 -100 32 -117 11z"/>
<path d="M626 1227 c-36 -26 -46 -143 -19 -223 19 -57 81 -153 115 -178 13 -9
3 -7 -21 6 -91 48 -161 164 -161 269 0 31 -4 48 -10 44 -5 -3 -10 -23 -10 -43
1 -149 119 -292 284 -344 94 -30 220 -22 308 19 111 52 195 148 212 243 l7 35
-15 -32 c-20 -44 -119 -167 -153 -190 -48 -33 -60 -36 -25 -6 45 40 41 61 -5
24 -47 -37 -109 -64 -132 -56 -22 7 -44 51 -36 75 3 10 31 28 63 40 76 30 117
74 137 147 38 145 55 170 76 116 11 -28 7 -128 -6 -170 -12 -39 12 -26 28 15
19 46 17 167 -3 200 -18 27 -51 29 -73 4 -9 -10 -23 -48 -30 -84 -32 -149 -84
-193 -233 -193 -82 0 -95 3 -132 27 -44 29 -62 68 -82 171 -11 53 -37 97 -58
97 -5 0 -16 -6 -26 -13z m42 -44 c5 -10 17 -53 27 -96 21 -100 58 -144 145
-176 57 -21 60 -24 60 -57 0 -18 5 -34 10 -34 6 0 5 -8 -2 -20 -9 -14 -19 -18
-38 -13 -147 34 -250 163 -250 314 0 83 25 126 48 82z"/>
<path d="M765 1217 c-40 -22 -19 -160 34 -219 23 -25 36 -31 72 -32 l44 -1 3
119 c2 81 -1 123 -9 133 -13 15 -117 16 -144 0z m135 -132 l0 -105 -26 0 c-53
0 -114 91 -114 171 0 36 5 39 77 39 l63 0 0 -105z"/>
<path d="M961 1216 c-8 -9 -11 -54 -9 -132 l3 -119 32 -3 c78 -8 174 171 133
249 -9 16 -22 19 -79 19 -46 0 -72 -5 -80 -14z m130 -26 c58 -32 -22 -210 -95
-210 l-26 0 0 104 c0 74 4 106 13 109 22 9 88 7 108 -3z"/>
<path d="M1434 590 c-45 -18 -68 -91 -48 -145 9 -21 56 -45 92 -45 36 0 82 34
82 61 0 28 -55 26 -71 -2 -16 -31 -31 -9 -27 41 3 40 28 72 28 36 0 -12 10
-16 35 -16 19 0 35 5 35 11 0 23 -21 47 -51 58 -37 13 -46 13 -75 1z"/>
<path d="M158 578 c7 -7 12 -43 12 -90 l0 -78 73 0 c43 0 78 5 85 12 17 17 15
65 -4 76 -11 6 -13 11 -5 16 15 9 14 49 -1 64 -7 7 -43 12 -92 12 -62 0 -77
-3 -68 -12z m110 -41 c2 -10 -3 -17 -12 -17 -10 0 -16 9 -16 21 0 24 23 21 28
-4z m2 -77 c0 -11 -7 -20 -15 -20 -8 0 -15 9 -15 20 0 11 7 20 15 20 8 0 15
-9 15 -20z"/>
<path d="M350 500 l0 -90 35 0 c33 0 35 2 35 36 0 44 21 42 35 -4 8 -28 14
-32 43 -32 33 0 33 1 27 33 -4 17 -12 37 -17 44 -6 7 -5 14 2 18 5 3 10 19 10
35 0 39 -23 50 -104 50 l-66 0 0 -90z m99 51 c17 -11 7 -41 -14 -41 -9 0 -15
9 -15 25 0 27 6 30 29 16z"/>
<path d="M550 500 l0 -90 35 0 35 0 0 90 0 90 -35 0 -35 0 0 -90z"/>
<path d="M650 500 l0 -90 55 0 c48 0 55 2 55 20 0 13 -7 20 -20 20 -18 0 -20
7 -20 70 l0 70 -35 0 -35 0 0 -90z"/>
<path d="M780 500 l0 -90 55 0 c48 0 55 2 55 20 0 13 -7 20 -20 20 -18 0 -20
7 -20 70 l0 70 -35 0 -35 0 0 -90z"/>
<path d="M900 500 l0 -90 40 0 40 0 0 90 0 90 -40 0 -40 0 0 -90z"/>
<path d="M1012 506 c-12 -46 -22 -87 -22 -90 0 -3 16 -6 35 -6 24 0 35 5 35
15 0 7 5 38 11 67 13 59 21 51 33 -34 7 -47 8 -48 42 -48 29 0 34 3 30 18 -3
9 -12 50 -21 90 l-17 72 -52 0 -52 0 -22 -84z"/>
<path d="M1190 500 l0 -90 30 0 c29 0 30 2 31 43 l0 42 19 -42 c18 -40 22 -43
60 -43 l40 0 0 90 0 90 -34 0 -34 0 4 -47 4 -48 -22 48 c-20 44 -24 47 -60 47
l-38 0 0 -90z"/>
<path d="M1570 500 l0 -90 75 0 c68 0 75 2 75 20 0 17 -7 20 -40 20 -29 0 -40
4 -40 15 0 10 10 15 30 15 23 0 30 4 30 20 0 16 -7 20 -30 20 -20 0 -30 5 -30
15 0 10 10 15 34 15 25 0 35 5 39 20 5 19 0 20 -69 20 l-74 0 0 -90z"/>
</g>
</svg>
