<svg width="64" height="63" viewBox="0 0 64 63" fill="none" xmlns="http://www.w3.org/2000/svg">
<path d="M26.1568 12.1137C24.8067 12.758 23.0885 13.7648 22.393 14.3689L21.043 15.4965L22.2703 16.463C23.3749 17.3892 23.7021 17.4698 27.2613 17.3489L31.066 17.2281L31.1887 14.691C31.3933 10.6639 30.4114 10.1404 26.1568 12.1137ZM30.5342 14.2481C30.4523 15.4159 30.2069 16.5435 29.9205 16.7046C29.6341 16.8657 28.2023 17.0268 26.7295 17.0268C24.6022 17.0268 23.9067 16.8657 23.3339 16.2616C22.6794 15.5367 22.6794 15.4562 23.9067 14.6105C25.3386 13.6037 29.6341 11.8318 30.2478 11.9526C30.4933 12.0331 30.616 13.0399 30.5342 14.2481Z" fill="black"/>
<path d="M32.9478 11.5522C32.6615 11.9147 32.4978 13.1631 32.5797 14.6934L32.7024 17.2304L36.548 17.3513C38.6753 17.3915 40.5572 17.311 40.7617 17.1096C41.0072 16.868 40.0253 16.8277 38.3071 16.9485C36.7116 17.0291 34.9525 17.0291 34.3388 16.868C33.357 16.6264 33.2751 16.4653 33.3979 14.492C33.5206 12.5187 33.6024 12.3979 34.5434 12.5187C35.1161 12.559 36.057 12.6395 36.6707 12.6798C37.2843 12.7201 37.6934 12.8812 37.5707 13.0825C37.448 13.2436 37.6525 13.2839 37.9798 13.1631C38.5935 12.9214 40.8026 14.1296 40.5163 14.5726C40.189 15.0961 41.4163 16.2237 42.0709 15.982C42.439 15.8612 42.7254 15.5793 42.7254 15.4182C42.7254 14.8947 39.9844 13.0423 37.7344 11.9952C35.2797 10.8676 33.6433 10.7065 32.9478 11.5522Z" fill="black"/>
<path d="M19.2467 19.1639C17.7739 20.211 17.3648 24.9227 18.4694 28.1444C19.2467 30.4398 21.7831 34.3058 23.174 35.3126C23.7059 35.6751 23.2968 35.5945 22.3149 35.071C18.5921 33.138 15.7284 28.4665 15.7284 24.2381C15.7284 22.9897 15.5647 22.3051 15.3193 22.4661C15.1147 22.587 14.9102 23.3924 14.9102 24.1978C14.9511 30.1982 19.7785 35.957 26.5287 38.0511C30.3743 39.2592 35.529 38.937 39.1291 37.2859C43.6701 35.1918 47.1066 31.3258 47.8021 27.5L48.0884 26.0905L47.4748 27.3792C46.6566 29.1511 42.6064 34.1045 41.2155 35.0307C39.2518 36.3597 38.7609 36.4805 40.1927 35.2724C42.0337 33.6615 41.8701 32.8158 39.9882 34.3058C38.0654 35.7959 35.529 36.8832 34.588 36.561C33.688 36.2791 32.788 34.5072 33.1153 33.5407C33.238 33.138 34.3835 32.4131 35.6926 31.9299C38.8018 30.7217 40.4791 28.9498 41.2973 26.01C42.8519 20.1707 43.5474 19.1639 44.4065 21.3385C44.8565 22.4661 44.6929 26.4933 44.161 28.1846C43.6701 29.7552 44.652 29.2317 45.3065 27.5806C46.0838 25.7281 46.002 20.8553 45.1838 19.5264C44.4474 18.439 43.0974 18.3585 42.1973 19.3653C41.8292 19.768 41.2564 21.2983 40.97 22.748C39.6609 28.7484 37.5336 30.5204 31.4379 30.5204C28.0833 30.5204 27.5514 30.3996 26.0378 29.433C24.2377 28.2652 23.5013 26.6946 22.6831 22.5467C22.2331 20.4123 21.1694 18.6404 20.3103 18.6404C20.1058 18.6404 19.6558 18.882 19.2467 19.1639ZM20.9649 20.9358C21.1694 21.3385 21.6604 23.0702 22.0695 24.8019C22.9286 28.829 24.4423 30.6009 28.0015 31.8896C30.3334 32.7353 30.4561 32.8561 30.4561 34.185C30.4561 34.9099 30.6606 35.5543 30.8652 35.5543C31.1106 35.5543 31.0697 35.8764 30.7834 36.3597C30.4152 36.9235 30.0061 37.0846 29.2288 36.8832C23.215 35.514 19.0012 30.319 19.0012 24.2381C19.0012 20.8956 20.0239 19.1639 20.9649 20.9358Z" fill="black"/>
<path d="M24.9306 19.5646C23.2941 20.4505 24.1533 26.0079 26.3215 28.3839C27.2624 29.3907 27.7943 29.6323 29.2671 29.6726L31.0671 29.7129L31.1898 24.9206C31.2717 21.6587 31.1489 19.9673 30.8216 19.5646C30.2898 18.9605 26.0351 18.9202 24.9306 19.5646ZM30.4535 24.8804V29.1088H29.3898C27.2215 29.1088 24.726 25.4442 24.726 22.2225C24.726 20.7727 24.9306 20.6519 27.8761 20.6519H30.4535V24.8804Z" fill="black"/>
<path d="M32.9474 19.6044C32.6201 19.9669 32.4974 21.7791 32.5792 24.9202L32.702 29.7125L34.0111 29.8333C37.2021 30.1555 41.1295 22.9469 39.4522 19.8058C39.084 19.1615 38.5521 19.0406 36.2203 19.0406C34.3384 19.0406 33.2747 19.242 32.9474 19.6044ZM38.2658 20.6515C40.6386 21.9402 37.3657 29.1084 34.3793 29.1084H33.3156V24.9202C33.3156 21.9402 33.4793 20.6515 33.8475 20.5307C34.7475 20.1682 37.4476 20.2488 38.2658 20.6515Z" fill="black"/>
<path d="M52.2961 44.8153C50.4552 45.5402 49.5142 48.48 50.3324 50.6546C50.7006 51.5003 52.6234 52.4668 54.0962 52.4668C55.5689 52.4668 57.4508 51.0976 57.4508 50.0103C57.4508 48.8827 55.2008 48.9632 54.5462 50.0908C53.8916 51.3392 53.278 50.4532 53.4416 48.4397C53.5643 46.8288 54.5871 45.5402 54.5871 46.9899C54.5871 47.4732 54.9962 47.6343 56.019 47.6343C56.7963 47.6343 57.4508 47.4329 57.4508 47.1913C57.4508 46.265 56.5917 45.2985 55.3644 44.8556C53.8507 44.332 53.4825 44.332 52.2961 44.8153Z" fill="black"/>
<path d="M0.0980631 45.2989C0.384436 45.5808 0.588987 47.0306 0.588987 48.9233V52.0645H3.57544C5.33459 52.0645 6.76645 51.8631 7.05282 51.5812C7.7483 50.8966 7.66648 48.9636 6.88918 48.5206C6.43917 48.279 6.35735 48.0776 6.68463 47.8763C7.29828 47.5138 7.25737 45.903 6.64372 45.2989C6.35735 45.017 4.88457 44.8157 2.87997 44.8157C0.343525 44.8157 -0.27013 44.9365 0.0980631 45.2989ZM4.5982 46.95C4.68002 47.3527 4.47547 47.6346 4.10728 47.6346C3.69817 47.6346 3.45271 47.2722 3.45271 46.7889C3.45271 45.8224 4.39365 45.9432 4.5982 46.95ZM4.68002 50.0509C4.68002 50.4939 4.39365 50.8563 4.06637 50.8563C3.73908 50.8563 3.45271 50.4939 3.45271 50.0509C3.45271 49.6079 3.73908 49.2455 4.06637 49.2455C4.39365 49.2455 4.68002 49.6079 4.68002 50.0509Z" fill="black"/>
<path d="M7.95312 48.4401V52.0645H9.38499C10.735 52.0645 10.8168 51.9839 10.8168 50.6147C10.8168 48.8428 11.676 48.9233 12.2487 50.7758C12.576 51.9034 12.8215 52.0645 14.0079 52.0645C15.3579 52.0645 15.3579 52.0242 15.1124 50.7355C14.9488 50.0509 14.6215 49.2455 14.417 48.9636C14.1715 48.6817 14.2124 48.3998 14.4988 48.2387C14.7033 48.1179 14.9079 47.4735 14.9079 46.8292C14.9079 45.2586 13.9669 44.8157 10.6532 44.8157H7.95312V48.4401ZM12.0032 46.3862C12.6987 46.8292 12.2896 48.0373 11.4305 48.0373C11.0623 48.0373 10.8168 47.6749 10.8168 47.0306C10.8168 45.9432 11.0623 45.8224 12.0032 46.3862Z" fill="black"/>
<path d="M16.1367 48.4401V52.0645H17.5686H19.0004V48.4401V44.8157H17.5686H16.1367V48.4401Z" fill="black"/>
<path d="M20.2266 48.4401V52.0645H22.4766C24.4403 52.0645 24.7267 51.9839 24.7267 51.259C24.7267 50.7355 24.4403 50.4536 23.9085 50.4536C23.1721 50.4536 23.0903 50.1717 23.0903 47.6346V44.8157H21.6584H20.2266V48.4401Z" fill="black"/>
<path d="M25.5469 48.4401V52.0645H27.7969C29.7606 52.0645 30.047 51.9839 30.047 51.259C30.047 50.7355 29.7606 50.4536 29.2288 50.4536C28.4924 50.4536 28.4106 50.1717 28.4106 47.6346V44.8157H26.9787H25.5469V48.4401Z" fill="black"/>
<path d="M30.4531 48.4401V52.0645H32.0895H33.726V48.4401V44.8157H32.0895H30.4531V48.4401Z" fill="black"/>
<path d="M35.0367 48.1984C34.5458 50.0509 34.1367 51.702 34.1367 51.8228C34.1367 51.9436 34.7913 52.0645 35.5686 52.0645C36.5504 52.0645 37.0004 51.8631 37.0004 51.4604C37.0004 51.1785 37.205 49.9301 37.4505 48.7622C37.9823 46.3862 38.3096 46.7084 38.8005 50.1314C39.0869 52.0242 39.1278 52.0645 40.5187 52.0645C41.7051 52.0645 41.9097 51.9436 41.746 51.3396C41.6233 50.9771 41.2551 49.326 40.8869 47.7152L40.1914 44.8157H38.0641H35.9368L35.0367 48.1984Z" fill="black"/>
<path d="M42.3164 48.4401V52.0645H43.5437C44.7301 52.0645 44.771 51.9839 44.8119 50.3328V48.6414L45.5892 50.3328C46.3256 51.9436 46.4893 52.0645 48.0439 52.0645H49.6803V48.4401V44.8157H48.2893H46.8984L47.062 46.7084L47.2256 48.6414L46.3256 46.7084C45.5074 44.9365 45.3438 44.8157 43.871 44.8157H42.3164V48.4401Z" fill="black"/>
<path d="M57.8633 48.4401V52.0645H60.9316C63.7135 52.0645 63.9998 51.9839 63.9998 51.259C63.9998 50.5744 63.7135 50.4536 62.3634 50.4536C61.177 50.4536 60.727 50.2925 60.727 49.8495C60.727 49.4468 61.1361 49.2455 61.9543 49.2455C62.8953 49.2455 63.1816 49.0844 63.1816 48.4401C63.1816 47.7957 62.8953 47.6346 61.9543 47.6346C61.1361 47.6346 60.727 47.4333 60.727 47.0306C60.727 46.6279 61.1361 46.4265 62.118 46.4265C63.1407 46.4265 63.5498 46.2251 63.7135 45.6211C63.918 44.8559 63.7135 44.8157 60.8906 44.8157H57.8633V48.4401Z" fill="black"/>
</svg>
