<svg width="64" height="33" viewBox="0 0 64 33" fill="none" xmlns="http://www.w3.org/2000/svg">
<path d="M32.0016 32.0745C14.1911 32.0745 0.371094 24.8319 0.371094 16.2593C0.371094 7.61254 14.1909 0.370117 32.0016 0.370117C49.7386 0.370117 63.6324 7.61275 63.6324 16.2593C63.6324 24.8321 49.7386 32.0745 32.0016 32.0745Z" fill="#BE0030"/>
<path d="M0 16.2587C0 7.24263 14.2633 0 32 0C49.7367 0 64 7.24263 64 16.2587C64 25.2011 49.7367 32.4435 32 32.4435C14.2633 32.4435 0 25.2009 0 16.2587ZM32 2.95605C13.8936 2.95605 2.95583 10.3464 2.95583 16.2587C2.95583 22.0971 13.8936 29.4875 32 29.4875C50.1062 29.4875 61.0439 22.0971 61.0439 16.2587C61.0439 10.3466 50.1064 2.95605 32 2.95605ZM30.3002 1.47802C30.3002 1.03451 29.9308 0.739118 29.5611 0.739118C29.1176 0.739118 28.8222 1.10836 28.8222 1.55187C28.8222 1.92154 29.1916 2.21714 29.5611 2.21714C30.0046 2.21714 30.3002 1.84748 30.3002 1.47802ZM27.8613 1.55187C27.7875 1.18263 27.4921 0.886814 27.0486 0.886814C26.6789 0.960662 26.3833 1.25627 26.3833 1.69978C26.3833 2.06923 26.7528 2.4389 27.1961 2.36484C27.5657 2.36484 27.8613 1.99538 27.8613 1.55208V1.55187ZM25.4226 1.77363C25.3486 1.40418 24.9791 1.10857 24.6097 1.18242C24.1662 1.18242 23.8706 1.55187 23.9446 1.99538C24.0185 2.36484 24.3881 2.66044 24.7574 2.58659C25.2009 2.58659 25.4965 2.21714 25.4226 1.77384V1.77363ZM22.9837 2.06923C22.9099 1.69978 22.5402 1.40418 22.171 1.47802C21.7275 1.55187 21.5057 1.92154 21.5057 2.36505C21.5796 2.73429 21.9492 3.03011 22.3927 2.95605C22.762 2.8822 23.0578 2.51253 22.9837 2.06923ZM20.6189 2.51275C20.5451 2.14329 20.1015 1.84748 19.7319 1.92154C19.2886 2.06923 19.0668 2.4389 19.1409 2.80835C19.2147 3.25186 19.658 3.47341 20.0277 3.39956C20.3971 3.32571 20.6928 2.8822 20.6189 2.51253V2.51275ZM18.1798 3.03011C18.1059 2.66044 17.7363 2.4389 17.293 2.51275C16.9235 2.66044 16.7018 3.03011 16.7756 3.39956C16.9235 3.84307 17.293 4.06462 17.6626 3.91692C18.1059 3.84286 18.3277 3.47341 18.1798 3.02989V3.03011ZM15.8888 3.69516C15.7411 3.32571 15.2976 3.10395 14.9281 3.25165C14.5587 3.32571 14.3369 3.76901 14.4846 4.13868C14.5587 4.58219 15.002 4.72989 15.3717 4.65583C15.8152 4.50813 15.9629 4.06462 15.8888 3.69516ZM13.524 4.50792C13.3761 4.13868 13.0066 3.91692 12.6369 4.06462C12.1936 4.21253 12.0459 4.65583 12.1936 5.02549C12.3415 5.39494 12.7848 5.6167 13.1545 5.469C13.5238 5.3211 13.6717 4.87758 13.5238 4.50813L13.524 4.50792ZM11.3068 5.39494C11.0851 5.02549 10.6418 4.87758 10.3462 5.09934C9.97671 5.24725 9.8288 5.69055 9.97671 6.06C10.1244 6.42967 10.5679 6.57736 10.9374 6.42967C11.3068 6.20791 11.4547 5.7644 11.3068 5.39494ZM9.08968 6.50351C8.94199 6.13406 8.42463 6.06 8.12902 6.28176C7.75957 6.50351 7.61166 6.94682 7.83342 7.24242C8.05517 7.61209 8.49848 7.75978 8.86814 7.53802C9.23738 7.31648 9.31165 6.87297 9.08968 6.50351ZM7.02045 7.83384C6.79869 7.46418 6.35539 7.39033 5.98573 7.61208C5.69012 7.90769 5.61649 8.35099 5.83803 8.6466C6.13364 9.01626 6.57715 9.09011 6.87276 8.86835C7.242 8.57275 7.31627 8.12945 7.02045 7.83384ZM5.09892 9.31186C4.80331 9.01626 4.36001 9.01626 4.0644 9.31186C3.7688 9.60747 3.7688 10.0508 4.0644 10.3464C4.36001 10.642 4.80331 10.642 5.09892 10.3464C5.39452 10.0508 5.39452 9.60747 5.09892 9.31186ZM3.4732 11.0855C3.10353 10.8637 2.66023 10.9376 2.43847 11.2334C2.21672 11.6026 2.29056 12.0462 2.58638 12.2679C2.95562 12.4897 3.39914 12.4158 3.62089 12.1202C3.84265 11.7506 3.7688 11.3072 3.4732 11.0855ZM2.14266 13.1547C1.77342 13.007 1.3299 13.2288 1.18221 13.5982C1.0343 13.9677 1.25605 14.411 1.62572 14.5589C2.06902 14.6327 2.43847 14.4851 2.58638 14.0415C2.73408 13.6721 2.51232 13.3026 2.14287 13.1547H2.14266ZM32.7387 30.9653C32.7387 30.596 32.3694 30.2264 31.9998 30.2264C31.5563 30.2264 31.2607 30.596 31.2607 30.9655C31.2607 31.409 31.5563 31.7044 31.9998 31.7044C32.3692 31.7044 32.7389 31.4088 32.7389 30.9655L32.7387 30.9653ZM30.3 30.9653C30.3 30.596 30.0044 30.2264 29.5609 30.2264C29.1916 30.2264 28.822 30.522 28.822 30.8916C28.822 31.3352 29.1176 31.7044 29.5609 31.7044C29.9306 31.7044 30.3 31.4088 30.3 30.9655V30.9653ZM27.8611 30.8916C27.8611 30.4481 27.5655 30.0787 27.1961 30.0787C26.7525 30.0787 26.3833 30.3743 26.3833 30.7437C26.3833 31.1872 26.6787 31.4829 27.0484 31.5567C27.4919 31.5567 27.7873 31.2611 27.8611 30.8916ZM25.4224 30.6699C25.4963 30.2264 25.2007 29.8569 24.7574 29.8569C24.3877 29.7831 24.0182 30.0787 23.9444 30.4481C23.8706 30.8916 24.1662 31.2611 24.6095 31.3352C24.9789 31.3352 25.3486 31.0393 25.4222 30.6699H25.4224ZM22.9835 30.3743C23.0576 29.9308 22.762 29.5613 22.3923 29.4873C21.9488 29.4134 21.5796 29.709 21.5796 30.0787C21.5055 30.5222 21.7273 30.8914 22.1706 30.9655C22.5402 31.0393 22.9097 30.7437 22.9835 30.3743ZM20.6187 29.9308C20.6925 29.5613 20.3969 29.118 20.0275 29.044C19.658 28.9701 19.2147 29.1919 19.1405 29.6352C19.0668 30.0046 19.2884 30.4481 19.7319 30.5222C20.1013 30.596 20.5446 30.3004 20.6187 29.9308ZM18.1798 29.4134C18.3277 29.0442 18.1059 28.6007 17.6626 28.5266C17.293 28.3789 16.9235 28.6004 16.7756 29.044C16.7018 29.4134 16.9235 29.7831 17.293 29.931C17.7365 30.0046 18.1059 29.7831 18.18 29.4134H18.1798ZM15.8888 28.7484C15.9629 28.3789 15.815 27.9356 15.3714 27.7877C15.0022 27.7136 14.5587 27.9354 14.4846 28.3048C14.3369 28.6745 14.5587 29.1178 14.9281 29.1919C15.2976 29.3396 15.7409 29.1178 15.8888 28.7484ZM13.524 27.9356C13.6719 27.5659 13.524 27.1224 13.1545 26.9747C12.7848 26.8268 12.3415 27.0486 12.1936 27.4182C12.0459 27.7875 12.1936 28.231 12.6372 28.3789C13.0066 28.5266 13.3763 28.3048 13.524 27.9354V27.9356ZM11.3068 27.0486C11.4547 26.6791 11.3068 26.2358 10.9376 26.0138C10.5679 25.8661 10.1244 26.0138 9.97671 26.3835C9.8288 26.753 9.97671 27.1963 10.346 27.3442C10.6418 27.5659 11.0853 27.418 11.3068 27.0486ZM9.08968 25.94C9.31144 25.5705 9.23759 25.1272 8.86814 24.9055C8.49848 24.6837 8.05517 24.8314 7.83342 25.2011C7.61166 25.4967 7.75957 26.0138 8.12902 26.1618C8.42463 26.3835 8.94178 26.3095 9.08968 25.94ZM7.02066 24.6099C7.31606 24.3143 7.24221 23.8708 6.87276 23.5752C6.57715 23.3534 6.13364 23.4273 5.83803 23.7969C5.61628 24.0925 5.69034 24.5358 5.98594 24.8314C6.35539 25.0532 6.79869 24.9793 7.02045 24.6099H7.02066ZM5.09913 23.1316C5.39473 22.836 5.39473 22.3927 5.09913 22.0971C4.80352 21.8015 4.36001 21.8015 4.0644 22.0971C3.7688 22.3927 3.7688 22.836 4.0644 23.1316C4.36001 23.4273 4.80352 23.4273 5.09913 23.1316ZM3.4732 21.358C3.7688 21.1363 3.84265 20.693 3.62089 20.3233C3.39914 20.0277 2.95583 19.9541 2.58638 20.1756C2.29078 20.3974 2.21672 20.8407 2.43847 21.2103C2.66023 21.5059 3.10353 21.5796 3.4732 21.358ZM2.14287 19.2888C2.51232 19.2149 2.73408 18.7714 2.58638 18.4018C2.43847 17.9585 2.06902 17.8108 1.62551 17.8846C1.25605 18.0323 1.0343 18.4758 1.18199 18.8453C1.3299 19.2149 1.77342 19.4365 2.14287 19.2888ZM1.47802 16.9978C1.92154 16.9237 2.21693 16.6281 2.21693 16.1848C2.21693 15.8154 1.84748 15.4457 1.40418 15.5196C1.03451 15.5196 0.738906 15.8152 0.738906 16.2587C0.738906 16.6281 1.10836 16.9978 1.47802 16.9978ZM62.522 15.5198C62.1525 15.4457 61.7831 15.8154 61.7831 16.1848C61.7831 16.6283 62.0787 16.9237 62.522 16.9976C62.8916 16.9976 63.2611 16.6283 63.2611 16.2587C63.2611 15.8152 62.9655 15.5198 62.522 15.5198ZM62.3004 17.8846C61.9308 17.8108 61.4875 17.9585 61.4134 18.402C61.2657 18.7714 61.4875 19.2147 61.8569 19.2888C62.2264 19.4365 62.6697 19.2149 62.8176 18.8453C62.8916 18.4758 62.7437 18.0325 62.3004 17.8846ZM61.4134 20.1756C61.0442 19.9538 60.6007 20.0277 60.3789 20.3233C60.0833 20.693 60.231 21.1363 60.5266 21.358C60.8963 21.5798 61.3396 21.5059 61.5613 21.2103C61.7831 20.8407 61.709 20.3974 61.4134 20.1756ZM59.9354 22.0971C59.6398 21.8015 59.1226 21.8015 58.8268 22.0971C58.6051 22.3927 58.6051 22.836 58.8268 23.1316C59.1224 23.4273 59.6398 23.4273 59.9354 23.1316C60.1571 22.836 60.1571 22.3927 59.9354 22.0971ZM58.0879 23.7969C57.8661 23.4273 57.4226 23.3534 57.127 23.5752C56.7576 23.8708 56.6835 24.3143 56.9055 24.6099C57.2011 24.9791 57.6444 25.0534 57.94 24.8314C58.3094 24.5358 58.3835 24.0925 58.0879 23.7969ZM56.0925 25.2011C55.9446 24.8314 55.4272 24.6837 55.1316 24.9055C54.7624 25.127 54.6145 25.5705 54.836 25.94C55.0578 26.3095 55.5013 26.3835 55.8708 26.1618C56.2402 26.0138 56.3143 25.4967 56.0925 25.2011ZM54.0231 26.3835C53.8015 26.0138 53.358 25.8661 52.9886 26.0138C52.6189 26.2356 52.4712 26.6791 52.693 27.0486C52.8407 27.418 53.2842 27.5659 53.6536 27.3442C54.0231 27.1965 54.171 26.753 54.0231 26.3835ZM51.8061 27.418C51.6582 27.0486 51.2149 26.8268 50.8453 26.9745C50.4758 27.1224 50.2541 27.5659 50.4018 27.9354C50.5497 28.3048 50.9932 28.5266 51.3626 28.3789C51.7321 28.231 51.9538 27.7877 51.8061 27.418ZM49.5152 28.305C49.3672 27.9354 48.9978 27.7136 48.5543 27.7877C48.1848 27.9354 47.9631 28.3789 48.1108 28.7484C48.2587 29.1178 48.6283 29.3396 49.0716 29.1919C49.4411 29.1178 49.6629 28.6745 49.5152 28.3048V28.305ZM47.224 29.044C47.0763 28.6004 46.7068 28.3789 46.2633 28.5266C45.8938 28.6004 45.6721 29.044 45.7459 29.4136C45.8938 29.7829 46.2633 30.0046 46.633 29.9308C47.0763 29.7831 47.298 29.4134 47.224 29.044ZM44.8591 29.6352C44.7114 29.1916 44.3418 28.9701 43.9723 29.044C43.5288 29.1178 43.3072 29.5613 43.3811 29.931C43.4549 30.3002 43.8246 30.596 44.2681 30.522C44.6374 30.4481 44.933 30.0046 44.8591 29.6352ZM42.4204 30.0787C42.3464 29.709 41.9769 29.4134 41.6075 29.4875C41.164 29.5613 40.9422 29.931 40.9422 30.3743C41.0163 30.7437 41.3857 31.0393 41.8292 30.9655C42.1985 30.8916 42.4943 30.522 42.4204 30.0785V30.0787ZM40.0554 30.4481C39.9815 30.0787 39.6119 29.7831 39.1686 29.8569C38.7991 29.8569 38.5035 30.2264 38.5774 30.6697C38.5774 31.0393 38.9468 31.3349 39.3903 31.3349C39.7598 31.2611 40.0554 30.8914 40.0554 30.4481ZM37.6167 30.7437C37.5429 30.3743 37.247 30.0787 36.8037 30.0787C36.4343 30.0787 36.0646 30.4481 36.1387 30.8914C36.1387 31.2611 36.5079 31.5567 36.9514 31.5567C37.3211 31.4829 37.6167 31.1872 37.6167 30.7439V30.7437ZM35.1778 30.8916C35.1778 30.522 34.8083 30.2264 34.4389 30.2264C33.9954 30.2264 33.6998 30.596 33.6998 30.9655C33.6998 31.409 34.0692 31.7046 34.4389 31.7046C34.8824 31.7046 35.1778 31.3349 35.1778 30.8916ZM31.2609 1.47824C31.2609 1.84769 31.5565 2.21714 32 2.21714C32.3695 2.21714 32.7391 1.8479 32.7391 1.47824C32.7391 1.03472 32.3695 0.739118 32 0.739118C31.5565 0.739118 31.2609 1.03472 31.2609 1.47824ZM33.6998 1.47824C33.6998 1.84769 33.9954 2.21714 34.4389 2.21714C34.8081 2.21714 35.1778 1.92154 35.1778 1.55208C35.1778 1.10857 34.8822 0.73933 34.4389 0.73933C34.0692 0.73933 33.6998 1.03472 33.6998 1.47824ZM36.1387 1.55208C36.0646 1.9956 36.4343 2.36505 36.8037 2.36505C37.2472 2.4389 37.5426 2.06944 37.6165 1.69999C37.6165 1.25648 37.3211 0.960874 36.9514 0.887026C36.5079 0.887026 36.1387 1.18263 36.1387 1.55208ZM38.5771 1.77405C38.5033 2.21757 38.7989 2.58681 39.1684 2.58681C39.6119 2.66087 39.9811 2.36526 40.0554 1.99581C40.0554 1.5523 39.7596 1.18284 39.3901 1.18284C38.9466 1.10899 38.5771 1.4046 38.5771 1.77405ZM40.942 2.06966C40.942 2.51317 41.1637 2.88241 41.6073 2.95647C41.9767 3.03032 42.3462 2.73471 42.42 2.36526C42.4941 1.92175 42.1985 1.55251 41.829 1.47824C41.3855 1.4046 41.016 1.7002 40.942 2.06966ZM43.3809 2.51317C43.307 2.88241 43.5288 3.32592 43.9721 3.39998C44.3415 3.47383 44.7112 3.25208 44.8591 2.80856C44.9328 2.43932 44.6371 2.06966 44.2677 1.92175C43.8242 1.8479 43.4549 2.14351 43.3809 2.51296V2.51317ZM45.7457 3.03032C45.6719 3.47383 45.8936 3.84328 46.2631 3.91735C46.7066 4.06504 47.0758 3.84328 47.2237 3.39998C47.2978 3.03032 47.076 2.66087 46.6325 2.51296C46.2633 2.43911 45.8936 2.66087 45.7457 3.03032ZM48.1108 3.69559C47.9629 4.06483 48.1846 4.50834 48.5543 4.65625C48.9976 4.7301 49.367 4.5824 49.5149 4.13889C49.6626 3.76944 49.4409 3.32614 49.0714 3.25208C48.6279 3.10417 48.2587 3.32592 48.1108 3.69559ZM50.4018 4.50834C50.2538 4.87801 50.4756 5.32131 50.8453 5.46922C51.2145 5.61691 51.658 5.39537 51.8059 5.0257C51.9536 4.65625 51.7319 4.21295 51.3624 4.06504C50.993 3.91713 50.5497 4.13889 50.4018 4.50855V4.50834ZM52.6927 5.39537C52.471 5.76461 52.6187 6.20812 52.9884 6.42988C53.3578 6.57779 53.8011 6.42988 54.0229 6.06043C54.1708 5.69097 54.0229 5.24767 53.6536 5.09955C53.284 4.87801 52.8404 5.0257 52.6927 5.39537ZM54.836 6.50394C54.6143 6.87318 54.762 7.31669 55.1314 7.53845C55.427 7.76021 55.9444 7.6123 56.0923 7.24284C56.3139 6.94724 56.24 6.50394 55.8705 6.28218C55.5011 6.06043 55.0576 6.13427 54.8358 6.50394H54.836ZM56.9051 7.83405C56.6835 8.12966 56.7574 8.57317 57.1268 8.86878C57.4224 9.09053 57.8659 9.01647 58.0877 8.64702C58.3833 8.35141 58.3092 7.9079 57.9398 7.6123C57.6442 7.39075 57.2007 7.4646 56.9051 7.83405ZM58.8266 9.31208C58.6048 9.60768 58.6048 10.0512 58.8266 10.3468C59.1222 10.6424 59.6396 10.6424 59.9352 10.3468C60.1569 10.0512 60.1569 9.60768 59.9352 9.31208C59.6396 9.01647 59.1224 9.01647 58.8266 9.31208ZM60.5264 11.0857C60.2308 11.3075 60.0829 11.751 60.3787 12.1204C60.6004 12.416 61.0437 12.4901 61.4132 12.2683C61.7088 12.0466 61.7829 11.6031 61.5611 11.2336C61.3393 10.938 60.896 10.8642 60.5264 11.0857ZM61.8567 13.1551C61.4873 13.3028 61.2655 13.6725 61.4132 14.042C61.4873 14.4855 61.9306 14.6332 62.3002 14.5593C62.7435 14.4114 62.8914 13.9681 62.8174 13.5985C62.6697 13.2292 62.2262 13.0072 61.8567 13.1549V13.1551Z" fill="#AAAAAA"/>
<path d="M35.1036 15.2978L34.3645 18.3279H33.4038L34.3645 13.8197C34.4386 13.6718 34.7342 13.6718 34.808 13.8936L35.1036 15.2978ZM36.1381 20.471H33.9212L33.5515 22.1707H31.4823L30.8173 21.5055L31.1129 21.3578H32.6647L33.1082 19.5841H35.9166L36.1381 20.471ZM36.8034 22.1707L36.1381 21.5055L36.3599 21.3578H37.912L35.7687 12.1938L35.9166 12.0459L36.5816 12.7112L38.8726 22.1707H36.8034ZM40.7203 14.4107H39.2423L38.5772 13.7457L38.7249 13.598H40.7203V14.4107ZM41.1638 22.2446L40.4988 21.5795L40.7203 21.3578H42.2724V13.598H44.1939V12.1938L44.4155 12.0459L45.0808 12.7112V14.4109H43.0854V22.2446H41.1638ZM47.8151 14.4107H46.337L45.672 13.7457L45.8935 13.598H47.8151V14.4107ZM48.2586 22.2446L47.5933 21.5795L47.8151 21.3578H49.3671V13.598H51.2885V12.1938L51.5102 12.0459L52.1753 12.7112V14.4109H50.2539V22.2446H48.2586ZM53.21 21.3578H54.7619V12.1938L54.9098 12.0459L55.5748 12.7112V22.1707H53.6533L52.9882 21.5057L53.21 21.3578ZM12.3416 12.2677C12.5916 12.368 12.818 12.519 13.0067 12.7112C13.1544 12.8589 13.3759 13.0068 13.5979 13.2285C13.7456 13.4501 13.8195 13.5978 13.9674 13.8197C14.263 14.2633 14.4109 14.7804 14.4109 15.1499C14.4109 15.8149 14.0412 16.7019 13.5239 17.1452L13.8935 17.5149C14.337 17.9584 14.6324 18.5494 14.6324 19.4362C14.6324 20.6925 13.6718 22.1707 12.1937 22.1707H8.79418L8.12891 21.5057L8.35066 21.3578H11.5285C12.859 21.3578 13.7456 19.9536 13.7456 18.7712C13.7456 17.6626 13.2282 16.9975 12.637 16.7019L12.3414 16.554L12.637 16.3323C13.1544 16.0367 13.5241 15.1499 13.5241 14.5586C13.5241 13.8197 13.1544 12.8589 12.2676 12.4154L12.3414 12.2677H12.3416ZM10.7157 14.1892V15.9628H9.90275V13.3024H10.7896C11.3808 13.3024 11.8243 13.6718 11.972 14.3369C11.8243 14.1892 11.6764 14.1892 11.4546 14.1892H10.7157ZM10.7157 17.9582V20.2492H9.90275V17.0714H11.0852C11.5287 17.0714 11.972 17.5149 12.1199 18.1061C12.0458 17.9582 11.8981 17.9582 11.7502 17.9582H10.7157ZM17.5148 12.1938L17.7364 12.0459L18.4016 12.7112V19.5103C18.4016 19.658 18.4016 19.8797 18.4755 19.9538C17.8843 19.8797 17.5148 19.4362 17.5148 18.845V12.1938ZM19.3623 22.3925C18.6234 22.3925 18.032 22.1707 17.3669 21.6534C16.9234 21.2839 16.4799 20.6927 16.4063 20.5448C16.3322 20.5448 16.2584 20.323 16.1845 20.1753L16.2584 20.1015C16.7019 20.9883 17.6625 21.5795 18.6973 21.5795C20.1753 21.5795 21.4315 20.3233 21.4315 18.845V12.1938L21.5794 12.0459L22.2445 12.7112V19.5103C22.2445 21.136 20.9142 22.3925 19.3623 22.3925ZM29.2652 16.7019L29.4869 16.554L30.1522 17.2193V19.5101C30.1522 21.2837 29.1913 22.3923 27.1961 22.3923C26.5309 22.3923 25.9397 22.1705 25.2746 21.6532C24.8311 21.2837 24.3137 20.6925 24.2399 20.5446C24.2399 20.4707 24.166 20.3228 24.0181 20.1011H24.166C24.6096 20.914 25.5702 21.5793 26.6047 21.5793C28.4524 21.5793 29.2654 20.4707 29.2654 18.8448V16.7015L29.2652 16.7019ZM28.0089 18.6973H27.4915L26.8265 18.0321L26.9744 17.8105H28.0089V18.6973ZM27.9351 14.4107C27.7871 14.263 27.4915 14.1892 27.27 14.263C26.6788 14.263 26.2353 14.7804 26.2353 15.3716V19.5103C26.2353 19.7318 26.3091 19.9538 26.457 20.1015C25.7918 19.9536 25.4223 19.4362 25.4223 18.8452V14.7063C25.4223 14.0411 25.8658 13.4501 26.6047 13.376C27.27 13.3022 27.861 13.7455 27.9351 14.4107ZM30.1522 15.5193H28.4524L27.7871 14.8542L28.0089 14.7066H29.2652C29.2652 13.598 28.8959 12.7112 28.0089 12.2677L28.1568 12.12C28.3045 12.1938 28.4524 12.3415 28.6003 12.4156C28.8219 12.6371 29.0436 12.785 29.3392 13.0806C29.561 13.3762 29.7087 13.5241 29.8566 13.8197C30.0781 14.3369 30.1522 14.7804 30.1522 15.3716V15.5195V15.5193Z" fill="black"/>
<path d="M10.0502 17.294V20.0283H11.085C11.6762 20.0283 12.0456 19.3632 12.0456 18.6241C12.0456 17.8852 11.5285 17.294 11.085 17.294H10.0502ZM10.0502 13.5248V15.7421H10.7893C11.4544 15.7421 11.75 15.3727 11.75 14.6335C11.75 13.8946 11.3065 13.525 10.7893 13.525H10.0502V13.5248ZM12.7847 16.5551C13.4498 16.8505 13.9672 17.5896 13.9672 18.772C13.9672 20.0283 13.0065 21.5063 11.5285 21.5063H8.12891V12.0467H11.3067C13.0065 12.0467 13.7454 13.5248 13.7454 14.5595C13.7454 15.1507 13.3759 16.1854 12.7847 16.5549V16.5551ZM19.6577 18.8459V12.0467H21.5792V18.8459C21.5792 20.4718 20.2489 21.7281 18.697 21.7281C17.0711 21.7281 15.741 20.4718 15.741 18.8459V12.0467H17.7362V18.8459C17.7362 19.3632 18.1058 19.8067 18.697 19.8067C19.2882 19.8067 19.6577 19.3632 19.6577 18.8459ZM27.7869 18.8459V18.0331H26.8263V16.5549H29.4867V18.8459C29.4867 20.6195 28.5999 21.7281 26.6045 21.7281C24.9786 21.7281 23.6485 20.4718 23.6485 18.8459V14.7074C23.6485 13.0815 24.9786 11.8252 26.6045 11.8252C28.5999 11.8252 29.4867 12.9338 29.4867 14.7074V14.8551H27.7869V14.7074C27.7869 14.0421 27.2696 13.525 26.6045 13.5988C26.0133 13.5988 25.5698 14.1162 25.5698 14.7074V18.8459C25.5698 19.3632 26.0133 19.8806 26.6045 19.9544C27.2696 19.9544 27.7869 19.5109 27.7869 18.8459ZM35.4729 18.107L34.5861 13.8944L33.6254 18.1067L35.4729 18.107ZM30.817 21.5065L33.2559 12.0467H35.9164L38.1335 21.5065H36.1381L35.7685 19.8067H33.2559L32.8863 21.5065H30.817ZM40.4986 13.7465H38.577V12.0467H44.4153V13.7465H42.4199V21.5804H40.4986V13.7465ZM47.5933 13.7465H45.6718V12.0467H51.51V13.7465H49.5885V21.5804H47.5931L47.5933 13.7465ZM54.9096 21.5065H52.988V12.0467H54.9096V21.5065Z" fill="white"/>
<path d="M34.142 9.386C34.5855 9.386 34.8811 9.01655 34.8811 8.57304C34.8811 8.20358 34.5855 7.83413 34.142 7.83413H32.5902V9.386H34.142ZM34.142 6.72556C34.2295 6.72592 34.3162 6.70896 34.397 6.67566C34.4779 6.64235 34.5514 6.59336 34.6132 6.53151C34.675 6.46966 34.724 6.39617 34.7573 6.31529C34.7905 6.23441 34.8075 6.14775 34.8071 6.06029C34.8075 5.97285 34.7905 5.88621 34.7572 5.80535C34.7239 5.7245 34.6749 5.65104 34.6131 5.58921C34.5513 5.52738 34.4778 5.47841 34.397 5.44511C34.3161 5.41182 34.2295 5.39487 34.142 5.39523H32.5902V6.72556H34.142ZM30.373 7.83413V8.20337H29.4121V6.35589H30.373V6.72556H31.3337V5.39523H29.0427V5.83875H28.082V4.43457H34.142C35.0291 4.43457 35.8418 5.17348 35.8418 6.13435C35.8418 6.57786 35.6941 6.9471 35.3983 7.24271C35.6941 7.61237 35.9157 8.05567 35.9157 8.49897C35.9157 9.5337 35.1029 10.3467 34.142 10.3467H28.082V8.86864H29.0427V9.386H31.3337V7.83392H30.373V7.83413Z" fill="black"/>
</svg>
