<svg width="64" height="64" viewBox="0 0 64 64" fill="none" xmlns="http://www.w3.org/2000/svg">
<g clip-path="url(#clip0_10704_16221)">
<path d="M31.9545 0C14.293 0 0 14.293 0 32.0455C0 49.798 14.293 64.091 32.0455 64.091C49.798 64.091 64 49.707 64 32.0455C64 14.293 49.6159 0 31.9545 0ZM31.9545 60.6316C16.2048 60.6316 3.36842 47.7952 3.36842 32.0455C3.36842 16.2959 16.1138 3.36842 31.9545 3.36842C47.7952 3.36842 60.5405 16.2048 60.5405 31.9545C60.6316 47.7952 47.7952 60.6316 31.9545 60.6316Z" fill="black"/>
<path d="M37.2375 17.3867H24.7652V21.7565H12.293V37.7793C12.293 46.9741 19.394 56.2601 19.6671 56.8063C20.0312 56.2601 24.9473 49.7963 26.586 42.2402C28.0426 45.7906 29.8634 49.2501 32.1393 52.4365C32.5035 51.8902 37.4196 45.4265 39.0583 37.8703C40.5149 41.4208 42.4267 44.8803 44.6116 48.0666C44.9758 47.4293 51.9857 38.2345 51.9857 29.0396V12.9258H37.2375V17.3867ZM24.7652 37.9613C24.7652 44.9713 20.0312 51.344 19.7581 51.8902C19.485 51.435 14.66 44.9713 14.66 37.9613V24.1235H24.7652V37.9613ZM37.2375 33.5915C37.2375 40.6015 32.5035 46.9741 32.2304 47.5204C31.9573 47.0652 27.1322 40.6015 27.1322 33.5915V19.6626H37.2375V33.5915ZM39.6045 15.2928H49.7098V29.2217C49.7098 36.2316 44.9758 42.6043 44.6116 43.1505C44.3385 42.6953 39.5135 36.3227 39.5135 29.2217L39.6045 15.2928Z" fill="black"/>
<path d="M49.1624 26.9458V15.748H40.0586L48.9804 31.5887C49.0714 30.8604 49.1624 29.4038 49.1624 26.9458Z" fill="black"/>
<path d="M47.7969 35.9593L40.0586 22.3945V29.4955C40.0586 33.9564 42.4256 38.9635 44.6105 42.2409C45.9761 40.2381 46.9775 38.1442 47.7969 35.9593Z" fill="black"/>
<path d="M36.6898 31.3157V20.209H27.5859L36.5077 36.0497C36.5987 35.2303 36.6898 33.7737 36.6898 31.3157Z" fill="black"/>
<path d="M35.418 40.3284L27.6797 26.7637V33.8647C27.6797 38.3256 30.0467 43.3327 32.2316 46.61C33.5061 44.6072 34.5076 42.5133 35.418 40.3284Z" fill="black"/>
<path d="M24.3109 35.7778V24.5801H15.207L24.1288 40.4208C24.2198 39.6925 24.3109 38.2358 24.3109 35.7778Z" fill="black"/>
<path d="M22.9453 44.7905L15.207 31.1348V38.2358C15.207 42.6966 17.574 47.7038 19.759 50.9811C21.0335 49.0693 22.126 46.9755 22.9453 44.7905Z" fill="black"/>
</g>
<defs>
<clipPath id="clip0_10704_16221">
<rect width="64" height="64" fill="white"/>
</clipPath>
</defs>
</svg>
