<svg width="64" height="40" viewBox="0 0 64 40" fill="none" xmlns="http://www.w3.org/2000/svg">
<path fill-rule="evenodd" clip-rule="evenodd" d="M32.065 39.4604C49.7907 39.433 64.0068 30.5804 64 19.7507C63.9932 8.83207 49.7633 0.00684126 32.0376 0L32.0445 3.76953C48.5251 3.77638 61.8655 10.8708 61.8724 19.7439C61.8792 28.5417 48.5524 35.6567 32.065 35.684V39.4604ZM31.9897 0C14.3324 0.0136825 -0.00683881 8.86627 2.44695e-06 19.7986C0.013685 30.6352 14.3598 39.4741 32.0171 39.4604H32.065V35.6909H32.0103C15.6118 35.7045 2.23709 28.5965 2.23025 19.7918C2.22341 10.905 15.5844 3.78322 31.9829 3.76953H32.0376V0H31.9897Z" fill="#EC1C24"/>
<path fill-rule="evenodd" clip-rule="evenodd" d="M41.3845 27.0573L45.3661 27.0505L45.3593 16.036H49.7445L50.9007 17.3701V23.4041L46.2144 23.4109V27.0505L52.8915 27.0436H54.8823L54.8754 14.9962L52.652 12.3828L41.3708 12.3965L41.3845 27.0573ZM30.5274 27.0642L34.9195 27.0573L34.9126 21.1054H38.258L39.8589 19.6209L39.852 12.3965H35.4394V16.987L34.7895 17.5959L30.5206 17.6027L30.5274 27.0642ZM24.5823 19.6277L26.1832 21.1123L29.6791 21.1054V17.6027L29.0292 16.9938V12.3965L24.5755 12.4102L24.5823 19.6277ZM23.0567 14.6883L21.107 12.4033L16.0787 12.4102L16.0855 15.995H19.2804V18.5947H16.0855L16.0923 20.8865H19.3077L19.3009 23.493H16.0923V27.0778L20.9154 27.071L23.0636 25.5864L23.0567 20.6813L22.0579 19.7509L23.0567 18.9025V14.6883ZM16.0855 12.4102L9.12109 12.417L9.13478 27.0778H12.9043V20.8865L16.0923 20.8797L16.0855 18.5878H12.8906V15.9882H16.0855V12.4102ZM16.0923 23.4862V27.071H13.7458V23.4862H16.0923Z" fill="#EC1C24"/>
</svg>
