<svg width="64" height="63" viewBox="0 0 64 63" fill="none" xmlns="http://www.w3.org/2000/svg">
<g clip-path="url(#clip0_10704_16236)">
<path d="M36.2541 56.9494C35.5639 57.2406 35.5639 56.7552 35.9583 56.5611C38.1277 55.5904 39.9027 53.8431 40.9874 51.8047C39.2124 52.8725 37.9305 52.6783 36.55 53.5519C35.1694 54.4256 34.5778 56.1728 33 57.2406C34.775 58.9878 36.1555 59.4732 37.1416 59.4732C37.9305 59.5702 38.7194 59.4732 39.5083 59.279C41.4805 58.8908 43.1568 57.9201 44.7346 57.6289C41.2833 56.464 38.1277 56.2699 36.2541 56.9494Z" fill="black"/>
<path d="M28.6622 59.8627C26.4927 60.4451 23.4358 61.6099 20.3789 61.6099C20.5761 61.9012 20.872 62.1924 21.1678 62.4836C21.365 62.5806 21.4636 62.5806 21.6608 62.5806C25.0136 61.9012 27.5774 60.5422 30.4371 59.7656C29.8455 59.7656 29.1552 59.7656 28.6622 59.8627Z" fill="black"/>
<path d="M46.1151 54.815C44.3401 54.912 42.6637 55.3974 41.0859 55.9798C43.0581 55.7857 45.622 58.0183 48.5803 56.0769C48.9748 55.7857 50.3553 55.2033 51.0456 54.815C49.8622 54.815 48.1859 54.5238 46.1151 54.815Z" fill="black"/>
<path d="M39.6133 55.4929C42.7688 54.7164 45.4313 52.4838 46.7132 49.4746C45.1355 50.5424 44.248 50.2512 42.3744 51.9984C41.6841 52.6779 40.8952 54.6193 39.6133 55.4929Z" fill="black"/>
<path d="M25.8032 2.00841C22.2532 1.62013 20.4782 2.88204 19.0977 4.43515C19.8865 4.43515 20.6754 4.43515 21.3657 4.33808C23.0421 3.9498 24.6198 3.07617 25.8032 2.00841Z" fill="black"/>
<path d="M17.9205 7.05361C19.301 6.85947 20.5829 6.27705 21.6677 5.40343C19.5968 4.91808 17.526 5.59756 16.0469 7.05361C16.6385 7.15068 17.2302 7.15068 17.9205 7.05361Z" fill="black"/>
<path d="M10.6168 9.6773C11.9974 8.51247 12.9835 7.05643 13.5751 5.40625C11.1099 6.37694 9.4335 8.51247 9.03906 11.1333C9.13767 10.9392 10.0252 10.1627 10.6168 9.6773Z" fill="black"/>
<path d="M11.6055 9.77666C12.1971 9.77666 12.7888 9.77666 13.4791 9.67959C14.761 9.38838 15.9443 8.80597 16.9304 7.83527C14.9582 7.447 12.8874 8.22355 11.6055 9.77666Z" fill="black"/>
<path d="M13.6745 10.6484C10.6176 10.7455 9.43428 11.7162 8.15234 13.7547C8.744 13.5605 9.33567 13.3664 9.92733 13.1722C11.3079 12.6869 12.5898 11.8133 13.6745 10.6484Z" fill="black"/>
<path d="M19.0008 2.58984C15.9439 3.56054 14.8592 4.6283 14.0703 6.95797C16.8314 6.08434 17.9161 4.72537 19.0008 2.58984Z" fill="black"/>
<path d="M7.36723 19.2871C4.90197 20.549 3.42282 23.1699 3.81726 25.8878C4.11309 25.4996 4.31031 25.0142 4.60614 24.6259C5.88808 23.0728 6.77557 21.2285 7.36723 19.2871Z" fill="black"/>
<path d="M-0.03125 34.041C0.16597 34.7205 0.264581 35.3029 0.363191 35.9824C0.757632 38.7974 3.71594 39.9623 4.89926 40.9329C3.91316 38.215 2.23678 35.7883 -0.03125 34.041Z" fill="black"/>
<path d="M12.4913 48.9902C12.0968 48.2136 11.801 46.6605 11.1107 45.3015C10.4205 44.2338 9.73018 43.166 8.9413 42.1953C8.34964 45.5927 10.8149 47.6312 12.4913 48.9902Z" fill="black"/>
<path d="M18.0105 52.6783C17.123 51.8046 16.4327 49.6691 15.6438 48.8926C14.1647 47.3394 13.7702 47.4365 12.4883 45.9805C12.8827 48.9896 15.0521 51.6105 18.0105 52.6783Z" fill="black"/>
<path d="M1.83594 40.3496C1.93455 40.6408 2.4276 41.5144 2.82204 42.291C3.80814 44.4265 5.97757 45.5914 8.2456 46.2708C6.96367 43.8441 4.49841 41.9027 1.83594 40.3496Z" fill="black"/>
<path d="M8.44922 50.9336C8.74505 51.1277 9.43532 51.7102 10.1256 52.2926C12.295 54.1369 15.0561 53.2633 17.5214 53.7486C14.07 51.4189 10.6186 51.3219 8.44922 50.9336Z" fill="black"/>
<path d="M5.19141 46.2734C5.38863 46.4676 5.98029 47.3412 6.47334 47.9236C8.44554 50.4474 11.4038 50.1562 13.0802 50.7386C10.9108 48.506 8.14971 46.9529 5.19141 46.2734Z" fill="black"/>
<path d="M7.85755 42.1001C8.05477 39.091 6.3784 37.9262 6.18118 36.373C5.49091 38.8969 5.78674 41.1294 8.15338 44.1386C7.95616 43.4591 7.85755 42.7796 7.85755 42.1001Z" fill="black"/>
<path d="M4.80314 38.1183C4.90175 37.3417 5.00036 36.6622 5.09897 35.9828C5.59202 33.8472 5.29619 32.5853 5.09897 30.5469C3.22537 33.3619 3.42259 35.4974 4.80314 38.1183Z" fill="black"/>
<path d="M1.25068 33.8476C1.74373 34.2359 2.23678 35.0124 2.63123 35.4978C2.72984 32.4886 1.74373 29.4795 -0.03125 27.0527C0.363191 29.1883 -0.721521 31.9062 1.25068 33.8476Z" fill="black"/>
<path d="M3.32133 31.3242C3.51855 30.9359 3.81438 30.4505 4.11021 30.0623C5.8852 28.0238 5.58937 26.2765 6.18103 24.5293C4.40604 26.2765 3.0255 27.7326 3.32133 31.3242Z" fill="black"/>
<path d="M3.02525 22.5898C4.30719 19.8718 4.89885 17.6392 4.30719 14.8242C3.81414 16.0861 2.43359 17.5422 2.43359 19.4836C2.5322 20.3572 3.12386 22.4927 3.02525 22.5898Z" fill="black"/>
<path d="M2.23112 28.9937C2.62556 25.8875 3.21722 24.3343 1.73806 20.8398C1.34362 22.393 -0.135529 24.9168 1.24501 27.3435C1.54084 27.8288 1.93528 28.4113 2.23112 28.9937Z" fill="black"/>
<path d="M10.3191 14.0469C7.75527 14.7264 5.88168 16.7648 5.19141 19.1916C5.29002 19.0945 6.37473 18.3179 6.96639 18.0267C8.34693 16.959 9.53025 15.6 10.3191 14.0469Z" fill="black"/>
<path d="M5.39185 16.3763C6.96961 14.4349 7.95571 12.0082 8.15293 9.48438C7.65988 10.0668 7.16683 10.6492 6.67378 11.2316C5.8849 12.2023 5.39185 13.3672 5.29324 14.6291C5.19463 15.2115 5.39185 15.6968 5.39185 16.3763Z" fill="black"/>
<path d="M44.8383 4.43515C43.4578 2.88204 41.5842 1.62013 38.1328 2.00841C39.4147 3.17324 40.8939 3.9498 42.4717 4.33808C43.2605 4.43515 44.0494 4.43515 44.8383 4.43515Z" fill="black"/>
<path d="M42.3672 5.31084C43.3533 6.28153 44.6352 6.86395 46.0158 7.05809C46.6074 7.15516 47.2977 7.15516 47.8894 7.05809C46.5088 5.60205 44.438 4.92256 42.3672 5.31084Z" fill="black"/>
<path d="M53.3138 9.67672C53.8068 10.1621 54.7929 10.9386 54.8915 11.0357C54.4971 8.51188 52.8207 6.27929 50.3555 5.30859C51.0457 7.05584 52.0318 8.51188 53.3138 9.67672Z" fill="black"/>
<path d="M52.3279 9.77482C51.046 8.22171 49.0738 7.54222 47.1016 7.83343C47.9891 8.80413 49.271 9.38654 50.5529 9.67775C51.1446 9.77482 51.7362 9.77482 52.3279 9.77482Z" fill="black"/>
<path d="M50.2578 10.6484C51.3425 11.8133 52.6245 12.6869 54.005 13.2693C54.5967 13.4635 55.1883 13.6576 55.78 13.8517C54.5967 11.7162 53.3147 10.7455 50.2578 10.6484Z" fill="black"/>
<path d="M49.9618 6.95797C49.0743 4.6283 47.9896 3.56054 45.0312 2.58984C46.116 4.72537 47.2007 6.08434 49.9618 6.95797Z" fill="black"/>
<path d="M59.433 24.7236C59.7288 25.1119 60.0246 25.5001 60.2218 25.9855C60.5177 23.2675 59.1371 20.5496 56.6719 19.3848C57.1649 21.2291 58.151 23.0734 59.433 24.7236Z" fill="black"/>
<path d="M59.0352 40.8372C60.2185 39.8665 63.1768 38.7017 63.5712 35.8867C63.6698 35.2072 63.7684 34.6248 63.9657 33.9453C61.6976 35.7896 60.0213 38.2164 59.0352 40.8372Z" fill="black"/>
<path d="M54.9953 42.1953C54.2064 43.166 53.5161 44.2338 52.8259 45.3015C52.1356 46.5634 51.8398 48.1165 51.4453 48.9902C53.1217 47.6312 55.5869 45.5927 54.9953 42.1953Z" fill="black"/>
<path d="M51.4401 45.9805C50.1582 47.4365 49.8624 47.2424 48.2846 48.8926C47.4957 49.7662 46.7069 51.9017 45.918 52.6783C48.9749 51.7076 51.0457 49.0867 51.4401 45.9805Z" fill="black"/>
<path d="M55.7812 46.1732C57.9507 45.3966 60.2187 44.2318 61.2048 42.1933C61.5993 41.4168 61.9937 40.5432 62.1909 40.252C59.5284 41.9021 57.0632 43.8435 55.7812 46.1732Z" fill="black"/>
<path d="M53.9075 52.2926C54.5978 51.7102 55.288 51.1277 55.5839 50.9336C53.4144 51.4189 49.9631 51.4189 46.5117 53.8457C48.977 53.2633 51.7381 54.1369 53.9075 52.2926Z" fill="black"/>
<path d="M50.8555 50.7386C52.5318 50.0591 55.5888 50.3504 57.4624 47.9236C57.9554 47.2441 58.5471 46.4676 58.7443 46.2734C56.7721 46.8559 53.4193 47.8265 50.8555 50.7386Z" fill="black"/>
<path d="M57.8502 36.373C57.6529 37.9262 55.9766 39.091 56.1738 42.1001C56.1738 42.7796 56.0752 43.4591 55.9766 44.1386C58.146 41.1294 58.5404 38.8969 57.8502 36.373Z" fill="black"/>
<path d="M58.8394 35.9833C59.0366 36.6628 59.1352 37.4394 59.1352 38.2159C60.5157 35.5951 60.713 33.4595 58.7408 30.6445C58.6421 32.5859 58.3463 33.7508 58.8394 35.9833Z" fill="black"/>
<path d="M61.3075 35.4978C61.702 35.0124 62.2936 34.3329 62.6881 33.8476C64.6603 31.9062 63.5756 29.1883 63.97 27.0527C62.195 29.4795 61.2089 32.4886 61.3075 35.4978Z" fill="black"/>
<path d="M57.7578 24.5293C58.3495 26.2765 58.0536 28.0238 59.8286 30.0623C60.1245 30.4505 60.4203 30.9359 60.6175 31.3242C60.9133 27.7326 59.6314 26.2765 57.7578 24.5293Z" fill="black"/>
<path d="M61.4007 19.4836C61.4007 17.5422 60.1188 16.1832 59.5271 14.8242C58.9355 17.6392 59.5271 19.8718 60.8091 22.5898C60.8091 22.4927 61.4007 20.3572 61.4007 19.4836Z" fill="black"/>
<path d="M61.7042 28.9937C62.0001 28.4113 62.2959 27.8288 62.6904 27.3435C63.9723 24.9168 62.4931 22.393 62.1973 20.8398C60.8168 24.3343 61.3098 25.8875 61.7042 28.9937Z" fill="black"/>
<path d="M56.9621 18.0267C57.5538 18.415 58.5399 19.0945 58.6385 19.1916C58.0468 16.6677 56.0746 14.7264 53.6094 14.0469C54.3983 15.6 55.5816 16.959 56.9621 18.0267Z" fill="black"/>
<path d="M58.7386 14.6291C58.7386 13.3672 58.2456 12.2023 57.4567 11.2316C56.9636 10.6492 56.2733 10.0668 55.8789 9.48438C55.9775 12.0082 56.9636 14.4349 58.64 16.3763C58.5414 15.6968 58.7386 15.2115 58.7386 14.6291Z" fill="black"/>
<path d="M27.4786 53.8449C25.7036 52.6801 23.7314 52.6801 22.8439 52.0977C24.0272 54.039 25.7036 55.6892 27.7744 56.757C28.1688 56.9511 28.3661 57.5335 27.6758 57.2423C25.7036 56.4658 21.6606 56.757 19.1953 58.0189C20.8717 58.4072 22.9425 59.572 25.2105 59.7661C27.1827 59.9603 28.7605 59.0867 31.1271 59.1837C34.1841 59.3779 34.6771 61.028 41.8757 62.7753C42.1715 62.8724 42.4673 62.7753 42.6645 62.5812C42.8618 62.387 43.1576 62.0958 43.3548 61.8046C37.241 61.4163 33.9868 59.4749 31.423 57.3394C30.0424 56.0775 28.4647 54.5244 27.4786 53.8449Z" fill="black"/>
<path d="M22.7477 55.9812C21.17 55.3018 19.395 54.9135 17.7186 54.8164C15.6478 54.6223 14.07 54.9135 12.8867 54.8164C13.577 55.2047 14.9575 55.8842 15.352 56.0783C18.2117 58.0197 20.7755 55.69 22.7477 55.9812Z" fill="black"/>
<path d="M24.2288 55.4929C23.0455 54.5222 22.158 52.6779 21.4678 51.9984C19.4956 50.2512 18.7067 50.5424 17.1289 49.4746C18.4108 52.4838 21.0733 54.7164 24.2288 55.4929Z" fill="black"/>
<path d="M21.8542 24.4326L21.6569 24.5297C21.5583 24.5297 21.4597 24.5297 21.2625 24.5297C20.9667 24.4326 20.6708 24.4326 20.4736 24.5297L20.0792 24.6267C19.882 24.7238 19.882 24.6267 19.882 24.5297C19.882 24.4326 19.882 24.4326 19.9806 24.3355C20.0792 24.1414 20.0792 23.9472 19.882 23.7531C19.6847 23.656 19.4875 23.7531 19.3889 23.8502L18.9945 24.1414C18.8959 24.2384 18.8958 24.3355 19.0931 24.3355C19.2903 24.3355 19.2903 24.5297 19.2903 24.7238C19.2903 24.9179 19.2903 25.015 19.1917 25.2091C19.0931 25.4033 19.1917 25.6945 19.4875 25.7916H19.5861C19.9806 25.7916 20.375 25.7916 20.6708 25.7916C21.1639 25.7916 21.5583 25.5003 21.7555 25.015C21.7555 24.9179 21.9528 24.7238 21.9528 24.6267C21.9528 24.5297 21.9528 24.3355 21.8542 24.4326Z" fill="black"/>
<path d="M29.3571 24.4326L29.1599 24.5297C29.0613 24.5297 28.9627 24.5297 28.8641 24.5297C28.5682 24.4326 28.2724 24.4326 27.9766 24.5297L27.5821 24.6267C27.3849 24.7238 27.3849 24.6267 27.3849 24.5297L27.4835 24.3355C27.5821 24.1414 27.5821 23.9472 27.4835 23.7531C27.2863 23.656 27.0891 23.7531 26.9905 23.8502L26.596 24.1414C26.4974 24.2384 26.4974 24.3355 26.6946 24.3355C26.8919 24.3355 26.8919 24.5297 26.8919 24.7238C26.8919 24.9179 26.7932 25.015 26.7932 25.2091C26.6946 25.4033 26.7932 25.6945 27.0891 25.7916C27.1877 25.7916 27.1877 25.7916 27.2863 25.7916C27.6807 25.7916 28.0752 25.7916 28.371 25.7916C28.8641 25.7916 29.2585 25.5003 29.4557 25.015C29.4557 24.9179 29.6529 24.7238 29.6529 24.6267C29.6529 24.5297 29.4557 24.3355 29.3571 24.4326Z" fill="black"/>
<path d="M32.0193 14.4332C32.6109 14.4332 33.2026 13.9478 33.2026 13.2683C33.2026 12.5889 32.7095 12.1035 32.0193 12.1035C31.329 12.1035 30.8359 12.5889 30.8359 13.2683C30.8359 13.9478 31.329 14.4332 32.0193 14.4332Z" fill="black"/>
<path d="M27.1852 14.8212C27.7768 14.7241 28.2699 14.1417 28.1713 13.5593C28.0727 12.9769 27.481 12.4915 26.8894 12.5886C26.2977 12.6857 25.8046 13.2681 25.9033 13.8505C26.0019 14.53 26.5935 14.9183 27.1852 14.8212Z" fill="black"/>
<path d="M21.8636 13.8518C21.272 14.046 20.8775 14.6284 21.0747 15.2108C21.272 15.7932 21.8636 16.1815 22.4553 15.9874H22.5539C23.1456 15.7932 23.4414 15.1137 23.2442 14.5313C23.0469 14.046 22.4553 13.6577 21.8636 13.8518Z" fill="black"/>
<path d="M17.129 15.7921C16.5373 16.0833 16.3401 16.7628 16.6359 17.2482C16.8331 17.8306 17.4248 18.1218 18.0165 17.9277C18.6081 17.7335 18.9039 17.1511 18.7067 16.5687C18.7067 16.4716 18.6081 16.2775 18.5095 16.1804C18.3123 15.7921 17.622 15.5009 17.129 15.7921Z" fill="black"/>
<path d="M36.7511 14.8212C37.3428 14.9183 37.9344 14.4329 38.033 13.8505C38.1316 13.2681 37.6386 12.6857 37.0469 12.5886C36.4553 12.4915 35.8636 12.9769 35.765 13.5593C35.6664 14.1417 36.0608 14.7241 36.7511 14.8212Z" fill="black"/>
<path d="M41.3885 15.9884C41.9802 16.1825 42.6705 15.8913 42.8677 15.3089C43.0649 14.7265 42.7691 14.047 42.1774 13.8529C41.5857 13.6587 40.8955 13.9499 40.6983 14.5324C40.4024 15.1148 40.7969 15.7943 41.3885 15.9884Z" fill="black"/>
<path d="M45.8235 17.7364C46.4151 18.0276 47.1054 17.8335 47.4012 17.2511C47.697 16.6687 47.4998 15.9892 46.9082 15.795C46.3165 15.5038 45.6262 15.698 45.3304 16.1833C45.0346 16.7657 45.2318 17.4452 45.7248 17.7364C45.7248 17.7364 45.7248 17.7364 45.8235 17.7364Z" fill="black"/>
<path d="M34.3819 35.1123C34.5791 35.1123 34.5791 35.3064 34.5791 35.5005C34.5791 35.6947 34.4805 35.7918 34.4805 35.9859C34.3819 36.2771 34.4805 36.4712 34.7763 36.5683H34.8749C35.2694 36.5683 35.6638 36.5683 35.9597 36.5683C36.4527 36.5683 36.8471 36.2771 37.0444 35.7918C37.143 35.6947 37.143 35.5005 37.2416 35.4035C37.3402 35.2093 37.143 35.1123 37.0444 35.2093C36.9458 35.2093 36.8471 35.2093 36.8471 35.2093C36.7485 35.2093 36.6499 35.2093 36.5513 35.2093C36.2555 35.1123 35.9597 35.1123 35.6638 35.2093C35.5652 35.3064 35.4666 35.3064 35.2694 35.3064C35.0722 35.4035 35.0722 35.3064 35.0722 35.2093L35.1708 35.0152C35.2694 34.8211 35.2694 34.6269 35.1708 34.4328C34.9736 34.3357 34.7763 34.4328 34.6777 34.5299L34.2833 34.8211C34.0861 34.9181 34.1847 35.1123 34.3819 35.1123Z" fill="black"/>
<path d="M41.3808 35.109C41.578 35.109 41.578 35.3031 41.578 35.4972C41.578 35.6914 41.578 35.7884 41.4794 35.9826C41.3808 36.2738 41.4794 36.4679 41.7753 36.565H41.8739C42.2683 36.565 42.6627 36.565 42.9586 36.565C43.4516 36.565 43.8461 36.2738 44.0433 35.7884C44.1419 35.6914 44.1419 35.4972 44.2405 35.4002C44.3391 35.206 44.1419 35.109 44.0433 35.206C43.9447 35.206 43.9447 35.3031 43.8461 35.3031C43.7475 35.3031 43.6488 35.3031 43.4516 35.3031C43.1558 35.206 42.86 35.206 42.6627 35.3031C42.5641 35.4002 42.4655 35.4002 42.2683 35.4002C42.0711 35.4972 42.0711 35.4002 42.0711 35.3031C42.0711 35.206 42.0711 35.206 42.1697 35.109C42.2683 34.9148 42.2683 34.7207 42.0711 34.5265C41.8739 34.4295 41.6766 34.5265 41.578 34.6236L41.1836 34.9148C41.1836 34.9148 41.2822 35.109 41.3808 35.109Z" fill="black"/>
<path d="M23.1425 31.1265C23.3398 31.1265 23.3398 31.3207 23.3398 31.5148C23.3398 31.7089 23.2411 31.806 23.2411 32.0002C23.1425 32.2914 23.2411 32.4855 23.537 32.5826H23.6356C24.03 32.5826 24.4245 32.5826 24.7203 32.5826C25.2133 32.5826 25.6078 32.2914 25.805 31.806C25.805 31.7089 26.0022 31.5148 26.0022 31.4177C26.1008 31.2236 25.9036 31.1265 25.805 31.2236C25.7064 31.2236 25.7064 31.3207 25.6078 31.3207C25.5092 31.3207 25.4106 31.3207 25.2133 31.3207C24.9175 31.2236 24.6217 31.2236 24.4245 31.3207L24.03 31.4177C23.8328 31.4177 23.8328 31.4177 23.8328 31.3207C23.8328 31.2236 23.8328 31.2236 23.9314 31.1265C24.03 30.9324 24.03 30.7383 23.8328 30.5441C23.6356 30.447 23.4384 30.5441 23.3398 30.6412C23.2411 30.7383 23.0439 30.8353 22.9453 30.9324C22.9453 30.9324 23.0439 31.1265 23.1425 31.1265Z" fill="black"/>
<path d="M37.5384 41.8082C37.7356 41.8082 37.7356 42.0023 37.7356 42.1964C37.7356 42.3906 37.637 42.4877 37.637 42.6818C37.5384 42.973 37.637 43.1671 37.9328 43.2642H38.0314C38.4259 43.2642 38.8203 43.2642 39.1161 43.2642C39.6092 43.2642 40.0036 42.973 40.2009 42.4877C40.2009 42.3906 40.3981 42.1965 40.3981 42.0994C40.3981 42.0023 40.2995 41.8082 40.2009 41.9052C40.1022 41.9052 40.1022 42.0023 40.0036 42.0023C39.905 42.0023 39.8064 42.0023 39.7078 42.0023C39.412 41.9052 39.1161 41.9052 38.8203 42.0023C38.7217 42.0994 38.6231 42.0994 38.4259 42.0994C38.2287 42.1965 38.2287 42.0994 38.2287 42.0023L38.3273 41.8082C38.4259 41.614 38.4259 41.4199 38.3273 41.2258C38.13 41.1287 37.9328 41.2258 37.8342 41.3228L37.4398 41.614C37.3412 41.7111 37.3412 41.9052 37.5384 41.8082Z" fill="black"/>
<path d="M24.3262 12.9763C23.2415 11.8115 21.4665 11.7144 20.2832 12.7822C19.7901 13.2675 19.4943 13.8499 19.3957 14.5294C18.9026 14.1411 18.311 13.947 17.6207 13.947C16.0429 13.947 14.761 15.2089 14.8596 16.762C14.8596 17.9269 15.6485 18.9946 16.8318 19.3829V21.9067H11.6055L16.7332 27.2455V40.447C16.7332 42.6796 17.6207 44.3297 20.4804 44.6209C23.3401 44.9121 26.4956 45.3004 27.9748 45.4946C29.947 45.6887 30.9331 45.9799 32.1164 47.6301C33.2011 46.077 34.2858 45.6887 36.258 45.4946C37.7372 45.3004 40.9913 45.0092 43.7524 44.6209C46.5135 44.2327 47.4996 42.6796 47.4996 40.447V27.3426L52.5287 22.0038H47.3024V19.48C48.7815 19.0917 49.669 17.5386 49.2746 15.9855C48.8801 14.5294 47.3024 13.6558 45.7246 14.0441C45.3302 14.1411 45.0343 14.3353 44.7385 14.5294C44.5413 12.9763 43.1607 11.9085 41.583 12.1027C40.8927 12.1998 40.301 12.491 39.808 12.9763C39.4135 11.5203 37.8358 10.6466 36.258 11.0349C35.5677 11.2291 35.0747 11.6173 34.6803 12.1998C33.99 10.8408 32.3136 10.1613 30.9331 10.8408C30.3414 11.132 29.8484 11.6173 29.5525 12.1998C28.665 10.9379 26.8901 10.6466 25.6081 11.5203C24.9178 11.8115 24.5234 12.3939 24.3262 12.9763ZM17.5221 26.469L14.2679 23.0715H31.7219V26.469H17.5221ZM24.5234 42.2913H18.2124C18.0151 41.8059 17.8179 41.3206 17.8179 40.8352H24.5234V42.2913ZM24.5234 38.6026H17.8179V33.7492H24.5234V38.6026ZM31.7219 45.6887C30.8345 45.0092 29.7497 44.6209 28.665 44.5239L25.1151 44.1356V39.1851H31.8206L31.7219 45.6887ZM31.7219 36.9525H25.1151V35.5935H31.8206L31.7219 36.9525ZM31.7219 33.2638H17.8179V29.8664H31.7219V33.2638ZM31.7219 29.284H17.8179V27.0514H31.7219V29.284ZM32.215 23.0715H38.9205V27.925H32.215V23.0715ZM38.9205 30.1576V31.6136H32.215V30.2547L38.9205 30.1576ZM43.358 43.5532L35.2719 44.4268C34.1872 44.5239 33.1025 44.9121 32.215 45.5916V40.544H46.119C46.119 42.2913 45.5274 43.359 43.358 43.5532ZM46.119 40.0587H32.215V37.729H46.119V40.0587ZM46.119 37.2437H32.215V33.7492H46.119V37.2437ZM46.119 33.3609H39.5122V28.5074H46.2177V33.3609H46.119ZM48.0912 24.8188L46.7107 26.1778H39.5122V24.7217L48.0912 24.8188ZM26.6928 11.7144C27.8762 11.5203 28.9609 12.2968 29.1581 13.4617C29.1581 13.6558 29.1581 13.8499 29.1581 14.1411L29.947 14.0441C29.8484 13.8499 29.8484 13.6558 29.8484 13.3646C29.7497 12.1998 30.6372 11.2291 31.8206 11.132C33.0039 11.0349 33.99 11.9085 34.0886 13.0734C34.0886 13.1705 34.0886 13.2675 34.0886 13.3646C34.0886 13.5587 34.0886 13.7529 33.99 14.0441L34.7789 14.1411C34.7789 13.947 34.7789 13.7529 34.7789 13.4617C34.8775 12.2968 35.9622 11.5203 37.1455 11.6173C38.3288 11.7144 39.1177 12.7822 39.0191 13.947C39.0191 14.2382 38.9205 14.5294 38.7233 14.7236L39.6108 14.9177C39.6108 14.7236 39.6108 14.5294 39.7094 14.3353C40.1038 13.2675 41.2871 12.6851 42.3719 13.0734C43.4566 13.4617 44.0482 14.6265 43.6538 15.6943C43.5552 15.8884 43.4566 16.0825 43.358 16.1796L44.1468 16.4708C44.1468 16.2767 44.2454 16.0825 44.3441 15.8884C44.8371 14.8206 46.119 14.4324 47.2038 15.0148C48.2885 15.5001 48.6829 16.762 48.0912 17.8298C47.894 18.2181 47.5982 18.5093 47.2038 18.7034L44.5413 20.1594L44.1468 17.5386C43.6538 17.3444 43.1607 17.0532 42.5691 16.8591L40.5969 18.4122L39.808 15.8884C39.3149 15.6943 38.7233 15.5972 38.1316 15.5001L36.258 17.4415L35.0747 15.0148C34.483 14.9177 33.99 14.9177 33.3983 14.9177L31.9192 17.0532L30.3414 14.9177C29.7497 14.9177 29.2567 15.0148 28.665 15.0148L27.4817 17.4415L25.6081 15.5001C25.0165 15.5972 24.5234 15.6943 23.9317 15.8884L23.1429 18.4122L20.9734 16.8591C20.4804 17.0532 19.9873 17.2474 19.3957 17.5386L19.0998 20.1594L16.4374 18.7034C15.4513 18.121 15.0568 16.8591 15.5499 15.8884C16.1415 14.9177 17.4235 14.5294 18.4096 15.0148C18.804 15.2089 19.0998 15.5001 19.2971 15.8884C19.3957 16.0825 19.4943 16.2767 19.4943 16.4708L20.2832 16.1796C20.1846 15.9855 20.0859 15.7913 19.9873 15.5972C19.7901 14.4324 20.579 13.3646 21.7623 13.1705C22.9456 12.9763 24.0304 13.7529 24.2276 14.9177L25.0165 14.7236C24.9178 14.5294 24.8192 14.3353 24.8192 14.1411C24.8192 12.8792 25.5095 11.8115 26.6928 11.7144Z" fill="black"/>
</g>
<defs>
<clipPath id="clip0_10704_16236">
<rect width="64" height="63" fill="white"/>
</clipPath>
</defs>
</svg>
