<?xml version="1.0" encoding="UTF-8"?>
<svg xmlns="http://www.w3.org/2000/svg" xmlns:xlink="http://www.w3.org/1999/xlink" width="193pt" height="193pt" viewBox="0 0 193 193" version="1.1">
<g id="surface1">
<path style=" stroke:none;fill-rule:evenodd;fill:rgb(100%,100%,100%);fill-opacity:1;" d="M 0 0.242188 L 192.757813 0.242188 L 192.757813 193 L 0 193 L 0 0.242188 "/>
<path style=" stroke:none;fill-rule:nonzero;fill:rgb(92.89856%,10.998535%,14.099121%);fill-opacity:1;" d="M 8.503906 93.453125 C 8.503906 82.648438 36.738281 73.578125 74.867188 71.058594 L 67.113281 79.859375 C 40.980469 82.136719 22.699219 87.363281 22.699219 93.453125 C 22.699219 98.917969 37.441406 103.695313 59.382813 106.257813 L 90.316406 71.152344 L 102.964844 71.152344 L 133.851563 106.203125 C 155.527344 103.621094 170.054688 98.875 170.054688 93.453125 C 170.054688 87.410156 152.042969 82.210938 126.210938 79.910156 L 118.445313 71.09375 C 156.296875 73.667969 184.253906 82.703125 184.253906 93.453125 C 184.253906 102.003906 166.550781 109.472656 140.25 113.464844 L 147.9375 122.183594 L 132.691406 122.183594 L 96.640625 81.285156 L 73.511719 107.53125 C 80.710938 108 88.394531 108.257813 96.378906 108.257813 C 101.363281 108.257813 106.226563 108.15625 110.933594 107.964844 L 117.789063 115.851563 C 110.933594 116.300781 103.765625 116.542969 96.378906 116.542969 C 85.980469 116.542969 76.011719 116.066406 66.753906 115.199219 L 60.59375 122.183594 L 45.34375 122.183594 L 52.972656 113.535156 C 26.414063 109.5625 8.503906 102.054688 8.503906 93.453125 "/>
</g>
</svg>
