<svg width="64" height="64" viewBox="0 0 64 64" fill="none" xmlns="http://www.w3.org/2000/svg">
<g clip-path="url(#clip0_10704_16303)">
<path d="M0 30.8974C0 26.9628 10.2819 23.6597 24.167 22.7422L21.3433 25.9471C11.8267 26.7764 5.16939 28.6797 5.16939 30.8974C5.16939 32.8875 10.5379 34.6272 18.5282 35.5604L29.793 22.7763H34.3991L45.6469 35.5405C53.5403 34.6002 58.8307 32.8719 58.8307 30.8974C58.8307 28.6968 52.2715 26.8034 42.8644 25.9656L40.0365 22.755C53.8206 23.6924 64.0015 26.9827 64.0015 30.8974C64.0015 34.0113 57.5547 36.7311 47.9769 38.1849L50.7764 41.36H45.2244L32.096 26.4663L23.6734 36.0241C26.2951 36.1948 29.0931 36.2887 32.0007 36.2887C33.8159 36.2887 35.5869 36.2517 37.301 36.182L39.7975 39.0541C37.301 39.2177 34.6907 39.3059 32.0007 39.3059C28.214 39.3059 24.5838 39.1323 21.2124 38.8165L18.9691 41.36H13.4157L16.1938 38.2105C6.5222 36.7638 0 34.0298 0 30.8974Z" fill="#ED1C24"/>
</g>
<defs>
<clipPath id="clip0_10704_16303">
<rect width="64" height="64" fill="white"/>
</clipPath>
</defs>
</svg>
