<svg width="64" height="64" viewBox="0 0 64 64" fill="none" xmlns="http://www.w3.org/2000/svg">
<g clip-path="url(#clip0_10704_16307)">
<path d="M32.0013 43.4447V28.1113H24.0013V31.9447H10.668L6.66797 39.6113H24.0013V43.4447H32.0013Z" fill="#FFC107"/>
<path d="M21.332 25.5566H42.6654V46.0011H21.332V25.5566Z" fill="#CFD8DC"/>
<path d="M6.66668 29.3906H64.0001L57.3334 42.1684H0L6.66668 29.3906Z" fill="#CFD8DC"/>
<path d="M57.3347 31.9447H40.0013V28.1113H24.0013V31.9447H10.668L6.66797 39.6113H24.0013V43.4447H40.0013V39.6113H53.3347L57.3347 31.9447Z" fill="#FFD54F"/>
<path d="M21.332 25.5566L23.9987 28.1122V31.9455L21.332 29.39V25.5566Z" fill="#90A4AE"/>
<path d="M21.332 25.5566H31.9987V28.1122H23.9987L21.332 25.5566Z" fill="#B0BEC5"/>
<path d="M0 42.1684L6.66667 39.6129L10.6667 31.9462L6.66667 29.3906L0 42.1684Z" fill="#90A4AE"/>
<path d="M6.66797 29.3906L10.668 31.9462H24.0013L21.3347 29.3906H6.66797Z" fill="#B0BEC5"/>
<path d="M31.9987 43.4453V46.0009H21.332L23.9987 43.4453H31.9987Z" fill="#90A4AE"/>
<path d="M6.66668 39.6113L0 42.1669H21.3334V46.0002L24 43.4447V39.6113H6.66668Z" fill="#607D8B"/>
<path d="M42.6667 25.5566L40 28.1122V31.9455L42.6667 29.39V25.5566Z" fill="#ECEFF1"/>
<path d="M57.332 31.9462L63.9987 29.3906L57.332 42.1684L53.332 39.6129L57.332 31.9462Z" fill="#CFD8DC"/>
<path d="M40 39.6113V43.4447L42.6667 46.0002V42.1669L40 39.6113Z" fill="#90A4AE"/>
<path d="M40 39.6113L42.6667 42.1669H57.3334L53.3334 39.6113H40Z" fill="#90A4AE"/>
<path d="M42.6667 46.0009L40 43.4453H32V46.0009H42.6667Z" fill="#B0BEC5"/>
<path d="M42.6667 29.3906L40 31.9462H57.3334L64 29.3906H42.6667Z" fill="#ECEFF1"/>
</g>
<defs>
<clipPath id="clip0_10704_16307">
<rect width="64" height="64" fill="white"/>
</clipPath>
</defs>
</svg>
