<svg width="64" height="64" viewBox="0 0 64 64" fill="none" xmlns="http://www.w3.org/2000/svg">
<path fill-rule="evenodd" clip-rule="evenodd" d="M40.5114 53.6277H40.506C40.3801 53.6311 39.9374 53.6426 39.5028 53.6277C38.3966 53.6277 37.2025 52.7882 37.2025 51.4316C37.2025 50.0858 38.3722 49.2816 39.4974 49.2823C39.5109 49.2796 40.0599 49.2565 40.5114 49.2816C41.642 49.2816 42.8124 50.0858 42.8124 51.4316C42.8124 52.7882 41.6183 53.6277 40.5114 53.6277ZM41.5905 48.434C40.0173 48.3988 38.419 48.4333 38.4054 48.434C36.4835 48.434 34.9211 49.7744 34.9211 51.4221C34.9211 53.0942 36.4842 54.4549 38.4068 54.4549C38.4196 54.4556 40.0179 54.4874 41.5919 54.4549C43.5172 54.4549 45.0836 53.0942 45.0836 51.4221C45.083 49.7907 43.5483 48.478 41.5905 48.434ZM62.0409 54.3784C62.0409 54.3784 63.9255 54.3778 64 54.3778C64 54.3013 63.9993 51.5088 63.9993 51.5088C63.9993 49.8333 62.5073 48.5193 60.6037 48.5193L55.647 48.5186C55.5657 48.5186 55.3775 48.5396 55.3775 48.7373L55.3782 54.1557C55.3782 54.3013 55.4831 54.3778 55.586 54.3778C55.586 54.3778 57.5831 54.3784 57.6575 54.3784C57.6575 54.3013 57.6569 49.8455 57.6569 49.8455C57.6569 49.6465 57.8065 49.5415 57.9534 49.5415L60.2368 49.5402C60.8684 49.5402 61.8026 50.1197 61.8026 51.3619L61.8019 54.1496C61.8019 54.1516 61.808 54.3784 62.0409 54.3784ZM20.6893 49.681C20.6893 49.681 23.6707 49.6817 23.7472 49.6817V48.7481C23.7472 48.6175 23.6531 48.5186 23.5278 48.5186H15.0055C14.8668 48.5186 14.7835 48.6337 14.7835 48.7447V49.681C14.8586 49.681 16.8205 49.6817 16.8205 49.6817C17.5848 49.6817 18.0979 50.341 18.0979 50.9564V54.1557C18.0979 54.2613 18.1907 54.3784 18.3227 54.3784C18.3227 54.3784 20.3143 54.3791 20.3894 54.3791V49.9816C20.3901 49.8157 20.5241 49.681 20.6893 49.681ZM11.2687 54.1557C11.2687 54.287 11.3872 54.3791 11.4935 54.3791H11.6099C11.6099 54.3791 11.6011 54.3866 11.5937 54.3933C11.6525 54.3791 11.8523 54.3791 12.5461 54.3791C12.5461 54.3791 13.4858 54.3784 13.5575 54.3784V48.7414C13.5575 48.6209 13.4573 48.518 13.3382 48.518H11.4928C11.3716 48.518 11.2687 48.6209 11.2687 48.7414V54.1557ZM27.2531 51.2617V50.0919C27.2531 49.7717 27.4786 49.5483 27.8028 49.5483H30.8438C31.3048 49.5483 31.6947 49.9382 31.6947 50.3986C31.6947 50.8738 31.3088 51.261 30.8343 51.261H27.2531V51.2617ZM31.7008 54.3798H33.974C33.9381 52.9717 32.4813 52.3882 32.3134 52.3259L32.2843 52.3151L32.2864 52.2352L32.3161 52.2284C33.2903 52.0097 33.97 51.2597 33.97 50.4053C33.97 49.4975 33.0872 48.5173 31.6602 48.5173L26.1619 48.5186C25.4957 48.5186 24.9731 49.044 24.9731 49.7148V54.155C24.9731 54.2837 25.0652 54.3764 25.1925 54.3764C25.1925 54.3764 27.18 54.3784 27.2558 54.3784C27.2558 54.3033 27.2545 52.3002 27.2545 52.3002H29.2035C30.9351 52.3002 31.648 53.5593 31.7008 54.3798ZM7.7959 50.4845H10.0211C9.53907 49.2592 8.2041 48.4185 6.67011 48.3887L5.98638 48.3751C4.91474 48.3521 4.4253 48.3413 3.48703 48.3887C2.39035 48.4442 1.70053 48.696 1.02424 49.2884C0.364206 49.8672 0.000676962 50.6308 0 51.4418C0 53.1179 1.48187 54.4326 3.44641 54.5016C4.79289 54.5497 4.93709 54.5511 6.70328 54.4983C8.3395 54.4488 9.51267 53.7028 10.019 52.4037H7.79454C7.7106 52.4037 7.64629 52.441 7.60364 52.5154C7.20085 53.2134 6.42979 53.6473 5.59238 53.6473C5.13476 53.6663 4.58303 53.6473 4.58303 53.6473C3.45251 53.6473 2.28204 52.8262 2.28204 51.4519L2.28272 51.4391C2.29016 50.0729 3.45725 49.2572 4.58845 49.2565C4.71775 49.2511 5.17334 49.2362 5.59103 49.2572C6.41557 49.2572 7.20762 49.6972 7.60702 50.3783C7.62124 50.402 7.6781 50.4845 7.7959 50.4845ZM54.1516 53.3258H48.7643C48.5829 53.3258 48.4556 53.2046 48.4556 53.0313V51.9143H53.1246V50.886H48.4556L48.4536 49.8665C48.4536 49.8617 48.4502 49.7521 48.5328 49.6661C48.5944 49.6025 48.6844 49.57 48.8015 49.57H54.1509V48.7481C54.1509 48.6777 54.1312 48.6229 54.0913 48.585C54.0175 48.5139 53.8957 48.518 53.8882 48.5186H46.3956C46.3719 48.5186 46.1675 48.5247 46.1675 48.7488L46.1681 53.1863C46.1681 53.7732 46.6163 54.3791 47.367 54.3791L53.9288 54.3784C53.983 54.3784 54.0392 54.3547 54.0825 54.3141C54.1272 54.2715 54.1522 54.2166 54.1522 54.1604C54.1522 54.1598 54.1522 53.3975 54.1516 53.3258ZM52.4767 46.3991C52.2574 46.2623 51.9941 46.1953 51.684 46.1953C51.3753 46.1953 51.1005 46.2671 50.8906 46.3991C50.6814 46.5297 50.5142 46.7064 50.2665 46.7064C50.0194 46.7064 49.8704 46.5304 49.6477 46.3991C49.4243 46.2671 49.1644 46.1953 48.855 46.1953C48.5456 46.1953 48.2823 46.263 48.0616 46.3991C47.8429 46.5324 47.7326 46.6963 47.7326 46.8851C47.7326 47.076 47.8429 47.2385 48.0616 47.3725C48.2823 47.5079 48.545 47.5743 48.855 47.5743C49.163 47.5743 49.4318 47.5093 49.6308 47.3881C49.8292 47.2663 50.0431 47.0679 50.2665 47.0679C50.4905 47.0679 50.693 47.246 50.8913 47.3732C51.0903 47.4991 51.376 47.5743 51.684 47.5743C52.0022 47.5743 52.2703 47.5079 52.4842 47.3725C52.6988 47.2385 52.8058 47.076 52.8058 46.8851C52.8051 46.6956 52.6961 46.5324 52.4767 46.3991Z" fill="#6E6E6E"/>
<path fill-rule="evenodd" clip-rule="evenodd" d="M49.5775 40.9093C46.3111 38.1087 36.6069 30.1395 32.0001 30.1395C27.3914 30.1395 17.6946 38.1033 14.4262 40.9059C14.4066 40.2438 14.3883 39.8417 14.3883 39.2521C14.3883 39.2521 14.3084 38.2786 15.1695 37.3045C22.2546 30.8848 29.6829 27.7437 29.911 27.6476C32.1261 26.7114 32.0015 26.8874 31.9995 23.1302C31.9995 23.1302 32.0983 23.1241 32.1613 23.1309C35.2807 23.4132 43.6676 31.553 48.6311 37.056C48.6399 37.0655 49.6106 38.1892 49.6106 39.3739C49.612 39.929 49.5957 40.4767 49.5775 40.9093ZM49.4441 36.3154C48.9167 35.7305 36.4965 22.0207 32.0001 22.0207C27.5051 22.0207 15.0842 35.7305 14.5575 36.3147L14.5569 36.3154C14.5054 36.373 13.293 37.7587 13.293 39.3746C13.293 40.6324 13.3762 41.8983 13.3776 41.9105C13.3803 41.9687 13.4094 42.5035 13.7066 42.6491C13.7547 42.6728 13.8068 42.685 13.8603 42.685C13.9706 42.685 14.0938 42.6355 14.2272 42.5381C14.3612 42.4196 27.0143 31.2436 32.0001 31.2436C36.9866 31.2436 49.6404 42.4196 49.767 42.5326C49.9051 42.6342 50.0297 42.685 50.1414 42.685C50.1955 42.685 50.2463 42.6728 50.295 42.6498C50.5915 42.5049 50.6207 41.9694 50.6234 41.9092C50.624 41.8997 50.7073 40.6338 50.7073 39.376C50.7073 37.7587 49.4949 36.373 49.4441 36.3154ZM49.5599 27.8696C46.2969 25.0724 36.6021 17.1114 32.0008 17.1114C27.3968 17.1114 17.7095 25.0677 14.4445 27.8669C14.4248 27.2062 14.4066 26.8034 14.4066 26.2151C14.4066 26.2151 14.3267 25.2424 15.1871 24.2696C22.2654 17.856 29.6863 14.7183 29.9137 14.6222C32.1267 13.6866 32.0022 13.8626 32.0001 10.1095C32.0001 10.1095 32.0983 10.1034 32.1619 10.1102C35.278 10.3925 43.6567 18.5242 48.6148 24.0211C48.6236 24.0306 49.5937 25.153 49.5937 26.337C49.5944 26.8908 49.5775 27.4377 49.5599 27.8696ZM49.4265 23.2805C48.8991 22.6963 36.4918 9 32.0001 9C27.5098 9 15.1011 22.6963 14.5751 23.2798L14.5745 23.2805C14.523 23.3381 13.3112 24.7224 13.3112 26.337C13.3112 27.5934 13.3952 28.858 13.3959 28.8702C13.3986 28.9284 13.4277 29.4625 13.7242 29.6081C13.7723 29.6318 13.8244 29.6433 13.8779 29.6433C13.9882 29.6433 14.1107 29.5939 14.2441 29.4964C14.3788 29.3779 27.0191 18.2135 32.0001 18.2135C36.9819 18.2135 49.6228 29.3779 49.7494 29.491C49.8868 29.5925 50.0114 29.6426 50.1231 29.6426C50.1772 29.6426 50.228 29.6311 50.2768 29.6074C50.5726 29.4625 50.6024 28.9277 50.6044 28.8675C50.6051 28.858 50.6884 27.5934 50.6884 26.337C50.689 24.7224 49.4779 23.3381 49.4265 23.2805Z" fill="#6E6E6E"/>
</svg>
