<svg width="64" height="64" viewBox="0 0 64 64" fill="none" xmlns="http://www.w3.org/2000/svg">
<path d="M9.46875 20.3594H55.7988V33.9766H9.46875V20.3594Z" fill="#808080" stroke="black" stroke-opacity="0.2451" stroke-width="1.50418" stroke-miterlimit="5"/>
<path d="M24.925 53.1861C19.6887 51.2669 17.8132 46.9252 15.8632 42.5209C13.5787 37.363 9.17736 23.7262 7.90452 19.8203C7.90034 19.8059 7.89571 19.7916 7.89062 19.7776C7.90651 19.8272 7.92339 19.8778 7.93927 19.9305C8.64817 22.2587 9.20119 24.3745 9.79293 26.252C12.3555 34.3745 14.7413 40.4478 14.7413 40.4478C14.7413 40.4478 17.1361 46.8368 19.362 49.4272C21.5185 51.9381 24.0294 53.2089 26.7022 53.7351C26.8124 53.757 26.9266 53.7798 27.0497 53.8017C27.1649 53.8215 27.285 53.8414 27.4121 53.8602C27.425 53.8622 27.4379 53.8652 27.4508 53.8672C27.448 53.8661 27.4449 53.8654 27.4419 53.8652C26.5364 53.6974 25.7113 53.473 24.9548 53.198L24.925 53.1861Z" fill="white"/>
<path d="M7.55469 18.7146V18.7156L7.57455 18.7782L7.58844 18.8149V18.8169L7.64404 18.9807C7.68177 19.078 7.72248 19.1823 7.76418 19.2895C8.12657 20.2158 8.65576 21.448 9.39246 22.8688C9.41728 22.9174 9.44508 22.969 9.47089 23.0187C9.74194 23.536 10.0378 24.0761 10.3655 24.635C11.7545 27.0129 13.6687 29.7204 16.2491 32.3346C16.406 32.4945 16.5678 32.6513 16.7296 32.8082C16.8041 32.8817 16.8766 32.9571 16.954 33.0306C17.0136 33.0872 17.0722 33.1458 17.1327 33.2034C17.3532 33.4188 17.5339 33.5856 17.6629 33.6958C17.6639 33.6968 17.6639 33.6978 17.6649 33.6978L17.6659 33.6988L18.2497 33.7256C18.6647 33.7435 19.2336 33.7683 19.8015 33.7931C20.5114 33.8239 21.2173 33.8537 21.6075 33.8686C23.072 33.9271 24.5404 33.9708 26.0069 34.0065L27.2042 34.0513L29.1383 34.0642C30.0637 34.0771 30.9662 34.084 31.8329 34.084H31.8994C31.8637 34.084 31.82 34.082 31.7694 34.081C31.6294 34.077 31.4368 34.0691 31.1955 34.0552C30.1888 33.9976 28.355 33.8259 26.1022 33.3126C25.296 33.1299 24.4362 32.9015 23.5436 32.6216C18.8871 31.1571 13.2745 28.249 9.49571 22.3723C9.34182 22.1331 9.18892 21.8779 9.03801 21.6168C8.29238 20.3211 7.63412 18.8904 7.56263 18.7305L7.55766 18.7206C7.55689 18.7188 7.55589 18.7171 7.55469 18.7156V18.7146Z" fill="url(#paint0_linear_10704_16328)"/>
<path d="M42.7505 41.0958C41.9294 43.0101 41.012 44.9819 39.62 46.2428C38.648 47.1195 37.2838 47.9485 33.9171 48.0736C33.2866 48.0985 30.7101 48.0985 30.0807 48.0736C26.7129 47.9485 25.3497 47.1195 24.3777 46.2428C22.9858 44.9819 22.0684 43.0101 21.2473 41.0958C20.9176 40.3333 19.2159 36.1534 18.4891 34.2392C23.5993 34.4695 28.3174 34.5917 31.9989 34.5897C35.6804 34.5917 40.3974 34.4695 45.5076 34.2392C44.7809 36.1534 43.0801 40.3333 42.7505 41.0958ZM45.7479 33.7239C45.3339 33.7418 44.764 33.7666 44.1971 33.7914C43.4872 33.8222 42.7812 33.852 42.3921 33.8669C40.9266 33.9255 39.4582 33.9702 37.9917 34.0049L36.7944 34.0486L34.8603 34.0625C33.9339 34.0754 33.0324 34.0824 32.1647 34.0824H31.8321C30.9653 34.0824 30.0628 34.0754 29.1365 34.0625L27.2024 34.0486L26.006 34.0049C24.5396 33.9702 23.0711 33.9255 21.6057 33.8669C21.2155 33.852 20.5106 33.8222 19.7997 33.7914C19.2328 33.7666 18.6639 33.7418 18.2489 33.7239C17.9619 33.711 17.7494 33.7011 17.6641 33.6971C17.6929 33.7786 19.9655 39.4805 20.4679 40.6729C20.9703 41.8554 21.4597 43.0438 22.0793 44.1668C22.6561 45.2112 23.3432 46.2081 24.2606 46.9736C24.475 47.1523 24.7004 47.3131 24.9337 47.459C25.7062 47.9416 26.569 48.2593 27.4685 48.4489C28.7155 48.7081 29.9943 48.7547 31.2622 48.7637L31.9989 48.7627L32.7346 48.7637C34.0034 48.7547 35.2812 48.7081 36.5293 48.4489C37.4288 48.2593 38.2906 47.9416 39.064 47.459C39.2963 47.3131 39.5217 47.1523 39.7372 46.9736C40.6546 46.2081 41.3406 45.2112 41.9185 44.1668C42.538 43.0438 43.0275 41.8554 43.5299 40.6729C44.0322 39.4805 46.3039 33.7786 46.3327 33.6971C46.2483 33.7011 46.0348 33.711 45.7479 33.7239Z" fill="black"/>
<path d="M32.0006 5.34182H31.9977C27.9746 5.34778 18.9833 5.39645 11.813 5.43914C8.73016 5.45701 5.98194 5.47389 4.1124 5.4858C3.83265 5.50677 3.55299 5.52896 3.27344 5.55234C3.27939 5.57617 3.31216 5.69232 3.37173 5.88891C3.77781 7.26202 5.40013 12.551 7.18627 17.7505L7.19123 17.7604C7.31335 18.0861 7.43647 18.4097 7.56256 18.7324C7.55958 18.7255 7.5576 18.7185 7.55561 18.7136C7.28555 17.9441 7.14358 17.4566 7.14358 17.4566C7.03039 17.0466 7.34513 16.6604 7.76113 16.7477C9.81634 17.1777 16.0703 18.0285 32.0006 18.0086C47.929 18.0285 54.183 17.1777 56.2382 16.7477C56.6561 16.6604 56.9689 17.0466 56.8557 17.4566C56.8557 17.4566 56.7147 17.9441 56.4437 18.7136C56.4417 18.7185 56.4397 18.7255 56.4377 18.7324C56.5638 18.4097 56.6879 18.0861 56.8081 17.7604L56.814 17.7505C58.6002 12.551 60.2215 7.26202 60.6295 5.88891C60.6861 5.69232 60.7209 5.57617 60.7258 5.55234C60.4747 5.53149 60.1937 5.50864 59.8879 5.4858C58.0174 5.47389 55.2701 5.45701 52.1873 5.43914C45.0159 5.39645 36.0247 5.34778 32.0026 5.34182H32.0006Z" fill="url(#paint1_linear_10704_16328)"/>
<path d="M32.3164 4.64823H31.6829C31.5042 4.64526 31.3225 4.64424 31.1398 4.64424C30.4508 4.64424 29.7707 4.66013 29.3457 4.66211C24.166 4.69388 18.894 4.78922 13.7202 4.98183C10.2353 5.09998 7.08897 5.27769 4.90569 5.4296C4.6118 5.44846 4.33678 5.46733 4.08162 5.4862C3.78476 5.50903 3.5147 5.53089 3.27344 5.55273C3.52463 5.53188 3.80561 5.50903 4.1124 5.4862C5.98194 5.47428 8.73016 5.45741 11.813 5.43954C18.9833 5.39684 27.9746 5.34817 31.9977 5.34221C31.9987 5.34221 45.0159 5.39684 52.1873 5.43954C55.2701 5.45741 58.0174 5.47428 59.8879 5.4862C60.1937 5.50903 60.4747 5.53188 60.7258 5.55273C60.4866 5.53089 60.2145 5.50903 59.9177 5.4862C59.6635 5.46733 59.3885 5.44846 59.0946 5.4296C56.9113 5.27769 53.764 5.09998 50.2791 4.98183C45.1043 4.78922 39.8333 4.69388 34.6545 4.66211C34.2296 4.66013 33.5525 4.64424 32.8644 4.64424C32.6807 4.64424 32.4961 4.64526 32.3164 4.64823Z" fill="url(#paint2_linear_10704_16328)"/>
<path d="M63.4733 7.30881C63.4733 7.34554 63.3016 8.31556 63.242 8.63029C62.824 10.9208 62.3673 13.2064 61.8689 15.481C61.3705 17.7407 60.8343 19.9886 60.2664 22.2314C59.9179 23.5896 59.5535 24.9479 59.1792 26.3011C58.9062 27.2969 58.0603 30.2428 57.5519 31.9266C56.984 33.8021 56.3953 35.6657 55.7857 37.5303C55.1165 39.5597 53.0414 45.489 52.6671 46.4312C50.9554 50.7352 49.1445 54.0742 45.9862 56.5633C42.9401 58.966 39.7034 59.9856 31.9999 59.9817C24.2964 59.9856 21.0606 58.966 18.0136 56.5633C14.8553 54.0742 13.0444 50.7352 11.3337 46.4312C10.9594 45.489 8.88331 39.5597 8.21413 37.5303C7.60451 35.6657 7.01575 33.8021 6.44883 31.9266C5.9395 30.2428 5.09359 27.2969 4.82056 26.3011C4.44625 24.9479 4.08187 23.5896 3.73338 22.2314C3.16547 19.9886 2.62933 17.7407 2.13092 15.481C1.6325 13.2064 1.17679 10.9208 0.757802 8.63029C0.69823 8.31556 0.526467 7.34554 0.526467 7.30881C0.51356 7.20158 0.517532 7.09538 0.528454 6.98915C0.536396 6.91766 0.547318 6.84716 0.566182 6.77766C0.68731 6.31499 1.03382 5.91485 1.54216 5.77784C1.64343 5.75103 1.85689 5.71926 2.0217 5.69742C2.39998 5.64381 2.81598 5.59518 3.27468 5.5515C3.51396 5.53065 3.78501 5.50877 4.08187 5.48593C4.33704 5.46707 4.61106 5.4482 4.90495 5.42933C7.08922 5.27742 10.2356 5.09975 13.7205 4.9826C18.8952 4.78899 24.1673 4.69266 29.346 4.66288C29.8831 4.65891 30.8273 4.63506 31.6832 4.64797H32.3166C33.1725 4.63506 34.1177 4.65891 34.6548 4.66288C39.8335 4.69266 45.1056 4.78899 50.2793 4.9826C53.7642 5.09975 56.9116 5.27742 59.0948 5.42933C59.3887 5.4482 59.6637 5.46707 59.9179 5.48593C60.2158 5.50877 60.4858 5.53065 60.7261 5.5515C61.1838 5.59518 61.5998 5.64381 61.9781 5.69742C62.1429 5.71926 62.3564 5.75103 62.4576 5.77784C62.966 5.91485 63.3125 6.31499 63.4346 6.77766C63.4518 6.84719 63.4641 6.91788 63.4713 6.98915C63.4823 7.09538 63.4862 7.20158 63.4733 7.30881ZM62.5917 5.10767C62.4447 5.06895 62.1856 5.03222 62.0446 5.01435C61.6614 4.95974 61.2325 4.90912 60.7747 4.86643H60.7718C56.4509 4.47723 42.9421 4.01458 32.0039 3.99968H31.9959C21.0577 4.01458 7.54991 4.47723 3.22802 4.86643H3.22603C2.80129 4.90556 2.37755 4.95487 1.95518 5.01435C1.8142 5.03222 1.55506 5.06895 1.40812 5.10767C0.497675 5.35191 -0.101016 6.25143 0.0141544 7.19961H0.0161409C0.0518836 7.48555 0.248469 8.54197 0.250454 8.5509C0.678374 10.894 1.14204 13.2054 1.62754 15.4205C2.11007 17.6057 2.65018 19.8823 3.23398 22.1877C3.5646 23.4794 3.93096 24.8515 4.32314 26.2654C4.60213 27.285 5.44407 30.2159 5.95439 31.9038C6.50542 33.7257 7.10114 35.6141 7.72465 37.5203C8.40872 39.5954 10.4848 45.5208 10.8541 46.4501C12.5757 50.7809 14.3986 54.1983 17.6939 56.7966C20.595 59.0841 23.7354 60.3262 31.9671 60.3262H32.0327C40.2644 60.3262 43.4048 59.0841 46.3059 56.7966C49.6022 54.1983 51.4241 50.7809 53.1467 46.4501C53.515 45.5208 55.5921 39.5954 56.2761 37.5203C56.8987 35.6141 57.4944 33.7257 58.0454 31.9038C58.5557 30.2159 59.3977 27.285 59.6767 26.2654C60.0688 24.8515 60.4352 23.4794 60.7658 22.1877C61.3496 19.8823 61.8907 17.6057 62.3732 15.4205C62.8587 13.2054 63.3214 10.894 63.7503 8.5509C63.7513 8.54197 63.9479 7.48555 63.9837 7.19961H63.9856C64.1018 6.25143 63.5021 5.35191 62.5917 5.10767Z" fill="black"/>
<path d="M63.2419 7.84915C62.8229 10.1397 62.3662 12.4252 61.8678 14.6998C61.3694 16.9585 60.8342 19.2074 60.2653 21.4502C59.9168 22.8084 59.5534 24.1676 59.1781 25.5199C58.9061 26.5167 58.0592 29.4616 57.5508 31.1454C56.9839 33.0209 56.3952 34.8845 55.7846 36.7491C55.1164 38.7785 53.0403 44.7068 52.666 45.65C50.9543 49.954 49.1434 53.292 45.9851 55.7821C45.4023 56.2428 44.8116 56.6518 44.1831 57.0132C41.5351 58.5372 38.226 59.2034 31.9988 59.2005C25.7706 59.2034 22.4614 58.5372 19.8125 57.0132C19.186 56.6518 18.5943 56.2428 18.0105 55.7821C14.8522 53.292 13.0413 49.954 11.3306 45.65C10.9563 44.7068 8.88021 38.7785 8.21202 36.7491C7.60142 34.8845 7.01266 33.0209 6.44474 31.1454C5.9364 29.4616 5.0905 26.5167 4.81845 25.5199C4.44216 24.1676 4.07878 22.8084 3.73029 21.4502C3.16337 19.2074 2.62723 16.9585 2.12882 14.6998C1.63015 12.4246 1.17204 10.1407 0.754707 7.84915C0.714 7.63072 0.618687 7.09753 0.56408 6.77982C0.546209 6.84833 0.534294 6.91883 0.527344 6.99131C0.573015 7.26832 0.691164 7.93846 0.738821 8.18966C1.1578 10.4802 1.61353 12.7667 2.11194 15.0404C2.61035 17.2991 3.14748 19.5479 3.71539 21.7908C4.06389 23.149 4.42727 24.5082 4.80257 25.8605C5.0756 26.8573 5.92151 29.8031 6.42985 31.486C6.99776 33.3615 7.58653 35.2251 8.19514 37.0896C8.86532 39.119 10.9404 45.0483 11.3147 45.9905C13.0264 50.2945 14.8363 53.6325 17.9956 56.1226C21.0446 58.5263 24.2823 59.546 31.9978 59.541H31.9988C39.7133 59.546 42.9519 58.5263 46.001 56.1226C49.1593 53.6325 50.9712 50.2945 52.6809 45.9905C53.0552 45.0483 55.1313 39.119 55.8004 37.0896C56.4101 35.2251 56.9988 33.3615 57.5657 31.486C58.0751 29.8031 58.921 26.8573 59.194 25.8605C59.5683 24.5082 59.9327 23.149 60.2812 21.7908C60.8491 19.5479 61.3852 17.2991 61.8836 15.0404C62.3821 12.7667 62.8378 10.4802 63.2568 8.18966C63.3044 7.93846 63.4236 7.26832 63.4702 6.99131C63.4623 6.91883 63.4504 6.84833 63.4325 6.77982C63.3779 7.09753 63.2826 7.63072 63.2419 7.84915Z" fill="url(#paint3_linear_10704_16328)"/>
<path d="M39.0766 53.1861C44.3129 51.2669 46.1884 46.9252 48.1394 42.5209C50.4229 37.363 54.8242 23.7262 56.0971 19.8203C56.1013 19.8059 56.1059 19.7916 56.111 19.7776C56.0951 19.8272 56.0782 19.8778 56.0623 19.9305C55.3534 22.2587 54.8004 24.3745 54.2087 26.252C51.6461 34.3745 49.2613 40.4478 49.2613 40.4478C49.2613 40.4478 46.8655 46.8368 44.6396 49.4272C42.4831 51.9381 39.9722 53.2089 37.2994 53.7351C37.1892 53.757 37.075 53.7798 36.9519 53.8017C36.8367 53.8215 36.7166 53.8414 36.5895 53.8602C36.5766 53.8622 36.5637 53.8652 36.5508 53.8672C36.5538 53.8662 36.5567 53.8652 36.5597 53.8652C37.4652 53.6974 38.2913 53.473 39.0468 53.198L39.0766 53.1861Z" fill="white"/>
<path d="M60.63 5.88897C60.222 7.26209 58.6006 12.551 56.8145 17.7506L56.8085 17.7605C56.6901 18.0792 56.5689 18.3969 56.4451 18.7136V18.7146L56.4253 18.7772L56.4124 18.8139C56.4124 18.8159 56.4114 18.8189 56.4104 18.8209C56.3895 18.8874 56.3588 18.9917 56.332 19.0771C56.2575 19.3124 56.182 19.5476 56.1086 19.777C56.0927 19.8266 56.0758 19.8783 56.0599 19.9309C55.351 22.2591 54.798 24.3729 54.2063 26.2514C51.6437 34.3739 49.2589 40.4472 49.2589 40.4472C49.2589 40.4472 46.8631 46.8362 44.6381 49.4275C42.4807 51.9375 39.9698 53.2083 37.297 53.7345C37.1819 53.7588 37.0664 53.781 36.9505 53.8011C36.8353 53.8209 36.7142 53.8408 36.5871 53.8607C36.5742 53.8616 36.5613 53.8646 36.5494 53.8666C36.5514 53.8656 36.5543 53.8656 36.5583 53.8646C35.5208 54.0205 34.0742 54.1376 32.0011 54.1396C29.927 54.1376 28.4805 54.0205 27.4429 53.8646C27.4459 53.8656 27.4489 53.8656 27.4529 53.8666C27.439 53.8646 27.427 53.8616 27.4131 53.8607C27.2871 53.8408 27.1659 53.8209 27.0517 53.8011C26.9276 53.7802 26.8135 53.7574 26.7033 53.7345C24.0315 53.2083 21.5206 51.9375 19.3631 49.4275C17.1381 46.8362 14.7424 40.4472 14.7424 40.4472C14.7424 40.4472 12.3565 34.3739 9.79497 26.2514C9.20224 24.3729 8.65021 22.2591 7.94132 19.9309C7.92444 19.8783 7.90855 19.8266 7.89267 19.777C7.81721 19.5476 7.74275 19.3124 7.66928 19.0771C7.64247 18.9917 7.6107 18.8874 7.58985 18.8209C7.58985 18.8189 7.58885 18.8159 7.58885 18.8139L7.57495 18.7772L7.5551 18.7146V18.7136V18.7146V18.7136C7.43198 18.3969 7.31085 18.0802 7.19171 17.7605L7.18675 17.7506C5.40061 12.551 3.77829 7.26209 3.37221 5.88897C3.31264 5.69239 3.27987 5.57623 3.27391 5.55241C2.81621 5.5951 2.4002 5.64375 2.02292 5.69736C1.85711 5.7192 1.64464 5.75097 1.54238 5.77777C1.03404 5.91479 0.687534 6.3149 0.566406 6.77856C0.621013 7.09628 0.716326 7.62946 0.757033 7.84789C1.17502 10.1384 1.63174 12.4239 2.13114 14.6985C2.62955 16.9573 3.16569 19.2061 3.73261 21.449C4.0811 22.8072 4.44449 24.1664 4.82078 25.5187C5.09282 26.5155 5.93873 29.4603 6.44707 31.1442C7.01498 33.0197 7.60375 34.8832 8.21435 36.7478C8.88254 38.7772 10.9586 44.7056 11.3329 45.6488C13.0436 49.9528 14.8545 53.2907 18.0128 55.7808C18.5966 56.2415 19.1884 56.6506 19.8148 57.012C22.4638 58.536 25.7729 59.2022 32.0001 59.1992H32.0011C38.2283 59.2022 41.5375 58.536 44.1854 57.012C44.8139 56.6506 45.4046 56.2415 45.9874 55.7808C49.1457 53.2907 50.9567 49.9528 52.6683 45.6488C53.0426 44.7056 55.1187 38.7772 55.7869 36.7478C56.3975 34.8832 56.9862 33.0197 57.5532 31.1442C58.0615 29.4603 58.9084 26.5155 59.1805 25.5187C59.5558 24.1664 59.9191 22.8072 60.2676 21.449C60.8365 19.2061 61.3717 16.9573 61.8701 14.6985C62.3685 12.4239 62.8252 10.1384 63.2442 7.84789C63.2849 7.62946 63.3802 7.09628 63.4348 6.77856C63.3137 6.3149 62.9662 5.91479 62.4579 5.77777C62.3576 5.75097 62.1431 5.7192 61.9783 5.69736C61.6 5.64375 61.185 5.5951 60.7263 5.55241C60.7214 5.57623 60.6866 5.69239 60.63 5.88897Z" fill="url(#paint4_linear_10704_16328)"/>
<path d="M63.2599 8.18924C62.841 10.4798 62.3852 12.7663 61.8868 15.04C61.3884 17.2987 60.8523 19.5475 60.2844 21.7904C59.9359 23.1486 59.5715 24.5078 59.1972 25.8601C58.9241 26.8569 58.0782 29.8027 57.5689 31.4856C57.002 33.3611 56.4132 35.2247 55.8036 37.0892C55.1344 39.1186 53.0584 45.0479 52.6841 45.9901C50.9744 50.2941 49.1624 53.6321 46.0042 56.1222C42.9551 58.5259 39.7164 59.5455 32.002 59.5406C24.2855 59.5455 21.0478 58.5259 17.9988 56.1222C14.8395 53.6321 13.0295 50.2941 11.3179 45.9901C10.9435 45.0479 8.86848 39.1186 8.19831 37.0892C7.58969 35.2247 7.00093 33.3611 6.43302 31.4856C5.92468 29.8027 5.07877 26.8569 4.80573 25.8601C4.43043 24.5078 4.06705 23.1486 3.71856 21.7904C3.15065 19.5475 2.61351 17.2987 2.1151 15.04C1.61669 12.7663 1.16097 10.4798 0.741985 8.18924C0.694328 7.93805 0.576179 7.2679 0.530508 6.9909C0.518594 7.09614 0.514622 7.20236 0.527529 7.30959C0.527529 7.34732 0.700286 8.31633 0.758864 8.63107C1.17685 10.9226 1.63357 13.2071 2.13198 15.4827C2.63139 17.7415 3.16752 19.9893 3.73444 22.2322C4.08293 23.5904 4.44731 24.9486 4.82162 26.3029C5.09565 27.2987 5.94056 30.2445 6.4489 31.9274C7.01781 33.8029 7.60558 35.6674 8.21618 37.532C8.88437 39.5614 10.9604 45.4888 11.3347 46.433C13.0454 50.735 14.8564 54.075 18.0146 56.565C21.0617 58.9667 24.2984 59.9864 32.001 59.9824H32.002C39.7045 59.9864 42.9402 58.9667 45.9883 56.565C49.1455 54.075 50.9565 50.735 52.6682 46.433C53.0425 45.4888 55.1185 39.5614 55.7867 37.532C56.3969 35.6706 56.9857 33.8023 57.553 31.9274C58.0614 30.2445 58.9073 27.2987 59.1803 26.3029C59.5546 24.9486 59.919 23.5904 60.2675 22.2322C60.8354 19.9893 61.3715 17.7415 61.8699 15.4827C62.3684 13.2071 62.8251 10.9226 63.2431 8.63107C63.3026 8.31633 63.4744 7.34732 63.4744 7.30959C63.4873 7.20236 63.4843 7.09614 63.4734 6.9909C63.4267 7.2679 63.3076 7.93805 63.2599 8.18924Z" fill="url(#paint5_linear_10704_16328)"/>
<path d="M56.2389 16.7478C54.1837 17.1777 47.9298 18.0285 32.0014 18.0087H32.0004C16.0711 18.0285 9.81713 17.1777 7.76192 16.7478C7.34592 16.6604 7.03118 17.0466 7.14437 17.4567C7.14437 17.4567 7.28635 17.9442 7.5564 18.7136C7.55839 18.7186 7.56037 18.7245 7.56335 18.7295C7.63484 18.8893 8.2931 20.3201 9.03873 21.6158C9.18964 21.8769 9.34254 22.132 9.49643 22.3713C13.2752 28.248 18.8878 31.1561 23.5443 32.6205C24.3875 32.8853 25.2411 33.1158 26.1029 33.3115C28.3557 33.8248 30.1895 33.9966 31.1962 34.0542C31.4375 34.0681 31.6301 34.076 31.7701 34.08C31.8207 34.081 31.8565 34.083 31.8336 34.083L32.0004 34.084H32.0014L32.1672 34.083C32.1454 34.083 32.1811 34.081 32.2308 34.08C32.3698 34.076 32.5644 34.0681 32.8056 34.0542C33.8114 33.9966 35.6462 33.8248 37.899 33.3115C38.7052 33.1288 39.563 32.9005 40.4566 32.6205C45.113 31.1561 50.7266 28.248 54.5044 22.3713C54.6583 22.132 54.8122 21.8769 54.9621 21.6158C55.7088 20.3201 56.366 18.8893 56.4385 18.7295C56.4405 18.7245 56.4425 18.7186 56.4445 18.7136C56.7155 17.9442 56.8565 17.4567 56.8565 17.4567C56.9598 17.0873 56.7125 16.7359 56.3561 16.7349C56.3167 16.7354 56.2775 16.7397 56.2389 16.7478Z" fill="url(#paint6_linear_10704_16328)"/>
<path d="M7.58984 18.8179L7.59084 18.8189C7.59084 18.8179 7.59084 18.8179 7.58984 18.8179ZM7.59084 18.8219V18.8189V18.8219ZM7.67225 19.0781C7.63651 18.9698 7.62261 18.9251 7.7209 19.2349C7.77054 19.3908 7.82813 19.5734 7.89366 19.778C7.89763 19.7919 7.90259 19.8078 7.90656 19.8217C9.1794 23.7276 13.5807 37.3634 15.8653 42.5213C17.8152 46.9266 19.6907 51.2673 24.927 53.1875C24.937 53.1915 24.9469 53.1944 24.9578 53.1984C25.7124 53.4734 26.5384 53.6988 27.4439 53.8656C28.4814 54.0215 29.928 54.1386 32.0011 54.1406H32.0021V49.1416L31.2843 49.1426C30.0164 49.1337 28.7376 49.087 27.4906 48.8279C26.596 48.6392 25.7382 48.3007 24.9687 47.8231C24.9687 47.8231 24.5011 47.5163 24.2827 47.3336C23.3643 46.5672 22.6782 45.5703 22.1014 44.5268C21.4818 43.4039 20.9924 42.2155 20.489 41.033C19.9866 39.8406 19.5041 38.6432 19.0235 37.4389C18.7833 36.8382 17.9542 34.4901 17.9751 34.5487C18.0873 34.8366 18.1935 35.1156 18.3057 35.4035C18.536 36.0102 18.7823 36.5969 19.0225 37.1986C19.5041 38.4029 19.9866 39.5993 20.489 40.7917C20.9914 41.9742 21.4808 43.1626 22.1014 44.2865C22.6772 45.33 23.3643 46.3269 24.2827 47.0924C24.5011 47.2751 24.9687 47.5868 24.9687 47.5868C25.7382 48.0634 26.596 48.399 27.4906 48.5876C28.7376 48.8467 30.0154 48.8934 31.2843 48.9024L32.0011 48.9013H32.0021V48.7643H32.0011L31.2654 48.7653C29.9965 48.7564 28.7187 48.7097 27.4717 48.4506C26.5712 48.261 25.7094 47.9432 24.936 47.4617C24.7027 47.3137 24.4783 47.1539 24.2638 46.9752C23.3454 46.2097 22.6584 45.2119 22.0825 44.1684C21.462 43.0455 20.9725 41.8571 20.4701 40.6736C19.9677 39.4822 17.6961 33.7802 17.6673 33.6988L17.6663 33.6978C17.6653 33.6978 17.6653 33.6968 17.6643 33.6958C17.5352 33.5856 17.3545 33.4188 17.1341 33.2034C17.0736 33.1458 17.015 33.0872 16.9554 33.0306C16.8988 32.977 16.8184 32.8966 16.731 32.8082C16.5692 32.6513 16.4074 32.4945 16.2505 32.3346C13.6701 29.7204 11.7559 27.0129 10.3669 24.635C10.0392 24.0761 9.74334 23.536 9.47229 23.0187C9.44648 22.969 9.41868 22.9174 9.39385 22.8688C8.65716 21.448 8.12797 20.2158 7.76558 19.2895C7.72388 19.1823 7.68317 19.078 7.64544 18.9807L7.59084 18.8219C7.61466 18.8944 7.64048 18.9768 7.67225 19.0781Z" fill="url(#paint7_linear_10704_16328)"/>
<path d="M56.3557 18.9807C56.3179 19.078 56.2782 19.1823 56.2355 19.2895C55.8741 20.2158 55.344 21.448 54.6083 22.8688C54.5834 22.9174 54.5556 22.969 54.5298 23.0187C54.2588 23.536 53.9619 24.0761 53.6353 24.635C52.2453 27.0129 50.332 29.7204 47.7506 32.3346C47.5947 32.4945 47.4329 32.6513 47.2711 32.8082C47.1837 32.8966 47.1033 32.977 47.0467 33.0306C46.9871 33.0872 46.9275 33.1458 46.867 33.2034C46.6476 33.4188 46.4659 33.5856 46.3368 33.6958C46.3368 33.6968 46.3358 33.6978 46.3348 33.6978V33.6988C46.306 33.7802 44.0334 39.4822 43.531 40.6736C43.0286 41.8571 42.5391 43.0455 41.9196 44.1684C41.3427 45.2119 40.6557 46.2097 39.7383 46.9752C39.5238 47.1539 39.2985 47.3137 39.0651 47.4617C38.2937 47.9432 37.4299 48.261 36.5304 48.4506C35.2824 48.7097 34.0046 48.7564 32.7357 48.7653L32.001 48.7643H32V48.9013H32.001L32.7178 48.9024C33.9857 48.8934 35.2645 48.8467 36.5125 48.5876C37.4061 48.399 38.2639 48.0634 39.0334 47.5868C39.0334 47.5868 39.5 47.2751 39.7194 47.0924C40.6368 46.3269 41.3239 45.33 41.9007 44.2865C42.5203 43.1626 43.0107 41.9742 43.5121 40.7917C44.0155 39.5993 44.497 38.4029 44.9776 37.1986C45.2188 36.5969 45.4661 36.0102 45.6954 35.4035C45.8086 35.1156 45.9148 34.8366 46.026 34.5487C46.0479 34.4901 45.2188 36.8382 44.9776 37.4389C44.497 38.6432 44.0145 39.8406 43.5121 41.033C43.0107 42.2155 42.5203 43.4039 41.9007 44.5268C41.3229 45.5703 40.6368 46.5672 39.7194 47.3336C39.5 47.5163 39.0334 47.8231 39.0334 47.8231C38.2639 48.3007 37.4061 48.6392 36.5115 48.8279C35.2635 49.087 33.9857 49.1337 32.7168 49.1426L32 49.1416V54.1406H32.001C34.0741 54.1386 35.5207 54.0215 36.5582 53.8656C37.4627 53.6988 38.2887 53.4734 39.0443 53.1984C39.0542 53.1944 39.0641 53.1915 39.0741 53.1875C44.3104 51.2673 46.1859 46.9266 48.1368 42.5213C50.4204 37.3634 54.8227 23.7276 56.0945 19.8217C56.0995 19.8078 56.1035 19.7919 56.1084 19.778C56.173 19.5734 56.2306 19.3908 56.2802 19.2349C56.3785 18.9251 56.3646 18.9698 56.3299 19.0781L56.4103 18.8219C56.4113 18.8209 56.4113 18.8189 56.4113 18.8169L56.3557 18.9807Z" fill="url(#paint8_linear_10704_16328)"/>
<path d="M46.0247 34.5486C45.9135 34.8365 45.8073 35.1155 45.6941 35.4035C45.4647 36.0101 45.2175 36.5969 44.9763 37.1985C44.4957 38.4029 44.0142 39.5993 43.5108 40.7917C43.0094 41.9742 42.519 43.1626 41.8994 44.2865C41.3226 45.33 40.6355 46.3268 39.7181 47.0923C39.4987 47.275 39.0321 47.5868 39.0321 47.5868C38.2626 48.0633 37.4048 48.3989 36.5112 48.5876C35.2632 48.8467 33.9844 48.8934 32.7165 48.9023L31.9997 48.9013H31.9987L31.2818 48.9023C30.013 48.8934 28.7352 48.8467 27.4882 48.5876C26.5936 48.3989 25.7358 48.0633 24.9663 47.5868C24.9663 47.5868 24.4987 47.275 24.2803 47.0923C23.3619 46.3268 22.6748 45.33 22.099 44.2865C21.4784 43.1626 20.9889 41.9742 20.4866 40.7917C19.9842 39.5993 19.5016 38.4029 19.0201 37.1985C18.7798 36.5969 18.5336 36.0101 18.3033 35.4035C18.1921 35.1175 18.0858 34.8395 17.9746 34.5536C18.0173 34.6777 18.7908 36.862 19.0211 37.4388C19.5016 38.6431 19.9842 39.8405 20.4866 41.0329C20.9899 42.2154 21.4794 43.4038 22.099 44.5268C22.6758 45.5702 23.3619 46.5671 24.2803 47.3336C24.4987 47.5163 24.9663 47.823 24.9663 47.823C25.7358 48.3006 26.5936 48.6392 27.4882 48.8278C28.7352 49.087 30.014 49.1336 31.2818 49.1426L31.9997 49.1415L32.7155 49.1426C33.9844 49.1336 35.2622 49.087 36.5102 48.8278C37.4048 48.6392 38.2626 48.3006 39.0321 47.823C39.0321 47.823 39.4987 47.5163 39.7181 47.3336C40.6355 46.5671 41.3216 45.5702 41.8994 44.5268C42.519 43.4038 43.0094 42.2154 43.5108 41.0329C44.0132 39.8405 44.4957 38.6431 44.9763 37.4388C45.2145 36.8451 46.0257 34.5476 46.0257 34.5476L46.0247 34.5486ZM17.9727 34.5486C17.9739 34.55 17.9746 34.5517 17.9746 34.5536C17.9742 34.5515 17.9735 34.5495 17.9727 34.5476V34.5486Z" fill="url(#paint9_linear_10704_16328)"/>
<path d="M56.4453 18.7156V18.7146V18.7156ZM56.4433 18.7206C56.4413 18.7226 56.4403 18.7266 56.4384 18.7305C56.3659 18.8904 55.7086 20.3211 54.962 21.6168C54.8121 21.8779 54.6582 22.1331 54.5043 22.3723C50.7265 28.249 45.1129 31.1571 40.4564 32.6216C39.5628 32.9015 38.705 33.1299 37.8988 33.3126C35.646 33.8259 33.8113 33.9976 32.8055 34.0552C32.614 34.0665 32.4224 34.0751 32.2306 34.081C32.181 34.082 32.1373 34.084 32.1016 34.084H32.1671C33.0339 34.084 33.9354 34.0771 34.8617 34.0642L36.7968 34.0513L37.9932 34.0065C39.4596 33.9708 40.929 33.9271 42.3935 33.8686C42.7837 33.8537 43.4886 33.8239 44.1995 33.7931C44.7664 33.7683 45.3353 33.7435 45.7503 33.7256L46.3351 33.6988V33.6978C46.3361 33.6978 46.3361 33.6968 46.3371 33.6958C46.4662 33.5856 46.6478 33.4188 46.8673 33.2034C46.9278 33.1458 46.9874 33.0872 47.047 33.0306C47.1234 32.9571 47.1959 32.8817 47.2714 32.8082C47.4322 32.6513 47.595 32.4945 47.7509 32.3346C50.3323 29.7204 52.2456 27.0129 53.6355 24.635C53.9622 24.0761 54.2591 23.536 54.5301 23.0187C54.5559 22.969 54.5837 22.9174 54.6085 22.8688C55.3442 21.448 55.8744 20.2158 56.2358 19.2895C56.2785 19.1823 56.3182 19.078 56.356 18.9807L56.4116 18.8169L56.4126 18.8149L56.4255 18.7782L56.4453 18.7156C56.4453 18.7156 56.4443 18.7166 56.4433 18.7206Z" fill="url(#paint10_linear_10704_16328)"/>
<path d="M39.2188 20.7627V13.7422H41.4616V20.7627H39.2188Z" fill="white"/>
<path d="M33.8682 20.7637C33.614 20.7637 32.7204 20.7299 31.8755 20.2891C30.7714 19.7142 30.2125 18.7114 30.2125 17.3105C30.2125 15.8341 30.83 14.7837 32.0473 14.19C32.9587 13.7452 33.883 13.7392 33.9218 13.7392H38.1742V15.4827H34.1938C34.1303 15.4827 32.5993 15.5214 32.5993 17.2509C32.5993 17.8754 32.7979 18.351 33.19 18.6648C33.5187 18.9279 33.9257 19.0212 34.1968 19.0212H38.1742V20.7626L33.8682 20.7637ZM16.2474 19.0208C16.3109 19.0198 17.8419 18.9811 17.8419 17.2515C17.8419 15.8516 16.7964 15.4813 16.2444 15.4813H13.6491V19.0208H16.2474ZM11.4062 20.7632V13.7428L16.5731 13.7398C16.8272 13.7398 17.7208 13.7736 18.5657 14.2134C19.6698 14.7893 20.2287 15.791 20.2287 17.1929C20.2287 18.6693 19.6112 19.7188 18.3939 20.3135C17.4815 20.7583 16.5582 20.7632 16.5194 20.7632H11.4062ZM26.5221 17.7674C26.3265 17.3365 25.9642 16.5402 25.7954 16.162C25.713 15.9763 25.6057 15.75 25.575 15.7063C25.5055 15.6219 25.428 15.5256 25.1828 15.5256C24.9366 15.5256 24.8601 15.6219 24.7916 15.7053C24.7598 15.75 24.6526 15.9763 24.5712 16.161C24.4014 16.5403 24.039 17.3365 23.8434 17.7674H26.5221ZM27.927 20.7629L27.8714 20.6467C27.7136 20.3201 27.4177 19.6955 27.2946 19.4354H23.071C22.9479 19.6955 22.652 20.3201 22.4941 20.6467L22.4385 20.7629H19.9614L20.0894 20.473C20.6385 19.2339 21.2014 18.0424 21.6303 17.1419C21.9143 16.5452 22.1983 15.9624 22.51 15.327C22.7245 14.9189 23.0521 14.3838 23.4076 14.1147C23.7699 13.8566 24.2743 13.6898 24.8412 13.6381C24.9365 13.6292 25.0408 13.6252 25.158 13.6252H25.2066C25.3248 13.6252 25.429 13.6292 25.5243 13.6381C26.0912 13.6898 26.5956 13.8566 26.9451 14.1058C27.3134 14.3838 27.6411 14.9189 27.8526 15.321C28.1673 15.9624 28.4512 16.5452 28.7352 17.1419C29.1641 18.0424 29.7271 19.2339 30.2761 20.473L30.4042 20.7629H27.927ZM48.7048 17.7674C48.5093 17.3365 48.1469 16.5402 47.9781 16.162C47.8957 15.9773 47.7884 15.7499 47.7577 15.7072C47.6882 15.6219 47.6107 15.5256 47.3655 15.5256C47.1193 15.5256 47.0428 15.6219 46.9753 15.7053C46.9425 15.75 46.8353 15.9763 46.7539 16.161C46.5841 16.5403 46.2217 17.3365 46.0261 17.7674H48.7048ZM50.1097 20.7629L50.0541 20.6467C49.8963 20.3201 49.6004 19.6955 49.4773 19.4354H45.2537C45.1306 19.6955 44.8347 20.3201 44.6768 20.6467L44.6212 20.7629H42.1431L42.2722 20.473C42.8192 19.2389 43.3822 18.0454 43.8131 17.1419C44.097 16.5452 44.381 15.9624 44.6927 15.327C44.9072 14.9189 45.2348 14.3838 45.5903 14.1147C45.9517 13.8566 46.457 13.6908 47.024 13.6381C47.1193 13.6292 47.2235 13.6252 47.3407 13.6252H47.3893C47.5075 13.6252 47.6117 13.6292 47.707 13.6381C48.2739 13.6908 48.7783 13.8566 49.1278 14.1058C49.4962 14.3838 49.8238 14.9199 50.0353 15.321C50.35 15.9624 50.634 16.5452 50.9179 17.1419C51.3458 18.0395 51.9068 19.2289 52.4588 20.473L52.5869 20.7629H50.1097Z" fill="white"/>
<path d="M39.4258 20.5547H41.2556V13.9473H39.4258V20.5547Z" fill="url(#paint11_radial_10704_16328)"/>
<path d="M33.9247 13.9452C33.8879 13.9452 33.0112 13.9502 32.1415 14.3742C31.0007 14.9311 30.4219 15.919 30.4219 17.309C30.4219 18.6275 30.9441 19.5677 31.9747 20.1049C32.7769 20.5229 33.6288 20.5566 33.871 20.5566L37.9715 20.5556V19.2272H34.1997C33.5752 19.2272 32.3957 18.8142 32.3957 17.2504C32.3957 15.2965 34.1788 15.2747 34.1967 15.2747H37.9715V13.9452H33.9247Z" fill="url(#paint12_radial_10704_16328)"/>
<path d="M13.4431 19.2272H16.2479C16.2658 19.2272 18.049 19.2043 18.049 17.2514C18.049 15.6877 16.8685 15.2747 16.2449 15.2747H13.4431V19.2272ZM11.6133 20.5556V13.9492L16.5736 13.9462C16.8158 13.9462 17.6677 13.978 18.4699 14.3969C19.5005 14.9331 20.0227 15.8743 20.0227 17.1918C20.0227 18.5828 19.4449 19.5707 18.3031 20.1277C17.4344 20.5517 16.5567 20.5566 16.52 20.5566L11.6133 20.5556Z" fill="#12406E"/>
<path d="M25.1601 13.8291C25.0598 13.8291 24.9606 13.8331 24.8623 13.842C24.0054 13.9205 23.5934 14.2372 23.5348 14.2779C23.2002 14.5311 22.8805 15.0692 22.6979 15.4157C22.3871 16.0511 22.1031 16.6329 21.8192 17.2296C21.3873 18.1351 20.8263 19.3226 20.2812 20.5547H22.3106C22.5122 20.1367 22.9421 19.2263 22.9421 19.2263H27.4278C27.4278 19.2263 27.8577 20.1367 28.0603 20.5547H30.0886C29.5436 19.3226 28.9816 18.1351 28.5517 17.2296C28.2668 16.6329 27.9828 16.0511 27.672 15.4157C27.4894 15.0692 27.1697 14.5311 26.8361 14.2779C26.7765 14.2372 26.3635 13.9205 25.5076 13.842C25.4093 13.8331 25.3091 13.8291 25.2098 13.8291H25.1601ZM24.3837 16.0759C24.3837 16.0759 24.5714 15.651 24.6299 15.5775C24.7094 15.4792 24.8355 15.3174 25.1849 15.3174C25.5344 15.3174 25.6605 15.4792 25.739 15.5775C25.7995 15.651 25.9862 16.0759 25.9862 16.0759C26.2255 16.6081 26.846 17.9723 26.846 17.9723H23.5249C23.5249 17.9723 24.1454 16.6081 24.3837 16.0759Z" fill="url(#paint13_radial_10704_16328)"/>
<path d="M45.7085 17.9742C45.7085 17.9742 46.329 16.6101 46.5683 16.0779C46.5683 16.0779 46.756 15.6529 46.8145 15.5795C46.894 15.4812 47.0201 15.3194 47.3685 15.3194H47.3695C47.718 15.3194 47.8441 15.4812 47.9235 15.5795C47.9821 15.6529 48.1698 16.0779 48.1698 16.0779C48.4091 16.6101 49.0296 17.9742 49.0296 17.9742H45.7085ZM50.7353 17.2316C50.4514 16.6349 50.1674 16.0531 49.8556 15.4177C49.6739 15.0722 49.3543 14.533 49.0197 14.2799C48.9611 14.2392 48.5481 13.9224 47.6912 13.844C47.5929 13.835 47.4936 13.832 47.3934 13.832H47.3447C47.2444 13.832 47.1451 13.835 47.0459 13.844C46.19 13.9224 45.777 14.2392 45.7184 14.2799C45.3838 14.533 45.0641 15.0722 44.8814 15.4177C44.5707 16.0531 44.2867 16.6349 44.0028 17.2316C43.5719 18.1361 43.0109 19.3245 42.4648 20.5566H44.4952C44.6968 20.1386 45.1257 19.2282 45.1257 19.2282H49.6124C49.6124 19.2282 50.0413 20.1386 50.2438 20.5566H52.2732C51.7272 19.3245 51.1662 18.1361 50.7353 17.2316Z" fill="#12406E"/>
<path d="M39.4258 17.9475V20.5547H41.2546V17.9058C40.6658 17.9207 40.0572 17.9346 39.4258 17.9475Z" fill="url(#paint14_linear_10704_16328)"/>
<path d="M30.4766 18.008C30.6344 18.9651 31.1368 19.668 31.9748 20.1049C32.777 20.5229 33.6289 20.5566 33.8711 20.5566L37.9716 20.5556V19.2272H34.1998C33.6924 19.2272 32.8167 18.9532 32.5079 18.01C32.3392 18.01 32.1714 18.0099 32.0006 18.0089H31.9996C31.4823 18.0099 30.975 18.01 30.4766 18.008Z" fill="url(#paint15_linear_10704_16328)"/>
<path d="M11.6172 20.5547H16.5229C16.5606 20.5547 17.4373 20.5498 18.307 20.1258C19.2671 19.6572 19.8271 18.8828 19.981 17.8204C19.29 17.7946 18.6347 17.7668 18.0102 17.738C17.7411 19.2064 16.2677 19.2253 16.2508 19.2253H13.446V17.4551C12.7749 17.4004 12.1662 17.3448 11.6172 17.2892V20.5547Z" fill="url(#paint16_linear_10704_16328)"/>
<path d="M20.2812 20.5547H22.3106C22.5122 20.1367 22.9421 19.2263 22.9421 19.2263H27.4278C27.4278 19.2263 27.8577 20.1367 28.0603 20.5547H30.0886C29.6865 19.6472 29.2775 18.7646 28.9171 18.0011C27.9421 17.9942 27.0088 17.9842 26.1143 17.9723H23.5249L23.5457 17.9257C22.8408 17.9098 22.1637 17.8919 21.5134 17.872C21.1391 18.6653 20.7062 19.5956 20.2812 20.5547Z" fill="url(#paint17_linear_10704_16328)"/>
<path d="M48.8489 17.5781C48.9541 17.8105 49.0286 17.9723 49.0286 17.9723H45.7075C45.7075 17.9723 45.7472 17.8849 45.8108 17.7459C45.1495 17.7767 44.4515 17.8045 43.7168 17.8313C43.3366 18.6335 42.8957 19.5787 42.4648 20.5547H44.4932C44.6958 20.1367 45.1257 19.2263 45.1257 19.2263H49.6114C49.6114 19.2263 50.0413 20.1367 50.2429 20.5547H52.2722C51.7659 19.4119 51.2476 18.3089 50.8296 17.4312C50.225 17.4818 49.5667 17.5305 48.8489 17.5781Z" fill="url(#paint18_linear_10704_16328)"/>
<defs>
<linearGradient id="paint0_linear_10704_16328" x1="17.8589" y1="33.6735" x2="20.8793" y2="21.9135" gradientUnits="userSpaceOnUse">
<stop stop-color="#4A4A49"/>
<stop offset="0.4772" stop-color="#A4A3A3"/>
<stop offset="0.8301" stop-color="#E9E9E9"/>
<stop offset="1" stop-color="#E9E9E9"/>
</linearGradient>
<linearGradient id="paint1_linear_10704_16328" x1="31.9999" y1="-21.6154" x2="31.9999" y2="54.5724" gradientUnits="userSpaceOnUse">
<stop stop-color="#131313"/>
<stop offset="0.5052" stop-color="white"/>
<stop offset="0.7387" stop-color="#434342"/>
<stop offset="1" stop-color="#434342"/>
</linearGradient>
<linearGradient id="paint2_linear_10704_16328" x1="67.9452" y1="5.09829" x2="-4.83231" y2="5.09829" gradientUnits="userSpaceOnUse">
<stop stop-color="#F0F0F0"/>
<stop offset="0.4973" stop-color="#929292"/>
<stop offset="1" stop-color="#F0F0F0"/>
</linearGradient>
<linearGradient id="paint3_linear_10704_16328" x1="31.9981" y1="2.76075" x2="31.9981" y2="61.5879" gradientUnits="userSpaceOnUse">
<stop stop-color="#E3E3E3"/>
<stop offset="0.1106" stop-color="#FAFAFA"/>
<stop offset="0.3458" stop-color="white"/>
<stop offset="0.695" stop-color="#DADADA"/>
<stop offset="0.8493" stop-color="#D5D5D5"/>
<stop offset="1" stop-color="#E3E3E3"/>
</linearGradient>
<linearGradient id="paint4_linear_10704_16328" x1="32.0004" y1="4.91201" x2="32.0004" y2="63.5496" gradientUnits="userSpaceOnUse">
<stop stop-color="#C6C6C6"/>
<stop offset="0.1106" stop-color="#EDEDED"/>
<stop offset="0.3344" stop-color="#F0F0F0"/>
<stop offset="0.6671" stop-color="#575756"/>
<stop offset="0.8348" stop-color="#3A3938"/>
<stop offset="0.9649" stop-color="#929292"/>
<stop offset="1" stop-color="#929292"/>
</linearGradient>
<linearGradient id="paint5_linear_10704_16328" x1="32.0013" y1="4.91296" x2="32.0013" y2="63.5509" gradientUnits="userSpaceOnUse">
<stop stop-color="#C6C6C6"/>
<stop offset="0.1106" stop-color="#EDEDED"/>
<stop offset="0.3344" stop-color="#F0F0F0"/>
<stop offset="0.6671" stop-color="#575756"/>
<stop offset="0.8493" stop-color="#3A3938"/>
<stop offset="0.9802" stop-color="#929292"/>
<stop offset="1" stop-color="#929292"/>
</linearGradient>
<linearGradient id="paint6_linear_10704_16328" x1="32.0007" y1="16.7355" x2="32.0007" y2="34.5128" gradientUnits="userSpaceOnUse">
<stop stop-color="#E3E3E3"/>
<stop offset="0.3129" stop-color="#F4F4F4"/>
<stop offset="0.9851" stop-color="#646363"/>
<stop offset="1" stop-color="#646363"/>
</linearGradient>
<linearGradient id="paint7_linear_10704_16328" x1="10.9405" y1="28.9829" x2="25.1978" y2="48.2575" gradientUnits="userSpaceOnUse">
<stop/>
<stop offset="0.4525" stop-color="#4A4A49"/>
<stop offset="0.8027" stop-color="#8C8C8B"/>
<stop offset="1" stop-color="#F0F0F0"/>
</linearGradient>
<linearGradient id="paint8_linear_10704_16328" x1="53.0598" y1="28.9823" x2="38.8025" y2="48.257" gradientUnits="userSpaceOnUse">
<stop/>
<stop offset="0.4525" stop-color="#4A4A49"/>
<stop offset="0.8027" stop-color="#8C8C8B"/>
<stop offset="1" stop-color="#F0F0F0"/>
</linearGradient>
<linearGradient id="paint9_linear_10704_16328" x1="31.999" y1="33.6759" x2="31.999" y2="49.7885" gradientUnits="userSpaceOnUse">
<stop stop-color="#4A4A49"/>
<stop offset="0.4977" stop-color="#CACACA"/>
<stop offset="1" stop-color="white"/>
</linearGradient>
<linearGradient id="paint10_linear_10704_16328" x1="46.1416" y1="33.6736" x2="43.1213" y2="21.9135" gradientUnits="userSpaceOnUse">
<stop stop-color="#4A4A49"/>
<stop offset="0.4435" stop-color="#A4A3A3"/>
<stop offset="0.8301" stop-color="#E9E9E9"/>
<stop offset="1" stop-color="#E9E9E9"/>
</linearGradient>
<radialGradient id="paint11_radial_10704_16328" cx="0" cy="0" r="1" gradientUnits="userSpaceOnUse" gradientTransform="translate(38.4531 11.9525) rotate(90) scale(4.72445 4.72446)">
<stop stop-color="#7A8EA8"/>
<stop offset="1" stop-color="#12406E"/>
</radialGradient>
<radialGradient id="paint12_radial_10704_16328" cx="0" cy="0" r="1" gradientUnits="userSpaceOnUse" gradientTransform="translate(34.3571 11.2593) rotate(90) scale(5.70221)">
<stop stop-color="#7A8EA8"/>
<stop offset="1" stop-color="#12406E"/>
</radialGradient>
<radialGradient id="paint13_radial_10704_16328" cx="0" cy="0" r="1" gradientUnits="userSpaceOnUse" gradientTransform="translate(26.652 11.4665) rotate(90) scale(5.48341 5.48342)">
<stop stop-color="#7A8EA8"/>
<stop offset="1" stop-color="#12406E"/>
</radialGradient>
<linearGradient id="paint14_linear_10704_16328" x1="40.3398" y1="19.7934" x2="40.3398" y2="17.2223" gradientUnits="userSpaceOnUse">
<stop stop-color="#12406E"/>
<stop offset="1" stop-color="#0D2E52"/>
</linearGradient>
<linearGradient id="paint15_linear_10704_16328" x1="34.2237" y1="19.7943" x2="34.2237" y2="17.2232" gradientUnits="userSpaceOnUse">
<stop stop-color="#12406E"/>
<stop offset="1" stop-color="#0D2E52"/>
</linearGradient>
<linearGradient id="paint16_linear_10704_16328" x1="15.7991" y1="19.7934" x2="15.7991" y2="17.2222" gradientUnits="userSpaceOnUse">
<stop stop-color="#12406E"/>
<stop offset="1" stop-color="#0D2E52"/>
</linearGradient>
<linearGradient id="paint17_linear_10704_16328" x1="25.1851" y1="19.7934" x2="25.1851" y2="17.2223" gradientUnits="userSpaceOnUse">
<stop stop-color="#12406E"/>
<stop offset="1" stop-color="#0D2E52"/>
</linearGradient>
<linearGradient id="paint18_linear_10704_16328" x1="47.3681" y1="19.7934" x2="47.3681" y2="17.2222" gradientUnits="userSpaceOnUse">
<stop stop-color="#12406E"/>
<stop offset="1" stop-color="#0D2E52"/>
</linearGradient>
</defs>
</svg>
