<svg width="64" height="64" viewBox="0 0 64 64" fill="none" xmlns="http://www.w3.org/2000/svg">
<g clip-path="url(#clip0_11140_10287)">
<path fill-rule="evenodd" clip-rule="evenodd" d="M3.60113 18V23.3799H23.5116V28.805H3.60113V34.1848H25.5849C26.0892 34.1848 26.4216 34.045 26.7653 33.6994L32.5533 28.0693L38.3415 33.6994C38.6852 34.0449 39.0176 34.1848 39.5218 34.1848H61.5056V28.805H41.5951V23.3799H61.5056V18H39.5218C39.0175 18 38.6851 18.1399 38.3414 18.4854L32.5533 24.1156L26.7653 18.4854C26.4216 18.1399 26.0892 18 25.5849 18H3.60113ZM0 46.2665V48.4897L8.1826 48.5421C8.37794 48.5421 8.48611 48.5869 8.61032 48.7112L9.4805 49.4632C9.54418 49.5268 9.57333 49.5675 9.57333 49.6331C9.57333 49.6987 9.54418 49.7395 9.4805 49.8032L8.61032 50.5552C8.48608 50.6794 8.37794 50.7242 8.1826 50.7242L0 50.7767V52.9999H9.20711C9.53591 52.9999 9.69802 52.9462 9.90893 52.7353L12.5398 50.0158C12.6389 49.9167 12.7038 49.762 12.7038 49.6331C12.7038 49.5043 12.6389 49.3497 12.5398 49.2506L9.90893 46.5309C9.69802 46.32 9.53591 46.2665 9.20711 46.2665H0Z" fill="#241F21"/>
<path d="M20.7751 46.2656C20.6303 46.2656 20.5482 46.2947 20.4914 46.3514L14.0322 52.8372C13.9644 52.9053 13.995 52.9991 14.1004 52.9991H17.241L20.5721 49.5437C20.6412 49.4746 20.6931 49.4457 20.7751 49.4457C20.857 49.4457 20.9089 49.4746 20.9781 49.5437L24.309 52.9991H27.4497C27.5552 52.9991 27.5858 52.9053 27.5179 52.8372L21.0587 46.3515C21.0019 46.2946 20.9198 46.2656 20.775 46.2656H20.7751Z" fill="#241F21"/>
<path fill-rule="evenodd" clip-rule="evenodd" d="M41.6022 46.2656V48.4889L33.4196 48.5413C33.2243 48.5413 33.1161 48.5861 32.9919 48.7104L32.1217 49.4624C32.058 49.526 32.0289 49.5667 32.0289 49.6323C32.0289 49.6979 32.058 49.7387 32.1217 49.8024L32.9919 50.5544C33.1161 50.6786 33.2243 50.7234 33.4196 50.7234L41.6022 50.7758V52.9991H32.3951C32.0663 52.9991 31.9042 52.9453 31.6933 52.7344L29.0624 50.015C28.9633 49.9159 28.8984 49.7611 28.8984 49.6323C28.8984 49.5034 28.9633 49.3488 29.0624 49.2498L31.6933 46.5301C31.9042 46.3192 32.0663 46.2656 32.3951 46.2656H41.6022Z" fill="#241F21"/>
<path d="M45.4414 46.2656H48.0152V52.9991H45.4414V46.2656ZM57.3057 46.2656C57.1609 46.2656 57.0788 46.2947 57.022 46.3514L50.5628 52.8372C50.495 52.9053 50.5256 52.9991 50.631 52.9991H53.7717L57.1027 49.5437C57.1718 49.4746 57.2237 49.4457 57.3057 49.4457C57.3877 49.4457 57.4396 49.4746 57.5087 49.5437L60.8397 52.9991H63.9804C64.0858 52.9991 64.1164 52.9053 64.0486 52.8372L57.5893 46.3515C57.5325 46.2946 57.4505 46.2656 57.3057 46.2656Z" fill="#241F21"/>
</g>
<defs>
<clipPath id="clip0_11140_10287">
<rect width="64" height="64" fill="white"/>
</clipPath>
</defs>
</svg>
