<svg width="64" height="65" viewBox="0 0 64 65" fill="none" xmlns="http://www.w3.org/2000/svg">
<g clip-path="url(#clip0_10704_16364)">
<path d="M39.9662 56.502C38.4972 39.259 49.6828 25.2877 61.9176 23.6465C69.3992 39.0245 55.4959 53.7205 39.9662 56.502Z" fill="black"/>
<path d="M53.09 13.4258C54.9368 14.5981 57.8539 17.4222 58.8717 18.7969C43.2371 27.2586 38.4313 42.7325 38.8405 56.6825C38.1689 56.8104 37.4134 56.8637 36.7943 56.9809C35.6191 36.8712 44.3388 22.399 53.09 13.4258Z" fill="black"/>
<path d="M40.8521 8.02344C43.0871 8.4284 46.4239 9.63264 48.2602 10.6131C39.53 27.7602 35.1754 37.4687 35.8049 57.0989L33.8008 57.2268C33.9687 29.6358 36.466 24.1262 40.8521 8.02344Z" fill="black"/>
<path d="M35.6051 7.20195C33.3596 6.98881 30.7993 6.91422 28.1445 7.12736C30.5265 23.9121 30.7993 31.0203 31.2505 57.2579C31.8171 57.2685 32.2158 57.2685 32.9084 57.2365C32.8034 31.1695 33.3596 24.1359 35.6051 7.20195Z" fill="black"/>
<path d="M23.132 8.02344C20.897 8.4284 17.5707 9.63264 15.7344 10.6131C24.4541 27.7602 28.8192 37.4687 28.1791 57.0989L30.1938 57.2268C30.0259 29.6358 27.5286 24.1262 23.132 8.02344Z" fill="black"/>
<path d="M10.9145 13.4258C9.0677 14.5981 6.16113 17.4222 5.13281 18.7969C20.7674 27.2586 25.5628 42.7325 25.1535 56.6825C25.8356 56.8104 26.6016 56.8637 27.2102 56.9809C28.3749 36.8712 19.6762 22.399 10.9145 13.4258Z" fill="black"/>
<path d="M24.0341 56.502C25.4926 39.259 14.3175 25.2877 2.09313 23.6465C-5.40939 39.0245 8.50438 53.7205 24.0341 56.502Z" fill="black"/>
</g>
<defs>
<clipPath id="clip0_10704_16364">
<rect width="64" height="65" fill="white"/>
</clipPath>
</defs>
</svg>
