<svg width="64" height="64" viewBox="0 0 64 64" fill="none" xmlns="http://www.w3.org/2000/svg">
<g clip-path="url(#clip0_10704_16373)">
<path fill-rule="evenodd" clip-rule="evenodd" d="M17.2625 22.4043C31.4028 22.4043 51.2369 23.6897 60.6026 27.5463C61.5209 27.9137 62.1636 28.189 62.1636 28.8317C62.1636 29.7497 60.2355 30.3006 58.4909 30.8516C51.5125 33.0558 39.116 35.6262 20.8438 36.9124L4.04014 20.017C2.3873 20.017 1.01014 20.1091 0 20.2005L17.4464 37.6469L12.6714 44.5335C40.861 40.0342 53.6246 35.6266 59.3176 33.0558C60.5112 32.4131 64 30.9433 64 28.8317C64 27.5459 62.8064 26.8114 61.3378 26.1687C55.4609 23.6897 45.7274 22.0364 36.086 21.2102C26.0776 20.2001 12.7631 19.9248 5.41731 20.0165L21.1191 35.7183C24.1491 35.5344 27.0874 35.2587 29.8421 34.9835L17.2625 22.4043Z" fill="black"/>
</g>
<defs>
<clipPath id="clip0_10704_16373">
<rect width="64" height="64" fill="white"/>
</clipPath>
</defs>
</svg>
