<svg width="64" height="64" viewBox="0 0 64 64" fill="none" xmlns="http://www.w3.org/2000/svg">
<g clip-path="url(#clip0_10704_16377)">
<path d="M17.5312 33.3965L20.0975 33.3689L18.7876 29.5071L17.5312 33.3965Z" fill="#020202" stroke="#231F20" stroke-width="1.33333" stroke-miterlimit="10"/>
<path d="M9.39008 28.7159C9.19438 28.3549 8.6826 28.0008 8.27311 27.8453C7.72127 27.6357 7.20468 27.6758 7.06641 27.6504V35.2508C7.27235 35.2301 7.80579 35.2505 8.3296 34.9746C9.16457 34.5345 10.0645 33.6641 9.98564 31.2526C9.95186 30.2206 9.72248 29.3286 9.39008 28.7159Z" fill="#020202"/>
<path d="M9.39008 28.715C9.19438 28.3541 8.6826 28 8.27311 27.8445C7.72127 27.6349 7.20468 27.6749 7.06641 27.6495V35.25C7.27235 35.2292 7.80579 35.2497 8.3296 34.9737C9.16458 34.5337 10.0645 33.6632 9.98564 31.2517C9.95186 30.2197 9.72248 29.3278 9.39008 28.715Z" stroke="#231F20" stroke-width="1.33333" stroke-miterlimit="10"/>
<path d="M60.1426 38.5899H57.6369L53.1299 31.3003C53.1205 31.2815 53.1299 38.5899 53.1299 38.5899H50.2613V24.412H52.6596L57.4018 32.1886L57.0743 24.412H60.1426V38.5899ZM48.0635 36.9535C47.2337 37.895 45.9983 38.5899 44.5307 38.5899C43.0633 38.5899 41.7904 37.8977 40.9903 36.9266C39.9188 35.6265 39.9188 34.4945 39.9188 32.5787V24.412H42.9522V32.7867C42.8595 34.4511 43.1597 35.6558 44.6156 35.5955C45.7321 35.5493 46.2109 34.8172 46.1024 32.7867V24.412H49.1538L49.1806 32.5787C49.1806 34.4945 49.0735 35.8075 48.0635 36.9535ZM38.9567 34.6165C38.7497 35.8982 38.5122 36.5901 37.7271 37.3992C36.99 38.1586 36.2336 38.5899 34.6629 38.5899C33.961 38.5899 33.4828 38.3956 32.7478 38.0949C31.5654 37.6109 31.252 37.0279 30.8057 36.6016L32.8051 34.9454C33.9412 35.811 34.9416 36.0986 35.6969 35.5313C36.0151 35.2927 36.1757 35.095 36.2523 34.7375C36.3352 34.3505 36.3556 34.1135 36.214 33.7355C36.0937 33.4146 35.9326 33.2063 35.5417 32.8383C34.1458 31.9823 33.3241 31.4417 32.5181 30.8091C31.855 30.289 31.2476 29.3854 31.2476 28.3344C31.2476 27.1597 31.6457 26.1207 32.4423 25.428C33.1818 24.7852 34.1658 24.3527 35.4832 24.4186V24.4183C35.4844 24.4186 35.4851 24.4186 35.4862 24.4188C35.5863 24.4239 35.6881 24.4315 35.7923 24.4423C35.9071 24.4545 36.012 24.4614 36.1071 24.4913C36.1514 24.505 36.195 24.5196 36.2396 24.5317C36.425 24.5824 36.6681 24.666 36.7886 24.707C37.6302 24.9929 38.0671 25.3852 38.3208 25.5878C38.5175 25.7454 38.6891 25.9053 38.8378 26.0605C38.2631 26.6906 37.6888 27.3207 37.1142 27.9509L36.8462 27.743C36.5626 27.503 36.0978 27.1893 35.4672 27.0812C35.3462 27.0606 35.2305 27.0495 35.1212 27.045C34.9116 27.0749 34.7341 27.1343 34.5892 27.2535C34.2885 27.501 34.0384 27.8752 34.2187 28.3344C34.5072 29.0709 36.5894 29.8224 38.0832 31.4333C38.743 32.1449 39.1318 33.5298 38.9567 34.6165ZM28.7795 27.5427V38.5899H25.6V27.5704L23.0643 27.6532V24.412H30.6156L30.6424 27.6257L28.7795 27.5427ZM21.6514 38.5899L20.7433 36.1567L16.7562 36.168L16.0482 38.5899H12.764L16.9512 24.412H20.2344L24.7525 38.5899H21.6514ZM7.09194 38.5896C5.90448 38.5785 4.97421 38.5749 3.88099 38.5481V24.4508C4.95716 24.4411 5.87781 24.3779 7.06516 24.4369C8.64486 24.515 10.5131 25.2393 11.4937 26.3235C12.6006 27.5474 13.3171 29.0535 13.4088 31.2528C13.5008 33.4584 12.7806 35.4285 11.6857 36.7149C10.5905 38.0013 9.02579 38.6079 7.09194 38.5896ZM62.6295 21.1758H1.39383C0.630501 21.1758 0.0117188 21.7866 0.0117188 22.5402V40.462C0.0117188 41.2155 0.630501 41.8264 1.39383 41.8264H62.6295C63.3929 41.8264 64.0117 41.2155 64.0117 40.462V22.5402C64.0117 21.7866 63.3929 21.1758 62.6295 21.1758Z" fill="#020202"/>
<path d="M60.1426 38.5897H57.6369L53.1299 31.3001C53.1205 31.2813 53.1299 38.5897 53.1299 38.5897H50.2613V24.4118H52.6596L57.4018 32.1884L57.0743 24.4118H60.1426V38.5897ZM48.0635 36.9533C47.2337 37.8948 45.9983 38.5897 44.5307 38.5897C43.0633 38.5897 41.7904 37.8975 40.9903 36.9264C39.9188 35.6263 39.9188 34.4944 39.9188 32.5785V24.4118H42.9522V32.7865C42.8595 34.4509 43.1597 35.6557 44.6156 35.5954C45.7321 35.5491 46.2109 34.817 46.1024 32.7865V24.4118H49.1538L49.1806 32.5785C49.1806 34.4944 49.0735 35.8073 48.0635 36.9533ZM38.9567 34.6163C38.7497 35.898 38.5122 36.5899 37.7271 37.399C36.99 38.1584 36.2336 38.5897 34.6629 38.5897C33.961 38.5897 33.4828 38.3955 32.7478 38.0947C31.5654 37.6107 31.252 37.0277 30.8057 36.6014L32.8051 34.9452C33.9412 35.8108 34.9416 36.0984 35.6969 35.5311C36.0151 35.2925 36.1757 35.0948 36.2523 34.7373C36.3352 34.3503 36.3556 34.1133 36.214 33.7353C36.0937 33.4144 35.9326 33.2061 35.5417 32.8381C34.1458 31.9821 33.3241 31.4415 32.5181 30.8089C31.855 30.2888 31.2476 29.3852 31.2476 28.3342C31.2476 27.1595 31.6457 26.1205 32.4423 25.4278C33.1818 24.785 34.1658 24.3525 35.4832 24.4184V24.4181C35.4844 24.4184 35.4851 24.4184 35.4862 24.4186C35.5863 24.4237 35.6881 24.4313 35.7923 24.4421C35.9071 24.4543 36.012 24.4612 36.1071 24.4911C36.1514 24.5048 36.195 24.5194 36.2396 24.5316C36.425 24.5822 36.6681 24.6658 36.7886 24.7068C37.6302 24.9928 38.0671 25.385 38.3208 25.5876C38.5175 25.7452 38.6891 25.9051 38.8378 26.0603C38.2631 26.6904 37.6888 27.3205 37.1142 27.9507L36.8462 27.7428C36.5626 27.5028 36.0978 27.1891 35.4672 27.081C35.3462 27.0604 35.2305 27.0493 35.1212 27.0448C34.9116 27.0747 34.7341 27.1341 34.5892 27.2533C34.2885 27.5008 34.0384 27.875 34.2187 28.3342C34.5072 29.0707 36.5894 29.8222 38.0832 31.4332C38.743 32.1447 39.1318 33.5296 38.9567 34.6163ZM28.7795 27.5425V38.5897H25.6V27.5703L23.0643 27.6531V24.4118H30.6156L30.6424 27.6255L28.7795 27.5425ZM21.6514 38.5897L20.7433 36.1565L16.7562 36.1678L16.0482 38.5897H12.764L16.9512 24.4118H20.2344L24.7525 38.5897H21.6514ZM7.09194 38.5895C5.90448 38.5783 4.97421 38.5747 3.88099 38.5479V24.4506C4.95716 24.4409 5.8778 24.3777 7.06516 24.4367C8.64486 24.5148 10.5131 25.2391 11.4937 26.3233C12.6006 27.5472 13.3171 29.0533 13.4088 31.2526C13.5008 33.4582 12.7806 35.4283 11.6857 36.7147C10.5905 38.0011 9.02579 38.6077 7.09194 38.5895ZM62.6295 21.1756H1.39383C0.630501 21.1756 0.0117188 21.7864 0.0117188 22.54V40.4618C0.0117188 41.2153 0.630501 41.8262 1.39383 41.8262H62.6295C63.3929 41.8262 64.0117 41.2153 64.0117 40.4618V22.54C64.0117 21.7864 63.3929 21.1756 62.6295 21.1756Z" stroke="#231F20" stroke-width="1.33333" stroke-miterlimit="10"/>
<path d="M32.0114 52.7983C40.1322 52.7983 47.2045 48.3698 50.8863 41.8262H13.1367C16.8184 48.3698 23.8909 52.7983 32.0114 52.7983Z" fill="#020202"/>
<path d="M32.0114 52.7988C40.1322 52.7988 47.2045 48.3704 50.8863 41.8267H13.1367C16.8184 48.3704 23.8909 52.7988 32.0114 52.7988Z" stroke="#231F20" stroke-width="1.33333" stroke-miterlimit="10"/>
<path d="M32.0114 10.2031C23.8909 10.2031 16.8183 14.6316 13.1367 21.1752H50.8863C47.2045 14.6316 40.1322 10.2031 32.0114 10.2031Z" fill="#020202"/>
<path d="M32.0114 10.2037C23.8909 10.2037 16.8183 14.6321 13.1367 21.1758H50.8863C47.2045 14.6321 40.1322 10.2037 32.0114 10.2037Z" stroke="#231F20" stroke-width="1.33333" stroke-miterlimit="10"/>
<path d="M43.8111 50.7422C43.5775 50.882 43.3409 51.0179 43.1016 51.1495C43.3409 51.0179 43.5775 50.882 43.8111 50.7422Z" fill="white"/>
<path d="M43.8111 50.7411C43.5775 50.8809 43.3409 51.0168 43.1016 51.1484C43.3409 51.0168 43.5775 50.8809 43.8111 50.7411Z" stroke="#231F20" stroke-width="1.33333" stroke-miterlimit="10"/>
<path d="M45.6274 49.5352C45.1156 49.9126 44.5883 50.2681 44.0469 50.6012C44.5883 50.2681 45.1156 49.9126 45.6274 49.5352Z" fill="white"/>
<path d="M45.6274 49.5336C45.1156 49.9111 44.5883 50.2665 44.0469 50.5996C44.5883 50.2665 45.1156 49.9111 45.6274 49.5336Z" stroke="#231F20" stroke-width="1.33333" stroke-miterlimit="10"/>
<path d="M47.9233 47.5938C47.7914 47.7212 47.6581 47.8467 47.5234 47.9704C47.6581 47.8467 47.7914 47.7212 47.9233 47.5938Z" fill="white"/>
<path d="M47.9233 47.5941C47.7914 47.7215 47.6581 47.847 47.5234 47.9707C47.6581 47.847 47.7914 47.7215 47.9233 47.5941Z" stroke="#231F20" stroke-width="1.33333" stroke-miterlimit="10"/>
<path d="M47.1162 48.3359C46.773 48.6367 46.4216 48.9264 46.0625 49.2052C46.4216 48.9264 46.773 48.6367 47.1162 48.3359Z" fill="white"/>
<path d="M47.1162 48.3359C46.773 48.6366 46.4216 48.9263 46.0625 49.2051C46.4216 48.9263 46.773 48.6366 47.1162 48.3359Z" stroke="#231F20" stroke-width="1.33333" stroke-miterlimit="10"/>
<path d="M46.0599 49.2051C45.9162 49.3164 45.7711 49.4261 45.625 49.5339C45.7711 49.4261 45.9162 49.3164 46.0599 49.2051Z" fill="white"/>
<path d="M46.0599 49.2063C45.9162 49.3176 45.7711 49.4274 45.625 49.5352C45.7711 49.4274 45.9162 49.3176 46.0599 49.2063Z" stroke="#231F20" stroke-width="1.33333" stroke-miterlimit="10"/>
<path d="M17.9641 49.2052C17.6048 48.9264 17.2534 48.6367 16.9102 48.3359C17.2534 48.6367 17.6048 48.9264 17.9641 49.2052Z" fill="white"/>
<path d="M17.9641 49.2051C17.6048 48.9263 17.2534 48.6366 16.9102 48.3359C17.2534 48.6366 17.6048 48.9263 17.9641 49.2051Z" stroke="#231F20" stroke-width="1.33333" stroke-miterlimit="10"/>
<path d="M16.5016 47.9704C16.3669 47.8467 16.2335 47.7212 16.1016 47.5938C16.2335 47.7212 16.3669 47.8467 16.5016 47.9704Z" fill="white"/>
<path d="M16.5016 47.9707C16.3669 47.847 16.2335 47.7215 16.1016 47.5941C16.2335 47.7215 16.3669 47.847 16.5016 47.9707Z" stroke="#231F20" stroke-width="1.33333" stroke-miterlimit="10"/>
<path d="M19.9788 50.6012C19.4372 50.2681 18.9102 49.9126 18.3984 49.5352C18.9102 49.9126 19.4372 50.2681 19.9788 50.6012Z" fill="white"/>
<path d="M19.9788 50.5996C19.4372 50.2665 18.9102 49.9111 18.3984 49.5336C18.9102 49.9111 19.4372 50.2665 19.9788 50.5996Z" stroke="#231F20" stroke-width="1.33333" stroke-miterlimit="10"/>
<path d="M18.3998 49.5339C18.2535 49.4261 18.1085 49.3164 17.9648 49.2051C18.1085 49.3164 18.2535 49.4261 18.3998 49.5339Z" fill="white"/>
<path d="M18.3998 49.5352C18.2535 49.4274 18.1085 49.3176 17.9648 49.2063C18.1085 49.3176 18.2535 49.4274 18.3998 49.5352Z" stroke="#231F20" stroke-width="1.33333" stroke-miterlimit="10"/>
<path d="M20.9205 51.1495C20.6814 51.0179 20.4448 50.882 20.2109 50.7422C20.4448 50.882 20.6814 51.0179 20.9205 51.1495Z" fill="white"/>
<path d="M20.9205 51.1484C20.6814 51.0168 20.4448 50.8809 20.2109 50.7411C20.4448 50.8809 20.6814 51.0168 20.9205 51.1484Z" stroke="#231F20" stroke-width="1.33333" stroke-miterlimit="10"/>
<path d="M32.0113 53.9868C28.9366 53.9868 25.953 53.3918 23.1437 52.2192C22.3807 51.9007 21.6396 51.5433 20.9219 51.1484C21.6396 51.5433 22.3807 51.9007 23.1437 52.2192C25.953 53.3918 28.9366 53.9868 32.0113 53.9868C35.0861 53.9868 38.0697 53.3918 40.8791 52.2192C41.642 51.9007 42.3831 51.5433 43.1006 51.1484C42.3831 51.5433 41.642 51.9007 40.8791 52.2192C38.0697 53.3918 35.0861 53.9868 32.0113 53.9868Z" fill="white"/>
<path d="M32.0113 53.9863C28.9366 53.9863 25.953 53.3913 23.1437 52.2187C22.3807 51.9002 21.6396 51.5428 20.9219 51.1479C21.6396 51.5428 22.3807 51.9002 23.1437 52.2187C25.953 53.3913 28.9366 53.9863 32.0113 53.9863ZM32.0113 53.9863C35.0861 53.9863 38.0698 53.3913 40.8791 52.2187C41.642 51.9002 42.3831 51.5428 43.1006 51.1479C42.3831 51.5428 41.642 51.9002 40.8791 52.2187C38.0698 53.3913 35.0861 53.9863 32.0113 53.9863Z" stroke="#231F20" stroke-width="1.33333" stroke-miterlimit="10"/>
<path d="M0.828251 41.7054C0.807132 41.6961 0.786222 41.6861 0.765625 41.6758C0.786222 41.6861 0.807132 41.6961 0.828251 41.7054Z" fill="#020202"/>
<path d="M0.828251 41.7051C0.807132 41.6958 0.786222 41.6858 0.765625 41.6754C0.786222 41.6858 0.807132 41.6958 0.828251 41.7051Z" stroke="#231F20" stroke-width="1.33333" stroke-miterlimit="10"/>
<path d="M0.64133 41.6056C0.629202 41.5978 0.617283 41.59 0.605469 41.582C0.617283 41.59 0.629202 41.5978 0.64133 41.6056Z" fill="#020202"/>
<path d="M0.64133 41.6055C0.629202 41.5977 0.617283 41.5899 0.605469 41.5819C0.617283 41.5899 0.629202 41.5977 0.64133 41.6055Z" stroke="#231F20" stroke-width="1.33333" stroke-miterlimit="10"/>
<path d="M0.415339 41.4234C0.393278 41.4017 0.372159 41.3787 0.351562 41.3555C0.372159 41.3787 0.393278 41.4017 0.415339 41.4234Z" fill="#020202"/>
<path d="M0.415339 41.4238C0.393278 41.4021 0.372159 41.3791 0.351562 41.3559C0.372159 41.3791 0.393278 41.4021 0.415339 41.4238Z" stroke="#231F20" stroke-width="1.33333" stroke-miterlimit="10"/>
<path d="M0.421009 41.4285C0.420041 41.4276 0.418936 41.4269 0.417969 41.4258C0.418936 41.4269 0.420041 41.4276 0.421009 41.4285Z" fill="#020202"/>
<path d="M0.421009 41.4277C0.420042 41.4268 0.418936 41.4261 0.417969 41.425C0.418936 41.4261 0.420042 41.4268 0.421009 41.4277Z" stroke="#231F20" stroke-width="1.33333" stroke-miterlimit="10"/>
<path d="M0.303292 41.3009C0.28761 41.2811 0.27245 41.2611 0.257812 41.2402C0.27245 41.2611 0.28761 41.2811 0.303292 41.3009Z" fill="#020202"/>
<path d="M0.303292 41.3008C0.28761 41.281 0.27245 41.2609 0.257812 41.2401C0.27245 41.2609 0.28761 41.281 0.303292 41.3008Z" stroke="#231F20" stroke-width="1.33333" stroke-miterlimit="10"/>
<path d="M0.0117188 40.4609C0.0117188 40.66 0.0552119 40.8486 0.132789 41.0192C0.0552119 40.8486 0.0117188 40.66 0.0117188 40.4609Z" fill="#020202"/>
<path d="M0.0117188 40.4632C0.0117188 40.6623 0.0552119 40.8509 0.132789 41.0215C0.0552119 40.8509 0.0117188 40.6623 0.0117188 40.4632Z" stroke="#231F20" stroke-width="1.33333" stroke-miterlimit="10"/>
<path d="M0.235994 41.2049C0.20996 41.1652 0.186018 41.1243 0.164062 41.082C0.186018 41.1243 0.20996 41.1652 0.235994 41.2049Z" fill="#020202"/>
<path d="M0.235994 41.2051C0.20996 41.1654 0.186018 41.1244 0.164062 41.0822C0.186018 41.1244 0.20996 41.1654 0.235994 41.2051Z" stroke="#231F20" stroke-width="1.33333" stroke-miterlimit="10"/>
<path d="M0.544321 41.536C0.525292 41.5211 0.506578 41.5058 0.488281 41.4902C0.506578 41.5058 0.525292 41.5211 0.544321 41.536Z" fill="#020202"/>
<path d="M0.544321 41.5371C0.525292 41.5222 0.506578 41.507 0.488281 41.4914C0.506578 41.507 0.525292 41.5222 0.544321 41.5371Z" stroke="#231F20" stroke-width="1.33333" stroke-miterlimit="10"/>
<path d="M0.764831 41.6765C0.72207 41.6548 0.680668 41.6313 0.640625 41.6055C0.680668 41.6313 0.72207 41.6548 0.764831 41.6765Z" fill="white"/>
<path d="M0.764831 41.6758C0.72207 41.6541 0.680668 41.6306 0.640625 41.6047C0.680668 41.6306 0.72207 41.6541 0.764831 41.6758Z" stroke="#231F20" stroke-width="1.33333" stroke-miterlimit="10"/>
<path d="M0.604445 41.582C0.583534 41.5675 0.563043 41.5524 0.542969 41.5371C0.563043 41.5524 0.583534 41.5675 0.604445 41.582Z" fill="white"/>
<path d="M0.604445 41.582C0.583534 41.5675 0.563043 41.5524 0.542969 41.5371C0.563043 41.5524 0.583534 41.5675 0.604445 41.582Z" stroke="#231F20" stroke-width="1.33333" stroke-miterlimit="10"/>
<path d="M1.39354 41.8248C1.19207 41.8248 1.00074 41.7817 0.828125 41.7051C1.00074 41.7817 1.19207 41.8248 1.39354 41.8248Z" fill="white"/>
<path d="M1.39354 41.8262C1.19207 41.8262 1.00074 41.783 0.828125 41.7064C1.00074 41.783 1.19207 41.8262 1.39354 41.8262Z" stroke="#231F20" stroke-width="1.33333" stroke-miterlimit="10"/>
<path d="M0.514956 21.4863C0.463726 21.5277 0.415632 21.5733 0.371094 21.6216C0.415632 21.5733 0.463726 21.5277 0.514956 21.4863Z" fill="white"/>
<path d="M0.514956 21.4878C0.463726 21.5292 0.415632 21.5747 0.371094 21.623C0.415632 21.5747 0.463726 21.5292 0.514956 21.4878Z" stroke="#231F20" stroke-width="1.33333" stroke-miterlimit="10"/>
<path d="M0.486972 41.4907C0.463344 41.4704 0.440134 41.4494 0.417969 41.4277C0.440134 41.4494 0.463344 41.4704 0.486972 41.4907Z" fill="white"/>
<path d="M0.486972 41.4902C0.463344 41.4699 0.440134 41.4489 0.417969 41.4273C0.440134 41.4489 0.463344 41.4699 0.486972 41.4902Z" stroke="#231F20" stroke-width="1.33333" stroke-miterlimit="10"/>
<path d="M1.39438 21.1758C1.06054 21.1758 0.754419 21.2927 0.515625 21.4875C0.754419 21.2927 1.06054 21.1758 1.39438 21.1758Z" fill="white"/>
<path d="M1.39438 21.1746C1.06054 21.1746 0.754419 21.2915 0.515625 21.4863C0.754419 21.2915 1.06054 21.1746 1.39438 21.1746Z" stroke="#231F20" stroke-width="1.33333" stroke-miterlimit="10"/>
<path d="M0.285156 21.724C0.311712 21.6891 0.339836 21.6554 0.369633 21.623C0.339836 21.6554 0.311712 21.6891 0.285156 21.724Z" fill="white"/>
<path d="M0.285156 21.7227C0.311712 21.6878 0.339836 21.654 0.369633 21.6217C0.339836 21.654 0.311712 21.6878 0.285156 21.7227Z" stroke="#231F20" stroke-width="1.33333" stroke-miterlimit="10"/>
<path d="M0.416964 41.4272C0.415949 41.426 0.415078 41.425 0.414062 41.4238C0.415078 41.425 0.415949 41.426 0.416964 41.4272Z" fill="white"/>
<path d="M0.416964 41.4258C0.415949 41.4246 0.415078 41.4236 0.414062 41.4224C0.415078 41.4236 0.415949 41.4246 0.416964 41.4258Z" stroke="#231F20" stroke-width="1.33333" stroke-miterlimit="10"/>
<path d="M0.258422 41.2403C0.250267 41.2286 0.242216 41.217 0.234375 41.2051C0.242216 41.217 0.250267 41.2286 0.258422 41.2403Z" fill="white"/>
<path d="M0.258422 41.2402C0.250267 41.2286 0.242216 41.2169 0.234375 41.205C0.242216 41.2169 0.250267 41.2286 0.258422 41.2402Z" stroke="#231F20" stroke-width="1.33333" stroke-miterlimit="10"/>
<path d="M0.350899 41.3563C0.335007 41.3381 0.319638 41.3196 0.304688 41.3008C0.319638 41.3196 0.335007 41.3381 0.350899 41.3563Z" fill="white"/>
<path d="M0.350899 41.3555C0.335007 41.3372 0.319638 41.3187 0.304688 41.2999C0.319638 41.3187 0.335007 41.3372 0.350899 41.3555Z" stroke="#231F20" stroke-width="1.33333" stroke-miterlimit="10"/>
<path d="M0.210938 21.8316C0.234043 21.794 0.258926 21.7579 0.285378 21.7227C0.258926 21.7579 0.234043 21.794 0.210938 21.8316Z" fill="white"/>
<path d="M0.210938 21.832C0.234043 21.7945 0.258926 21.7583 0.285378 21.7231C0.258926 21.7583 0.234043 21.7945 0.210938 21.832Z" stroke="#231F20" stroke-width="1.33333" stroke-miterlimit="10"/>
<path d="M0.121094 22.0081C0.138658 21.9671 0.158105 21.9275 0.179329 21.8887C0.158105 21.9275 0.138658 21.9671 0.121094 22.0081Z" fill="white"/>
<path d="M0.121094 22.0078C0.138658 21.9668 0.158105 21.9272 0.179329 21.8884C0.158105 21.9272 0.138658 21.9668 0.121094 22.0078Z" stroke="#231F20" stroke-width="1.33333" stroke-miterlimit="10"/>
<path d="M0.162819 41.0833C0.152363 41.063 0.142327 41.0423 0.132812 41.0215C0.142327 41.0423 0.152363 41.063 0.162819 41.0833Z" fill="white"/>
<path d="M0.162819 41.082C0.152364 41.0617 0.142327 41.041 0.132812 41.0202C0.142327 41.041 0.152364 41.0617 0.162819 41.082Z" stroke="#231F20" stroke-width="1.33333" stroke-miterlimit="10"/>
<path d="M62.8068 39.1775C62.8068 39.9842 62.1444 40.6383 61.3272 40.6383H2.69635C1.87915 40.6383 1.21665 39.9842 1.21665 39.1775V23.8271C1.21665 23.0205 1.87915 22.3665 2.69635 22.3665H61.3272C62.1444 22.3665 62.8068 23.0205 62.8068 23.8271V39.1775ZM32.0117 52.7998C23.8912 52.7998 16.8187 48.3714 13.137 41.8277H50.8866C47.2048 48.3714 40.1324 52.7998 32.0117 52.7998ZM32.0117 10.205C40.1324 10.205 47.2048 14.6335 50.8866 21.1771H13.137C16.8186 14.6335 23.8912 10.205 32.0117 10.205ZM64.0045 22.4019C63.9999 22.356 63.993 22.3108 63.9836 22.2664C63.9652 22.1776 63.9381 22.0919 63.903 22.0102C63.8856 21.9695 63.8663 21.9299 63.8449 21.8911C63.8238 21.8524 63.8004 21.815 63.7759 21.7787C63.7261 21.706 63.6695 21.6383 63.6068 21.5768C63.5445 21.5149 63.476 21.4592 63.4024 21.41C63.3761 21.3926 63.349 21.3765 63.3217 21.3606C63.3008 21.3487 63.2793 21.3374 63.258 21.3265C63.2283 21.3114 63.1983 21.2972 63.1677 21.2845C63.0435 21.2327 62.9104 21.1981 62.7709 21.184C62.7246 21.1795 62.6772 21.1771 62.6295 21.1771H52.2546C51.1795 19.124 49.7939 17.254 48.12 15.6019C46.0282 13.5371 43.5921 11.9159 40.8795 10.7833C38.0702 9.61031 35.0865 9.01562 32.0117 9.01562C28.9371 9.01562 25.9534 9.61031 23.1441 10.7833C20.4312 11.9159 17.9951 13.5371 15.9033 15.6019C14.2296 17.254 12.8439 19.124 11.7689 21.1771H1.39383C1.05986 21.1771 0.753609 21.294 0.514714 21.4888C0.463463 21.5302 0.415454 21.5758 0.370792 21.6241C0.340983 21.6564 0.312847 21.6901 0.28628 21.725C0.259817 21.7603 0.234924 21.7964 0.211808 21.834C0.200303 21.8528 0.189216 21.8718 0.178547 21.8911C0.157315 21.9299 0.13786 21.9695 0.120288 22.0105C0.0504188 22.1735 0.0117188 22.3531 0.0117188 22.5415V40.4633C0.0117188 40.6624 0.0552301 40.851 0.132839 41.0216C0.142357 41.0424 0.152399 41.0631 0.162858 41.0834C0.184823 41.1256 0.208775 41.1666 0.234819 41.2063C0.242664 41.2182 0.250718 41.2298 0.258876 41.2415C0.273519 41.2623 0.288685 41.2824 0.304375 41.3022C0.319332 41.321 0.334707 41.3395 0.350605 41.3577C0.371211 41.381 0.392339 41.404 0.414408 41.4257C0.41514 41.4265 0.415768 41.4272 0.4165 41.4281C0.417232 41.4289 0.418069 41.4294 0.418801 41.4301C0.440975 41.4518 0.464195 41.4728 0.487834 41.4931C0.506138 41.5087 0.52486 41.524 0.543896 41.5388C0.563978 41.5541 0.584479 41.5692 0.605398 41.5837C0.617217 41.5917 0.629141 41.5995 0.641274 41.6073C0.681334 41.6331 0.722753 41.6566 0.765532 41.6783C0.786138 41.6886 0.807056 41.6987 0.828185 41.7079C1.00087 41.7846 1.19228 41.8277 1.39383 41.8277H11.769C12.8439 43.8808 14.2296 45.7508 15.9033 47.4029C15.9687 47.4674 16.0344 47.5314 16.1005 47.5951C16.2325 47.7225 16.3659 47.848 16.5006 47.9717C16.6354 48.0957 16.7714 48.2178 16.9088 48.3381C17.2522 48.6389 17.6037 48.9286 17.9632 49.2073C18.1069 49.3186 18.252 49.4284 18.3983 49.5362C18.9103 49.9136 19.4375 50.2691 19.9794 50.6022C20.0568 50.6497 20.1344 50.6967 20.2124 50.7435C20.4464 50.8833 20.6831 51.0192 20.9223 51.1508C21.64 51.5457 22.3811 51.903 23.1441 52.2216C25.9534 53.3942 28.9371 53.9892 32.0117 53.9892C35.0865 53.9892 38.0702 53.3942 40.8795 52.2216C41.6424 51.903 42.3835 51.5457 43.1011 51.1508C43.3405 51.0192 43.5772 50.8833 43.8109 50.7435C43.8892 50.6967 43.9668 50.6497 44.0442 50.6022C44.5859 50.2691 45.1133 49.9136 45.6253 49.5362C45.7715 49.4284 45.9166 49.3186 46.0605 49.2073C46.4197 48.9286 46.7713 48.6389 47.1146 48.3381C47.252 48.2178 47.388 48.0957 47.5229 47.9717C47.6576 47.848 47.791 47.7225 47.923 47.5951C47.9891 47.5314 48.0547 47.4674 48.12 47.4029C49.7939 45.7508 51.1795 43.8808 52.2546 41.8277H62.6295C62.6772 41.8277 62.7246 41.8253 62.7709 41.8206C62.9104 41.8065 63.0435 41.7722 63.1677 41.7203C63.2502 41.6857 63.3289 41.6437 63.4024 41.5946C63.4208 41.5824 63.4388 41.5697 63.4566 41.5565C63.492 41.5304 63.5263 41.5026 63.5589 41.4733C63.5752 41.4584 63.5914 41.4433 63.6068 41.4281C63.6695 41.3662 63.7261 41.2986 63.7759 41.2261C63.8253 41.1534 63.8682 41.076 63.903 40.9943C63.9293 40.9333 63.9513 40.8696 63.9683 40.8042C63.9796 40.7607 63.9887 40.7163 63.9959 40.6711C64.0064 40.6034 64.0117 40.5338 64.0117 40.4633V22.5415C64.0117 22.4942 64.0093 22.4477 64.0045 22.4019Z" fill="white"/>
<path d="M62.8068 39.1746C62.8068 39.9813 62.1444 40.6355 61.3272 40.6355H2.69635C1.87915 40.6355 1.21665 39.9813 1.21665 39.1746V23.8242C1.21665 23.0176 1.87915 22.3636 2.69635 22.3636H61.3272C62.1444 22.3636 62.8068 23.0176 62.8068 23.8242V39.1746ZM32.0117 52.7969C23.8912 52.7969 16.8187 48.3685 13.137 41.8248H50.8866C47.2048 48.3685 40.1324 52.7969 32.0117 52.7969ZM32.0117 10.2021C40.1324 10.2021 47.2048 14.6306 50.8866 21.1742H13.137C16.8186 14.6306 23.8912 10.2021 32.0117 10.2021ZM64.0045 22.399C63.9999 22.3531 63.993 22.3079 63.9836 22.2635C63.9652 22.1747 63.9381 22.089 63.903 22.0073C63.8856 21.9666 63.8663 21.927 63.8449 21.8882C63.8238 21.8496 63.8004 21.8121 63.7759 21.7759C63.7261 21.7032 63.6695 21.6354 63.6068 21.5739C63.5445 21.5121 63.476 21.4563 63.4024 21.4072C63.3761 21.3897 63.349 21.3736 63.3217 21.3577C63.3008 21.3458 63.2793 21.3345 63.258 21.3236C63.2283 21.3086 63.1983 21.2943 63.1677 21.2816C63.0435 21.2298 62.9104 21.1952 62.7709 21.1812C62.7246 21.1766 62.6772 21.1742 62.6295 21.1742H52.2545C51.1795 19.1211 49.7939 17.2512 48.12 15.599C46.0282 13.5342 43.5921 11.913 40.8795 10.7804C38.0702 9.60743 35.0865 9.01275 32.0117 9.01275C28.9371 9.01275 25.9534 9.60743 23.1441 10.7804C20.4312 11.913 17.9951 13.5342 15.9033 15.599C14.2296 17.2512 12.8439 19.1211 11.7689 21.1742H1.39383C1.05986 21.1742 0.753609 21.2911 0.514714 21.4859C0.463463 21.5273 0.415454 21.5729 0.370792 21.6212C0.340983 21.6535 0.312847 21.6873 0.28628 21.7222C0.259817 21.7574 0.234924 21.7935 0.211808 21.8311C0.200303 21.8499 0.189216 21.8689 0.178547 21.8882C0.157314 21.927 0.13786 21.9666 0.120288 22.0076C0.0504188 22.1707 0.0117188 22.3502 0.0117188 22.5386V40.4605C0.0117188 40.6595 0.0552301 40.8481 0.132839 41.0187C0.142357 41.0396 0.152399 41.0602 0.162858 41.0805C0.184823 41.1228 0.208775 41.1638 0.234819 41.2034C0.242664 41.2153 0.250718 41.2269 0.258876 41.2386C0.273519 41.2595 0.288685 41.2795 0.304375 41.2993C0.319332 41.3181 0.334707 41.3366 0.350605 41.3549C0.371211 41.3781 0.392339 41.4011 0.414408 41.4228C0.41514 41.4236 0.415768 41.4243 0.4165 41.4252C0.417232 41.426 0.418069 41.4265 0.418801 41.4272C0.440975 41.4489 0.464195 41.4699 0.487834 41.4902C0.506138 41.5058 0.52486 41.5211 0.543896 41.536C0.563978 41.5512 0.584479 41.5663 0.605398 41.5809C0.617217 41.5888 0.629141 41.5967 0.641274 41.6044C0.681334 41.6302 0.722753 41.6538 0.765532 41.6754C0.786138 41.6858 0.807056 41.6958 0.828185 41.7051C1.00087 41.7817 1.19228 41.8248 1.39383 41.8248H11.769C12.8439 43.878 14.2296 45.7479 15.9033 47.4C15.9687 47.4646 16.0344 47.5285 16.1005 47.5922C16.2325 47.7196 16.3659 47.8451 16.5006 47.9688C16.6354 48.0928 16.7714 48.215 16.9088 48.3352C17.2522 48.636 17.6037 48.9257 17.9632 49.2044C18.1069 49.3157 18.252 49.4255 18.3983 49.5333C18.9103 49.9107 19.4375 50.2662 19.9794 50.5993C20.0568 50.6468 20.1344 50.6939 20.2124 50.7406C20.4464 50.8804 20.6831 51.0163 20.9223 51.1479C21.64 51.5428 22.3811 51.9002 23.1441 52.2187C25.9534 53.3913 28.9371 53.9863 32.0117 53.9863C35.0865 53.9863 38.0702 53.3913 40.8795 52.2187C41.6424 51.9002 42.3835 51.5428 43.1011 51.1479C43.3405 51.0163 43.5772 50.8804 43.8109 50.7406C43.8892 50.6939 43.9668 50.6468 44.0442 50.5993C44.5859 50.2662 45.1133 49.9107 45.6253 49.5333C45.7715 49.4255 45.9166 49.3157 46.0605 49.2044C46.4197 48.9257 46.7713 48.636 47.1146 48.3352C47.252 48.215 47.388 48.0928 47.5229 47.9688C47.6576 47.8451 47.791 47.7196 47.923 47.5922C47.9891 47.5285 48.0547 47.4646 48.12 47.4C49.7939 45.7479 51.1795 43.878 52.2545 41.8248H62.6295C62.6772 41.8248 62.7246 41.8225 62.7709 41.8177C62.9104 41.8037 63.0435 41.7693 63.1677 41.7175C63.2502 41.6829 63.3289 41.6408 63.4024 41.5917C63.4208 41.5795 63.4387 41.5668 63.4566 41.5536C63.492 41.5275 63.5263 41.4997 63.5589 41.4704C63.5752 41.4555 63.5914 41.4404 63.6068 41.4252C63.6695 41.3633 63.7261 41.2957 63.7759 41.2232C63.8253 41.1505 63.8682 41.0731 63.903 40.9914C63.9293 40.9304 63.9513 40.8667 63.9683 40.8014C63.9796 40.7578 63.9887 40.7134 63.9959 40.6682C64.0064 40.6006 64.0117 40.531 64.0117 40.4605V22.5386C64.0117 22.4913 64.0093 22.4448 64.0045 22.399Z" stroke="#231F20" stroke-width="1.33333" stroke-miterlimit="10"/>
</g>
<defs>
<clipPath id="clip0_10704_16377">
<rect width="64" height="64" fill="white"/>
</clipPath>
</defs>
</svg>
