<?xml version="1.0" encoding="UTF-8"?>
<svg xmlns="http://www.w3.org/2000/svg" xmlns:xlink="http://www.w3.org/1999/xlink" width="2391.18pt" height="1702.57pt" viewBox="0 0 2391.18 1702.57" version="1.1">
<defs>
<clipPath id="clip1">
  <path d="M 0 446 L 2391.179688 446 L 2391.179688 1257 L 0 1257 Z M 0 446 "/>
</clipPath>
<clipPath id="clip2">
  <path d="M 781 1594 L 1610 1594 L 1610 1702.570313 L 781 1702.570313 Z M 781 1594 "/>
</clipPath>
<clipPath id="clip3">
  <path d="M 767 1580 L 1624 1580 L 1624 1702.570313 L 767 1702.570313 Z M 767 1580 "/>
</clipPath>
<clipPath id="clip4">
  <path d="M 0 0 L 2391 0 L 2391 1702.570313 L 0 1702.570313 Z M 0 0 "/>
</clipPath>
<clipPath id="clip5">
  <path d="M 0 0 L 2391.179688 0 L 2391.179688 1702.570313 L 0 1702.570313 Z M 0 0 "/>
</clipPath>
</defs>
<g id="surface1">
<path style="fill-rule:nonzero;fill:rgb(0.799561%,0.799561%,0.799561%);fill-opacity:1;stroke-width:10;stroke-linecap:butt;stroke-linejoin:miter;stroke:rgb(13.699341%,12.199402%,12.5%);stroke-opacity:1;stroke-miterlimit:10;" d="M 6547.1875 7795.778125 L 7505.585938 7806.207813 L 7016.40625 9267.340625 Z M 6547.1875 7795.778125 " transform="matrix(0.1,0,0,-0.1,0,1702.57)"/>
<path style=" stroke:none;fill-rule:nonzero;fill:rgb(0.799561%,0.799561%,0.799561%);fill-opacity:1;" d="M 350.652344 745.914063 C 343.34375 732.257813 324.230469 718.859375 308.9375 712.976563 C 288.328125 705.046875 269.035156 706.5625 263.871094 705.601563 L 263.871094 993.164063 C 271.5625 992.378906 291.484375 993.152344 311.046875 982.710938 C 342.230469 966.0625 375.839844 933.128906 372.894531 841.890625 C 371.632813 802.84375 363.066406 769.097656 350.652344 745.914063 "/>
<path style="fill:none;stroke-width:10;stroke-linecap:butt;stroke-linejoin:miter;stroke:rgb(13.699341%,12.199402%,12.5%);stroke-opacity:1;stroke-miterlimit:10;" d="M 3506.523438 9566.559375 C 3433.4375 9703.121875 3242.304688 9837.10625 3089.375 9895.934375 C 2883.28125 9975.23125 2690.351563 9960.075 2638.710938 9969.684375 L 2638.710938 7094.059375 C 2715.625 7101.910938 2914.84375 7094.176563 3110.46875 7198.590625 C 3422.304688 7365.075 3758.398438 7694.410938 3728.945313 8606.79375 C 3716.328125 8997.2625 3630.664063 9334.723438 3506.523438 9566.559375 Z M 3506.523438 9566.559375 " transform="matrix(0.1,0,0,-0.1,0,1702.57)"/>
<path style=" stroke:none;fill-rule:nonzero;fill:rgb(0.799561%,0.799561%,0.799561%);fill-opacity:1;" d="M 2246.179688 1119.488281 L 2152.601563 1119.488281 L 1984.28125 843.6875 C 1983.929688 842.976563 1984.28125 1119.488281 1984.28125 1119.488281 L 1877.148438 1119.488281 L 1877.148438 583.070313 L 1966.71875 583.070313 L 2143.820313 877.296875 L 2131.589844 583.070313 L 2246.179688 583.070313 Z M 1795.070313 1057.578125 C 1764.078125 1093.199219 1717.941406 1119.488281 1663.128906 1119.488281 C 1608.328125 1119.488281 1560.789063 1093.300781 1530.910156 1056.558594 C 1490.890625 1007.371094 1490.890625 964.542969 1490.890625 892.058594 L 1490.890625 583.070313 L 1604.179688 583.070313 L 1604.179688 899.925781 C 1600.71875 962.898438 1611.929688 1008.480469 1666.300781 1006.199219 C 1708 1004.449219 1725.878906 976.75 1721.828125 899.925781 L 1721.828125 583.070313 L 1835.789063 583.070313 L 1836.789063 892.058594 C 1836.789063 964.542969 1832.789063 1014.21875 1795.070313 1057.578125 Z M 1454.960938 969.15625 C 1447.230469 1017.648438 1438.359375 1043.828125 1409.039063 1074.441406 C 1381.511719 1103.171875 1353.261719 1119.488281 1294.601563 1119.488281 C 1268.390625 1119.488281 1250.53125 1112.140625 1223.078125 1100.761719 C 1178.921875 1082.449219 1167.21875 1060.390625 1150.550781 1044.261719 L 1225.21875 981.601563 C 1267.648438 1014.351563 1305.011719 1025.230469 1333.21875 1003.769531 C 1345.101563 994.742188 1351.101563 987.261719 1353.960938 973.734375 C 1357.058594 959.09375 1357.820313 950.125 1352.53125 935.824219 C 1348.039063 923.683594 1342.019531 915.800781 1327.421875 901.878906 C 1275.289063 869.492188 1244.601563 849.039063 1214.5 825.105469 C 1189.738281 805.425781 1167.050781 771.238281 1167.050781 731.472656 C 1167.050781 687.03125 1181.921875 647.71875 1211.671875 621.511719 C 1239.289063 597.191406 1276.039063 580.828125 1325.238281 583.320313 L 1325.238281 583.308594 C 1325.28125 583.320313 1325.308594 583.320313 1325.351563 583.328125 C 1329.089844 583.519531 1332.890625 583.808594 1336.78125 584.21875 C 1341.070313 584.679688 1344.988281 584.941406 1348.539063 586.070313 C 1350.191406 586.589844 1351.820313 587.140625 1353.488281 587.601563 C 1360.410156 589.519531 1369.488281 592.679688 1373.988281 594.230469 C 1405.421875 605.050781 1421.738281 619.890625 1431.210938 627.558594 C 1438.558594 633.519531 1444.96875 639.570313 1450.519531 645.441406 C 1429.058594 669.28125 1407.609375 693.121094 1386.148438 716.964844 L 1376.140625 709.097656 C 1365.550781 700.019531 1348.191406 688.148438 1324.640625 684.058594 C 1320.121094 683.28125 1315.800781 682.859375 1311.71875 682.691406 C 1303.890625 683.820313 1297.261719 686.070313 1291.851563 690.578125 C 1280.621094 699.941406 1271.28125 714.101563 1278.011719 731.472656 C 1288.789063 759.339844 1366.550781 787.773438 1422.339844 848.722656 C 1446.980469 875.644531 1461.5 928.042969 1454.960938 969.15625 Z M 1074.878906 701.519531 L 1074.878906 1119.488281 L 956.132813 1119.488281 L 956.132813 702.570313 L 861.433594 705.703125 L 861.433594 583.070313 L 1143.449219 583.070313 L 1144.449219 704.660156 Z M 808.667969 1119.488281 L 774.753906 1027.429688 L 625.847656 1027.859375 L 599.40625 1119.488281 L 476.753906 1119.488281 L 633.132813 583.070313 L 755.746094 583.070313 L 924.484375 1119.488281 Z M 264.921875 1119.480469 C 220.574219 1119.058594 185.832031 1118.921875 145.003906 1117.910156 L 145.003906 584.539063 C 185.195313 584.171875 219.578125 581.78125 263.921875 584.011719 C 322.917969 586.96875 392.691406 614.371094 429.3125 655.390625 C 470.652344 701.699219 497.410156 758.679688 500.835938 841.890625 C 504.269531 925.339844 477.375 999.878906 436.484375 1048.550781 C 395.582031 1097.21875 337.144531 1120.171875 264.921875 1119.480469 Z M 2339.058594 460.628906 L 52.117188 460.628906 C 23.609375 460.628906 0.5 483.738281 0.5 512.25 L 0.5 1190.320313 C 0.5 1218.828125 23.609375 1241.941406 52.117188 1241.941406 L 2339.058594 1241.941406 C 2367.570313 1241.941406 2390.679688 1218.828125 2390.679688 1190.320313 L 2390.679688 512.25 C 2390.679688 483.738281 2367.570313 460.628906 2339.058594 460.628906 "/>
<g clip-path="url(#clip1)" clip-rule="nonzero">
<path style="fill:none;stroke-width:10;stroke-linecap:butt;stroke-linejoin:miter;stroke:rgb(13.699341%,12.199402%,12.5%);stroke-opacity:1;stroke-miterlimit:10;" d="M 22461.796875 5830.817188 L 21526.015625 5830.817188 L 19842.8125 8588.825 C 19839.296875 8595.934375 19842.8125 5830.817188 19842.8125 5830.817188 L 18771.484375 5830.817188 L 18771.484375 11194.996875 L 19667.1875 11194.996875 L 21438.203125 8252.73125 L 21315.898438 11194.996875 L 22461.796875 11194.996875 Z M 17950.703125 6449.91875 C 17640.78125 6093.707813 17179.414063 5830.817188 16631.289063 5830.817188 C 16083.28125 5830.817188 15607.890625 6092.692188 15309.101563 6460.114063 C 14908.90625 6951.989063 14908.90625 7380.270313 14908.90625 8105.114063 L 14908.90625 11194.996875 L 16041.796875 11194.996875 L 16041.796875 8026.442188 C 16007.1875 7396.715625 16119.296875 6940.895313 16663.007813 6963.707813 C 17080 6981.207813 17258.789063 7258.2 17218.28125 8026.442188 L 17218.28125 11194.996875 L 18357.890625 11194.996875 L 18367.890625 8105.114063 C 18367.890625 7380.270313 18327.890625 6883.5125 17950.703125 6449.91875 Z M 14549.609375 7334.1375 C 14472.304688 6849.215625 14383.59375 6587.41875 14090.390625 6281.285938 C 13815.117188 5993.98125 13532.617188 5830.817188 12946.015625 5830.817188 C 12683.90625 5830.817188 12505.3125 5904.29375 12230.78125 6018.082813 C 11789.21875 6201.207813 11672.1875 6421.79375 11505.507813 6583.082813 L 12252.1875 7209.684375 C 12676.484375 6882.184375 13050.117188 6773.395313 13332.1875 6988.004688 C 13451.015625 7078.278125 13511.015625 7153.082813 13539.609375 7288.35625 C 13570.585938 7434.7625 13578.203125 7524.45 13525.3125 7667.457813 C 13480.390625 7788.864063 13420.195313 7867.692188 13274.21875 8006.910938 C 12752.890625 8330.778125 12446.015625 8535.309375 12145 8774.645313 C 11897.382813 8971.442188 11670.507813 9313.317188 11670.507813 9710.973438 C 11670.507813 10155.3875 11819.21875 10548.5125 12116.71875 10810.582813 C 12392.890625 11053.785938 12760.390625 11217.41875 13252.382813 11192.496875 L 13252.382813 11192.614063 C 13252.8125 11192.496875 13253.085938 11192.496875 13253.515625 11192.41875 C 13290.898438 11190.504688 13328.90625 11187.614063 13367.8125 11183.5125 C 13410.703125 11178.903125 13449.882813 11176.285938 13485.390625 11164.996875 C 13501.914063 11159.801563 13518.203125 11154.29375 13534.882813 11149.684375 C 13604.101563 11130.504688 13694.882813 11098.903125 13739.882813 11083.395313 C 14054.21875 10975.192188 14217.382813 10826.79375 14312.109375 10750.114063 C 14385.585938 10690.504688 14449.6875 10629.996875 14505.195313 10571.285938 C 14290.585938 10332.8875 14076.09375 10094.489063 13861.484375 9856.051563 L 13761.40625 9934.723438 C 13655.507813 10025.504688 13481.914063 10144.215625 13246.40625 10185.114063 C 13201.210938 10192.8875 13158.007813 10197.10625 13117.1875 10198.785938 C 13038.90625 10187.496875 12972.617188 10164.996875 12918.515625 10119.91875 C 12806.210938 10026.285938 12712.8125 9884.684375 12780.117188 9710.973438 C 12887.890625 9432.301563 13665.507813 9147.965625 14223.398438 8538.473438 C 14469.804688 8269.254688 14615 7745.270313 14549.609375 7334.1375 Z M 10748.789063 10010.504688 L 10748.789063 5830.817188 L 9561.328125 5830.817188 L 9561.328125 9999.996875 L 8614.335938 9968.66875 L 8614.335938 11194.996875 L 11434.492188 11194.996875 L 11444.492188 9979.098438 Z M 8086.679688 5830.817188 L 7747.539063 6751.403125 L 6258.476563 6747.10625 L 5994.0625 5830.817188 L 4767.539063 5830.817188 L 6331.328125 11194.996875 L 7557.460938 11194.996875 L 9244.84375 5830.817188 Z M 2649.21875 5830.895313 C 2205.742188 5835.114063 1858.320313 5836.48125 1450.039063 5846.598438 L 1450.039063 11180.309375 C 1851.953125 11183.98125 2195.78125 11207.8875 2639.21875 11185.582813 C 3229.179688 11156.0125 3926.914063 10881.989063 4293.125 10471.79375 C 4706.523438 10008.707813 4974.101563 9438.903125 5008.359375 8606.79375 C 5042.695313 7772.301563 4773.75 7026.910938 4364.84375 6540.192188 C 3955.820313 6053.5125 3371.445313 5823.98125 2649.21875 5830.895313 Z M 23390.585938 12419.410938 L 521.171875 12419.410938 C 236.09375 12419.410938 5 12188.317188 5 11903.2 L 5 5122.496875 C 5 4837.41875 236.09375 4606.285938 521.171875 4606.285938 L 23390.585938 4606.285938 C 23675.703125 4606.285938 23906.796875 4837.41875 23906.796875 5122.496875 L 23906.796875 11903.2 C 23906.796875 12188.317188 23675.703125 12419.410938 23390.585938 12419.410938 Z M 23390.585938 12419.410938 " transform="matrix(0.1,0,0,-0.1,0,1702.57)"/>
</g>
<path style=" stroke:none;fill-rule:nonzero;fill:rgb(0.799561%,0.799561%,0.799561%);fill-opacity:1;" d="M 1195.589844 1657.070313 C 1498.871094 1657.070313 1763 1489.519531 1900.5 1241.941406 L 490.683594 1241.941406 C 628.183594 1489.519531 892.316406 1657.070313 1195.589844 1657.070313 "/>
<path style="fill:none;stroke-width:10;stroke-linecap:butt;stroke-linejoin:miter;stroke:rgb(13.699341%,12.199402%,12.5%);stroke-opacity:1;stroke-miterlimit:10;" d="M 11955.898438 454.996875 C 14988.710938 454.996875 17630 2130.504688 19005 4606.285938 L 4906.835938 4606.285938 C 6281.835938 2130.504688 8923.164063 454.996875 11955.898438 454.996875 Z M 11955.898438 454.996875 " transform="matrix(0.1,0,0,-0.1,0,1702.57)"/>
<path style=" stroke:none;fill-rule:nonzero;fill:rgb(0.799561%,0.799561%,0.799561%);fill-opacity:1;" d="M 1195.589844 45.5 C 892.316406 45.5 628.179688 213.050781 490.683594 460.628906 L 1900.5 460.628906 C 1763 213.050781 1498.871094 45.5 1195.589844 45.5 "/>
<path style="fill:none;stroke-width:10;stroke-linecap:butt;stroke-linejoin:miter;stroke:rgb(13.699341%,12.199402%,12.5%);stroke-opacity:1;stroke-miterlimit:10;" d="M 11955.898438 16570.7 C 8923.164063 16570.7 6281.796875 14895.192188 4906.835938 12419.410938 L 19005 12419.410938 C 17630 14895.192188 14988.710938 16570.7 11955.898438 16570.7 Z M 11955.898438 16570.7 " transform="matrix(0.1,0,0,-0.1,0,1702.57)"/>
<path style=" stroke:none;fill-rule:nonzero;fill:rgb(100%,100%,100%);fill-opacity:1;" d="M 1636.25 1579.269531 C 1627.519531 1584.558594 1618.679688 1589.699219 1609.738281 1594.679688 C 1618.679688 1589.699219 1627.519531 1584.558594 1636.25 1579.269531 "/>
<path style="fill:none;stroke-width:10;stroke-linecap:butt;stroke-linejoin:miter;stroke:rgb(13.699341%,12.199402%,12.5%);stroke-opacity:1;stroke-miterlimit:10;" d="M 16362.5 1233.004688 C 16275.195313 1180.114063 16186.796875 1128.707813 16097.382813 1078.903125 C 16186.796875 1128.707813 16275.195313 1180.114063 16362.5 1233.004688 Z M 16362.5 1233.004688 " transform="matrix(0.1,0,0,-0.1,0,1702.57)"/>
<path style=" stroke:none;fill-rule:nonzero;fill:rgb(100%,100%,100%);fill-opacity:1;" d="M 1704.011719 1533.589844 C 1684.890625 1547.871094 1665.191406 1561.320313 1644.960938 1573.921875 C 1665.191406 1561.320313 1684.890625 1547.871094 1704.011719 1533.589844 "/>
<path style="fill:none;stroke-width:10;stroke-linecap:butt;stroke-linejoin:miter;stroke:rgb(13.699341%,12.199402%,12.5%);stroke-opacity:1;stroke-miterlimit:10;" d="M 17040.117188 1689.801563 C 16848.90625 1546.989063 16651.914063 1412.496875 16449.609375 1286.48125 C 16651.914063 1412.496875 16848.90625 1546.989063 17040.117188 1689.801563 Z M 17040.117188 1689.801563 " transform="matrix(0.1,0,0,-0.1,0,1702.57)"/>
<path style=" stroke:none;fill-rule:nonzero;fill:rgb(100%,100%,100%);fill-opacity:1;" d="M 1789.820313 1460.148438 C 1784.890625 1464.96875 1779.910156 1469.71875 1774.878906 1474.398438 C 1779.910156 1469.71875 1784.890625 1464.96875 1789.820313 1460.148438 "/>
<path style="fill:none;stroke-width:10;stroke-linecap:butt;stroke-linejoin:miter;stroke:rgb(13.699341%,12.199402%,12.5%);stroke-opacity:1;stroke-miterlimit:10;" d="M 17898.203125 2424.215625 C 17848.90625 2376.0125 17799.101563 2328.5125 17748.789063 2281.715625 C 17799.101563 2328.5125 17848.90625 2376.0125 17898.203125 2424.215625 Z M 17898.203125 2424.215625 " transform="matrix(0.1,0,0,-0.1,0,1702.57)"/>
<path style=" stroke:none;fill-rule:nonzero;fill:rgb(100%,100%,100%);fill-opacity:1;" d="M 1759.628906 1488.261719 C 1746.808594 1499.640625 1733.679688 1510.601563 1720.261719 1521.148438 C 1733.679688 1510.601563 1746.808594 1499.640625 1759.628906 1488.261719 "/>
<path style="fill:none;stroke-width:10;stroke-linecap:butt;stroke-linejoin:miter;stroke:rgb(13.699341%,12.199402%,12.5%);stroke-opacity:1;stroke-miterlimit:10;" d="M 17596.289063 2143.082813 C 17468.085938 2029.29375 17336.796875 1919.684375 17202.617188 1814.215625 C 17336.796875 1919.684375 17468.085938 2029.29375 17596.289063 2143.082813 Z M 17596.289063 2143.082813 " transform="matrix(0.1,0,0,-0.1,0,1702.57)"/>
<path style=" stroke:none;fill-rule:nonzero;fill:rgb(100%,100%,100%);fill-opacity:1;" d="M 1720.261719 1521.148438 C 1714.890625 1525.359375 1709.46875 1529.511719 1704.011719 1533.589844 C 1709.46875 1529.511719 1714.890625 1525.359375 1720.261719 1521.148438 "/>
<path style="fill:none;stroke-width:10;stroke-linecap:butt;stroke-linejoin:miter;stroke:rgb(13.699341%,12.199402%,12.5%);stroke-opacity:1;stroke-miterlimit:10;" d="M 17202.617188 1814.215625 C 17148.90625 1772.10625 17094.6875 1730.582813 17040.117188 1689.801563 C 17094.6875 1730.582813 17148.90625 1772.10625 17202.617188 1814.215625 Z M 17202.617188 1814.215625 " transform="matrix(0.1,0,0,-0.1,0,1702.57)"/>
<path style=" stroke:none;fill-rule:nonzero;fill:rgb(100%,100%,100%);fill-opacity:1;" d="M 670.925781 1521.148438 C 657.5 1510.601563 644.371094 1499.640625 631.546875 1488.261719 C 644.371094 1499.640625 657.5 1510.601563 670.925781 1521.148438 "/>
<path style="fill:none;stroke-width:10;stroke-linecap:butt;stroke-linejoin:miter;stroke:rgb(13.699341%,12.199402%,12.5%);stroke-opacity:1;stroke-miterlimit:10;" d="M 6709.257813 1814.215625 C 6575 1919.684375 6443.710938 2029.29375 6315.46875 2143.082813 C 6443.710938 2029.29375 6575 1919.684375 6709.257813 1814.215625 Z M 6709.257813 1814.215625 " transform="matrix(0.1,0,0,-0.1,0,1702.57)"/>
<path style=" stroke:none;fill-rule:nonzero;fill:rgb(100%,100%,100%);fill-opacity:1;" d="M 616.304688 1474.398438 C 611.273438 1469.71875 606.289063 1464.96875 601.359375 1460.148438 C 606.289063 1464.96875 611.273438 1469.71875 616.304688 1474.398438 "/>
<path style="fill:none;stroke-width:10;stroke-linecap:butt;stroke-linejoin:miter;stroke:rgb(13.699341%,12.199402%,12.5%);stroke-opacity:1;stroke-miterlimit:10;" d="M 6163.046875 2281.715625 C 6112.734375 2328.5125 6062.890625 2376.0125 6013.59375 2424.215625 C 6062.890625 2376.0125 6112.734375 2328.5125 6163.046875 2281.715625 Z M 6163.046875 2281.715625 " transform="matrix(0.1,0,0,-0.1,0,1702.57)"/>
<path style=" stroke:none;fill-rule:nonzero;fill:rgb(100%,100%,100%);fill-opacity:1;" d="M 746.222656 1573.921875 C 725.984375 1561.320313 706.296875 1547.871094 687.175781 1533.589844 C 706.296875 1547.871094 725.984375 1561.320313 746.222656 1573.921875 "/>
<path style="fill:none;stroke-width:10;stroke-linecap:butt;stroke-linejoin:miter;stroke:rgb(13.699341%,12.199402%,12.5%);stroke-opacity:1;stroke-miterlimit:10;" d="M 7462.226563 1286.48125 C 7259.84375 1412.496875 7062.96875 1546.989063 6871.757813 1689.801563 C 7062.96875 1546.989063 7259.84375 1412.496875 7462.226563 1286.48125 Z M 7462.226563 1286.48125 " transform="matrix(0.1,0,0,-0.1,0,1702.57)"/>
<path style=" stroke:none;fill-rule:nonzero;fill:rgb(100%,100%,100%);fill-opacity:1;" d="M 687.175781 1533.589844 C 681.710938 1529.511719 676.292969 1525.359375 670.925781 1521.148438 C 676.292969 1525.359375 681.710938 1529.511719 687.175781 1533.589844 "/>
<path style="fill:none;stroke-width:10;stroke-linecap:butt;stroke-linejoin:miter;stroke:rgb(13.699341%,12.199402%,12.5%);stroke-opacity:1;stroke-miterlimit:10;" d="M 6871.757813 1689.801563 C 6817.109375 1730.582813 6762.929688 1772.10625 6709.257813 1814.215625 C 6762.929688 1772.10625 6817.109375 1730.582813 6871.757813 1689.801563 Z M 6871.757813 1689.801563 " transform="matrix(0.1,0,0,-0.1,0,1702.57)"/>
<path style=" stroke:none;fill-rule:nonzero;fill:rgb(100%,100%,100%);fill-opacity:1;" d="M 781.4375 1594.679688 C 772.503906 1589.699219 763.664063 1584.558594 754.925781 1579.269531 C 763.664063 1584.558594 772.503906 1589.699219 781.4375 1594.679688 "/>
<path style="fill:none;stroke-width:10;stroke-linecap:butt;stroke-linejoin:miter;stroke:rgb(13.699341%,12.199402%,12.5%);stroke-opacity:1;stroke-miterlimit:10;" d="M 7814.375 1078.903125 C 7725.039063 1128.707813 7636.640625 1180.114063 7549.257813 1233.004688 C 7636.640625 1180.114063 7725.039063 1128.707813 7814.375 1078.903125 Z M 7814.375 1078.903125 " transform="matrix(0.1,0,0,-0.1,0,1702.57)"/>
<g clip-path="url(#clip2)" clip-rule="nonzero">
<path style=" stroke:none;fill-rule:nonzero;fill:rgb(100%,100%,100%);fill-opacity:1;" d="M 1195.589844 1702.070313 C 1080.761719 1702.070313 969.332031 1679.558594 864.414063 1635.191406 C 835.917969 1623.140625 808.242188 1609.621094 781.4375 1594.679688 C 808.242188 1609.621094 835.917969 1623.140625 864.414063 1635.191406 C 969.332031 1679.558594 1080.761719 1702.070313 1195.589844 1702.070313 C 1310.421875 1702.070313 1421.851563 1679.558594 1526.769531 1635.191406 C 1555.261719 1623.140625 1582.941406 1609.621094 1609.738281 1594.679688 C 1582.941406 1609.621094 1555.261719 1623.140625 1526.769531 1635.191406 C 1421.851563 1679.558594 1310.421875 1702.070313 1195.589844 1702.070313 "/>
</g>
<g clip-path="url(#clip3)" clip-rule="nonzero">
<path style="fill:none;stroke-width:10;stroke-linecap:butt;stroke-linejoin:miter;stroke:rgb(13.699341%,12.199402%,12.5%);stroke-opacity:1;stroke-miterlimit:10;" d="M 11955.898438 4.996875 C 10807.617188 4.996875 9693.320313 230.114063 8644.140625 673.785938 C 8359.179688 794.29375 8082.421875 929.489063 7814.375 1078.903125 C 8082.421875 929.489063 8359.179688 794.29375 8644.140625 673.785938 C 9693.320313 230.114063 10807.617188 4.996875 11955.898438 4.996875 C 13104.21875 4.996875 14218.515625 230.114063 15267.695313 673.785938 C 15552.617188 794.29375 15829.414063 929.489063 16097.382813 1078.903125 C 15829.414063 929.489063 15552.617188 794.29375 15267.695313 673.785938 C 14218.515625 230.114063 13104.21875 4.996875 11955.898438 4.996875 Z M 11955.898438 4.996875 " transform="matrix(0.1,0,0,-0.1,0,1702.57)"/>
</g>
<path style=" stroke:none;fill-rule:nonzero;fill:rgb(0.799561%,0.799561%,0.799561%);fill-opacity:1;" d="M 30.992188 1237.410156 C 30.203125 1237.058594 29.421875 1236.679688 28.652344 1236.289063 C 29.421875 1236.679688 30.203125 1237.058594 30.992188 1237.410156 "/>
<path style="fill:none;stroke-width:10;stroke-linecap:butt;stroke-linejoin:miter;stroke:rgb(13.699341%,12.199402%,12.5%);stroke-opacity:1;stroke-miterlimit:10;" d="M 309.921875 4651.598438 C 302.03125 4655.114063 294.21875 4658.903125 286.523438 4662.809375 C 294.21875 4658.903125 302.03125 4655.114063 309.921875 4651.598438 Z M 309.921875 4651.598438 " transform="matrix(0.1,0,0,-0.1,0,1702.57)"/>
<path style=" stroke:none;fill-rule:nonzero;fill:rgb(0.799561%,0.799561%,0.799561%);fill-opacity:1;" d="M 24.011719 1233.601563 C 23.558594 1233.308594 23.113281 1233.011719 22.671875 1232.710938 C 23.113281 1233.011719 23.558594 1233.308594 24.011719 1233.601563 "/>
<path style="fill:none;stroke-width:10;stroke-linecap:butt;stroke-linejoin:miter;stroke:rgb(13.699341%,12.199402%,12.5%);stroke-opacity:1;stroke-miterlimit:10;" d="M 240.117188 4689.684375 C 235.585938 4692.614063 231.132813 4695.582813 226.71875 4698.590625 C 231.132813 4695.582813 235.585938 4692.614063 240.117188 4689.684375 Z M 240.117188 4689.684375 " transform="matrix(0.1,0,0,-0.1,0,1702.57)"/>
<path style=" stroke:none;fill-rule:nonzero;fill:rgb(0.799561%,0.799561%,0.799561%);fill-opacity:1;" d="M 15.539063 1226.730469 C 14.714844 1225.910156 13.925781 1225.039063 13.15625 1224.160156 C 13.925781 1225.039063 14.714844 1225.910156 15.539063 1226.730469 "/>
<path style="fill:none;stroke-width:10;stroke-linecap:butt;stroke-linejoin:miter;stroke:rgb(13.699341%,12.199402%,12.5%);stroke-opacity:1;stroke-miterlimit:10;" d="M 155.390625 4758.395313 C 147.148438 4766.598438 139.257813 4775.309375 131.5625 4784.098438 C 139.257813 4775.309375 147.148438 4766.598438 155.390625 4758.395313 Z M 155.390625 4758.395313 " transform="matrix(0.1,0,0,-0.1,0,1702.57)"/>
<path style=" stroke:none;fill-rule:nonzero;fill:rgb(0.799561%,0.799561%,0.799561%);fill-opacity:1;" d="M 15.703125 1226.898438 C 15.675781 1226.871094 15.644531 1226.851563 15.617188 1226.820313 C 15.644531 1226.851563 15.675781 1226.871094 15.703125 1226.898438 "/>
<path style="fill:none;stroke-width:10;stroke-linecap:butt;stroke-linejoin:miter;stroke:rgb(13.699341%,12.199402%,12.5%);stroke-opacity:1;stroke-miterlimit:10;" d="M 157.03125 4756.715625 C 156.757813 4756.989063 156.445313 4757.184375 156.171875 4757.496875 C 156.445313 4757.184375 156.757813 4756.989063 157.03125 4756.715625 Z M 157.03125 4756.715625 " transform="matrix(0.1,0,0,-0.1,0,1702.57)"/>
<path style=" stroke:none;fill-rule:nonzero;fill:rgb(0.799561%,0.799561%,0.799561%);fill-opacity:1;" d="M 11.429688 1222.058594 C 10.84375 1221.308594 10.277344 1220.550781 9.730469 1219.761719 C 10.277344 1220.550781 10.84375 1221.308594 11.429688 1222.058594 "/>
<path style="fill:none;stroke-width:10;stroke-linecap:butt;stroke-linejoin:miter;stroke:rgb(13.699341%,12.199402%,12.5%);stroke-opacity:1;stroke-miterlimit:10;" d="M 114.296875 4805.114063 C 108.4375 4812.614063 102.773438 4820.192188 97.304688 4828.082813 C 102.773438 4820.192188 108.4375 4812.614063 114.296875 4805.114063 Z M 114.296875 4805.114063 " transform="matrix(0.1,0,0,-0.1,0,1702.57)"/>
<path style=" stroke:none;fill-rule:nonzero;fill:rgb(0.799561%,0.799561%,0.799561%);fill-opacity:1;" d="M 0.5 1190.320313 C 0.5 1197.851563 2.125 1204.988281 5.023438 1211.441406 C 2.125 1204.988281 0.5 1197.851563 0.5 1190.320313 "/>
<path style="fill:none;stroke-width:10;stroke-linecap:butt;stroke-linejoin:miter;stroke:rgb(13.699341%,12.199402%,12.5%);stroke-opacity:1;stroke-miterlimit:10;" d="M 5 5122.496875 C 5 5047.184375 21.25 4975.817188 50.234375 4911.285938 C 21.25 4975.817188 5 5047.184375 5 5122.496875 Z M 5 5122.496875 " transform="matrix(0.1,0,0,-0.1,0,1702.57)"/>
<path style=" stroke:none;fill-rule:nonzero;fill:rgb(0.799561%,0.799561%,0.799561%);fill-opacity:1;" d="M 8.832031 1218.429688 C 7.859375 1216.929688 6.964844 1215.378906 6.144531 1213.78125 C 6.964844 1215.378906 7.859375 1216.929688 8.832031 1218.429688 "/>
<path style="fill:none;stroke-width:10;stroke-linecap:butt;stroke-linejoin:miter;stroke:rgb(13.699341%,12.199402%,12.5%);stroke-opacity:1;stroke-miterlimit:10;" d="M 88.320313 4841.403125 C 78.59375 4856.403125 69.648438 4871.910938 61.445313 4887.8875 C 69.648438 4871.910938 78.59375 4856.403125 88.320313 4841.403125 Z M 88.320313 4841.403125 " transform="matrix(0.1,0,0,-0.1,0,1702.57)"/>
<path style=" stroke:none;fill-rule:nonzero;fill:rgb(0.799561%,0.799561%,0.799561%);fill-opacity:1;" d="M 20.375 1231.011719 C 19.664063 1230.449219 18.964844 1229.871094 18.28125 1229.28125 C 18.964844 1229.871094 19.664063 1230.449219 20.375 1231.011719 "/>
<path style="fill:none;stroke-width:10;stroke-linecap:butt;stroke-linejoin:miter;stroke:rgb(13.699341%,12.199402%,12.5%);stroke-opacity:1;stroke-miterlimit:10;" d="M 203.75 4715.582813 C 196.640625 4721.207813 189.648438 4726.989063 182.8125 4732.8875 C 189.648438 4726.989063 196.640625 4721.207813 203.75 4715.582813 Z M 203.75 4715.582813 " transform="matrix(0.1,0,0,-0.1,0,1702.57)"/>
<path style=" stroke:none;fill-rule:nonzero;fill:rgb(100%,100%,100%);fill-opacity:1;" d="M 28.652344 1236.289063 C 27.054688 1235.46875 25.507813 1234.578125 24.011719 1233.601563 C 25.507813 1234.578125 27.054688 1235.46875 28.652344 1236.289063 "/>
<path style="fill:none;stroke-width:10;stroke-linecap:butt;stroke-linejoin:miter;stroke:rgb(13.699341%,12.199402%,12.5%);stroke-opacity:1;stroke-miterlimit:10;" d="M 286.523438 4662.809375 C 270.546875 4671.0125 255.078125 4679.91875 240.117188 4689.684375 C 255.078125 4679.91875 270.546875 4671.0125 286.523438 4662.809375 Z M 286.523438 4662.809375 " transform="matrix(0.1,0,0,-0.1,0,1702.57)"/>
<path style=" stroke:none;fill-rule:nonzero;fill:rgb(100%,100%,100%);fill-opacity:1;" d="M 22.671875 1232.710938 C 21.890625 1232.160156 21.125 1231.589844 20.375 1231.011719 C 21.125 1231.589844 21.890625 1232.160156 22.671875 1232.710938 "/>
<path style="fill:none;stroke-width:10;stroke-linecap:butt;stroke-linejoin:miter;stroke:rgb(13.699341%,12.199402%,12.5%);stroke-opacity:1;stroke-miterlimit:10;" d="M 226.71875 4698.590625 C 218.90625 4704.098438 211.25 4709.801563 203.75 4715.582813 C 211.25 4709.801563 218.90625 4704.098438 226.71875 4698.590625 Z M 226.71875 4698.590625 " transform="matrix(0.1,0,0,-0.1,0,1702.57)"/>
<path style=" stroke:none;fill-rule:nonzero;fill:rgb(100%,100%,100%);fill-opacity:1;" d="M 52.117188 1241.941406 C 44.589844 1241.941406 37.441406 1240.308594 30.992188 1237.410156 C 37.441406 1240.308594 44.589844 1241.941406 52.117188 1241.941406 "/>
<path style="fill:none;stroke-width:10;stroke-linecap:butt;stroke-linejoin:miter;stroke:rgb(13.699341%,12.199402%,12.5%);stroke-opacity:1;stroke-miterlimit:10;" d="M 521.171875 4606.285938 C 445.898438 4606.285938 374.414063 4622.614063 309.921875 4651.598438 C 374.414063 4622.614063 445.898438 4606.285938 521.171875 4606.285938 Z M 521.171875 4606.285938 " transform="matrix(0.1,0,0,-0.1,0,1702.57)"/>
<path style=" stroke:none;fill-rule:nonzero;fill:rgb(100%,100%,100%);fill-opacity:1;" d="M 19.285156 472.421875 C 17.371094 473.988281 15.574219 475.710938 13.910156 477.539063 C 15.574219 475.710938 17.371094 473.988281 19.285156 472.421875 "/>
<path style="fill:none;stroke-width:10;stroke-linecap:butt;stroke-linejoin:miter;stroke:rgb(13.699341%,12.199402%,12.5%);stroke-opacity:1;stroke-miterlimit:10;" d="M 192.851563 12301.48125 C 173.710938 12285.817188 155.742188 12268.590625 139.101563 12250.309375 C 155.742188 12268.590625 173.710938 12285.817188 192.851563 12301.48125 Z M 192.851563 12301.48125 " transform="matrix(0.1,0,0,-0.1,0,1702.57)"/>
<path style=" stroke:none;fill-rule:nonzero;fill:rgb(100%,100%,100%);fill-opacity:1;" d="M 18.28125 1229.28125 C 17.398438 1228.511719 16.53125 1227.71875 15.703125 1226.898438 C 16.53125 1227.71875 17.398438 1228.511719 18.28125 1229.28125 "/>
<path style="fill:none;stroke-width:10;stroke-linecap:butt;stroke-linejoin:miter;stroke:rgb(13.699341%,12.199402%,12.5%);stroke-opacity:1;stroke-miterlimit:10;" d="M 182.8125 4732.8875 C 173.984375 4740.582813 165.3125 4748.5125 157.03125 4756.715625 C 165.3125 4748.5125 173.984375 4740.582813 182.8125 4732.8875 Z M 182.8125 4732.8875 " transform="matrix(0.1,0,0,-0.1,0,1702.57)"/>
<path style=" stroke:none;fill-rule:nonzero;fill:rgb(100%,100%,100%);fill-opacity:1;" d="M 52.117188 460.628906 C 39.644531 460.628906 28.207031 465.050781 19.285156 472.421875 C 28.207031 465.050781 39.644531 460.628906 52.117188 460.628906 "/>
<path style="fill:none;stroke-width:10;stroke-linecap:butt;stroke-linejoin:miter;stroke:rgb(13.699341%,12.199402%,12.5%);stroke-opacity:1;stroke-miterlimit:10;" d="M 521.171875 12419.410938 C 396.445313 12419.410938 282.070313 12375.192188 192.851563 12301.48125 C 282.070313 12375.192188 396.445313 12419.410938 521.171875 12419.410938 Z M 521.171875 12419.410938 " transform="matrix(0.1,0,0,-0.1,0,1702.57)"/>
<path style=" stroke:none;fill-rule:nonzero;fill:rgb(100%,100%,100%);fill-opacity:1;" d="M 10.753906 481.359375 C 11.746094 480.039063 12.796875 478.761719 13.910156 477.539063 C 12.796875 478.761719 11.746094 480.039063 10.753906 481.359375 "/>
<path style="fill:none;stroke-width:10;stroke-linecap:butt;stroke-linejoin:miter;stroke:rgb(13.699341%,12.199402%,12.5%);stroke-opacity:1;stroke-miterlimit:10;" d="M 107.539063 12212.10625 C 117.460938 12225.309375 127.96875 12238.082813 139.101563 12250.309375 C 127.96875 12238.082813 117.460938 12225.309375 107.539063 12212.10625 Z M 107.539063 12212.10625 " transform="matrix(0.1,0,0,-0.1,0,1702.57)"/>
<path style=" stroke:none;fill-rule:nonzero;fill:rgb(100%,100%,100%);fill-opacity:1;" d="M 15.617188 1226.820313 C 15.589844 1226.789063 15.566406 1226.761719 15.539063 1226.730469 C 15.566406 1226.761719 15.589844 1226.789063 15.617188 1226.820313 "/>
<path style="fill:none;stroke-width:10;stroke-linecap:butt;stroke-linejoin:miter;stroke:rgb(13.699341%,12.199402%,12.5%);stroke-opacity:1;stroke-miterlimit:10;" d="M 156.171875 4757.496875 C 155.898438 4757.809375 155.664063 4758.082813 155.390625 4758.395313 C 155.664063 4758.082813 155.898438 4757.809375 156.171875 4757.496875 Z M 156.171875 4757.496875 " transform="matrix(0.1,0,0,-0.1,0,1702.57)"/>
<path style=" stroke:none;fill-rule:nonzero;fill:rgb(100%,100%,100%);fill-opacity:1;" d="M 9.730469 1219.761719 C 9.425781 1219.320313 9.125 1218.878906 8.832031 1218.429688 C 9.125 1218.878906 9.425781 1219.320313 9.730469 1219.761719 "/>
<path style="fill:none;stroke-width:10;stroke-linecap:butt;stroke-linejoin:miter;stroke:rgb(13.699341%,12.199402%,12.5%);stroke-opacity:1;stroke-miterlimit:10;" d="M 97.304688 4828.082813 C 94.257813 4832.496875 91.25 4836.910938 88.320313 4841.403125 C 91.25 4836.910938 94.257813 4832.496875 97.304688 4828.082813 Z M 97.304688 4828.082813 " transform="matrix(0.1,0,0,-0.1,0,1702.57)"/>
<path style=" stroke:none;fill-rule:nonzero;fill:rgb(100%,100%,100%);fill-opacity:1;" d="M 13.15625 1224.160156 C 12.5625 1223.46875 11.988281 1222.769531 11.429688 1222.058594 C 11.988281 1222.769531 12.5625 1223.46875 13.15625 1224.160156 "/>
<path style="fill:none;stroke-width:10;stroke-linecap:butt;stroke-linejoin:miter;stroke:rgb(13.699341%,12.199402%,12.5%);stroke-opacity:1;stroke-miterlimit:10;" d="M 131.5625 4784.098438 C 125.625 4791.0125 119.882813 4798.004688 114.296875 4805.114063 C 119.882813 4798.004688 125.625 4791.0125 131.5625 4784.098438 Z M 131.5625 4784.098438 " transform="matrix(0.1,0,0,-0.1,0,1702.57)"/>
<path style=" stroke:none;fill-rule:nonzero;fill:rgb(100%,100%,100%);fill-opacity:1;" d="M 7.972656 485.480469 C 8.835938 484.058594 9.765625 482.691406 10.753906 481.359375 C 9.765625 482.691406 8.835938 484.058594 7.972656 485.480469 "/>
<path style="fill:none;stroke-width:10;stroke-linecap:butt;stroke-linejoin:miter;stroke:rgb(13.699341%,12.199402%,12.5%);stroke-opacity:1;stroke-miterlimit:10;" d="M 79.726563 12170.895313 C 88.359375 12185.114063 97.65625 12198.785938 107.539063 12212.10625 C 97.65625 12198.785938 88.359375 12185.114063 79.726563 12170.895313 Z M 79.726563 12170.895313 " transform="matrix(0.1,0,0,-0.1,0,1702.57)"/>
<path style=" stroke:none;fill-rule:nonzero;fill:rgb(100%,100%,100%);fill-opacity:1;" d="M 4.554688 492.160156 C 5.210938 490.609375 5.9375 489.109375 6.730469 487.640625 C 5.9375 489.109375 5.210938 490.609375 4.554688 492.160156 "/>
<path style="fill:none;stroke-width:10;stroke-linecap:butt;stroke-linejoin:miter;stroke:rgb(13.699341%,12.199402%,12.5%);stroke-opacity:1;stroke-miterlimit:10;" d="M 45.546875 12104.098438 C 52.109375 12119.60625 59.375 12134.60625 67.304688 12149.29375 C 59.375 12134.60625 52.109375 12119.60625 45.546875 12104.098438 Z M 45.546875 12104.098438 " transform="matrix(0.1,0,0,-0.1,0,1702.57)"/>
<path style=" stroke:none;fill-rule:nonzero;fill:rgb(100%,100%,100%);fill-opacity:1;" d="M 6.144531 1213.78125 C 5.753906 1213.011719 5.378906 1212.230469 5.023438 1211.441406 C 5.378906 1212.230469 5.753906 1213.011719 6.144531 1213.78125 "/>
<path style="fill:none;stroke-width:10;stroke-linecap:butt;stroke-linejoin:miter;stroke:rgb(13.699341%,12.199402%,12.5%);stroke-opacity:1;stroke-miterlimit:10;" d="M 61.445313 4887.8875 C 57.539063 4895.582813 53.789063 4903.395313 50.234375 4911.285938 C 53.789063 4903.395313 57.539063 4895.582813 61.445313 4887.8875 Z M 61.445313 4887.8875 " transform="matrix(0.1,0,0,-0.1,0,1702.57)"/>
<g clip-path="url(#clip4)" clip-rule="nonzero">
<path style=" stroke:none;fill-rule:nonzero;fill:rgb(100%,100%,100%);fill-opacity:1;" d="M 2345.679688 1141.671875 C 2345.679688 1172.191406 2320.941406 1196.941406 2290.421875 1196.941406 L 100.761719 1196.941406 C 70.242188 1196.941406 45.5 1172.191406 45.5 1141.671875 L 45.5 560.890625 C 45.5 530.371094 70.242188 505.628906 100.761719 505.628906 L 2290.421875 505.628906 C 2320.941406 505.628906 2345.679688 530.371094 2345.679688 560.890625 Z M 1195.589844 1657.070313 C 892.316406 1657.070313 628.183594 1489.519531 490.683594 1241.941406 L 1900.5 1241.941406 C 1763 1489.519531 1498.871094 1657.070313 1195.589844 1657.070313 Z M 1195.589844 45.5 C 1498.871094 45.5 1763 213.050781 1900.5 460.628906 L 490.683594 460.628906 C 628.179688 213.050781 892.316406 45.5 1195.589844 45.5 Z M 2390.410156 506.96875 C 2390.238281 505.230469 2389.980469 503.519531 2389.628906 501.839844 C 2388.941406 498.480469 2387.929688 495.238281 2386.621094 492.148438 C 2385.96875 490.609375 2385.25 489.109375 2384.449219 487.640625 C 2383.660156 486.179688 2382.789063 484.761719 2381.871094 483.390625 C 2380.011719 480.640625 2377.898438 478.078125 2375.558594 475.75 C 2373.230469 473.410156 2370.671875 471.300781 2367.921875 469.441406 C 2366.941406 468.78125 2365.929688 468.171875 2364.910156 467.570313 C 2364.128906 467.121094 2363.328125 466.691406 2362.53125 466.28125 C 2361.421875 465.710938 2360.300781 465.171875 2359.160156 464.691406 C 2354.519531 462.730469 2349.550781 461.421875 2344.339844 460.890625 C 2342.609375 460.71875 2340.839844 460.628906 2339.058594 460.628906 L 1951.589844 460.628906 C 1911.441406 382.949219 1859.691406 312.199219 1797.179688 249.691406 C 1719.058594 171.570313 1628.078125 110.230469 1526.769531 67.378906 C 1421.851563 23 1310.421875 0.5 1195.589844 0.5 C 1080.761719 0.5 969.332031 23 864.414063 67.378906 C 763.097656 110.230469 672.117188 171.570313 593.996094 249.691406 C 531.488281 312.199219 479.738281 382.949219 439.589844 460.628906 L 52.117188 460.628906 C 39.644531 460.628906 28.207031 465.050781 19.285156 472.421875 C 17.371094 473.988281 15.578125 475.710938 13.910156 477.539063 C 12.796875 478.761719 11.746094 480.039063 10.753906 481.359375 C 9.765625 482.691406 8.835938 484.058594 7.972656 485.480469 C 7.542969 486.191406 7.128906 486.910156 6.730469 487.640625 C 5.9375 489.109375 5.210938 490.609375 4.554688 492.160156 C 1.945313 498.328125 0.5 505.121094 0.5 512.25 L 0.5 1190.320313 C 0.5 1197.851563 2.125 1204.988281 5.023438 1211.441406 C 5.378906 1212.230469 5.753906 1213.011719 6.144531 1213.78125 C 6.964844 1215.378906 7.859375 1216.929688 8.832031 1218.429688 C 9.125 1218.878906 9.425781 1219.320313 9.730469 1219.761719 C 10.277344 1220.550781 10.84375 1221.308594 11.429688 1222.058594 C 11.988281 1222.769531 12.5625 1223.46875 13.15625 1224.160156 C 13.925781 1225.039063 14.714844 1225.910156 15.539063 1226.730469 C 15.566406 1226.761719 15.589844 1226.789063 15.617188 1226.820313 C 15.644531 1226.851563 15.675781 1226.871094 15.703125 1226.898438 C 16.53125 1227.71875 17.398438 1228.511719 18.28125 1229.28125 C 18.964844 1229.871094 19.664063 1230.449219 20.375 1231.011719 C 21.125 1231.589844 21.890625 1232.160156 22.671875 1232.710938 C 23.113281 1233.011719 23.558594 1233.308594 24.011719 1233.601563 C 25.507813 1234.578125 27.054688 1235.46875 28.652344 1236.289063 C 29.421875 1236.679688 30.203125 1237.058594 30.992188 1237.410156 C 37.441406 1240.308594 44.589844 1241.941406 52.117188 1241.941406 L 439.59375 1241.941406 C 479.738281 1319.621094 531.488281 1390.371094 593.996094 1452.878906 C 596.4375 1455.320313 598.890625 1457.738281 601.359375 1460.148438 C 606.289063 1464.96875 611.273438 1469.71875 616.304688 1474.398438 C 621.335938 1479.089844 626.417969 1483.710938 631.546875 1488.261719 C 644.371094 1499.640625 657.5 1510.601563 670.925781 1521.148438 C 676.292969 1525.359375 681.710938 1529.511719 687.175781 1533.589844 C 706.296875 1547.871094 725.984375 1561.320313 746.222656 1573.921875 C 749.113281 1575.71875 752.011719 1577.5 754.925781 1579.269531 C 763.664063 1584.558594 772.503906 1589.699219 781.4375 1594.679688 C 808.242188 1609.621094 835.917969 1623.140625 864.414063 1635.191406 C 969.332031 1679.558594 1080.761719 1702.070313 1195.589844 1702.070313 C 1310.421875 1702.070313 1421.851563 1679.558594 1526.769531 1635.191406 C 1555.261719 1623.140625 1582.941406 1609.621094 1609.738281 1594.679688 C 1618.679688 1589.699219 1627.519531 1584.558594 1636.25 1579.269531 C 1639.171875 1577.5 1642.070313 1575.71875 1644.960938 1573.921875 C 1665.191406 1561.320313 1684.890625 1547.871094 1704.011719 1533.589844 C 1709.46875 1529.511719 1714.890625 1525.359375 1720.261719 1521.148438 C 1733.679688 1510.601563 1746.808594 1499.640625 1759.628906 1488.261719 C 1764.761719 1483.710938 1769.839844 1479.089844 1774.878906 1474.398438 C 1779.910156 1469.71875 1784.890625 1464.96875 1789.820313 1460.148438 C 1792.289063 1457.738281 1794.738281 1455.320313 1797.179688 1452.878906 C 1859.691406 1390.371094 1911.441406 1319.621094 1951.589844 1241.941406 L 2339.058594 1241.941406 C 2340.839844 1241.941406 2342.609375 1241.851563 2344.339844 1241.671875 C 2349.550781 1241.140625 2354.519531 1239.839844 2359.160156 1237.878906 C 2362.238281 1236.570313 2365.179688 1234.980469 2367.921875 1233.121094 C 2368.609375 1232.660156 2369.28125 1232.179688 2369.949219 1231.679688 C 2371.269531 1230.691406 2372.550781 1229.640625 2373.769531 1228.53125 C 2374.378906 1227.96875 2374.980469 1227.398438 2375.558594 1226.820313 C 2377.898438 1224.480469 2380.011719 1221.921875 2381.871094 1219.179688 C 2383.71875 1216.429688 2385.320313 1213.5 2386.621094 1210.410156 C 2387.601563 1208.101563 2388.421875 1205.691406 2389.058594 1203.21875 C 2389.480469 1201.570313 2389.820313 1199.890625 2390.089844 1198.179688 C 2390.480469 1195.621094 2390.679688 1192.988281 2390.679688 1190.320313 L 2390.679688 512.25 C 2390.679688 510.460938 2390.589844 508.699219 2390.410156 506.96875 "/>
</g>
<g clip-path="url(#clip5)" clip-rule="nonzero">
<path style="fill:none;stroke-width:10;stroke-linecap:butt;stroke-linejoin:miter;stroke:rgb(13.699341%,12.199402%,12.5%);stroke-opacity:1;stroke-miterlimit:10;" d="M 23456.796875 5608.98125 C 23456.796875 5303.785938 23209.414063 5056.285938 22904.21875 5056.285938 L 1007.617188 5056.285938 C 702.421875 5056.285938 455 5303.785938 455 5608.98125 L 455 11416.79375 C 455 11721.989063 702.421875 11969.410938 1007.617188 11969.410938 L 22904.21875 11969.410938 C 23209.414063 11969.410938 23456.796875 11721.989063 23456.796875 11416.79375 Z M 11955.898438 454.996875 C 8923.164063 454.996875 6281.835938 2130.504688 4906.835938 4606.285938 L 19005 4606.285938 C 17630 2130.504688 14988.710938 454.996875 11955.898438 454.996875 Z M 11955.898438 16570.7 C 14988.710938 16570.7 17630 14895.192188 19005 12419.410938 L 4906.835938 12419.410938 C 6281.796875 14895.192188 8923.164063 16570.7 11955.898438 16570.7 Z M 23904.101563 11956.0125 C 23902.382813 11973.395313 23899.804688 11990.504688 23896.289063 12007.301563 C 23889.414063 12040.895313 23879.296875 12073.317188 23866.210938 12104.215625 C 23859.6875 12119.60625 23852.5 12134.60625 23844.492188 12149.29375 C 23836.601563 12163.903125 23827.890625 12178.082813 23818.710938 12191.79375 C 23800.117188 12219.29375 23778.984375 12244.91875 23755.585938 12268.2 C 23732.304688 12291.598438 23706.71875 12312.692188 23679.21875 12331.285938 C 23669.414063 12337.8875 23659.296875 12343.98125 23649.101563 12349.996875 C 23641.289063 12354.489063 23633.28125 12358.785938 23625.3125 12362.8875 C 23614.21875 12368.590625 23603.007813 12373.98125 23591.601563 12378.785938 C 23545.195313 12398.395313 23495.507813 12411.48125 23443.398438 12416.79375 C 23426.09375 12418.5125 23408.398438 12419.410938 23390.585938 12419.410938 L 19515.898438 12419.410938 C 19114.414063 13196.207813 18596.914063 13903.707813 17971.796875 14528.785938 C 17190.585938 15309.996875 16280.78125 15923.395313 15267.695313 16351.910938 C 14218.515625 16795.7 13104.21875 17020.7 11955.898438 17020.7 C 10807.617188 17020.7 9693.320313 16795.7 8644.140625 16351.910938 C 7630.976563 15923.395313 6721.171875 15309.996875 5939.960938 14528.785938 C 5314.882813 13903.707813 4797.382813 13196.207813 4395.898438 12419.410938 L 521.171875 12419.410938 C 396.445313 12419.410938 282.070313 12375.192188 192.851563 12301.48125 C 173.710938 12285.817188 155.78125 12268.590625 139.101563 12250.309375 C 127.96875 12238.082813 117.460938 12225.309375 107.539063 12212.10625 C 97.65625 12198.785938 88.359375 12185.114063 79.726563 12170.895313 C 75.429688 12163.785938 71.289063 12156.598438 67.304688 12149.29375 C 59.375 12134.60625 52.109375 12119.60625 45.546875 12104.098438 C 19.453125 12042.41875 5 11974.489063 5 11903.2 L 5 5122.496875 C 5 5047.184375 21.25 4975.817188 50.234375 4911.285938 C 53.789063 4903.395313 57.539063 4895.582813 61.445313 4887.8875 C 69.648438 4871.910938 78.59375 4856.403125 88.320313 4841.403125 C 91.25 4836.910938 94.257813 4832.496875 97.304688 4828.082813 C 102.773438 4820.192188 108.4375 4812.614063 114.296875 4805.114063 C 119.882813 4798.004688 125.625 4791.0125 131.5625 4784.098438 C 139.257813 4775.309375 147.148438 4766.598438 155.390625 4758.395313 C 155.664063 4758.082813 155.898438 4757.809375 156.171875 4757.496875 C 156.445313 4757.184375 156.757813 4756.989063 157.03125 4756.715625 C 165.3125 4748.5125 173.984375 4740.582813 182.8125 4732.8875 C 189.648438 4726.989063 196.640625 4721.207813 203.75 4715.582813 C 211.25 4709.801563 218.90625 4704.098438 226.71875 4698.590625 C 231.132813 4695.582813 235.585938 4692.614063 240.117188 4689.684375 C 255.078125 4679.91875 270.546875 4671.0125 286.523438 4662.809375 C 294.21875 4658.903125 302.03125 4655.114063 309.921875 4651.598438 C 374.414063 4622.614063 445.898438 4606.285938 521.171875 4606.285938 L 4395.9375 4606.285938 C 4797.382813 3829.489063 5314.882813 3121.989063 5939.960938 2496.910938 C 5964.375 2472.496875 5988.90625 2448.317188 6013.59375 2424.215625 C 6062.890625 2376.0125 6112.734375 2328.5125 6163.046875 2281.715625 C 6213.359375 2234.801563 6264.179688 2188.590625 6315.46875 2143.082813 C 6443.710938 2029.29375 6575 1919.684375 6709.257813 1814.215625 C 6762.929688 1772.10625 6817.109375 1730.582813 6871.757813 1689.801563 C 7062.96875 1546.989063 7259.84375 1412.496875 7462.226563 1286.48125 C 7491.132813 1268.5125 7520.117188 1250.7 7549.257813 1233.004688 C 7636.640625 1180.114063 7725.039063 1128.707813 7814.375 1078.903125 C 8082.421875 929.489063 8359.179688 794.29375 8644.140625 673.785938 C 9693.320313 230.114063 10807.617188 4.996875 11955.898438 4.996875 C 13104.21875 4.996875 14218.515625 230.114063 15267.695313 673.785938 C 15552.617188 794.29375 15829.414063 929.489063 16097.382813 1078.903125 C 16186.796875 1128.707813 16275.195313 1180.114063 16362.5 1233.004688 C 16391.71875 1250.7 16420.703125 1268.5125 16449.609375 1286.48125 C 16651.914063 1412.496875 16848.90625 1546.989063 17040.117188 1689.801563 C 17094.6875 1730.582813 17148.90625 1772.10625 17202.617188 1814.215625 C 17336.796875 1919.684375 17468.085938 2029.29375 17596.289063 2143.082813 C 17647.617188 2188.590625 17698.398438 2234.801563 17748.789063 2281.715625 C 17799.101563 2328.5125 17848.90625 2376.0125 17898.203125 2424.215625 C 17922.890625 2448.317188 17947.382813 2472.496875 17971.796875 2496.910938 C 18596.914063 3121.989063 19114.414063 3829.489063 19515.898438 4606.285938 L 23390.585938 4606.285938 C 23408.398438 4606.285938 23426.09375 4607.184375 23443.398438 4608.98125 C 23495.507813 4614.29375 23545.195313 4627.301563 23591.601563 4646.910938 C 23622.382813 4659.996875 23651.796875 4675.895313 23679.21875 4694.489063 C 23686.09375 4699.098438 23692.8125 4703.903125 23699.492188 4708.903125 C 23712.695313 4718.785938 23725.507813 4729.29375 23737.695313 4740.3875 C 23743.789063 4746.0125 23749.804688 4751.715625 23755.585938 4757.496875 C 23778.984375 4780.895313 23800.117188 4806.48125 23818.710938 4833.903125 C 23837.1875 4861.403125 23853.203125 4890.7 23866.210938 4921.598438 C 23876.015625 4944.684375 23884.21875 4968.785938 23890.585938 4993.5125 C 23894.804688 5009.996875 23898.203125 5026.79375 23900.898438 5043.903125 C 23904.804688 5069.489063 23906.796875 5095.817188 23906.796875 5122.496875 L 23906.796875 11903.2 C 23906.796875 11921.090625 23905.898438 11938.707813 23904.101563 11956.0125 Z M 23904.101563 11956.0125 " transform="matrix(0.1,0,0,-0.1,0,1702.57)"/>
</g>
</g>
</svg>
