<svg width="64" height="64" viewBox="0 0 64 64" fill="none" xmlns="http://www.w3.org/2000/svg">
<g clip-path="url(#clip0_10704_16459)">
<path fill-rule="evenodd" clip-rule="evenodd" d="M57.8936 1.51087C55.2187 0.91662 42.9659 0 32.1653 0C21.2109 0 8.842 0.91662 6.1671 1.51087C4.86597 1.80023 0.90625 2.67995 0.90625 7.27586C0.90625 13.1892 1.06044 42.8998 4.10393 47.0649C9.35818 54.255 30.6459 63.5097 31.5493 63.9004C31.6986 63.9651 31.8595 63.9989 32.0221 64C32.1848 64.001 32.3461 63.9693 32.4962 63.9067C33.4354 63.5152 55.5446 54.2414 60.0104 46.9849C62.9203 42.2566 63.1548 7.62232 63.1548 7.27625C63.1552 2.67995 59.1943 1.80023 57.8936 1.51087Z" fill="black"/>
<path fill-rule="evenodd" clip-rule="evenodd" d="M57.9494 45.7128C54.2239 51.7671 35.2902 60.0738 32.0432 61.465C28.8626 60.054 10.5291 51.7399 6.06638 45.6324C4.077 42.9105 3.33594 20.6603 3.33594 7.27453C3.33594 5.34264 4.24712 4.42175 6.69791 3.87683C8.9949 3.36647 21.0446 2.42383 32.1698 2.42383C43.1367 2.42383 55.0752 3.36647 57.3722 3.87683C59.8226 4.42175 60.7334 5.34225 60.7334 7.27453C60.7334 14.1771 60.0064 42.3687 57.9494 45.7128Z" fill="white"/>
<path fill-rule="evenodd" clip-rule="evenodd" d="M33.013 16.8773C33.3498 15.7323 35.8526 14.0824 36.2251 14.4339C36.2267 14.0105 38.0459 12.3447 38.7042 12.6418C38.5539 12.1303 41.0498 10.5693 41.6499 11.0109C41.778 10.3751 45.3921 9.89659 46.1083 10.506C46.5208 10.0376 49.7274 10.8144 49.7919 11.6323C50.395 11.103 53.6653 14.5597 53.6681 16.3048C53.6696 16.9775 50.5943 14.2346 48.6562 14.8296C45.4496 15.8138 41.3675 19.2279 37.8234 24.3547C36.8485 25.7658 34.32 26.275 33.7817 23.9846C33.7817 23.985 32.6763 18.0227 33.013 16.8773Z" fill="black"/>
<path fill-rule="evenodd" clip-rule="evenodd" d="M32.7419 48.7388C32.2401 47.8905 32.399 46.8675 32.8247 46.4624C33.4185 45.8973 35.1294 46.3598 35.2681 45.8417C35.6002 44.6074 34.7309 44.1751 34.8805 42.4743C34.9329 41.8797 36.0592 37.5669 36.3459 37.1855C36.5871 36.8647 38.0261 36.3617 38.4071 36.2145C38.6537 35.9286 38.8204 35.6024 38.8386 35.0295C36.9522 34.4566 36.4469 36.2083 36.1773 36.1407C35.9078 36.0731 36.316 34.2236 36.5521 34.022C36.7871 33.8196 38.9948 33.3295 39.2429 32.9411C39.5039 32.5313 40.5227 28.5957 39.2429 28.5285C39.3455 28.5514 39.1769 28.2675 39.2763 28.2908C41.9217 28.9103 43.7095 16.2501 50.2237 16.3009C56.6921 16.3514 56.3546 25.7196 55.9639 26.0691C55.2387 26.7182 54.1668 26.4781 54.131 27.0798C53.7943 32.8059 48.6744 38.9368 47.1247 38.3973C46.1984 38.0749 46.9903 35.1643 47.428 35.0967C47.0237 34.9281 47.428 31.9305 47.8999 31.8629C47.529 31.5933 47.8658 28.8314 48.3377 28.7976C48.1093 28.5883 48.1338 26.6968 47.6498 25.7565C47.2773 25.0325 45.6729 24.6437 45.5758 26.4063C46.5522 25.9348 46.6198 29.101 46.2151 29.6401C45.8108 30.1792 43.217 31.3918 42.4092 32.0649C42.4767 33.413 41.1962 38.6 40.2532 40.0826C39.3101 41.5639 38.3667 42.4401 37.828 43.7875C37.2885 45.1348 37.6346 47.4318 36.4131 48.4696C35.8728 48.9287 32.975 49.1334 32.7419 48.7388Z" fill="black"/>
<path fill-rule="evenodd" clip-rule="evenodd" d="M54.9702 27.5211C55.2728 27.0045 56.516 26.8002 56.9646 27.0495C57.4917 27.3428 57.8809 31.4621 57.3418 31.5969C57.8137 31.8369 57.2167 34.9616 56.6213 34.9655C57.0932 35.1678 56.116 38.2327 55.5435 38.1317C55.8802 38.6036 54.2971 41.0964 53.8594 40.9612C53.7242 43.5215 46.0048 44.7434 46.1796 42.5777C46.2639 41.5352 47.4182 43.0679 52.613 34.9651C54.9042 31.3918 54.5169 28.2936 54.9702 27.5211ZM31.095 16.8968C30.5559 15.7176 28.3436 14.1353 27.9711 14.4868C27.9691 14.0634 26.1503 12.3976 25.4916 12.6943C25.6415 12.1828 23.1464 10.6218 22.5463 11.0638C22.4178 10.4276 18.8037 9.94953 18.0875 10.5585C17.675 10.0901 14.4688 10.8669 14.4043 11.6849C13.8008 11.1555 10.5308 14.6123 10.5273 16.3573C10.5262 17.03 13.6019 14.2872 15.5392 14.8822C18.7459 15.8664 22.8283 19.2804 26.3724 24.4077C27.3473 25.8183 29.8214 26.3275 30.3609 24.0371C30.3609 24.0379 31.6341 18.0756 31.095 16.8968Z" fill="black"/>
<path fill-rule="evenodd" clip-rule="evenodd" d="M31.3544 48.7954C31.8562 47.8808 31.7653 46.8907 31.3393 46.4856C30.745 45.9205 29.0683 46.4165 28.9292 45.8984C28.5972 44.664 29.466 44.2325 29.3173 42.531C29.2652 41.9363 28.1381 37.6235 27.8514 37.2421C27.6102 36.9205 26.1712 36.4183 25.7902 36.2711C25.544 35.9861 25.3773 35.6598 25.3587 35.0861C27.2451 34.5133 27.7505 36.2649 28.02 36.1973C28.2896 36.1298 27.8813 34.2802 27.6456 34.0786C27.4098 33.8763 25.2364 33.3527 24.9548 32.9977C24.6526 32.6171 23.6746 28.6523 24.9548 28.5851C24.8518 28.608 25.0204 28.3241 24.9214 28.3474C22.276 28.9669 20.4878 16.3067 13.9736 16.3576C7.5048 16.4081 7.8431 25.7762 8.23383 26.1258C8.95897 26.7748 10.0309 26.5348 10.0663 27.1364C10.403 32.8626 15.5229 38.9934 17.0726 38.4539C17.9989 38.1316 17.2074 35.2201 16.7697 35.1533C17.174 34.9848 16.7697 31.9871 16.2981 31.9195C16.6687 31.65 16.3319 28.8881 15.8604 28.8543C16.0888 28.6449 16.0643 26.7534 16.5483 25.8127C16.9207 25.0892 18.5256 24.7004 18.6227 26.4625C17.6455 25.9906 17.5787 29.1572 17.983 29.6963C18.3869 30.2354 20.9807 31.448 21.7893 32.1211C21.7217 33.4692 23.0019 38.6563 23.9449 40.138C24.888 41.6202 25.831 42.4964 26.3701 43.8437C26.9138 45.2031 27.1655 47.8916 27.8184 48.4925C28.4282 49.0533 31.1342 49.1974 31.3544 48.7954ZM32.0951 51.3958C30.0742 51.4299 28.3008 49.9886 28.6597 49.6041C29.353 48.8599 30.5628 49.9478 32.0108 49.3073C33.4261 49.9136 34.6041 48.8626 35.5305 49.5501C36.0564 49.94 34.1167 51.3627 32.0951 51.3958Z" fill="black"/>
<path fill-rule="evenodd" clip-rule="evenodd" d="M9.22397 27.5737C8.92102 27.0575 7.67814 26.9876 7.22993 27.2369C6.70326 27.5302 6.3137 31.5147 6.85241 31.6495C6.38089 31.8892 6.97825 35.0142 7.57327 35.0177C7.10176 35.2197 8.07858 38.2849 8.65108 38.1839C8.31434 38.6558 9.89745 41.1486 10.3352 41.0134C10.4699 43.5737 18.1898 44.7956 18.015 42.6299C17.9311 41.5875 16.7768 43.1201 11.5812 35.0173C9.29038 31.4448 9.67762 28.347 9.22397 27.5737Z" fill="black"/>
</g>
<defs>
<clipPath id="clip0_10704_16459">
<rect width="64" height="64" fill="white"/>
</clipPath>
</defs>
</svg>
