<svg width="64" height="64" viewBox="0 0 64 64" fill="none" xmlns="http://www.w3.org/2000/svg">
<g clip-path="url(#clip0_10771_10450)">
<path d="M21.3906 1.79983C32.9371 1.71926 50.5546 8.61785 51.9861 31.4746C55.4944 29.3928 58.5816 25.4638 61.1717 18.8476C56.1559 7.73435 44.9804 0.000795364 31.9973 0.000795364C28.2809 0.000795364 24.7075 0.636177 21.3906 1.79983Z" fill="#D91920"/>
<path d="M42.5984 62.2033C31.0513 62.2847 13.4341 55.3836 12.0022 32.5278C8.49399 34.6101 5.40674 38.5389 2.81641 45.1564C7.83274 56.2716 19.008 63.998 31.9971 63.998C35.7076 63.998 39.2809 63.3668 42.5984 62.2033Z" fill="#D91920"/>
<path d="M31.776 9.68399C11.3881 35.4925 30.2348 58.2653 44.3992 61.5117C55.9121 56.6672 64 45.2765 64 32.0006C64 27.5553 63.0927 23.3228 61.4534 19.4761C61.9725 38.7629 52.2294 50.3804 32.2239 54.3204C52.6066 28.5061 33.7597 5.73574 19.5956 2.48969C8.08197 7.33518 0 18.7217 0 32.0006C0 36.4456 0.90176 40.6809 2.54117 44.5277C2.02206 25.2358 11.7652 13.6222 31.776 9.68399Z" fill="#D91920"/>
</g>
<defs>
<clipPath id="clip0_10771_10450">
<rect width="64" height="64" fill="white"/>
</clipPath>
</defs>
</svg>
