<?xml version="1.0" encoding="UTF-8" standalone="no"?>
<svg
   xmlns:dc="http://purl.org/dc/elements/1.1/"
   xmlns:cc="http://creativecommons.org/ns#"
   xmlns:rdf="http://www.w3.org/1999/02/22-rdf-syntax-ns#"
   xmlns:svg="http://www.w3.org/2000/svg"
   xmlns="http://www.w3.org/2000/svg"
   viewBox="0 0 257.33334 257.33334"
   height="257.33334"
   width="257.33334"
   xml:space="preserve"
   id="svg2"
   version="1.1"><metadata
     id="metadata8"><rdf:RDF><cc:Work
         rdf:about=""><dc:format>image/svg+xml</dc:format><dc:type
           rdf:resource="http://purl.org/dc/dcmitype/StillImage" /></cc:Work></rdf:RDF></metadata><defs
     id="defs6"><clipPath
       id="clipPath22"
       clipPathUnits="userSpaceOnUse"><path
         id="path20"
         d="m 963.559,162.574 h 0.574 c 442.247,0.156 800.807,358.805 800.807,801.219 0,442.487 -358.71,801.187 -801.096,801.187 -442.418,0 -801.067,-358.55 -801.223,-800.902 v -0.57 C 162.777,521.23 521.273,162.73 963.559,162.574 Z" /></clipPath></defs><g
     transform="matrix(1.3333333,0,0,-1.3333333,0,257.33333)"
     id="g10"><g
       transform="scale(0.1)"
       id="g12"><path
         id="path14"
         style="fill:#ffffff;fill-opacity:1;fill-rule:evenodd;stroke:none"
         d="M 0,1927.56 H 1927.56 V 0 H 0 v 1927.56" /><g
         id="g16"><g
           clip-path="url(#clipPath22)"
           id="g18"><path
             id="path24"
             style="fill:#d91920;fill-opacity:1;fill-rule:nonzero;stroke:none"
             d="m 963.559,162.574 h 0.574 c 442.247,0.156 800.807,358.805 800.807,801.219 0,442.487 -358.71,801.187 -801.096,801.187 -442.418,0 -801.067,-358.55 -801.223,-800.902 v -0.57 C 162.777,521.23 521.273,162.73 963.559,162.574 Z M 1764.94,1764.98 H 162.62 V 162.57 h 1602.32 z m -608.88,-528.79 h 1466.48 c 0,809.91 -656.57,1466.48 -1466.48,1466.48 -809.912,0 -1466.482,-656.57 -1466.482,-1466.48 0,-809.913 656.57,-1466.479 1466.482,-1466.479 809.91,0 1466.48,656.566 1466.48,1466.479" /><path
             id="path26"
             style="fill:#d91920;fill-opacity:1;fill-rule:nonzero;stroke:none"
             d="m 1156.06,1236.19 h 879.89 c 0,485.94 -393.95,879.88 -879.89,879.88 -485.947,0 -879.888,-393.94 -879.888,-879.88 0,-485.948 393.941,-879.889 879.888,-879.889 485.94,0 879.89,393.941 879.89,879.889" /><path
             id="path28"
             style="fill:#d91c21;fill-opacity:1;fill-rule:nonzero;stroke:none"
             d="m 1156.06,1236.19 h 866.14 c 0,478.35 -387.79,866.14 -866.14,866.14 -478.353,0 -866.142,-387.79 -866.142,-866.14 0,-478.354 387.789,-866.139 866.142,-866.139 478.35,0 866.14,387.785 866.14,866.139" /><path
             id="path30"
             style="fill:#da1e22;fill-opacity:1;fill-rule:nonzero;stroke:none"
             d="m 1156.06,1236.19 h 852.39 c 0,470.76 -381.63,852.39 -852.39,852.39 -470.763,0 -852.392,-381.63 -852.392,-852.39 0,-470.764 381.629,-852.393 852.392,-852.393 470.76,0 852.39,381.629 852.39,852.393" /><path
             id="path32"
             style="fill:#da2123;fill-opacity:1;fill-rule:nonzero;stroke:none"
             d="m 1156.06,1236.19 h 838.64 c 0,463.17 -375.47,838.64 -838.64,838.64 -463.169,0 -838.646,-375.47 -838.646,-838.64 0,-463.17 375.477,-838.643 838.646,-838.643 463.17,0 838.64,375.473 838.64,838.643" /><path
             id="path34"
             style="fill:#db2325;fill-opacity:1;fill-rule:nonzero;stroke:none"
             d="m 1156.06,1236.19 h 824.89 c 0,455.57 -369.32,824.89 -824.89,824.89 -455.576,0 -824.896,-369.32 -824.896,-824.89 0,-455.577 369.32,-824.897 824.896,-824.897 455.57,0 824.89,369.32 824.89,824.897" /><path
             id="path36"
             style="fill:#db2626;fill-opacity:1;fill-rule:nonzero;stroke:none"
             d="m 1156.06,1236.19 h 811.14 c 0,447.98 -363.16,811.15 -811.14,811.15 -447.982,0 -811.146,-363.17 -811.146,-811.15 0,-447.983 363.164,-811.147 811.146,-811.147 447.98,0 811.14,363.164 811.14,811.147" /><path
             id="path38"
             style="fill:#dc2827;fill-opacity:1;fill-rule:nonzero;stroke:none"
             d="m 1156.06,1236.19 h 797.4 c 0,440.39 -357.01,797.4 -797.4,797.4 -440.392,0 -797.4,-357.01 -797.4,-797.4 0,-440.393 357.008,-797.401 797.4,-797.401 440.39,0 797.4,357.008 797.4,797.401" /><path
             id="path40"
             style="fill:#dc2b28;fill-opacity:1;fill-rule:nonzero;stroke:none"
             d="m 1156.06,1236.19 h 783.65 c 0,432.79 -350.85,783.65 -783.65,783.65 -432.798,0 -783.65,-350.86 -783.65,-783.65 0,-432.799 350.852,-783.651 783.65,-783.651 432.8,0 783.65,350.852 783.65,783.651" /><path
             id="path42"
             style="fill:#dd2e2a;fill-opacity:1;fill-rule:nonzero;stroke:none"
             d="m 1156.06,1236.19 h 769.9 c 0,425.2 -344.7,769.9 -769.9,769.9 -425.205,0 -769.904,-344.7 -769.904,-769.9 0,-425.206 344.699,-769.905 769.904,-769.905 425.2,0 769.9,344.699 769.9,769.905" /><path
             id="path44"
             style="fill:#dd302b;fill-opacity:1;fill-rule:nonzero;stroke:none"
             d="m 1156.06,1236.19 h 756.15 c 0,417.61 -338.54,756.15 -756.15,756.15 -417.611,0 -756.154,-338.54 -756.154,-756.15 0,-417.612 338.543,-756.155 756.154,-756.155 417.61,0 756.15,338.543 756.15,756.155" /><path
             id="path46"
             style="fill:#dd332d;fill-opacity:1;fill-rule:nonzero;stroke:none"
             d="m 1156.06,1236.19 h 742.4 c 0,410.01 -332.39,742.4 -742.4,742.4 -410.017,0 -742.408,-332.39 -742.408,-742.4 0,-410.018 332.391,-742.409 742.408,-742.409 410.01,0 742.4,332.391 742.4,742.409" /><path
             id="path48"
             style="fill:#de352e;fill-opacity:1;fill-rule:nonzero;stroke:none"
             d="m 1156.06,1236.19 h 728.65 c 0,402.42 -326.23,728.65 -728.65,728.65 -402.427,0 -728.658,-326.23 -728.658,-728.65 0,-402.428 326.231,-728.659 728.658,-728.659 402.42,0 728.65,326.231 728.65,728.659" /><path
             id="path50"
             style="fill:#de3830;fill-opacity:1;fill-rule:nonzero;stroke:none"
             d="m 1156.06,1236.19 h 714.91 c 0,394.83 -320.08,714.91 -714.91,714.91 -394.833,0 -714.912,-320.08 -714.912,-714.91 0,-394.835 320.079,-714.909 714.912,-714.909 394.83,0 714.91,320.074 714.91,714.909" /><path
             id="path52"
             style="fill:#df3b31;fill-opacity:1;fill-rule:nonzero;stroke:none"
             d="m 1156.06,1236.19 h 701.16 c 0,387.24 -313.92,701.16 -701.16,701.16 -387.24,0 -701.162,-313.92 -701.162,-701.16 0,-387.241 313.922,-701.163 701.162,-701.163 387.24,0 701.16,313.922 701.16,701.163" /><path
             id="path54"
             style="fill:#df3e33;fill-opacity:1;fill-rule:nonzero;stroke:none"
             d="m 1156.06,1236.19 h 687.41 c 0,379.64 -307.77,687.41 -687.41,687.41 -379.646,0 -687.415,-307.77 -687.415,-687.41 0,-379.647 307.769,-687.413 687.415,-687.413 379.64,0 687.41,307.766 687.41,687.413" /><path
             id="path56"
             style="fill:#e04135;fill-opacity:1;fill-rule:nonzero;stroke:none"
             d="m 1156.06,1236.19 h 673.66 c 0,372.05 -301.61,673.66 -673.66,673.66 -372.052,0 -673.665,-301.61 -673.665,-673.66 0,-372.053 301.613,-673.667 673.665,-673.667 372.05,0 673.66,301.614 673.66,673.667" /><path
             id="path58"
             style="fill:#e04337;fill-opacity:1;fill-rule:nonzero;stroke:none"
             d="m 1156.06,1236.19 h 659.91 c 0,364.46 -295.45,659.92 -659.91,659.92 -364.462,0 -659.915,-295.46 -659.915,-659.92 0,-364.463 295.453,-659.917 659.915,-659.917 364.46,0 659.91,295.454 659.91,659.917" /><path
             id="path60"
             style="fill:#e14639;fill-opacity:1;fill-rule:nonzero;stroke:none"
             d="m 1156.06,1236.19 h 646.17 c 0,356.86 -289.3,646.17 -646.17,646.17 -356.869,0 -646.169,-289.31 -646.169,-646.17 0,-356.87 289.3,-646.17 646.169,-646.17 356.87,0 646.17,289.3 646.17,646.17" /><path
             id="path62"
             style="fill:#e1493b;fill-opacity:1;fill-rule:nonzero;stroke:none"
             d="m 1156.06,1236.19 h 632.42 c 0,349.27 -283.15,632.42 -632.42,632.42 -349.275,0 -632.419,-283.15 -632.419,-632.42 0,-349.276 283.144,-632.42 632.419,-632.42 349.27,0 632.42,283.144 632.42,632.42" /><path
             id="path64"
             style="fill:#e24c3d;fill-opacity:1;fill-rule:nonzero;stroke:none"
             d="m 1156.06,1236.19 h 618.67 c 0,341.68 -276.99,618.67 -618.67,618.67 -341.681,0 -618.673,-276.99 -618.673,-618.67 0,-341.682 276.992,-618.674 618.673,-618.674 341.68,0 618.67,276.992 618.67,618.674" /><path
             id="path66"
             style="fill:#e24f3f;fill-opacity:1;fill-rule:nonzero;stroke:none"
             d="m 1156.06,1236.19 h 604.92 c 0,334.08 -270.84,604.92 -604.92,604.92 -334.087,0 -604.923,-270.84 -604.923,-604.92 0,-334.088 270.836,-604.924 604.923,-604.924 334.08,0 604.92,270.836 604.92,604.924" /><path
             id="path68"
             style="fill:#e35241;fill-opacity:1;fill-rule:nonzero;stroke:none"
             d="m 1156.06,1236.19 h 591.17 c 0,326.49 -264.68,591.17 -591.17,591.17 -326.497,0 -591.177,-264.68 -591.177,-591.17 0,-326.499 264.68,-591.178 591.177,-591.178 326.49,0 591.17,264.679 591.17,591.178" /><path
             id="path70"
             style="fill:#e35543;fill-opacity:1;fill-rule:nonzero;stroke:none"
             d="m 1156.06,1236.19 h 577.42 c 0,318.9 -258.52,577.42 -577.42,577.42 -318.904,0 -577.427,-258.52 -577.427,-577.42 0,-318.905 258.523,-577.428 577.427,-577.428 318.9,0 577.42,258.523 577.42,577.428" /><path
             id="path72"
             style="fill:#e45746;fill-opacity:1;fill-rule:nonzero;stroke:none"
             d="m 1156.06,1236.19 h 563.68 c 0,311.31 -252.37,563.68 -563.68,563.68 -311.31,0 -563.681,-252.37 -563.681,-563.68 0,-311.311 252.371,-563.678 563.681,-563.678 311.31,0 563.68,252.367 563.68,563.678" /><path
             id="path74"
             style="fill:#e45b48;fill-opacity:1;fill-rule:nonzero;stroke:none"
             d="m 1156.06,1236.19 h 549.93 c 0,303.71 -246.22,549.93 -549.93,549.93 -303.716,0 -549.931,-246.22 -549.931,-549.93 0,-303.717 246.215,-549.932 549.931,-549.932 303.71,0 549.93,246.215 549.93,549.932" /><path
             id="path76"
             style="fill:#e55e4a;fill-opacity:1;fill-rule:nonzero;stroke:none"
             d="m 1156.06,1236.19 h 536.18 c 0,296.12 -240.06,536.18 -536.18,536.18 -296.122,0 -536.185,-240.06 -536.185,-536.18 0,-296.124 240.063,-536.182 536.185,-536.182 296.12,0 536.18,240.058 536.18,536.182" /><path
             id="path78"
             style="fill:#e5604d;fill-opacity:1;fill-rule:nonzero;stroke:none"
             d="m 1156.06,1236.19 h 522.43 c 0,288.53 -233.9,522.43 -522.43,522.43 -288.533,0 -522.435,-233.9 -522.435,-522.43 0,-288.534 233.902,-522.436 522.435,-522.436 288.53,0 522.43,233.902 522.43,522.436" /><path
             id="path80"
             style="fill:#e6634f;fill-opacity:1;fill-rule:nonzero;stroke:none"
             d="m 1156.06,1236.19 h 508.68 c 0,280.94 -227.74,508.69 -508.68,508.69 -280.939,0 -508.685,-227.75 -508.685,-508.69 0,-280.94 227.746,-508.686 508.685,-508.686 280.94,0 508.68,227.746 508.68,508.686" /><path
             id="path82"
             style="fill:#e66752;fill-opacity:1;fill-rule:nonzero;stroke:none"
             d="M 1156.06,1236.19 H 1651 c 0,273.34 -221.6,494.94 -494.94,494.94 -273.345,0 -494.939,-221.6 -494.939,-494.94 0,-273.346 221.594,-494.94 494.939,-494.94 273.34,0 494.94,221.594 494.94,494.94" /><path
             id="path84"
             style="fill:#e76a55;fill-opacity:1;fill-rule:nonzero;stroke:none"
             d="m 1156.06,1236.19 h 481.19 c 0,265.75 -215.44,481.19 -481.19,481.19 -265.751,0 -481.189,-215.44 -481.189,-481.19 0,-265.752 215.438,-481.19 481.189,-481.19 265.75,0 481.19,215.438 481.19,481.19" /><path
             id="path86"
             style="fill:#e76d57;fill-opacity:1;fill-rule:nonzero;stroke:none"
             d="m 1156.06,1236.19 h 467.44 c 0,258.15 -209.29,467.44 -467.44,467.44 -258.158,0 -467.443,-209.29 -467.443,-467.44 0,-258.159 209.285,-467.444 467.443,-467.444 258.15,0 467.44,209.285 467.44,467.444" /><path
             id="path88"
             style="fill:#e8705a;fill-opacity:1;fill-rule:nonzero;stroke:none"
             d="m 1156.06,1236.19 h 453.69 c 0,250.56 -203.12,453.69 -453.69,453.69 -250.568,0 -453.693,-203.13 -453.693,-453.69 0,-250.569 203.125,-453.694 453.693,-453.694 250.57,0 453.69,203.125 453.69,453.694" /><path
             id="path90"
             style="fill:#e8735d;fill-opacity:1;fill-rule:nonzero;stroke:none"
             d="M 1156.06,1236.19 H 1596 c 0,242.97 -196.97,439.94 -439.94,439.94 -242.974,0 -439.947,-196.97 -439.947,-439.94 0,-242.975 196.973,-439.944 439.947,-439.944 242.97,0 439.94,196.969 439.94,439.944" /><path
             id="path92"
             style="fill:#e97660;fill-opacity:1;fill-rule:nonzero;stroke:none"
             d="m 1156.06,1236.19 h 426.19 c 0,235.38 -190.81,426.19 -426.19,426.19 -235.38,0 -426.197,-190.81 -426.197,-426.19 0,-235.38 190.817,-426.198 426.197,-426.198 235.38,0 426.19,190.818 426.19,426.198" /><path
             id="path94"
             style="fill:#e97a63;fill-opacity:1;fill-rule:nonzero;stroke:none"
             d="m 1156.06,1236.19 h 412.44 c 0,227.78 -184.66,412.45 -412.44,412.45 -227.787,0 -412.451,-184.67 -412.451,-412.45 0,-227.79 184.664,-412.448 412.451,-412.448 227.78,0 412.44,184.658 412.44,412.448" /><path
             id="path96"
             style="fill:#ea7d66;fill-opacity:1;fill-rule:nonzero;stroke:none"
             d="m 1156.06,1236.19 h 398.7 c 0,220.19 -178.51,398.7 -398.7,398.7 -220.197,0 -398.701,-178.51 -398.701,-398.7 0,-220.2 178.504,-398.702 398.701,-398.702 220.19,0 398.7,178.502 398.7,398.702" /><path
             id="path98"
             style="fill:#ea8069;fill-opacity:1;fill-rule:nonzero;stroke:none"
             d="m 1156.06,1236.19 h 384.95 c 0,212.6 -172.35,384.95 -384.95,384.95 -212.603,0 -384.951,-172.35 -384.951,-384.95 0,-212.6 172.348,-384.952 384.951,-384.952 212.6,0 384.95,172.352 384.95,384.952" /><path
             id="path100"
             style="fill:#eb836d;fill-opacity:1;fill-rule:nonzero;stroke:none"
             d="m 1156.06,1236.19 h 371.2 c 0,205.01 -166.19,371.2 -371.2,371.2 -205.009,0 -371.205,-166.19 -371.205,-371.2 0,-205.01 166.196,-371.206 371.205,-371.206 205.01,0 371.2,166.196 371.2,371.206" /><path
             id="path102"
             style="fill:#eb8770;fill-opacity:1;fill-rule:nonzero;stroke:none"
             d="m 1156.06,1236.19 h 357.45 c 0,197.41 -160.04,357.45 -357.45,357.45 -197.415,0 -357.455,-160.04 -357.455,-357.45 0,-197.42 160.04,-357.456 357.455,-357.456 197.41,0 357.45,160.036 357.45,357.456" /><path
             id="path104"
             style="fill:#ec8a73;fill-opacity:1;fill-rule:nonzero;stroke:none"
             d="m 1156.06,1236.19 h 343.71 c 0,189.82 -153.89,343.7 -343.71,343.7 -189.822,0 -343.708,-153.88 -343.708,-343.7 0,-189.82 153.886,-343.71 343.708,-343.71 189.82,0 343.71,153.89 343.71,343.71" /><path
             id="path106"
             style="fill:#ed8d77;fill-opacity:1;fill-rule:nonzero;stroke:none"
             d="m 1156.06,1236.19 h 329.96 c 0,182.23 -147.73,329.95 -329.96,329.95 -182.232,0 -329.958,-147.72 -329.958,-329.95 0,-182.23 147.726,-329.96 329.958,-329.96 182.23,0 329.96,147.73 329.96,329.96" /><path
             id="path108"
             style="fill:#ed917a;fill-opacity:1;fill-rule:nonzero;stroke:none"
             d="m 1156.06,1236.19 h 316.21 c 0,174.63 -141.57,316.21 -316.21,316.21 -174.638,0 -316.212,-141.58 -316.212,-316.21 0,-174.64 141.574,-316.213 316.212,-316.213 174.64,0 316.21,141.573 316.21,316.213" /><path
             id="path110"
             style="fill:#ee947e;fill-opacity:1;fill-rule:nonzero;stroke:none"
             d="m 1156.06,1236.19 h 302.46 c 0,167.04 -135.42,302.46 -302.46,302.46 -167.044,0 -302.462,-135.42 -302.462,-302.46 0,-167.05 135.418,-302.463 302.462,-302.463 167.04,0 302.46,135.413 302.46,302.463" /><path
             id="path112"
             style="fill:#ee9781;fill-opacity:1;fill-rule:nonzero;stroke:none"
             d="m 1156.06,1236.19 h 288.71 c 0,159.45 -129.26,288.71 -288.71,288.71 -159.451,0 -288.716,-129.26 -288.716,-288.71 0,-159.45 129.265,-288.713 288.716,-288.713 159.45,0 288.71,129.263 288.71,288.713" /><path
             id="path114"
             style="fill:#ef9b85;fill-opacity:1;fill-rule:nonzero;stroke:none"
             d="m 1156.06,1236.19 h 274.96 c 0,151.85 -123.11,274.96 -274.96,274.96 -151.86,0 -274.966,-123.11 -274.966,-274.96 0,-151.86 123.106,-274.967 274.966,-274.967 151.85,0 274.96,123.107 274.96,274.967" /><path
             id="path116"
             style="fill:#ef9e89;fill-opacity:1;fill-rule:nonzero;stroke:none"
             d="m 1156.06,1236.19 h 261.21 c 0,144.26 -116.95,261.22 -261.21,261.22 -144.27,0 -261.216,-116.96 -261.216,-261.22 0,-144.27 116.946,-261.217 261.216,-261.217 144.26,0 261.21,116.947 261.21,261.217" /><path
             id="path118"
             style="fill:#f0a28c;fill-opacity:1;fill-rule:nonzero;stroke:none"
             d="m 1156.06,1236.19 h 247.47 c 0,136.67 -110.8,247.47 -247.47,247.47 -136.67,0 -247.47,-110.8 -247.47,-247.47 0,-136.67 110.8,-247.471 247.47,-247.471 136.67,0 247.47,110.801 247.47,247.471" /><path
             id="path120"
             style="fill:#f0a590;fill-opacity:1;fill-rule:nonzero;stroke:none"
             d="m 1156.06,1236.19 h 233.72 c 0,129.08 -104.64,233.72 -233.72,233.72 -129.08,0 -233.72,-104.64 -233.72,-233.72 0,-129.08 104.64,-233.72 233.72,-233.72 129.08,0 233.72,104.64 233.72,233.72" /><path
             id="path122"
             style="fill:#f1a994;fill-opacity:1;fill-rule:nonzero;stroke:none"
             d="m 1156.06,1236.19 h 219.97 c 0,121.48 -98.49,219.97 -219.97,219.97 -121.49,0 -219.974,-98.49 -219.974,-219.97 0,-121.49 98.484,-219.98 219.974,-219.98 121.48,0 219.97,98.49 219.97,219.98" /><path
             id="path124"
             style="fill:#f1ac98;fill-opacity:1;fill-rule:nonzero;stroke:none"
             d="m 1156.06,1236.19 h 206.22 c 0,113.89 -92.33,206.22 -206.22,206.22 -113.89,0 -206.224,-92.33 -206.224,-206.22 0,-113.89 92.334,-206.23 206.224,-206.23 113.89,0 206.22,92.34 206.22,206.23" /><path
             id="path126"
             style="fill:#f2b09c;fill-opacity:1;fill-rule:nonzero;stroke:none"
             d="m 1156.06,1236.19 h 192.48 c 0,106.3 -86.18,192.47 -192.48,192.47 -106.3,0 -192.478,-86.17 -192.478,-192.47 0,-106.3 86.178,-192.48 192.478,-192.48 106.3,0 192.48,86.18 192.48,192.48" /><path
             id="path128"
             style="fill:#f2b4a0;fill-opacity:1;fill-rule:nonzero;stroke:none"
             d="m 1156.06,1236.19 h 178.73 c 0,98.7 -80.02,178.72 -178.73,178.72 -98.71,0 -178.728,-80.02 -178.728,-178.72 0,-98.71 80.018,-178.73 178.728,-178.73 98.71,0 178.73,80.02 178.73,178.73" /><path
             id="path130"
             style="fill:#f3b7a5;fill-opacity:1;fill-rule:nonzero;stroke:none"
             d="m 1156.06,1236.19 h 164.98 c 0,91.11 -73.87,164.98 -164.98,164.98 -91.11,0 -164.982,-73.87 -164.982,-164.98 0,-91.12 73.872,-164.98 164.982,-164.98 91.11,0 164.98,73.86 164.98,164.98" /><path
             id="path132"
             style="fill:#f3bba9;fill-opacity:1;fill-rule:nonzero;stroke:none"
             d="m 1156.06,1236.19 h 151.23 c 0,83.52 -67.71,151.23 -151.23,151.23 -83.52,0 -151.23,-67.71 -151.23,-151.23 0,-83.52 67.71,-151.23 151.23,-151.23 83.52,0 151.23,67.71 151.23,151.23" /><path
             id="path134"
             style="fill:#f4bead;fill-opacity:1;fill-rule:nonzero;stroke:none"
             d="m 1156.06,1236.19 h 137.48 c 0,75.92 -61.56,137.48 -137.48,137.48 -75.93,0 -137.49,-61.56 -137.49,-137.48 0,-75.93 61.56,-137.48 137.49,-137.48 75.92,0 137.48,61.55 137.48,137.48" /><path
             id="path136"
             style="fill:#f4c2b2;fill-opacity:1;fill-rule:nonzero;stroke:none"
             d="m 1156.06,1236.19 h 123.73 c 0,68.33 -55.4,123.73 -123.73,123.73 -68.34,0 -123.74,-55.4 -123.74,-123.73 0,-68.34 55.4,-123.74 123.74,-123.74 68.33,0 123.73,55.4 123.73,123.74" /><path
             id="path138"
             style="fill:#f5c6b6;fill-opacity:1;fill-rule:nonzero;stroke:none"
             d="m 1156.06,1236.19 h 109.98 c 0,60.74 -49.24,109.99 -109.98,109.99 -60.74,0 -109.99,-49.25 -109.99,-109.99 0,-60.74 49.25,-109.99 109.99,-109.99 60.74,0 109.98,49.25 109.98,109.99" /><path
             id="path140"
             style="fill:#f6cabb;fill-opacity:1;fill-rule:nonzero;stroke:none"
             d="m 1156.06,1236.19 h 96.24 c 0,53.15 -43.09,96.24 -96.24,96.24 -53.15,0 -96.24,-43.09 -96.24,-96.24 0,-53.15 43.09,-96.24 96.24,-96.24 53.15,0 96.24,43.09 96.24,96.24" /><path
             id="path142"
             style="fill:#f6cdbf;fill-opacity:1;fill-rule:nonzero;stroke:none"
             d="m 1156.06,1236.19 h 82.49 c 0,45.55 -36.94,82.49 -82.49,82.49 -45.56,0 -82.49,-36.94 -82.49,-82.49 0,-45.56 36.93,-82.49 82.49,-82.49 45.55,0 82.49,36.93 82.49,82.49" /><path
             id="path144"
             style="fill:#f7d1c4;fill-opacity:1;fill-rule:nonzero;stroke:none"
             d="m 1156.06,1236.19 h 68.74 c 0,37.96 -30.78,68.74 -68.74,68.74 -37.96,0 -68.74,-30.78 -68.74,-68.74 0,-37.96 30.78,-68.74 68.74,-68.74 37.96,0 68.74,30.78 68.74,68.74" /><path
             id="path146"
             style="fill:#f7d5c9;fill-opacity:1;fill-rule:nonzero;stroke:none"
             d="m 1156.06,1236.19 h 54.99 c 0,30.37 -24.62,54.99 -54.99,54.99 -30.37,0 -54.99,-24.62 -54.99,-54.99 0,-30.37 24.62,-54.99 54.99,-54.99 30.37,0 54.99,24.62 54.99,54.99" /><path
             id="path148"
             style="fill:#f8d9ce;fill-opacity:1;fill-rule:nonzero;stroke:none"
             d="m 1156.06,1236.19 h 41.24 c 0,22.77 -18.46,41.24 -41.24,41.24 -22.78,0 -41.25,-18.47 -41.25,-41.24 0,-22.78 18.47,-41.25 41.25,-41.25 22.78,0 41.24,18.47 41.24,41.25" /><path
             id="path150"
             style="fill:#f8ddd3;fill-opacity:1;fill-rule:nonzero;stroke:none"
             d="m 1156.06,1236.19 h 27.49 c 0,15.18 -12.31,27.49 -27.49,27.49 -15.18,0 -27.5,-12.31 -27.5,-27.49 0,-15.19 12.32,-27.5 27.5,-27.5 15.18,0 27.49,12.31 27.49,27.5" /><path
             id="path152"
             style="fill:#f9e1d8;fill-opacity:1;fill-rule:nonzero;stroke:none"
             d="m 1156.06,1236.19 h 13.75 c 0,7.59 -6.16,13.75 -13.75,13.75 -7.59,0 -13.75,-6.16 -13.75,-13.75 0,-7.59 6.16,-13.75 13.75,-13.75 7.59,0 13.75,6.16 13.75,13.75" /></g></g><path
         id="path154"
         style="fill:#ffffff;fill-opacity:1;fill-rule:nonzero;stroke:none"
         d="m 732.141,1623.56 c 252.234,1.76 637.089,-148.94 668.359,-648.247 76.64,45.477 144.08,131.307 200.66,275.837 -109.57,242.77 -353.7,411.71 -637.316,411.71 -81.184,0 -159.246,-13.88 -231.703,-39.3" /><path
         id="path156"
         style="fill:#ffffff;fill-opacity:1;fill-rule:nonzero;stroke:none"
         d="M 1195.43,304.02 C 943.184,302.242 558.336,452.996 527.055,952.281 450.418,906.793 382.977,820.969 326.391,676.41 435.973,433.598 680.098,264.813 963.844,264.813 c 81.056,0 159.116,13.789 231.586,39.207" /><path
         id="path158"
         style="fill:#ffffff;fill-opacity:1;fill-rule:nonzero;stroke:none"
         d="M 958.945,1451.3 C 513.57,887.512 925.277,390.039 1234.7,319.121 c 251.5,105.828 428.18,354.66 428.18,644.672 0,97.107 -19.82,189.567 -55.63,273.597 C 1618.59,816.07 1405.75,562.285 968.73,476.215 1413.99,1040.13 1002.28,1537.55 692.863,1608.46 441.348,1502.61 264.797,1253.87 264.797,963.793 c 0,-97.102 19.699,-189.621 55.512,-273.656 -11.34,421.433 201.5,675.133 638.636,761.163 v 0" /></g></g></svg>