<svg width="64" height="64" viewBox="0 0 64 64" fill="none" xmlns="http://www.w3.org/2000/svg">
<path fill-rule="evenodd" clip-rule="evenodd" d="M29.876 53.8129C28.6753 53.1684 27.2105 52.3483 26.2147 51.7326C26.0403 51.6168 25.8908 51.4673 25.7751 51.2928C25.5992 51.0002 25.5408 50.7072 25.5698 50.3262C25.6872 48.4797 26.1558 46.7505 26.6245 44.9629C27.3569 42.2374 28.2063 39.8932 29.8757 37.8413C30.0809 37.6065 30.2564 37.4021 30.4613 37.1968C31.6035 35.9365 32.8925 35.0864 34.591 34.6767C39.6873 33.4452 44.6376 33.3576 49.6468 32.6545C48.9144 32.5662 48.5624 32.5368 48.0352 32.4786C46.6002 32.3027 45.1942 32.2147 43.7592 32.0682C42.6166 31.9512 40.7714 31.8632 39.336 31.8043C39.3066 31.8043 39.1602 31.8043 39.1602 31.6869C39.1308 31.511 39.4533 31.3354 39.7168 31.1886C40.4786 30.7786 42.3826 29.8407 43.7882 29.2839C45.721 28.522 47.6254 27.9651 49.734 27.4962C50.6419 27.2908 51.6087 27.1443 52.4875 27.5547C53.8931 28.2287 54.0983 29.9578 53.8059 31.394C53.7764 31.4525 53.864 31.4819 53.9229 31.4525C54.2742 31.2475 54.45 30.9247 54.6553 30.6026C55.739 28.8738 56.2661 27.1153 56.6763 25.1226C56.8521 24.4192 56.8521 23.7744 56.6763 23.1004C56.5299 22.5145 56.2367 22.0161 55.7684 21.5767C55.4759 21.3128 55.2413 21.0783 54.3628 20.9318C50.6426 20.3455 46.6299 19.9646 43.7889 19.789C42.6758 19.701 41.7973 18.7338 40.1276 18.2358C39.7656 18.1251 39.3921 18.0563 39.0145 18.0308C36.4957 17.8548 34.006 17.9134 31.5163 17.9134H29.876C21.3817 18.0308 12.9462 18.6167 4.36398 19.496C4.15907 19.5251 3.89532 19.3492 3.8659 19.0856C3.77799 18.1478 3.8659 17.3274 4.07081 16.3896C4.12931 16.0966 4.48097 15.9498 4.7153 15.8912C11.7157 14.8364 18.4818 14.3086 25.3943 14.133C26.8882 14.1039 28.3821 14.045 29.876 14.0159C32.345 13.9276 34.8158 13.8983 37.2862 13.928C44.5795 14.045 51.6391 14.5434 59.0493 15.8621C59.4007 15.9207 59.8402 15.9792 59.8984 16.331C60.5726 19.7305 60.2203 24.7711 58.8147 28.7273C54.1873 41.7099 37.6964 52.3189 31.897 54.9267C31.8974 54.9267 31.0186 54.4581 29.876 53.8129ZM55.3586 22.8954C54.9778 22.3971 54.3337 22.3385 53.7771 22.2506C49.7935 21.6352 45.6926 21.5767 42.881 21.2837C42.295 21.2251 41.0064 20.5509 40.3034 20.082C40.2446 20.6097 39.9521 21.0783 39.6004 21.4887C39.0145 22.2215 38.1066 22.573 37.2277 22.2215C36.144 21.7817 35.2361 21.1077 34.1818 20.5509C33.7422 20.287 33.2739 20.0234 32.7755 19.9649C31.8135 19.8471 30.8452 19.7884 29.876 19.789C27.5621 19.789 25.2483 20.0234 22.905 20.1405C16.8419 20.4923 6.41444 21.6352 4.94997 22.1335C3.42667 22.661 4.04208 24.6831 4.3349 26.0019C4.51073 26.7932 5.36013 27.4965 6.09219 27.2621C8.78714 26.5002 13.122 26.0898 13.122 26.0898C10.8667 26.8811 8.4064 27.7016 6.26802 28.9033C6.08092 29.0026 5.92782 29.1556 5.82844 29.3427C5.47712 30.2511 6.0337 31.101 6.50235 31.8923C6.67818 32.1268 6.97101 32.2732 7.23476 32.3321C7.55666 32.3612 7.90832 32.4197 8.20115 32.2736C9.98786 31.4237 11.804 30.8669 13.6492 30.1635C13.7956 30.1344 13.942 30.105 13.9129 30.105C11.8331 31.3946 9.43128 32.7131 8.37698 33.8268C8.23057 34.0027 8.14265 34.3255 8.17207 34.589C8.17207 34.7061 8.20115 34.7944 8.25998 34.8824C8.64073 35.5563 9.31463 36.7867 10.1637 36.67C11.1304 36.5523 12.3311 35.4974 13.7077 34.589C14.3522 34.2081 14.9967 33.8268 15.6996 33.5636C15.7876 33.5342 15.7581 33.5342 15.7287 33.5636C15.3017 33.8965 14.8818 34.2384 14.4692 34.589C13.239 35.5857 12.0089 36.6406 11.1886 37.9303C10.7199 38.6925 11.5108 39.425 12.0674 39.9811C12.4187 40.3039 12.9753 40.3333 13.2975 40.04C14.1763 39.3366 14.9084 38.6042 15.7872 37.8714C16.2559 37.4904 16.6657 37.1092 17.5445 36.5232C16.5487 37.9597 15.2012 39.5126 14.4103 41.0654C14.293 41.3002 14.176 41.5641 14.176 41.8277C14.176 42.0036 14.2345 42.2381 14.3224 42.414C14.5537 42.8261 14.8996 43.1622 15.3182 43.3812C15.9039 43.7033 16.5484 43.4983 16.9291 42.9414C17.8079 41.7106 18.5985 40.4802 19.5067 39.337C19.126 40.5972 17.6906 43.2638 17.4563 44.7003C17.3393 45.3743 18.0419 45.8134 18.54 46.0482C18.6279 46.1071 18.8037 46.1659 18.8916 46.1659C19.0966 46.1071 19.3309 46.1365 19.5067 46.0188C20.1512 45.5796 20.5025 44.9345 20.8833 44.1144C21.2346 43.3521 21.7032 42.4732 22.1134 41.7113C22.2013 41.5648 21.9085 42.6491 21.1176 45.4328C20.8833 46.2241 20.7074 47.0452 20.9712 47.8359C21.2055 48.5399 21.8791 48.8914 22.4941 49.2717C22.6406 49.3306 22.8749 49.36 22.9337 49.2429C24.0759 46.5469 24.8668 43.4398 26.0091 41.0658C26.3898 40.3042 26.6826 39.7474 27.298 38.8684C27.7082 38.2232 28.0889 37.7252 28.5576 37.1684C28.9968 36.6704 29.4361 36.1717 29.8757 35.7326C30.2564 35.3222 30.6375 34.9703 31.0473 34.5894C31.428 34.2379 31.8382 33.886 32.248 33.5345C33.8007 32.3622 35.3822 31.5418 37.0813 30.7211C38.9556 29.8127 40.8302 29.0508 42.8219 28.4059C44.2569 27.9665 45.9266 27.4096 47.0986 27.0578C48.5337 26.6183 50.2909 26.2079 51.3452 26.2664C51.8142 26.2959 52.3414 26.325 52.8097 26.5012C53.161 26.6183 53.4251 26.7942 53.6882 27.0287C54.1278 27.3802 54.333 27.9079 54.4791 28.3765C54.5961 28.4939 54.6843 28.435 54.7428 28.2885C55.2111 27.1163 55.5625 25.7684 55.7089 24.5373C55.7982 23.8627 55.7687 23.4229 55.3586 22.8954ZM63.9997 19.4371C63.9997 15.8327 63.4431 12.2865 62.6522 8.76964C55.8567 7.06993 48.886 6.57159 41.8852 6.16121C37.8432 5.92675 33.8596 5.98528 29.8763 6.10268C29.2318 6.10268 28.5877 6.13177 27.9432 6.13177C23.123 6.24943 18.3074 6.51333 13.5031 6.9231C11.1893 7.12812 8.96331 7.36257 6.64911 7.77295C4.95031 8.03684 3.31001 8.21243 1.66972 8.62281C0.761823 12.1687 0.0879158 15.7735 0 19.4368V20.9609C0.0317208 22.4549 0.178684 23.9442 0.439579 25.4155C1.5233 31.6869 4.33524 36.962 8.49431 41.6802C14.6163 48.5964 21.6164 54.4872 29.8763 58.1505C30.5502 58.4431 31.1653 58.7361 31.8389 59C33.9772 58.004 36.027 56.9197 38.1657 55.6882C40.2744 54.5163 42.1784 53.3731 44.1409 51.8784C46.3084 50.2372 48.3 48.772 50.2331 46.896C51.8447 45.3137 53.3967 43.9073 54.92 42.1778C58.8742 37.6647 61.7443 32.7709 63.1503 26.9095C63.7362 24.4189 64 21.9569 64 19.4953V19.4371H63.9997ZM29.876 56.4511C30.5499 56.7438 31.165 57.008 31.8385 57.2425C36.2025 55.3079 40.2152 53.0223 44.1987 50.0035C49.6181 45.8716 54.1873 41.6808 57.7898 35.9075C59.4889 33.1231 60.8945 30.5444 61.5975 27.2915C62.1541 24.6831 62.5054 22.2218 62.5054 19.6134C62.476 16.6829 62.2129 13.8694 61.5975 10.8801C61.5093 10.4991 61.5093 10.0597 61.2168 9.97169C50.4377 7.07027 32.1314 7.48066 32.1023 7.48066C32.1023 7.48066 31.2823 7.50975 29.8763 7.53918C24.4577 7.68567 10.5448 8.18402 3.10476 9.8252C1.93312 12.9022 1.55238 16.3899 1.49389 19.7014C1.43505 23.2178 1.99162 26.7641 3.25118 30.1046C3.30967 30.2511 3.39759 30.4565 3.45608 30.603C3.63192 31.2184 3.89566 31.8047 4.18849 32.4201C6.35594 37.1088 9.5192 41.0364 13.2975 44.6408C18.3358 49.3884 23.6668 53.7256 29.876 56.4511Z" fill="black"/>
<path fill-rule="evenodd" clip-rule="evenodd" d="M16.4061 14.1662C14.8389 14.3342 10.472 14.7821 8.93252 14.9501C8.56867 14.9779 8.09301 14.6144 8.09301 14.2783C8.09301 14.0825 8.06489 13.8586 8.12079 13.6627C8.26071 12.7948 8.31694 11.7591 9.10055 11.2835C9.71613 10.8915 10.4442 10.8915 11.1438 10.8075C13.2429 10.6113 14.7545 10.4436 16.9099 10.3318L16.7981 11.1154C16.7981 11.1154 13.3272 11.3394 11.6197 11.5914C11.3958 11.6192 11.4517 12.2073 11.4239 12.2073L15.8745 11.7595L15.7905 12.5712L11.592 12.9628C11.3399 13.0187 11.2 12.935 11.1719 13.2149C11.116 13.6627 10.9198 13.8586 11.3677 13.8027C13.2151 13.6065 16.5463 13.2708 16.5463 13.2708L16.4061 14.1662ZM55.3143 14.2783L55.3424 15.09C53.5788 14.7262 48.1203 14.2783 47.3644 13.9423C46.6926 13.6346 46.9731 11.1151 47.0013 10.9193C47.0568 10.3315 47.8963 10.2756 48.7362 10.3596C50.5839 10.5273 53.0194 10.8356 54.8946 11.2554L54.9227 11.9831C53.2152 11.7591 50.3881 11.2835 49.9405 11.3675C49.9124 11.3675 49.7725 11.4793 49.7725 11.5355C49.7444 11.6754 49.8281 11.9272 49.9405 11.9553C51.34 12.0952 52.7392 12.2351 54.0832 12.5431L54.1113 13.243C53.2155 13.1031 50.696 12.6833 50.0523 12.7392C49.7447 12.767 49.8003 13.411 50.0523 13.4669C50.6117 13.6065 55.3143 14.2783 55.3143 14.2783ZM22.1163 11.899C22.7322 11.8431 23.404 11.815 23.9359 11.7872V10.9196C23.9359 10.8075 23.7678 10.7235 23.656 10.7235C23.1523 10.6395 22.6485 10.6957 22.1166 10.7516H22.0048C21.6128 10.7794 21.1931 10.7516 20.8011 10.8634C20.3532 11.0033 20.2973 11.4793 20.2692 11.955C20.8008 11.955 21.4448 11.9268 22.1163 11.899ZM22.1163 9.99576C22.9839 9.93986 23.88 9.91174 24.7476 9.91174C25.3354 9.88396 26.0631 10.0517 26.1471 10.6954C26.2593 11.6751 26.1752 13.6624 26.1752 13.6624L23.9078 13.7183V12.5146L22.1163 12.5986L20.213 12.6545L20.1852 13.9141L18.5618 13.9982C18.6458 13.1024 18.7857 12.2348 18.8697 11.339C18.8978 11.0311 19.0659 10.7513 19.2895 10.5554C19.5974 10.3034 19.9894 10.1916 20.3532 10.1357C20.9407 10.0795 21.5288 10.0517 22.1163 9.99576ZM45.3212 13.8027C44.5932 13.8027 41.2623 13.6627 40.3391 13.6065C39.359 13.5225 38.9115 13.2708 38.7715 12.7948C38.5473 12.1792 38.7434 9.68781 38.7434 9.68781C38.7434 9.68781 41.0109 9.7156 41.3185 9.77183C41.3185 9.77183 41.3185 11.1154 41.4029 12.0112C41.431 12.5153 41.5709 12.8229 41.9066 12.8229C42.9979 12.8788 44.6498 12.9347 45.3212 12.9628V13.8027ZM36.2801 9.68781C34.1526 9.68781 31.6337 9.60379 29.5905 9.79994C29.1426 9.85584 28.6666 10.1357 28.5548 10.5558C28.3309 11.4234 28.275 12.7392 28.6948 13.1871C28.9187 13.3829 29.1145 13.4947 29.3107 13.4947C30.6543 13.5787 33.789 13.5787 35.3291 13.4947C36.4204 13.4107 36.3086 11.8713 36.3086 11.0877H31.7174V11.8713H34.5164C34.6563 11.9553 34.5445 12.5712 34.4046 12.6271C34.0689 12.767 31.4657 12.7392 31.0456 12.7111C30.9335 12.6833 30.8776 12.515 30.8776 12.4313V10.8637C30.8776 10.5276 31.1574 10.4436 31.8295 10.4436H36.2798V9.68781H36.2801Z" fill="black"/>
</svg>
