<svg width="64" height="64" viewBox="0 0 64 64" fill="none" xmlns="http://www.w3.org/2000/svg">
<path d="M49.8776 0C50.9852 0 51.8809 0.886088 51.8809 1.98196V62.018C51.8809 63.113 50.9852 64 49.8776 64H14.0025C12.8959 64 12 63.1131 12 62.018V1.98196C12 0.886088 12.8959 0 14.0025 0H49.8776Z" fill="white"/>
<path d="M12.7812 8.90039H51.1309V61.8987C51.1309 62.3394 51.0557 62.6119 50.7584 62.9075C50.4358 63.2282 50.1527 63.257 49.6418 63.257L13.9263 63.2605C13.6449 63.2605 13.429 63.1708 13.196 62.9738C12.9075 62.7265 12.7812 62.4183 12.7812 62.0921V8.90039Z" fill="#FFF200"/>
<path d="M12.7812 6.23438H51.1309V8.95717H12.7812V6.23438Z" fill="#ED1C24"/>
<path d="M12.7812 3.50391H51.1309V6.22682H12.7812V3.50391Z" fill="white"/>
<path d="M13.8654 0.738281H50.0218C50.6008 0.738281 51.1348 1.29647 51.1348 1.84126V3.57942H12.7812L12.7847 2.05081V1.92361C12.7847 1.3073 13.2596 0.799202 13.8654 0.738281Z" fill="#009A4E"/>
<path d="M49.8776 0C50.9852 0 51.8809 0.886088 51.8809 1.98196V62.018C51.8809 63.113 50.9852 64 49.8776 64H14.0025C12.8959 64 12 63.1131 12 62.018V1.98196C12 0.886088 12.8959 0 14.0025 0H49.8776ZM49.8776 0.791155H14.0025C13.3376 0.791155 12.8001 1.32511 12.8001 1.98196V62.018C12.8001 62.6757 13.3377 63.2061 14.0025 63.2061H49.8776C50.5426 63.2061 51.08 62.6757 51.08 62.018V1.98196C51.08 1.32523 50.5426 0.791155 49.8776 0.791155Z" fill="black"/>
<path d="M31.2401 12.2617C31.2401 12.2617 31.2159 12.4928 31.1631 12.6282C31.1112 12.7535 30.9758 12.8378 30.9848 12.9219C30.9938 13.0044 31.0816 13.1039 31.2178 13.1727C31.3513 13.2426 31.405 13.2964 31.5421 13.3314C31.6693 13.3628 31.8306 13.4559 31.8762 13.3493C31.922 13.2409 31.8531 13.1091 31.776 12.9829C31.6415 12.7625 31.5735 12.7087 31.3755 12.4058C31.3333 12.3406 31.3002 12.2706 31.2401 12.2617Z" fill="black"/>
<path d="M30.2387 36.073C30.2521 36.0335 30.5693 36.2343 30.7341 36.3311C31.0809 36.5389 31.2367 36.6625 31.5432 36.8918C31.786 37.0765 31.9033 37.1714 32.1471 37.3811C32.4463 37.6391 32.6076 37.8595 32.6883 37.8094C32.8048 37.6696 32.4975 37.261 32.2259 37.0389C31.9617 36.8202 31.6884 36.6429 31.4778 36.5049C31.2063 36.3237 31.1821 36.2826 30.7763 36.0102C30.3399 35.7181 29.9637 35.3509 29.9637 35.3509L29.5398 35.0176L28.8759 34.4576L28.1377 33.7775L27.5804 33.1566C27.5804 33.1566 27.1468 32.6262 27.0778 32.5239C27.0079 32.4227 26.8036 32.0947 26.6353 31.8171C26.4847 31.568 26.1926 31.181 26.1657 31.1478C26.008 30.9569 25.6478 31.034 25.2293 30.7876C24.7213 30.4875 24.5986 30.2133 24.5986 30.2133C24.5986 30.2133 24.5797 30.1731 24.56 30.1515C24.5411 30.129 24.5027 30.1013 24.5027 30.1013L24.2365 29.9159L24.0842 29.8155C24.0842 29.8155 23.9686 29.7196 23.8235 29.6578C23.6774 29.5932 23.3522 29.4042 23.3522 29.4042L22.7707 29.0333C22.7707 29.0333 22.5431 28.8505 22.4679 28.7896C22.3909 28.7314 22.2475 28.6481 22.2475 28.6481C22.2475 28.6481 22.156 28.6023 22.1283 28.6005C22.1006 28.5987 21.9797 28.588 21.9797 28.588C21.9797 28.588 21.8676 28.5584 21.7538 28.692C21.64 28.8264 21.6678 28.7547 21.8533 29.5109C21.9267 29.8082 21.9196 30.8575 21.9984 31.1773C22.0987 31.5876 22.3872 32.1181 22.4168 32.1808C22.4456 32.2426 22.4661 32.472 22.4661 32.472C22.4661 32.472 22.4536 32.6575 22.4733 32.775C22.5612 33.317 23.3541 32.9603 23.5289 33.704C23.7009 34.4379 23.4258 35.1699 23.4258 35.1699C23.4258 35.1699 23.2555 35.5337 23.0145 35.5909C22.7744 35.6466 22.4017 35.1144 22.132 34.6834C21.866 34.2595 21.6483 33.704 21.5784 33.5276C21.5085 33.351 21.4717 33.3124 21.3911 33.1844C21.2719 32.9935 21.1761 33.0285 21.0426 32.7274C20.9081 32.4264 21.0273 32.3054 20.9673 32.043C20.9324 31.8978 20.901 31.8816 20.8554 31.6737C20.8115 31.4669 20.7523 30.8083 20.7523 30.8083L20.6681 30.1954C20.6681 30.1954 20.6385 29.9159 20.6 29.7402C20.4666 29.1274 20.42 28.5343 20.42 28.5343L20.3949 28.2906L20.3859 28.0389C20.3859 28.0389 20.3779 27.9178 20.4075 27.7933C20.4371 27.6689 20.4972 27.5658 20.4972 27.5658C20.4972 27.5658 20.6209 27.3588 20.6423 27.3069C20.6629 27.2576 20.9156 26.9637 20.9156 26.9637C20.9156 26.9637 21.0482 26.8535 21.2641 26.7218C21.481 26.59 21.6754 26.599 21.6754 26.599C21.6754 26.599 21.7327 26.5937 22.1163 26.6412C22.4998 26.6886 23.2882 26.8983 23.4872 26.9494C23.6834 27.0024 23.9182 27.0848 24.0704 27.1698C24.5085 27.4081 24.6412 27.307 24.2927 27.0337C24.0578 26.85 23.9917 26.7676 23.8025 26.5956C23.6429 26.4486 23.5176 26.3509 23.3984 26.2157C23.2793 26.0776 22.9397 25.5769 22.9397 25.5769L22.7274 25.2633C22.7274 25.2633 22.6136 25.1344 22.5947 25.1253C22.5691 25.1078 22.544 25.0896 22.5195 25.0706C22.5195 25.0706 22.3789 25.0777 22.2336 25.05C22.0867 25.0204 22.0186 25.2266 22.0186 25.2266C22.0186 25.2266 21.7031 25.8152 21.3825 26.1755C20.8628 26.7605 20.4901 27.1584 20.2993 27.4701C20.0314 27.902 20.0905 28.3752 19.9525 28.5937C19.8719 28.7218 19.828 28.7407 19.7841 28.8526C19.6497 29.1923 20.138 29.3785 20.026 29.7548C19.8477 30.3516 18.45 30.942 18.2644 30.8434C18.0718 30.7422 18.2295 29.935 18.294 29.6742C18.3603 29.4117 18.5565 29.0247 18.5745 29.005C18.5915 28.9861 18.639 28.8947 18.6533 28.8177C18.6685 28.7407 18.6739 28.566 18.6828 28.4692C18.6918 28.3714 18.7321 28.2174 18.7321 28.2174C18.7321 28.2174 18.7375 28.1842 18.8611 27.9164C18.9856 27.6468 19.4408 27.0195 19.767 26.421C19.982 26.0303 20.0716 25.7939 20.2866 25.4023C20.4846 25.043 20.8242 24.4946 20.8242 24.4946C20.8242 24.4946 20.9674 24.2151 21.0346 24.1112C21.1028 24.0045 21.2461 23.803 21.3805 23.604C21.5158 23.406 21.5489 23.2572 21.7254 23.0942C21.8715 22.958 21.9709 22.8854 22.1617 22.8245C22.4457 22.7304 22.6402 22.7807 22.9305 22.8613C23.2315 22.9437 23.4385 23.0817 23.6357 23.2448C23.7596 23.3503 23.8741 23.4663 23.9779 23.5915L24.0738 23.7331L24.1329 23.768L24.3157 23.8854L24.7342 24.1622C24.7342 24.1622 25.7269 24.8378 25.7825 24.8745C25.8354 24.9094 26.0136 25.0555 26.0485 25.0671C26.0854 25.0779 26.3497 24.7911 26.8685 24.4337C27.4687 24.017 27.6811 24.0484 27.8801 23.9401C28.0763 23.8316 28.1569 23.742 28.3111 23.5879C28.5441 23.355 28.5458 23.2304 28.8101 22.9052C29.0763 22.5809 29.3253 22.399 29.3253 22.399C29.3253 22.399 29.362 22.3623 29.8361 21.8265C30.3092 21.2925 30.5188 20.8883 30.5188 20.8883L30.7787 20.3677C30.7787 20.3677 31.1549 19.5588 31.276 19.2388C31.3978 18.9181 31.3978 18.8114 31.3978 18.8114C31.3978 18.8114 31.4156 18.7272 31.3243 18.5641C31.2302 18.4019 31.1334 18.4754 30.9533 18.5122C30.6084 18.5857 30.3987 18.496 30.0502 18.4352C29.7313 18.3822 29.5646 18.2864 29.2447 18.2335C28.9204 18.1789 28.7314 18.1252 28.4061 18.1565C28.3568 18.1619 28.2574 18.1825 28.2098 18.1986C28.0261 18.2595 27.9751 18.2738 27.8389 18.3527C27.6812 18.4262 27.5773 18.4495 27.4025 18.4539C27.2815 18.4575 27.2081 18.4611 27.0962 18.4172C27.0191 18.3876 26.9752 18.3653 26.9143 18.3107C26.8814 18.2825 26.853 18.2496 26.83 18.2129C26.8265 18.1789 26.8157 18.1807 26.8489 18.1252C26.8812 18.0687 26.9215 18.0588 26.9215 18.0588L27.0702 18.0221C27.0702 18.0221 27.2799 17.9675 27.2996 17.962C27.3184 17.9567 27.5182 17.8921 27.6059 17.8644C27.6947 17.8367 27.7915 17.7855 27.7915 17.7855C27.7915 17.7855 27.8452 17.6996 27.8246 17.6503C27.7986 17.5946 27.6794 17.5894 27.6794 17.5894C27.6794 17.5894 27.5127 17.6503 27.494 17.6557C27.4761 17.6593 27.2099 17.7434 27.2099 17.7434C27.2099 17.7434 27.0011 17.7892 26.839 17.8276C26.6759 17.8643 26.443 17.8832 26.443 17.8832L26.3731 17.8643C26.3731 17.8643 26.2942 17.8114 26.2817 17.756C26.2701 17.7067 26.2629 17.6699 26.2539 17.6135C26.219 17.4073 26.1769 17.2828 26.2262 17.0795C26.2451 16.9944 26.2647 16.9469 26.3014 16.8681C26.3328 16.8027 26.3534 16.765 26.3937 16.7032L26.5219 16.4935L26.7639 16.136C26.8472 16.0518 26.9019 16.0098 27.0066 15.9506C27.1607 15.8646 27.2503 15.8404 27.443 15.8188C27.632 15.7982 27.658 15.8001 27.9259 15.74C28.1956 15.6791 28.3865 15.5725 28.3865 15.5725C28.3865 15.5725 29.0308 15.3359 29.4231 15.1432C29.8343 14.9417 30.0135 14.7266 30.4392 14.56C30.6192 14.4901 30.7241 14.4569 30.9095 14.4095C30.9328 14.3942 30.9445 14.3799 30.9517 14.3521C30.9696 14.2849 30.8657 14.2535 30.794 14.2606C30.7294 14.266 30.5825 14.3341 30.5493 14.2606C30.5242 14.2043 30.6837 14.1711 30.6837 14.1711C30.6837 14.1711 30.7589 14.1361 30.7608 14.0941C30.7626 14.0295 30.6524 14.0716 30.603 14.0662C30.3531 14.0384 30.3334 13.9927 30.1604 13.9507C29.957 13.8997 29.847 13.8369 29.6354 13.8279C29.449 13.8207 29.2743 13.8602 29.157 13.8879C29.0415 13.9175 29.0379 13.8037 29.0835 13.7813C29.4106 13.629 29.4177 13.6164 29.6489 13.6057C29.7752 13.6003 29.9518 13.6272 29.9715 13.637C29.9903 13.6477 30.243 13.6352 30.3075 13.569C30.3738 13.5044 30.1005 13.508 29.9715 13.4569C29.8524 13.4095 29.6705 13.3961 29.6741 13.3171C29.6804 13.2383 29.7682 13.2822 29.8309 13.2661C29.9096 13.2472 29.9554 13.2491 30.036 13.2384C30.1813 13.2187 30.1937 13.2052 30.4088 13.1874C30.6211 13.1667 30.9276 13.2573 30.9276 13.2573C30.9276 13.2573 31.2492 13.3998 31.4069 13.4751C31.5646 13.5485 31.7554 13.587 31.7554 13.587C31.7554 13.587 31.9793 13.6184 32.1497 13.5118C32.3226 13.406 32.225 13.3361 32.1649 13.2385C32.1057 13.1471 32.0305 13.0145 32.1406 12.7636C32.2384 12.545 32.2894 12.2896 32.3172 12.2663C32.3523 12.2386 32.4875 12.4348 32.5752 12.5155C32.8897 12.8094 33.3056 12.9545 33.698 13.5691C33.7285 13.6184 33.8737 13.5395 34.3288 13.6094C34.7839 13.6793 35.1818 14.1666 35.2822 14.2832C35.3862 14.4005 35.5205 14.3942 35.5205 14.3942L35.7391 14.4238L36.5329 14.4372C36.5329 14.4372 36.8931 14.3727 37.1009 14.4517C37.2461 14.5063 37.73 14.8298 37.5096 14.9524C37.3555 15.0385 37.2103 14.8495 37.0705 14.8405C36.9056 14.8298 36.834 14.8611 36.687 14.8978C36.3788 14.9749 35.7176 15.1747 35.9577 15.2553C35.9755 15.2624 36.0096 15.2678 36.0096 15.2678L36.1278 15.2884C36.1278 15.2884 36.4182 15.3547 36.5938 15.4236C36.8589 15.5284 36.9845 15.6441 37.2281 15.7874C37.3678 15.868 37.4288 15.9487 37.5811 15.9944C37.7209 16.0348 37.8104 15.9944 37.9538 16.0186C38.142 16.0518 38.2476 16.0904 38.4198 16.1727C38.6759 16.2955 38.7691 16.4442 38.9986 16.6091C39.1132 16.6923 39.2099 16.7049 39.296 16.817C39.3158 16.842 39.332 16.8555 39.3409 16.885C39.3714 16.9872 39.1724 16.9271 39.0667 16.9102C38.9502 16.8905 38.9019 16.8331 38.7944 16.7838C38.6349 16.7085 38.5596 16.6261 38.3858 16.5947C38.2603 16.5705 38.1851 16.5894 38.0561 16.5965C37.9307 16.6018 37.8644 16.6207 37.7388 16.6225C37.5256 16.6261 37.4056 16.6073 37.1959 16.5633C36.9611 16.5141 36.8446 16.4227 36.6117 16.3742C36.3482 16.3196 35.8824 16.0939 35.9271 16.3196C35.9504 16.428 36.1977 16.5194 36.1977 16.5194C36.1977 16.5194 36.3679 16.6108 36.5292 16.6824C36.6906 16.7523 36.78 16.859 36.78 16.859L36.8912 16.9415C36.8912 16.9415 37.0058 17.0992 37.1564 17.2774C37.3033 17.4531 37.5649 17.4476 37.5649 17.4476C37.5649 17.4476 37.7226 17.4476 38.063 17.5175C38.4017 17.5874 38.7512 17.797 38.7512 17.797C38.7512 17.797 39.0145 17.978 39.1686 18.1599C39.321 18.3419 39.2332 18.4332 39.2135 18.4519C39.1957 18.4716 39.2027 18.4627 39.1812 18.4716C39.1634 18.4806 38.9734 18.2423 38.9734 18.2423L38.8372 18.1267C38.8372 18.1267 38.7046 18.0335 38.5326 17.978C38.3606 17.9233 38.3032 17.96 38.3032 17.96C38.3032 17.96 37.9376 18.0622 37.6187 18.0532C37.3033 18.0443 37.1385 17.9179 37.1385 17.9179L36.9378 17.7834C36.9378 17.7834 36.6366 17.5012 36.6258 17.6348C36.6186 17.7253 36.7585 17.8256 36.7585 17.8256C36.7585 17.8256 36.8553 17.9232 36.9198 17.9852C37.0417 18.1052 37.092 18.1653 37.2316 18.2897C37.3714 18.4153 37.4574 18.4153 37.4574 18.4153C37.4574 18.4153 37.5326 18.4331 37.5613 18.4385C37.5901 18.4439 37.6403 18.4574 37.6403 18.4574C37.6403 18.4574 37.6869 18.4754 37.9054 18.5641C38.1222 18.6518 38.357 18.8427 38.357 18.8427C38.357 18.8427 38.3785 18.8607 38.4108 18.867C38.443 18.8706 38.5075 18.9029 38.5254 18.9082C38.5451 18.9126 38.6007 18.9126 38.7261 18.9306C38.8534 18.9494 38.805 19.0301 38.805 19.0301L38.7834 19.0605L38.6794 19.1303C38.6794 19.1303 38.5451 19.1689 38.4537 19.1733C38.3605 19.1787 38.2279 19.1268 38.2279 19.1268L37.9465 19.0211C37.9465 19.0211 37.6617 18.9458 37.6007 18.9359C37.5397 18.927 37.2853 18.8759 37.2424 18.867C37.2011 18.8572 37.0739 18.8114 37.0399 18.7917C37.0058 18.773 36.9431 18.7604 36.789 18.6851C36.6366 18.6099 36.5757 18.523 36.3859 18.4629C36.1941 18.402 36.0776 18.3895 35.9342 18.489C35.687 18.6592 36.3069 18.687 36.6152 18.841C37.0704 19.065 37.3266 19.2298 37.4341 19.4719C37.5434 19.7146 37.6527 19.8025 37.6527 19.8025C37.6527 19.8025 37.9735 19.9638 38.1168 20.133C38.1957 20.2244 38.2065 20.2997 38.2852 20.391C38.4608 20.5971 38.8014 20.5855 38.8695 20.7602C38.934 20.9231 38.5934 20.8498 38.416 20.8336C38.0971 20.8022 38.02 20.5101 37.7225 20.3928C37.5542 20.3256 37.4467 20.3256 37.2745 20.2665C36.9609 20.1634 36.814 20.0282 36.5004 19.9306C36.3104 19.8723 35.9663 19.6224 36.0094 19.8149C36.0165 19.8615 36.0451 19.8974 36.0576 19.9252C36.0738 19.9529 36.1527 20.0551 36.1527 20.0551C36.1527 20.0551 36.2583 20.1949 36.3066 20.2317C36.3515 20.2702 36.5539 20.4225 36.8442 20.5802C37.131 20.7379 37.3818 21.0408 37.3818 21.0408C37.3818 21.0408 37.4679 21.1645 37.5091 21.2506C37.5521 21.3474 37.5216 21.3768 37.5897 21.5113C37.6524 21.6448 37.6829 21.6707 37.7689 21.7532C37.9803 21.9566 38.2025 21.9162 38.4713 22.0265C38.5448 22.0578 38.5501 22.0685 38.629 22.1527C38.7078 22.236 38.6145 22.2718 38.6145 22.2718C38.6145 22.2718 38.3154 22.3489 38.1218 22.3327C37.871 22.313 37.758 22.2359 37.5143 22.1141C37.2671 21.9932 37.1381 21.7754 37.1131 21.7621C37.0915 21.7476 37.0306 21.6832 36.984 21.65C36.9375 21.6169 36.8173 21.5918 36.7098 21.5622C36.6005 21.5327 36.5395 21.5272 36.4304 21.4976C36.2816 21.4555 36.1274 21.3901 36.0575 21.3678C35.9876 21.3435 35.8281 21.3149 35.7117 21.3838C35.4787 21.5219 36.0736 21.6149 36.2582 21.8131C36.3531 21.9125 36.3925 21.9824 36.4822 22.0873C36.5503 22.1679 36.579 22.2244 36.6633 22.287C36.7205 22.3291 36.8263 22.3748 36.8263 22.3748C36.8263 22.3748 36.9696 22.4411 37.1792 22.5567C37.3889 22.6722 37.6343 22.9992 37.6343 22.9992L37.7831 23.2268L37.8709 23.3567L37.8942 23.4168L37.9263 23.4902C37.9263 23.4902 38.034 23.63 38.1127 23.6756C38.1917 23.7232 38.1773 23.7644 38.1773 23.7644C38.1773 23.7644 38.1684 23.7932 38.1127 23.8245C38.059 23.8577 38.0285 23.8299 37.9498 23.8066C37.8709 23.7842 37.819 23.709 37.7509 23.6542C37.6792 23.5969 37.6039 23.458 37.4767 23.3792C37.3638 23.3112 37.217 23.2869 37.1595 23.269C37.104 23.2485 36.9642 23.1607 36.9086 23.1364C36.8549 23.1149 36.7098 23.0486 36.7098 23.0486C36.7098 23.0486 36.4304 22.8928 36.276 22.8507C36.122 22.8076 36.2204 22.9017 36.2204 22.9017C36.2204 22.9017 36.3586 23.1168 36.491 23.2027C36.6632 23.3165 36.905 23.4169 36.8262 23.5091C36.7723 23.5692 36.7007 23.5476 36.6219 23.5387C36.4929 23.5235 36.3369 23.3693 36.3369 23.3693C36.3369 23.3693 36.2725 23.3272 35.984 23.2358C35.6972 23.1417 35.803 23.2994 35.8693 23.3845C35.9117 23.4368 35.9634 23.4808 36.0217 23.5144L36.2171 23.6023L36.3066 23.63C36.3066 23.63 36.3856 23.6443 36.6454 23.7052C36.9051 23.7644 37.0486 23.8908 37.0486 23.8908C37.0486 23.8908 37.1883 24.0207 37.3818 24.1641C37.5789 24.3092 37.7725 24.346 37.88 24.3603C37.9875 24.3737 37.9839 24.449 37.9839 24.449C37.9839 24.449 37.9982 24.518 37.9912 24.5404C37.9888 24.5521 37.9826 24.5626 37.9734 24.5703C37.9643 24.5779 37.9528 24.5823 37.9409 24.5826C37.9194 24.5826 37.9088 24.5915 37.8801 24.6068C37.8514 24.6211 37.7403 24.6391 37.7403 24.6391C37.7403 24.6391 37.45 24.6301 37.2207 24.5736C36.9949 24.518 36.7941 24.3603 36.7726 24.3515C36.7548 24.3425 36.5432 24.2252 36.3963 24.1786C36.2548 24.1311 36.0272 24.1517 36.002 24.1607C35.9789 24.1696 35.8999 24.1822 35.7656 24.2216C35.6294 24.2575 35.7996 24.3093 35.7996 24.3093L35.8964 24.3183L36.1275 24.3362C36.1275 24.3362 36.3677 24.3639 36.5701 24.4392C36.7726 24.5127 36.9053 24.6614 37.0397 24.7976C37.1256 24.8816 37.2206 24.9558 37.3228 25.0189L37.4304 25.0888L37.4859 25.1309L37.5003 25.1676C37.5003 25.1676 37.4949 25.1864 37.4859 25.2096C37.477 25.2338 37.4429 25.2517 37.4429 25.2517C37.4429 25.2517 37.3927 25.2427 37.3713 25.2427C37.3461 25.2427 37.1939 25.1621 37.081 25.1128C36.9645 25.0618 36.9054 25.0133 36.7799 24.9828C36.6724 24.9568 36.5291 24.9452 36.4967 24.9551C36.4646 24.9641 36.2279 24.9973 36.0451 25.0097C35.8625 25.024 35.7047 25.0267 35.4896 25.0008C35.1833 24.9641 34.7765 24.722 34.7245 24.7893C34.6188 24.9309 34.9413 24.9712 35.0991 25.0617C35.3141 25.1862 35.6868 25.2982 35.6868 25.2982C35.6868 25.2982 35.9592 25.3582 36.1186 25.4335C36.4681 25.5957 36.5739 25.8358 36.8552 26.0885C37.0093 26.23 37.1347 26.2909 37.3425 26.3214C37.5218 26.3475 37.5182 26.326 37.8012 26.2704C38.0862 26.214 38.2583 25.9443 38.3407 26.0429C38.3569 26.0618 38.3496 26.0796 38.346 26.1075C38.3407 26.1352 38.3175 26.1863 38.3175 26.1863C38.3175 26.1863 38.2852 26.232 38.235 26.2839C38.1831 26.3349 37.9877 26.4416 37.8856 26.4837C37.7834 26.5259 37.5326 26.5958 37.2172 26.5859C36.9018 26.5769 36.4575 26.335 36.4575 26.335L36.1386 26.2005C36.1386 26.2005 35.9916 26.1316 35.8913 26.0939C35.626 25.9935 35.4576 26.0025 35.1851 25.9309C35.0167 25.8852 34.9057 25.8377 34.7533 25.8063C34.5992 25.7733 34.6871 25.8342 34.7014 25.8556C34.773 25.9532 34.8697 25.9846 34.9917 26.0411C35.153 26.1199 35.2659 26.1038 35.4307 26.1737C35.6153 26.2482 35.7766 26.353 35.8788 26.4193C35.9791 26.4838 36.0545 26.5573 36.153 26.6595L36.4916 26.9497C36.4916 26.9497 36.5705 27.0143 36.5795 27.0412C36.5883 27.069 36.6259 27.1388 36.6081 27.2509C36.5883 27.3629 36.497 27.2841 36.497 27.2841L36.4074 27.2267L36.3177 27.1443L36.1761 27.027C36.1761 27.027 36.0543 26.9167 35.8446 26.8101C35.6368 26.7016 35.3858 26.6747 35.3858 26.6747C35.3858 26.6747 35.1636 26.6417 35.1708 26.7115C35.1815 26.7805 35.2315 26.7868 35.4072 26.8324C35.5846 26.8782 35.7011 26.9678 35.7011 26.9678C35.7011 26.9678 35.8822 27.1022 36.0129 27.2509C36.1418 27.3997 36.1796 27.5439 36.1796 27.5439C36.1796 27.5439 36.2458 27.6658 36.4125 27.827C36.5792 27.9901 36.667 27.9336 36.658 28.0125C36.649 28.0914 36.5755 28.1057 36.5755 28.1057C36.5755 28.1057 36.5325 28.102 36.5147 28.102C36.4967 28.102 36.4538 28.0779 36.4072 28.0599C36.3606 28.042 36.1849 27.9202 36.1849 27.9202C36.1849 27.9202 35.9091 27.6963 35.8786 27.6747C35.7803 27.6022 35.6824 27.5294 35.5847 27.4561C35.5847 27.4561 35.4306 27.3576 35.3212 27.302C35.2087 27.2489 35.0932 27.2022 34.9754 27.1622C34.893 27.1353 34.7388 27.1263 34.7388 27.1263C34.7388 27.1263 34.5543 27.0986 34.4414 27.0564C34.264 26.9883 34.0578 26.7993 34.0346 26.7903C34.0095 26.7805 33.8447 26.724 33.8124 26.7294C33.7802 26.733 33.7049 27.0448 33.6871 27.2249C33.6118 27.9793 33.8124 28.4801 34.1242 29.1719C34.574 30.1771 35.8265 31.427 35.8265 31.427C35.8265 31.427 36.1419 31.6054 36.2746 31.7119C36.6491 32.005 37.2691 32.4198 37.8193 32.9681C38.2887 33.4384 38.9125 34.2726 38.9125 34.2726C38.9125 34.2726 39.2743 34.7761 39.4428 35.1327C39.6472 35.57 39.8121 36.2367 39.8121 36.2367C39.8121 36.2367 39.8264 36.3513 39.8371 36.3765C39.8515 36.3997 39.8836 36.4302 39.9053 36.4302L40.1238 36.4374C40.1454 36.4374 40.3944 36.4196 40.5593 36.3783C40.7224 36.337 41.1095 36.1596 41.3675 36.0253C41.6219 35.889 41.9284 35.631 41.9284 35.631C41.9284 35.631 41.9874 35.5808 42.285 35.2475C42.5861 34.9143 42.7796 34.4143 42.853 34.2253C42.9248 34.0381 42.9839 33.677 43.0269 33.0605C43.0734 32.4415 42.9893 31.789 42.9893 31.789C42.9893 31.789 42.8764 30.8787 42.8082 30.5686C42.7401 30.2606 42.5753 29.7551 42.5753 29.7551C42.5753 29.7551 42.4607 29.3055 42.4248 29.0215C42.3871 28.7374 42.3818 28.2751 42.3818 28.2751C42.3818 28.2751 42.3818 27.992 42.473 27.4688C42.5681 26.9482 42.8871 26.4231 42.8871 26.4231C42.8871 26.4231 42.9767 26.2465 43.3209 25.8344C43.6739 25.4124 43.7866 25.3461 44.1343 25.0943C44.4104 24.8963 44.7668 24.5773 44.8835 24.6526C45.0125 24.7332 44.7579 24.8945 44.6719 24.9787C44.4551 25.1938 44.0502 25.5736 43.7222 26.1461C43.4355 26.6417 43.328 26.9695 43.2565 27.293C43.1846 27.6157 43.2153 27.9704 43.2242 28.0914C43.2351 28.2124 43.3012 28.1685 43.3012 28.1685C43.3012 28.1685 43.9983 27.6085 44.3764 27.1847C44.7867 26.726 45.1523 25.9097 45.2955 25.9026C45.3923 25.8963 45.4372 26.1149 45.4139 26.2161C45.3244 26.6399 45.294 26.6928 45.1558 26.9741C44.9982 27.2966 44.8514 27.44 44.6326 27.7375C44.4032 28.0493 44.2904 28.1685 44.1059 28.5814C43.839 29.1755 43.9948 29.6343 43.9948 29.6343C43.9948 29.6343 44.027 29.913 44.1524 29.9094C44.3623 29.9021 44.8226 29.3206 45.1237 28.8448C45.3461 28.4963 45.4266 28.0931 45.5718 27.8816C45.7044 27.6944 45.821 28.1863 45.7636 28.4766C45.6972 28.8215 45.527 29.1316 45.1525 29.6199C44.787 30.0964 44.7977 30.5499 44.7977 30.5499C44.7977 30.5499 44.7601 30.7569 44.7296 31.2085C44.701 31.6581 44.83 32.3411 44.83 32.3411C44.83 32.3411 44.9445 32.9117 44.968 33.3444C44.9895 33.7799 44.9751 34.7682 44.5682 35.5378C44.407 35.846 44.0611 36.2726 44.0611 36.2726C44.0611 36.2726 43.7941 36.5468 43.5754 36.7062C43.3567 36.8657 42.8317 37.1149 42.8317 37.1149C42.8317 37.1149 42.468 37.2402 42.4178 37.2511C42.364 37.2654 42.3319 37.3101 42.3319 37.3101C42.3319 37.3101 42.364 37.3801 42.3783 37.4088C42.3908 37.4376 42.493 37.6882 42.493 37.6882C42.493 37.6882 42.6022 38.043 42.6435 38.3245C42.6847 38.6058 42.6362 38.6703 42.597 38.8853C42.5575 39.0915 42.468 38.9963 42.4446 39.4013C42.4249 39.7599 42.5863 39.9389 42.5575 40.3404C42.5451 40.5161 42.3461 40.1183 42.2493 39.9499C42.045 39.5841 42.0933 39.0215 42.0898 38.8818C42.0843 38.742 42.0735 38.5878 42.0217 38.4123C41.959 38.1828 41.8639 38.0055 41.7583 37.8657C41.6507 37.7277 41.5378 37.649 41.5002 37.6633C41.4625 37.6759 41.4589 37.7493 41.4589 37.7851C41.4571 37.8246 41.5323 37.9572 41.5485 37.986C41.5682 38.0127 41.7026 38.2583 41.7026 38.2583C41.7026 38.2583 41.7617 38.4483 41.785 38.8175C41.8084 39.1831 41.6954 39.6382 41.6954 39.6382C41.6954 39.6382 41.5484 40.1489 41.3944 40.45C41.2221 40.7814 40.8406 41.233 40.8406 41.233C40.8406 41.233 40.5664 41.4839 40.3603 41.8961C40.1579 42.3082 40.3317 42.4875 40.2564 42.5411C40.1775 42.5931 40.0162 42.3028 39.9732 42.1075C39.932 41.9247 39.9516 41.8386 40.027 41.6343C40.0969 41.4372 40.2618 41.1522 40.2618 41.1522L40.5073 40.7347C40.5073 40.7347 40.8048 40.1685 40.898 39.7563C40.9911 39.3478 40.8836 38.8927 40.8836 38.8927C40.8836 38.8927 40.8712 38.7422 40.769 38.7493C40.665 38.7546 40.5935 38.8443 40.5504 38.9536C40.466 39.1793 40.5862 39.1382 40.4571 39.5145C40.3569 39.8101 40.3281 39.7707 40.2743 39.9463C40.2098 40.1559 40.1758 40.3709 40.1795 40.5019C40.1848 40.6308 40.1132 40.5771 40.1132 40.5771C40.1132 40.5771 39.9878 40.344 39.9878 40.0539C39.9878 39.8962 39.995 39.8066 40.0129 39.6488C40.0416 39.3961 40.1455 39.0091 40.1455 39.0091C40.1455 39.0091 40.2566 38.6274 40.2333 38.2797C40.2066 37.9285 40.0847 37.8641 40.0847 37.8641C40.0847 37.8641 40.0525 37.8175 39.9162 37.8246C39.7819 37.8355 39.789 38.0773 39.789 38.0773C39.789 38.0773 39.7478 38.4232 39.6941 38.6381C39.5453 39.2313 39.3465 39.5431 38.9952 40.043C38.6763 40.4947 38.2445 40.8926 38.0275 41.0789C37.8124 41.2689 37.1494 41.7509 37.1494 41.7509L36.3718 42.2687C36.3718 42.2687 36.0635 42.5698 35.9237 42.9282C35.7804 43.2849 35.7875 43.5643 35.8698 43.8922C35.9524 44.222 36.0707 44.3725 36.1333 44.4656C36.1942 44.5554 36.3145 44.7165 36.3538 44.9066C36.3789 45.0229 36.361 45.0928 36.3682 45.2111C36.3755 45.3151 36.3897 45.3724 36.3861 45.4782C36.3825 45.643 36.4129 45.7593 36.3179 45.8938C36.2498 45.9959 36.0634 46.0855 36.0634 46.0855C36.0634 46.0855 35.8521 46.1786 35.7264 46.2557C34.4039 47.0531 33.9346 47.571 33.1891 48.4598C32.9525 48.7447 33.1264 48.7269 32.8738 49.0637C32.7205 49.2646 32.3666 49.2646 32.2385 49.5045C32.0603 49.8324 32.6399 50.1551 31.9706 50.4436C31.1078 50.8164 29.6231 50.5493 29.5935 50.4329C29.5129 50.1138 29.8838 49.7448 30.0155 49.5978C30.6194 48.9383 31.1588 48.9221 31.3568 48.3757C31.3998 48.2592 31.3828 48.1589 31.8639 47.8022C32.2017 47.5531 33.551 46.5371 34.1406 45.8598C34.3431 45.6268 34.5169 45.4728 34.6047 45.2218C34.6944 44.9671 34.5169 44.8078 34.5169 44.8078L34.2749 44.4135L33.8109 43.5838C33.8109 43.5838 33.6157 43.143 33.5099 42.8885C33.4006 42.634 33.1981 41.9494 33.1981 41.9494C33.1981 41.9494 33.0494 41.3331 33.0241 40.9316C32.9794 40.2113 33.078 39.792 33.2681 39.0931C33.5135 38.1864 34.0708 37.8065 34.293 36.9069C34.3576 36.6453 34.3719 36.1972 34.2392 36.2188C34.1137 36.2421 34.103 36.595 34.0063 36.8317C33.6479 37.7241 33.1748 38.1148 32.915 39.0393C32.7412 39.6647 32.6696 40.0358 32.6712 40.6844C32.6732 41.0553 32.6587 40.9873 32.7537 41.6306C32.7913 41.8671 32.8486 41.9943 32.9186 42.2254C32.9687 42.3903 33.1031 42.6985 33.1031 42.6985C33.1031 42.6985 33.2878 43.1053 33.3523 43.3902C33.3719 43.4889 33.3971 43.5442 33.3898 43.6428C33.3773 43.813 33.4077 43.849 33.3254 44.003C33.2232 44.1949 33.2858 44.3077 32.9597 44.3793C32.6695 44.4402 32.0763 44.2467 32.0763 44.2467C32.0763 44.2467 29.6383 43.5084 28.082 43.7216C27.7738 43.7628 27.608 43.8757 27.2981 43.8703C27.0158 43.8667 26.8724 43.6462 26.5902 43.7306C26.5329 43.7468 26.5149 43.7879 26.463 43.822C26.0509 44.1087 26.3662 44.5853 25.2803 44.338C24.6137 44.1857 23.8065 43.7773 23.9461 43.5209C24.1333 43.1804 24.3842 43.1248 24.9112 42.908C25.4748 42.6786 26.3205 42.7431 26.4872 42.7324C26.6906 42.7162 26.9827 42.5747 27.3464 42.5657C27.9754 42.5549 28.0874 42.6303 28.0874 42.6303L29.1553 42.7251L31.1991 42.7504C31.1991 42.7504 31.5646 42.7234 31.7098 42.6947C31.8568 42.6659 31.9723 42.3775 32.0528 42.2395C32.1318 42.1034 32.0493 41.9026 32.0493 41.9026L31.9885 41.8077L31.794 41.4941L31.4347 40.8884L31.036 40.0928C31.036 40.0928 30.7753 39.5391 30.6365 39.1754C30.4984 38.8133 30.4178 38.609 30.3264 38.2346C30.2305 37.8492 30.1714 37.5375 30.1589 37.2275C30.1438 36.7826 30.1142 36.4367 30.2387 36.073Z" fill="black"/>
<path d="M43.5022 35.3351C43.9322 34.7832 43.9736 34.2706 43.9986 33.5485C44.0183 33.0235 43.8195 32.2144 43.8195 32.2144L43.7925 32.1552C43.7925 32.1552 43.7173 32.0575 43.6709 32.1866C43.678 32.3005 43.6925 32.3918 43.6925 32.3918L43.7174 33.4339C43.7174 33.4339 43.6851 33.9588 43.5061 34.5C43.205 35.414 42.4058 35.8207 42.2894 36.1505C42.0901 36.6969 42.988 35.9999 43.5022 35.3351ZM38.9938 37.0214C38.9938 37.0214 38.8181 37.0716 38.8145 37.2453C38.811 37.4192 38.8575 37.5697 38.8521 37.7794C38.8486 38.0465 38.6031 38.3546 38.7608 38.455C39.0314 38.627 39.2642 37.4156 39.1819 37.2365C39.0994 37.0571 39.0188 37.0194 38.9938 37.0214ZM35.9582 45.4202C35.9582 45.4202 35.9079 45.3934 35.8094 45.4311C35.7128 45.4686 35.7198 45.5691 35.7198 45.5691C35.7198 45.5691 35.7001 45.6766 35.7789 45.6874C35.8579 45.7018 35.9869 45.5082 35.9869 45.4866C35.9869 45.4651 35.9582 45.4202 35.9582 45.4202ZM33.1018 47.4505C33.1018 47.4505 33.073 47.4793 33.0982 47.4989C33.125 47.5223 33.1627 47.4935 33.1627 47.4935C33.1627 47.4935 33.6554 47.1083 33.9476 46.8377C34.2558 46.5474 34.7003 46.0475 34.7003 46.0475C34.7003 46.0475 34.7307 46.0099 34.6967 45.9776C34.6607 45.9453 34.5766 45.9954 34.5067 46.0277C34.4458 46.0599 34.4099 46.094 34.3634 46.1317C34.3204 46.1712 34.1734 46.3217 34.1734 46.3217L33.7935 46.6908L33.5533 46.9166L33.3204 47.1387L33.2236 47.2499C33.2236 47.2499 33.1985 47.2929 33.1915 47.3036C33.1841 47.3161 33.1592 47.3484 33.1592 47.3484C33.1592 47.3484 33.1232 47.3825 33.1232 47.3932C33.1232 47.4022 33.1125 47.4111 33.1125 47.422C33.1098 47.4318 33.1062 47.4414 33.1018 47.4505ZM32.2497 48.0098C32.2497 48.0098 32.1968 47.9668 32.1135 48.0079C32.0293 48.0527 31.9398 48.1672 31.9324 48.1799C31.9245 48.1961 31.8787 48.257 31.9102 48.3107C31.9415 48.3646 32.0481 48.2856 32.0642 48.2821C32.0794 48.2821 32.2184 48.1711 32.2184 48.1711C32.2184 48.1711 32.299 48.1208 32.2497 48.0098ZM30.6181 49.6618C30.6181 49.6618 30.5482 49.5329 30.4568 49.5866C30.3654 49.6404 30.3153 49.6583 30.2311 49.7747C30.2167 49.7944 30.1262 49.911 30.11 49.9414C30.094 49.9702 30.0035 50.1422 30.1871 50.1547C30.5026 50.1725 30.2955 49.9702 30.4039 49.8912C30.4918 49.8304 30.6566 49.8465 30.6584 49.7819C30.6602 49.7175 30.6181 49.6618 30.6181 49.6618ZM25.0272 43.0602C25.0272 43.0602 24.8381 43.1069 24.8238 43.1714C24.8085 43.2394 24.934 43.3039 24.9537 43.3074C24.976 43.3111 25.0182 43.3613 25.1445 43.2752C25.269 43.1911 25.2636 43.1193 25.2636 43.1193C25.2636 43.1193 25.3371 43.0334 25.0272 43.0602ZM28.1022 42.9599C28.1022 42.9599 28.1003 42.89 27.9669 42.899C27.8307 42.9063 27.802 42.9312 27.7984 42.9528C27.794 42.9724 27.8056 43.0066 27.9266 43.0173C28.0493 43.0245 28.0986 43.0172 28.1022 42.9599ZM31.0096 43.0441C30.765 43.0422 30.8421 43.0495 30.6916 43.0567C30.4184 43.071 30.2696 43.0601 30 43.0422C29.6217 43.0172 29.0368 42.924 29.0368 42.924C29.0368 42.924 28.9633 42.9062 28.9337 42.9545C28.9068 42.9992 29.0053 43.1031 29.0931 43.1302C29.5725 43.2789 29.5984 43.2539 29.9246 43.2591C30.1065 43.261 30.2078 43.2429 30.3888 43.2322C30.6181 43.2145 30.7247 43.2501 30.9747 43.1839C31.04 43.1677 31.1028 43.0459 31.0096 43.0441ZM32.6475 42.5585C32.6475 42.5585 32.5982 42.5013 32.4969 42.5513C32.3967 42.5997 32.3357 42.709 32.3357 42.709C32.3357 42.709 32.2883 42.7842 32.3895 42.7736C32.488 42.7593 32.5767 42.7163 32.6 42.702C32.626 42.6874 32.6995 42.6194 32.6475 42.5585ZM31.222 22.8997C31.222 22.8997 31.9137 22.2519 32.4091 21.3954C32.7028 20.8846 32.831 19.6957 32.5784 19.9913C32.4645 20.1267 32.3266 20.7431 32.108 21.2C31.7961 21.8504 31.1304 22.7716 31.1304 22.7716C31.1304 22.7716 30.9873 23.078 31.222 22.8997ZM28.457 24.5457C28.457 24.5457 28.3835 24.603 28.4167 24.6945C28.4517 24.7876 28.5924 24.7178 28.5924 24.7178C28.5924 24.7178 28.9122 24.5968 29.2474 24.5843C29.5833 24.5699 30.0492 24.6702 30.0492 24.6702C30.0492 24.6702 30.2714 24.7312 30.3082 24.7455C30.3449 24.7607 30.4659 24.819 30.4865 24.8261C30.5044 24.8341 30.62 24.8906 30.6845 24.8324C30.7491 24.7732 30.2805 24.3477 29.8021 24.2832C29.0054 24.1747 28.4823 24.5179 28.4823 24.5179L28.457 24.5457ZM25.1759 27.351C25.2323 27.3994 25.4985 26.8923 25.7206 26.5715C25.8837 26.3368 26.1813 25.9443 26.1813 25.9443C26.1813 25.9443 26.3156 25.7642 26.0881 25.8647C25.9958 25.9059 25.7432 26.0984 25.5649 26.4524C25.4142 26.7534 25.1167 27.3035 25.1759 27.351ZM23.3356 25.1477C23.3356 25.1477 23.2782 25.344 23.5076 25.5894C23.7387 25.8359 23.7979 26.0391 23.9449 25.8923C23.9852 25.852 23.8015 25.5204 23.7083 25.4282C23.6125 25.3367 23.5443 25.2615 23.5443 25.2615L23.4843 25.2122L23.4072 25.1692L23.3633 25.1514C23.3633 25.1514 23.3517 25.1406 23.3356 25.1477ZM22.59 23.2661C22.59 23.2661 22.3409 23.3127 22.28 23.4336C22.2182 23.5547 22.5667 23.4812 22.5667 23.4812C22.5667 23.4812 22.7978 23.4936 22.8033 23.4059C22.8086 23.3163 22.7738 23.3074 22.59 23.2661ZM18.6325 29.8247C18.5053 29.788 18.4838 30.0381 18.4667 30.1186C18.4524 30.1992 18.5241 30.3606 18.5536 30.3606C18.5823 30.3587 18.6835 30.2011 18.6888 30.1241C18.6943 30.0452 18.7445 29.8598 18.6325 29.8247ZM22.7425 34.7097C22.7425 34.7097 22.5149 34.5295 22.4799 34.6012C22.4459 34.6729 22.6672 34.9891 22.6672 34.9891C22.6672 34.9891 22.7352 35.0932 22.8401 35.0464C22.9431 34.9964 22.9064 34.8816 22.9064 34.8816C22.9064 34.8816 22.8365 34.7347 22.7425 34.7097ZM21.0267 29.4269C21.0267 29.4269 20.9684 29.4118 20.9478 29.4816C20.9263 29.5515 20.9281 29.6653 20.9129 29.8032C20.9004 29.9108 20.9407 30.1975 20.9407 30.1975C20.9407 30.1975 20.9631 30.4251 21.0087 30.5604C21.058 30.7091 21.1888 30.9206 21.1888 30.9206C21.1888 30.9206 21.2381 31.0291 21.299 31.0237C21.359 31.0174 21.3447 30.9466 21.3447 30.9466C21.3447 30.9466 21.1539 30.1905 21.1485 30.1134C21.126 29.8617 21.126 29.5552 21.126 29.5552L21.1243 29.5094C21.1243 29.5094 21.1224 29.4287 21.0267 29.4269ZM21.324 27.1199C21.324 27.1199 21.2192 27.1002 21.1225 27.3017C21.0249 27.506 21.0455 27.5885 21.0544 27.5975C21.0616 27.6064 21.1386 27.6047 21.2623 27.4156C21.3851 27.2283 21.3572 27.1566 21.3572 27.1566C21.3572 27.1566 21.35 27.1199 21.324 27.1199ZM24.2074 29.2102C24.2074 29.2102 24.3336 29.3991 24.0918 29.3553C23.8491 29.3114 23.3392 28.9091 23.1313 28.8007C22.926 28.6923 22.5882 28.6582 22.7299 28.5311C22.7559 28.5095 22.763 28.4888 22.8033 28.4872C22.8454 28.4853 22.9852 28.5399 22.9941 28.5462C23.0013 28.5497 23.3605 28.6985 23.3739 28.7021C23.3865 28.7074 23.5881 28.7935 23.7314 28.8776C23.8748 28.9626 24.1077 29.1257 24.1077 29.1257L24.2074 29.2102ZM30.9281 34.9965C30.9944 35.2043 30.1629 34.5573 29.7176 34.2142C28.5376 33.3056 27.0932 31.4429 27.2733 31.2781C27.4221 31.1427 28.0143 31.9958 28.8825 32.9355C29.8108 33.9373 30.8895 34.8728 30.9281 34.9965ZM34.3991 34.1057C34.1411 34.3807 34.0497 34.733 34.1984 34.9964C34.3435 35.2525 34.3883 34.6217 34.5497 34.4363C34.6895 34.274 34.7754 34.3001 35.0048 34.1371C35.3955 33.862 34.7253 33.7555 34.3991 34.1057ZM32.9225 28.2263C32.7451 28.1977 32.7505 28.4674 32.7755 28.6583C32.8939 29.5129 33.2774 30.1715 33.7897 30.7915C34.1017 31.1696 34.9564 31.8434 35.0549 31.7351C35.0909 31.6965 34.2413 31.0398 33.7002 30.1958C33.3167 29.5974 33.1124 29.0911 33.0641 28.5973C33.0588 28.5346 33.073 28.2506 32.9225 28.2263ZM29.6128 15.558C29.2274 15.7667 28.5591 15.9505 28.5591 15.9505C28.5591 15.9505 28.5285 16.0168 28.6146 16.0097C29.1873 15.9639 29.4058 15.8923 29.7105 15.7579C30.0151 15.6262 30.2364 15.2606 30.2364 15.2606C30.2364 15.2606 30.3601 15.033 30.1308 15.2203C30.059 15.2776 29.8242 15.4424 29.6128 15.558ZM34.2611 14.0896C34.2611 14.0896 34.1303 14.0608 34.0425 14.1156C33.9547 14.1711 33.9797 14.215 33.9797 14.215C33.9797 14.215 34.116 14.3189 34.2127 14.3361C34.3095 14.3504 34.5173 14.4409 34.5103 14.371C34.5012 14.2994 34.3849 14.1712 34.3435 14.1363C34.306 14.0994 34.2611 14.0896 34.2611 14.0896ZM32.0732 18.1036C32.0955 18.1493 32.4862 18.0427 32.6368 17.9583C32.7542 17.8921 32.8007 17.6698 32.8007 17.6698C32.8007 17.6698 32.8329 17.4548 32.7829 17.5381C32.5597 17.9029 32.0516 18.0569 32.0732 18.1036ZM32.0607 17.1009C32.2184 16.7981 31.6278 17.4154 31.3268 17.5749C31.1431 17.6717 30.8439 17.8006 30.8439 17.8006C30.8439 17.8006 30.765 17.8992 30.8752 17.8902C30.9854 17.883 31.2659 17.978 31.4935 17.8024C31.5473 17.7594 31.7838 17.4153 31.7838 17.4153C31.7838 17.4153 31.9853 17.2442 32.0607 17.1009ZM31.9692 18.3893C31.9817 18.4386 32.6438 18.4224 32.8097 18.3723C32.9405 18.3365 33.0121 18.1053 33.0121 18.1053C33.0121 18.1053 33.091 17.9029 33.0228 17.9709C32.7228 18.2774 31.9577 18.3401 31.9692 18.3893ZM21.3348 24.4543C21.3348 24.4543 21.2345 24.4176 21.11 24.6048C20.9862 24.7911 20.429 25.6379 20.5275 25.7624C20.6448 25.9093 21.1278 25.0062 21.2749 24.8377C21.4235 24.6666 21.3626 24.4946 21.3626 24.4946C21.3626 24.4946 21.3609 24.456 21.3348 24.4543ZM33.4744 39.7201C33.4135 40.0014 33.4851 40.5767 33.5821 40.6895C33.8185 40.9744 33.6734 40.2433 33.7074 39.987C33.736 39.7488 33.7647 39.6663 33.883 39.4118C34.0945 38.9531 33.5982 39.1215 33.4744 39.7201ZM31.4405 15.2535C31.4405 15.2535 31.2569 15.2588 31.1135 15.3377C30.9684 15.4166 30.9325 15.5286 30.9325 15.5286C30.9325 15.5286 30.9029 15.6092 30.9227 15.6531C30.9648 15.749 31.1637 15.6039 31.3026 15.6513C31.4145 15.6916 31.4683 15.7248 31.5543 15.8278C31.6296 15.9174 31.7613 16.0464 31.8438 15.9729C31.9288 15.9013 31.8976 15.7176 31.8976 15.7176C31.8976 15.7176 31.7999 15.4183 31.6718 15.3341C31.5427 15.2481 31.4405 15.2535 31.4405 15.2535ZM28.3889 17.3581C28.3889 17.3581 28.2858 17.3742 28.31 17.4996C28.3342 17.6224 28.4015 17.6035 28.4015 17.6035C28.4015 17.6035 28.6147 17.5121 28.6022 17.3841C28.5869 17.255 28.3889 17.3581 28.3889 17.3581ZM26.8988 16.6897C26.8988 16.6897 26.7869 16.6943 26.708 16.833C26.6589 16.923 26.6178 17.0172 26.5853 17.1144C26.5853 17.1144 26.5486 17.2954 26.613 17.3527C26.6784 17.4091 26.7501 17.2355 26.8441 17.1673C26.9005 17.127 26.9355 17.1091 26.9938 17.0678C27.0735 17.0131 27.2034 17.083 27.1945 16.9218C27.1829 16.7595 27.0109 16.6825 26.8988 16.6897ZM31.7138 14.956C31.7138 14.956 31.4603 14.9193 31.4701 15.0169C31.4791 15.1082 31.6073 15.0536 31.6897 15.0904C31.7703 15.1271 31.8241 15.1414 31.8885 15.2006C31.936 15.2427 31.9306 15.3251 31.9889 15.3269C32.0695 15.3287 32.0534 15.2955 32.0534 15.2955C32.0534 15.2955 31.9799 15.0769 31.8842 15.0152C31.7891 14.9524 31.7138 14.956 31.7138 14.956ZM34.5425 15.9782C34.5066 16.1163 34.485 16.1637 34.485 16.1637C34.485 16.1637 34.4135 16.4442 34.6966 16.3411C34.9797 16.2371 34.8327 16.281 35.0369 16.1816C35.2377 16.0831 35.2341 16.1377 35.3811 16.1449C35.4312 16.1467 35.4635 16.1484 35.5389 16.1342C35.6033 16.1198 35.5764 16.0445 35.4331 16.006C35.2791 15.9657 35.0909 15.9746 34.8723 15.9728C34.7433 15.9711 34.5801 15.8403 34.5425 15.9782ZM34.6679 14.9417C34.6679 14.9417 34.5388 14.9121 34.4493 14.9676C34.3614 15.0223 34.3884 15.0662 34.3884 15.0662C34.3884 15.0662 34.5228 15.1729 34.6213 15.1872C34.7181 15.2042 34.9259 15.2938 34.9188 15.2222C34.908 15.1523 34.7934 15.0224 34.7521 14.9874C34.711 14.9524 34.6679 14.9417 34.6679 14.9417ZM35.1662 16.8887C35.1662 16.8887 35.0281 16.8608 34.9331 16.9137C34.84 16.9657 34.865 17.0078 34.865 17.0078C34.865 17.0078 35.012 17.1065 35.1159 17.1216C35.2199 17.136 35.4421 17.2202 35.4331 17.153C35.4242 17.0867 35.2987 16.9639 35.2574 16.9308C35.2162 16.8975 35.1662 16.8887 35.1662 16.8887ZM35.2092 17.5946C35.2092 17.5946 35.0621 17.5615 34.9618 17.6224C34.8615 17.6824 34.8918 17.7309 34.8918 17.7309C34.8918 17.7309 35.0443 17.8464 35.1554 17.8626C35.2647 17.8796 35.5012 17.9764 35.4904 17.8993C35.4815 17.8223 35.3489 17.6825 35.3023 17.6449C35.2593 17.6053 35.2092 17.5946 35.2092 17.5946ZM35.2754 18.2828C35.2754 18.2828 35.1159 18.2461 35.0083 18.3141C34.899 18.3821 34.933 18.4369 34.933 18.4369C34.933 18.4369 35.0978 18.5658 35.2162 18.5856C35.3363 18.6045 35.5924 18.7146 35.5818 18.6277C35.571 18.5417 35.4276 18.3821 35.3775 18.3401C35.3309 18.2952 35.2754 18.2828 35.2754 18.2828ZM35.261 19.1339C35.261 19.1339 35.1016 19.0999 34.9939 19.1671C34.8847 19.2334 34.9152 19.288 34.9152 19.288C34.9152 19.288 35.0835 19.417 35.2019 19.4368C35.3202 19.4556 35.5764 19.5658 35.5656 19.4797C35.5532 19.3928 35.4115 19.2334 35.3632 19.1912C35.313 19.1474 35.261 19.1339 35.261 19.1339ZM35.1446 20.7933C35.1446 20.7933 34.9832 20.7584 34.8757 20.8265C34.7682 20.8937 34.8005 20.9475 34.8005 20.9475C34.8005 20.9475 34.9653 21.0774 35.0836 21.0963C35.2037 21.1142 35.46 21.2262 35.4493 21.1383C35.4384 21.0524 35.2953 20.8937 35.245 20.8498C35.2162 20.8236 35.1819 20.8043 35.1446 20.7933ZM35.2522 19.9636C35.2522 19.9636 35.0693 19.9216 34.9402 20.0003C34.8165 20.0773 34.8543 20.1401 34.8543 20.1401C34.8543 20.1401 35.046 20.2906 35.1839 20.3121C35.3202 20.3345 35.6177 20.4609 35.6069 20.3623C35.5926 20.2611 35.4276 20.0774 35.3704 20.0281C35.3363 19.9981 35.2959 19.9761 35.2522 19.9636ZM35.0657 21.5442C35.0657 21.5442 34.933 21.5127 34.8436 21.5692C34.7539 21.6248 34.7826 21.6687 34.7826 21.6687C34.7826 21.6687 34.9188 21.7771 35.0156 21.7915C35.1142 21.8077 35.3238 21.898 35.3166 21.8264C35.3059 21.7547 35.1894 21.6248 35.1483 21.5898C35.1088 21.5531 35.0657 21.5442 35.0657 21.5442ZM34.9402 22.2626C34.9402 22.2626 34.8327 22.2393 34.7575 22.2851C34.686 22.3308 34.7073 22.3675 34.7073 22.3675C34.7073 22.3675 34.8202 22.4553 34.9009 22.4687C34.9814 22.4813 35.1589 22.5584 35.1517 22.4975C35.1444 22.4392 35.0442 22.3308 35.0119 22.3012C34.9911 22.2833 34.9667 22.2701 34.9402 22.2626ZM34.7863 22.9186C34.7863 22.9186 34.6895 22.8962 34.6213 22.9382C34.5568 22.9785 34.5747 23.0135 34.5747 23.0135C34.5747 23.0135 34.6769 23.0923 34.7504 23.1032C34.8239 23.1166 34.9815 23.1838 34.9745 23.1309C34.969 23.078 34.8812 22.9785 34.8507 22.9526C34.8202 22.9258 34.7863 22.9186 34.7863 22.9186ZM34.632 23.4561C34.632 23.4561 34.5317 23.4336 34.4673 23.4739C34.3991 23.5161 34.4189 23.5492 34.4189 23.5492C34.4189 23.5492 34.521 23.6298 34.5945 23.6406C34.668 23.6523 34.8256 23.7212 34.8185 23.6667C34.8132 23.6138 34.7253 23.5162 34.6931 23.4901C34.6643 23.4633 34.632 23.4561 34.632 23.4561ZM34.444 24.0798C34.444 24.0798 34.3652 24.0609 34.3096 24.0941C34.2558 24.1291 34.2737 24.155 34.2737 24.155C34.2737 24.155 34.3561 24.2197 34.4153 24.2304C34.4744 24.2392 34.6034 24.2949 34.5964 24.25C34.5909 24.2079 34.5193 24.1291 34.496 24.1067C34.4708 24.0851 34.444 24.0798 34.444 24.0798ZM34.22 24.663C34.22 24.663 34.1519 24.6468 34.1053 24.6755C34.0588 24.7051 34.0731 24.7292 34.0731 24.7292C34.0731 24.7292 34.1448 24.7838 34.195 24.791C34.2452 24.8009 34.3562 24.8485 34.3508 24.8099C34.3473 24.7732 34.2846 24.7051 34.2649 24.6871C34.2516 24.6762 34.2364 24.6681 34.22 24.663ZM33.9888 25.2177C33.9888 25.2177 33.9188 25.2024 33.8723 25.232C33.8274 25.2598 33.8436 25.2831 33.8436 25.2831C33.8436 25.2831 33.9117 25.3386 33.9637 25.3476C34.0156 25.3548 34.1249 25.4022 34.1195 25.3665C34.116 25.327 34.0532 25.2598 34.0335 25.241C34.0121 25.2229 33.9888 25.2177 33.9888 25.2177ZM18.9882 28.0392C18.9882 28.0392 18.8727 28.263 18.93 28.3859C18.9865 28.5096 19.1423 28.1897 19.1423 28.1897C19.1423 28.1897 19.3035 27.8706 19.2382 27.8125C19.1719 27.7533 19.1335 27.9181 18.9882 28.0392Z" fill="white"/>
<path d="M35.3063 56.8088V56.3735C35.3063 55.3842 35.8064 55.1907 37.2668 55.1836C38.6108 55.1907 39.0856 55.3591 39.0856 56.2121V59.504H39.5819V60.2458H36.2991C35.6074 60.2458 35.1559 59.7709 35.1559 59.1868V58.52C35.1559 57.9448 35.4497 57.4431 36.4783 57.4377H37.7614V56.4359C37.7614 55.9127 37.7255 55.85 37.2007 55.85H37.1952C36.5663 55.85 36.5251 55.9325 36.5251 56.4359V56.8087H35.3063M36.8297 57.9898C36.5716 57.9898 36.4193 58.1976 36.4193 58.4556V59.0917C36.4193 59.3481 36.5287 59.5523 36.8297 59.5559H37.292C37.5465 59.5559 37.7544 59.4771 37.7544 59.0917L37.7579 57.9898H36.8297ZM32.184 56.4236V55.2731H30.3526V55.9576H30.8409V59.5021H30.3526V60.2458H32.6464V59.5021H32.184V57.6027C32.184 57.4254 33.2636 56.0618 33.2636 56.2192V58.1062H34.5325V55.9828C34.5325 55.4972 34.2152 55.1837 33.6364 55.1837C32.9482 55.1836 32.4832 56.0491 32.184 56.4236ZM46.7822 59.4986V55.2731H44.9131V55.9576H45.4365V59.4986H44.9131V60.2458H47.2732V59.4986H46.7822ZM27.472 56.4236V55.2731H25.6406V55.9576H26.1289V59.5021H25.6406V60.2458H27.9326V59.5021H27.472V57.6027C27.472 57.4254 28.5507 56.0618 28.5507 56.2192V58.1062H29.8185V55.9828C29.8185 55.4972 29.5031 55.1837 28.9235 55.1837C28.237 55.1836 27.7712 56.0491 27.472 56.4236Z" fill="black"/>
<path fill-rule="evenodd" clip-rule="evenodd" d="M24.936 58.6179H23.6511V58.9907C23.6511 59.4961 23.5669 59.5175 22.9406 59.5246H22.9316C22.2139 59.5283 22.2543 59.4566 22.2623 58.9907V58.1072H24.9358V56.188C24.9358 55.4926 24.4109 55.2006 23.0256 55.1953H22.8268C21.3314 55.2024 20.9336 55.5429 20.9336 56.4031V59.2128C20.9336 60.1589 21.4926 60.3185 22.8545 60.3561H23.0032C24.4897 60.322 24.9358 60.2198 24.9358 59.3364V58.6179M22.2768 56.2596C22.2768 55.9981 22.3556 55.8689 22.6549 55.8653H23.2184C23.4514 55.8653 23.5813 55.9693 23.5813 56.1556V57.5946H22.2766V56.2596H22.2768Z" fill="black"/>
<path d="M46.0977 54.2503V53.3516" stroke="black" stroke-width="0.0850821" stroke-miterlimit="10"/>
<path d="M41.9074 56.4234V55.2729H40.0742V55.9575H40.5617V59.502H40.0742V60.2457H42.3679V59.502H41.9074V57.6026C41.9074 57.4253 42.9844 56.0616 42.9844 56.2191V58.106H44.2549V55.9827C44.2549 55.497 43.9358 55.1836 43.3551 55.1836C42.6707 55.1835 42.2047 56.0489 41.9074 56.4234Z" fill="black"/>
<path d="M19.3311 57.8237V57.1607H18.617V59.4992H19.8543V60.2411H16.2266V59.4992H17.1915V54.247H16.4336V53.3438H44.69V54.247H18.617V56.356H19.3311V55.7325H20.1527V57.8237H19.3311Z" fill="black"/>
<path fill-rule="evenodd" clip-rule="evenodd" d="M45.4141 53.3164H46.7615V54.2053H45.4141V53.3164Z" fill="black"/>
</svg>
