<svg width="64" height="64" viewBox="0 0 64 64" fill="none" xmlns="http://www.w3.org/2000/svg">
<g clip-path="url(#clip0_10704_16565)">
<path d="M64 31.8335C64 49.5073 49.6727 63.834 32 63.834C14.3267 63.834 0 49.5073 0 31.8335C0 14.1611 14.3269 -0.166016 32 -0.166016C49.6727 -0.166016 64 14.1613 64 31.8335Z" fill="#231F20"/>
<path d="M62.8759 31.8339C62.8759 48.8878 49.0519 62.7116 31.9986 62.7116C14.9455 62.7116 1.12109 48.8878 1.12109 31.8339C1.12109 14.7812 14.9455 0.957031 31.9986 0.957031C49.0519 0.957031 62.8759 14.7812 62.8759 31.8339Z" fill="#BDBCBC"/>
<path d="M7.16564 16.283C7.16564 16.3084 3.7398 16.8293 3.74305 16.8458C3.75976 16.9308 3.56559 34.469 6.69421 33.5862C8.75414 32.6171 7.64575 21.1895 7.64575 22.7264C7.64575 24.869 7.8538 28.3829 8.67561 33.9015C9.60198 40.1183 9.21147 40.8929 9.64363 42.2314C8.63872 41.2556 7.07539 40.8165 7.07539 40.8165L9.29218 48.3093L10.9247 48.2926C10.9247 48.2926 10.9481 47.7892 10.9696 47.7654C11.0137 47.7649 12.582 47.8817 13.6598 49.8539C19.8958 61.267 36.3136 56.8783 32.0159 57.1256L38.7812 56.3112C18.9677 59.701 15.2509 50.5655 14.2545 48.7419C13.6303 47.8272 11.8359 46.8687 10.708 47.4143C10.708 47.4143 13.4615 47.5243 13.3391 46.7941C14.1996 47.63 11.1994 45.4416 11.1994 45.4416L11.3504 45.9161C11.8157 45.9632 11.6062 45.4609 12.0965 45.3787L11.4879 45.1004C11.41 45.0047 11.8261 44.5081 10.3407 34.5393C9.52453 29.0622 9.68898 24.798 9.68898 22.6761C9.68898 20.6203 9.55468 20.4747 9.55859 20.4597L8.35127 19.6713L8.11957 19.6242C7.78677 19.5568 7.457 19.4503 7.31403 19.3708C7.38823 19.2606 7.43119 19.1135 7.43119 18.8706C7.43119 18.6358 7.4058 18.3297 7.37326 17.9342C7.32987 17.4055 7.35157 15.5109 7.27845 16.1435C3.43108 49.532 8.75674 12.4066 8.10243 13.1199L8.47666 12.696C10.2886 10.6041 16.6194 5.71889 32.9537 5.33706C50.2277 4.93223 50.306 11.2415 50.365 11.3337L54.8396 13.5503C54.7806 13.4555 48.9687 3.8093 31.4264 4.21977C14.8958 4.60681 9.9888 10.2696 8.14148 12.4016L7.77614 12.8164C7.01681 13.6447 6.14533 13.6521 6.14533 14.8724C6.14533 15.5241 5.41464 16.3921 5.45912 16.9313C7.59173 20.6773 6.85562 18.8257 7.16564 16.2828V16.283ZM54.4026 14.6767C54.0258 14.8386 54.0826 15.4499 54.1612 16.2954C54.2191 16.9258 54.2857 17.6405 54.1612 18.139L54.5927 18.2475C54.7354 17.6752 54.6645 16.9202 54.6035 16.2537C54.5647 15.8305 54.5046 15.1896 54.5948 15.0759C54.6057 15.0907 54.73 19.8475 55.7102 20.9813C57.2692 22.7861 56.4918 21.7475 56.4918 24.8924C56.4918 26.4425 57.6512 28.2491 57.605 28.8819C57.0275 28.1506 56.8633 26.2692 56.7162 24.5818C56.5443 22.6171 56.3973 20.9207 55.6985 20.3571C56.5598 19.6017 53.5669 15.645 53.7713 18.3243C53.9121 19.2615 53.4535 16.2199 52.7879 15.1846C50.7492 12.0117 46.5259 8.30449 31.8492 7.79487C18.3954 7.32778 11.7272 12.8498 10.0133 14.5346L10.2361 14.1506L8.04993 13.0236L7.4314 19.5689L8.3671 18.0921C8.3671 18.0921 9.87751 15.3532 9.90527 15.2892C10.1409 15.0108 16.5161 7.71026 31.8336 8.24179C48.1612 8.80846 51.1421 13.4464 52.4156 15.4271C53.0285 16.3822 53.1894 17.4493 53.3322 18.3907C53.519 19.6308 53.6973 20.8018 55.0897 20.6146C55.2175 20.5979 55.3227 20.6265 55.4203 20.7057C55.9723 21.1503 56.1248 22.9143 56.2738 24.6202C56.4693 26.8771 56.6561 29.0084 57.6931 29.5308L57.9819 29.6764L58.0131 29.3522C58.0517 28.9379 58.946 19.1821 56.1838 15.9838C55.0962 14.7242 54.6957 14.5502 54.4026 14.6765V14.6767ZM60.3084 22.7633C60.0285 21.4662 59.6088 20.2032 59.0566 18.9966C59.3701 19.7197 59.8715 21.0086 60.3084 22.7633ZM59.0566 18.9966C58.9941 18.8503 58.929 18.705 58.8614 18.561C58.933 18.7068 58.9911 18.851 59.0566 18.9966ZM57.6653 15.7667C61.3155 19.2862 60.6605 28.3686 60.6605 28.3686L58.8848 26.3056V35.1057L57.6556 37.5803C55.4698 49.268 50.2802 59.5806 29.9288 59.0305C9.57811 58.4805 6.43712 47.6183 4.52472 37.3056C2.61253 26.9934 5.34414 15.7185 5.34414 15.7185C-0.665791 33.593 6.43712 47.0681 6.43712 47.0681C6.43712 47.0681 9.85104 59.7178 30.8853 59.5806C51.9186 59.4435 55.1971 47.7558 55.1971 47.7558L55.5794 50.7057C55.5794 50.7057 60.4651 46.2365 61.967 36.8862C62.7283 32.1524 59.7867 17.8121 57.6653 15.7667ZM58.8612 18.561C58.7904 18.4124 58.7475 18.3306 58.7475 18.3306C58.7872 18.4078 58.8236 18.4846 58.8612 18.561Z" fill="#231F20"/>
<path d="M60.2221 27.0319C60.2465 27.0677 60.2221 27.0319 60.2221 27.0319V27.0319ZM7.95615 12.3684C7.95615 12.3684 10.7373 9.80355 12.7231 7.91396C12.7231 7.91396 10.0748 9.39849 7.95615 12.3684ZM7.21603 46.407C8.79074 49.5836 10.3402 51.6507 10.3402 51.6507C10.3402 51.6507 8.86364 49.4234 7.21603 46.407ZM58.8007 15.878L58.2832 14.3701L62.9049 16.0131L58.4335 13.7213L62.9747 11.0265L57.9837 13.0726L58.7824 8.08208L57.1624 12.9027L55.9879 12.571C53.5251 8.90948 50.1412 7.07689 45.8834 5.03453C37.9693 1.23719 27.4206 2.24409 27.4206 2.24409C27.4206 2.24409 39.874 2.40266 49.3998 8.04902C51.3673 9.21524 53.0077 10.8323 54.369 12.6599L52.3131 12.7732L54.6696 13.0738C54.8918 13.387 55.1065 13.7053 55.3126 14.0283L52.5772 15.6085L55.5284 14.3697C55.8317 14.8609 56.1199 15.3613 56.3927 15.8701L55.2257 19.5233L56.6052 16.2718C58.6493 20.2256 59.7261 24.4256 60.2221 27.0319C59.6499 21.5765 58.6514 17.6877 57.2408 14.7705L57.3438 14.5286C57.3438 14.5286 62.5077 21.2778 61.5812 32.3474C60.6547 43.4169 58.0062 47.3317 55.3577 50.0315L55.2257 48.6812C55.2257 48.6812 51.3866 60.1563 32.3196 59.8857C13.2527 59.6153 11.7963 53.4066 11.7963 53.4066L10.737 52.8656C10.737 52.8656 6.23554 49.3568 3.45477 40.0419C0.67389 30.7274 3.32218 23.1679 3.32218 23.1679C3.32218 23.1679 1.86577 29.3775 2.92506 35.722C3.47398 39.0098 5.44377 43.1644 7.21603 46.407C5.91518 43.7843 4.59619 40.405 4.11694 36.8019C3.05711 28.8373 3.32218 23.4375 4.64611 19.3882C5.97004 15.3388 6.7648 13.5833 6.7648 13.5833C6.7648 13.5833 1.20402 20.0634 1.07143 33.8324C0.938954 47.6017 12.5906 57.0509 17.7542 59.0759C22.9182 61.1007 39.2043 63.8001 49.0023 56.9162C58.8007 50.0315 58.1383 48.277 61.3161 41.9315C64.4949 35.5869 63.1701 22.7628 58.8007 15.878ZM56.4818 13.3531C56.471 13.3355 56.4614 13.3179 56.4506 13.301L56.5494 13.3137L56.4818 13.3531ZM56.9369 14.1658C56.8811 14.0602 56.8253 13.9524 56.7684 13.8492L57.0797 13.7183L56.9369 14.1658ZM10.3402 13.5833C11.1341 12.2334 15.2388 9.80355 15.2388 9.80355C15.2388 9.80355 12.9877 11.1539 10.4724 14.1235C7.95615 17.093 11.3992 13.8534 16.0336 10.7484C20.6676 7.64384 27.1555 7.91396 27.1555 7.91396C27.1555 7.91396 25.0373 6.29394 16.9603 8.85913L24.7723 5.48414C24.7723 5.48414 12.856 8.04902 9.4131 12.9085C5.97004 17.7682 9.54515 14.9333 10.3402 13.5833ZM50.1971 13.1564C51.6582 14.6737 52.7103 16.0131 52.7103 16.0131C52.7103 16.0131 52.2798 14.6485 50.1971 13.1564ZM4.91117 33.0226C6.36758 47.3317 12.4585 53.4066 12.4585 53.4066C12.4585 53.4066 17.0925 57.9961 31.5248 58.6709C45.9569 59.3456 50.5921 53.6763 50.9894 52.7314C51.3866 51.7866 49.1349 53.2711 48.4731 53.001C47.8109 52.7314 50.5921 47.7363 50.5921 47.7363C49.1353 53.1361 51.3866 46.9265 52.8424 47.6017C54.2992 48.2761 49.9295 50.0315 51.3866 51.3815C52.8423 52.7314 55.887 43.1468 57.8742 38.827C59.8603 34.5075 59.1979 30.0526 59.0658 27.2177C58.9338 24.3828 58.2714 23.1679 58.2714 23.1679L57.8742 29.918C57.8742 29.918 58.1394 30.8624 56.0201 26.1374L54.2992 21.5479C53.1075 42.6071 48.3401 50.5721 48.3401 50.5721C48.3401 50.5721 46.6191 55.836 32.7163 55.9714C18.8139 56.1056 16.8274 52.4609 16.8274 52.4609C12.3259 46.5215 9.67762 33.8324 10.3402 25.4631C11.002 17.0934 10.3402 14.7982 16.2981 12.2334C22.2565 9.66893 31.2599 9.39849 31.2599 9.39849C42.0744 9.09446 47.5111 11.2315 50.1971 13.1564C49.8508 12.7961 49.4967 12.4434 49.1349 12.0987C47.1488 10.2091 28.7441 6.29394 19.0786 10.0737C9.4131 13.8534 8.75092 17.4981 9.4131 28.5677C10.0753 39.6372 13.5178 48.8162 15.901 52.3263C18.2842 55.836 26.7584 56.9162 26.7584 56.9162C15.2388 56.6458 13.9149 50.5721 13.2527 49.491C12.5905 48.4112 10.6044 46.2509 10.2073 48.0064C9.81021 49.7611 6.25024 39.0304 6.91242 38.4902C7.57417 37.9501 11.6637 43.957 11.6637 43.957C11.6637 43.957 10.2073 40.9867 8.75091 32.6174C7.2944 24.2482 9.54515 20.0634 8.08874 19.7933C6.63222 19.5233 9.89996 32.1431 5.72848 32.7043C4.54004 32.8644 5.52633 21.5429 6.05646 19.2481C6.58574 16.9529 7.16235 16.2832 7.16235 16.2832C7.16235 16.2832 3.45476 18.7135 4.91117 33.0226Z" fill="url(#paint0_linear_10704_16565)"/>
<path d="M33.9669 55.0825C33.9897 55.0815 37.2851 54.9198 40.1599 54.272C42.6576 53.7095 44.8681 52.6349 44.8901 52.6243L44.8983 52.6199L44.9074 52.616C44.9196 52.6108 46.1512 52.0791 46.9088 51.3553C47.6768 50.6208 48.0261 49.6601 48.0295 49.6506C48.0447 49.6087 49.3896 46.0251 50.4066 42.1971C51.3426 38.6742 51.9845 34.78 51.991 34.7412C52.001 34.6897 52.7764 30.7549 52.994 26.5691C53.1771 23.0513 52.8135 19.0573 52.8096 19.0171C52.8074 18.9872 52.62 16.622 51.6708 15.0752C50.8178 13.6858 49.1707 13.0033 49.1542 12.9963L49.1399 12.9907L49.1258 12.9831C49.1067 12.9736 47.1943 12.0155 43.5669 11.2265C40.6739 10.5971 36.6523 10.1478 33.3225 10.0827C29.5157 10.0081 25.4288 10.2734 22.3916 10.7926C18.7485 11.4152 16.3821 12.3403 16.3582 12.3496L16.3387 12.357L16.3181 12.3626C16.2942 12.3691 13.9338 13.0161 12.6928 14.5918C11.4324 16.1922 11.228 18.8214 11.2263 18.8479L11.2247 18.8637C11.2211 18.8904 10.957 21.158 10.957 23.9371C10.957 24.4352 10.9653 24.95 10.9857 25.4714C11.1278 29.1727 11.7749 33.2755 11.7814 33.3165C11.7888 33.3568 12.6655 38.1733 13.6654 42.2324C14.4061 45.2415 15.3706 47.9035 15.3804 47.9297L15.3869 47.9488L15.3919 47.9683C15.3954 47.9818 15.7243 49.3325 16.2588 50.2752C16.7244 51.0952 17.4098 51.5775 17.4169 51.5816L17.428 51.5894L17.4393 51.5985C17.4442 51.6022 17.9107 51.9789 18.6266 52.3713C19.451 52.8226 20.5555 53.3066 20.6026 53.3263C20.6805 53.3567 23.1157 54.2889 26.3261 54.7126C29.6787 55.1552 33.9239 55.0832 33.9667 55.0825H33.9669Z" fill="url(#paint1_radial_10704_16565)" stroke="#6D0115" stroke-width="0.380821"/>
<path d="M19.4131 52.5008C19.2678 52.4342 19.1886 52.3958 19.1886 52.3958C19.1803 52.3921 19.1389 52.3741 19.0719 52.3433L19.0476 52.199C18.4726 49.029 17.5951 43.2371 17.3081 36.1745C16.9531 27.8693 16.9668 17.6905 17.0004 12.7601V12.4034C17.0974 12.3709 17.1979 12.3379 17.3016 12.3047L17.3031 12.662C17.269 17.5503 17.2527 27.8064 17.6098 36.1622C17.9016 43.3479 18.8059 49.2123 19.3775 52.3279L19.4131 52.5008Z" fill="#6D0115"/>
<path d="M20.368 52.9072C20.2517 52.8601 20.1424 52.8148 20.0408 52.7723L20.0126 52.5499C19.5939 49.5645 18.853 43.4782 18.5009 35.6925C18.1269 27.4159 18.1944 17.0125 18.2529 12.283L18.2536 12.0173C18.3519 11.9891 18.4525 11.9609 18.5552 11.9325L18.5558 12.2256C18.4972 16.9225 18.4278 27.3738 18.8027 35.6795C19.1628 43.6413 19.93 49.8209 20.3415 52.7172L20.368 52.9072ZM27.4672 10.7355C27.5431 19.9038 27.7623 46.3512 27.8263 54.0126L27.8321 54.6597C27.7341 54.6493 27.6336 54.638 27.5321 54.6263L27.5245 54.0115C27.4607 46.3558 27.2418 19.9769 27.1657 10.7757L27.1581 10.5075C27.2596 10.4989 27.3613 10.4904 27.4629 10.4826L27.4672 10.7355ZM31.3977 10.6164L31.5409 54.2306L31.543 54.8424C31.4372 54.8437 31.3356 54.8446 31.2389 54.845V54.1508C31.2085 45.0487 31.1211 18.4049 31.0953 10.5173L31.0937 10.3121L31.3888 10.3086L31.3977 10.6164ZM32.9068 10.6564L32.6905 54.2313L32.6896 54.8214C32.5853 54.8242 32.4835 54.8266 32.3833 54.8287L32.3876 54.3497C32.4256 46.6098 32.5601 19.5055 32.6046 10.5969L32.5974 10.3092C32.7026 10.3103 32.8074 10.3114 32.912 10.3131L32.9068 10.6564ZM36.9863 54.0746C37.2032 50.4889 37.6122 42.8872 37.7803 34.2856C37.9517 25.5191 37.8754 15.5425 37.8224 10.857L37.8053 10.5555C37.9276 10.5663 38.0489 10.5772 38.1698 10.5885L38.1865 10.9746C38.2387 15.7119 38.3127 25.5966 38.1431 34.2923C37.976 42.8223 37.5725 50.3704 37.3545 53.9985L37.323 54.5168C37.1959 54.5319 37.0861 54.5465 36.957 54.5602L36.9863 54.0746ZM47.2962 50.5206C47.1532 50.7145 46.9942 50.8961 46.821 51.0636L46.966 50.2943C47.5968 47.0262 48.4126 41.9708 48.8198 36.0346C49.3036 28.9777 49.3656 19.3285 49.3552 13.8455L49.3617 13.3203C49.4795 13.3854 49.5986 13.4544 49.7177 13.5286L49.7184 14.2286C49.7253 19.7747 49.655 29.1539 49.1817 36.0592C48.7823 41.8866 47.9895 46.8697 47.3619 50.1543L47.2962 50.5206ZM50.7836 38.6823C51.0448 36.6167 51.2861 34.2984 51.4522 31.8497C51.8172 26.4678 51.8265 20.3709 51.7801 16.4906L51.7718 15.843C51.9189 16.1749 52.0439 16.5163 52.1458 16.8648L52.153 17.4666C52.1855 21.3517 52.1506 26.915 51.8143 31.8738C51.7453 32.8921 51.6623 33.9094 51.5655 34.9254L51.4548 36.016C51.1866 37.363 50.9024 38.7067 50.6022 40.0469L50.7836 38.6823Z" fill="#6D0115"/>
<path d="M46.0081 51.7014C45.8931 51.7795 45.7558 51.8685 45.6007 51.962L45.7109 51.343C46.3162 48.0139 47.2573 41.9717 47.6272 34.9503C48.0331 27.2371 48.0346 18.0687 48.0004 13.3747L47.9865 12.7102C48.09 12.7467 48.2119 12.7916 48.3473 12.8456L48.364 13.4648C48.3974 18.1899 48.3935 27.2979 47.9893 34.9688C47.6298 41.797 46.7305 47.703 46.1233 51.0998L46.0081 51.7014ZM41.5546 53.2279C41.8405 50.1259 42.3649 43.7049 42.6168 35.9585C42.8997 27.2623 42.9007 16.957 42.8799 11.9791L42.8686 11.271C42.9951 11.297 43.1196 11.3231 43.2418 11.3495L43.2431 12.0349C43.2635 17.0373 43.2613 27.3018 42.9793 35.9702C42.7291 43.6654 42.2102 50.0556 41.9227 53.1895L41.8859 53.5702C41.7657 53.6056 41.6457 53.642 41.5127 53.6791L41.5546 53.2279ZM40.3021 53.5208C40.6161 50.8866 41.1309 45.7807 41.3428 39.1398C41.6522 29.4776 41.614 17.2924 41.5737 11.6539L41.5667 11.0265C41.6869 11.0471 41.8054 11.0677 41.9227 11.0892L41.9364 11.7448C41.9765 17.4263 42.0132 29.5366 41.7049 39.152C41.4958 45.6904 40.9944 50.7453 40.6779 53.4266L40.6193 53.9119C40.4987 53.9414 40.3698 53.974 40.2429 54.003L40.3021 53.5208ZM39.2857 53.7342C39.5313 50.9493 39.955 45.4327 40.1544 38.7213C40.4323 29.342 40.3605 17.4651 40.2939 11.2729L40.2867 10.8304C40.4088 10.8468 40.5308 10.8639 40.6527 10.8818L40.6592 11.4738C40.7252 17.7233 40.7924 29.4496 40.5171 38.732C40.3212 45.3396 39.9075 50.7911 39.6602 53.6247L39.6148 54.1388C39.4901 54.1647 39.3723 54.1887 39.2434 54.2135L39.2857 53.7342ZM38.107 53.9711C38.3151 50.7178 38.7089 43.9205 38.8807 36.6295C39.1093 26.9375 39.1204 16.1261 39.1104 11.0651L39.1 10.6841C39.223 10.698 39.3452 10.7117 39.466 10.7258L39.4736 11.1554C39.4831 16.2556 39.471 26.9998 39.2436 36.6378C39.0733 43.8418 38.6876 50.5644 38.4774 53.8681L38.4457 54.3556C38.3162 54.3773 38.2118 54.3955 38.0786 54.4157L38.107 53.9711ZM36.86 10.8957C36.8444 16.0751 36.7925 27.8255 36.6244 37.8483C36.5319 43.2325 36.3768 48.6155 36.159 53.9961L36.1311 54.6378C36.0289 54.6465 35.9258 54.6552 35.8234 54.6634L35.8529 54.0931C36.0726 48.6785 36.2292 43.2616 36.3226 37.8434C36.4918 27.7713 36.5435 15.9538 36.5585 10.8165L36.5606 10.4609C36.6626 10.4681 36.7641 10.4748 36.8652 10.4822L36.86 10.8957ZM35.367 10.6572C35.4091 15.2284 35.4715 24.1738 35.4158 32.6038C35.355 41.7291 35.1576 50.4418 35.0639 54.1933L35.0526 54.7183C34.9498 54.7248 34.8474 54.7309 34.7452 54.737L34.7591 54.2916C34.8521 50.6013 35.0526 41.8118 35.1136 32.6012C35.1693 24.2209 35.1079 15.3295 35.0658 10.7364L35.0624 10.3767C35.1633 10.3813 35.2637 10.3858 35.3641 10.3908L35.367 10.6572ZM34.1813 10.6373C34.2434 15.8799 34.3295 25.2631 34.2876 34.1125C34.2486 42.3457 34.0722 50.2312 33.9661 54.351L33.957 54.7773L33.6526 54.7903L33.6652 54.2914C33.7715 50.1583 33.9459 42.3071 33.9854 34.1112C34.0271 25.3059 33.942 15.9725 33.88 10.7167L33.8731 10.334L34.1774 10.3427L34.1813 10.6373ZM23.5048 53.9455C23.3996 53.9195 23.2953 53.8926 23.1916 53.8646L23.1736 53.6685C22.9197 50.9312 22.4095 44.7753 22.1986 37.5492C21.9289 28.3312 22.0185 16.8104 22.0847 11.3851L22.0823 11.1475C22.1832 11.1302 22.2843 11.1128 22.3869 11.0959L22.3875 11.3365C22.3216 16.7366 22.2305 28.298 22.5006 37.5409C22.7145 44.8601 23.2356 51.0794 23.4851 53.7535L23.5048 53.9455ZM21.4573 53.3233C21.3484 53.2843 21.2418 53.2459 21.1381 53.2077L21.1134 52.9812C20.6513 49.1282 19.7581 40.8047 19.475 31.9744C19.2353 24.5036 19.4425 16.1654 19.582 11.9717L19.5874 11.6643C19.6876 11.64 19.7891 11.6155 19.892 11.5916L19.8881 11.8563C19.7488 16.0033 19.5351 24.4263 19.7768 31.9653C20.064 40.9199 20.9795 49.3529 21.4343 53.1192L21.4573 53.3233ZM12.8583 37.9657C12.4895 36.1694 12.2738 34.8573 12.2699 34.8343L12.2181 34.0474C12.0054 31.3594 11.8141 28.3481 11.7696 25.7805C11.7169 22.7446 11.7392 19.709 11.7742 17.4386L11.7616 17.1492C11.8525 16.7905 11.9649 16.4376 12.0983 16.0925L12.0723 17.7066C12.0397 19.9433 12.0211 22.8591 12.0723 25.776C12.1285 29.0244 12.4202 32.9859 12.6932 36.0989L12.8583 37.9657ZM15.4847 47.552C15.2753 46.9381 15.0356 46.2141 14.7869 45.4231L14.6028 44.3609C14.132 41.5773 13.7141 38.6205 13.5959 36.3494C12.98 28.7996 12.9487 20.0848 12.9876 15.4457L12.9952 14.5923C13.0908 14.4875 13.19 14.3888 13.2909 14.2957L13.2926 15.103C13.2494 19.6383 13.2666 28.5959 13.8972 36.3295C14.035 38.9776 14.5819 42.5618 15.144 45.7132L15.4847 47.552ZM16.9695 49.1403C16.3485 46.08 15.5829 41.5662 15.1866 36.4054C14.5715 28.3967 14.5928 18.9729 14.6533 14.3107L14.6605 13.3476C14.5724 13.393 14.4672 13.4498 14.3504 13.5181L14.3509 14.3209C14.2906 18.9937 14.2702 28.4169 14.8852 36.428C15.2801 41.5688 16.0407 46.0701 16.6612 49.1397L17.0473 50.961C17.1658 51.0949 17.2937 51.22 17.4303 51.3354L16.9695 49.1403ZM22.4357 53.4815C22.1548 50.9571 21.6584 45.8444 21.4529 39.674C21.1145 29.5221 21.0904 16.8509 21.0971 11.5877L21.0943 11.3311C20.9913 11.3517 20.8893 11.3723 20.7888 11.3931L20.7949 11.6166C20.7882 16.8997 20.8129 29.5466 21.1507 39.684C21.352 45.7173 21.8306 50.7419 22.1153 53.3311L22.1389 53.5539C22.2422 53.5876 22.3472 53.6205 22.4535 53.6527L22.4357 53.4815Z" fill="#6D0115"/>
<path d="M16.0152 12.7573C15.9037 12.8 15.8011 12.8404 15.7074 12.8781L15.7018 13.332C15.6004 18.0702 15.4677 27.5433 15.8441 33.768C16.3782 42.5952 17.4846 48.8522 18.0314 51.5396L18.0823 51.8043C18.1997 51.8776 18.3187 51.9485 18.4392 52.0166L18.3713 51.6919C17.8441 49.144 16.6939 42.8041 16.1461 33.7502C15.7671 27.484 15.9053 17.9155 16.0064 13.2224L16.0152 12.7456M23.6883 10.8954L23.3828 10.9393L23.3878 11.1931C23.3355 16.1278 23.2685 25.8875 23.428 34.432C23.5798 42.5568 24.0784 49.9656 24.3593 53.634L24.3951 54.1441C24.4982 54.1649 24.6012 54.1855 24.7045 54.2052L24.6715 53.7548C24.393 50.1433 23.884 42.652 23.73 34.4264C23.5699 25.8721 23.6375 16.099 23.69 11.1731L23.6883 10.8954ZM24.9711 10.729C24.8679 10.7414 24.765 10.7538 24.6626 10.7666L24.6618 11.0139C24.5837 15.0377 24.4676 23.3627 24.637 31.6518C24.8201 41.0783 25.3135 49.9778 25.5519 53.8872L25.579 54.3601C25.6832 54.3768 25.7862 54.3935 25.8893 54.4092L25.855 53.8922C25.6172 49.9977 25.1223 41.0863 24.9392 31.6458C24.77 23.344 24.8865 15.0058 24.9646 10.9944L24.9711 10.729ZM26.2071 10.5948C26.1066 10.6043 26.0058 10.6149 25.9053 10.6251L25.9031 10.8755C25.8695 15.1939 25.8229 24.2725 25.9266 33.0809C26.0272 41.6226 26.285 50.0674 26.4143 53.9347L26.4325 54.489C26.5347 54.5031 26.6364 54.517 26.7362 54.5302L26.7163 53.933C26.5872 50.0702 26.329 41.622 26.2286 33.0772C26.1242 24.2285 26.1719 15.1066 26.2056 10.8152L26.2071 10.5948ZM28.8283 10.3906C28.723 10.3967 28.6178 10.4025 28.5128 10.409L28.5204 10.5776C28.5727 18.4939 28.7519 45.4839 28.8096 54.231L28.8146 54.7548C28.9216 54.7639 29.0231 54.7723 29.1185 54.7797L29.112 54.251C29.0539 45.5201 28.8749 18.4574 28.8224 10.5572L28.8283 10.3906ZM30.1005 10.334C29.9981 10.3372 29.8952 10.3409 29.7922 10.3446L29.7998 10.6364L29.8787 54.1113L29.874 54.8322C29.9525 54.8372 30.0096 54.84 30.0423 54.8418C30.0597 54.8418 30.1065 54.8428 30.1805 54.8435L30.1812 54.0918C30.166 45.9627 30.1174 19.0093 30.1018 10.6368L30.1005 10.334ZM42.5809 52.8159C43.0178 49.1414 43.8106 41.5473 44.146 32.4407C44.3961 25.6614 44.1976 16.5674 44.067 12.0197L44.0438 11.53C44.1707 11.5602 44.2939 11.5901 44.4143 11.6203L44.4328 12.1234C44.5629 16.7119 44.7569 25.7213 44.5085 32.4537C44.1733 41.5486 43.3825 49.1384 42.9445 52.8306L42.8922 53.2515C42.7656 53.2947 42.6385 53.3366 42.511 53.3771L42.5809 52.8159Z" fill="#6D0115"/>
<path d="M44.0941 52.2913C44.4472 49.0929 45.0671 42.7703 45.4407 34.8842C45.7991 27.3118 45.7804 17.5352 45.737 12.3519L45.7294 11.9748C45.6123 11.941 45.4906 11.9065 45.3634 11.8711L45.3738 12.3182C45.4177 17.4879 45.437 27.2856 45.0781 34.8675C44.7002 42.8491 44.07 49.2258 43.7198 52.3772L43.6523 52.9485C43.761 52.899 43.8893 52.84 44.0288 52.7749L44.0941 52.2913ZM45.2051 51.5897C45.6324 48.7271 46.2147 44.0457 46.5445 38.0664C47.0355 29.1724 47.124 17.8261 47.1381 12.7539L47.1309 12.4169C47.0115 12.3755 46.8917 12.3351 46.7716 12.2957L46.7755 12.6361C46.7625 17.6456 46.6764 29.0917 46.182 38.0469C45.8385 44.2696 45.2224 49.0809 44.7924 51.8928L44.7089 52.4458C44.8419 52.3793 44.9741 52.3113 45.1055 52.2417L45.2051 51.5897ZM48.3786 47.8795C48.3786 47.8795 48.704 46.9826 49.1056 45.6998L49.2579 44.7029C49.7525 41.3944 50.2741 37.268 50.6203 32.7967C51.0809 26.8445 50.9805 19.5945 50.8522 15.2303L50.8243 14.4066C50.704 14.2832 50.5774 14.1662 50.445 14.056L50.4743 14.7264C50.6082 19.0087 50.7364 26.5924 50.2582 32.7698C49.8564 37.9621 49.2173 42.6876 48.6595 46.2029L48.3786 47.8795Z" fill="#6D0115"/>
<path fill-rule="evenodd" clip-rule="evenodd" d="M20.0727 31.7291L20.0826 23.8233H23.5994L23.5805 20.6487H16.2695L16.9304 44.9454H20.1429L20.0724 34.8699H22.7663V31.7291H20.0727ZM28.574 44.9454L28.6413 20.6487H24.8503L25.2569 44.9454H28.574ZM49.4367 23.7098L49.4168 20.6487H40.4017V23.7133H43.0222L42.9467 44.9454H46.1562L46.8379 23.7098H49.4367ZM33.6441 31.8936L33.6804 23.6408H35.5324C36.372 25.4788 36.9118 27.9095 37.3349 31.8936H33.6441ZM30.6845 44.9448H33.7556L33.7897 34.8979H37.4696C37.7588 36.6712 37.8297 42.1451 37.8471 44.9448H40.826C41.1072 32.5407 40.2337 25.5294 37.8213 20.6484H30.4038L30.6845 44.9448Z" fill="#1A1A1A"/>
<path fill-rule="evenodd" clip-rule="evenodd" d="M20.4671 23.3896H23.9928L23.9738 20.2148H16.6445L17.3071 44.5113H20.5276L20.4571 34.4361H23.1577V31.2954H20.4571L20.4671 23.3896Z" fill="url(#paint2_radial_10704_16565)"/>
<path fill-rule="evenodd" clip-rule="evenodd" d="M25.6536 44.5109H28.9792L29.0466 20.2148H25.2461L25.6536 44.5109Z" fill="url(#paint3_radial_10704_16565)"/>
<path fill-rule="evenodd" clip-rule="evenodd" d="M47.2919 23.2758H49.8972L49.8773 20.2148H40.8398V23.2794H43.4666L43.391 44.5113H46.6085L47.2919 23.2758Z" fill="url(#paint4_radial_10704_16565)"/>
<path fill-rule="evenodd" clip-rule="evenodd" d="M34.065 31.4598L34.1012 23.2073H35.9581C36.7999 25.045 37.341 27.4757 37.7651 31.4598H34.065ZM31.0981 44.5106H34.1768L34.2113 34.4641H37.8999C38.1898 36.2372 38.2608 41.7109 38.2781 44.5106H41.2646C41.5472 32.107 40.6718 25.0963 38.2533 20.2148H30.8164L31.0981 44.5106Z" fill="url(#paint5_radial_10704_16565)"/>
</g>
<defs>
<linearGradient id="paint0_linear_10704_16565" x1="1.57193" y1="60.6998" x2="62.4422" y2="2.51238" gradientUnits="userSpaceOnUse">
<stop stop-color="#8C8C8C"/>
<stop offset="0.5" stop-color="#464646"/>
<stop offset="0.75" stop-color="white"/>
<stop offset="1" stop-color="white"/>
</linearGradient>
<radialGradient id="paint1_radial_10704_16565" cx="0" cy="0" r="1" gradientUnits="userSpaceOnUse" gradientTransform="translate(32.0013 32.5789) scale(21.261 22.7255)">
<stop stop-color="#E60A47"/>
<stop offset="1" stop-color="#7C0626"/>
</radialGradient>
<radialGradient id="paint2_radial_10704_16565" cx="0" cy="0" r="1" gradientUnits="userSpaceOnUse" gradientTransform="translate(33.2697 32.3633) scale(16.6251 12.1484)">
<stop stop-color="#D3D1D2"/>
<stop offset="0.5" stop-color="#C9C7C8"/>
<stop offset="1" stop-color="#8D8B8C"/>
</radialGradient>
<radialGradient id="paint3_radial_10704_16565" cx="0" cy="0" r="1" gradientUnits="userSpaceOnUse" gradientTransform="translate(33.2688 32.3629) scale(16.6251 12.1484)">
<stop stop-color="#D3D1D2"/>
<stop offset="0.5" stop-color="#C9C7C8"/>
<stop offset="1" stop-color="#8D8B8C"/>
</radialGradient>
<radialGradient id="paint4_radial_10704_16565" cx="0" cy="0" r="1" gradientUnits="userSpaceOnUse" gradientTransform="translate(33.2721 32.3633) scale(16.6251 12.1484)">
<stop stop-color="#D3D1D2"/>
<stop offset="0.5" stop-color="#C9C7C8"/>
<stop offset="1" stop-color="#8D8B8C"/>
</radialGradient>
<radialGradient id="paint5_radial_10704_16565" cx="0" cy="0" r="1" gradientUnits="userSpaceOnUse" gradientTransform="translate(33.2721 32.3633) scale(16.6251 12.1484)">
<stop stop-color="#D3D1D2"/>
<stop offset="0.5" stop-color="#C9C7C8"/>
<stop offset="1" stop-color="#8D8B8C"/>
</radialGradient>
<clipPath id="clip0_10704_16565">
<rect width="64" height="64" fill="white"/>
</clipPath>
</defs>
</svg>
