<svg width="64" height="64" viewBox="0 0 64 64" fill="none" xmlns="http://www.w3.org/2000/svg">
<g clip-path="url(#clip0_11140_10305)">
<path d="M16.6472 8H23.5473V56.0992H16.6472V8ZM46.2267 8V13.8036H51.5762V56.0992H58.2615V13.8036H63.5243V8H46.2267ZM0 56.0992H6.68554V34.278H12.3794V28.554H6.68554V13.8036H14.1134V8H0V56.0992ZM47.113 52.9485C47.1144 54.0025 47.115 55.0528 47.1147 56.0992H40.8614C40.8559 54.2796 40.8517 52.451 40.849 50.6133C40.8438 48.7786 40.8352 46.9406 40.8153 45.1089C40.7758 41.4491 40.6919 37.8036 40.5006 34.278H33.1457V56.0992H27.141V8H41.2498C42.1041 9.65468 42.8287 11.3732 43.417 13.14C44.0257 14.9659 44.5295 16.8252 44.9259 18.7087C45.3358 20.6235 45.6616 22.598 45.9236 24.6069C46.1856 26.6153 46.3848 28.6701 46.5387 30.7433C46.6927 32.8154 46.8023 34.9235 46.882 37.0336C46.9617 39.1416 47.0125 41.2795 47.0458 43.4013C47.0791 45.518 47.0958 47.6685 47.1046 49.7771C47.1091 50.8369 47.1118 51.894 47.113 52.9485ZM40.0746 28.554C39.5372 23.0543 38.6155 17.9641 37.0195 13.8036H33.1457V28.554H40.0746Z" fill="black"/>
</g>
<defs>
<clipPath id="clip0_11140_10305">
<rect width="63.5243" height="48.0992" fill="white" transform="translate(0 8)"/>
</clipPath>
</defs>
</svg>
