<svg width="64" height="64" viewBox="0 0 64 64" fill="none" xmlns="http://www.w3.org/2000/svg">
<g clip-path="url(#clip0_10704_16585)">
<path d="M32 0C14.3603 0 0 14.3603 0 32.0173C0 49.6742 14.3603 64.0345 32 64.0345C49.6569 64.0345 64 49.6742 64 32.0173C64.0172 14.3603 49.6569 0 32 0ZM29.48 60.9795V52.6257C30.3085 52.7292 31.137 52.781 32 52.781C32.8285 52.781 33.657 52.7292 34.4682 52.6429V60.9968C33.657 61.0658 32.8285 61.1003 32 61.1003C31.1543 61.0831 30.3085 61.0485 29.48 60.9795ZM38.1445 31.2233V15.3959L34.4854 14.343V31.206H29.4973V14.3603L25.8382 15.4132V31.2406H11.8576C12.1683 20.3668 21.0744 11.6505 32 11.6505C42.9256 11.6505 51.8317 20.384 52.1424 31.2233H38.1445ZM52.1424 32.069C52.0216 40.9234 46.1704 48.4142 38.1273 51.0032V32.069H52.1424ZM25.8209 32.069V50.986C17.8123 48.397 11.9784 40.9061 11.8576 32.069H25.8209ZM29.48 32.069H34.4682V51.7972C33.657 51.9008 32.8285 51.9525 32 51.9525C31.1543 51.9525 30.3085 51.9008 29.48 51.7972V32.069ZM38.1445 60.4272V51.849C46.7228 49.2255 52.9881 41.2168 52.9881 31.7929C52.9881 20.2287 43.5814 10.8047 32 10.8047C20.4358 10.8047 11.0119 20.2114 11.0119 31.7929C11.0119 41.2168 17.2427 49.1909 25.8037 51.849V60.4099C12.7551 57.5793 2.9342 45.9115 2.9342 32.0173C2.9342 15.9827 15.9827 2.9342 32 2.9342C48.0345 2.9342 61.083 15.9827 61.083 32.0173C61.083 45.9461 51.2449 57.6138 38.1445 60.4272ZM6.85221 19.055L8.28479 19.5728L6.61057 24.1812L7.80151 24.6127L9.38943 20.2632L10.822 20.7983L9.25135 25.1478L11.3571 25.9072L10.6839 27.8058L4.48759 25.5448L6.85221 19.055ZM17.5513 15.7392L16.1096 17.1283L11.5352 12.3804L12.9769 10.9913L17.5513 15.7392ZM23.6979 9.57929C23.8188 9.90723 23.9741 10.0971 24.164 10.1316C24.233 10.1489 24.3366 10.1316 24.4574 10.1143C24.5782 10.0971 24.7335 10.0453 24.9061 9.99353L25.5793 9.76915L26.0798 9.59655C26.4595 9.45847 26.5976 9.23409 26.4768 8.90615C26.3732 8.62999 26.2006 8.52643 25.9245 8.56095L25.5275 8.66451L25.1478 8.76807L24.0431 9.07875L23.2837 9.26861C23.1629 9.30313 22.9903 9.33765 22.7832 9.37217C22.2136 9.47573 21.7993 9.32039 21.5232 8.90615C21.3678 8.68177 21.2298 8.42287 21.1435 8.12945C20.9536 7.61165 20.8846 7.19741 20.8846 6.93851C20.9018 6.48975 21.0917 6.14455 21.4196 5.88565C21.7476 5.62675 22.507 5.29881 23.6634 4.90183C23.8705 4.83279 24.0431 4.78101 24.233 4.72923C24.6645 4.60841 24.9579 4.52211 25.2686 4.48759C25.5793 4.43581 25.8554 4.43581 26.0798 4.47033C26.3387 4.50485 26.5631 4.60841 26.7702 4.79827C26.9601 4.98813 27.1327 5.24703 27.2362 5.57497L27.3743 5.98921L25.4757 6.64509L25.3722 6.42071C25.2686 6.23085 25.1133 6.12729 24.9061 6.12729C24.8889 6.12729 24.8544 6.12729 24.7681 6.14455C24.63 6.17907 24.4919 6.21359 24.3366 6.24811C24.3366 6.24811 24.0777 6.31715 23.9568 6.36893C23.836 6.40345 23.4736 6.55879 23.4736 6.55879C23.3355 6.62783 23.2147 6.66235 23.1284 6.74865C22.9385 6.86947 22.8867 7.05933 22.9558 7.30097C23.0421 7.54261 23.2147 7.66343 23.5081 7.62891C23.5599 7.62891 23.6289 7.61165 23.7152 7.59439C23.8015 7.57713 23.8705 7.55987 23.9396 7.54261L24.4401 7.40453L24.9407 7.24919L25.9763 6.95577C26.1143 6.90399 26.2524 6.86947 26.3905 6.85221C26.5286 6.83495 26.6839 6.81769 26.822 6.81769C27.5124 6.81769 28.0302 7.30097 28.3581 8.28479C28.7379 9.37217 28.4444 10.1489 27.4951 10.6321C27.4434 10.6667 27.3571 10.7012 27.2362 10.753C27.1327 10.8047 27.0291 10.8393 26.9601 10.8565C26.7702 10.9256 26.5286 11.0119 26.2352 11.1154C25.9417 11.219 25.7691 11.288 25.7174 11.3053C25.6483 11.3225 25.3722 11.4261 24.8544 11.5814C24.3366 11.754 25.1823 11.4434 24.9061 11.5469C24.7853 11.5814 24.6645 11.6332 24.5437 11.6505C24.4229 11.685 24.302 11.7195 24.1812 11.7368C23.9223 11.8231 23.6634 11.8749 23.439 11.8749C23.1974 11.8749 22.9903 11.8231 22.7832 11.754C22.6106 11.685 22.4552 11.5642 22.2999 11.3743C22.1445 11.1845 22.0237 10.9428 21.9202 10.6667L21.7476 10.2352L23.6979 9.57929ZM37.5922 4.38403L36.9881 6.76591L37.5059 6.88673L40.3193 5.05717L42.5976 5.62675L38.6969 8.04315L41.4585 12.1338L39.1456 11.5469L37.0572 8.52643L36.5739 8.42287L35.987 10.7702L34.0539 10.2869L35.6418 3.90075L37.5922 4.38403ZM56.4229 21.6268L54.973 22.1791L55.5426 23.6462C55.5599 23.698 55.5944 23.8015 55.6462 23.9223C55.6979 24.0604 55.7325 24.164 55.767 24.233C55.8015 24.3193 55.836 24.3883 55.8705 24.4401C55.9051 24.4919 55.9396 24.5437 55.9914 24.5955C56.1467 24.7508 56.4056 24.7508 56.7681 24.6127C57.0097 24.5092 57.1823 24.3883 57.2513 24.1985C57.3031 24.0604 57.2859 23.8533 57.165 23.5771L56.9579 23.0248L56.4229 21.6268ZM58.9428 23.4045C59.0291 23.6117 59.0809 23.7497 59.0982 23.836C59.1154 23.9223 59.1499 24.0259 59.2017 24.1812C59.3571 24.7853 59.3053 25.2513 59.0291 25.5965C58.9256 25.7346 58.8047 25.8382 58.6667 25.9417C58.5286 26.028 58.3905 26.1143 58.2524 26.1834C58.1143 26.2524 57.959 26.3215 57.7864 26.3905C57.2859 26.5804 56.8716 26.6667 56.5609 26.6149C56.2503 26.5804 55.9223 26.3215 55.5771 25.8727C55.6289 26.4423 55.5771 26.8393 55.4218 27.0291C55.2664 27.2362 54.9212 27.4434 54.3862 27.6505L53.6267 27.9439L52.9018 26.0798L53.4714 25.8554C53.8511 25.7001 54.0928 25.562 54.1791 25.4239C54.2654 25.2686 54.2481 25.0097 54.0928 24.6127L53.4024 22.8004L51.8662 23.3873L51.1413 21.5232L57.3031 19.1586L58.9428 23.4045ZM48.7249 9.02697L53.7303 13.7735L52.6602 14.8954L49.1219 11.5297L48.5005 12.1855L51.8662 15.3786L50.8651 16.4142L47.5167 13.2211L46.6882 14.0841L50.2783 17.4844L49.2254 18.6063L44.1855 13.808L48.7249 9.02697Z" fill="black"/>
</g>
<defs>
<clipPath id="clip0_10704_16585">
<rect width="64" height="64" fill="white"/>
</clipPath>
</defs>
</svg>
