<svg width="64" height="64" viewBox="0 0 64 64" fill="none" xmlns="http://www.w3.org/2000/svg">
<path d="M31.9998 20C14.238 20 0 25.324 0 31.999C0 38.6333 14.3553 43.9984 31.9998 43.9984C49.6447 43.9984 64 38.6153 64 31.999C64 25.3826 49.6447 20 31.9998 20Z" fill="#003478"/>
<path d="M44.608 34.5404C44.6166 34.5954 44.6888 34.648 44.7586 34.6729C44.7844 34.6815 44.797 34.6987 44.77 34.7571C44.5708 35.1842 44.3876 35.4304 44.1379 35.8015C43.908 36.1444 43.6492 36.4119 43.3359 36.6692C42.8632 37.0603 42.2068 37.4861 41.6642 37.1999C41.4232 37.0748 41.3189 36.7374 41.3235 36.4643C41.335 35.6964 41.6766 34.908 42.3075 34.1331C43.0766 33.1863 43.9268 32.6952 44.4847 32.9636C45.062 33.239 44.8778 33.9074 44.6193 34.432C44.5992 34.4726 44.5995 34.5072 44.608 34.5404ZM50.8028 28.5565C50.8443 28.4832 50.8006 28.4297 50.7081 28.4297C50.2259 28.4297 49.5933 28.4308 49.0908 28.4308C48.9712 28.4308 48.9094 28.4451 48.853 28.5567C48.6675 28.912 46.4075 32.299 45.9869 32.9567C45.9159 33.0569 45.8295 33.0429 45.8195 32.9281C45.7768 32.5374 45.4395 32.0883 44.9079 31.8735C44.5029 31.7092 44.1069 31.6794 43.6951 31.7341C42.9518 31.834 42.2896 32.226 41.7074 32.6683C40.8299 33.3353 40.0728 34.2 39.0955 34.8388C38.562 35.1866 37.8314 35.4899 37.3425 35.0372C36.9001 34.627 36.9501 33.7159 37.627 33.0113C37.6983 32.9374 37.7839 32.9998 37.7704 33.0654C37.7066 33.384 37.7847 33.7009 38.0269 33.9231C38.3222 34.1879 38.7448 34.2177 39.1066 34.041C39.5335 33.8295 39.7843 33.4211 39.8575 32.9575C39.9705 32.2385 39.417 31.6043 38.7244 31.5534C38.1618 31.5139 37.6222 31.7097 37.0965 32.1436C36.8329 32.3623 36.6832 32.5238 36.4552 32.848C36.3996 32.9278 36.3144 32.9359 36.3169 32.8179C36.3427 31.8973 35.9623 31.3793 35.2012 31.3625C34.6104 31.3481 33.9793 31.6689 33.4873 32.0611C32.948 32.4942 32.4765 33.0681 31.9709 33.6074C31.908 33.6739 31.8533 33.6707 31.8355 33.5419C31.8212 32.9319 31.667 32.3411 31.3847 31.9215C31.2848 31.7755 31.0745 31.7034 30.8978 31.8019C30.8162 31.8465 30.5325 31.9771 30.3259 32.1434C30.2234 32.2278 30.1833 32.3501 30.2288 32.5067C30.5013 33.418 30.4415 34.4542 30.0717 35.3293C29.7322 36.1308 29.0724 36.8536 28.2969 37.0983C27.786 37.2603 27.2549 37.181 26.9263 36.7281C26.475 36.103 26.6572 35.0159 27.3301 34.1133C27.9238 33.3185 28.7826 32.8136 29.6393 32.4885C29.74 32.4496 29.7609 32.3849 29.7323 32.2993C29.6859 32.1585 29.6115 31.9666 29.5815 31.8791C29.5027 31.6699 29.2828 31.6361 29.0141 31.6653C28.3917 31.7377 27.8302 31.9509 27.2756 32.2479C25.8232 33.0257 25.095 34.5309 24.7759 35.3362C24.6222 35.7231 24.4908 35.9644 24.321 36.1784C24.092 36.4662 23.8046 36.7282 23.2791 37.1897C23.2316 37.2321 23.1961 37.3202 23.2361 37.4024C23.2897 37.5134 23.563 37.8995 23.6401 37.9339C23.7257 37.976 23.825 37.9167 23.8648 37.8887C24.2326 37.6394 24.6725 37.2443 24.8879 36.9763C24.9634 36.8844 25.041 36.923 25.0811 37.0624C25.282 37.7793 25.8081 38.3646 26.5357 38.6095C27.8674 39.0586 29.2487 38.4085 30.2913 37.2769C30.9539 36.5576 31.193 36.0949 31.447 35.7805C31.8774 35.2472 32.7265 34.0541 33.7378 33.2882C34.1086 33.0056 34.5475 32.7902 34.7682 32.9333C34.9453 33.0481 35.0026 33.3148 34.7184 33.8317C33.6873 35.7145 32.1703 37.9266 31.892 38.463C31.8411 38.556 31.8863 38.6293 31.9831 38.6293C32.5226 38.6267 33.0575 38.628 33.5472 38.628C33.6288 38.6251 33.6652 38.5868 33.7061 38.5292C34.4974 37.2906 35.242 36.1118 36.0402 34.893C36.0848 34.8211 36.126 34.8758 36.1278 34.9073C36.1449 35.1901 36.2136 35.5768 36.3816 35.8308C36.6834 36.3003 37.1109 36.5021 37.5851 36.5052C37.9624 36.5109 38.1533 36.4522 38.5602 36.3002C38.8913 36.1774 39.157 36.0163 39.361 35.8705C39.4801 35.7875 39.501 35.9263 39.4981 35.9475C39.315 36.9307 39.5411 38.0958 40.5183 38.5789C41.6878 39.1555 42.9726 38.345 43.7119 37.6134C43.7844 37.543 43.8619 37.5504 43.8694 37.7024C43.8865 37.9818 44.0113 38.3132 44.2424 38.5452C44.862 39.167 46.1122 38.9206 47.3668 37.9495C48.1723 37.3277 49.0151 36.4493 49.7764 35.5192C49.805 35.4831 49.8256 35.4253 49.7707 35.3666C49.6548 35.2453 49.487 35.1064 49.3721 34.9995C49.3197 34.9549 49.2427 34.9678 49.1986 35.0011C48.4182 35.7433 47.7158 36.5897 46.7005 37.2896C46.358 37.5286 45.8123 37.7214 45.5672 37.3895C45.4716 37.2607 45.4825 37.0827 45.5758 36.8489C45.8718 36.1107 50.5584 28.9752 50.8017 28.5544" fill="white"/>
<path d="M28.7516 29.4174C28.7716 29.5233 28.8129 29.5439 28.861 29.535C29.0997 29.4872 29.3609 29.2909 29.5156 29.0633C29.6564 28.8569 29.7225 28.5591 29.5826 28.4397C29.4578 28.3324 29.2546 28.3627 29.1039 28.4958C28.8039 28.7609 28.7128 29.1369 28.7515 29.4176M16.8065 38.6025C15.0591 38.6139 13.5196 37.5348 13.3429 35.6653C13.2447 34.6293 13.5375 33.7061 14.1238 32.9454C14.644 32.2677 15.5242 31.7046 16.2692 31.567C16.5116 31.5227 16.8374 31.5499 16.9721 31.7113C17.1833 31.9572 17.1226 32.2272 16.9114 32.335C16.343 32.6252 15.659 33.1221 15.3206 33.8005C15.0461 34.3543 14.9906 35.0216 15.4099 35.6573C16.1116 36.7168 18.0677 36.7459 19.8865 35.0562C20.337 34.6427 20.7401 34.2454 21.1498 33.7747C21.9509 32.8588 22.2173 32.525 23.2822 31.048C23.2936 31.0308 23.2993 31.0085 23.2936 30.9976C23.285 30.9776 23.2707 30.9747 23.2389 30.9718C22.5281 30.9919 21.9083 31.2034 21.3059 31.6536C21.1325 31.7801 20.8828 31.7624 20.7735 31.5958C20.6518 31.4074 20.7391 31.1622 20.9392 31.0238C21.9083 30.3498 22.9669 30.2276 24.048 30.0452C24.0471 30.0452 24.123 30.048 24.1848 29.9667C24.6286 29.3972 24.9636 28.8835 25.4367 28.3075C25.9134 27.7231 26.5291 27.1864 26.9995 26.7833C27.6562 26.2187 28.0773 26.0287 28.5053 25.7958C28.618 25.7369 28.4909 25.6665 28.4566 25.6665C26.0671 25.2174 23.5835 24.6363 21.2105 25.5148C19.567 26.1281 18.8468 27.4313 19.1932 28.3022C19.4397 28.9199 20.2521 29.0204 21.0127 28.6481C21.6445 28.3386 22.2291 27.8397 22.6435 27.1976C22.8754 26.8409 23.3639 27.0982 23.1 27.7175C22.4055 29.3497 21.079 30.6443 19.463 30.699C18.0878 30.7436 17.2005 29.7319 17.2033 28.4837C17.2091 26.0218 19.9497 24.4001 22.83 24.1577C26.2987 23.871 29.5841 24.795 33.0281 25.2128C35.6669 25.5323 38.1968 25.539 40.8491 24.9297C41.1626 24.8615 41.3826 25.0616 41.3622 25.3783C41.3364 25.8361 40.9818 26.2769 40.1082 26.7534C39.1147 27.2982 38.0754 27.4635 36.9899 27.4724C34.3652 27.4953 31.9202 26.4712 29.3901 25.9214C29.393 26.0322 29.4222 26.1641 29.3294 26.234C27.928 27.2678 26.6611 28.3175 25.8127 29.7919C25.7841 29.8259 25.7984 29.8583 25.8491 29.8549C26.5857 29.8156 27.2481 29.7968 27.9359 29.7418C28.0561 29.7303 28.0607 29.7017 28.0501 29.6141C27.9891 29.1059 28.1376 28.5264 28.5847 28.1278C29.0422 27.7176 29.6151 27.6709 29.9949 27.9663C30.4266 28.3028 30.3884 28.9079 30.1523 29.3616C29.9118 29.822 29.5148 30.0682 29.1337 30.1878C29.1337 30.1878 29.0535 30.205 29.0655 30.2777C29.0799 30.3939 29.5998 30.6817 29.6442 30.7583C29.6871 30.8313 29.6642 30.9444 29.5861 31.0311C29.5311 31.0941 29.445 31.153 29.3348 31.151C29.2458 31.1492 29.1917 31.1184 29.0777 31.0569C28.8448 30.9306 28.5536 30.7231 28.3593 30.4784C28.2932 30.3957 28.2594 30.394 28.0943 30.4032C27.3501 30.4461 26.1897 30.5583 25.4035 30.6565C25.2129 30.6794 25.1848 30.7157 25.1456 30.7818C23.8921 32.8489 22.5538 35.0779 21.0843 36.5702C19.5081 38.1704 18.198 38.5917 16.8071 38.6026" fill="white"/>
<path d="M31.9996 21.9616C15.6592 21.9616 2.41411 26.477 2.41411 32.0023C2.41411 37.528 15.6592 42.0437 31.9996 42.0437C48.3397 42.0437 61.5839 37.528 61.5839 32.0023C61.5839 26.477 48.3397 21.9616 31.9996 21.9616ZM31.9996 42.9537C15.0644 42.9537 1.33594 38.0506 1.33594 32.0023C1.33594 25.953 15.0644 21.0508 31.9996 21.0508C48.9332 21.0508 62.6607 25.953 62.6607 32.0023C62.6607 38.0506 48.9332 42.9537 31.9996 42.9537Z" fill="white"/>
</svg>
