<svg width="64" height="64" viewBox="0 0 64 64" fill="none" xmlns="http://www.w3.org/2000/svg">
<path d="M8.9257 24.0132C6.8244 24.0522 4.29494 24.4123 2.82562 25.281C1.87825 25.8475 0.713639 27.0002 0.3563 28.7752C-0.00182953 30.5498 0.163583 32.278 0.516569 34.0553C0.868763 35.8319 1.57513 37.8206 3.53119 38.8454C5.48765 39.8698 6.79947 39.9912 9.4805 39.9838C12.1615 39.9916 13.4734 39.8698 15.4298 38.8454C17.3859 37.8206 18.0918 35.8319 18.4444 34.0549C18.797 32.2784 18.9624 30.5498 18.6047 28.7752C18.2474 27.0002 17.0828 25.8475 16.1354 25.2814C14.226 24.2457 12.1259 24.0475 10.0349 24.0132C9.65422 24.0155 9.27829 24.0089 8.9257 24.0132ZM11.6609 24.4907C12.4366 24.5636 14.3776 24.7123 15.8307 25.5658C17.283 26.4198 17.9328 27.5054 18.2038 28.8224C18.4753 30.1394 18.4516 31.8048 18.0756 33.9129C17.6997 36.0211 16.6479 37.775 15.2213 38.5134C13.7943 39.2519 11.9831 39.6428 9.4805 39.605C6.97795 39.6428 5.16672 39.2519 3.73974 38.5134C2.31315 37.775 1.26132 36.0207 0.885383 33.9129C0.509445 31.8048 0.485702 30.1394 0.757169 28.8224C1.02824 27.5054 1.67762 26.4198 3.13032 25.5658C4.58303 24.7123 6.52405 24.5636 7.30006 24.4907C8.74841 24.3721 10.2304 24.3631 11.6609 24.4907ZM8.9993 24.8574C7.80817 24.8718 6.53394 25.0158 5.66137 25.2007C4.66415 25.4113 4.32343 25.4862 3.46352 25.9934C2.60362 26.5005 1.54664 27.5327 1.22214 29.1224C0.89765 30.7121 1.04803 32.2604 1.36777 33.8517C1.68752 35.4433 2.32859 37.2245 4.1038 38.1421C7.05432 39.6568 11.9807 39.5968 14.8572 38.1421C16.6324 37.2245 17.2731 35.4429 17.5932 33.8517C17.9134 32.2604 18.0634 30.7121 17.7389 29.1224C17.4144 27.5327 16.357 26.5005 15.4975 25.9934C14.6376 25.4862 14.2969 25.4117 13.2996 25.2003C12.4271 25.0158 11.1524 24.8718 9.9617 24.857C9.63167 24.8597 9.3048 24.8543 8.9993 24.8574ZM11.3416 25.622C11.6653 25.6516 12.2248 25.6973 12.8572 25.8174C12.951 25.8366 13.0036 25.8662 12.9831 25.954C11.966 28.3867 10.879 30.8202 9.74564 33.2529C9.59289 33.5751 9.39977 33.5876 9.24307 33.3122C8.09943 30.86 7.00327 28.4066 5.97795 25.9544C5.95737 25.8662 6.01 25.8366 6.10379 25.8178C6.73616 25.6973 7.29571 25.6516 7.61941 25.6216C8.85605 25.5214 10.1243 25.5151 11.3416 25.622ZM5.08085 26.0823C5.13862 26.0804 5.15801 26.1182 5.15603 26.1896L5.15682 26.1873V30.2806C5.15682 31.5723 5.37091 32.1785 5.95065 33.2318L8.72863 38.2743C8.8232 38.4522 8.66927 38.4405 8.50227 38.4424C6.84577 38.3722 5.57787 38.0551 4.54464 37.5292C3.31196 36.9019 2.40377 35.4125 2.07889 33.6227C1.75439 31.8325 1.73342 30.4184 1.96808 29.3003C2.20235 28.1819 2.76349 27.2597 4.01793 26.5345C4.33055 26.3538 4.67008 26.2103 5.01318 26.0956C5.03485 26.088 5.05789 26.0838 5.08085 26.0823ZM13.8802 26.0823C13.9031 26.0837 13.9257 26.0881 13.9474 26.0956C14.2909 26.2103 14.6301 26.3538 14.9431 26.5345C16.1975 27.2597 16.7587 28.1819 16.9929 29.3003C17.2276 30.4184 17.2066 31.8325 16.8821 33.6227C16.5576 35.4125 15.6486 36.9019 14.4168 37.5292C13.3831 38.0551 12.1148 38.3722 10.4587 38.4424C10.2917 38.4405 10.1378 38.4522 10.2328 38.2743L13.0104 33.2318C13.5897 32.1785 13.8042 31.5723 13.8042 30.2806V26.1873L13.805 26.1896C13.803 26.1182 13.8224 26.0808 13.8802 26.0823ZM37.0795 25.237V25.8674H33.3854V27.6303L34.6992 27.642V26.8029C34.6976 26.6866 34.7922 26.6484 34.9485 26.6609H40.7617C40.8293 26.6601 40.9853 26.6753 40.988 26.7896V27.6303L42.3026 27.6186L42.2955 26.577C42.2991 26.1206 41.9453 25.9099 41.5563 25.9025H38.5132V25.237H37.0795ZM47.5068 25.2904L46.2642 27.5784H47.4656L47.9342 26.7358H53.0339V26.0531L48.4225 26.023L48.9417 25.3006L47.5068 25.2904ZM57.574 25.2904L57.0239 26.0932L54.6789 26.1007V26.7962L56.3116 26.795C56.4129 26.7943 56.4624 26.8536 56.4236 26.916L55.2123 28.6929C55.037 28.9765 55.0643 29.4271 55.5582 29.4353L58.9242 29.447L58.9341 30.6337H54.5704V31.3835L58.9242 31.3924L58.9337 33.1323H60.2546L60.2641 31.3924L63.9483 31.3835V30.6337H60.2546L60.2641 29.447L63.4414 29.438V28.7959L60.2716 28.7932L60.255 27.4929H58.9333L58.9377 28.783L57.0548 28.7627C56.7517 28.7783 56.7038 28.6313 56.8004 28.492L57.9808 26.8064L63.8035 26.7966V26.101L58.5407 26.0932L59.0781 25.2974L57.574 25.2904ZM23.795 25.3868V28.327L22.3831 28.3492V29.0986H23.795V32.5448C23.8203 32.8639 24.036 33.0161 24.3447 33.0863H26.7534V32.3463H25.3205C25.2295 32.4126 25.072 32.3115 25.0835 32.113V29.0779H26.5283C27.6205 30.6528 28.5029 32.3033 31.7609 33.096L31.7269 32.1949C30.2429 31.5606 28.7431 30.959 27.8429 29.1127H31.7625V28.3656H25.072V25.3887L23.795 25.3868ZM45.1348 25.471L43.7605 25.4812C44.1166 25.8775 44.4051 26.2044 44.9108 27.0365H46.0814C45.7976 26.5212 45.5472 26.0121 45.1348 25.471ZM29.4653 25.5288C28.2924 26.3199 27.277 27.0599 26.6699 27.6654L28.032 27.6771C29.1523 26.726 30.233 26.2064 31.3241 25.5756L29.4653 25.5288ZM36.472 27.3876L35.785 28.3785H33.1408V29.1041H35.2049C35.2564 29.1521 35.1911 29.2375 35.1234 29.3245L34.6094 30.1223C34.5263 30.2721 34.5191 30.4254 34.7059 30.5888L36.7217 31.5071C36.8056 31.5481 36.8986 31.5875 36.7316 31.6675C35.7823 31.9226 34.7344 32.1512 33.1408 32.2347V33.1327C35.068 32.9381 36.8962 32.6786 38.1519 32.074C38.1823 32.049 38.1942 32.0084 38.3351 32.074C39.6699 32.4688 40.9765 32.8967 42.506 33.1124V32.2347C41.4617 32.0381 40.4279 31.7902 39.4087 31.4919C39.3268 31.4439 39.3295 31.3878 39.3834 31.3265C40.2714 30.7308 40.7245 29.9381 41.0885 29.1045H42.506V28.3789H37.3577C37.3153 28.3555 37.2362 28.3609 37.2817 28.2759L37.9227 27.5082C37.9544 27.4664 37.9584 27.4294 37.9635 27.3876H36.472ZM47.872 27.4391V28.0992H52.6516V27.4391H47.872ZM45.1451 27.7793L43.8321 27.7992C44.2053 28.279 44.5784 28.7366 44.9516 29.4751C45.0224 29.7092 45.0117 29.96 44.9211 30.1874C44.6315 31.2114 44.284 32.1602 43.9132 33.0777L45.1348 33.0875C45.5195 32.0673 45.8008 31.0472 46.0509 30.0271C46.1657 29.4115 46.043 29.3163 45.9492 29.0737C45.7209 28.5895 45.4546 28.1561 45.1451 27.7793ZM46.9124 28.7955V29.4915L50.8962 29.5051C51.098 29.4903 51.1368 29.6124 51.151 29.756L51.1609 31.5021C51.1838 32.3154 52.1973 33.089 53.1949 33.1144L53.2127 32.2971C52.6666 32.1668 52.3932 31.5922 52.3924 31.2512V29.3947C52.3853 29.1505 52.1815 28.838 51.7818 28.8025L46.9124 28.7955ZM36.6173 29.1045H39.7771C39.5951 29.8488 39.0256 30.5053 38.1143 31.0983C37.4061 30.8771 36.7096 30.6213 36.0272 30.3318C35.8242 30.2206 35.8507 30.1094 35.9334 29.9986L36.6173 29.1045ZM24.8445 34.5351C23.5279 34.5351 22.4314 34.9541 22.4314 36.6086C22.4614 38.2669 23.8904 38.675 24.9387 38.675H26.9367V37.8608L25.1353 37.8721C24.7305 37.8721 23.7471 37.7278 23.7471 36.6156C23.7178 35.4589 24.776 35.3587 25.1986 35.3587H26.9367V34.5418L24.8445 34.5351ZM48.9757 34.5351C48.3176 34.5422 46.563 34.736 46.563 36.6086C46.563 38.3878 47.9429 38.675 48.9579 38.675H51.5847C51.648 38.675 51.7007 38.6297 51.7007 38.5552V36.3335C51.7007 36.2848 51.6682 36.2508 51.6164 36.2508L49.6199 36.2465V37.0096H50.4727C50.5725 37.0096 50.5974 37.1188 50.5839 37.1188V37.7644C50.5839 37.8237 50.5622 37.8682 50.4834 37.8635L48.9995 37.8721C48.7367 37.8721 47.8784 37.7211 47.8784 36.591C47.8784 35.4183 48.6991 35.3587 49.0632 35.3587H51.7106V34.5418L48.9757 34.5351ZM35.8725 34.5418L34.0917 38.6664L35.1206 38.675L36.4839 35.473C36.5274 35.3684 36.6683 35.3813 36.7095 35.4886L38.1218 38.6757H39.4356L37.7617 34.9085C37.5955 34.5691 37.4321 34.5422 37.1167 34.5422L35.8725 34.5418ZM40.9678 34.5418H40.417L40.4253 38.6671L41.3972 38.6761V36.2618C41.43 36.2684 41.4732 36.2048 41.6406 36.3304L44.0624 38.4214C44.1799 38.5318 44.3687 38.675 44.6964 38.675H45.2326C45.3077 38.675 45.3738 38.6137 45.3738 38.5021L45.3837 34.5422H44.4023L44.3996 36.7666C44.3996 36.9916 44.2254 36.9975 44.0644 36.8387L41.6524 34.7899C41.5187 34.6717 41.3873 34.5418 40.9678 34.5418ZM54.5206 34.5418L52.7398 38.6664L53.7687 38.675L55.132 35.4726C55.1755 35.368 55.3164 35.3809 55.3575 35.4882L56.7695 38.6753H58.0833L56.4094 34.9081C56.2436 34.5687 56.0801 34.5418 55.7647 34.5418H54.5206ZM59.5819 34.5418H59.031L59.0394 38.6671L60.0113 38.6761V36.2618C60.0445 36.2684 60.0872 36.2048 60.255 36.3304L62.6768 38.4214C62.794 38.5318 62.9831 38.675 63.3108 38.675H63.847C63.9222 38.675 63.9883 38.6137 63.9883 38.5021L63.9982 34.5422H63.0168L63.0136 36.7666C63.0136 36.9916 62.8399 36.9975 62.6788 36.8387L60.2665 34.7899C60.1327 34.6717 60.0014 34.5418 59.5819 34.5418ZM28.2655 34.5418V38.6757H29.44V36.955H31.8903V38.6753H33.1159V34.5426H31.8903V36.0932H29.44V34.5426L28.2655 34.5418Z" fill="#0B457F"/>
</svg>
