<svg width="64" height="64" viewBox="0 0 64 64" fill="none" xmlns="http://www.w3.org/2000/svg">
<g clip-path="url(#clip0_10704_16592)">
<path fill-rule="evenodd" clip-rule="evenodd" d="M10.0266 8.97457H14.4422V1.5332L17.3933 3.30855L20.188 1.58168V3.63758H21.7302V1.586L24.6806 3.31718L27.6081 1.58168V3.63758H29.0348V1.586L31.9835 3.31718L34.9694 1.58168V3.63758H36.3377V1.586L39.2884 3.31718L42.1575 1.58168V3.63758H43.5842V1.586L46.591 3.31718L49.462 1.58168V8.97457H53.9859L63.0595 20.7648L62.8696 20.9464L62.1607 21.6849L61.4654 22.4694L60.7851 23.2975L60.1191 24.1664L59.468 25.0738L58.8351 26.0168L58.2199 26.992L57.6252 27.9987L57.0498 29.0319L56.498 30.0908L55.9671 31.1712L55.4624 32.2722L54.9833 33.3908L54.5291 34.5226L54.1057 35.6671L53.7103 36.8203L53.3464 37.981L53.0144 39.1444L52.7162 40.3095L52.4523 41.4743L52.2238 42.6344L52.0339 43.7888L51.8842 44.9346L51.7746 46.0675L51.7059 47.1881L51.6816 48.2911L51.7032 49.3755L51.7699 50.439L51.8871 51.4779L52.0525 52.4909L52.1279 52.8262L31.5957 62.4673L10.857 52.5078L10.9291 52.2127L11.1114 51.2342L11.2472 50.2275L11.3371 49.1952L11.384 48.14L11.3876 47.0643L11.3514 45.9709L11.2744 44.8626L11.1595 43.7407L11.0068 42.6098L10.8185 41.4709L10.5951 40.3278L10.3374 39.1813L10.0472 38.0368L9.72615 36.8946L9.37387 35.7584L8.99237 34.6309L8.58199 33.5146L8.14471 32.4123L7.6812 31.3269L7.1918 30.2604L6.67882 29.2162L6.14259 28.1969L5.58313 27.2048L5.00341 26.2432L4.40244 25.3142L3.78189 24.4204L3.14274 23.5651L2.48599 22.7513L1.81198 21.981L1.1207 21.2575L0.941406 21.0862L10.0266 8.97457Z" fill="#474545"/>
<path fill-rule="evenodd" clip-rule="evenodd" d="M1.82812 21.0366L10.3316 9.67969L12.1116 13.2277H12.0864L6.23013 21.0366H1.82812Z" fill="white"/>
<path fill-rule="evenodd" clip-rule="evenodd" d="M10.332 9.67969L11.8072 12.3897L6.23047 21.0366C8.48592 16.6894 10.0156 14.5266 10.332 9.67969ZM31.5787 61.8499L11.8132 52.358L15.1935 50.1752L31.5787 57.8397V61.8499Z" fill="#E6E6E4"/>
<path fill-rule="evenodd" clip-rule="evenodd" d="M31.5766 61.8493C31.2113 58.4012 24.1395 54.369 15.1914 50.1746L31.5766 57.839V61.8493ZM51.5217 52.4974L31.6081 61.8493V57.8859L31.6406 57.9015L48.1845 50.3698L51.5217 52.4974ZM53.7738 9.66406L62.1044 20.9795L57.8704 20.9596L51.9938 13.2134L53.7738 9.66406Z" fill="#ABABA7"/>
<path fill-rule="evenodd" clip-rule="evenodd" d="M20.2528 3.93164H21.7911V11.4945H27.582V3.93164H29.0831V11.4945H34.8739V3.93164H36.3747V11.4945H42.1656V3.93164H43.6663V11.4945H49.4572V9.71055H53.836L51.9637 13.4425H12.1421L10.2383 9.71055H14.461V11.4945H20.2528V3.93164Z" fill="white"/>
<path fill-rule="evenodd" clip-rule="evenodd" d="M11.943 13.2637H52.0547L57.7685 20.7944H57.6433V21.0719H57.7672L56.7927 22.1902L56.3166 22.7872L55.8401 23.433L55.368 24.1219L54.9008 24.8524L54.4406 25.6213L53.9867 26.4258L53.5418 27.2622L53.1065 28.1288L52.6832 29.0213L52.2722 29.9377L51.8724 30.8743L51.4886 31.8296L51.119 32.7997L50.7668 33.7822L50.4304 34.773L50.112 35.771L49.8135 36.7731L49.5339 37.7748L49.2773 38.7756L49.0406 39.7703L48.8267 40.7574L48.6365 41.7339L48.4711 42.6964L48.3317 43.6424L48.2171 44.5684L48.1301 45.4705L48.0704 46.3481L48.0405 47.1954L48.0375 48.0109L48.0661 48.7895L48.1846 50.3297L31.6836 57.8425L15.0587 50.0671L15.2008 48.5424L15.24 47.7778L15.2529 46.9763L15.2386 46.1406L15.1978 45.2733L15.1317 44.3798L15.0401 43.4614L14.9242 42.5231L14.7834 41.5652L14.6207 40.5941L14.4348 39.6116L14.2276 38.6192L13.9995 37.6214L13.7512 36.6214L13.4839 35.6213L13.197 34.6252L12.8932 33.6351L12.5721 32.654L12.2348 31.6861L11.8825 30.7332L11.5156 29.7986L11.1355 28.8855L10.7424 27.996L10.3373 27.1351L9.92225 26.3033L9.49692 25.5058L9.06329 24.7448L8.62236 24.0236L8.17512 23.345L7.72357 22.7131L7.26903 22.1298L6.21484 20.9006L11.943 13.2637Z" fill="#E6E6E4"/>
<path fill-rule="evenodd" clip-rule="evenodd" d="M47.9384 39.6083C47.1083 43.2951 46.7361 46.8365 47.017 49.6431L31.689 56.6217L16.2359 49.3941C16.547 46.6924 16.2694 43.232 15.5642 39.6083H47.9384ZM12.4976 14.375H51.5037L56.4502 20.8947C53.0346 24.6356 49.8817 31.718 48.198 38.5123H15.3394C13.8655 31.7024 10.955 24.53 7.63672 20.8548L12.4976 14.375Z" fill="#895857"/>
<path fill-rule="evenodd" clip-rule="evenodd" d="M14.8736 15.7706L25.7903 15.6309C19.4864 16.2899 18.4615 16.8886 15.8521 17.1678C14.3961 18.643 13.3609 19.6889 10.293 21.8318L14.8736 15.7706Z" fill="#AD4B4C"/>
<path fill-rule="evenodd" clip-rule="evenodd" d="M11.7628 52.3162L11.6685 52.2717L11.6827 52.2133L11.868 51.2172L12.0061 50.1972L12.0971 49.1503L12.1446 48.0822L12.1486 46.9942L12.1114 45.8905L12.0343 44.7706L11.9181 43.6397L11.7641 42.4982L11.5745 41.3504L11.349 40.1986L11.0901 39.0445L10.7976 37.8907L10.4735 36.7409L10.1192 35.5977L9.7354 34.4622L9.32236 33.3383L8.88209 32.2286L8.41493 31.1349L7.92287 30.0615L7.40557 29.0093L6.86504 27.982L6.30126 26.9826L5.71656 26.0128L5.10995 25.0751L4.48375 24.173L3.83829 23.3091L3.17324 22.4857L2.49059 21.7054L1.82422 21.0078H6.44768L7.50551 22.2413L7.95209 22.8147L8.397 23.4382L8.8386 24.1079L9.27521 24.8218L9.70485 25.5762L10.1262 26.3664L10.5386 27.1915L10.941 28.0471L11.3308 28.9309L11.709 29.838L12.0739 30.7677L12.4245 31.7157L12.7598 32.6795L13.0792 33.6547L13.3817 34.6405L13.6666 35.6319L13.9332 36.626L14.1799 37.6217L14.407 38.6145L14.6132 39.6006L14.7978 40.5788L14.9605 41.5449L15.0996 42.4955L15.2145 43.4289L15.3058 44.3406L15.3712 45.2271L15.412 46.0851L15.4263 46.9125L15.4134 47.7044L15.3742 48.4577L15.2238 50.0817L11.7628 52.3162Z" fill="#E6E6E4"/>
<path fill-rule="evenodd" clip-rule="evenodd" d="M11.7643 52.3165C11.67 52.2717 11.6517 52.3036 11.6843 52.2133C14.8103 43.4793 13.8614 34.4247 6.44922 21.0078C7.51701 22.2532 8.44204 23.408 9.27675 24.8218C11.4104 28.4372 12.8892 32.5723 13.9347 36.626C14.8528 40.1856 15.5378 44.0155 15.4149 47.704C15.3884 48.5002 15.2987 49.2888 15.2253 50.0813C14.0715 50.8271 12.9174 51.5715 11.7643 52.3165Z" fill="white"/>
<path fill-rule="evenodd" clip-rule="evenodd" d="M62.0256 20.9902L61.6417 21.3903L60.9388 22.1845L60.2495 23.0212L59.5775 23.8981L58.9214 24.8132L58.284 25.7641L57.6647 26.7469L57.0641 27.7606L56.4864 28.8015L55.9279 29.8673L55.3963 30.955L54.887 32.0633L54.4046 33.1882L53.948 34.3284L53.5214 35.4792L53.1233 36.6403L52.7567 37.8087L52.423 38.9804L52.1219 40.1544L51.8569 41.3275L51.6265 42.4966L51.4359 43.6606L51.2848 44.8164L51.1733 45.9616L51.1046 47.0925L51.0807 48.2084L51.1006 49.3064L51.1686 50.3828L51.2875 51.4373L51.4529 52.4477L48.1831 50.3629L48.0546 48.6928L48.0273 47.9245L48.0287 47.119L48.0599 46.2807L48.119 45.4121L48.2046 44.5166L48.3185 43.5972L48.4567 42.6586L48.6207 41.7023L48.8109 40.7322L49.0228 39.7504L49.2568 38.7599L49.5138 37.7652L49.7921 36.7678L50.0889 35.771L50.4053 34.7783L50.7393 33.7912L51.0916 32.814L51.4585 31.8485L51.8407 30.8992L52.2374 29.9669L52.6465 29.0561L53.0682 28.1686L53.5001 27.3084L53.9411 26.4773L54.3916 25.6791L54.8482 24.9171L55.312 24.1933L55.7782 23.5113L56.2476 22.8751L56.7171 22.2858L57.8457 20.9902H62.0256Z" fill="#ABABA7"/>
<path fill-rule="evenodd" clip-rule="evenodd" d="M51.4528 52.4474C50.3628 51.7528 49.2728 51.0575 48.183 50.3626C48.0516 48.6679 47.9788 47.1057 48.119 45.4121C48.4971 40.8085 49.7791 36.1392 51.4588 31.8485C52.68 28.7284 54.2007 25.545 56.248 22.8748C56.7506 22.2201 57.3051 21.6125 57.8457 20.9902C48.6993 35.5243 48.2973 46.8049 51.4528 52.4474Z" fill="#989999"/>
<path fill-rule="evenodd" clip-rule="evenodd" d="M21.708 28.1181C21.708 28.1181 23.0653 28.1281 23.2871 28.2609C23.5082 28.3944 23.6414 28.4913 23.9953 28.4913C24.3499 28.4913 24.5418 28.5172 24.3648 28.8273C24.1879 29.1371 23.7449 29.7567 23.7449 29.7567L21.5748 28.561C21.3271 28.3608 21.5144 28.1981 21.708 28.1181ZM37.5224 24.0515C34.9777 24.0986 33.2694 24.1893 30.7261 24.2364C30.7261 24.2364 28.8415 24.095 29.6417 22.6812C30.4436 21.2674 30.7733 20.9377 30.7733 20.9377C30.7733 20.9377 31.7162 19.854 31.6691 19.6179C31.6219 19.3825 31.6691 19.1943 32.0459 19.2885C32.4221 19.3825 33.8365 19.2414 33.8365 19.2414C33.8365 19.2414 34.2599 18.9117 33.9773 18.8177C33.8365 18.7706 33.6011 18.7228 33.3996 18.6876C33.1997 18.6521 33.0344 18.6285 33.0344 18.6285L32.6582 18.487L31.9045 18.5813C31.9045 18.5813 31.5735 18.6285 31.5276 18.2516C31.4792 17.8745 31.0087 17.4976 31.432 17.5447C31.8573 17.5919 32.2813 17.8745 32.7047 17.8745C33.128 17.8745 35.8622 17.9223 36.333 17.8745C36.8039 17.8273 40.2901 16.1781 40.2433 15.613C40.1958 15.0473 40.0547 15.0004 39.725 15.1415C39.3957 15.2837 38.6894 16.3671 38.3587 16.6496C38.0287 16.9322 36.9463 17.3565 36.4735 17.3093C36.0027 17.2622 35.485 16.7907 35.2496 16.7907C35.0129 16.7907 35.3911 16.7907 34.4475 17.1679C33.5058 17.5447 31.857 17.3093 31.857 17.3093C31.857 17.3093 31.008 16.6496 30.7729 16.6496C30.1663 16.9385 27.7711 16.4992 27.9935 16.3199C27.9935 16.3199 27.5214 16.5553 28.0878 16.6496C28.5089 16.8594 30.1577 17.3303 30.3018 17.2154C30.3018 17.2154 30.7255 17.3097 30.4901 17.4979C30.2546 17.6862 28.464 17.9223 28.464 17.9223L28.0875 18.1105C28.0875 18.1105 26.5316 18.1577 26.5788 18.5342C26.5645 18.9266 26.685 19.1169 27.105 19.0707C27.2777 19.0707 28.2671 19.3822 28.3226 19.3822C28.3226 19.3822 28.5577 19.6176 28.2754 19.9951C27.9929 20.3716 25.8716 22.2569 25.8716 22.2569C25.8716 22.2569 24.2231 24.2357 24.2702 24.5654C24.3174 24.8958 23.5162 25.1784 23.6105 25.5549C23.4391 25.9321 23.5447 27.1811 23.7516 27.1811H20.7301C20.7301 27.1811 19.7464 27.4395 20.1239 27.9581C20.2656 28.5544 20.6601 28.7998 20.7836 28.7593L23.0922 30.3145C22.3381 31.3351 21.5848 32.3564 20.8308 33.3764C20.0296 34.2486 19.0717 34.9632 18.145 35.7082C18.145 35.7082 16.0243 37.4759 16.3072 37.6174C16.5898 37.7588 17.9557 37.3345 17.9557 37.3345C17.9557 37.3345 17.6732 37.3591 18.2861 36.5336C18.899 35.7082 19.2284 35.7082 19.2284 35.7082C19.6208 35.3709 20.0136 35.0339 20.4061 34.6959C21.019 34.0053 21.6316 33.314 22.2435 32.6227C22.2435 32.6227 22.4796 32.3398 22.715 32.2933C22.9504 32.2459 23.5633 30.9264 23.8455 30.9264C24.1288 30.9264 25.589 31.8215 25.589 31.8215C25.589 31.8215 27.4264 31.8215 27.5679 31.539C27.709 31.2564 26.7674 30.6907 26.7674 30.6907C26.7674 30.6907 26.3899 31.2564 26.0605 31.1621C25.7301 31.0678 24.5524 30.4081 24.5524 30.4081L26.1548 28.9943C26.1548 28.9943 27.2382 29.3718 27.5679 29.3718C27.8973 29.3718 31.0073 28.8061 31.431 28.8061H34.7768C34.7768 28.8061 36.0017 30.1259 36.0966 30.5024C36.1906 30.8789 36.1435 31.2564 35.9081 31.4918C35.7902 31.6094 35.2958 32.1768 34.7596 32.64C33.8927 33.389 33.1546 34.0531 32.4686 34.743C31.5243 34.837 29.9392 37.8368 30.1132 37.711C29.9718 37.617 31.6213 37.2877 31.6213 37.2877C31.613 36.7113 31.8108 36.182 32.1376 35.6949C32.2949 35.4609 32.7053 35.4957 32.8637 35.2431C33.64 34.0063 34.7612 33.0367 35.8616 32.6705C35.8616 32.6705 37.8783 31.5858 37.7375 31.3036C37.5961 31.021 36.84 29.4246 37.4988 29.5658C38.0838 29.1886 41.6587 30.8035 41.7036 31.1153C42.5682 32.3089 43.4311 33.5019 44.2957 34.6959C44.8678 36.2757 46.0292 37.5005 47.7826 38.3714L47.4058 37.2405C47.4058 37.2405 47.4297 36.5356 46.999 36.4745C45.4415 36.2528 45.9316 36.2079 45.5341 35.086C44.5879 34.0016 43.5181 32.387 43.1638 31.3032C43.1638 31.3032 43.3524 30.8789 43.117 30.5964C42.8816 30.3138 42.4576 30.1255 42.2222 30.0306C41.9874 29.9363 41.1378 29.2772 40.9973 28.9472C40.8559 28.6175 39.7244 25.4602 40.1012 25.3191C40.4794 25.178 40.5352 25.2448 40.5352 25.2448C40.751 24.847 37.6764 23.6942 37.5224 24.0515Z" fill="#E6E6E4"/>
<path fill-rule="evenodd" clip-rule="evenodd" d="M38.6838 16.6028L38.7292 16.5786C38.9646 16.1476 40.0477 15.4978 40.0378 15.537L40.0261 15.458L40.0132 15.3923L39.9989 15.3408L39.9866 15.3033L39.975 15.281L39.9723 15.2754H39.9607L39.9368 15.2797L39.9013 15.2897L39.8565 15.3046L39.8097 15.3245L39.7921 15.3325L39.7725 15.3451L39.7466 15.3637L39.7167 15.3886L39.6822 15.4178L39.6453 15.4527L39.6065 15.4912L39.5669 15.534L39.5241 15.5805C39.2615 15.8744 39.0274 16.1924 38.7764 16.4956L38.7322 16.5477L38.6894 16.5969L38.6838 16.6028ZM35.244 16.9916C35.2181 17.0036 35.1895 17.0345 35.1643 17.0501C34.2997 17.6158 33.1721 17.6308 32.179 17.5458C32.1681 17.5445 33.1811 17.6905 33.3846 17.6912C34.4059 17.6919 35.3319 17.0129 36.2736 17.6105C36.0372 17.3804 35.5192 16.8525 35.244 16.9916ZM43.0164 31.1791C43.0482 30.9981 43.1077 30.8338 42.9021 30.6412C42.7471 30.4965 42.5525 30.3895 42.3619 30.3009C41.5442 29.9237 40.9651 29.4257 40.6596 28.5704C40.3983 27.8422 40.1486 27.0958 39.969 26.3431C39.8654 25.9052 39.6383 25.2717 40.1875 25.0848C40.2303 25.0705 39.7097 24.8065 39.6493 24.7786C39.4139 24.6687 37.8763 24.0462 37.6863 24.1866C37.5436 24.2916 37.4971 24.2517 37.3068 24.2554C35.3406 24.2939 33.3776 24.3772 31.4134 24.4214L31.332 24.4838C33.8504 24.8955 35.481 24.847 38.025 24.8563C38.3829 24.8577 38.8239 25.1233 38.9095 25.4719C39.4341 27.6062 39.4816 28.0365 40.9478 29.6664C41.7394 30.1199 42.443 30.617 43.0164 31.1791Z" fill="white"/>
<path fill-rule="evenodd" clip-rule="evenodd" d="M26.3125 28.8514C27.0237 29.0688 27.382 29.2153 28.1151 29.1054C28.9727 28.9762 29.827 28.8251 30.6859 28.6973C32.0725 28.4918 33.4863 28.5798 34.8844 28.6067C34.8974 28.6073 35.2626 29.0254 35.2838 29.0503C35.8805 29.7282 36.7617 30.6018 36.1767 31.485L36.602 31.398C36.8885 29.5612 36.1856 28.8404 35.2941 27.7812C33.5892 28.1594 31.8341 28.3155 30.0209 28.2043C29.3578 28.6658 27.3212 28.9264 26.3125 28.8514Z" fill="#ABABA7"/>
<path fill-rule="evenodd" clip-rule="evenodd" d="M23.4627 27.4645C22.5682 27.4389 21.6707 27.3805 20.7776 27.3811C20.6634 27.3811 20.2327 27.6029 20.259 27.744C20.2815 27.8645 20.5777 28.5814 20.7709 28.5615C20.7861 28.5601 20.8013 28.5611 20.8161 28.5645C20.4565 27.3277 22.4932 27.5588 23.4627 27.4645ZM30.5318 17.7148C29.8356 18.0416 28.9637 17.9041 28.289 18.2418C28.0848 18.343 27.864 18.3205 27.6372 18.344C27.3952 18.3683 26.5635 18.3905 26.8374 18.8212C26.8673 18.8683 26.9367 18.8756 26.9871 18.8776C27.4599 18.8922 27.8736 19.0579 28.3302 19.1764C28.7768 19.2926 28.6496 19.884 28.4142 20.1629C27.875 20.8057 27.1485 21.3934 26.5246 21.9561C26.098 22.3406 25.8111 22.66 25.4552 23.1159C25.17 23.4818 24.8774 23.8577 24.6364 24.2544C24.4495 24.5612 24.4959 24.8079 24.2107 25.0712C23.8741 25.3823 23.811 25.4172 23.7592 25.8687C23.7449 25.9863 23.7479 26.975 23.8531 26.9936C24.0766 27.0365 24.4438 27.0823 24.817 27.1278C24.7171 26.7297 24.486 26.3429 24.5182 25.9335C24.5438 25.6131 24.8263 25.369 24.9804 25.0875C25.3263 24.4583 25.5774 23.767 26.0189 23.2012C26.6996 22.3303 27.5526 21.6092 28.3186 20.813C28.3514 20.637 28.4085 20.4836 28.4899 20.3624C28.8438 19.8352 28.7655 19.5164 28.6071 18.9423C28.4886 18.5157 28.8608 18.3311 30.5318 17.7148Z" fill="white"/>
<path fill-rule="evenodd" clip-rule="evenodd" d="M42.899 44.0485V44.6451L41.9647 45.6478L43.0172 46.4131V49.2387H37.0198V48.0275H39.3835V46.2408L38.7344 45.9516L39.7298 44.0491H37.0198V42.8386H42.9016V44.0491H42.899V44.0485ZM31.1745 48.3738H29.2043L28.9476 49.2384H27.7935L29.6239 43.0706L29.5555 42.8379H33.4193L35.291 49.2384H31.4268L31.1745 48.3738ZM29.5622 47.1625H30.8192L30.196 45.0283L29.5622 47.1625ZM20.125 42.8379H27.16V44.0485H24.1611V49.2384H20.125V42.8379Z" fill="#E6E6E4"/>
<path fill-rule="evenodd" clip-rule="evenodd" d="M42.6867 43.8689V44.4656L41.8082 45.4085L42.5383 44.258V43.6614H42.543L42.6319 43.1328L42.6904 43.8689H42.6867ZM42.8056 47.4492V49.0595H39.2699L42.5426 48.852H42.6568L42.8056 47.4492ZM30.8759 48.1942H28.9927L28.736 49.0591C28.6776 48.7032 28.6746 48.4379 28.8446 47.9867L30.8759 48.1942ZM33.7416 44.4978L35.0787 49.0591H31.7206L34.9303 48.8516L33.7416 44.4978ZM26.9487 43.8689H23.9498V49.0595H21.4258L23.8011 48.852V43.6614C26.6213 43.6614 26.1176 43.7241 26.9487 43.8689Z" fill="#ABABA7"/>
<path fill-rule="evenodd" clip-rule="evenodd" d="M37.2379 49.0606V48.2352H39.6023V46.6003C40.0731 47.2703 39.9947 47.8234 39.9947 48.5612H37.6304C37.5125 48.8172 37.4434 48.9118 37.2379 49.0606ZM39.5578 46.0942C39.4054 46.0275 39.2543 45.9594 39.1012 45.892C39.3768 45.3668 39.504 45.1081 39.7789 44.5822C39.7394 45.1144 39.6763 45.4847 39.5578 46.0942ZM37.2379 43.8408V43.0453H42.2897C41.9032 43.4536 37.7977 43.3099 37.6304 43.372C37.5407 43.6236 37.4507 43.7817 37.2379 43.8408ZM28.1603 48.941L29.8423 43.2777L29.7736 43.0449H33.1035C33.1878 43.3328 30.4068 43.3716 30.1657 43.3716C30.2876 43.787 28.5355 48.6565 28.1603 48.941ZM29.9436 47.3699H31.0376C30.8507 46.7291 30.4599 45.637 30.6568 44.9697C30.865 45.6805 31.2216 46.9844 31.4298 47.6966C31.3033 47.6966 29.854 47.6727 29.9436 47.3699ZM20.3438 43.0453H26.6366C25.2428 43.3188 21.2973 43.372 20.7352 43.372C20.7352 44.2897 20.5974 47.0432 20.3438 48.7933V43.0453Z" fill="white"/>
<path fill-rule="evenodd" clip-rule="evenodd" d="M49.18 3.16883L46.545 4.60053L43.9439 3.16949V11.2165H49.18V3.16883ZM43.9443 2.6761L46.5454 4.18981L49.1803 2.67478V2.07812L46.5454 3.6931L43.9443 2.07812V2.6761ZM41.8884 3.16883L39.2534 4.60053L36.6523 3.16949V11.2165H41.8884V3.16883ZM36.6527 2.6761L39.2537 4.18981L41.8887 2.67478V2.07812L39.2537 3.6931L36.6527 2.07812V2.6761ZM34.5968 3.16883L31.9615 4.60053L29.3607 3.16949V11.2165H34.5968V3.16883ZM29.361 2.6761L31.9618 4.18981L34.5971 2.67478V2.07812L31.9618 3.6931L29.361 2.07812V2.6761ZM19.975 3.16883L17.3397 4.60053L14.7383 3.16949V11.2165H19.9747V3.16883H19.975ZM14.7383 2.6761L17.3397 4.18981L19.975 2.67478V2.07812L17.3404 3.6931L14.7383 2.07812V2.6761ZM27.3051 3.16883L24.6698 4.60053L22.0684 3.16949V11.2165H27.3048V3.16883H27.3051ZM22.0684 2.6761L24.6698 4.18981L27.3051 2.67478V2.07812L24.6708 3.6931L22.0687 2.07812V2.6761H22.0684Z" fill="#E6E6E4"/>
</g>
<defs>
<clipPath id="clip0_10704_16592">
<rect width="64" height="64" fill="white"/>
</clipPath>
</defs>
</svg>
