<svg width="64" height="64" viewBox="0 0 64 64" fill="none" xmlns="http://www.w3.org/2000/svg">
<path d="M52.3595 35.2501H45.1595C44.7345 35.2501 44.5517 35.1184 44.5517 34.7018V27.3233C44.5517 27.0215 44.437 27.0045 44.2117 27.0045H41.8103C41.568 27.0045 41.4873 27.0045 41.4873 27.3233V34.4468C41.4873 36.8185 42.3373 37.5878 44.6452 37.5878H52.3935C52.6783 37.5878 52.6783 37.4943 52.6783 37.252V35.5986C52.6783 35.3606 52.6783 35.2501 52.3595 35.2501ZM39.2091 27.0045H31.4523C29.3271 27.0045 28.052 27.6803 28.052 29.9075V34.6891C28.052 36.9162 29.3271 37.5878 31.4778 37.5878H39.2091C39.5151 37.5878 39.4981 37.4943 39.4981 37.269V35.6156C39.4981 35.3904 39.4981 35.2969 39.2091 35.2969H31.6095C31.2695 35.2969 31.0953 35.1694 31.0953 34.8293V33.38H39.0008C39.3068 33.38 39.2898 33.2822 39.2898 33.0612V31.4291C39.2898 31.1911 39.2898 31.1103 39.0008 31.1103H31.0953V29.763C31.0953 29.4272 31.2695 29.2997 31.6095 29.2997H39.2091C39.5151 29.2997 39.4981 29.2019 39.4981 28.9639V27.3233C39.4981 27.1023 39.5279 27.0045 39.2091 27.0045ZM26.0289 27.0045H18.2763C16.1512 27.0045 14.8463 27.6803 14.8463 29.9075V34.6891C14.8463 36.9162 16.1597 37.5878 18.2763 37.5878H26.0289C26.3307 37.5878 26.3307 37.4943 26.3307 37.269V35.6156C26.3307 35.3904 26.3307 35.2969 26.0289 35.2969H18.4421C18.1063 35.2969 17.9278 35.1694 17.9278 34.8293V33.38H25.8164C26.1224 33.38 26.1224 33.2822 26.1224 33.0612V31.4291C26.1224 31.1911 26.1224 31.1103 25.8164 31.1103H17.9278V29.763C17.9278 29.4272 18.1063 29.2997 18.4421 29.2997H26.0289C26.3307 29.2997 26.3307 29.2019 26.3307 28.9639V27.3233C26.3519 27.1023 26.3519 27.0045 26.0289 27.0045ZM12.5554 27.0045H3.447C1.29634 27.0045 0 27.6803 0 29.9075V34.6891C0 36.9162 1.29634 37.5878 3.447 37.5878H12.5554C12.8614 37.5878 12.8444 37.4943 12.8444 37.269V31.4291C12.8444 31.1911 12.8444 31.1103 12.5554 31.1103H5.03236C4.73059 31.1103 4.74759 31.1911 4.74759 31.4291V33.0697C4.74759 33.2907 4.74759 33.3885 5.03236 33.3885H9.77571V35.2969H3.57451C3.25149 35.2969 3.06447 35.1694 3.06447 34.8293V29.763C3.06447 29.4272 3.25149 29.2997 3.57451 29.2997H12.5554C12.8614 29.2997 12.8444 29.2019 12.8444 28.9639V27.3233C12.8444 27.1023 12.8614 27.0045 12.5554 27.0045ZM63.7801 27.0045H61.0047C60.8374 26.9892 60.6688 27.0131 60.5124 27.0743C60.356 27.1355 60.216 27.2324 60.1036 27.3573L56.2783 31.5439L52.4743 27.3573C52.3583 27.2324 52.2153 27.1357 52.0561 27.0745C51.897 27.0134 51.726 26.9894 51.5562 27.0045H48.785C48.564 27.0045 48.462 27.1193 48.7383 27.404L54.7482 34.0133V37.286C54.7482 37.5878 54.846 37.5878 55.0882 37.5878H57.4897C57.7149 37.5878 57.8127 37.5878 57.8127 37.286V34.0133L63.8396 27.404C64.0989 27.1193 64.0181 27.0045 63.7801 27.0045Z" fill="#0070B2"/>
</svg>
