<svg width="66" height="66" viewBox="0 0 66 66" fill="none" xmlns="http://www.w3.org/2000/svg">
<path d="M1.5 32.9494C1.5 50.2761 15.5465 64.3223 32.8728 64.3223C50.199 64.3223 64.2455 50.2761 64.2455 32.9494C64.2455 15.6231 50.199 1.57698 32.8728 1.57698C15.5465 1.57698 1.5 15.6231 1.5 32.9494Z" fill="url(#paint0_radial_10704_17903)"/>
<path d="M1 33C1 50.6729 15.3266 65 32.9999 65C50.6728 65 64.9998 50.6729 64.9998 33C64.9998 15.3267 50.6728 1.00039 32.9999 1.00039C15.3266 1.00039 1 15.3267 1 33ZM2.422 32.7969C2.422 15.9651 16.0666 2.32085 32.898 2.32085C49.7298 2.32085 63.3748 15.9651 63.3748 32.7969C63.3748 49.6287 49.7298 63.2734 32.898 63.2734C16.0666 63.2734 2.422 49.6287 2.422 32.7969Z" fill="url(#paint1_radial_10704_17903)"/>
<path d="M32.8984 63.2734C16.067 63.2734 2.422 49.6287 2.422 32.7973C2.422 15.9651 16.067 2.32085 32.8984 2.32085C49.7298 2.32085 63.3748 15.9651 63.3748 32.7973C63.3748 49.6287 49.7298 63.2734 32.8984 63.2734ZM32.9999 0.999999C15.327 0.999999 1 15.3267 1 33C1 50.6729 15.327 65 32.9999 65C50.6732 65 64.9998 50.6729 64.9998 33C64.9998 15.3267 50.6732 0.999999 32.9999 0.999999V0.999999Z" stroke="#858789" stroke-width="1.33333"/>
<path d="M11.6992 32.725C11.6992 44.2956 21.079 53.6758 32.6495 53.6758C44.2205 53.6758 53.6006 44.2956 53.6006 32.725C53.6006 21.1544 44.2205 11.7747 32.6495 11.7747C21.079 11.7747 11.6992 21.1544 11.6992 32.725Z" fill="url(#paint2_radial_10704_17903)"/>
<g opacity="0.699997">
<path d="M49.0446 44.4634L46.9511 41.6062L46.5232 42.1816C46.1396 41.8902 45.717 41.6112 45.2583 41.3478L46.0162 40.3297L44.637 38.4478L43.2084 40.3659C42.7322 40.1768 42.233 40.0009 41.7133 39.8402L43.7009 37.1705L42.4062 35.4034L39.5256 39.2722C38.9848 39.1582 38.4296 39.0586 37.86 38.9746L41.4717 34.1273L41.1258 33.6562L39.8707 31.9435L34.8507 38.6843C34.3465 38.6598 33.8352 38.6462 33.3182 38.6462C33.2077 38.6462 33.0991 38.6497 32.9898 38.6509L38.9358 30.667L36.7279 27.6534L28.2305 39.0613C27.4551 39.1913 26.7073 39.3496 25.9915 39.5352L35.7926 26.3773L33.2073 22.8497L25.2884 33.6562L17.37 44.4634H17.6124C17.3373 44.9408 17.1875 45.4357 17.1875 45.9469C17.1875 46.7495 17.5598 47.5953 18.2337 48.4264C20.1023 51.6419 26.1463 53.998 33.3182 53.998H33.3804H33.4295C33.5695 53.998 33.7069 53.9938 33.8454 53.9918C33.9531 53.9899 34.0613 53.9899 34.1683 53.9868C34.2605 53.9848 34.3507 53.9794 34.4426 53.977C41.7619 53.723 47.6946 51.0132 48.812 47.5198C49.0804 46.988 49.2267 46.4585 49.2267 45.9469C49.2267 45.4357 49.0765 44.9408 48.8015 44.4634H49.0446Z" fill="#373535"/>
</g>
<path d="M24.8939 33.2737L16.975 44.0806H17.2178C16.9424 44.558 16.793 45.0529 16.793 45.5641C16.793 46.3667 17.1649 47.2129 17.8387 48.0435C19.7078 51.2591 25.7514 53.6152 32.9233 53.6152H32.9859H33.0349C33.175 53.6152 33.3119 53.6109 33.4508 53.6094C33.5586 53.6071 33.6667 53.6071 33.7737 53.6036C33.8656 53.602 33.9558 53.5969 34.048 53.5942C41.3674 53.3402 47.3001 50.6308 48.4174 47.137C48.6859 46.6052 48.8318 46.0757 48.8318 45.5641C48.8318 45.0529 48.682 44.558 48.4069 44.0806H48.6501L46.5566 41.2234L46.1282 41.7992C45.745 41.5074 45.3221 41.2288 44.8634 40.965L45.6213 39.9472L44.2425 38.065L42.8135 39.983C42.3377 39.794 41.8381 39.6185 41.3183 39.4578L43.3064 36.7881L42.0116 35.0206L39.1311 38.8898C38.5899 38.7754 38.0351 38.6758 37.4655 38.5918L41.0771 33.7445L40.7316 33.2737L39.4761 31.5607L34.4561 38.3015C33.9519 38.277 33.4407 38.2638 32.9233 38.2638C32.8132 38.2638 32.7046 38.2673 32.5953 38.2681L38.5409 30.2838L36.3333 27.2706L27.8356 38.6789C27.0606 38.8089 26.3124 38.9672 25.5969 39.1524L35.3981 25.9941L32.8128 22.4669L24.8939 33.2737Z" fill="url(#paint3_linear_10704_17903)"/>
<g opacity="0.270004">
<path d="M33.6315 53.1848C22.3201 53.1848 13.1508 44.015 13.1508 32.7036C13.1508 21.3925 22.3201 12.2228 33.6315 12.2228C44.9429 12.2228 54.1126 21.3925 54.1126 32.7036C54.1126 44.015 44.9429 53.1848 33.6315 53.1848ZM33.7 10.7813C21.8229 10.7813 11.3086 21.296 11.3086 33.1728C11.3086 45.0503 21.8229 55.1211 33.7 55.1211C45.5767 55.1211 55.87 44.8282 55.87 32.951C55.87 21.0743 45.5767 10.7813 33.7 10.7813Z" fill="#373535"/>
<path d="M33.6315 53.1848C22.3201 53.1848 13.1508 44.015 13.1508 32.7036C13.1508 21.3925 22.3201 12.2228 33.6315 12.2228C44.9429 12.2228 54.1126 21.3925 54.1126 32.7036C54.1126 44.015 44.9429 53.1848 33.6315 53.1848ZM33.7 10.7814C21.8229 10.7814 11.3086 21.296 11.3086 33.1728C11.3086 45.0503 21.8229 55.1211 33.7 55.1211C45.5767 55.1211 55.87 44.8282 55.87 32.951C55.87 21.0743 45.5767 10.7814 33.7 10.7814V10.7814Z" stroke="#373535" stroke-width="1.33333"/>
</g>
<path d="M10.543 33.1673C10.543 45.0449 21.0572 55.1152 32.9344 55.1152C44.8115 55.1152 55.1048 44.8223 55.1048 32.9456C55.1048 21.0684 44.8115 10.7759 32.9344 10.7759C21.0572 10.7759 10.543 21.2906 10.543 33.1673ZM12.3852 32.6981C12.3852 21.387 21.5544 12.217 32.8659 12.217C44.1777 12.217 53.347 21.387 53.347 32.6981C53.347 44.0096 44.1777 53.1793 32.8659 53.1793C21.5544 53.1793 12.3852 44.0096 12.3852 32.6981Z" fill="url(#paint4_radial_10704_17903)"/>
<path d="M32.8659 53.1828C21.5544 53.1828 12.3852 44.0131 12.3852 32.7016C12.3852 21.3906 21.5544 12.2209 32.8659 12.2209C44.1773 12.2209 53.347 21.3906 53.347 32.7016C53.347 44.0131 44.1773 53.1828 32.8659 53.1828ZM32.9344 10.7794C21.0572 10.7794 10.543 21.2941 10.543 33.1708C10.543 45.0484 21.0572 55.1191 32.9344 55.1191C44.8111 55.1191 55.1044 44.8262 55.1044 32.9491C55.1044 21.0723 44.8111 10.7794 32.9344 10.7794V10.7794Z" stroke="#858789" stroke-width="1.33333"/>
<g opacity="0.75">
<path d="M19.3817 14.0559L15.9098 17.6371C15.6608 17.8939 15.3775 18.0472 15.0605 18.0974C14.7426 18.1476 14.4874 18.0787 14.2944 17.892L11.7912 15.4646C11.5928 15.2721 11.5134 15.02 11.5527 14.7072C11.5924 14.3944 11.7399 14.1064 11.9959 13.8423L15.4678 10.2614L16.1428 10.9154L12.6355 14.5336L15.1994 17.0193L17.8255 14.3107L16.8781 13.3921L15.2682 15.0526L14.5936 14.3982L17.0847 11.8285L19.3817 14.0559Z" fill="#373535"/>
<path d="M28.7048 9.67676L23.9867 11.2968C23.6486 11.4127 23.3269 11.4213 23.0215 11.3221C22.7153 11.2229 22.5192 11.0462 22.4317 10.7922L21.2991 7.49415C21.2096 7.2327 21.2528 6.97165 21.4299 6.71098C21.6069 6.45031 21.8687 6.26006 22.2165 6.14062L26.9346 4.52097L27.2396 5.40958L22.4737 7.04634L22.8997 8.28705L27.666 6.65067L27.9707 7.53967L23.2047 9.17605L23.6331 10.4241L28.3998 8.78777L28.7048 9.67676Z" fill="#373535"/>
<path d="M38.6709 9.91602L33.7182 9.32426C33.363 9.28185 33.07 9.14918 32.8374 8.92703C32.6051 8.70527 32.5051 8.46016 32.537 8.19405L32.9502 4.73143C32.9829 4.45715 33.1358 4.24122 33.4085 4.08287C33.6809 3.92491 33.9999 3.86772 34.3648 3.91091L39.3183 4.50305L39.2062 5.43602L34.2026 4.83842L34.0474 6.14099L39.051 6.73897L38.939 7.67232L33.9357 7.07434L33.7789 8.38468L38.7826 8.98228L38.6709 9.91602Z" fill="#373535"/>
<path d="M44.024 10.9555L47.2539 12.9253L46.6805 13.8652L43.3155 11.813C43.0105 11.627 42.7981 11.3846 42.6794 11.0858C42.5608 10.787 42.5713 10.5228 42.7109 10.2937L45.0387 6.4782L46.2895 7.24153L44.024 10.9555Z" fill="#373535"/>
<path d="M52.5965 16.1393L50.4703 17.8477L49.6836 16.8684L51.8098 15.1597L52.3533 11.4877L53.1404 12.4674L52.8431 15.1289L55.5035 15.4087L56.2968 16.3957L52.5965 16.1393Z" fill="#373535"/>
</g>
<path d="M11.2222 13.8421C10.9662 14.1063 10.8187 14.3946 10.7795 14.707C10.7398 15.0198 10.8191 15.2723 11.0179 15.4645L13.5211 17.8922C13.7141 18.0786 13.9693 18.1478 14.2868 18.0972C14.6039 18.0474 14.8871 17.8938 15.1361 17.6374L18.6084 14.0557L16.3114 11.8284L13.8199 14.3985L14.4949 15.0529L16.1049 13.392L17.0522 14.3109L14.4257 17.0195L11.8618 14.5335L15.3692 10.9152L14.6945 10.2612L11.2222 13.8421Z" fill="url(#paint5_linear_10704_17903)"/>
<path d="M21.4388 6.13658C21.0914 6.25641 20.8295 6.44628 20.6525 6.70733C20.4755 6.968 20.4323 7.22867 20.5218 7.49011L21.6543 10.7885C21.7415 11.0422 21.938 11.2188 22.2441 11.318C22.5495 11.4173 22.8713 11.4091 23.2094 11.2928L27.9275 9.67272L27.6225 8.78374L22.8557 10.4205L22.4274 9.1724L27.1933 7.53603L26.8883 6.64664L22.122 8.28301L21.6963 7.0427L26.4623 5.40593L26.1573 4.51694L21.4388 6.13658Z" fill="url(#paint6_linear_10704_17903)"/>
<path d="M32.6273 4.07507C32.3546 4.23341 32.2017 4.44934 32.169 4.72362L31.7558 8.18624C31.7239 8.45235 31.8235 8.69746 32.0558 8.91922C32.2884 9.14137 32.5818 9.27365 32.9366 9.31645L37.8897 9.9082L38.0013 8.97447L32.9977 8.37649L33.1541 7.06614L38.1577 7.66451L38.2694 6.73116L33.2657 6.13317L33.421 4.83022L38.425 5.42821L38.5367 4.49524L33.5836 3.9031C33.5046 3.89376 33.428 3.8891 33.3533 3.8891C33.0829 3.8891 32.8405 3.95096 32.6273 4.07507Z" fill="url(#paint7_linear_10704_17903)"/>
<path d="M41.9378 10.2937C41.7978 10.5225 41.7873 10.7866 41.9059 11.0858C42.0246 11.3842 42.2374 11.6266 42.5421 11.813L45.9074 13.8652L46.4809 12.9253L43.2505 10.9555L45.516 7.24114L44.2656 6.4778L41.9378 10.2937Z" fill="url(#paint8_linear_10704_17903)"/>
<path d="M51.0328 15.1597L48.9062 16.868L49.6937 17.8477L51.8195 16.1393L55.5198 16.3957L54.7265 15.4087L52.0662 15.1289L52.3634 12.467L51.5767 11.4877L51.0328 15.1597Z" fill="url(#paint9_linear_10704_17903)"/>
<defs>
<radialGradient id="paint0_radial_10704_17903" cx="0" cy="0" r="1" gradientUnits="userSpaceOnUse" gradientTransform="translate(32.8727 32.9494) scale(31.3726 31.3727)">
<stop stop-color="#377ABD"/>
<stop offset="0.164634" stop-color="#377ABD"/>
<stop offset="1" stop-color="#36395E"/>
</radialGradient>
<radialGradient id="paint1_radial_10704_17903" cx="0" cy="0" r="1" gradientUnits="userSpaceOnUse" gradientTransform="translate(32.9999 33.0002) scale(31.9999 32)">
<stop stop-color="white"/>
<stop offset="0.763959" stop-color="white"/>
<stop offset="0.956039" stop-color="#F5F6F6"/>
<stop offset="1" stop-color="#A0A2A4"/>
</radialGradient>
<radialGradient id="paint2_radial_10704_17903" cx="0" cy="0" r="1" gradientUnits="userSpaceOnUse" gradientTransform="translate(32.6499 32.7252) scale(20.9507 20.9508)">
<stop stop-color="#B1DEEA"/>
<stop offset="0.36257" stop-color="#B1DEEA"/>
<stop offset="1" stop-color="#0085B7"/>
</radialGradient>
<linearGradient id="paint3_linear_10704_17903" x1="22.886" y1="28.1985" x2="38.2177" y2="54.7537" gradientUnits="userSpaceOnUse">
<stop stop-color="white"/>
<stop offset="0.62786" stop-color="white"/>
<stop offset="0.785721" stop-color="#BEC0C2"/>
<stop offset="1" stop-color="#BEC0C2"/>
</linearGradient>
<radialGradient id="paint4_radial_10704_17903" cx="0" cy="0" r="1" gradientUnits="userSpaceOnUse" gradientTransform="translate(32.8239 32.9455) scale(22.2253 22.2254)">
<stop stop-color="#96989B"/>
<stop offset="0.093399" stop-color="white"/>
<stop offset="0.769556" stop-color="white"/>
<stop offset="0.93956" stop-color="#F5F6F6"/>
<stop offset="1" stop-color="#A0A2A4"/>
</radialGradient>
<linearGradient id="paint5_linear_10704_17903" x1="10.7695" y1="14.1873" x2="18.6082" y2="14.1873" gradientUnits="userSpaceOnUse">
<stop stop-color="white"/>
<stop offset="0.180019" stop-color="white"/>
<stop offset="0.225281" stop-color="#F5F6F6"/>
<stop offset="1" stop-color="#A0A2A4"/>
</linearGradient>
<linearGradient id="paint6_linear_10704_17903" x1="20.4765" y1="7.95175" x2="27.9274" y2="7.95175" gradientUnits="userSpaceOnUse">
<stop stop-color="white"/>
<stop offset="0.180019" stop-color="white"/>
<stop offset="0.225281" stop-color="#F5F6F6"/>
<stop offset="1" stop-color="#A0A2A4"/>
</linearGradient>
<linearGradient id="paint7_linear_10704_17903" x1="31.7499" y1="6.89855" x2="38.5367" y2="6.89855" gradientUnits="userSpaceOnUse">
<stop stop-color="white"/>
<stop offset="0.180019" stop-color="white"/>
<stop offset="0.225281" stop-color="#F5F6F6"/>
<stop offset="1" stop-color="#A0A2A4"/>
</linearGradient>
<linearGradient id="paint8_linear_10704_17903" x1="41.8242" y1="10.1716" x2="46.4807" y2="10.1716" gradientUnits="userSpaceOnUse">
<stop stop-color="white"/>
<stop offset="0.180019" stop-color="white"/>
<stop offset="0.225281" stop-color="#F5F6F6"/>
<stop offset="1" stop-color="#A0A2A4"/>
</linearGradient>
<linearGradient id="paint9_linear_10704_17903" x1="48.9066" y1="14.6677" x2="55.5198" y2="14.6677" gradientUnits="userSpaceOnUse">
<stop stop-color="white"/>
<stop offset="0.180019" stop-color="white"/>
<stop offset="0.225281" stop-color="#F5F6F6"/>
<stop offset="1" stop-color="#A0A2A4"/>
</linearGradient>
</defs>
</svg>
