<svg width="64" height="64" viewBox="0 0 64 64" fill="none" xmlns="http://www.w3.org/2000/svg">
<g clip-path="url(#clip0_10704_16618)">
<path d="M1.15906 28.8637C2.05602 28.8848 2.90022 28.9006 3.74442 28.9217C4.21929 28.9323 4.7047 28.9428 5.17956 28.9534C5.91824 28.9692 6.65691 28.9903 7.39559 29.0062C7.87045 29.0167 8.33476 29.0273 8.80963 29.0378C9.35836 29.0484 9.90709 29.0642 10.4453 29.0747C10.8463 29.0853 11.2367 29.0906 11.6377 29.1011C12.408 29.1222 13.1784 29.1381 13.9487 29.1592C14.3497 29.1697 14.7507 29.175 15.1622 29.1855C15.827 29.2014 16.4919 29.2225 17.1461 29.2383C17.5788 29.2489 18.0114 29.2594 18.4335 29.27C19.0983 29.2858 19.7737 29.3069 20.4385 29.3227C20.8395 29.3333 21.2405 29.3438 21.652 29.3544C22.148 29.3649 22.6545 29.3702 23.1505 29.3913C24.058 29.423 24.9022 29.3175 25.7359 29.1644C26.9916 28.9323 28.2685 28.7423 29.5664 28.5788C30.4106 28.4733 31.2548 28.3783 32.1096 28.2833C32.2151 28.2728 32.3312 28.2728 32.4367 28.2833C34.2939 28.4733 36.1301 28.716 37.9346 29.0114C38.5044 29.1064 39.0742 29.2066 39.6441 29.3016C40.024 29.3649 40.4144 29.3966 40.8154 29.3913C41.4063 29.386 41.9867 29.3702 42.5777 29.3597C43.0209 29.3491 43.4641 29.3438 43.9073 29.3333C44.5615 29.3175 45.2158 29.2963 45.87 29.2805C46.3238 29.27 46.7776 29.2594 47.2208 29.2489C47.9067 29.233 48.582 29.2119 49.2679 29.1961C49.7639 29.1855 50.2493 29.175 50.7453 29.1644C51.4312 29.1486 52.1277 29.1275 52.8136 29.1117C53.2885 29.1011 53.7528 29.0958 54.2276 29.08C54.9346 29.0642 55.6522 29.0431 56.3592 29.0273C56.8552 29.0167 57.3406 29.0062 57.8366 28.9956C58.5647 28.9798 59.2823 28.9587 60.0104 28.9428C60.5064 28.9323 61.0129 28.9217 61.5089 28.9112C62.1526 28.9006 62.7963 28.8848 63.44 28.8795C63.5772 28.8795 63.7249 28.8901 63.8621 28.9059C64.242 28.9534 64.358 29.0695 64.1681 29.2436C63.9781 29.4283 63.7776 29.6076 63.5666 29.7818C63.0284 30.2197 62.4375 30.6365 61.7094 31.0059C61.2556 31.2327 60.7385 31.4174 60.1476 31.5493C59.3561 31.7287 58.5436 31.8606 57.7205 31.9925C55.1985 32.383 52.6975 32.7839 50.1649 33.1638C47.1363 33.6123 44.1078 34.045 41.0686 34.4776C39.6441 34.6834 38.2089 34.8892 36.7738 35.0791C35.3281 35.2691 33.8824 35.4379 32.4261 35.6173C32.3101 35.6331 32.1834 35.6279 32.0674 35.6173C29.2076 35.2849 26.369 34.9103 23.5515 34.4987C20.4807 34.0503 17.3888 33.6176 14.318 33.1638C11.8065 32.7892 9.31615 32.3935 6.82575 32.0031C6.12929 31.8923 5.45393 31.7709 4.76802 31.6443C3.80774 31.4702 3.0374 31.1694 2.3726 30.7842C1.58116 30.3199 0.91635 29.8134 0.357067 29.2752C0.146017 29.0695 0.272647 28.9481 0.726404 28.9059C0.905797 28.8742 1.06408 28.869 1.15906 28.8637ZM23.1927 31.8817C23.045 31.8923 22.9078 31.9028 22.7706 31.9081C22.3907 31.9186 22.0214 31.9239 21.6415 31.9292C21.2194 31.9345 20.7973 31.9397 20.3752 31.9503C20.1219 31.9556 19.8687 31.9609 19.6259 31.9714C19.3832 31.9767 19.1405 31.9925 18.8873 31.9978C18.5285 32.0031 18.1591 32.0031 17.8004 32.0136C17.2516 32.0242 16.7135 32.0453 16.1647 32.0611C15.7637 32.0717 15.3627 32.0822 14.9617 32.0928C14.5502 32.1033 14.1386 32.1086 13.7376 32.1139C13.6216 32.1139 13.5055 32.1139 13.3894 32.1139C13.1467 32.1191 12.9146 32.1244 12.6718 32.1297C12.4291 32.135 12.197 32.135 11.9543 32.1402C11.9015 32.1402 11.8487 32.1561 11.796 32.1614C11.796 32.1719 11.796 32.1772 11.796 32.1877C11.8699 32.2036 11.9332 32.2247 12.0176 32.2352C12.3131 32.2774 12.6085 32.3144 12.904 32.3619C14.6557 32.6309 16.4074 32.9053 18.1803 33.1322C18.6868 33.1955 19.1933 33.2588 19.7209 33.2483C20.6073 33.2377 21.4832 33.2166 22.3696 33.2113C23.0766 33.206 23.7836 33.2008 24.4907 33.2061C24.8494 33.2061 25.1766 33.2694 25.4615 33.3749C25.5459 33.4065 25.5987 33.4435 25.5881 33.5121C25.4509 33.5385 25.3032 33.5701 25.1449 33.5965C24.5751 33.6862 24.0052 33.7706 23.4354 33.8603C23.351 33.8709 23.2349 33.8814 23.2455 33.9342C23.256 33.9922 23.3721 33.9975 23.4671 34.008C23.7731 34.0503 24.0897 34.0819 24.3957 34.1294C25.5037 34.2982 26.6012 34.4724 27.7092 34.6359C27.9835 34.6781 28.2685 34.7045 28.5428 34.7362C28.6272 34.7467 28.7011 34.7467 28.775 34.6992C28.7328 34.6728 28.7117 34.6412 28.6589 34.6201C28.5639 34.5726 28.469 34.5304 28.374 34.4882C27.6775 34.198 27.0338 33.8867 26.5062 33.5226C25.8836 33.0952 25.3032 32.6468 24.7017 32.2141C24.2585 31.8923 23.8258 31.5704 23.351 31.2538C23.1188 31.1008 22.8445 30.9584 22.5595 30.8212C22.1691 30.6312 21.652 30.5574 21.1455 30.4888C20.0269 30.341 18.8873 30.2566 17.737 30.1775C17.1567 30.1353 16.5657 30.1036 15.9853 30.072C15.3311 30.0297 14.6663 29.9928 14.012 29.9559C13.4633 29.9242 12.9146 29.8978 12.3658 29.8662C11.5216 29.8187 10.6669 29.7712 9.82267 29.7237C9.39001 29.7026 8.96791 29.6815 8.53526 29.6604C7.93377 29.6288 7.34283 29.5971 6.74133 29.5654C6.35089 29.5443 5.971 29.5285 5.58056 29.5074C5.35896 29.4968 5.14791 29.4757 4.9263 29.4652C4.71525 29.4546 4.49365 29.4546 4.27205 29.4388C3.75497 29.3966 3.2379 29.3966 2.72083 29.4019C2.67862 29.4019 2.63641 29.4177 2.58365 29.423C2.65751 29.5549 2.7947 29.6604 2.94243 29.7659C3.4384 30.1194 4.01879 30.4255 4.6836 30.6998C5.40117 31.0006 6.1926 31.2011 7.13178 31.2538C7.57498 31.2802 8.00764 31.3172 8.45084 31.3383C9.05233 31.3699 9.64327 31.391 10.2448 31.4121C10.7618 31.428 11.2684 31.4332 11.7854 31.4438C12.4186 31.4543 13.0412 31.4702 13.6743 31.4754C14.8351 31.4807 16.0064 31.4754 17.1672 31.4807C18.0325 31.4807 18.8873 31.4965 19.7526 31.4965C20.2063 31.4965 20.6601 31.4965 21.1139 31.4965C21.3777 31.4965 21.652 31.4965 21.9158 31.4965C22.0319 31.4965 22.148 31.5018 22.2535 31.5176C22.5384 31.5651 22.7917 31.6337 23.0239 31.7287C23.1188 31.7604 23.1927 31.8026 23.1927 31.8817ZM38.9793 33.4329C39.032 33.4118 39.0742 33.3854 39.1375 33.3591C39.4119 33.2588 39.7285 33.2061 40.0556 33.2008C40.6149 33.1955 41.1742 33.1955 41.7335 33.2008C42.6937 33.2113 43.6646 33.2324 44.6248 33.243C44.8675 33.2483 45.1103 33.2535 45.3424 33.2272C45.9017 33.1744 46.4715 33.1164 47.0203 33.0372C48.3604 32.8473 49.7006 32.6468 51.0408 32.4463C51.5156 32.3777 51.9799 32.3091 52.4548 32.2405C52.5603 32.2247 52.6659 32.2088 52.7292 32.1455C52.6764 32.1402 52.6342 32.1297 52.592 32.1297C52.3598 32.1244 52.1277 32.1297 51.9061 32.1244C51.6739 32.1191 51.4418 32.0928 51.2096 32.0928C50.8297 32.098 50.4498 32.0717 50.0699 32.0769C49.6478 32.0822 49.2257 32.0453 48.8036 32.04C48.2971 32.0347 47.7906 32.0189 47.2946 32.0031C46.957 31.9978 46.6087 31.9925 46.271 31.982C46.1233 31.9767 45.9756 31.9767 45.8173 31.9714C45.4374 31.9609 45.0575 31.945 44.6776 31.9398C44.245 31.9292 43.8017 31.9239 43.3691 31.9186C43.1158 31.9134 42.8626 31.9028 42.6093 31.8975C42.2083 31.8923 41.8073 31.8817 41.4063 31.8764C41.3747 31.8764 41.343 31.8659 41.2902 31.8553C41.343 31.8131 41.3747 31.7762 41.4274 31.7498C41.6385 31.6337 41.9234 31.5704 42.2083 31.5124C42.5249 31.4491 42.8626 31.4543 43.2003 31.4491C46.0811 31.4385 48.9725 31.4649 51.8533 31.428C52.5076 31.4174 53.1513 31.4174 53.8055 31.3963C54.6919 31.3699 55.5783 31.333 56.4648 31.296C56.8446 31.2802 57.2245 31.2486 57.6044 31.2169C58.0371 31.18 58.4592 31.1325 58.8496 31.0217C59.3561 30.8845 59.8099 30.7104 60.2426 30.5152C60.8652 30.2302 61.4033 29.9031 61.8571 29.5496C61.9099 29.5074 61.9837 29.4599 61.9415 29.3966C61.8887 29.3966 61.8465 29.3913 61.8043 29.3913C60.9918 29.386 60.2004 29.4335 59.3984 29.4757C58.5858 29.5232 57.7838 29.5602 56.9713 29.5971C56.5597 29.6182 56.1376 29.6393 55.7261 29.6604C54.998 29.6973 54.2698 29.7396 53.5417 29.7818C52.9824 29.8134 52.4231 29.8398 51.8744 29.8715C51.0513 29.9189 50.2282 29.9664 49.4157 30.0139C49.0147 30.035 48.6137 30.0561 48.2127 30.0825C47.6534 30.1194 47.1047 30.1511 46.5454 30.1933C45.8911 30.2408 45.2369 30.2936 44.5826 30.3516C44.1922 30.3885 43.8123 30.436 43.4324 30.4835C42.8309 30.5574 42.2505 30.6629 41.8179 30.9003C41.5224 31.0639 41.2269 31.2222 40.9737 31.4016C40.2456 31.9239 39.5491 32.4463 38.8421 32.9739C38.2195 33.4435 37.523 33.8814 36.6894 34.2613C36.4572 34.3668 36.225 34.4618 35.9929 34.5673C35.9085 34.6043 35.8241 34.6359 35.8029 34.7098C35.8768 34.7151 35.9401 34.7256 35.9929 34.7203C36.2567 34.694 36.5311 34.6728 36.7949 34.6306C37.713 34.4935 38.6205 34.351 39.5385 34.2138C40.0767 34.1347 40.6149 34.0291 41.1742 33.9869C41.2375 33.9817 41.3325 33.9711 41.3325 33.9236C41.343 33.8761 41.2586 33.8656 41.1847 33.8498C41.1742 33.8498 41.1636 33.8445 41.1425 33.8445C40.6254 33.7601 40.1084 33.6756 39.5913 33.5859C39.4541 33.5648 39.3169 33.5437 39.1797 33.5173C39.0848 33.5121 39.0004 33.4962 38.9793 33.4329ZM32.289 29.5918C32.289 29.5971 32.289 29.5971 32.289 29.6024C32.2362 29.6024 32.194 29.6024 32.1412 29.6076C32.0146 29.6182 31.8985 29.6288 31.7824 29.6393C30.5267 29.7712 29.3026 29.9453 28.0891 30.1564C27.667 30.2302 27.2449 30.3199 26.8439 30.4149C26.5589 30.4782 26.5273 30.531 26.6117 30.6787C26.7383 30.8898 26.8544 31.1008 27.0022 31.3066C27.3293 31.792 27.7092 32.2616 28.2262 32.7048C28.4267 32.8789 28.6589 33.0478 28.9649 33.1797C29.8619 33.5701 30.8644 33.8814 31.9407 34.1399C32.194 34.198 32.4261 34.2085 32.6583 34.1347C32.6794 34.1294 32.7111 34.1241 32.7322 34.1188C33.3231 33.9817 33.8824 33.8181 34.4206 33.6334C34.7899 33.5068 35.1381 33.3749 35.4864 33.2377C35.9823 33.0425 36.2989 32.7787 36.5838 32.5043C36.9848 32.1191 37.312 31.7129 37.5863 31.3013C37.7341 31.085 37.8607 30.8687 37.9873 30.6523C38.0506 30.5415 38.0084 30.4993 37.8185 30.436C37.7657 30.4202 37.713 30.4044 37.6602 30.3938C37.3331 30.3252 37.0059 30.2461 36.6788 30.188C35.5602 29.9875 34.41 29.8292 33.2492 29.6921C32.9327 29.6499 32.6055 29.6235 32.289 29.5918Z" fill="black"/>
</g>
<defs>
<clipPath id="clip0_10704_16618">
<rect width="64" height="64" fill="white"/>
</clipPath>
</defs>
</svg>
