<svg width="64" height="64" viewBox="0 0 64 64" fill="none" xmlns="http://www.w3.org/2000/svg">
<path fill-rule="evenodd" clip-rule="evenodd" d="M56.0227 26.0723H49.0104C45.2142 26.0723 42.1367 29.1495 42.1367 32.9458C42.1367 36.7415 45.2142 39.8188 49.0102 39.8188H56.0226C59.8187 39.8188 62.8961 36.7415 62.8961 32.9458C62.8961 29.1495 59.8187 26.0723 56.0227 26.0723ZM55.6061 36.9713H49.4268C47.2032 36.9713 45.4009 35.169 45.4009 32.9458C45.4009 30.7221 47.2032 28.9199 49.4268 28.9199H55.6061C57.8296 28.9199 59.6319 30.7221 59.6319 32.9458C59.6319 35.169 57.8296 36.9713 55.6061 36.9713ZM63.0465 38.3218C62.5149 38.3218 62.086 38.7518 62.086 39.28C62.086 39.8132 62.5149 40.2434 63.0465 40.2434C63.5752 40.2434 64.0014 39.8132 64.0014 39.28C64.0014 38.7518 63.5752 38.3218 63.0465 38.3218ZM63.0465 40.1276C62.58 40.1276 62.2038 39.7503 62.2038 39.28C62.2038 39.1693 62.2255 39.0598 62.2678 38.9575C62.3102 38.8553 62.3722 38.7624 62.4505 38.6842C62.5288 38.6059 62.6217 38.5439 62.724 38.5016C62.8262 38.4594 62.9358 38.4377 63.0465 38.4378C63.51 38.4378 63.8862 38.8151 63.8862 39.28C63.8862 39.7503 63.51 40.1276 63.0465 40.1276Z" fill="black"/>
<path fill-rule="evenodd" clip-rule="evenodd" d="M63.5352 39.029C63.5352 38.9384 63.4952 38.8429 63.415 38.7975C63.3348 38.7498 63.2446 38.7447 63.1543 38.7447H62.688V39.8185H62.8182V39.3229H63.0588L63.3648 39.8184H63.5202L63.1968 39.3229C63.3875 39.3179 63.5352 39.24 63.5352 39.029ZM63.0188 39.2215H62.8184V38.8414H63.1244C63.2569 38.8414 63.4027 38.8619 63.4027 39.028C63.4027 39.2469 63.1694 39.2215 63.0188 39.2215ZM37.3781 34.1597C39.6013 34.1597 41.4039 32.357 41.4039 30.1338C41.4039 27.9106 39.6013 26.0732 37.3781 26.0732L28.0396 26.0725C24.2436 26.0725 21.1661 29.1497 21.1661 32.946C21.1661 36.7417 24.2436 39.8191 28.0396 39.8191H40.7454V36.9715H28.4561C26.2327 36.9715 24.4303 35.1692 24.4303 32.946C24.4303 30.7223 26.2327 28.9201 28.4561 28.9201L36.9614 28.9208C37.6123 28.9208 38.1397 29.4833 38.1397 30.1338C38.1397 30.4463 38.0156 30.7461 37.7946 30.967C37.5736 31.188 37.2739 31.3122 36.9614 31.3122H26.3383V34.1611L37.3781 34.1597ZM8.45978 36.9695C5.58573 36.9695 3.25563 34.7784 3.25563 31.9043C3.25563 29.0302 5.58573 26.7349 8.45978 26.7349L19.8814 26.7316V24H7.90435C3.53895 24 0 27.5389 0 31.9043C0 36.2696 3.53895 39.8087 7.90435 39.8087H19.8814V31.2102H9.95264V34.0567H16.5485V36.9728L8.45978 36.9695ZM56.785 29.8725L56.2209 29.8714C56.5347 30.0877 56.9879 30.4659 57.3653 30.9936L55.4443 30.9923C55.1648 30.5572 54.8071 30.1775 54.3894 29.8725L53.8255 29.8714C54.1393 30.0877 54.5926 30.4659 54.9699 30.9936H52.8266V29.8733H52.2886V30.9935H50.1455C50.5225 30.4659 50.9757 30.0877 51.2898 29.8713L50.7257 29.8726C50.3079 30.1775 49.9502 30.5571 49.6708 30.9923L47.7499 30.9935C48.1273 30.4659 48.5804 30.0877 48.8943 29.8713L48.3301 29.8726C47.3494 30.5866 46.6598 31.7439 46.6598 33.0499C46.6598 34.2539 47.2535 35.3312 48.0716 36.0171L48.6265 36.0173C48.3091 35.7127 48.017 35.4114 47.7737 35.0906L49.6581 35.0899C49.8784 35.4386 50.1512 35.7513 50.4668 36.017L51.0217 36.0173C50.7058 35.714 50.415 35.414 50.1722 35.0863H52.2886V36.0179H52.8266V35.0865H54.9431C54.6998 35.414 54.4096 35.714 54.0934 36.0173L54.648 36.017C54.9637 35.7513 55.2366 35.4387 55.4572 35.0899L57.3413 35.0906C57.098 35.4112 56.806 35.7127 56.4887 36.0173L57.0436 36.017C57.8617 35.3312 58.4555 34.2539 58.4555 33.0498C58.4555 31.7438 57.7658 30.5866 56.785 29.8725ZM47.4261 34.5524C47.2212 34.171 47.0992 33.7506 47.0683 33.3187H49.0652C49.0973 33.7443 49.2016 34.1613 49.3738 34.5519L47.4261 34.5524ZM49.0652 32.7808H47.0704C47.1091 32.3159 47.2414 31.9001 47.4239 31.534H49.3808C49.2078 31.9238 49.0972 32.339 49.0652 32.7808ZM52.2886 34.5484L49.8235 34.5475C49.6272 34.1794 49.4983 33.7846 49.4636 33.3187H52.2885V34.5484H52.2886ZM52.2886 32.7808H49.4655C49.5019 32.3459 49.6232 31.9222 49.8227 31.534H52.2885V32.7808H52.2886ZM52.8266 31.534H55.2924C55.4918 31.9222 55.6131 32.3459 55.6493 32.7808H52.8266V31.534ZM55.2917 34.5475L52.8266 34.5484V33.3187H55.6515C55.6169 33.7845 55.4878 34.1794 55.2917 34.5473V34.5475ZM57.6915 31.534C57.8735 31.9002 58.006 32.3159 58.0449 32.7808H56.0502C56.018 32.339 55.907 31.924 55.7344 31.534H57.6913H57.6915ZM55.7413 34.5519C55.9135 34.1613 56.0179 33.7443 56.05 33.3187H58.0467C58.0158 33.7506 57.8939 34.1711 57.6889 34.5524L55.7413 34.5519Z" fill="black"/>
</svg>
