<svg width="64" height="64" viewBox="0 0 64 64" fill="none" xmlns="http://www.w3.org/2000/svg">
<path d="M0 29.5583C0 27.4346 1.32144 26 3.81913 26H20.0332V29.012H4.30637C3.86589 29.012 3.47462 29.2384 3.47462 29.9028V34.9253C3.47462 35.5355 3.73054 35.9293 4.53522 35.9293H15.6112C16.1944 35.9293 16.6447 35.7225 16.6447 34.9548V33.7785H10.1606V30.9093H20.0332V35.5257C20.0332 37.7355 18.4263 38.9437 15.9016 38.9437H3.8462C1.40757 38.9437 0.00246078 37.6223 0.00246078 35.4125L0 29.5583ZM34.4977 38.9437L40.0369 29.1277V38.9437H43.5091V26H38.1692L32.8883 35.2968L27.6075 26H22.2701V38.9437H25.7422V29.1277L31.2815 38.9437H34.4977ZM63.9975 38.9437H49.4789C47.0354 38.9437 45.6352 37.6223 45.6352 35.4125V29.5583C45.6352 27.4346 46.9517 26 49.4494 26H64V29.2532H49.9391C49.4986 29.2532 49.1049 29.4771 49.1049 30.1415V34.6841C49.1049 35.2968 49.3633 35.6881 50.1679 35.6881H64V38.9437" fill="#CF4037"/>
</svg>
