<svg width="64" height="64" viewBox="0 0 64 64" fill="none" xmlns="http://www.w3.org/2000/svg">
<path d="M31.9965 40.3369C44.0241 40.3369 53.7743 33.7696 53.7743 25.6684C53.7743 17.5673 44.0241 11 31.9965 11C19.969 11 10.2188 17.5673 10.2188 25.6684C10.2188 33.7696 19.969 40.3369 31.9965 40.3369Z" fill="url(#paint0_linear_10704_16621)" stroke="black" stroke-width="3.08727"/>
<path d="M31.9959 39.1878C42.6489 39.1878 51.2848 33.1349 51.2848 25.6681C51.2848 18.2014 42.6489 12.1484 31.9959 12.1484C21.343 12.1484 12.707 18.2014 12.707 25.6681C12.707 33.1349 21.343 39.1878 31.9959 39.1878Z" fill="url(#paint1_radial_10704_16621)"/>
<path fill-rule="evenodd" clip-rule="evenodd" d="M43.9952 27.2154C43.1952 24.2111 42.2174 21.3834 40.4396 18.6441C38.6956 16.0851 35.0139 16.9961 32.1445 16.5508V34.122C32.1445 39.4203 41.5561 38.1258 46.9241 33.1676C45.0876 31.8528 44.581 29.3777 43.9952 27.2154Z" fill="url(#paint2_linear_10704_16621)"/>
<path fill-rule="evenodd" clip-rule="evenodd" d="M50.5644 25.6677C50.5644 18.4448 42.2106 12.5898 31.9057 12.5898H31.8906V15.6234H32.144V16.5494C35.0124 16.9948 38.6951 16.0838 40.4391 18.6428C42.2168 21.3821 43.1946 24.2097 43.9946 27.2141C44.5804 29.3764 45.088 31.8514 46.9235 33.1663C49.0657 31.1878 50.5644 28.627 50.5644 25.6677Z" fill="url(#paint3_linear_10704_16621)"/>
<path fill-rule="evenodd" clip-rule="evenodd" d="M19.9953 27.2154C20.7953 24.2111 21.7731 21.3834 23.5508 18.6441C25.2949 16.0851 28.9766 16.9961 31.846 16.5508V34.122C31.846 39.4203 22.4344 38.1258 17.0664 33.1676C18.9029 31.8528 19.4095 29.3777 19.9953 27.2154Z" fill="url(#paint4_linear_10704_16621)"/>
<path fill-rule="evenodd" clip-rule="evenodd" d="M13.4258 25.6677C13.4258 18.4448 21.7796 12.5898 32.0844 12.5898H32.0996V15.6234H31.8462V16.5494C28.9778 16.9948 25.2951 16.0838 23.5511 18.6428C21.7733 21.3821 20.7956 24.2097 19.9956 27.2141C19.4098 29.3764 18.9022 31.8514 17.0667 33.1663C14.9244 31.1878 13.4258 28.627 13.4258 25.6677Z" fill="url(#paint5_linear_10704_16621)"/>
<path d="M60.3093 42.0141C60.1467 41.7755 59.3529 41.8152 59.072 41.8444C58.8773 41.8647 58.6924 41.931 58.5387 42.0353C58.4613 44.657 58.496 47.8054 58.496 50.6031C58.496 50.8876 58.4258 51.629 58.5387 51.7907C58.664 51.9718 59.1813 51.9391 59.4347 51.9391C59.8089 51.9391 60.1556 51.9594 60.3093 51.7695C60.3867 49.2431 60.352 45.9639 60.352 43.2017C60.352 42.9216 60.4222 42.1793 60.3093 42.0141ZM62.1653 42.0565C62.1271 44.6235 62.144 47.7878 62.144 50.5606C62.144 50.9079 62.0613 51.6104 62.1867 51.7907C62.3209 51.9842 63.1538 51.9789 63.5307 51.9391C63.7164 51.9197 63.9227 51.8587 64 51.727V42.0777C63.6836 41.726 62.5209 41.7711 62.1653 42.0565ZM4.30933 43.9863C5.39467 43.784 6.392 44.1012 7.104 44.4317C7.26933 44.5086 7.67289 44.794 7.85067 44.7286C8.152 44.6182 8.07467 43.5463 7.95733 43.2865C7.81333 42.9666 7.29067 42.7634 6.912 42.6503C6.51289 42.531 5.94756 42.4258 5.48267 42.3958C4.31911 42.3198 3.35289 42.5239 2.624 42.8411C1.17067 43.4738 0.104 44.9195 0 46.9342V47.7613C0.268444 50.5818 2.00089 52.2731 5.376 52.0239C5.85333 51.9886 6.30311 51.9365 6.784 51.8119C7.18044 51.7085 7.82311 51.5706 7.95733 51.2605C8.06311 51.0148 8.02133 50.55 8.02133 50.1789V47.8885C8.02133 47.2938 8.11378 46.746 7.70133 46.5949C7.28622 46.4429 6.54756 46.5524 5.952 46.5524H5.056C4.77956 46.5524 4.36622 46.5136 4.224 46.5949C3.92889 46.7636 4.016 47.7683 4.224 47.9945C4.80711 48.044 5.48267 48.0016 6.10133 48.0157V50.2001C4.86311 50.7913 3.45511 50.338 2.79467 49.6487C2.09867 48.9233 1.75111 47.4926 2.09067 46.1707C2.38222 45.0343 3.13778 44.2046 4.30933 43.9863ZM48.704 42.6503C48.5698 42.7908 48.5191 43.328 48.4693 43.541C47.9627 45.6909 47.4364 48.0104 46.9547 50.0305C46.4089 47.8841 45.8782 45.7024 45.3333 43.5198C45.2676 43.2573 45.1884 42.7457 45.056 42.6291C44.8818 42.4762 44.4284 42.5018 44.0747 42.5018C43.7289 42.5018 43.2773 42.5018 43.1147 42.6503C42.9867 42.7669 42.9022 43.2432 42.8373 43.5198C42.3262 45.6953 41.7893 47.9256 41.28 50.0092C40.7964 47.9035 40.2427 45.6564 39.7653 43.5198C39.696 43.2114 39.6684 42.7404 39.5307 42.6079C39.3156 42.4011 37.792 42.4462 37.6533 42.6715C37.512 42.9012 37.7689 43.5366 37.8453 43.8379C38.4471 46.2052 39.0338 48.3993 39.6373 50.7091C39.7262 51.0475 39.8204 51.6431 40 51.7907C40.3147 52.0487 42.104 52.0284 42.3893 51.7907C42.5271 51.6758 42.5778 51.3444 42.6453 51.0696C43.1173 49.1433 43.5076 47.3557 44.0107 45.5345C44.4338 47.3636 44.936 49.1848 45.3973 51.006C45.4676 51.2817 45.4969 51.6404 45.632 51.7695C45.9493 52.0717 47.8107 52.0284 48.0853 51.7483C48.2596 51.5706 48.3351 50.9927 48.4267 50.6455C49.0231 48.3745 49.6853 46.0161 50.24 43.8379C50.3387 43.4517 50.5209 43.0453 50.4107 42.6291C50.096 42.4797 48.96 42.3825 48.704 42.6503ZM32.128 50.4122C31.9431 50.2841 31.8516 49.9377 31.8293 49.6487C31.7582 48.7129 31.8676 47.2965 31.8507 46.4464C32.3502 46.434 32.9013 46.4729 33.3653 46.4252C33.5956 46.1354 33.5991 45.318 33.3867 45.0043C32.9476 44.9106 32.3387 44.9857 31.8293 44.9619C31.816 44.445 31.8569 43.8741 31.808 43.3925C31.4498 43.1398 30.3476 43.1336 30.016 43.4138C29.9671 43.8953 30.008 44.4662 29.9947 44.9831C29.7484 44.9451 29.3671 44.9522 29.12 44.9831C28.8551 45.2606 28.8667 46.123 29.0987 46.4252C29.3529 46.4835 29.7413 46.4084 29.9947 46.4676C30.1449 48.0219 29.6542 50.2425 30.3573 51.3241C30.6116 51.7147 31.1378 52.0001 31.808 52.0452C32.3627 52.0823 33.2009 52.0098 33.408 51.727C33.616 51.4434 33.5769 50.6561 33.3867 50.3698C33.0329 50.4343 32.4604 50.6428 32.128 50.4122ZM13.3333 44.7922C12.2187 44.7118 11.904 45.5239 11.4347 45.9586C11.4222 45.667 11.4604 45.3251 11.4133 45.0679C11.096 44.8479 10.1404 44.8373 9.87733 45.1103C9.84178 47.2806 9.84178 49.5992 9.87733 51.7695C10.2338 52.0231 11.3342 52.0231 11.6907 51.7695C11.7404 50.4334 11.6978 49.0054 11.712 47.634C12.032 47.1922 12.32 46.6408 12.8853 46.51C13.2213 46.4323 13.6453 46.7345 13.8667 46.6373C14.0604 46.5524 14.0347 46.161 14.0373 45.8738C14.0462 45.0556 14.0267 44.8426 13.3333 44.7922ZM19.52 45.1103C18.9156 44.8152 18.1182 44.7092 17.3013 44.8346C15.8613 45.0564 15.0124 46.0311 14.72 47.4007C14.5644 48.1271 14.5858 49.0434 14.7413 49.7335C15.0649 51.1703 15.9458 51.9002 17.5787 52.0664H18.6027C18.9244 52.0204 19.328 51.9709 19.712 51.8755C20.0124 51.8004 20.4844 51.7085 20.608 51.4938C20.7564 51.2357 20.6862 50.5933 20.5867 50.2849C20.1804 50.2805 19.768 50.4776 19.328 50.5818C17.8782 50.9247 16.3653 50.5765 16.4907 48.9065H19.6053C20.1147 48.9065 20.6889 48.9869 20.8853 48.6944C21.0658 48.4258 21.0009 47.8593 20.9707 47.528C20.8587 46.2953 20.2969 45.4894 19.52 45.1103ZM16.4907 47.7188C16.5058 46.7654 17.0542 46.0143 18.0267 46.0859C18.8151 46.1442 19.2267 46.7742 19.2 47.7188C18.3938 47.7197 17.296 47.7188 16.4907 47.7188ZM28.0107 48.5035C28.0107 47.4158 28.0844 46.2971 27.5413 45.6193C26.792 44.6844 24.9342 44.6243 23.5733 45.0467C23.1609 45.1748 22.6631 45.3357 22.5067 45.6405C22.3493 45.9471 22.4311 46.7672 22.6987 46.8281C22.92 46.8785 23.2302 46.6311 23.4027 46.5524C23.9609 46.2971 25.0587 45.9083 25.7707 46.3404C26.168 46.5816 26.2267 47.0287 26.1973 47.7613C24.5396 47.7312 22.9698 47.8505 22.336 48.9065C21.9564 49.5391 22.0107 50.5067 22.336 51.0696C22.6596 51.6281 23.2809 51.9621 24.0427 52.0664H24.8107C25.1831 52.0133 25.4924 51.8817 25.7707 51.727C26.0551 51.5698 26.2738 51.3754 26.496 51.2181C26.504 51.3868 26.4676 51.6581 26.5173 51.8331C26.8284 51.9435 27.7813 52.0761 27.968 51.8119C28.0587 51.6846 28.0107 51.2463 28.0107 51.006V48.5035ZM26.1973 49.988C26.1458 50.1754 25.7573 50.497 25.472 50.6455C25.0169 50.8814 24.3218 50.7789 24.064 50.4758C23.8213 50.1913 23.8151 49.6717 24.0213 49.373C24.3716 48.8649 25.3164 48.8994 26.1973 48.9065C26.1262 49.29 26.2916 49.6461 26.1973 49.988ZM56.2773 45.6617C55.6107 44.7339 53.7538 44.6005 52.3733 45.0043C51.9698 45.1227 51.3387 45.3162 51.1787 45.6617C51.0347 45.9728 51.1084 46.7893 51.392 46.8281C51.608 46.8573 51.9369 46.6346 52.16 46.5312C52.8071 46.2299 54.4151 45.8173 54.784 46.6797C54.9173 46.9916 54.8658 47.2196 54.8907 47.7401C53.1173 47.748 51.576 47.8567 50.9653 49.0337C50.6231 49.6929 50.7289 50.6154 51.0507 51.1332C51.3698 51.6475 52.0258 51.9753 52.736 52.0664H53.4827C54.1271 51.9886 54.6089 51.682 55.0187 51.3241C55.056 51.2914 55.112 51.2013 55.168 51.2393C55.2071 51.5106 55.0871 51.7076 55.232 51.8543C55.4747 52.0999 56.3938 51.9082 56.64 51.8331C56.7191 50.6817 56.6827 49.6576 56.6827 48.5671C56.6827 47.475 56.7769 46.3572 56.2773 45.6617ZM54.8907 49.9668C54.8089 50.3026 54.0702 50.74 53.6533 50.7727C53.2071 50.8072 52.8373 50.641 52.672 50.3698C52.416 49.9492 52.608 49.358 52.9493 49.1397C53.4044 48.849 54.0907 48.9233 54.8907 48.9065C54.8284 49.2873 54.9733 49.6266 54.8907 49.9668Z" fill="#CE181E"/>
<path fill-rule="evenodd" clip-rule="evenodd" d="M43.3754 32.5233C43.1576 32.5233 42.9469 32.5074 42.7469 32.4756C42.6216 32.4553 39.6509 31.9224 39.7336 28.281V21.8268L32.0002 17.6189L24.2669 21.8268V28.2757C24.3505 31.9224 21.3798 32.4553 21.2536 32.4756C21.0554 32.5074 20.8438 32.5233 20.626 32.5233C20.0145 32.5233 18.4483 32.3802 17.122 31.0574C15.8971 29.8353 15.2811 28.0229 15.2891 25.6698C15.3131 19.1406 22.81 13.8281 32.0002 13.8281C41.1905 13.8281 48.6874 19.1406 48.7114 25.6698C48.7202 28.022 48.1034 29.8353 46.8794 31.0565C45.5531 32.3802 43.9869 32.5233 43.3754 32.5233Z" fill="white"/>
<path d="M31.9998 14.0492C36.4283 14.0492 40.5847 15.2749 43.7056 17.499C46.7785 19.6904 48.4781 22.5923 48.4887 25.6709C48.4976 27.9631 47.9029 29.7224 46.7207 30.9012C45.4532 32.1656 43.9581 32.3026 43.3741 32.3026C43.1678 32.3026 42.9687 32.2876 42.7821 32.2575C42.7749 32.2567 42.0505 32.1277 41.3483 31.5922C40.3909 30.8623 39.9216 29.7498 39.9554 28.2856V21.6963L39.7243 21.5708L32.2132 17.484L31.9998 17.3682L31.7865 17.484L24.2754 21.5708L24.0443 21.6963V28.2865C24.1225 31.7274 21.3349 32.239 21.2185 32.2584C21.0309 32.2885 20.8309 32.3035 20.6256 32.3035C20.0416 32.3035 18.5465 32.1665 17.2789 30.902C16.0976 29.7233 15.5029 27.9631 15.5109 25.6718C15.5225 22.594 17.2212 19.6913 20.2949 17.4999C23.4149 15.2749 27.5714 14.0492 31.9998 14.0492ZM31.9998 13.6074C22.6478 13.6074 15.0914 19.0074 15.0665 25.6691C15.0461 31.0779 18.3518 32.7444 20.6256 32.7444C20.8594 32.7444 21.0816 32.7268 21.2887 32.6941C21.2887 32.6941 24.5776 32.1639 24.4887 28.2759V21.9578L31.9998 17.871L39.5109 21.9578V28.2759C39.4221 32.1639 42.7109 32.6941 42.7109 32.6941C42.9181 32.7268 43.1403 32.7444 43.3741 32.7444C45.647 32.7444 48.9536 31.0779 48.9332 25.6691C48.9083 19.0074 41.3518 13.6074 31.9998 13.6074Z" fill="#4D4D4D"/>
<path d="M22.6172 22.2722L32.7874 16.707L33.1954 17.444L23.0253 23.0092L22.6172 22.2722Z" fill="white"/>
<path d="M30.8008 17.444L31.2088 16.707L41.3789 22.2722L40.9709 23.0092L30.8008 17.444Z" fill="white"/>
<defs>
<linearGradient id="paint0_linear_10704_16621" x1="21.2068" y1="14.7747" x2="43.8255" y2="37.8833" gradientUnits="userSpaceOnUse">
<stop stop-color="#F7F7F7"/>
<stop offset="1" stop-color="#252525"/>
</linearGradient>
<radialGradient id="paint1_radial_10704_16621" cx="0" cy="0" r="1" gradientUnits="userSpaceOnUse" gradientTransform="translate(32.0404 38.2158) scale(14.0582 13.9752)">
<stop stop-color="#CCCCCC"/>
<stop offset="1" stop-color="white"/>
</radialGradient>
<linearGradient id="paint2_linear_10704_16621" x1="30.0698" y1="20.5559" x2="43.9744" y2="35.1906" gradientUnits="userSpaceOnUse">
<stop stop-color="#9B9B9B"/>
<stop offset="0.093" stop-color="#828282"/>
<stop offset="0.251" stop-color="#5E5E5E"/>
<stop offset="0.4" stop-color="#444444"/>
<stop offset="0.533" stop-color="#343434"/>
<stop offset="0.638" stop-color="#2F2F2F"/>
<stop offset="0.781" stop-color="white"/>
<stop offset="1" stop-color="#A0A0A0"/>
</linearGradient>
<linearGradient id="paint3_linear_10704_16621" x1="41.7304" y1="30.275" x2="40.8938" y2="13.8642" gradientUnits="userSpaceOnUse">
<stop stop-color="#9B9B9B"/>
<stop offset="0.542" stop-color="#2F2F2F"/>
<stop offset="0.722" stop-color="#313131"/>
<stop offset="0.796" stop-color="#383838"/>
<stop offset="0.852" stop-color="#444444"/>
<stop offset="0.897" stop-color="#565656"/>
<stop offset="0.936" stop-color="#6D6D6D"/>
<stop offset="0.971" stop-color="#888888"/>
<stop offset="1" stop-color="#A6A6A6"/>
</linearGradient>
<linearGradient id="paint4_linear_10704_16621" x1="33.9207" y1="20.5559" x2="20.0161" y2="35.1906" gradientUnits="userSpaceOnUse">
<stop stop-color="#9B9B9B"/>
<stop offset="0.093" stop-color="#828282"/>
<stop offset="0.251" stop-color="#5E5E5E"/>
<stop offset="0.4" stop-color="#444444"/>
<stop offset="0.533" stop-color="#343434"/>
<stop offset="0.638" stop-color="#2F2F2F"/>
<stop offset="0.781" stop-color="white"/>
<stop offset="1" stop-color="#A0A0A0"/>
</linearGradient>
<linearGradient id="paint5_linear_10704_16621" x1="22.2597" y1="30.275" x2="23.0963" y2="13.8642" gradientUnits="userSpaceOnUse">
<stop stop-color="#9B9B9B"/>
<stop offset="0.542" stop-color="#2F2F2F"/>
<stop offset="0.722" stop-color="#313131"/>
<stop offset="0.796" stop-color="#383838"/>
<stop offset="0.852" stop-color="#444444"/>
<stop offset="0.897" stop-color="#565656"/>
<stop offset="0.936" stop-color="#6D6D6D"/>
<stop offset="0.971" stop-color="#888888"/>
<stop offset="1" stop-color="#A6A6A6"/>
</linearGradient>
</defs>
</svg>
