<svg width="64" height="64" viewBox="0 0 64 64" fill="none" xmlns="http://www.w3.org/2000/svg">
<path d="M21.3103 52.3041C21.3103 51.543 21.1719 50.9203 20.9297 50.4014C20.4627 49.4327 19.5978 48.9484 18.3524 48.9484C17.3665 48.9484 16.5535 49.2424 15.9135 49.8305C15.2389 50.4532 14.893 51.2662 14.893 52.2349C14.893 53.29 15.2735 54.1722 16.0346 54.8468C16.6919 55.4349 17.5222 55.7289 18.5254 55.7289C19.3903 55.7289 20.2724 55.4868 21.1546 55.0197L21.293 54.9505L20.653 53.8435L20.5319 53.9127C19.9784 54.2241 19.4422 54.3797 18.9059 54.3797C18.3524 54.3797 17.9027 54.2241 17.5741 53.8781C17.2627 53.5841 17.107 53.1516 17.0724 52.65H20.8605L21.3103 52.3041ZM17.0724 51.5257C17.1589 50.6089 17.5741 50.1419 18.3524 50.1419C19.0443 50.1419 19.4076 50.5397 19.4768 51.3873C19.4768 51.3873 19.4768 51.4565 19.4768 51.5257H17.0724ZM56.5795 53.4803V51.8197C56.5795 51.2662 56.5449 50.8684 56.4757 50.5916C56.4065 50.3322 56.2854 50.09 56.1124 49.8651C55.6454 49.277 54.867 48.9657 53.7946 48.9657C52.7914 48.9657 51.8919 49.2597 51.1135 49.8478L50.9924 49.9343L51.7362 50.9549L51.8573 50.8511C52.3935 50.4359 52.9124 50.2284 53.4314 50.2284C54.0195 50.2284 54.3827 50.5224 54.5557 51.0759C54.3135 51.1278 53.6216 51.2835 53.6216 51.2835C52.8951 51.4392 52.307 51.6468 51.84 51.9235C50.9924 52.3905 50.56 53.0305 50.56 53.8262C50.56 54.3797 50.7676 54.8468 51.1654 55.21C51.5632 55.5732 52.0476 55.7635 52.6011 55.7635C53.3795 55.7635 54.0368 55.4349 54.5903 54.8986C54.6249 55.1062 54.6422 55.3311 54.7113 55.5214L54.7459 55.6251H56.9081L56.8216 55.4176C56.6659 54.9505 56.5795 54.3105 56.5795 53.4803ZM54.4346 53.5322C54.3654 53.7397 54.227 53.9127 54.0195 54.0857C53.7773 54.2586 53.5178 54.3451 53.2411 54.3451C53.0335 54.3451 52.8605 54.2759 52.7049 54.1376C52.5665 53.9992 52.4973 53.8089 52.4973 53.5841C52.4973 53.0478 53.0335 52.65 54.0714 52.4078C54.0714 52.4078 54.3827 52.3386 54.5903 52.2868C54.5903 52.4597 54.5903 52.7192 54.5903 52.7365C54.5903 52.9786 54.5384 53.2381 54.4346 53.5322ZM61.9762 55.5905H64V46.25H61.9762V55.5905ZM13.4054 48.9657C12.9211 48.9657 12.4886 49.277 12.1081 49.8478V49.1214H10.0843V55.5905H12.1081V52.8057C12.1081 52.1484 12.16 51.6641 12.2638 51.3873C12.4368 50.9549 12.7135 50.7473 13.1459 50.7473C13.2497 50.7473 13.4573 50.7992 13.907 51.0068L14.0454 51.0759L14.8238 49.6749L14.7373 49.5884C14.253 49.1732 13.8205 48.9657 13.4054 48.9657ZM46.72 52.9441C46.4605 52.1138 44.7481 46.6651 44.7481 46.6651H43.1395C43.1395 46.6651 41.3405 52.1138 41.0638 52.9441C40.8389 52.1138 39.3341 46.5441 39.3341 46.5441L39.213 46.5613L37.2065 46.8208L39.8357 55.5905H41.7557C41.7557 55.5905 43.4854 50.4014 43.7449 49.6576C43.987 50.4187 45.6649 55.5905 45.6649 55.5905H47.5676L50.3524 46.7862L48.5362 46.5441C48.5535 46.5441 46.9622 52.1138 46.72 52.9441ZM58.24 55.5905H60.2638V46.25H58.24V55.5905ZM28.0735 53.4803V51.8197C28.0735 51.2835 28.0389 50.8684 27.9697 50.5916C27.9005 50.3495 27.7795 50.09 27.6065 49.8651C27.1395 49.277 26.3611 48.9657 25.2714 48.9657C24.2681 48.9657 23.3687 49.2597 22.5903 49.8478L22.4692 49.9343L23.213 50.9549L23.3341 50.8684C23.8703 50.4532 24.3892 50.2284 24.8908 50.2284C25.4789 50.2284 25.8422 50.5224 26.0151 51.0759C25.773 51.1278 25.0811 51.2835 25.0811 51.2835C24.3546 51.4392 23.7665 51.6468 23.2995 51.9235C22.4519 52.3905 22.0195 53.0305 22.0195 53.8262C22.0195 54.3797 22.227 54.8468 22.6249 55.21C23.0227 55.5732 23.507 55.7635 24.0605 55.7635C24.8389 55.7635 25.4962 55.4349 26.067 54.8986C26.0843 55.1062 26.1189 55.3311 26.1881 55.5214L26.2227 55.6251H28.3849L28.2984 55.4176C28.1427 54.9505 28.0735 54.3105 28.0735 53.4803ZM25.9286 53.5322C25.8595 53.7397 25.7211 53.9127 25.5135 54.0857C25.2714 54.2586 25.0119 54.3451 24.7351 54.3451C24.5276 54.3451 24.3546 54.2759 24.1989 54.1376C24.0605 53.9992 23.9914 53.8089 23.9914 53.5841C23.9914 53.0478 24.5103 52.65 25.5654 52.4078C25.5654 52.4078 25.8768 52.3386 26.0843 52.2868C26.0843 52.4597 26.0843 52.7365 26.0843 52.7538C26.0843 52.9787 26.0324 53.2554 25.9286 53.5322ZM33.4876 54.2586C33.2281 54.3797 32.9859 54.4489 32.7265 54.4489C32.4324 54.4489 32.2422 54.3624 32.1384 54.1549C32.0173 53.93 31.9481 53.5322 31.9481 52.9268V50.2457H33.6778V49.1041H31.9481V47.2359L31.7751 47.2705L29.9243 47.6511V49.1041H29.0076V50.2457H29.9243V53.2727C29.9243 54.0857 30.0454 54.6219 30.2876 54.9505C30.6681 55.4695 31.2735 55.7289 32.0865 55.7289C32.6746 55.7289 33.2973 55.5905 33.92 55.3138L34.0584 55.2619L33.6432 54.1895L33.4876 54.2586ZM5.20649 52.0273H6.4V54.0165C6.03676 54.1203 5.69081 54.2068 5.34487 54.2068C4.44541 54.2068 3.70162 53.9127 3.13081 53.3419C2.56 52.7538 2.28324 52.01 2.28324 51.0759C2.28324 50.1765 2.5773 49.4327 3.1827 48.8792C3.78811 48.3257 4.58378 48.0489 5.56973 48.0489C6.20973 48.0489 6.83243 48.2046 7.43784 48.4986L7.55892 48.5505L8.3027 47.2705L8.16432 47.2014C7.29946 46.7343 6.36541 46.5095 5.37946 46.5095C3.8227 46.5095 2.52541 46.9419 1.52216 47.8068C0.501622 48.6716 0 49.7959 0 51.1278C0 52.4597 0.501621 53.5841 1.48757 54.4489C2.47351 55.3138 3.73622 55.7462 5.25838 55.7462C6.22703 55.7462 7.29946 55.5732 8.44108 55.21L8.54487 55.1754V50.8338H5.20649V52.0273Z" fill="#DA1F26"/>
<path d="M32.139 39.7813C30.8417 39.7813 29.5444 39.7121 28.2471 39.591C25.4796 39.297 22.7812 38.7262 20.1866 37.7229C18.1109 36.9273 16.1736 35.8721 14.4266 34.471C12.8006 33.1737 11.4515 31.6343 10.4828 29.7489C9.8255 28.4689 9.41037 27.1197 9.25469 25.684C8.96064 22.9165 9.58334 20.3737 11.0363 18.0213C12.1779 16.1705 13.6828 14.7002 15.4298 13.4721C17.4017 12.0883 19.5639 11.1024 21.8471 10.3932C23.2482 9.96078 24.6666 9.64942 26.1023 9.42456C28.4374 9.06132 30.7898 8.94024 33.1423 9.02672C34.7855 9.07861 36.4114 9.23429 38.0374 9.52834C40.7704 9.99537 43.3996 10.791 45.8904 12.0537C47.8969 13.0743 49.7131 14.3716 51.2525 16.0667C52.7228 17.71 53.7952 19.5781 54.2969 21.7575C54.5563 22.8992 54.6601 24.0581 54.5736 25.217C54.4006 27.5175 53.605 29.5932 52.2904 31.444C51.0104 33.2429 49.4017 34.6613 47.5682 35.8375C45.3715 37.2386 42.9844 38.1727 40.4936 38.8127C39.0925 39.1759 37.6742 39.4181 36.2385 39.591C34.872 39.7121 33.5055 39.764 32.139 39.7813ZM32.0871 38.4148C32.0871 38.4321 32.0871 38.4494 32.0871 38.4494C33.1077 38.3802 34.1455 38.3456 35.166 38.2592C36.4806 38.1554 37.7606 37.9305 39.0406 37.6192C41.2893 37.0656 43.4342 36.2527 45.406 35.0246C47.0666 34.004 48.5369 32.7413 49.6958 31.15C51.3736 28.8667 52.1866 26.324 51.9444 23.4527C51.8579 22.4321 51.6331 21.4462 51.2698 20.4948C50.5087 18.471 49.246 16.8105 47.6374 15.4094C45.9077 13.9046 43.9358 12.8321 41.8255 12.0365C39.3693 11.1197 36.8439 10.6354 34.2493 10.4451C32.6233 10.324 30.9974 10.324 29.3715 10.4278C27.9704 10.5316 26.5866 10.7219 25.2201 11.0159C23.0406 11.4829 20.9477 12.2267 18.9931 13.3165C17.1596 14.337 15.5163 15.6343 14.2017 17.3294C12.8352 19.0765 11.9877 21.0483 11.7628 23.2797C11.6244 24.5943 11.7282 25.8743 12.0742 27.137C12.5931 29.1089 13.6136 30.7867 14.9801 32.257C16.3812 33.7619 18.0417 34.9035 19.8752 35.8029C22.6255 37.1694 25.566 37.8959 28.5931 38.2246C29.7693 38.3629 30.9282 38.4148 32.0871 38.4148Z" fill="black"/>
<path d="M32.1409 16.897C32.3139 16.9662 32.4523 17.0008 32.5906 17.07C33.2998 17.4505 34.0263 17.8483 34.7355 18.2116C36.2058 18.9727 37.6933 19.7338 39.1636 20.4948C39.6998 20.7716 39.6479 20.7543 39.6479 21.3078C39.6479 21.9824 39.6998 22.657 39.7171 23.3489C39.7517 24.577 39.8036 25.8224 39.8382 27.0505C39.8728 28.2267 40.1496 29.3338 40.8587 30.2851C41.4814 31.1327 42.3463 31.617 43.3668 31.7381C45.0793 31.9283 46.4977 31.2883 47.6393 30.0083C48.6598 28.884 49.196 27.5175 49.4382 26.0127C49.5766 25.1305 49.6112 24.2483 49.542 23.3489C49.4555 22.3111 49.196 21.3078 48.7809 20.3565C47.8641 18.2808 46.4631 16.6548 44.6123 15.3921C42.9171 14.2332 41.0663 13.4202 39.129 12.8321C37.7452 12.417 36.3441 12.1229 34.9085 11.95C33.5766 11.7943 32.2447 11.777 30.9128 11.8635C30.0825 11.9154 29.2696 11.9673 28.4393 12.071C25.862 12.3824 23.3539 13.0224 21.0187 14.2505C19.1679 15.2192 17.542 16.4992 16.2447 18.1943C15.2068 19.5608 14.5323 21.0829 14.2728 22.7954C13.996 24.75 14.2209 26.6527 15.0685 28.4343C15.7604 29.9046 16.8328 30.977 18.355 31.5651C18.9777 31.8073 19.6177 31.8592 20.275 31.8073C21.0879 31.7381 21.8144 31.4267 22.4198 30.8732C23.1463 30.1986 23.596 29.3511 23.769 28.3651C23.9247 27.4311 23.942 26.497 23.9766 25.5456C24.0285 24.0235 24.0977 22.5186 24.1496 20.9965C24.1496 20.8581 24.2014 20.7889 24.3225 20.7197C26.4847 19.5954 28.6296 18.4883 30.7744 17.364C30.982 17.2602 31.1896 17.1392 31.3971 17.0181C31.6047 16.897 31.6566 16.9489 31.6739 17.191C31.6739 17.2256 31.6739 17.2602 31.6739 17.2948C31.6739 22.1554 31.6739 27.0159 31.6739 31.8938C31.6739 32.7413 31.622 33.5889 31.3971 34.4192C31.1031 35.5262 30.4458 36.27 29.3906 36.6159C28.4566 36.9273 27.4879 36.9792 26.5193 36.9273C24.582 36.8235 22.7658 36.2008 20.9496 35.5262C19.6004 35.0073 18.3204 34.35 17.1787 33.4678C14.9993 31.79 13.529 29.6105 12.8371 26.8948C12.5258 25.7013 12.4393 24.4905 12.5604 23.2797C12.7679 21.0138 13.6328 19.0419 15.1031 17.3467C16.6598 15.5478 18.5279 14.1813 20.6555 13.1608C22.316 12.3651 24.0458 11.8116 25.8274 11.4138C28.1625 10.8948 30.515 10.7219 32.8847 10.8083C35.6696 10.9121 38.4025 11.3619 41.049 12.2959C42.7268 12.884 44.3182 13.6451 45.7712 14.6656C47.3971 15.79 48.7636 17.191 49.8014 18.9208C50.3723 19.8721 50.8047 20.8754 51.0123 21.9651C51.0987 22.4494 51.1506 22.951 51.1852 23.4527C51.2371 24.1965 51.2371 24.9575 51.1679 25.7013C51.0295 27.31 50.5279 28.7802 49.6631 30.1294C48.1755 32.4473 46.1344 34.1078 43.6782 35.2321C42.1214 35.9413 40.5128 36.4775 38.8177 36.7716C37.7798 36.9446 36.742 37.0138 35.6868 36.91C34.995 36.8408 34.355 36.6851 33.7323 36.3392C33.1096 35.9932 32.7463 35.4397 32.5041 34.7824C32.2966 34.2289 32.1928 33.6581 32.1928 33.07C32.1755 31.5651 32.1582 30.0602 32.1582 28.5554C32.1582 24.7673 32.1582 20.9792 32.1582 17.191C32.1409 17.0527 32.1409 16.9835 32.1409 16.897Z" fill="black"/>
</svg>
