<svg width="64" height="64" viewBox="0 0 64 64" fill="none" xmlns="http://www.w3.org/2000/svg">
<path d="M7.12138 36.5465L8.93498 33.2182C8.60524 33.2182 8.30148 33.236 8.03102 33.2635C7.34798 33.333 6.643 33.9859 6.32544 34.5644L5.26148 36.5465H0.488281L5.2225 28.0622H9.99975L8.59143 30.5081C8.96666 30.4838 9.32239 30.4742 9.56605 30.4709C9.88524 30.4661 10.1695 30.4653 10.3831 30.4653H10.4578L11.8458 28.0605H16.6028L11.8686 36.5449L7.12138 36.5465Z" fill="black"/>
<path d="M10.7856 31.01L12.1744 28.5859H15.653L11.5417 36.0199H8.06313L9.85887 32.7013C9.22948 32.6566 8.59754 32.6615 7.96892 32.7158C7.05278 32.8087 6.21136 33.6192 5.82882 34.3173L4.9208 36.0199H1.44141L5.55349 28.5859H9.03207L7.54821 31.1797C8.08181 31.0682 8.89481 31.0181 9.57866 31.0117C10.2625 31.0052 10.7856 31.01 10.7856 31.01Z" fill="url(#paint0_linear_11467_10849)"/>
<path d="M11.6053 36.1014H7.8766L9.67802 32.7884C9.5302 32.7812 9.30036 32.7731 9.02827 32.7731C8.67845 32.7712 8.32875 32.7871 7.98056 32.8208C7.1367 32.9064 6.30909 33.6563 5.92736 34.356L4.98604 36.1014H1.25L5.48472 28.5059H9.22076L7.75883 31.0431C8.35899 30.963 8.96366 30.9209 9.56919 30.917C10.1101 30.9098 10.5519 30.9106 10.7136 30.9122L12.1073 28.5059H15.8433L11.6053 36.1014ZM8.24858 35.859H11.4738L15.4608 28.7483H12.2372L10.8476 31.1465L10.7818 31.1409C10.7818 31.1409 10.2579 31.1336 9.57731 31.1409C8.74807 31.1522 8.01629 31.212 7.56959 31.3025L7.32594 31.3623L8.8366 28.7483H5.61711L1.6301 35.859H4.85122L5.72756 34.2365C6.12472 33.5092 6.99132 32.6907 7.95538 32.5929C8.27538 32.5606 8.63518 32.546 9.02584 32.546C9.50421 32.546 9.86157 32.5727 9.86482 32.5727L10.0378 32.5776L8.24858 35.859Z" fill="white"/>
<path d="M28.5301 36.5465L28.375 28.0605H32.7787L32.8956 31.3832L36.9598 28.0605H43.0138L32.963 36.5465H28.5301Z" fill="black"/>
<path d="M29.0793 36.0199H32.7553L41.4838 28.5859H37.1597L32.3727 32.5146L32.2347 28.5859H28.9453L29.0793 36.0199Z" fill="url(#paint1_linear_11467_10849)"/>
<path d="M32.7971 36.1011H28.9701L28.832 28.4805L32.3415 28.4894L32.4779 32.3033L37.1163 28.5055H41.7872L32.7971 36.1011ZM29.1902 35.8586H32.7151L41.1772 28.7479H37.1975L32.2692 32.7695L32.123 28.7213L29.0586 28.6914L29.1902 35.8586Z" fill="white"/>
<path d="M20.0748 36.5462L20.8244 34.8954C20.4939 34.8808 20.0935 34.8671 19.676 34.8614H19.6354C18.7558 34.8614 17.9339 35.2372 17.6488 35.4941L16.5629 36.5446H11.6289L18.3245 30.5344C18.5528 30.3211 19.352 29.7191 19.9603 29.3022C20.6912 28.8004 22.6112 28.0586 24.4102 28.0586H28.048L24.0407 36.5462H20.0748ZM22.0484 32.1917L22.6673 30.999C22.2092 31.3223 21.488 31.9315 21.1899 32.1917H22.0484Z" fill="black"/>
<path d="M24.4117 28.5848C22.7166 28.5848 20.9193 29.312 20.2801 29.7451C19.7331 30.1218 19.2061 30.5263 18.7012 30.9572L13.0898 36.0187H16.3386L17.2677 35.1024C17.647 34.7541 18.6387 34.2944 19.6872 34.3097C20.7357 34.3251 21.6771 34.4018 21.6771 34.4018L20.9461 36.0179H23.6823L27.1666 28.584L24.4117 28.5848ZM22.391 32.7866H19.792L20.8015 31.8072C20.8015 31.8072 22.0368 30.7164 22.5883 30.3924C22.9368 30.1975 23.3404 30.1231 23.7359 30.1807L22.391 32.7866Z" fill="url(#paint2_linear_11467_10849)"/>
<path d="M23.7524 36.1014H20.7709L21.5019 34.4853C21.1892 34.4659 20.4614 34.4263 19.6801 34.4158H19.6338C18.6186 34.4158 17.6846 34.857 17.3386 35.1705L16.3818 36.1014H12.7969L18.6259 30.8702C18.8216 30.6876 19.5745 30.1106 20.2154 29.6719C20.9008 29.2024 22.7079 28.5059 24.4111 28.5059H27.3414L23.7524 36.1014ZM21.1177 35.8768H23.6095L26.9873 28.7305H24.4111C22.6958 28.7305 20.9187 29.4634 20.3429 29.8553C19.7102 30.2892 18.9695 30.854 18.7778 31.0326L13.3808 35.8808H16.2901L17.1835 35.0122C17.6156 34.6154 18.6194 34.1952 19.633 34.1952H19.6826C20.7222 34.209 21.6692 34.276 21.6781 34.276L21.8405 34.2874L21.1177 35.8768ZM22.4586 32.862H19.5096L20.7278 31.7089C20.7814 31.6612 21.9802 30.614 22.5358 30.2884C22.8355 30.1177 23.1756 30.0296 23.5209 30.033C23.6005 30.0322 23.6801 30.0373 23.7589 30.0484L23.9108 30.0734L22.4586 32.862ZM20.07 32.639H22.3222L23.5591 30.2561C23.2399 30.2466 22.9242 30.3243 22.6462 30.4807C22.1086 30.7958 20.887 31.8624 20.8748 31.8738L20.07 32.639Z" fill="white"/>
<path d="M43.149 36.5462L43.8987 34.8954C43.5689 34.8808 43.1677 34.8671 42.7502 34.8614H42.7096C41.83 34.8614 41.0081 35.2372 40.7238 35.4941L39.6371 36.5446H34.7031L41.3988 30.5344C41.6278 30.3211 42.4262 29.7183 43.0345 29.3022C43.7655 28.8004 45.6863 28.0586 47.4844 28.0586H51.1222L47.1108 36.543L43.149 36.5462ZM45.1226 32.1917L45.7415 30.999C45.2842 31.3223 44.563 31.9315 44.2641 32.1917H45.1226Z" fill="black"/>
<path d="M47.4859 28.5859C45.7917 28.5859 43.9935 29.3132 43.3543 29.7463C42.8074 30.1227 42.2807 30.5272 41.7762 30.9583L36.1641 36.0199H39.4128L40.3419 35.1036C40.7212 34.7553 41.7129 34.2955 42.7614 34.3109C43.8099 34.3262 44.7521 34.4038 44.7521 34.4038L44.0211 36.0199H46.7582L50.2416 28.5859H47.4859ZM45.466 32.7877H42.867L43.8782 31.8084C43.8782 31.8084 45.1135 30.7175 45.665 30.3935C46.0134 30.1986 46.417 30.1241 46.8126 30.1818L45.466 32.7877Z" fill="url(#paint3_linear_11467_10849)"/>
<path d="M46.8258 36.1014H43.8443L44.5753 34.4853C44.2618 34.4659 43.534 34.4263 42.7527 34.4158H42.7064C41.6912 34.4158 40.7531 34.857 40.4112 35.1705L39.4553 36.1014H35.8711L41.6993 30.8702C41.8951 30.6876 42.6496 30.1122 43.2896 29.6735C43.9742 29.2024 45.7813 28.5059 47.4845 28.5059H50.4148L46.8258 36.1014ZM44.1919 35.8784H46.6837L50.0616 28.7321H47.4845C45.7692 28.7321 43.9921 29.465 43.4163 29.8569C42.7844 30.2908 42.0429 30.8556 41.8512 31.0342L36.4551 35.8824H39.3635L40.2569 35.0138C40.689 34.617 41.6936 34.1969 42.7064 34.1969H42.756C43.7956 34.2106 44.7426 34.2777 44.7515 34.2777L44.9139 34.289L44.1919 35.8784ZM45.5328 32.8636H42.5838L43.7972 31.7105C43.8508 31.6629 45.0504 30.6156 45.6059 30.29C45.9054 30.1194 46.2452 30.0313 46.5903 30.0347C46.6699 30.0337 46.7494 30.0389 46.8283 30.05L46.9809 30.0751L45.5328 32.8636ZM43.1434 32.6406H45.4004L46.6366 30.2577C46.3174 30.2486 46.0018 30.3263 45.7237 30.4823C45.186 30.7974 43.9653 31.8641 43.9523 31.8754L43.1434 32.6406Z" fill="white"/>
<path d="M52.7029 36.5465C52.3285 36.5465 51.0737 36.5078 50.51 36.1344C49.6166 35.5422 49.4095 34.3972 50.0073 33.35C50.3654 32.7221 52.8223 28.3886 52.8499 28.345L53.0123 28.0605H60.054L57.8749 29.1207C57.8668 29.1207 56.9051 29.6055 56.3602 30.5307C56.0897 30.9881 55.0184 32.8902 54.6546 33.5318H62.8714L60.0751 36.5465H52.7029Z" fill="black"/>
<path d="M54.0503 33.4665C54.0503 33.4665 55.5464 30.7895 55.8794 30.2295C56.521 29.1394 57.6296 28.5859 57.6296 28.5859H53.3372C53.3372 28.5859 50.8601 32.9736 50.4946 33.6087C50.0836 34.3286 50.1104 35.207 50.8195 35.6773C51.2873 35.9875 52.7013 36.0199 52.7013 36.0199H59.8274L61.5882 34.0806H54.2193C54.2193 34.0806 53.8051 33.8608 54.0503 33.4665Z" fill="url(#paint4_linear_11467_10849)"/>
<path d="M59.8767 36.0999H52.7018C52.6417 36.0999 51.248 36.087 50.7583 35.7622C50.0582 35.2983 49.9128 34.4168 50.3969 33.57C50.7559 32.9413 53.2119 28.6062 53.2395 28.5601L53.2712 28.502H58.1102L57.6765 28.7145C57.6651 28.7201 56.5898 29.2542 55.9709 30.3006C55.646 30.8541 54.1597 33.4948 54.1443 33.5215C54.1179 33.5592 54.0995 33.6018 54.0901 33.6468C54.0808 33.6918 54.0807 33.7382 54.0899 33.7833C54.1175 33.8859 54.2068 33.9158 54.2523 33.9966H61.8487L59.8767 36.0999ZM53.4003 28.7468C53.1079 29.2316 50.928 33.0989 50.5918 33.6887C50.2409 34.3037 50.1946 35.1149 50.8826 35.5715C51.2432 35.8139 52.3185 35.8575 52.7027 35.8575H59.7792L61.3329 34.1606H54.1857L54.1605 34.1671C54.0229 34.0936 53.9193 33.97 53.8714 33.8221C53.8545 33.7509 53.8529 33.677 53.8669 33.6053C53.8809 33.5335 53.9102 33.4656 53.9526 33.4059C53.9648 33.3841 55.4511 30.7515 55.7792 30.1964C56.1375 29.6085 56.6289 29.1121 57.2143 28.7468H53.4003Z" fill="white"/>
<defs>
<linearGradient id="paint0_linear_11467_10849" x1="8.54719" y1="28.6142" x2="8.54719" y2="36.0255" gradientUnits="userSpaceOnUse">
<stop stop-color="#CCCCCC"/>
<stop offset="0.04" stop-color="#CFCFCF"/>
<stop offset="0.08" stop-color="#DADADA"/>
<stop offset="0.11" stop-color="#EBEBEB"/>
<stop offset="0.13" stop-color="white"/>
<stop offset="0.3" stop-color="white"/>
<stop offset="0.63" stop-color="#999999"/>
<stop offset="0.81" stop-color="#999999"/>
<stop offset="0.84" stop-color="#9F9F9F"/>
<stop offset="0.87" stop-color="#B0B0B0"/>
<stop offset="0.91" stop-color="#CCCCCC"/>
<stop offset="0.95" stop-color="#F2F2F2"/>
<stop offset="0.97" stop-color="white"/>
</linearGradient>
<linearGradient id="paint1_linear_11467_10849" x1="35.2146" y1="28.6999" x2="35.2146" y2="36.0247" gradientUnits="userSpaceOnUse">
<stop stop-color="#CCCCCC"/>
<stop offset="0.04" stop-color="#CFCFCF"/>
<stop offset="0.08" stop-color="#DADADA"/>
<stop offset="0.11" stop-color="#EBEBEB"/>
<stop offset="0.13" stop-color="white"/>
<stop offset="0.3" stop-color="white"/>
<stop offset="0.63" stop-color="#999999"/>
<stop offset="0.81" stop-color="#999999"/>
<stop offset="0.84" stop-color="#9F9F9F"/>
<stop offset="0.87" stop-color="#B0B0B0"/>
<stop offset="0.91" stop-color="#CCCCCC"/>
<stop offset="0.95" stop-color="#F2F2F2"/>
<stop offset="0.97" stop-color="white"/>
</linearGradient>
<linearGradient id="paint2_linear_11467_10849" x1="20.1274" y1="28.5565" x2="20.1274" y2="35.9678" gradientUnits="userSpaceOnUse">
<stop stop-color="#CCCCCC"/>
<stop offset="0.04" stop-color="#CFCFCF"/>
<stop offset="0.08" stop-color="#DADADA"/>
<stop offset="0.11" stop-color="#EBEBEB"/>
<stop offset="0.13" stop-color="white"/>
<stop offset="0.3" stop-color="white"/>
<stop offset="0.63" stop-color="#999999"/>
<stop offset="0.81" stop-color="#999999"/>
<stop offset="0.84" stop-color="#9F9F9F"/>
<stop offset="0.87" stop-color="#B0B0B0"/>
<stop offset="0.91" stop-color="#CCCCCC"/>
<stop offset="0.95" stop-color="#F2F2F2"/>
<stop offset="0.97" stop-color="white"/>
</linearGradient>
<linearGradient id="paint3_linear_11467_10849" x1="43.2024" y1="28.5577" x2="43.2024" y2="35.969" gradientUnits="userSpaceOnUse">
<stop stop-color="#CCCCCC"/>
<stop offset="0.04" stop-color="#CFCFCF"/>
<stop offset="0.08" stop-color="#DADADA"/>
<stop offset="0.11" stop-color="#EBEBEB"/>
<stop offset="0.13" stop-color="white"/>
<stop offset="0.3" stop-color="white"/>
<stop offset="0.63" stop-color="#999999"/>
<stop offset="0.81" stop-color="#999999"/>
<stop offset="0.84" stop-color="#9F9F9F"/>
<stop offset="0.87" stop-color="#B0B0B0"/>
<stop offset="0.91" stop-color="#CCCCCC"/>
<stop offset="0.95" stop-color="#F2F2F2"/>
<stop offset="0.97" stop-color="white"/>
</linearGradient>
<linearGradient id="paint4_linear_11467_10849" x1="55.9102" y1="28.6142" x2="55.9102" y2="36.0255" gradientUnits="userSpaceOnUse">
<stop stop-color="#CCCCCC"/>
<stop offset="0.04" stop-color="#CFCFCF"/>
<stop offset="0.08" stop-color="#DADADA"/>
<stop offset="0.11" stop-color="#EBEBEB"/>
<stop offset="0.13" stop-color="white"/>
<stop offset="0.3" stop-color="white"/>
<stop offset="0.63" stop-color="#999999"/>
<stop offset="0.81" stop-color="#999999"/>
<stop offset="0.84" stop-color="#9F9F9F"/>
<stop offset="0.87" stop-color="#B0B0B0"/>
<stop offset="0.91" stop-color="#CCCCCC"/>
<stop offset="0.95" stop-color="#F2F2F2"/>
<stop offset="0.97" stop-color="white"/>
</linearGradient>
</defs>
</svg>
