<svg width="64" height="64" viewBox="0 0 64 64" fill="none" xmlns="http://www.w3.org/2000/svg">
<path d="M0 32.0054C0 14.3321 14.3245 0.00180465 31.9971 6.81302e-07C49.6701 -0.00360726 63.9964 14.3231 64 31.9946C64.0018 49.6679 49.6773 63.9964 32.0045 64C14.3355 64 0.00360784 49.6751 0 32.0054Z" fill="#ED1B2D"/>
<path d="M31.9991 60.8103C47.9102 60.8103 60.8069 47.9114 60.8069 32C60.8069 16.0885 47.9102 3.19141 31.9991 3.19141C16.0881 3.19141 3.19141 16.0885 3.19141 32C3.19141 47.9114 16.0881 60.8103 31.9994 60.8103" fill="white"/>
<path d="M11.7509 35.6453C11.7509 35.6453 12.2237 35.2033 15.1156 35.2033C19.3803 35.2033 23.1871 37.2576 24.7535 38.6268C24.7535 38.6268 24.8922 40.5967 28.0123 43.7516C28.834 44.586 28.9179 45.9498 28.9179 46.7877C28.9179 49.0846 28.3666 51.9272 26.53 54.1346C25.6553 54.0489 23.3348 53.6891 22.0111 54.0634C22.0111 54.0634 20.8483 55.2939 20.7845 55.8069C20.1472 55.5404 19.7729 55.272 19.0227 54.8905C19.2054 54.2569 19.7822 53.5522 20.2275 53.114C21.8853 52.6376 23.4335 52.4987 26.1155 52.9149C26.4888 51.7081 26.6777 50.4518 26.6759 49.1886C26.6759 42.2672 21.0675 36.6548 14.1424 36.6548C11.3109 36.6548 8.71104 37.8635 6.71748 39.6088C6.05837 37.2993 5.67301 35.4901 5.63468 32.3699C5.4633 17.8114 17.1257 5.86911 31.6838 5.70111C46.264 5.52748 58.1766 17.311 58.3408 31.3638C58.3045 33.7301 57.7421 37.1899 57.4354 38.6011C55.9803 36.9926 51.1677 37.1295 49.072 33.6697C51.1677 33.3247 52.8219 32.744 53.6359 31.7692C49.6249 31.0388 48.3396 26.1149 47.4214 24.2196C46.2547 21.8169 45.236 21.2182 44.4217 20.2596C43.4742 19.1441 45.7618 19.8727 46.6947 20.5226L46.8863 20.3656C44.6262 16.8727 42.4938 17.532 40.4017 15.5091C39.6711 14.7988 41.3911 14.8937 42.2547 15.1275L42.43 14.9614C40.1514 12.8306 38.3001 13.4167 38.1725 9.13904C34.0135 11.4576 31.4574 9.28132 24.7572 12.3778C22.6885 13.3328 25.239 12.5695 23.7273 14.1507C22.7217 15.2004 19.8534 15.1458 18.0021 17.7365C17.5676 18.3427 20.2568 20.3252 20.9944 21.8809L21.1951 21.333C20.609 19.564 20.7953 18.9012 21.6625 18.6275C23.3494 18.0888 25.2318 19.3394 25.7229 21.3041C25.9401 22.1565 25.7157 23.7413 24.6676 24.0901C23.9885 24.3165 23.0554 23.9731 22.3399 23.2175L21.8377 23.3963C21.8377 23.3963 23.0554 24.9757 23.2527 26.7959C24.8503 25.7151 27.4173 24.2198 27.8845 22.2115C28.5582 19.2938 28.9179 18.7407 31.9485 16.9367C34.9775 15.1276 34.6562 15.2462 32.4725 12.4344C31.6071 11.3207 32.9729 12.1571 36.5986 11.0086L36.6168 11.2386C33.1371 12.9456 32.9691 12.1278 35.4686 14.514C36.7449 15.7373 36.7665 16.3725 32.6624 18.0304C27.1909 20.2432 30.6871 23.7796 26.6321 26.4836C20.6129 30.4967 22.1573 32.744 24.927 36.5691C19.837 33.7301 20.5344 30.9987 20.5982 30.7139C19.3057 30.5019 15.0006 29.8502 12.1762 30.6189C11.1592 30.8947 11.0151 31.3802 9.73184 32.1307C9.29168 32.3882 8.72209 32.6146 8.13965 32.9614C7.79826 33.1713 7.48415 33.6424 7.7473 34.318C8.07561 35.1652 8.66369 35.7402 9.51243 36.0963C9.91967 34.486 10.5623 34.097 10.5623 34.097C10.7393 35.0628 11.7507 35.6453 11.7507 35.6453" fill="#ED1B2D"/>
<path d="M34.8884 36.7999C34.8884 36.7999 27.9232 37.3932 26.4336 30.5685C25.0187 31.7901 25.2814 35.1184 27.8813 37.9409C27.9124 37.501 27.2569 36.137 27.4393 35.8596C29.561 37.5995 31.3119 37.4827 34.8884 36.7999ZM25.3565 13.7589C25.4038 13.9014 26.3223 13.602 26.4373 13.7115C26.5448 13.8247 26.8535 14.9603 27.1036 14.6171C27.81 13.6439 29.9826 12.207 29.9826 12.207C26.8206 12.8317 25.3107 13.6074 25.3565 13.7589ZM31.5144 27.1234C33.8295 34.3607 36.6411 39.3979 44.8219 34.9869C37.6489 36.6538 35.069 31.0049 31.9162 27.4373L31.5144 27.1234ZM30.1107 58.214C30.7513 58.2726 32.0986 58.3621 32.3104 58.3621C38.9707 58.2834 45.2073 55.4864 48.9516 52.1964C51.5221 49.8287 50.153 47.5902 47.5551 47.8109C44.6539 48.0574 40.6064 48.2146 39.2627 47.6959C38.0157 47.214 38.5398 45.5744 37.8861 43.8911C37.753 43.4967 37.4443 43.3689 37.4443 43.8911C37.0482 50.4199 35.354 52.5799 35.3649 52.556L34.9193 52.6767C34.934 51.1485 34.3844 50.546 33.4935 53.0307C32.6628 55.3441 31.394 57.3122 30.1105 58.2142M35.4508 22.873C42.0031 22.767 42.4376 31.7901 47.7249 33.4258C39.4819 33.7438 40.5791 25.3032 35.4508 22.873Z" fill="#ED1B2D"/>
</svg>
