<svg width="64" height="64" viewBox="0 0 64 64" fill="none" xmlns="http://www.w3.org/2000/svg">
<g clip-path="url(#clip0_10704_16640)">
<path d="M46.7352 10.332C45.3016 16.9329 44.7281 19.9464 43.4378 24.6818C42.1476 29.4172 41.4307 33.4352 39.8537 35.5876C38.7068 37.1661 36.8431 38.1706 34.836 38.3141C32.9722 38.4576 30.9651 38.4576 29.1014 38.3141C27.0943 38.1706 25.2305 37.1661 24.0836 35.5876C22.5066 33.5787 21.6464 29.2737 20.4995 24.6818C19.3526 20.0899 18.6358 16.9329 17.2021 10.332L15.0516 10.4755C14.1915 10.4755 13.4746 10.619 12.7578 10.7625C12.7578 10.7625 13.618 24.2513 14.0481 29.9912C14.4782 36.0181 15.195 46.063 15.7685 53.8118C15.7685 53.8118 17.0588 53.9553 19.0659 54.0988C21.073 54.2423 22.2199 54.2423 22.2199 54.2423C23.0801 50.7984 24.227 46.2065 25.3739 44.1975C26.0907 43.0495 27.381 42.332 28.8147 42.332C29.8182 42.1885 30.8218 42.1885 31.9687 42.1885C32.9722 42.1885 33.9758 42.1885 35.1227 42.332C36.5563 42.332 37.8466 43.0495 38.5634 44.1975C39.8537 46.2065 40.8573 50.7984 41.7175 54.2423C41.7175 54.2423 42.721 54.2423 44.8715 54.0988C47.022 53.9553 48.1689 53.8118 48.1689 53.8118C48.8857 46.2065 49.6025 36.0181 49.8892 29.9912C50.3193 24.2513 51.1795 10.7625 51.1795 10.7625C50.4627 10.619 49.7459 10.619 48.8857 10.4755L46.7352 10.332Z" fill="black"/>
<path d="M63.6527 18.3682C62.7925 9.75829 57.0579 8.03631 52.0402 7.17533C48.7428 6.74483 45.4454 6.45784 42.148 6.31434C39.5675 6.17084 33.6895 6.02734 31.9691 6.02734C30.2488 6.02734 24.2275 6.17084 21.7903 6.31434C18.3495 6.31434 15.0521 6.60134 11.7547 7.17533C6.73697 8.03631 1.00239 9.90178 0.142198 18.3682C-0.144531 21.2381 -0.144531 24.1081 -0.144531 26.978C-0.144531 30.8525 0.142198 34.7269 0.715656 38.6013C1.00239 41.9018 1.71921 45.0587 2.5794 48.3592C3.86968 52.0901 5.01659 53.2381 6.30688 54.2426C8.60071 55.8211 11.0379 56.682 13.7618 57.1125C25.8045 58.404 37.8471 58.404 49.8897 57.1125C52.6136 56.682 55.0508 55.8211 57.3447 54.2426C58.7783 53.0946 59.9252 52.0901 61.0722 48.3592C61.9323 45.2022 62.6492 41.9018 62.9359 38.6013C63.366 34.7269 63.6527 30.8525 63.7961 26.978C63.9394 24.1081 63.7961 21.2381 63.6527 18.3682ZM60.4987 32.7179C60.3553 37.4534 59.6385 42.0453 58.4916 46.6372C58.0615 48.7897 56.9146 50.6551 55.3376 52.2336C53.1871 53.9556 50.6065 54.9601 48.026 55.1036C37.2736 56.2516 26.5213 56.2516 15.7689 55.1036C13.045 54.9601 10.6078 53.9556 8.45735 52.2336C6.88033 50.6551 5.87678 48.7897 5.30332 46.6372C4.15641 42.0453 3.58295 37.4534 3.29622 32.7179C3.00949 27.9825 3.00949 23.1036 3.43958 18.3682C4.29977 12.9152 6.88034 10.3323 12.6149 9.32779C15.7689 8.7538 19.0663 8.46681 22.2203 8.32331C24.9443 8.17981 29.3886 8.03631 31.9691 8.03631C34.5497 8.03631 38.994 8.03631 41.7179 8.32331C44.872 8.46681 48.1693 8.7538 51.3234 9.32779C57.0579 10.3323 59.6385 13.0587 60.3553 18.3682C60.6421 23.1036 60.7854 27.9825 60.4987 32.7179Z" fill="black"/>
</g>
<defs>
<clipPath id="clip0_10704_16640">
<rect width="64" height="64" fill="white"/>
</clipPath>
</defs>
</svg>
