<svg width="64" height="64" viewBox="0 0 64 64" fill="none" xmlns="http://www.w3.org/2000/svg">
<path d="M24.62 29.0005H20.0718V35.3264H23.6573V32.1093L24.9934 35.3264H26.8965L28.2325 32.1093V35.3264H31.8164V29.0005H27.2692L25.9443 31.9378L24.62 29.0005ZM37.1342 29.0005H32.5866V35.3264H36.1714V32.1093L37.5074 35.3264H39.4109L40.7476 32.1093V35.3264H44.3315V29.0005H39.7836L38.459 31.9378L37.1342 29.0005ZM3.79936 31.3225V29.0005H0V35.3264H3.79936V32.9346H5.58736V35.3264H9.38704V29.0005H5.58736V31.3225H3.79936ZM45.1201 29.0005V35.3264L53.269 35.3259V33.8034H48.9205V32.8573H53.269V31.4716H48.9205V30.523H53.269V29.0005H45.1201ZM13.8768 29.0024L13.8763 33.2463C13.8837 33.7926 14.2427 33.9288 14.7319 33.9288C15.2099 33.9288 15.5743 33.7837 15.5743 33.2344V29.0024H19.3633V33.2596C19.3633 35.1366 17.9962 35.5422 14.7319 35.5417C11.4633 35.5412 10.0869 35.1434 10.0869 33.2591V29.0024H13.8768ZM58.8873 31.8885C59.5969 31.8885 59.9358 31.6308 59.9358 31.1071C59.9358 30.4501 59.5078 30.274 58.8834 30.274H57.7725V31.8885H58.8873ZM59.9446 35.3244L57.7745 33.0568V35.3264H53.9741V29.0005L60.0778 29C61.3589 29 63.4794 28.9651 63.3661 31.0756C63.313 32.0625 62.2822 32.7825 61.4635 32.9596L64 35.3244H59.9446Z" fill="black"/>
</svg>
