<svg width="64" height="64" viewBox="0 0 64 64" fill="none" xmlns="http://www.w3.org/2000/svg">
<path d="M54.6159 23.1338C53.0716 22.441 51.4483 21.8802 49.8063 21.3686C42.4556 19.2394 33.8152 18.4975 25.6047 19.3395C18.0386 20.2151 10.6878 21.7325 4.92089 26.1547C2.16374 28.3163 0.522469 31.5665 1.87093 34.6853C3.63057 38.4807 8.32319 41.0051 12.5077 42.474C24.882 46.6976 41.7142 46.5495 53.698 41.7147C57.803 39.9646 62.398 37.0611 62.9635 32.9028C63.4515 28.4142 58.7603 25.0488 54.6159 23.1338ZM26.9019 24.8416C27.9361 23.1246 29.7719 21.1074 32.3096 21.0749C35.662 21.0544 38.8954 21.3123 42.0257 21.7823C42.1441 21.8007 42.2617 21.8169 42.3787 21.8364C42.711 21.8883 43.0412 21.9467 43.3707 22.0024C45.1033 22.3101 46.7834 22.6914 48.3956 23.1397C48.4946 23.1906 48.5845 23.2506 48.6482 23.3414C48.8047 23.6248 46.2843 24.8027 46.1084 24.986C41.7959 27.2363 40.3484 27.5397 34.9636 29.2751C32.5622 29.7754 30.1034 30.9089 27.4294 30.4087C26.8043 30.2751 26.238 29.9257 25.8878 29.4076C25.2232 27.8409 26.1217 26.2082 26.9019 24.8416ZM10.5646 38.8749C10.3244 39.0675 10.087 39.0858 9.8537 39.0247C7.60258 37.8528 5.30784 36.1963 4.29857 34.0218C4.18574 33.76 4.1179 33.4977 4.06114 33.2381C4.04314 33.1538 4.02376 33.0678 4.00991 32.9823C3.97115 32.726 3.95177 32.4713 3.96215 32.2203C3.96215 32.1906 3.9663 32.1614 3.9663 32.1327C4.07568 30.3421 5.57366 28.8798 6.95465 27.7971C11.2942 24.4685 17.3775 22.8726 21.7033 22.2171C21.7033 22.2171 21.9317 22.1117 22.0341 22.2755L21.7254 22.4805C16.4146 27.6035 13.7655 33.1246 10.5646 38.8749ZM36.78 40.7921C35.7866 42.1078 34.2402 43.2576 32.3746 43.455C32.3013 43.455 32.2307 43.4599 32.158 43.4599C31.4637 43.4599 30.7742 43.4425 30.0861 43.422C29.6846 43.4085 29.2838 43.3912 28.8837 43.3712C28.0676 43.3311 27.2577 43.2776 26.454 43.2078C25.7431 43.1456 25.0343 43.0775 24.3323 42.9915C23.8602 42.9342 23.3916 42.8715 22.9257 42.8039C22.2993 42.7141 21.6804 42.6092 21.0636 42.5021C19.3102 42.1922 17.6094 41.812 15.982 41.3556C15.9024 41.3037 15.8283 41.2453 15.7778 41.1744C15.6802 40.9408 15.8172 40.7239 16.0111 40.5741C20.325 37.59 25.4593 36.2071 30.534 34.7567C32.4273 34.29 34.4382 33.7898 36.5654 34.0239C37.4431 34.124 38.3216 34.6415 38.6345 35.3419C39.1017 37.4093 37.8336 39.1253 36.78 40.7921ZM60.4175 32.3696C60.4071 32.6692 60.3663 32.9742 60.2867 33.2857C60.2562 33.3977 60.2133 33.5069 60.1752 33.6167C60.1364 33.7286 60.0984 33.8417 60.0534 33.9509C58.8946 36.6771 55.4134 38.6689 52.533 39.8965C49.7745 41.0095 46.6505 41.8737 43.3215 42.4761C43.053 42.5086 42.7899 42.5546 42.5165 42.5773C42.36 42.561 42.1074 42.5935 42.0672 42.3939L42.1247 42.1603C45.6772 38.743 48.37 34.9098 50.7332 31.0257C51.8256 29.2757 52.8418 27.4759 53.7776 25.7085C53.914 25.575 54.0511 25.509 54.2075 25.4587C54.3577 25.47 54.4927 25.5138 54.6298 25.5512C56.3832 26.4938 58.6627 28.0064 59.7703 29.9355C59.7883 29.9668 59.8063 29.9998 59.8229 30.0312C59.9163 30.2004 60.0001 30.3735 60.0735 30.5498C60.1724 30.7942 60.2631 31.0398 60.3199 31.295C60.3275 31.3275 60.3275 31.361 60.3351 31.3929C60.3891 31.6649 60.4175 31.9424 60.4175 32.2258C60.421 32.2733 60.4189 32.3215 60.4175 32.3696Z" fill="#375CA9"/>
<path d="M54.6159 23.1338C53.0716 22.441 51.4483 21.8802 49.8063 21.3686C42.4556 19.2394 33.8152 18.4975 25.6047 19.3395C18.0386 20.2151 10.6878 21.7325 4.92089 26.1547C2.16374 28.3163 0.522469 31.5665 1.87093 34.6853C3.63057 38.4807 8.32319 41.0051 12.5077 42.474C24.882 46.6976 41.7142 46.5495 53.698 41.7147C57.803 39.9646 62.398 37.0611 62.9635 32.9028C63.4515 28.4142 58.7603 25.0488 54.6159 23.1338Z" stroke="#1F212B" stroke-miterlimit="10" stroke-linecap="round" stroke-linejoin="round"/>
<path d="M38.4282 28.4768C37.2729 28.8424 36.1037 29.1815 34.929 29.5092C32.5276 30.0094 30.1069 30.9093 27.4335 30.4091C26.8085 30.2755 26.2422 29.9261 25.8919 29.4081C25.2274 27.8413 26.1252 26.2087 26.9061 24.8421C27.9402 23.125 29.776 21.1078 32.3137 21.0754C35.6662 21.0548 38.8996 21.3128 42.0299 21.7827C42.1482 21.8011 42.2659 21.8173 42.3829 21.8368C42.7152 21.8887 43.0454 21.9471 43.3749 22.0028C45.1075 22.3106 46.7875 22.6918 48.3997 23.1401C48.4987 23.191 48.5887 23.251 48.6524 23.3419C48.8088 23.6252 48.496 23.8086 48.3201 23.9919C47.3614 24.6328 46.3694 25.206 45.3512 25.7252" stroke="#1F212B" stroke-width="0.5" stroke-miterlimit="10" stroke-linecap="round"/>
<path d="M42.5806 26.9902C41.8967 27.2704 41.2037 27.5332 40.5039 27.782" stroke="#1F212B" stroke-width="0.5" stroke-miterlimit="10" stroke-linecap="round"/>
<path d="M8.66406 26.2821C11.6109 24.4796 14.9135 23.352 18.3241 22.5879" stroke="#1F212B" stroke-width="0.5" stroke-miterlimit="10" stroke-linecap="round"/>
<path d="M19.0732 25.8145C15.6377 29.9278 13.0467 34.4111 10.5623 38.8748C10.3221 39.0674 10.0846 39.0858 9.85136 39.0246C7.60023 37.8527 5.3055 36.1962 4.29623 34.0217C4.1834 33.7599 4.11556 33.4976 4.05879 33.2381C4.0408 33.1537 4.02141 33.0677 4.00757 32.9823C3.9688 32.7259 3.94942 32.4712 3.95981 32.2203C3.95981 32.1905 3.96396 32.1613 3.96396 32.1327C4.07333 30.3421 5.32072 28.7029 6.70172 27.6207" stroke="#1F212B" stroke-width="0.5" stroke-miterlimit="10" stroke-linecap="round"/>
<path d="M20.4453 22.1558C20.8966 22.0736 21.3487 21.9963 21.8014 21.9238C22.0236 21.9238 22.2506 21.9455 22.3531 22.1093L22.2749 22.3592C21.665 22.9514 21.0794 23.5549 20.5166 24.1682" stroke="#1F212B" stroke-width="0.5" stroke-miterlimit="10" stroke-linecap="round"/>
<path d="M36.7806 40.7926C35.7872 42.1083 34.2408 43.2581 32.3752 43.4555C32.3018 43.4555 32.2312 43.4604 32.1586 43.4604C31.4642 43.4604 30.7748 43.4431 30.0867 43.4225C29.6852 43.409 29.2844 43.3917 28.8843 43.3717C28.0682 43.3316 27.2583 43.2781 26.4546 43.2083C25.7437 43.1462 25.0348 43.078 24.3329 42.992C23.8608 42.9347 23.3922 42.872 22.9263 42.8044C22.2998 42.7146 21.681 42.6097 21.0642 42.5026C19.3108 42.1927 17.61 41.8125 15.9826 41.3561C15.903 41.3042 15.8289 41.2458 15.7784 41.1749C15.6808 40.9413 15.8178 40.7244 16.0116 40.5746C20.3256 37.5905 25.4599 36.2076 30.5346 34.7572C32.4278 34.2905 34.4388 33.7903 36.566 34.0244C37.4437 34.1245 38.3222 34.642 38.635 35.3424C39.1023 37.4099 37.8341 39.1258 36.7806 40.7926Z" stroke="#1F212B" stroke-width="0.5" stroke-miterlimit="10" stroke-linecap="round"/>
<path d="M60.4167 32.368C60.4063 32.6676 60.3655 32.9726 60.2858 33.2841C60.2554 33.396 60.2125 33.5053 60.1744 33.615C60.1356 33.727 60.0976 33.84 60.0526 33.9493C58.8938 36.6754 55.4126 38.6672 52.5322 39.8948C49.7737 41.0078 46.6496 41.872 43.3207 42.4745C43.0521 42.5069 42.7891 42.5529 42.5157 42.5756C42.3592 42.5594 42.1066 42.5918 42.0664 42.3923L42.1239 42.1586C45.6764 38.7413 48.3691 34.9081 50.7324 31.0241C51.8247 29.274 52.8409 27.4742 53.7768 25.7069C53.9132 25.5733 54.0503 25.5073 54.2067 25.457C54.3569 25.4684 54.4919 25.5122 54.629 25.5495C56.3824 26.4921 58.6619 28.0048 59.7694 29.9338C59.7874 29.9652 59.8054 29.9982 59.8221 30.0295C59.9155 30.1988 59.9993 30.3718 60.0726 30.5481C60.1716 30.7926 60.2623 31.0381 60.3191 31.2934C60.3267 31.3258 60.3267 31.3594 60.3343 31.3913C60.3883 31.6633 60.4167 31.9407 60.4167 32.2241C60.4201 32.2717 60.4181 32.3198 60.4167 32.368Z" stroke="#1F212B" stroke-width="0.5" stroke-miterlimit="10" stroke-linecap="round"/>
</svg>
