<svg xmlns="http://www.w3.org/2000/svg"  viewBox="0 0 100 100" width="50px" height="50px"><path fill="#375ca9" d="M81.89,31.644c-2.231-1.281-4.576-2.318-6.948-3.264c-10.619-3.937-23.101-5.309-34.962-3.752 c-10.93,1.619-21.549,4.425-29.88,12.602c-3.983,3.997-6.354,10.007-4.406,15.774c2.542,7.018,9.321,11.686,15.366,14.402 c17.876,7.81,42.192,7.536,59.504-1.404c5.93-3.236,12.568-8.605,13.385-16.294C94.654,41.408,87.877,35.185,81.89,31.644z M41.854,34.802c1.494-3.175,4.146-6.905,7.812-6.965c4.843-0.038,9.514,0.439,14.036,1.308c0.171,0.034,0.341,0.064,0.51,0.1 c0.48,0.096,0.957,0.204,1.433,0.307c2.503,0.569,4.93,1.274,7.259,2.103c0.143,0.094,0.273,0.205,0.365,0.373 c0.226,0.524-3.415,2.702-3.669,3.041C63.37,39.23,61.279,39.791,53.5,43c-3.469,0.925-7.021,3.021-10.884,2.096 c-0.903-0.247-1.721-0.893-2.227-1.851C39.429,40.348,40.727,37.329,41.854,34.802z M18.253,60.751 c-0.347,0.356-0.69,0.39-1.027,0.277c-3.252-2.167-6.567-5.23-8.025-9.251c-0.163-0.484-0.261-0.969-0.343-1.449 c-0.026-0.156-0.054-0.315-0.074-0.473C8.728,49.381,8.7,48.91,8.715,48.446c0-0.055,0.006-0.109,0.006-0.162 c0.158-3.311,2.322-6.015,4.317-8.017c6.269-6.155,15.057-9.106,21.306-10.318c0,0,0.33-0.195,0.478,0.108l-0.446,0.379 C26.704,39.909,22.877,50.118,18.253,60.751z M56.124,64.296c-1.435,2.433-3.669,4.559-6.364,4.924 c-0.106,0-0.208,0.009-0.313,0.009c-1.003,0-1.999-0.032-2.993-0.07c-0.58-0.025-1.159-0.057-1.737-0.094 c-1.179-0.074-2.349-0.173-3.51-0.302c-1.027-0.115-2.051-0.241-3.065-0.4c-0.682-0.106-1.359-0.222-2.032-0.347 c-0.905-0.166-1.799-0.36-2.69-0.558c-2.533-0.573-4.99-1.276-7.341-2.12c-0.115-0.096-0.222-0.204-0.295-0.335 c-0.141-0.432,0.057-0.833,0.337-1.11c6.232-5.518,13.649-8.075,20.98-10.757c2.735-0.863,5.64-1.788,8.713-1.355 c1.268,0.185,2.537,1.142,2.989,2.437C59.478,58.041,57.646,61.214,56.124,64.296z M90.271,48.722 c-0.015,0.554-0.074,1.118-0.189,1.694c-0.044,0.207-0.106,0.409-0.161,0.612c-0.056,0.207-0.111,0.416-0.176,0.618 c-1.674,5.041-6.703,8.724-10.864,10.994c-3.985,2.058-8.498,3.656-13.307,4.77c-0.388,0.06-0.768,0.145-1.163,0.187 c-0.226-0.03-0.591,0.03-0.649-0.339l0.083-0.432c5.132-6.319,9.022-13.407,12.436-20.589c1.578-3.236,3.046-6.564,4.398-9.832 c0.197-0.247,0.395-0.369,0.621-0.462c0.217,0.021,0.412,0.102,0.61,0.171c2.533,1.743,5.826,4.54,7.426,8.107 c0.026,0.058,0.052,0.119,0.076,0.177c0.135,0.313,0.256,0.633,0.362,0.959c0.143,0.452,0.274,0.906,0.356,1.378 c0.011,0.06,0.011,0.122,0.022,0.181c0.078,0.503,0.119,1.016,0.119,1.54C90.276,48.544,90.273,48.633,90.271,48.722z"/><path fill="none" stroke="#1f212b" stroke-linecap="round" stroke-linejoin="round" stroke-miterlimit="10" stroke-width="2" d="M81.89,31.644c-2.231-1.281-4.576-2.318-6.948-3.264c-10.619-3.937-23.101-5.309-34.962-3.752 c-10.93,1.619-21.549,4.425-29.88,12.602c-3.983,3.997-6.354,10.007-4.406,15.774c2.542,7.018,9.321,11.686,15.366,14.402 c17.876,7.81,42.192,7.536,59.504-1.404c5.93-3.236,12.568-8.605,13.385-16.294C94.654,41.408,87.877,35.185,81.89,31.644z"/><path fill="none" stroke="#1f212b" stroke-linecap="round" stroke-miterlimit="10" d="M58.5,41.523 c-1.669,0.676-3.358,1.303-5.055,1.909c-3.469,0.925-6.966,2.589-10.828,1.664c-0.903-0.247-1.721-0.893-2.227-1.851 c-0.96-2.897,0.337-5.916,1.465-8.443c1.494-3.175,4.146-6.905,7.812-6.965c4.843-0.038,9.514,0.439,14.036,1.308 c0.171,0.034,0.341,0.064,0.51,0.1c0.48,0.096,0.957,0.204,1.433,0.307c2.503,0.569,4.93,1.274,7.259,2.103 c0.143,0.094,0.273,0.205,0.365,0.373c0.226,0.524-0.226,0.863-0.48,1.202c-1.385,1.185-2.818,2.245-4.289,3.205"/><path fill="none" stroke="#1f212b" stroke-linecap="round" stroke-miterlimit="10" d="M64.5,38.773 c-0.988,0.518-1.989,1.004-3,1.464"/><path fill="none" stroke="#1f212b" stroke-linecap="round" stroke-miterlimit="10" d="M15.501,37.462 c4.257-3.333,9.028-5.418,13.955-6.831"/><path fill="none" stroke="#1f212b" stroke-linecap="round" stroke-miterlimit="10" d="M30.548,36.601 c-4.963,7.606-8.706,15.896-12.295,24.15c-0.347,0.356-0.69,0.39-1.027,0.277c-3.252-2.167-6.567-5.23-8.025-9.251 c-0.163-0.484-0.261-0.969-0.343-1.449c-0.026-0.156-0.054-0.315-0.074-0.473C8.728,49.381,8.7,48.91,8.715,48.446 c0-0.055,0.006-0.109,0.006-0.162c0.158-3.311,1.96-6.342,3.955-8.343"/><path fill="none" stroke="#1f212b" stroke-linecap="round" stroke-miterlimit="10" d="M32.526,29.836 c0.652-0.152,1.305-0.295,1.959-0.429c0.321,0,0.649,0.04,0.797,0.343l-0.113,0.462c-0.881,1.095-1.727,2.211-2.54,3.345"/><path fill="none" stroke="#1f212b" stroke-linecap="round" stroke-miterlimit="10" d="M56.124,64.296 c-1.435,2.433-3.669,4.559-6.364,4.924c-0.106,0-0.208,0.009-0.313,0.009c-1.003,0-1.999-0.032-2.993-0.07 c-0.58-0.025-1.159-0.057-1.737-0.094c-1.179-0.074-2.349-0.173-3.51-0.302c-1.027-0.115-2.051-0.241-3.065-0.4 c-0.682-0.106-1.359-0.222-2.032-0.347c-0.905-0.166-1.799-0.36-2.69-0.558c-2.533-0.573-4.99-1.276-7.341-2.12 c-0.115-0.096-0.222-0.204-0.295-0.335c-0.141-0.432,0.057-0.833,0.337-1.11c6.232-5.518,13.649-8.075,20.98-10.757 c2.735-0.863,5.64-1.788,8.713-1.355c1.268,0.185,2.537,1.142,2.989,2.437C59.478,58.041,57.646,61.214,56.124,64.296z"/><path fill="none" stroke="#1f212b" stroke-linecap="round" stroke-miterlimit="10" d="M90.271,48.722 c-0.015,0.554-0.074,1.118-0.189,1.694c-0.044,0.207-0.106,0.409-0.161,0.612c-0.056,0.207-0.111,0.416-0.176,0.618 c-1.674,5.041-6.703,8.724-10.864,10.994c-3.985,2.058-8.498,3.656-13.307,4.77c-0.388,0.06-0.768,0.145-1.163,0.187 c-0.226-0.03-0.591,0.03-0.649-0.339l0.083-0.432c5.132-6.319,9.022-13.407,12.436-20.589c1.578-3.236,3.046-6.564,4.398-9.832 c0.197-0.247,0.395-0.369,0.621-0.462c0.217,0.021,0.412,0.102,0.61,0.171c2.533,1.743,5.826,4.54,7.426,8.107 c0.026,0.058,0.052,0.119,0.076,0.177c0.135,0.313,0.256,0.633,0.362,0.959c0.143,0.452,0.274,0.906,0.356,1.378 c0.011,0.06,0.011,0.122,0.022,0.181c0.078,0.503,0.119,1.016,0.119,1.54C90.276,48.544,90.273,48.633,90.271,48.722z"/></svg>