<svg width="64" height="64" viewBox="0 0 64 64" fill="none" xmlns="http://www.w3.org/2000/svg">
<path d="M40.33 48.8562C41.4716 48.7135 49.4091 47.7503 55.01 44.9498C61.0747 41.9175 64 37.0123 64 32.66C64 23.2598 50.8361 16 31.9822 16C13.1282 16 0 23.2062 0 32.66C0 37.0658 2.88963 42.0245 8.98997 44.9498C14.6265 47.6611 22.6176 48.66 23.8127 48.8562L31.9822 24.9543L40.33 48.8562ZM31.9822 21.2263C31.9822 21.2263 19.5496 37.7971 18.3545 39.2954C13.7703 38.8852 5.83278 35.8528 5.83278 30.6622C5.83278 24.0624 17.3913 17.9086 31.9822 17.9086C47.3043 17.9086 58.1315 24.0624 58.1315 30.6622C58.1315 35.8885 50.194 38.8673 45.6098 39.2419C44.3612 37.6544 31.9822 21.2263 31.9822 21.2263Z" fill="black"/>
</svg>
