<svg width="64" height="64" viewBox="0 0 64 64" fill="none" xmlns="http://www.w3.org/2000/svg">
<path d="M27.8618 36.966C28.0886 36.966 29.4677 36.9592 30.5811 36.8887C31.9267 36.8034 32.6202 36.3837 33.1283 35.7825C33.7587 35.0384 33.7546 33.6431 33.7537 32.5573C33.753 31.3448 33.7714 27.8317 33.7656 27.5184C33.7612 27.204 33.6303 27.0406 33.235 27.0436C32.8392 27.0459 31.7233 27.0436 31.3403 27.0466L30.6579 27.0437C30.2621 27.0406 30.1317 27.204 30.126 27.5184V27.8552C30.1317 28.227 30.1206 31.7715 30.119 32.6025V32.9706C30.1084 33.736 30.0058 34.4805 28.8157 34.5957C28.3022 34.6449 28.0669 34.6669 27.4307 34.6669C26.7939 34.6669 26.5593 34.6449 26.0388 34.5957C24.8491 34.4819 24.777 33.736 24.7659 32.9706V32.6025C24.7642 31.7715 24.7532 28.2271 24.7581 27.8552V27.5184C24.7532 27.204 24.622 27.0407 24.227 27.0437L23.5437 27.0466C23.1607 27.0437 22.0456 27.0459 21.6495 27.0437C21.2546 27.0406 21.1237 27.204 21.1192 27.5184C21.1135 27.8317 21.1176 31.3448 21.116 32.5573C21.1152 33.6431 21.1119 35.0384 21.7414 35.7825C22.2483 36.3837 22.9323 36.8034 24.2733 36.8887C25.3868 36.96 26.725 36.966 27.0215 36.966H27.8618H27.8618ZM3.67661 36.5101C3.6688 36.8514 3.55808 36.986 3.17383 36.9942C2.78829 37.0043 0.902211 36.9987 0.558595 36.9961C0.216515 36.9928 0.00576314 36.8983 0.00493114 36.5645C0.00243514 36.2311 0.00243514 27.8469 3.14003e-06 27.5284C-0.00082886 27.2113 0.163651 27.0611 0.524931 27.0711C0.885443 27.079 2.73786 27.0622 3.22957 27.07C3.60154 27.0674 3.6889 27.2625 3.69011 27.6108C3.69914 28.0793 3.68563 36.1707 3.67661 36.5101ZM55.0682 33.1183C55.0752 33.9053 55.2843 34.432 56.276 34.5722C57.0699 34.6468 58.144 34.6621 58.9683 34.586C59.7229 34.5107 60.304 34.2325 60.338 33.4555C60.3762 32.7994 60.3795 32.6864 60.382 31.9945C60.386 30.3154 60.366 27.8765 60.3721 27.6371L60.3753 27.5352C60.3692 27.1634 60.5558 27.0063 60.902 27.0063L61.1091 27C61.5032 27.003 63.089 27.0063 63.4729 27.0063C63.819 27.0063 64.0056 27.1634 63.9999 27.5352L63.9949 27.6512C64.0023 28.0018 63.9905 31.7163 63.9864 32.8125C63.9646 33.363 63.9215 34.6453 63.4552 35.4584C63.0492 36.1641 62.3226 36.7068 61.0869 36.8183C58.7119 37.0335 56.5466 36.944 54.8791 36.8806C53.6398 36.8224 52.8413 36.5699 52.1789 35.9004C51.4293 35.1328 51.39 33.8211 51.401 32.3164C51.3867 28.9966 51.3756 28.0399 51.3813 27.7232V27.5352C51.3756 27.1634 51.5622 27.0063 51.9083 27.0063L52.1142 27C52.512 27.003 54.1573 27.0063 54.542 27.0063C54.8869 27.0063 55.0751 27.1634 55.0682 27.5352C55.0624 27.9086 55.0666 32.1601 55.0682 33.0967M36.5949 27.0357C36.9657 27.0257 43.5963 27.0328 45.6694 27.0432C47.505 27.0619 48.1837 27.2995 48.682 27.9059C49.257 28.6067 49.3165 29.4848 48.8518 30.2072C48.5183 30.7252 47.9016 31.1773 46.9764 31.588C46.2419 31.9311 44.9558 32.4518 43.6988 32.9549C42.0154 33.6311 40.4909 34.2167 40.2347 34.3387C39.8877 34.5043 40.0189 34.7523 40.2945 34.7486C41.0139 34.7408 47.9594 34.6893 48.3302 34.6886C48.7025 34.6882 48.8235 34.8101 48.8235 35.1738C48.8227 35.5543 48.8268 36.2047 48.8276 36.4998C48.819 36.8545 48.6947 36.9514 48.3252 36.9548C47.9032 36.9588 40.5045 36.9607 39.9783 36.963C38.8087 36.9603 37.6042 36.9645 36.8858 36.6478C35.9885 36.2513 35.6849 35.4565 35.6841 34.8993C35.7268 33.5413 36.5589 33.1064 38.0582 32.4746C39.7253 31.7864 44.6466 29.8503 44.9398 29.7264C45.3032 29.5724 45.1904 29.2695 44.8532 29.2796C44.5945 29.2845 37.0563 29.3195 36.684 29.3192C36.3128 29.318 36.0766 29.2636 36.0766 28.9361C36.0774 28.6102 36.0733 27.7925 36.0733 27.4561C36.0733 27.1182 36.2226 27.0466 36.5949 27.0358M17.1268 32.1425C15.4594 31.5126 10.5939 30.1128 9.94842 29.8222C9.63757 29.7006 9.6585 29.3396 10.0792 29.3396C10.7978 29.3493 17.9295 29.362 18.3019 29.3642C18.6738 29.365 18.8305 29.2333 18.8305 28.8689C18.8321 28.4889 18.8293 27.7914 18.8243 27.4851C18.8194 27.1737 18.6959 27.0559 18.3884 27.0551C18.0808 27.0551 9.84423 27.0641 9.84423 27.0641C7.5456 27.0593 6.95591 27.3669 6.30464 28.0782C5.45568 29.0062 5.72557 30.2624 6.21274 30.9102C6.76147 31.6349 7.66746 31.9553 9.10893 32.4141C10.8552 32.9307 14.9677 34.2461 14.9677 34.2461C15.3446 34.3942 15.3158 34.7534 14.8504 34.7534C14.8504 34.7534 7.00551 34.6893 6.63392 34.6885C6.26157 34.6881 6.07987 34.8534 6.07821 35.1805C6.07821 35.5076 6.07501 36.1069 6.07335 36.4471C6.07335 36.7835 6.18074 36.9756 6.55315 36.9876C6.92307 36.9991 13.6685 36.9759 15.7428 36.9723C17.3209 36.9685 18.8453 36.5251 19.1581 34.9399C19.3456 33.574 18.7099 32.7274 17.1269 32.1425" fill="#E60012"/>
</svg>
