<svg width="64" height="64" viewBox="0 0 64 64" fill="none" xmlns="http://www.w3.org/2000/svg">
<path fill-rule="evenodd" clip-rule="evenodd" d="M56.5733 27.5802C57.6178 27.6419 58.3717 28.4443 58.488 29.4939C58.546 30.0493 58.546 30.9134 58.546 31.4688C58.546 32.1479 58.546 32.7033 58.488 33.2587C58.3137 34.5553 57.4435 35.296 56.5733 35.296H55.0643C54.252 35.296 53.3234 34.5553 53.1495 33.2587C53.0916 32.7033 53.0916 32.1475 53.0916 31.5304C53.0916 30.9134 53.0916 30.0493 53.1495 29.4935C53.2655 28.4439 54.0777 27.6415 55.1222 27.5798C55.3541 27.5182 55.5284 27.5182 55.8186 27.5182L56.5733 27.5802ZM55.9925 24C57.0949 24 58.1395 24.0617 59.0101 24.185C61.4469 24.4937 63.42 26.5307 63.8257 29.0618C63.8837 29.4939 64 30.4813 64 31.4692C64 32.5187 63.8837 33.5061 63.8257 33.8765C63.42 36.4693 61.4469 38.4446 59.0101 38.815C58.1395 38.8767 57.0949 39 55.9925 39H55.6443C54.4839 39 53.4977 38.8767 52.5691 38.815C50.1323 38.4446 48.2176 36.4693 47.811 33.8765C47.7531 33.5061 47.6371 32.5187 47.6371 31.4692C47.6371 30.4817 47.7531 29.4943 47.811 29.0618C48.2172 26.5307 50.1323 24.4941 52.5691 24.185C53.4977 24.0617 54.4842 24 55.5863 24H55.9925ZM35.0462 31.4688C35.0462 30.6663 35.1042 29.8643 35.2781 29.0614C35.6842 26.5303 37.5989 24.4937 40.0361 24.1846C40.9067 24.0617 41.9513 24 43.0534 24C44.2721 24 45.3746 24.0617 46.3028 24.185C46.651 24.2467 46.8828 24.5554 46.8828 24.9258V27.1478C46.8828 27.5798 46.5926 27.8885 46.2445 27.8885C46.2445 27.8885 45.142 27.8265 44.562 27.8265C43.8656 27.8265 43.2856 27.8265 42.6468 27.8885C41.6027 27.9502 40.8484 28.7527 40.7321 29.8022C40.6741 30.3576 40.6158 30.9134 40.6158 31.4688V31.5304C40.6158 32.0862 40.6737 32.6416 40.7321 33.197C40.8484 34.2465 41.5447 35.049 42.6468 35.1723C43.2272 35.234 43.9236 35.296 44.562 35.296C45.142 35.296 46.2445 35.2344 46.2445 35.2344C46.5926 35.2344 46.8828 35.5431 46.8828 35.9752V38.1975C46.8828 38.5679 46.651 38.8767 46.3028 38.9383C45.3746 38.9383 44.2721 38.9996 43.0534 38.9996C41.9513 38.9996 40.9067 38.8763 40.0361 38.8146C37.5989 38.4442 35.6846 36.4689 35.2781 33.8761C35.1042 33.1357 35.0462 32.3333 35.0462 31.5308V31.4688ZM33.48 35.1106C33.8858 35.1106 34.176 35.481 34.176 35.8514V38.0738C34.176 38.5059 33.8858 38.8146 33.48 38.8146H25.1823C23.6737 38.8146 22.4553 37.5184 22.4553 35.9135V27.1482C22.4553 25.5436 23.6737 24.2471 25.1823 24.2471H33.4796C33.8854 24.2471 34.1756 24.5558 34.1756 24.9262V27.0865C34.1756 27.519 33.8854 27.8273 33.4796 27.8273H28.3738C27.9676 27.8273 27.6774 28.0743 27.6774 28.5064V29.8647L32.0294 29.803C32.3772 29.803 32.7253 30.1734 32.7253 30.5438V32.3958C32.7253 32.8278 32.3772 33.1366 32.0294 33.1366H27.6774V34.3711C27.6774 34.8031 27.9676 35.1119 28.3738 35.1119H33.48V35.1106ZM12.3591 38.8146C11.1407 38.8146 10.0962 37.9501 9.748 36.7772L6.90505 25.1112V24.9262C6.90505 24.5558 7.19526 24.2471 7.60139 24.2471H11.837C12.1852 24.2471 12.4754 24.4941 12.533 24.8025L14.7379 34.5557C14.7379 34.6794 14.8542 34.8023 15.0281 34.8023C15.1441 34.8023 15.26 34.679 15.26 34.5557L17.5229 24.8025C17.5809 24.4937 17.8711 24.2471 18.1613 24.2471H20.5401C20.9463 24.2471 21.2365 24.5558 21.2365 24.9262V25.1112L18.5095 36.531C18.2193 37.8271 17.2327 38.8146 15.8404 38.8146H12.3591ZM0.69634 24.2467H4.81603C5.22217 24.2467 5.51237 24.5554 5.51237 24.9258V38.0738C5.51237 38.5059 5.22217 38.8146 4.81603 38.8146H0.69634C0.34817 38.8146 0 38.5059 0 38.0738V24.9258C0 24.5554 0.34817 24.2467 0.69634 24.2467Z" fill="#003A80"/>
</svg>
