<svg width="64" height="64" viewBox="0 0 64 64" fill="none" xmlns="http://www.w3.org/2000/svg">
<g clip-path="url(#clip0_10774_10911)">
<path d="M10.949 17.3326C11.4984 17.3491 11.9702 17.1441 11.9718 17.1148C11.9734 17.0854 11.3635 17.0273 11.3635 17.0273C10.805 17.0507 10.5773 17.2579 10.5743 17.2821C10.5705 17.3054 10.7198 17.3249 10.949 17.3326Z" fill="#241F20"/>
<path d="M40.5594 44.6098C40.1751 46.2035 38.9729 46.8748 36.9604 46.8748C35.5946 46.8748 34.3931 46.6006 33.7751 45.9808C33.1049 45.3235 33.0039 44.4167 33.0039 43.4477V38.6954H34.5331V43.3664C34.5331 44.4216 34.6199 45.0509 35.0322 45.5145C35.5004 46.0579 36.3091 46.2169 36.9912 46.2169C38.4338 46.2169 39.3948 45.7496 39.6557 44.4803C39.716 44.1878 39.7629 43.8296 39.7629 43.2765V38.6953H40.7041V42.9564C40.7042 43.752 40.6582 44.2014 40.5594 44.6098Z" fill="#01422D"/>
<path d="M40.5594 44.6098C40.1751 46.2035 38.9729 46.8748 36.9604 46.8748C35.5946 46.8748 34.3931 46.6006 33.7751 45.9808C33.1049 45.3235 33.0039 44.4167 33.0039 43.4477V38.6954H34.5331V43.3664C34.5331 44.4216 34.6199 45.0509 35.0322 45.5145C35.5004 46.0579 36.3091 46.2169 36.9912 46.2169C38.4338 46.2169 39.3948 45.7496 39.6557 44.4803C39.716 44.1878 39.7629 43.8296 39.7629 43.2765V38.6953H40.7041V42.9564C40.7042 43.752 40.6582 44.2014 40.5594 44.6098" stroke="#01422D" stroke-width="0.0499395"/>
<path d="M48.3061 40.2127L46.5348 43.9061H49.9899L48.3061 40.2127ZM51.2509 46.6977L50.2426 44.4502H46.2734L45.1932 46.6977H44.2227L48.2144 38.6953H49.1656L53.0715 46.6977H51.2509Z" fill="#01422D"/>
<path d="M48.3061 40.2127L46.5348 43.9061H49.9899L48.3061 40.2127ZM51.2509 46.6977L50.2426 44.4502H46.2734L45.1932 46.6977H44.2227L48.2144 38.6953H49.1656L53.0715 46.6977H51.2509Z" stroke="#01422D" stroke-width="0.0499395"/>
<path d="M11.8753 40.2127L10.1055 43.9061H13.5614L11.8753 40.2127ZM14.8216 46.6977L13.8147 44.4502H9.84464L8.76307 46.6977H7.79297L11.7848 38.6953H12.7353L16.6428 46.6977H14.8216Z" fill="#01422D"/>
<path d="M11.8753 40.2127L10.1055 43.9061H13.5614L11.8753 40.2127M14.8216 46.6977L13.8147 44.4502H9.84464L8.76307 46.6977H7.79297L11.7848 38.6953H12.7353L16.6428 46.6977H14.8216Z" stroke="#01422D" stroke-width="0.0499395"/>
<path d="M24.9745 46.8733C22.3318 46.8733 19.8203 45.9642 19.8203 42.8911C19.8203 41.8924 20.2635 40.8688 20.9329 40.1361C21.9822 38.9972 23.5754 38.543 25.08 38.543C25.9897 38.543 27.0436 38.7493 27.8635 39.1662V40.1166C27.1204 39.5624 26.142 39.1803 25.1879 39.1803C23.014 39.1803 21.5148 40.5402 21.5148 42.7901C21.5148 44.8265 22.8378 46.2204 24.8728 46.2204C25.3907 46.2204 26.1075 46.1283 26.6004 45.9393V43.0178H28.1297V46.28C27.2326 46.684 25.9595 46.8733 24.9745 46.8733Z" fill="#01422D"/>
<path d="M24.9745 46.8733C22.3318 46.8733 19.8203 45.9642 19.8203 42.8911C19.8203 41.8924 20.2635 40.8688 20.9329 40.1361C21.9822 38.9972 23.5754 38.543 25.08 38.543C25.9897 38.543 27.0436 38.7493 27.8635 39.1662V40.1166C27.1204 39.5624 26.142 39.1803 25.1879 39.1803C23.014 39.1803 21.5148 40.5402 21.5148 42.7901C21.5148 44.8265 22.8378 46.2204 24.8728 46.2204C25.3907 46.2204 26.1075 46.1283 26.6004 45.9393V43.0178H28.1297V46.28C27.2326 46.684 25.9595 46.8733 24.9745 46.8733" stroke="#01422D" stroke-width="0.0499395"/>
<path d="M59.6195 39.2508H58.495V43.079H59.4785C60.3032 43.079 60.7963 42.9252 61.1806 42.6155C61.5862 42.2897 61.8289 41.7902 61.8289 41.1149C61.8287 39.7625 60.8459 39.2508 59.6195 39.2508ZM62.2185 46.6975L60.0981 43.6246H58.495V46.6975H56.9648V38.6953H59.8592C61.0335 38.6953 62.2087 38.8656 62.8629 39.5885C63.2051 39.9662 63.3912 40.4916 63.3912 41.1676C63.3912 42.4044 62.4588 43.1536 61.6283 43.4483L63.9799 46.6976L62.2185 46.6975Z" fill="#01422D"/>
<path d="M59.6195 39.2508H58.495V43.079H59.4785C60.3032 43.079 60.7963 42.9252 61.1806 42.6155C61.5862 42.2897 61.8289 41.7902 61.8289 41.1149C61.8287 39.7625 60.8459 39.2508 59.6195 39.2508M62.2185 46.6975L60.0981 43.6246H58.495V46.6975H56.9648V38.6953H59.8592C61.0335 38.6953 62.2087 38.8656 62.8629 39.5885C63.2051 39.9662 63.3912 40.4916 63.3912 41.1676C63.3912 42.4044 62.4588 43.1536 61.6283 43.4483L63.9799 46.6976L62.2185 46.6975V46.6975Z" stroke="#01422D" stroke-width="0.0499395"/>
<path d="M1.32904 48.3424C0.925157 48.5323 0.482659 48.6581 0.0273438 48.6581C1.07579 47.9 1.519 47.1289 1.67051 45.852C1.75944 45.1435 1.75944 44.435 1.75944 43.7272V38.6953H3.28955V44.7516C3.28971 46.2303 2.72054 47.6602 1.32904 48.3424Z" fill="#01422D"/>
<path d="M1.32904 48.3424C0.925157 48.5323 0.482659 48.6581 0.0273438 48.6581C1.07579 47.9 1.519 47.1289 1.67051 45.852C1.75944 45.1435 1.75944 44.435 1.75944 43.7272V38.6953H3.28955V44.7516C3.28971 46.2303 2.72054 47.6602 1.32904 48.3424" stroke="#01422D" stroke-width="0.0499395"/>
<path d="M7.21333 18.2788C7.21333 18.2788 7.24653 18.162 7.26086 18.1364C7.27519 18.11 7.35512 17.8402 7.74094 17.8108C7.74094 17.8108 7.93535 17.7934 8.15931 17.8628C8.15931 17.8628 8.03041 18.1952 7.50289 18.2502C7.50281 18.2502 7.29541 18.2812 7.21333 18.2788ZM58.8695 33.2641C58.7385 33.5879 58.1769 34.0005 57.5174 34.2211C56.821 34.4539 55.3668 34.4599 54.6231 34.2128C54.6231 34.2128 54.4663 34.0424 53.9431 33.8887C52.7266 33.5308 52.3332 33.2813 51.7158 32.7062C51.2795 32.3 50.7991 31.7905 50.3335 31.3102C50.1262 31.0962 49.6219 30.5912 48.7356 30.4374C47.8108 30.2776 45.5412 30.1042 44.7054 29.8088C44.1431 29.6091 43.4766 29.23 42.6402 27.9788C42.2392 27.3781 41.9354 27.2032 41.3565 26.8338C41.3565 26.8338 41.7983 27.1828 42.0305 27.6064C42.3659 28.2215 42.5264 28.664 42.7095 28.991C42.894 29.3204 43.1075 29.6137 43.4406 29.8812C43.8537 30.2129 44.1206 30.286 44.5871 30.3802C45.0333 30.4707 46.5566 30.5378 47.8636 30.589C49.1487 30.6388 49.6982 31.0368 50.0999 31.3738C50.4693 31.6857 51.0579 32.5768 51.471 32.9415C52.0234 33.4269 52.0378 33.4337 52.6793 33.8362C53.0033 34.0396 53.289 34.1729 53.5522 34.2674C54.1408 34.6132 53.8974 35.217 53.8974 35.217C53.7286 35.698 53.1211 35.8704 52.4119 35.7701C51.3399 35.6753 50.4173 34.7813 49.638 34.1398C49.2091 33.7862 49.0575 33.6098 48.2307 33.0354C46.9727 32.1627 44.0166 32.235 44.0166 32.235L41.8503 32.2214C37.6308 32.2833 36.087 28.8884 35.6657 28.176C35.5203 27.9281 35.3854 27.7284 35.2571 27.5648C35.0604 27.2994 34.0015 25.9171 32.867 25.4235C32.867 25.4235 33.9562 26.3656 33.8469 26.8812C33.6133 26.8782 33.3479 26.8932 33.0313 26.9023C28.7803 27.0267 27.8969 26.7915 27.2253 26.6573C26.5529 26.5224 25.4261 26.1878 24.331 25.6835C24.331 25.6835 24.4531 24.6358 24.0182 23.7652C24.0182 23.7652 27.527 25.0044 30.3187 24.6532C30.3187 24.6532 25.8129 24.4331 23.0022 22.1931C23.0022 22.1931 23.6958 24.5606 23.1477 25.5547C23.1477 25.5547 22.4091 27.3599 18.6215 26.1554C18.6215 26.1554 16.8795 25.4778 15.525 25.4778C15.525 25.4778 14.5052 25.52 14.3833 26.0515C14.3833 26.0515 14.3168 26.3054 14.5829 26.426C14.5829 26.426 14.8784 26.5105 14.7389 26.7298C14.509 27.0923 14.19 27.3727 13.8736 27.5309C12.8168 27.4789 12.8952 26.6114 12.8952 26.6114C12.914 26.3038 13.0136 26.089 13.1077 25.8773C13.7717 24.3917 16.1053 24.1761 16.1053 24.1761C18.5882 23.9281 21.1909 24.5243 21.1909 24.5243C19.3291 24.0803 18.696 23.7547 18.1638 23.3107C17.4469 22.7123 16.7769 20.7014 16.7769 20.7014C16.4913 21.6872 16.8449 22.6837 17.0838 23.1954C16.7309 22.6324 16.2282 22.1569 15.7798 21.7973C14.6333 20.8783 12.969 20.5815 12.969 20.5815C12.488 20.4992 12.2974 20.0011 12.2974 20.0011C11.6807 18.8659 10.9828 18.8124 10.9828 18.8124C11.3265 19.2835 11.2903 19.928 11.2903 19.928C11.2903 21.1159 9.76259 21.5102 9.76259 21.5102C8.6198 22.646 8.42164 22.6218 8.19848 22.6385C7.97532 22.6543 7.81036 22.4229 7.81036 22.4229C7.73791 22.3143 7.85853 22.2171 7.85853 22.2171C8.05143 22.0964 8.23391 21.939 8.23391 21.939C9.34795 21.0443 9.50472 20.5868 9.41427 19.9626C9.23259 18.7159 8.22714 18.8079 8.22714 18.8079C7.75447 18.8079 7.52088 19.1681 7.52088 19.1681C7.33848 19.3853 6.9397 20.0643 6.9397 20.0643C6.58844 20.6448 6.2742 20.5595 6.2742 20.5595C5.88679 20.5844 5.60639 20.2406 5.60639 20.2406C5.59126 20.2272 5.57996 20.2113 5.56722 20.1977C5.28013 19.8894 5.52725 19.5171 5.52725 19.5171C6 18.6819 6.81542 18.5999 6.92624 18.593C7.0377 18.5862 7.41388 18.5583 7.41388 18.5583C8.33478 18.4913 8.93635 17.6109 8.93635 17.6109C8.54823 17.4232 7.85486 17.5227 7.85486 17.5227C7.17949 17.568 7.00156 18.2847 7.00012 18.2847C6.41519 18.3707 6.44457 17.9215 6.56973 17.8032C6.66845 17.6871 7.0166 17.1232 9.256 16.7871C9.256 16.7871 10.4439 16.5519 12.5536 16.7834C12.6313 16.7916 12.7066 16.8596 12.6071 16.9771C12.3418 17.2884 11.512 17.9788 10.1808 17.6449C10.1808 17.6449 10.1568 18.177 11.6085 18.4431C11.6085 18.4431 12.9177 18.7219 15.0553 20.4389C15.0553 20.4389 14.0189 18.5222 12.2273 17.938C12.2273 17.938 12.0946 17.8536 12.2152 17.7323C12.2152 17.7323 13.0631 16.9725 14.5593 17.0524C14.5593 17.0524 19.5068 17.3064 22.2882 20.209C22.2882 20.209 22.1918 19.7251 21.7681 19.0234C21.7681 19.0234 21.683 18.9397 21.7319 18.8787C21.7319 18.8787 21.7681 18.7573 22.252 18.8545C22.252 18.8545 24.018 19.1448 28.1176 20.6447C28.1176 20.6447 31.1906 21.7218 32.8662 22.4167C35.3852 23.4606 41.6961 26.0204 45.6821 28.2266C46.3937 28.6201 49.3582 30.0846 49.3582 30.0846C51.5741 31.4601 53.6131 32.4558 53.6131 32.4558C55.621 33.3837 57.081 32.9586 57.081 32.9586C57.5475 32.7829 58.4386 32.2991 58.7859 32.6427C58.9629 32.8185 58.9734 33.0475 58.8695 33.2641ZM59.3692 32.4853C59.1067 31.8741 58.2618 32.0241 58.2618 32.0241C57.8754 32.0475 57.3878 32.4521 56.71 32.5915C55.2523 32.8923 54.1375 32.3964 54.1375 32.3964C51.9895 31.4347 50.5354 30.3869 49.5894 29.8457C48.6436 29.3046 45.1425 27.4654 41.6406 25.7055C41.6406 25.7055 37.6291 23.6492 31.6941 21.1958C31.6941 21.1958 20.2432 16.0002 12.0072 16.0002C12.0072 16.0002 7.74102 15.9466 6.29617 17.5884C6.29617 17.5884 6.0414 17.7994 6.16568 18.0594C6.16568 18.0594 6.18304 18.1311 6.12954 18.177C6.12954 18.177 5.49413 18.5946 4.97696 19.1938C4.97696 19.1938 4.69974 19.4772 4.92266 19.9C4.92266 19.9 5.19853 20.3809 5.37272 20.5875C5.54835 20.7932 5.89953 21.1536 6.43613 21.1001C6.67354 21.0759 6.68031 21.0165 6.68031 21.0165C6.9268 21.2652 7.35719 21.2802 7.35719 21.2802C7.3142 21.1273 7.14988 20.8242 7.13555 20.6479C7.1197 20.4504 7.19653 20.2672 7.19653 20.2672C7.28626 20.0501 7.4544 19.781 7.62557 19.6469C7.7778 19.5278 8.15533 19.4042 8.43724 19.6016C8.66351 19.76 8.90379 20.2672 8.63254 20.935C8.63254 20.935 8.3273 21.4626 8.04538 21.5214L7.96712 21.5251C7.80574 21.5221 7.44628 21.3239 7.44628 21.3239C7.44628 21.3239 7.43123 21.3669 7.47112 21.5486C7.49445 21.6518 7.52765 21.7664 7.55559 21.8546L7.48091 21.9148C7.48091 21.9148 7.25401 22.0973 7.35433 22.3604C7.35433 22.3604 7.57518 23.191 8.19171 23.191C8.73675 23.2091 9.1904 22.692 9.1904 22.692C10.3595 21.431 12.0072 21.2614 12.0072 21.2614C13.8334 21.137 16.443 23.0071 17.1538 23.5468C14.4493 23.5174 13.3579 24.5553 13.3579 24.5553C11.8346 25.741 12.4277 27.1716 12.4277 27.1716C12.5386 27.4828 12.8506 27.7097 13.0496 27.7971C13.3366 27.9222 13.5727 27.9274 13.7951 27.9026C13.9556 27.8852 14.1318 27.8257 14.2216 27.7639C14.4289 27.6417 14.7989 27.3998 14.9776 27.1427C15.0968 27.0138 15.2165 26.6981 15.1374 26.3973C15.1374 26.3973 15.0893 26.1554 15.307 26.1063C15.307 26.1063 16.0237 25.9247 17.471 26.5639C17.471 26.5639 19.0433 27.4805 21.0829 27.6621C21.0829 27.6621 23.4022 27.8973 23.9623 26.6416C23.9623 26.6416 25.2948 27.1865 27.2448 27.4097C27.2448 27.4097 29.1449 27.6063 32.2271 27.3743C32.8337 27.3282 33.546 27.3788 33.546 27.3788C34.5327 27.4971 35.1598 28.0105 35.407 28.4122C36.4171 30.0522 37.6223 33.27 42.5571 33.1427L44.7904 33.0814C46.148 33.0814 47.2535 33.0928 48.339 33.6731C48.813 33.9272 50.0652 35.1699 50.8361 35.5898C53.1192 37.1283 54.4382 36.413 54.4382 36.413C55.2153 35.9601 55.1543 35.1542 54.965 34.7029C54.7313 34.6288 57.7938 35.152 59.0995 33.4374C59.4084 33.0551 59.4625 32.7048 59.3692 32.4853Z" fill="#241F20"/>
</g>
<defs>
<clipPath id="clip0_10774_10911">
<rect width="64" height="64" fill="white"/>
</clipPath>
</defs>
</svg>
