<svg width="64" height="64" viewBox="0 0 64 64" fill="none" xmlns="http://www.w3.org/2000/svg">
<path d="M11.1274 18.5488H16.3256V32.1389C16.3256 34.4795 15.3194 39.3748 8.11747 39.3748C0.917288 39.3747 0.136719 34.8119 0.136719 32.2428V29.7389H5.1618V32.1935C5.1618 33.6954 6.15296 35.0898 8.06319 35.0898C9.96129 35.0898 11.1273 34.0296 11.1273 32.2429V18.5488H11.1274ZM24.3628 24.2287C28.4342 24.2287 32.0193 25.7911 32.0193 32.9653H22.354C22.354 35.2548 23.3053 36.2 24.98 36.2C26.6474 36.2 27.2094 34.8695 27.2094 34.8695H31.9599C31.9599 36.9277 29.1133 39.706 24.8088 39.6624C19.8979 39.6624 17.4897 36.0338 17.4897 32.3097C17.4897 28.5787 19.6233 24.2287 24.3628 24.2287ZM27.2712 30.076C27.2712 28.6844 26.49 27.3453 24.7015 27.3453C22.965 27.3453 22.354 28.5787 22.354 30.076H27.2712ZM39.8876 24.2287C43.9642 24.2287 47.5424 25.7911 47.5424 32.9653H37.8803C37.8803 35.2548 38.8283 36.2 40.5037 36.2C42.1837 36.2 42.7358 34.8695 42.7358 34.8695H47.4806C47.4806 36.9277 44.6403 39.706 40.3381 39.6624C35.4192 39.6624 33.0116 36.0338 33.0116 32.3097C33.0116 28.5787 35.1359 24.2287 39.8876 24.2287ZM42.7964 30.076C42.7964 28.6844 42.0107 27.3453 40.2256 27.3453C38.4903 27.3453 37.8803 28.5787 37.8803 30.076H42.7964ZM48.7643 44.0002V24.7867H53.5667V26.97C53.734 26.6066 53.8586 26.3533 54.2301 25.8976C54.5521 25.5086 55.4557 24.3949 57.8614 24.3949C60.2603 24.3949 64 26.0649 64 31.9732C64 36.5383 61.7718 39.8793 57.9173 39.8793C55.7913 39.8793 54.8429 39.141 54.2855 38.7139C53.929 38.4326 53.8182 38.3006 53.6226 38.0379V44.0003H48.7643V44.0002ZM53.5056 32.1389C53.4513 34.9799 54.0658 36.4749 56.411 36.4749C58.7516 36.4749 59.0955 33.9216 59.0955 31.9731C59.0955 30.0213 58.642 28.1323 56.1861 28.1323C54.6842 28.1323 53.5667 29.2959 53.5056 32.1389Z" fill="#424D07"/>
<path d="M11.1274 18.5488H16.3256V32.1389C16.3256 34.4795 15.3194 39.3748 8.11747 39.3748C0.917288 39.3747 0.136719 34.8119 0.136719 32.2428V29.7389H5.1618V32.1935C5.1618 33.6954 6.15296 35.0898 8.06319 35.0898C9.96129 35.0898 11.1273 34.0296 11.1273 32.2429V18.5488H11.1274ZM24.3628 24.2287C28.4342 24.2287 32.0193 25.7911 32.0193 32.9653H22.354C22.354 35.2548 23.3053 36.2 24.98 36.2C26.6474 36.2 27.2094 34.8695 27.2094 34.8695H31.9599C31.9599 36.9277 29.1133 39.706 24.8088 39.6624C19.8979 39.6624 17.4897 36.0338 17.4897 32.3097C17.4897 28.5787 19.6233 24.2287 24.3628 24.2287ZM27.2712 30.076C27.2712 28.6844 26.49 27.3453 24.7015 27.3453C22.965 27.3453 22.354 28.5787 22.354 30.076H27.2712ZM39.8876 24.2287C43.9642 24.2287 47.5424 25.7911 47.5424 32.9653H37.8803C37.8803 35.2548 38.8283 36.2 40.5037 36.2C42.1837 36.2 42.7358 34.8695 42.7358 34.8695H47.4806C47.4806 36.9277 44.6403 39.706 40.3381 39.6624C35.4192 39.6624 33.0116 36.0338 33.0116 32.3097C33.0116 28.5787 35.1359 24.2287 39.8876 24.2287ZM42.7964 30.076C42.7964 28.6844 42.0107 27.3453 40.2256 27.3453C38.4903 27.3453 37.8803 28.5787 37.8803 30.076H42.7964ZM48.7643 44.0002V24.7867H53.5667V26.97C53.734 26.6066 53.8586 26.3533 54.2301 25.8976C54.5521 25.5086 55.4557 24.3949 57.8614 24.3949C60.2603 24.3949 64 26.0649 64 31.9732C64 36.5383 61.7718 39.8793 57.9173 39.8793C55.7913 39.8793 54.8429 39.141 54.2855 38.7139C53.929 38.4326 53.8182 38.3006 53.6226 38.0379V44.0003H48.7643V44.0002ZM53.5056 32.1389C53.4513 34.9799 54.0658 36.4749 56.411 36.4749C58.7516 36.4749 59.0955 33.9216 59.0955 31.9731C59.0955 30.0213 58.642 28.1323 56.1861 28.1323C54.6842 28.1323 53.5667 29.2959 53.5056 32.1389Z" fill="#424D07"/>
</svg>
