<svg width="64" height="64" viewBox="0 0 64 64" fill="none" xmlns="http://www.w3.org/2000/svg">
<g clip-path="url(#clip0_11467_10850)">
<path d="M16.3545 27.7875C16.4833 27.5238 16.596 27.2561 16.757 26.9885C18.1175 29.8371 19.4498 32.6977 20.8022 35.5503C20.8802 35.6835 20.9372 35.8276 20.9713 35.9778C20.5688 35.9778 20.1663 35.9778 19.7879 35.9778C18.7856 33.8044 17.7753 31.6429 16.761 29.4695C16.6241 29.6933 16.5235 29.937 16.4068 30.1727C15.7265 31.615 15.0302 33.0493 14.3499 34.4916C14.1044 34.987 13.8911 35.4984 13.6254 35.9778C13.2229 36.0018 12.8526 35.9778 12.4662 35.9778C12.5629 35.7148 12.6772 35.4586 12.8083 35.2107C13.9971 32.7283 15.1831 30.2473 16.3665 27.7675M40.7711 29.5574C40.9039 28.7024 40.9924 27.8355 41.1736 26.9805C42.4697 29.2698 43.7295 31.575 45.0176 33.8643C46.2627 31.6483 47.5025 29.4269 48.7368 27.2002C48.7742 27.1333 48.8202 27.0715 48.8737 27.0164C48.9532 27.4124 49.0096 27.8126 49.0428 28.215L49.079 28.1311C49.0798 28.3578 49.1027 28.584 49.1474 28.8063C49.4895 31.1795 49.8196 33.5567 50.1617 35.9339C49.7734 35.9639 49.3837 35.9719 48.9945 35.9578C48.7261 34.16 48.4578 32.3621 48.1894 30.5642C47.1228 32.434 46.1044 34.3318 45.0417 36.2055C44.9865 36.148 44.9391 36.0836 44.9009 36.0138C43.8906 34.1919 42.8883 32.3741 41.8619 30.5522C41.5761 32.3341 41.3346 34.124 41.0568 35.9059L41.0085 35.9538C40.6382 35.9538 40.2679 35.9538 39.8976 35.9538C40.1874 33.8124 40.4973 31.6749 40.7992 29.5334M59.7738 27.0124C59.9912 27.36 60.1361 27.7436 60.3172 28.1071C61.4899 30.5842 62.6599 33.0626 63.8272 35.5423C63.9016 35.6879 63.9648 35.8388 64.0163 35.9938C63.6541 35.9938 63.2918 35.9938 62.9336 35.9938C62.8531 35.9938 62.8048 35.9498 62.7806 35.8859C61.9031 34.0002 61.0176 32.1184 60.1401 30.2326C60.0153 29.9809 59.9147 29.7172 59.7778 29.4775C58.8386 31.4458 57.8994 33.4155 56.9602 35.3865C56.8685 35.5966 56.7637 35.8007 56.6463 35.9978C56.2639 35.9978 55.8775 35.9978 55.4951 35.9978C55.6521 35.5983 55.8654 35.1987 56.0465 34.7992C56.9844 32.8415 57.9142 30.8838 58.8641 28.9302C59.166 28.2909 59.4639 27.6517 59.7778 27.0164M5.69181 27.2282H7.09659V27.3161C6.6498 27.7156 6.23521 28.1751 5.80451 28.5986C4.84653 29.5894 3.86036 30.5522 2.89835 31.5391C3.67521 32.3381 4.50841 33.0772 5.28527 33.8643C5.97357 34.5235 6.66187 35.1828 7.34213 35.8619C7.38322 35.9099 7.42088 35.9606 7.45483 36.0138C7.05231 36.0138 6.62967 36.0138 6.21508 36.0138C6.17534 36.0161 6.1356 36.009 6.09919 35.993C6.06278 35.9771 6.03075 35.9527 6.00577 35.9219L1.98062 32.0425C1.80753 31.8787 1.63445 31.7149 1.47345 31.5431C2.31068 30.6921 3.15999 29.8531 3.99319 29.0021C4.56074 28.4268 5.12829 27.8474 5.70389 27.2841C6.14263 27.2841 6.5854 27.2841 7.02414 27.2841C6.98791 27.2282 6.89533 27.2322 6.83898 27.2282C6.43646 27.2282 6.03395 27.2282 5.66363 27.2282M27.0573 27.2801C27.294 27.241 27.5342 27.2276 27.7738 27.2402H30.7927C31.1802 27.2617 31.5645 27.3219 31.9399 27.42C32.2454 27.4909 32.5338 27.6209 32.7887 27.8025C33.0436 27.9842 33.2598 28.214 33.4251 28.4787C33.6966 28.9897 33.7859 29.5769 33.6787 30.1447C33.6363 30.4463 33.5318 30.7359 33.3719 30.9957C33.2119 31.2555 32.9999 31.4799 32.7489 31.6549C32.2391 31.9819 31.6489 32.1642 31.0422 32.1823L33.8599 35.5223C33.9943 35.6693 34.118 35.8255 34.2302 35.9898C33.7713 36.0258 33.3084 35.9898 32.8495 35.9898C31.642 34.5954 30.4626 33.1931 29.2631 31.7708C29.09 31.559 28.9009 31.3713 28.7439 31.1395C29.3477 31.1395 29.9514 31.1395 30.5552 31.1395C31.037 31.1602 31.5154 31.0512 31.9399 30.8239C32.1284 30.689 32.2779 30.5073 32.3733 30.2969C32.4687 30.0865 32.5066 29.8549 32.4833 29.6253C32.4984 29.47 32.4796 29.3132 32.4282 29.1656C32.3768 29.0181 32.294 28.8833 32.1854 28.7703C31.8528 28.4776 31.4224 28.3181 30.9778 28.3229C30.7972 28.3049 30.6151 28.3049 30.4345 28.3229H28.2126C28.2126 30.8239 28.2126 33.325 28.2126 35.822C28.205 35.8936 28.1915 35.9644 28.1723 36.0337H27.0936C27.0936 33.1212 27.0936 30.2126 27.0936 27.3041M0.0243887 29.1859C0.0243887 28.5466 0.0243887 27.9034 0.0243887 27.2641C0.382628 27.2641 0.740867 27.2641 1.09911 27.2641V34.8551C1.09911 35.2307 1.09911 35.6063 1.09911 35.9818C0.744892 35.9818 0.390678 35.9818 0.0364645 35.9818C-0.00781225 35.2147 0.0686655 34.4436 -0.0078125 33.6805L0.0243887 33.6366C0.0324273 33.4889 0.0324273 33.3408 0.0243887 33.1931C0.0646403 32.7416 0.0243887 32.2902 0.0243887 31.8387C-0.0319635 31.2874 0.05659 30.736 0.0243887 30.1847C0.0243887 29.8451 0.0243887 29.5055 0.0243887 29.1659" fill="black"/>
</g>
<defs>
<clipPath id="clip0_11467_10850">
<rect width="64" height="9.24105" fill="white" transform="translate(0 27)"/>
</clipPath>
</defs>
</svg>
