<svg xmlns="http://www.w3.org/2000/svg" xmlns:xlink="http://www.w3.org/1999/xlink" height="800" width="1200" viewBox="-36.42855 -60.71425 315.7141 364.2855"><linearGradient id="a"><stop stop-color="#fff" offset="0"/><stop stop-color="#b1b3b4" offset="1"/></linearGradient><linearGradient y2="427.453" y1="428.453" xlink:href="#a" x2="-328.169" x1="-328.169" gradientUnits="userSpaceOnUse" gradientTransform="matrix(99.8268 -106.0418 -96.4016 -109.8094 74146.679 12276.098)" id="b"/><radialGradient r="1" gradientUnits="userSpaceOnUse" gradientTransform="matrix(127.6735 0 0 -141.5507 41855.566 60812.429)" cy="429.2" cx="-327.122" id="c"><stop stop-color="#00bcea" offset="0"/><stop stop-color="#004394" offset="1"/></radialGradient><linearGradient y2="431.617" y1="432.617" xlink:href="#a" x2="-329.904" x1="-329.904" gradientUnits="userSpaceOnUse" gradientTransform="matrix(-97.4343 100.252 90.8589 107.5071 -71274.243 -13299.367)" id="d"/><linearGradient y2="429.118" y1="430.118" xlink:href="#a" x2="-315.518" x1="-315.518" gradientUnits="userSpaceOnUse" gradientTransform="matrix(20.191 9.1035 2.8377 -64.7745 5285.9 30816.956)" id="e"/><linearGradient y2="430.95" y1="431.951" x2="-325.098" x1="-325.098" gradientUnits="userSpaceOnUse" gradientTransform="matrix(45.4656 50.7759 62.578 -36.8908 -12116.228 32489.956)" id="f"><stop stop-color="#c4c6c8" offset="0"/><stop stop-color="#fff" offset="1"/></linearGradient><path fill="#004394" d="M0 0h242.857v242.857H0z"/><path fill="url(#b)" d="M52.041 83.167V27.894l4.878-1.515c41.769-12.967 87.251-12.967 129.02 0l4.878 1.515v55.273c0 39.358-30.326 74.788-67.447 85.577l-1.94.563-1.939-.563c-37.125-10.789-67.45-46.215-67.45-85.577z"/><path fill="url(#c)" d="M58.568 31.579c40.695-12.652 85.027-12.652 125.723 0l.975.304v51.27c0 36.941-28.701 70.262-63.447 80.375l-.39.112-.388-.113c-34.749-10.112-63.45-43.431-63.45-80.375v-51.27z"/><path fill="#003a81" d="M60.649 33.66c40.327-12.538 84.225-12.649 124.617-.338v-1.44l-.976-.304c-40.695-12.652-85.027-12.652-125.723 0l-.976.304v51.27c0 22.202 10.368 43.091 26.182 58.424-14.636-15.116-24.101-35.13-24.101-56.343v-51.27z"/><path fill="url(#d)" d="M58.568 31.579c40.695-12.652 85.027-12.652 125.723 0l.975.304v51.27c0 36.941-28.701 70.262-63.447 80.375l-.39.112-.388-.113c-34.749-10.112-63.45-43.431-63.45-80.375v-51.27zm-3.751-1.646v53.233c0 38.125 29.513 72.473 65.449 82.917l1.164.338 1.164-.338c35.934-10.443 65.448-44.794 65.448-82.917V29.933l-2.927-.909c-41.232-12.801-86.14-12.801-127.371 0z"/><path fill="#003a81" d="M84.74 104.086c5.331 3.508 10.26 7.432 14.752 11.787 9.15 9.439 16.342 20.793 21.222 34.208l2.082 2.082c.51-.847 1.026-1.715 1.546-2.603l1.268 1.269a81.91 81.91 0 0010.729-11.71c2.274-3.032 4.502-6.229 6.242-9.638 1.632-3.198 2.736-6.53 3.189-9.982.52-3.963.131-7.898-.944-11.659-1.079-3.769-2.962-6.815-4.837-9.943-1.637-2.734-4.669-6.864-3.328-10.21.055-.135.11-.262.169-.382l-2.081-2.082c-.473-.334-.93-.69-1.369-1.068.254-.245.516-.482.784-.709h.001l.004-.003.507-.438.452.495c3.043 3.327 7.362 5.384 11.925 5.384l6.323 5.286c.134.362.164.752.111 1.112-.02.137-.063.261-.1.393-.1.372-.106.669-.018 1.032.045.18.1.326.209.479.046.065.099.13.158.193l2.081 2.082c.162.172.372.327.628.439a.609.609 0 00.355.059c1.98-.148 3.959.003 5.802.589.507.159.882.348 1.427.284.438-.052.674-.203.711-.69a1.916 1.916 0 00-.354-1.225c-.115-.165-.254-.282-.406-.414-.495-.423-.99-.878-1.486-1.334a2.02 2.02 0 00-.188-.333c-.116-.165-.255-.282-.407-.414a42.786 42.786 0 01-1.152-1.028 1.211 1.211 0 01-.02-.498.949.949 0 01.508-.739c.489-.253 1.03-.13 1.602.01.331.082.647.203.947.358.344.624.579 1.327.678 2.067.031.237.018.492.131.706.085.157.222.303.375.421l2.082 2.082c.203.157.404.236.664.246.202.007.379-.036.545-.098.289-.11.432-.242.646-.457a42.518 42.518 0 001.778-1.871c.402-.46.773-.853 1.242-1.25a25.446 25.446 0 015.162-3.423c.576-.345 1.079-.98 1.376-1.678.271-.639.487-1.702.544-2.403a3.536 3.536 0 00-.105-1.234c-.078-.281-.212-.508-.358-.756l-13.608-23.162c-.128-.221-.234-.41-.305-.657a4.773 4.773 0 01.017-2.546c.132-.435.255-.824.282-1.285.059-1.006-.21-2.101-.831-2.807l-10.781-12.252 1.914-5.237c.168-.46.003-.822-.278-1.106l-1.879-1.892c-.17-.171-.381-.321-.701-.334-3.119-.127-5.947 1.295-7.873 3.582l-1.23-1.229c-.757-.146-1.531-.207-2.3-.275-34.393-3.088-66.105 20.058-75.051 55.225l2.082 2.082a120.745 120.745 0 0112.139 6.237c1.554.916 3.09 1.872 4.599 2.865z"/><path fill="#eceded" d="M81.38 101.176c18.004 11.487 31.583 27.599 39.334 48.906 3.256-5.408 6.83-11.697 9.301-18.252 2.521-6.694 3.896-13.677 2.594-20.284a26.535 26.535 0 00-1.043-3.806 23.702 23.702 0 00-1.632-3.584c-.146-.261-.386-.674-.626-1.092-.835-1.445-1.68-2.906-2.221-4.518v-.005l-.004-.011c-1.457-4.35-.727-9.232 1.598-13.133.454-.764.967-1.487 1.531-2.158a15.404 15.404 0 011.871-1.874l.004-.003.508-.437.451.495c3.043 3.327 7.363 5.384 11.926 5.384l7.588 6.343c.098.081.203.163.299.247.553.507.725 1.246.629 1.89-.02.137-.063.261-.099.393a1.926 1.926 0 00-.019 1.032c.045.181.1.326.209.479a1.926 1.926 0 00.787.633.62.62 0 00.354.059c1.98-.149 3.96.003 5.802.589.506.159.882.348 1.426.284.439-.052.676-.203.712-.689a1.932 1.932 0 00-.353-1.225c-.117-.164-.256-.281-.408-.414-.906-.774-1.813-1.66-2.721-2.449-.39-.338-.612-.579-.533-1.158a.955.955 0 01.508-.739c.49-.252 1.031-.13 1.603.01 1.949.481 3.415 2.33 3.707 4.508.031.236.017.492.13.706.085.157.222.302.375.42.203.157.405.236.665.246.202.008.379-.035.546-.098.288-.11.432-.242.645-.458a40.786 40.786 0 001.777-1.871c.402-.46.773-.853 1.243-1.25a25.467 25.467 0 015.161-3.423c.576-.345 1.08-.98 1.377-1.678.271-.639.486-1.702.543-2.403a3.513 3.513 0 00-.105-1.234c-.078-.28-.211-.508-.357-.756l-13.609-23.162c-.127-.221-.233-.409-.303-.657a4.753 4.753 0 01.016-2.546c.133-.434.254-.824.282-1.285.059-1.006-.21-2.101-.831-2.807l-10.781-12.252 1.914-5.237c.233-.64-.068-1.222-.777-1.251-3.67-.15-6.938 1.845-8.807 4.871-.475.765-.91 1.634-1.31 2.616l-.17.419-.451.013-.151.004a61.868 61.868 0 00-9.574 1.033 60.027 60.027 0 00-21.764 8.76l-.002.003-.037.024A61.602 61.602 0 0097.477 64.32c-8.952 10.206-14.422 23.138-16.097 36.856z"/><path fill="url(#e)" d="M123.529 148.746a81.916 81.916 0 0010.729-11.71c2.274-3.031 4.502-6.229 6.241-9.637 1.633-3.199 2.736-6.531 3.189-9.983.52-3.962.132-7.897-.943-11.658-1.08-3.769-2.963-6.815-4.838-9.943-1.637-2.734-4.669-6.864-3.328-10.21.055-.135.11-.262.17-.382a18.653 18.653 0 01-2.262-1.887c-.332.323-.649.664-.948 1.019-.508.604-.965 1.25-1.368 1.928-2.066 3.469-2.738 7.832-1.443 11.695l.006.017.021.068c.499 1.453 1.289 2.808 2.055 4.132.214.371.43.74.638 1.113a25.66 25.66 0 011.75 3.845 27.797 27.797 0 011.112 4.057c1.408 7.143-.145 14.521-2.672 21.23-2.14 5.679-5.03 11.075-8.109 16.306z"/><path fill="url(#f)" d="M140.97 37.675C106.576 34.588 74.864 57.733 65.919 92.9c4.852 2.164 9.473 4.581 13.842 7.262 1.812-13.625 7.321-26.622 16.411-36.989a63.235 63.235 0 0112.872-11.209l.004-.004.151-.099a61.827 61.827 0 0127.247-9.731 63.547 63.547 0 014.471-.327c.342-.774.73-1.529 1.175-2.247.353-.57.747-1.106 1.179-1.606-.758-.145-1.533-.206-2.301-.275z"/><path fill="#fff" d="M201.856 205.38c0 5.525-1.58 9.909-4.748 13.156-3.161 3.248-7.536 4.876-13.118 4.876-5.566 0-9.934-1.628-13.102-4.876-3.16-3.247-4.74-7.631-4.74-13.156 0-5.566 1.58-9.966 4.74-13.197 3.168-3.24 7.535-4.852 13.102-4.852 5.551 0 9.918 1.611 13.094 4.852 3.184 3.231 4.772 7.631 4.772 13.197zm-11.839 8.774c.865-1.057 1.509-2.303 1.93-3.732.421-1.437.627-3.12.627-5.065 0-2.073-.238-3.843-.723-5.304-.477-1.453-1.111-2.637-1.882-3.534-.794-.929-1.707-1.604-2.731-2.024a8.455 8.455 0 00-3.225-.628 8.41 8.41 0 00-3.199.604c-1 .406-1.922 1.072-2.756 2.001-.777.873-1.404 2.064-1.897 3.598-.492 1.524-.73 3.295-.73 5.313 0 2.064.23 3.818.707 5.271.476 1.453 1.096 2.629 1.874 3.55.777.913 1.684 1.588 2.724 2.024 1.04.43 2.128.651 3.279.651a8.256 8.256 0 003.279-.667c1.04-.445 1.945-1.129 2.723-2.058zm-52.955 9.211c-2.572 0-4.946-.381-7.13-1.143-2.176-.755-4.05-1.891-5.614-3.391-1.564-1.51-2.779-3.383-3.645-5.631-.857-2.255-1.286-4.852-1.286-7.797 0-2.74.413-5.232 1.23-7.465.826-2.23 2.017-4.152 3.581-5.748 1.509-1.533 3.375-2.725 5.598-3.558 2.225-.842 4.654-1.255 7.29-1.255 1.462 0 2.771.08 3.946.238a28.68 28.68 0 013.248.643c1.032.295 1.977.628 2.818.993.85.357 1.588.698 2.224 1.009v8.4h-1.024a37.414 37.414 0 00-1.636-1.326 21.172 21.172 0 00-2.247-1.516 15.726 15.726 0 00-2.771-1.255c-.992-.342-2.049-.509-3.184-.509-1.255 0-2.445.191-3.582.588-1.135.396-2.175 1.057-3.144 1.969-.913.882-1.651 2.057-2.216 3.51-.572 1.462-.85 3.225-.85 5.305 0 2.176.302 3.986.914 5.447.619 1.453 1.389 2.604 2.318 3.438.944.857 2 1.461 3.16 1.826 1.167.365 2.311.548 3.445.548 1.088 0 2.16-.159 3.225-.484a12.511 12.511 0 002.938-1.326 20.509 20.509 0 002.121-1.445c.65-.508 1.183-.953 1.604-1.326h.929v8.282a189.7 189.7 0 01-2.485 1.096c-.794.341-1.619.636-2.493.882a30.924 30.924 0 01-3.185.746c-.992.168-2.357.255-4.097.255zm-32.024-.675H94.08l-10.354-13.864-2.088 2.533v11.331h-8.933v-34.636h8.933v15.674l12.372-15.674h10.354l-13.539 16.023zm-64.036-34.636v34.636h8.933v-34.636z"/></svg>