<svg width="64" height="64" viewBox="0 0 64 64" fill="none" xmlns="http://www.w3.org/2000/svg">
<g clip-path="url(#clip0_10704_16684)">
<path d="M13.7109 22.9188V8.35276L14.9965 7.95352C26.004 4.53633 37.99 4.53633 48.9975 7.95352L50.283 8.35276V22.9188C50.283 33.2908 42.2911 42.6277 32.5085 45.4709L31.9972 45.6193L31.4862 45.4709C21.7026 42.6277 13.7109 33.2919 13.7109 22.9188Z" fill="url(#paint0_linear_10704_16684)"/>
<path d="M15.4372 9.3229C26.1616 5.98872 37.8446 5.98872 48.5693 9.3229L48.8263 9.40301V22.9142C48.8263 32.6492 41.2626 41.4303 32.1059 44.0954L32.0031 44.1249L31.9009 44.0951C22.7434 41.4303 15.1797 32.6497 15.1797 22.9139V9.40275L15.4372 9.3229Z" fill="url(#paint1_radial_10704_16684)"/>
<path d="M15.9856 9.87157C26.6131 6.56743 38.1817 6.53818 48.8263 9.78249V9.40301L48.5691 9.3229C37.8446 5.98872 26.1616 5.98872 15.4369 9.3229L15.1797 9.40301V22.9142C15.1797 28.7651 17.912 34.2699 22.0795 38.3106C18.2224 34.3271 15.7281 29.0528 15.7281 23.4626V9.95142L15.9856 9.87157Z" fill="#003A81"/>
<path d="M15.4377 9.32254C26.1622 5.98836 37.8452 5.98836 48.5699 9.32254L48.8269 9.40265V22.9138C48.8269 32.6489 41.2632 41.4299 32.1065 44.095L32.0037 44.1245L31.9014 44.0947C22.7439 41.4299 15.1803 32.6494 15.1803 22.9135V9.40239L15.4377 9.32254ZM14.4492 8.88877V22.9172C14.4492 32.9643 22.2269 42.016 31.6972 44.7683L32.004 44.8574L32.3107 44.7683C41.7805 42.0163 49.5584 32.9638 49.5584 22.9172V8.88877L48.7871 8.64922C37.9211 5.27578 26.0863 5.27578 15.2206 8.64922L14.4492 8.88877Z" fill="url(#paint2_linear_10704_16684)"/>
<path d="M22.3347 28.4293C23.7396 29.3538 25.0385 30.3879 26.2223 31.5356C28.6337 34.023 30.529 37.0151 31.815 40.5504L32.3637 41.099C32.4981 40.8758 32.6341 40.6471 32.7711 40.4131L33.1053 40.7475C34.1455 39.8129 35.0924 38.7794 35.9327 37.6616C36.532 36.8625 37.1192 36.02 37.5777 35.1217C38.0078 34.2789 38.2987 33.4008 38.4181 32.4911C38.5552 31.4467 38.4526 30.4097 38.1693 29.4186C37.885 28.4254 37.3888 27.6227 36.8946 26.7983C36.4632 26.0779 35.6642 24.9895 36.0176 24.1077C36.0321 24.0721 36.0466 24.0387 36.0621 24.007L35.5137 23.4584C35.3891 23.3703 35.2686 23.2765 35.153 23.1769C35.2199 23.1124 35.2889 23.0499 35.3596 22.9901H35.3598L35.3609 22.9893L35.4945 22.8739L35.6136 23.0043C36.4155 23.8811 37.5537 24.4232 38.7562 24.4232L40.4226 25.8162C40.4579 25.9116 40.4658 26.0143 40.4518 26.1092C40.4465 26.1453 40.4352 26.178 40.4255 26.2128C40.3991 26.3108 40.3975 26.3891 40.4207 26.4847C40.4326 26.5322 40.4471 26.5707 40.4758 26.611C40.4879 26.6281 40.5019 26.6452 40.5174 26.6618L41.0658 27.2105C41.1085 27.2558 41.1639 27.2967 41.2313 27.3262C41.2603 27.3407 41.2929 27.3461 41.3249 27.3417C41.8467 27.3027 42.3682 27.3425 42.8539 27.497C42.9875 27.5389 43.0864 27.5887 43.23 27.5718C43.3454 27.5581 43.4076 27.5183 43.4174 27.39C43.424 27.2749 43.3911 27.1609 43.3241 27.0671C43.2938 27.0237 43.2571 26.9928 43.2171 26.958C43.0866 26.8466 42.9562 26.7267 42.8255 26.6065C42.8118 26.5757 42.7952 26.5464 42.7759 26.5187C42.7453 26.4753 42.7087 26.4444 42.6687 26.4096C42.5658 26.3212 42.4646 26.2308 42.3651 26.1387C42.3542 26.0958 42.3524 26.0511 42.3598 26.0075C42.3643 25.9665 42.3789 25.9273 42.4023 25.8933C42.4256 25.8593 42.457 25.8317 42.4937 25.8127C42.6225 25.7461 42.7651 25.7785 42.9158 25.8154C43.0031 25.837 43.0863 25.8689 43.1654 25.9097C43.2561 26.0742 43.318 26.2594 43.3441 26.4544C43.3523 26.5169 43.3488 26.5841 43.3786 26.6405C43.401 26.6819 43.4371 26.7203 43.4774 26.7514L44.0261 27.3001C44.0796 27.3415 44.1326 27.3623 44.2011 27.3649C44.2543 27.3668 44.301 27.3554 44.3447 27.3391C44.4209 27.3101 44.4586 27.2753 44.515 27.2187C44.6761 27.0591 44.8324 26.8947 44.9835 26.7256C45.0895 26.6044 45.1872 26.5008 45.3108 26.3962C45.7259 26.0412 46.1827 25.7383 46.6712 25.4941C46.823 25.4032 46.9555 25.2359 47.0338 25.0519C47.1052 24.8835 47.1622 24.6034 47.1772 24.4187C47.1872 24.3095 47.1778 24.1994 47.1495 24.0935C47.1289 24.0194 47.0936 23.9596 47.0552 23.8942L43.469 17.7904C43.4353 17.7321 43.4073 17.6823 43.3886 17.6172C43.3293 17.3973 43.3309 17.1654 43.3931 16.9463C43.4279 16.8317 43.4603 16.7291 43.4674 16.6077C43.483 16.3425 43.4121 16.054 43.2484 15.8679L40.4073 12.6392L40.9117 11.2591C40.9559 11.1378 40.9125 11.0424 40.8384 10.9676L40.3432 10.469C40.2984 10.4239 40.2428 10.3844 40.1585 10.381C39.3365 10.3475 38.5913 10.7222 38.0837 11.3249L37.7596 11.0011C37.5601 10.9626 37.3561 10.9465 37.1534 10.9286C28.0897 10.1148 19.7326 16.2145 17.375 25.482L17.9237 26.0307C19.0202 26.5178 20.0882 27.0666 21.1227 27.6743C21.5322 27.9157 21.937 28.1676 22.3347 28.4293Z" fill="#003A81"/>
<path d="M21.4453 27.6619C26.19 30.6891 29.7685 34.9351 31.8111 40.5501C32.6692 39.1249 33.6111 37.4676 34.2622 35.7402C34.9266 33.9761 35.289 32.1359 34.9459 30.3947C34.8793 30.0541 34.7874 29.7188 34.671 29.3917C34.5541 29.0655 34.4102 28.7496 34.2409 28.4473C34.2024 28.3785 34.1392 28.2696 34.0759 28.1595C33.8559 27.7787 33.6332 27.3937 33.4906 26.9689V26.9675L33.4896 26.9646C33.1056 25.8183 33.298 24.5317 33.9107 23.5037C34.0303 23.3024 34.1655 23.1118 34.3142 22.935C34.464 22.7565 34.629 22.5913 34.8072 22.4412L34.8083 22.4404L34.9422 22.3252L35.061 22.4557C35.8629 23.3324 37.0014 23.8745 38.2039 23.8745L40.2036 25.5461C40.2294 25.5674 40.2571 25.589 40.2824 25.6112C40.4281 25.7448 40.4735 25.9395 40.4482 26.1092C40.4429 26.1453 40.4316 26.178 40.4221 26.2128C40.3957 26.3013 40.394 26.3953 40.4171 26.4848C40.4289 26.5325 40.4434 26.5707 40.4721 26.611C40.5252 26.684 40.5968 26.7416 40.6795 26.7778C40.7084 26.7921 40.7409 26.7975 40.7728 26.7933C41.2946 26.7541 41.8164 26.7941 42.3019 26.9486C42.4352 26.9905 42.5343 27.0403 42.6777 27.0234C42.7933 27.0097 42.8558 26.9699 42.8653 26.8418C42.8717 26.7268 42.8389 26.613 42.7723 26.519C42.7414 26.4758 42.7048 26.445 42.6647 26.4099C42.426 26.2059 42.187 25.9725 41.9477 25.7645C41.8449 25.6755 41.7864 25.6119 41.8072 25.4594C41.8119 25.4184 41.8265 25.3793 41.8499 25.3453C41.8732 25.3113 41.9045 25.2836 41.9411 25.2646C42.0702 25.1982 42.2128 25.2304 42.3635 25.2672C42.8771 25.394 43.2635 25.8813 43.3404 26.4552C43.3486 26.5174 43.3449 26.5849 43.3747 26.6413C43.3971 26.6827 43.4332 26.7209 43.4735 26.752C43.527 26.7933 43.5803 26.8142 43.6488 26.8168C43.702 26.8189 43.7487 26.8076 43.7927 26.791C43.8686 26.762 43.9065 26.7272 43.9626 26.6703C44.1239 26.5109 44.2801 26.3465 44.4309 26.1772C44.5369 26.056 44.6346 25.9524 44.7585 25.8478C45.1735 25.4929 45.6302 25.19 46.1186 24.9457C46.2704 24.8548 46.4032 24.6875 46.4815 24.5035C46.5529 24.3351 46.6096 24.055 46.6246 23.8703C46.6347 23.7611 46.6253 23.651 46.5969 23.5451C46.5764 23.4713 46.5413 23.4112 46.5028 23.3459L42.9164 17.242C42.8829 17.1837 42.855 17.1342 42.8366 17.0688C42.7769 16.849 42.7784 16.617 42.8408 16.3979C42.8758 16.2835 42.9077 16.1807 42.9151 16.0593C42.9306 15.7942 42.8598 15.5056 42.6961 15.3195L39.8549 12.0908L40.3594 10.7107C40.4208 10.542 40.3414 10.3886 40.1546 10.381C39.1874 10.3415 38.3262 10.8672 37.8336 11.6646C37.7085 11.8662 37.5938 12.0953 37.4884 12.354L37.4436 12.4645L37.3248 12.4679L37.285 12.4689C36.4382 12.494 35.5946 12.585 34.7619 12.7412C32.7168 13.1259 30.7678 13.9104 29.0264 15.0497L29.0258 15.0505L29.0161 15.0568C27.7801 15.8651 26.6602 16.8382 25.6874 17.9493C23.3283 20.6389 21.8867 24.0468 21.4453 27.6619Z" fill="#ECEDED"/>
<path d="M32.5547 40.2004C33.5949 39.2657 34.5418 38.2322 35.3821 37.1144C35.9814 36.3157 36.5686 35.4729 37.0268 34.5748C37.4572 33.7318 37.7479 32.8537 37.8673 31.944C38.0043 30.8999 37.902 29.8629 37.6187 28.8718C37.3341 27.8785 36.8379 27.0758 36.3438 26.2515C35.9124 25.531 35.1133 24.4426 35.4667 23.5608C35.4812 23.5253 35.4957 23.4918 35.5115 23.4602C35.3 23.3104 35.1007 23.1441 34.9154 22.9629C34.8279 23.048 34.7444 23.1379 34.6656 23.2314C34.5317 23.3906 34.4113 23.5608 34.3051 23.7395C33.7606 24.6537 33.5835 25.8035 33.9248 26.8215L33.9264 26.826L33.9319 26.8439C34.0634 27.2268 34.2716 27.5839 34.4735 27.9328C34.5299 28.0306 34.5868 28.1278 34.6416 28.2261C34.8229 28.5506 34.9772 28.8895 35.1028 29.2394C35.2273 29.5878 35.3253 29.9452 35.3958 30.3085C35.7669 32.1909 35.3576 34.1352 34.6917 35.9032C34.1277 37.3998 33.3661 38.8218 32.5547 40.2004Z" fill="url(#paint3_linear_10704_16684)"/>
<path d="M37.1534 10.93C28.0895 10.1165 19.7323 16.2159 17.375 25.4834C18.6537 26.0537 19.8715 26.6907 21.0228 27.3972C21.5003 23.8066 22.9522 20.3815 25.3477 17.6495C26.3397 16.5161 27.4808 15.5224 28.7399 14.6956L28.7409 14.6945L28.7807 14.6684C30.9377 13.2578 33.3986 12.3789 35.9612 12.104C36.3528 12.0615 36.7458 12.0327 37.1395 12.0179C37.2296 11.8139 37.3318 11.6149 37.4491 11.4257C37.5421 11.2755 37.646 11.1342 37.7598 11.0025C37.5601 10.9643 37.3558 10.9482 37.1534 10.93Z" fill="url(#paint4_linear_10704_16684)"/>
<path d="M53.2029 55.1256C53.2029 56.5816 52.7865 57.7369 51.9516 58.5926C51.1186 59.4485 49.9656 59.8776 48.4946 59.8776C47.0278 59.8776 45.8766 59.4485 45.0418 58.5926C44.209 57.7369 43.7926 56.5816 43.7926 55.1256C43.7926 53.6588 44.209 52.4993 45.0418 51.6478C45.8766 50.794 47.0275 50.3691 48.4946 50.3691C49.9575 50.3691 51.1083 50.7937 51.9453 51.6478C52.7844 52.4993 53.2029 53.6588 53.2029 55.1256ZM50.0829 57.4378C50.3109 57.1592 50.4806 56.8309 50.5915 56.4543C50.7025 56.0756 50.7568 55.6321 50.7568 55.1195C50.7568 54.5732 50.694 54.1068 50.5662 53.7218C50.4405 53.3389 50.2734 53.0268 50.0702 52.7905C49.861 52.5456 49.6204 52.3677 49.3505 52.2571C49.0808 52.1469 48.792 52.0906 48.5006 52.0916C48.2119 52.0892 47.9256 52.1433 47.6576 52.2507C47.3941 52.3577 47.1511 52.5332 46.9313 52.7781C46.7265 53.0081 46.5613 53.322 46.4314 53.7262C46.3017 54.1279 46.239 54.5946 46.239 55.1264C46.239 55.6703 46.2996 56.1325 46.4253 56.5154C46.5508 56.8984 46.7141 57.2083 46.9192 57.451C47.1239 57.6916 47.363 57.8695 47.637 57.9844C47.9111 58.0977 48.1978 58.1559 48.5012 58.1559C48.7982 58.1569 49.0923 58.0971 49.3653 57.9801C49.6394 57.8629 49.8779 57.6826 50.0829 57.4378ZM36.1275 59.8652C35.4497 59.8652 34.8241 59.7648 34.2485 59.564C33.6751 59.365 33.1812 59.0656 32.769 58.6703C32.3569 58.2724 32.0367 57.7788 31.8085 57.1864C31.5826 56.5921 31.4695 55.9077 31.4695 55.1316C31.4695 54.4096 31.5784 53.7529 31.7937 53.1644C32.0114 52.5767 32.3252 52.0702 32.7374 51.6496C33.1351 51.2456 33.6268 50.9315 34.2127 50.712C34.799 50.4901 35.4391 50.3813 36.1338 50.3813C36.5191 50.3813 36.8641 50.4023 37.1737 50.444C37.4621 50.4839 37.7479 50.5405 38.0297 50.6134C38.3016 50.6912 38.5507 50.7789 38.7723 50.8751C38.9963 50.9692 39.1908 51.0591 39.3584 51.141V53.3547H39.0886C38.9482 53.2342 38.8044 53.1176 38.6574 53.0052C38.4688 52.8595 38.271 52.7261 38.0653 52.6057C37.8331 52.4721 37.5885 52.3614 37.335 52.275C37.0736 52.1849 36.795 52.1409 36.4959 52.1409C36.1652 52.1409 35.8516 52.1912 35.5519 52.2958C35.2528 52.4002 34.9788 52.5744 34.7234 52.8147C34.4828 53.0471 34.2883 53.3568 34.1394 53.7397C33.9887 54.125 33.9154 54.5896 33.9154 55.1377C33.9154 55.7111 33.995 56.1881 34.1563 56.5732C34.3194 56.9561 34.5223 57.2594 34.7671 57.4792C35.0159 57.705 35.2942 57.8642 35.5999 57.9604C35.9074 58.0566 36.2089 58.1048 36.5078 58.1048C36.7945 58.1048 37.077 58.0629 37.3577 57.9772C37.6297 57.8946 37.89 57.7772 38.1319 57.6278C38.326 57.5127 38.5127 57.3855 38.6909 57.247C38.8622 57.1131 39.0026 56.9959 39.1136 56.8976H39.3584V59.0801C39.1408 59.1779 38.9225 59.2742 38.7035 59.3689C38.4943 59.4588 38.2769 59.5365 38.0465 59.6014C37.7704 59.6817 37.4902 59.7473 37.2072 59.798C36.9458 59.8422 36.586 59.8652 36.1275 59.8652ZM27.6881 59.6873H24.8003L22.0717 56.0337L21.5214 56.7012V59.6873H19.1673V50.5597H21.5214V54.6902L24.7819 50.5597H27.5105L23.9425 54.7822L27.6881 59.6873ZM10.8125 50.5597V59.6873H13.1666V50.5597H10.8125Z" fill="white"/>
</g>
<defs>
<linearGradient id="paint0_linear_10704_16684" x1="21.8863" y1="8.26543" x2="49.7976" y2="34.5412" gradientUnits="userSpaceOnUse">
<stop stop-color="white"/>
<stop offset="1" stop-color="#B1B3B4"/>
</linearGradient>
<radialGradient id="paint1_radial_10704_16684" cx="0" cy="0" r="1" gradientUnits="userSpaceOnUse" gradientTransform="translate(23.9196 16.5145) scale(33.6462 37.3028)">
<stop stop-color="#00BCEA"/>
<stop offset="1" stop-color="#004394"/>
</radialGradient>
<linearGradient id="paint2_linear_10704_16684" x1="46.6029" y1="36.9713" x2="20.1298" y2="11.2419" gradientUnits="userSpaceOnUse">
<stop stop-color="white"/>
<stop offset="1" stop-color="#B1B3B4"/>
</linearGradient>
<linearGradient id="paint3_linear_10704_16684" x1="35.7943" y1="23.1272" x2="29.2719" y2="37.5937" gradientUnits="userSpaceOnUse">
<stop stop-color="white"/>
<stop offset="1" stop-color="#B1B3B4"/>
</linearGradient>
<linearGradient id="paint4_linear_10704_16684" x1="35.2181" y1="13.5968" x2="21.2199" y2="26.1311" gradientUnits="userSpaceOnUse">
<stop stop-color="#C4C6C8"/>
<stop offset="1" stop-color="white"/>
</linearGradient>
<clipPath id="clip0_10704_16684">
<rect width="64" height="64" fill="white"/>
</clipPath>
</defs>
</svg>
