<svg width="64" height="64" viewBox="0 0 64 64" fill="none" xmlns="http://www.w3.org/2000/svg">
<g clip-path="url(#clip0_10704_16681)">
<path d="M37.1292 37.2704C37.1292 37.3913 37.1676 37.4614 37.238 37.4614C37.2956 37.455 37.3467 37.4295 37.3916 37.3977L57.3383 24.5191C57.6753 24.2847 58.0791 24.1642 58.4902 24.1753H62.8738C63.5456 24.1753 64 24.6209 64 25.2893V33.6162C64 34.6221 63.776 35.2078 62.8801 35.7425L57.5622 38.9256C57.5092 38.9622 57.4474 38.9841 57.3831 38.9892C57.3191 38.9892 57.2551 38.9382 57.2551 38.7536V29.0389C57.2551 28.9243 57.2231 28.8479 57.1463 28.8479C57.0901 28.8544 57.0368 28.8764 56.9927 28.9116L42.4149 38.3335C42.0822 38.5562 41.6918 38.6772 41.2951 38.6709H31.632C30.9536 38.6709 30.5056 38.2252 30.5056 37.5505V25.5502C30.5056 25.4612 30.4673 25.3784 30.3904 25.3784C30.3344 25.3854 30.2814 25.4074 30.2369 25.442L20.6186 31.1842C20.5227 31.2479 20.4971 31.2925 20.4971 31.337C20.4971 31.3752 20.5162 31.4134 20.5802 31.4834L27.4532 38.3143C27.5427 38.4033 27.6068 38.4734 27.6068 38.5498C27.6068 38.6135 27.5044 38.6644 27.3828 38.6644H21.1753C20.6891 38.6644 20.3115 38.5944 20.0491 38.3334L15.883 34.1955C15.8672 34.1767 15.8477 34.1613 15.8257 34.1504C15.8037 34.1394 15.7797 34.1331 15.7551 34.1318C15.71 34.1339 15.666 34.147 15.6271 34.17L8.66481 38.3335C8.24243 38.5881 7.95444 38.6582 7.53844 38.6582H1.13286C0.447996 38.6646 0 38.2125 0 37.544V29.3764C0 28.3641 0.223998 27.7848 1.12624 27.2501L6.4762 24.0543C6.51816 24.027 6.56683 24.0116 6.61695 24.0098C6.7002 24.0098 6.74495 24.0926 6.74495 24.2771V35.2141C6.74495 35.3288 6.77057 35.3796 6.8537 35.3796C6.91132 35.3733 6.96257 35.3478 7.0137 35.316L25.0856 24.4999C25.4311 24.2644 25.8534 24.1499 26.2758 24.1689H36.0028C36.6747 24.1689 37.1292 24.6146 37.1292 25.283L37.1227 37.2704H37.1292Z" fill="#131E29"/>
</g>
<defs>
<clipPath id="clip0_10704_16681">
<rect width="64" height="64" fill="white"/>
</clipPath>
</defs>
</svg>
