<svg width="64" height="64" viewBox="0 0 64 64" fill="none" xmlns="http://www.w3.org/2000/svg">
<g clip-path="url(#clip0_10704_16695)">
<path fill-rule="evenodd" clip-rule="evenodd" d="M32.3686 49.0359C41.2954 42.0306 45.4995 32.9587 47.4008 25.7812C49.3013 18.4888 49.5892 11.4262 49.5892 11.1967V10.7947L49.3013 10.5649C41.9866 3.84702 32.5413 0.229821 32.138 0.114911L31.9071 0L31.6192 0.114911C31.2159 0.229821 22.0008 3.84702 14.5138 10.5653L14.168 10.7951V11.1971C14.168 11.4265 14.3985 18.4892 16.3564 25.7816C18.1994 32.5571 22.116 42.318 31.3886 49.0363L31.9071 49.3806L32.3686 49.0359ZM31.9075 47.9448C16.7604 36.1743 15.7812 17.2832 15.7812 14.3547C21.3103 10.2206 30.295 7.17714 31.9075 6.71826C33.463 7.17752 42.5051 10.2206 47.9759 14.3547C47.9759 17.2832 46.6514 36.1743 31.9075 47.9448Z" fill="#304B84"/>
<path fill-rule="evenodd" clip-rule="evenodd" d="M31.8555 45.9934L35.5412 44.6728C36.3472 43.9257 37.0384 43.1221 37.7296 42.3181L31.8555 41.3996V45.9934ZM31.8555 22.9108L40.7252 21.4181L46.8295 23.3128C47.06 22.3367 47.2335 21.4181 47.4062 20.5569L40.7252 21.4181L31.8555 18.3175V22.9108ZM37.4416 8.786C34.7351 7.63765 32.5467 6.94857 31.8555 6.71875V9.07308L37.4416 8.786ZM31.8555 18.3171L40.7252 17.1687L47.5214 19.5231C47.6941 18.3171 47.8094 17.2837 47.8668 16.48L40.7252 17.1115L31.8555 13.6665V18.3171Z" fill="#CBAC3B"/>
<path fill-rule="evenodd" clip-rule="evenodd" d="M31.8559 27.563L40.7256 25.7256L45.8511 27.1037C46.0816 26.2997 46.3125 25.4957 46.4845 24.7494L40.7256 25.6683L31.8559 22.912V27.563ZM31.8559 47.9464C32.6049 47.4295 33.2382 46.8557 33.9294 46.2816L31.8559 45.9945V47.9464ZM47.9247 15.6772C47.9813 15.103 47.9813 14.6438 47.9813 14.3567C47.1757 13.7252 46.2536 13.1511 45.3322 12.5769L40.7252 12.864L31.8555 9.07422V13.6676L40.7252 12.864L47.9247 15.6772ZM31.8559 32.1564L40.7256 29.9746L44.5266 30.8931C44.7571 30.2617 44.9872 29.6299 45.2178 29.0561L40.726 29.9746L31.8562 27.563V32.1564H31.8559ZM31.8559 41.4007L40.4377 38.6448C40.4951 38.5875 40.5529 38.5299 40.5529 38.4726L31.8562 36.7493V41.4007H31.8559ZM31.8559 36.7493L40.7256 34.2805L42.7414 34.6825C42.9719 34.3381 43.1446 33.9934 43.3173 33.649L40.7256 34.2232L31.8559 32.1564V36.7493Z" fill="#CBAC3B"/>
<path fill-rule="evenodd" clip-rule="evenodd" d="M26.0348 42.3181C26.6682 43.1217 27.4172 43.9257 28.1658 44.6728L31.8519 45.9934V41.3996L26.0348 42.3181ZM23.0403 21.4178L16.3594 20.5565C16.4868 21.4831 16.6598 22.4028 16.8779 23.3125L23.0403 21.4178L31.8523 22.9105V18.3171L23.0403 21.4178ZM26.2653 8.786L31.8523 9.07308V6.71875C31.1611 6.94819 28.9723 7.63727 26.2653 8.786Z" fill="#E0C13D"/>
<path fill-rule="evenodd" clip-rule="evenodd" d="M23.0374 17.1126L15.8379 16.4812C15.8954 17.3424 16.0106 18.3759 16.1837 19.5242L23.0374 17.1699L31.8493 18.3182V13.7249L23.0374 17.1126ZM23.0374 25.6679L17.2203 24.6917C17.4508 25.4954 17.6235 26.2994 17.9115 27.1033L23.0374 25.7252L31.8493 27.5626V22.912L23.0374 25.6679ZM29.8332 46.2816C30.4788 46.8676 31.1516 47.4231 31.8493 47.9464V45.9945L29.8332 46.2816ZM23.0374 12.8636L18.4296 12.5765C17.4972 13.1231 16.5937 13.7171 15.7227 14.3563C15.7227 14.6434 15.7801 15.1026 15.7801 15.6768L23.0374 12.8636L31.8493 13.6672V9.07422L23.0374 12.8636ZM23.0374 29.9746L18.5448 29.0561C18.7754 29.6302 19.0059 30.2617 19.236 30.8931L23.0374 29.9746L31.8493 32.1564V27.563L23.0374 29.9746ZM23.1522 38.4726C23.2097 38.5299 23.2097 38.5875 23.2675 38.6448L31.8493 41.4007V36.7493L23.1522 38.4726ZM23.0374 34.2232L20.4457 33.649L20.9642 34.6825L23.0377 34.2805L31.8497 36.7493V32.1564L23.0374 34.2232Z" fill="#E0C13D"/>
<path fill-rule="evenodd" clip-rule="evenodd" d="M31.854 9.07224L26.267 8.78516C23.8481 9.76132 20.9685 11.0818 18.4343 12.5749L23.042 12.862L31.854 9.07224ZM31.854 13.6656L23.042 12.862L15.7852 15.6756C15.7852 15.9054 15.8426 16.1925 15.8426 16.4796L23.042 17.111L31.854 13.6656ZM31.854 18.3162L23.042 17.1679L16.1884 19.5222L16.3611 20.556L23.042 21.4173L31.854 18.3162ZM31.854 22.91L23.042 21.4173L16.8796 23.312L17.225 24.6902L23.042 25.6663L31.854 22.91ZM31.854 27.561L23.042 25.7236L17.9162 27.1017C18.0889 27.7332 18.3194 28.365 18.5495 29.0541L23.042 29.9726L31.854 27.561Z" fill="#C56C48"/>
<path fill-rule="evenodd" clip-rule="evenodd" d="M31.8516 32.1544L23.0396 29.9727L19.2383 30.8912C19.5929 31.8303 19.9967 32.7502 20.448 33.6471L23.0396 34.2213L31.8516 32.1544ZM23.0396 34.2786L20.9661 34.6806C21.5994 35.9438 22.348 37.2074 23.1545 38.4707L31.8516 36.7474L23.0396 34.2786ZM23.2697 38.6429C24.0758 39.9061 24.9975 41.1117 26.0341 42.3173L31.8512 41.3988L23.2697 38.6429ZM28.1655 44.672C28.684 45.1882 29.2595 45.7627 29.8354 46.2796L31.8516 45.9926L28.1655 44.672Z" fill="#C56C48"/>
<path fill-rule="evenodd" clip-rule="evenodd" d="M40.7252 12.862L45.3322 12.5749C42.7406 11.0818 39.9188 9.76132 37.442 8.78516L31.8559 9.07224L40.7252 12.862ZM31.8559 13.666L40.7256 17.111L47.8672 16.4796C47.9247 16.1925 47.9247 15.9054 47.9247 15.6756L40.7252 12.862L31.8559 13.666ZM40.7252 17.1687L31.8555 18.317L40.7252 21.4177L47.4062 20.5564C47.4636 20.2117 47.5214 19.8673 47.5214 19.5226L40.7252 17.1687ZM31.8559 22.9104L40.7256 25.6667L46.4845 24.7478C46.5997 24.2309 46.715 23.7716 46.8299 23.3124L40.7256 21.4177L31.8559 22.9104ZM31.8559 27.5614L40.7256 29.973L45.2174 29.0545C45.4479 28.4227 45.6206 27.7336 45.8507 27.1021L40.7252 25.724L31.8559 27.5614Z" fill="#B76543"/>
<path fill-rule="evenodd" clip-rule="evenodd" d="M31.8559 32.1544L40.7256 34.2213L43.3173 33.6471L44.5266 30.8912L40.7256 29.9727L31.8559 32.1544ZM31.8559 36.7474L40.5525 38.4707C41.3586 37.2074 42.1076 35.9438 42.741 34.6806L40.7252 34.2786L31.8559 36.7474ZM37.73 42.3173C38.7091 41.1117 39.6312 39.9061 40.4373 38.6429L31.8555 41.3988L37.73 42.3173ZM33.929 46.2796C34.4949 45.7728 35.0331 45.2362 35.5415 44.672L31.8559 45.9926L33.929 46.2796Z" fill="#B76543"/>
<path fill-rule="evenodd" clip-rule="evenodd" d="M31.5068 1.26172L31.5642 2.18024C31.2184 1.95042 30.7578 1.83589 30.2397 1.83589C30.0091 1.83589 29.7216 1.89315 29.4336 2.00845L29.491 2.58224C29.779 2.41006 30.0095 2.41006 30.2971 2.41006C31.0461 2.41006 31.5642 2.98423 31.5642 3.73058C31.5642 4.47692 31.0457 4.99383 30.2397 4.99383C29.9517 4.99383 29.6637 4.93657 29.491 4.87892L29.4336 5.45309C29.7216 5.568 30.0095 5.568 30.2397 5.568C30.7581 5.568 31.2188 5.51074 31.5642 5.28092L31.5068 6.08453H31.8526V1.26172H31.5068Z" fill="#E0C13D"/>
<path fill-rule="evenodd" clip-rule="evenodd" d="M34.274 5.45309V4.87892C34.1013 4.93619 33.7556 4.99383 33.468 4.99383C32.6619 4.99383 32.2009 4.47692 32.2009 3.73058C32.2009 2.98385 32.6615 2.41006 33.468 2.41006C33.6985 2.41006 33.9286 2.41006 34.2166 2.58224L34.274 2.00845C34.0435 1.89354 33.6981 1.83589 33.468 1.83589C32.9495 1.83589 32.5467 1.9508 32.2587 2.12298V1.26172H31.8555V6.08491H32.2587V5.2813C32.5467 5.51112 33.0073 5.56838 33.468 5.56838C33.7556 5.568 34.0435 5.568 34.274 5.45309Z" fill="#CBAC3B"/>
<path fill-rule="evenodd" clip-rule="evenodd" d="M1.09404 53.3984H3.34034L3.05237 56.1544L5.06814 53.3984H7.48714L5.0107 56.7286L6.85376 60.3466H4.3195L2.87967 57.475L2.53388 60.3466H0.230527L1.09404 53.3984ZM12.5557 54.719C13.477 54.719 13.9955 55.0061 13.8802 56.0395L13.477 59.0826C13.3617 60.0588 12.7284 60.4031 11.8066 60.4031H8.92697C8.12089 60.4031 7.42931 60.2317 7.6024 59.0826L7.94781 56.0395C8.12089 54.7762 9.04223 54.719 9.67561 54.719H12.5557ZM11.5191 56.5564C11.5191 56.4415 11.5765 55.8673 10.9431 55.8673C10.2519 55.8673 10.1941 56.4415 10.1941 56.5564L9.96358 58.5661C9.90613 58.7959 9.84831 59.2552 10.4821 59.2552C11.1733 59.2552 11.2311 58.7959 11.2311 58.5661L11.5191 56.5564ZM20.1584 58.6806V59.0826C19.9854 60.116 19.4094 60.4031 18.4881 60.4031H15.551C14.7445 60.4031 14.1111 60.2317 14.2264 59.0826L14.5718 56.0395C14.7445 55.0061 15.3783 54.719 16.3574 54.719H19.1222C20.0439 54.719 20.6199 55.0061 20.5046 56.0395L20.2741 58.1064H16.6454L16.588 58.5084C16.5305 58.7955 16.5305 59.2548 17.1639 59.2548C17.3944 59.2548 17.7973 59.1399 17.9125 58.6806H20.1584ZM18.0849 57.0157L18.1423 56.6137C18.1997 56.0968 17.9118 55.8673 17.5664 55.8673C17.1631 55.8673 16.8752 56.1544 16.8177 56.5564L16.7603 57.0157H18.0849ZM23.614 55.6952C23.7293 55.3508 23.7867 55.2359 24.0173 55.0637C24.2474 54.8915 24.4779 54.7194 25.1691 54.7194H25.8603C26.6664 54.7194 27.3002 54.9492 27.1849 56.0972L26.609 60.3466H24.3627L24.8237 56.6141C24.8237 56.3842 24.8812 55.8677 24.2478 55.8677C23.5566 55.8677 23.4992 56.4992 23.4992 56.729L23.0385 60.347H20.734L21.4252 54.777H23.7289L23.614 55.6952ZM28.0488 54.7766H30.3525L29.6613 60.3466H27.3576L28.0488 54.7766ZM28.2215 53.3984H30.5252L30.4104 54.317H28.1066L28.2215 53.3984ZM33.9234 60.8632L34.0961 59.3697C33.8656 59.829 33.8081 59.8866 33.6354 60.0011C33.3475 60.2882 32.8868 60.3462 32.5414 60.3462H31.7924C30.9285 60.3462 30.4104 60.0584 30.5252 59.0249L30.8707 56.0395C31.0437 55.0633 31.6197 54.719 32.4828 54.719H33.2896C34.0957 54.719 34.3837 55.0633 34.5568 55.5802L34.672 54.7766H36.918L36.2268 60.9781C36.0541 62.1837 35.0749 62.2986 34.3841 62.2986H30.2947L30.4674 60.8632H33.9234ZM34.4419 56.5564C34.4419 56.3842 34.5572 55.7528 33.866 55.7528C33.3475 55.7528 33.1748 56.1548 33.1173 56.4992L32.8868 58.5088C32.8294 58.7959 32.8868 59.1979 33.4627 59.1979C34.0961 59.1979 34.2114 58.5664 34.2114 58.4515L34.4419 56.5564ZM40.9503 58.279L39.0498 58.2217C38.1276 58.2217 37.3212 58.1644 37.4943 56.8439L37.5517 56.0975C37.667 55.0641 38.3004 54.7197 39.1642 54.7197H42.2174C43.0813 54.7197 43.5994 55.0641 43.4267 56.0975L43.3693 56.4995H41.1233C41.1233 56.2125 41.0081 56.0975 40.8928 55.9826C40.7775 55.9254 40.6049 55.8677 40.5474 55.8677C40.49 55.8677 39.8562 55.8677 39.7988 56.5568L39.7413 56.9588L41.6993 57.0161C42.4479 57.0161 43.3693 57.0733 43.1966 58.3366L43.1391 59.083C43.0238 60.0592 42.3905 60.4035 41.4113 60.4035H38.5887C37.8401 60.4035 36.9762 60.347 37.1489 59.083L37.2063 58.7386H39.453C39.453 58.9108 39.5104 59.0257 39.6257 59.1406C39.741 59.1979 39.9137 59.2555 40.0864 59.2555C40.835 59.2555 40.8924 58.6241 40.8924 58.4519L40.9503 58.279ZM49.7623 58.6806V59.0826C49.5896 60.116 49.0137 60.4031 48.0924 60.4031H45.1545C44.3484 60.4031 43.7147 60.2317 43.8299 59.0826L44.2332 56.0395C44.3484 55.0061 44.9818 54.719 45.961 54.719H48.7261C49.6475 54.719 50.2234 55.0061 50.1081 56.0395L49.8776 58.1064H46.2485L46.1911 58.5084C46.1337 58.7955 46.1911 59.2548 46.767 59.2548C46.9976 59.2548 47.4012 59.1399 47.5164 58.6806H49.7623ZM47.6891 57.0157L47.7466 56.6137C47.804 56.0968 47.5739 55.8673 47.1707 55.8673C46.7667 55.8673 46.4787 56.1544 46.4212 56.5564L46.3638 57.0157H47.6891ZM53.9088 60.8632L54.0815 59.3697H54.024C53.8513 59.829 53.7935 59.8866 53.6208 60.0011C53.3328 60.2882 52.8722 60.3462 52.5268 60.3462H51.7781C50.9142 60.3462 50.3961 60.0584 50.511 59.0249L50.8564 56.0395C50.9717 55.0633 51.605 54.719 52.4689 54.719H53.275C54.0811 54.719 54.3691 55.0633 54.5421 55.5802L54.6574 54.7766H56.9041L56.1554 60.9781C56.0402 62.1837 55.0606 62.2986 54.3694 62.2986H50.2805L50.4532 60.8632H53.9088ZM54.4269 56.5564C54.4269 56.3842 54.4843 55.7528 53.8509 55.7528C53.3324 55.7528 53.1597 56.1548 53.1023 56.4992L52.8718 58.5088C52.8143 58.7959 52.8718 59.1979 53.4477 59.1979C54.0811 59.1979 54.1964 58.5664 54.1964 58.4515L54.4269 56.5564ZM60.5324 60.8632L60.7051 59.3697C60.4746 59.829 60.4746 59.8866 60.3019 60.0011C59.9565 60.2882 59.5532 60.3462 59.15 60.3462H58.4014C57.5953 60.3462 57.0193 60.0584 57.192 59.0249L57.5374 56.0395C57.6527 55.0633 58.2286 54.719 59.0925 54.719H59.9564C60.7051 54.719 61.0505 55.0633 61.1658 55.5802L61.281 54.7766H63.5848L62.8361 60.9781C62.7209 62.1837 61.6842 62.2986 61.0509 62.2986H56.9619L57.0772 60.8632H60.5324ZM61.0505 56.5564C61.1079 56.3842 61.1658 55.7528 60.532 55.7528C60.0135 55.7528 59.8408 56.1548 59.7834 56.4992L59.5528 58.5088C59.4954 58.7959 59.5528 59.1979 60.0713 59.1979C60.7625 59.1979 60.82 58.5664 60.82 58.4515L61.0505 56.5564ZM29.4308 62.241L29.6039 60.8632H0.172704L0 62.241H29.4308ZM49.4744 62.241L49.6471 60.8632H37.0336C36.9183 61.6095 36.9183 61.9539 36.4577 62.241H49.4744Z" fill="black"/>
</g>
<defs>
<clipPath id="clip0_10704_16695">
<rect width="64" height="64" fill="white"/>
</clipPath>
</defs>
</svg>
