<svg width="64" height="64" viewBox="0 0 64 64" fill="none" xmlns="http://www.w3.org/2000/svg">
<path fill-rule="evenodd" clip-rule="evenodd" d="M2.80992 21.2398C2.80992 15.0322 15.392 10 30.9136 10C46.4349 10 59.0173 15.0322 59.0173 21.2398C59.0173 27.4474 46.4349 32.4796 30.9136 32.4796C15.3923 32.4796 2.80992 27.4478 2.80992 21.2398ZM37.1818 22.224C37.1779 22.2055 37.1686 22.1886 37.155 22.1755C37.1414 22.1625 37.1242 22.1538 37.1056 22.1507C36.2968 22.0325 35.4844 21.9398 34.6698 21.8727C34.6218 21.8643 34.5878 21.8199 34.6195 21.7146C37.217 18.9819 38.2035 15.5047 36.8902 12.7842C36.8917 12.7718 36.8956 12.7598 36.9017 12.7489C36.9078 12.738 36.916 12.7285 36.9258 12.7207C36.9356 12.713 36.9468 12.7073 36.9589 12.7039C36.9709 12.7005 36.9834 12.6995 36.9958 12.701C45.9341 13.785 52.4602 17.1979 52.4602 21.2398C52.4602 26.1542 42.8138 30.1382 30.9139 30.1382C19.0141 30.1382 9.36736 26.1545 9.36736 21.2398C9.36736 16.9797 16.6176 13.4183 26.3008 12.5458C26.3478 12.5474 26.3875 12.5836 26.3901 12.6578L24.2877 24.2329C24.2484 24.4363 24.2546 24.6459 24.3057 24.8466C24.3569 25.0473 24.4518 25.2342 24.5837 25.394C24.7156 25.5537 24.8812 25.6824 25.0686 25.7706C25.256 25.8589 25.4607 25.9047 25.6678 25.9047L25.743 25.9085C27.6182 25.8109 29.6333 25.2257 31.5366 24.127C32.076 23.8157 32.5951 23.4705 33.0909 23.0936C33.1051 23.0819 33.1225 23.0747 33.1409 23.0729C33.1592 23.0712 33.1777 23.0749 33.1939 23.0837C33.8278 23.5057 34.1926 23.9997 34.1926 24.5282C34.1926 25.2462 33.5194 25.9011 32.4118 26.398C31.1251 26.9752 29.2522 27.338 27.1667 27.338C25.3994 27.338 23.7846 27.0773 22.5318 26.6421C22.5197 26.64 22.5073 26.6402 22.4952 26.6429C22.4832 26.6456 22.4718 26.6506 22.4618 26.6577C22.4517 26.6647 22.4431 26.6737 22.4365 26.6841C22.4299 26.6945 22.4254 26.7061 22.4234 26.7183L22.2448 27.6996C22.2418 27.7229 22.2476 27.7466 22.2612 27.7658C22.2748 27.7851 22.2951 27.7985 22.3181 27.8035C24.8662 28.3964 27.7968 28.7336 30.9158 28.7336C34.7958 28.7336 37.9421 27.4753 37.9421 25.9239C37.9421 25.3201 37.4666 24.7612 36.6576 24.3036C35.9488 23.9562 35.5024 23.5057 35.6118 23.2036C35.7254 22.8904 36.4035 22.8402 37.209 23.0571C37.2547 23.0632 37.2989 23.0357 37.3152 22.9538L37.1818 22.224ZM30.9136 15.1393C30.9136 15.2001 30.9117 15.2606 30.9078 15.3198C31.0102 17.3825 29.7347 20.1421 27.4042 22.4722C26.9415 22.9356 26.4488 23.3679 25.9293 23.7664C25.9088 23.7796 25.8839 23.784 25.8602 23.7789C25.8115 23.7687 25.7798 23.7223 25.7885 23.6653L28.0726 11.0939C28.0714 11.0707 28.0616 11.0487 28.0451 11.0323C28.0286 11.0158 28.0066 11.0061 27.9834 11.005C15.3946 11.5969 5.62016 15.9533 5.62016 21.2398C5.62016 26.9301 16.9443 31.5428 30.9136 31.5428C44.8832 31.5428 56.2074 26.9301 56.2074 21.2398C56.2074 15.5495 44.8835 10.9368 30.9136 10.9368C30.471 10.9368 30.0307 10.9416 29.5891 10.9509C29.5682 10.951 29.5479 10.958 29.5314 10.971C29.515 10.9839 29.5033 11.0019 29.4982 11.0222L29.231 12.4892C29.2246 12.5286 29.2432 12.566 29.2758 12.5855C29.7647 12.8098 30.1789 13.1697 30.4692 13.6224C30.7595 14.0751 30.9137 14.6016 30.9136 15.1393ZM4.72064 38.0995V51.8659H12.3654V54.9637H0V38.0995H4.72064ZM23.191 48.1302L20.9856 41.9885L18.7808 48.1302H23.191ZM23.9846 38.1069L30.3942 54.9592H25.4842L24.0726 50.9797H17.8989L16.4877 54.9592H12.5475L18.8979 38.1069H23.9846ZM35.6234 51.8563H37.7398C39.0042 51.8563 40.6803 51.6359 41.768 50.1859C42.855 48.7368 42.8851 47.0414 42.8851 46.3539C42.8851 45.4689 42.7674 43.6762 41.5037 42.423C40.327 41.2932 38.7981 41.1947 37.6518 41.1947H35.6234V51.8563ZM30.9187 38.0995H37.8278C39.8275 38.0995 42.8554 38.2959 45.1786 40.286C47.0602 41.8829 47.9421 44.487 47.9421 46.5014C47.9421 47.975 47.4723 50.9966 44.8848 53.036C42.8262 54.6572 40.504 54.9522 38.328 54.9522H30.919V38.0995H30.9187ZM56.7968 48.1225L54.592 41.9811L52.3869 48.1225H56.7968ZM57.5907 38.0995L64 54.9518H59.0899L57.679 50.972H51.505L50.0931 54.9518H46.1533L52.5043 38.0992H57.5907V38.0995Z" fill="#005AA1"/>
</svg>
