<svg width="64" height="64" viewBox="0 0 64 64" fill="none" xmlns="http://www.w3.org/2000/svg">
<g clip-path="url(#clip0_10774_10956)">
<path d="M31.5076 63.9737C30.8634 63.7259 26.1681 61.4464 24.9045 60.7527C16.1459 55.9955 10.3109 50.272 5.5537 41.7611C2.34508 36.0129 0.635471 29.893 0.0656004 22.1254C-0.0582845 20.3786 0.00365839 14.6056 0.164709 12.5738L0.239039 11.6819L1.51505 10.7032C6.16074 7.14768 11.686 4.1125 16.5547 2.45244C19.3297 1.49853 22.6622 0.742833 26.0567 0.27207C28.5467 -0.0624194 34.5675 -0.099585 36.9957 0.222516C42.8307 0.978214 47.2905 2.29139 52.2088 4.69476C55.9377 6.51587 59.8648 9.01834 62.8505 11.4589L63.2593 11.7934L63.3832 14.0728C63.5442 16.885 63.4575 22.3484 63.2221 24.442C62.8381 27.886 62.3549 30.2151 61.3638 33.5352C60.5214 36.3597 60.0011 37.6605 58.7623 40.1135C56.2846 45.0069 53.6087 48.7235 49.9417 52.3904C45.6676 56.6645 41.5547 59.4271 34.5304 62.7472C31.9288 63.9985 31.7554 64.0604 31.5076 63.9737ZM8.98531 41.4886C8.86143 41.2904 8.40305 40.4108 7.98184 39.556C5.60325 34.7988 4.19097 29.9177 3.57154 24.4048C3.36094 22.4846 3.23705 16.5753 3.38572 14.7418L3.48482 13.4658L3.17511 13.0322C2.79107 12.4995 2.79107 12.45 3.17511 12.3756C3.34855 12.3385 3.73259 12.1155 4.02992 11.8925C5.47937 10.7651 8.39067 8.84491 9.95162 8.00249C12.6771 6.52826 12.8877 6.45393 18.8466 4.80626C21.2251 4.14967 23.2569 3.65413 24.793 3.36919C25.7965 3.18337 26.2673 2.98515 25.7098 2.98515C25.5487 2.98515 25.3877 2.9356 25.3381 2.86126C25.2266 2.67544 25.5983 2.46483 26.6141 2.14273C27.1344 1.98168 27.6052 1.80824 27.6548 1.75869C27.853 1.56047 27.1221 1.51092 25.846 1.6348C19.3173 2.25423 12.1692 4.94253 5.90058 9.12984C4.98383 9.73688 3.64587 10.6412 2.92734 11.1244L1.61416 12.004L2.06015 12.4252C2.46897 12.8092 2.50613 12.8712 2.4318 13.218C2.29553 13.8003 2.35747 20.4034 2.50613 22.1997C2.82823 26.0773 3.3981 29.0134 4.5874 32.8662C5.64042 36.2854 7.35003 39.8161 8.7871 41.5505C9.19592 42.0213 9.29503 41.9965 8.98531 41.4886ZM57.127 38.9489C58.626 35.9881 59.3321 34.1546 59.9392 31.6769C60.2489 30.4133 60.4967 28.6045 60.3232 28.7532C60.2861 28.7904 60.0259 29.67 59.7657 30.6982C58.7003 34.7988 57.9075 36.9916 56.4085 40.0144C55.9501 40.9311 55.6899 41.5505 55.8014 41.4019C55.9377 41.2408 56.5323 40.1506 57.127 38.9489ZM13.408 17.5292C13.408 17.4673 13.5071 17.3682 13.6186 17.3062C13.7301 17.2443 13.9407 17.0089 14.0894 16.7735C14.2256 16.5382 14.7212 15.9311 15.1919 15.4108C17.5581 12.7597 19.7881 11.0748 22.6994 9.73688C24.0126 9.12984 24.8302 8.8449 26.6265 8.36175C27.4566 8.13876 28.1751 7.91577 28.237 7.85383C28.299 7.79188 28.4724 7.74233 28.6211 7.74233C28.8936 7.72994 28.8936 7.72994 28.5343 7.5565C28.1875 7.38306 28.1008 7.38306 26.9858 7.61844C22.7985 8.48564 18.6979 10.7403 15.7866 13.7879C14.6964 14.9277 13.4452 16.5505 13.0611 17.3062C12.9249 17.5788 12.739 17.8885 12.6523 18C12.5532 18.1363 12.5408 18.1982 12.6275 18.1982C12.7019 18.1982 12.7514 18.2849 12.7514 18.384C12.7514 18.4955 12.8877 18.384 13.0859 18.1115C13.247 17.8389 13.408 17.5912 13.408 17.5292Z" fill="#E6E7E8"/>
<path d="M29.8362 63.0089C25.6241 61.0267 23.0102 59.5896 20.4581 57.88C13.9418 53.5317 9.01118 47.9569 5.14597 40.6229C3.08948 36.7081 1.5533 31.9509 0.797604 27.1318C0.264899 23.7497 0.153404 21.6932 0.227735 17.0352C0.2649 14.7185 0.326842 12.6001 0.364007 12.3399C0.42595 11.894 0.500282 11.8072 1.50375 11.002C6.60781 6.93856 13.248 3.51933 19.2193 1.88405C23.4809 0.719536 27.3338 0.199219 31.7193 0.199219C35.8199 0.199219 39.2639 0.632816 43.4388 1.67345C49.918 3.29634 56.9794 6.97572 63.0002 11.8692C63.3471 12.1541 63.4214 20.665 63.1117 23.8736C62.7525 27.5406 62.2569 30.0431 61.1543 33.6977C59.8907 37.9098 58.3545 41.0812 55.5547 45.3057C53.6469 48.1798 52.2222 49.9266 49.8932 52.2557C46.0652 56.0713 42.1999 58.7844 36.5136 61.6214C34.0483 62.8478 31.8927 63.8513 31.7069 63.8513C31.6202 63.8265 30.7901 63.4549 29.8362 63.0089ZM34.5315 61.3612C37.5295 59.8498 38.7064 59.156 39.3754 58.5242L43.0547 56.5173L49.1994 52.0327L57.413 40.9202L61.7366 28.829L62.5171 18.9802L62.0587 12.4514L55.5919 7.58276L47.6385 3.81666C45.4086 2.8008 40.6018 1.57434 36.7118 1.02925C34.7173 0.756701 29.638 0.68237 27.4205 0.905363C22.7996 1.36374 18.5008 2.40437 15.032 3.8786C10.8323 5.67493 8.54041 6.92617 4.34071 9.73836C1.4542 11.671 1.3427 11.7701 1.26837 12.1665C1.2312 12.3895 1.15687 13.8761 1.11971 15.4742C0.871936 24.8523 2.44528 32.8429 5.90166 39.7309C11.3402 50.1372 20.4581 58.6729 31.6326 62.6C31.9547 62.6124 32.6608 62.3027 34.5315 61.3612Z" fill="#ACAFB2"/>
<path d="M29.7228 58.596C23.8135 55.5237 20.2952 53.0831 16.8388 49.6144C13.6302 46.4058 11.5241 43.6059 9.30658 39.5425C5.5157 32.6297 4.05386 24.9365 4.71045 15.3106L4.78478 14.27L5.85019 13.4647C10.7932 9.73581 16.0088 7.09706 21.0137 5.79627C24.8294 4.80519 27.4929 4.4707 31.6182 4.4707C35.4215 4.4707 37.4904 4.6937 41.1078 5.51134C45.6544 6.52719 50.5726 8.71995 54.9953 11.6684C56.8164 12.8825 58.5508 14.2081 58.6499 14.4434C58.6995 14.5797 58.7614 16.7353 58.7614 19.2378C58.7738 23.3879 58.749 23.9454 58.5261 25.6179C57.5845 32.4315 55.6891 37.486 51.9849 43.0485C48.2684 48.6357 43.474 53.0831 37.4532 56.5395C36.2763 57.2209 32.1262 59.4261 31.8412 59.5252C31.7421 59.5747 30.7882 59.1535 29.7228 58.596Z" fill="#01336B"/>
<path d="M34.1413 51.8315C38.18 51.3979 42.07 49.8742 45.3034 47.4832C46.4183 46.6655 48.3881 44.7577 49.3048 43.6304C51.6215 40.7686 53.232 37.3742 54.0125 33.6948C54.2974 32.3321 54.3222 32.0843 54.3222 29.4208C54.3222 26.9555 54.2974 26.4228 54.0744 25.3078C52.786 18.6056 48.7597 12.9812 42.8133 9.5744C40.732 8.38511 38.0313 7.4312 35.4421 6.97282C33.7077 6.6755 30.3133 6.61356 28.6656 6.84894C23.0536 7.67897 18.0982 10.3549 14.5303 14.4802C9.45105 20.3648 7.74144 28.1448 9.89704 35.6398C11.6438 41.7225 16.1285 47 21.8891 49.7627C23.9828 50.7661 26.8569 51.5838 29.1611 51.8439C30.3876 51.9554 32.9025 51.9678 34.1413 51.8315ZM28.3931 49.007C21.5174 47.8425 15.5338 43.0729 13.0561 36.7548C12.1022 34.3266 11.7305 32.5551 11.6438 29.9659C11.5695 27.8474 11.7181 26.3484 12.1641 24.5645C14.1091 16.8341 20.0804 11.123 27.7489 9.63635C29.4585 9.30186 29.57 9.31425 29.7806 9.80979C30.2513 10.9248 30.6725 13.229 31.0937 16.9579C31.2672 17.2924 31.0442 19.8692 31.7875 19.5595C31.9238 19.4728 31.9981 19.2127 32.06 18.5684C32.506 13.9228 33.237 10.0823 33.7573 9.53724C33.8935 9.40097 34.0546 9.40097 35.0581 9.56202C39.1463 10.2186 42.8876 12.1636 45.9104 15.1988C47.4961 16.7969 48.4996 18.1472 49.4535 19.9807C51.1755 23.3132 51.894 26.4104 51.7578 29.9906C51.6834 31.8117 51.5224 32.9143 51.064 34.5992C49.1438 41.6606 43.2964 47.1982 36.1235 48.7592C35.4297 48.9079 34.6121 49.0689 34.3271 49.1061L33.7944 49.1804L33.621 48.7592C33.0883 47.4956 32.4193 43.7666 32.1344 40.558C32.06 39.7652 31.9857 39.0218 31.9486 38.9227C31.8866 38.7245 31.5273 38.6502 31.4158 38.8236C31.3787 38.8732 31.23 40.0501 31.069 41.4376C30.5982 45.5877 29.954 48.8088 29.5576 49.0689C29.4213 49.1804 29.4461 49.1804 28.3931 49.007Z" fill="#E6E7E8"/>
<path d="M29.8411 50.4359C29.7544 50.4111 29.073 50.3492 28.3421 50.2873C27.0413 50.1758 25.5795 49.8289 24.2043 49.3086C23.5725 49.0608 22.5815 48.5157 22.6434 48.4414C22.6682 48.4166 23.077 48.5529 23.5725 48.7387C25.7157 49.5811 26.5086 49.7422 28.7261 49.8289C30.3243 49.8908 30.8817 49.9528 31.2162 50.1014C31.5507 50.2501 31.6127 50.3244 31.4888 50.3987C31.3525 50.4979 30.2004 50.5226 29.8411 50.4359ZM31.848 50.3987C31.7118 50.312 31.687 49.7545 31.7118 46.5459C31.7242 44.477 31.8604 42.3462 31.8604 41.7887C31.848 40.6118 31.8976 38.9518 31.7242 38.9518C31.8233 38.9146 31.9595 39.0385 31.9719 39.2987C32.0463 40.5623 32.1206 46.1247 32.4922 48.367C32.7276 49.7545 33.0621 49.8537 34.6231 49.928C36.5557 49.8413 37.6087 49.6183 39.6528 48.8502C40.3218 48.6024 40.8916 48.4166 40.9164 48.4414C41.0155 48.5405 39.9006 49.098 38.9219 49.4448C37.522 49.9404 36.0601 50.2377 34.3381 50.3864C32.5914 50.535 32.0586 50.535 31.848 50.3987Z" fill="#8D9093"/>
<path d="M31.7131 19.4108C31.8741 19.4108 31.9609 17.5153 31.8494 16.5243C31.6759 15.0376 31.6388 8.23637 31.8122 8.06293C32.0476 7.82755 34.7359 8.11248 36.557 8.57086C38.44 9.05401 39.4931 9.43805 41.1655 10.3052C42.392 10.9371 43.5689 11.7051 43.4698 11.8043C43.445 11.829 42.7265 11.5069 41.8717 11.0733C39.8647 10.0699 38.8612 9.7106 36.8543 9.30178C35.95 9.11595 34.835 8.86818 34.3642 8.7443C33.274 8.45936 32.9891 8.47175 32.6546 8.78146C32.4068 9.00445 32.3697 9.17789 32.2706 10.2557C32.1839 11.1601 32.1962 11.6928 32.3077 12.3493C32.283 14.0342 32.6546 15.0005 31.7131 19.4108Z" fill="#8D9093"/>
<path d="M29.7213 62.7821C25.6331 60.8371 23.2669 59.5611 20.8388 57.963C14.9295 54.0854 10.3581 49.2043 6.51766 42.6632C2.97455 36.6176 1.06673 30.2252 0.496856 22.5691C0.360582 20.7108 0.434914 13.3768 0.595964 12.4105C0.757014 11.4318 0.831344 12.1628 0.732236 13.8104C0.1252 23.7708 1.89676 33.3718 5.65047 40.3961C9.1688 46.9992 13.4304 51.967 19.0796 56.08C21.3467 57.74 25.311 60.0567 29.4983 62.1875C31.2946 63.1042 31.7282 63.2777 32.0256 63.2281C32.2238 63.1909 33.029 62.8812 33.7971 62.522C36.8075 61.1468 39.4091 59.6974 40.4497 58.8054C40.7223 58.57 41.9859 57.6409 43.2371 56.7489C44.4884 55.857 46.0989 54.6429 46.8174 54.0359C53.0612 48.8079 58.1529 41.2014 60.4819 33.6072C61.9438 28.8501 62.7119 23.2628 62.6995 17.4526C62.6995 15.0245 62.5632 12.3981 62.4145 12.0389C62.3526 11.8902 62.4021 11.853 62.6251 11.853C62.8729 11.853 62.9101 11.915 62.972 12.3857C63.1455 13.6989 63.2446 18.6172 63.1455 20.8099C62.9225 25.7777 62.3898 29.0483 61.0766 33.3966C60.1846 36.3575 59.7015 37.6087 58.475 40.0121C55.8115 45.2648 52.2312 50.0839 48.5023 53.4412C44.86 56.7118 41.8125 58.7311 36.5474 61.3698C34.5404 62.3733 31.7282 63.7236 31.6787 63.7236C31.6787 63.7113 30.7867 63.2901 29.7213 62.7821ZM29.647 60.8371C26.6985 59.301 22.8085 56.8109 21.5573 55.6587C21.0618 55.2004 21.0741 55.2128 22.7961 56.2782C24.4562 57.3188 26.6614 58.5205 29.201 59.7965L31.6167 60.9982L33.1405 60.2425C38.2198 57.7276 41.416 55.7455 44.4636 53.243C49.1712 49.3778 52.7267 45.0542 55.6504 39.6404C58.8466 33.7187 60.3828 27.1157 60.3828 19.2985C60.3828 17.1801 60.1846 13.5007 60.0483 13.1167C59.8997 12.7078 55.4522 9.61072 53.0736 8.24799C50.534 6.79854 47.3625 5.38625 44.0672 4.22173C43.1257 3.88724 42.3204 3.58992 42.2956 3.55275C42.1098 3.36693 44.9963 4.04829 46.6316 4.56861C49.3818 5.46058 52.4294 6.87287 54.9567 8.43382C56.1088 9.15235 59.4041 11.5433 60.3828 12.3857C60.6182 12.584 60.6554 12.745 60.7545 14.1325C60.9031 16.1271 60.804 22.1107 60.581 24.0557C60.1474 27.8961 59.1068 32.3436 57.8308 35.8124C57.1742 37.6087 55.3903 41.2757 54.362 42.9729C53.532 44.3357 51.3764 47.4452 50.4349 48.6345C48.75 50.7529 44.5379 54.6924 42.7416 55.8322C41.4037 56.6746 35.7545 59.5859 33.4131 60.6389C32.6945 60.961 31.9636 61.3327 31.7902 61.4566C31.6044 61.5804 31.4433 61.6919 31.4309 61.6919C31.3566 61.7167 30.5761 61.3203 29.647 60.8371ZM31.9388 50.2821C31.8026 50.1954 31.7778 49.7866 31.815 47.4823C31.8521 44.5091 32.038 43.4189 32.0627 46.0577C32.0751 48.1761 32.2114 49.5017 32.4096 49.6627C32.6326 49.8362 32.7441 50.2821 32.5583 50.2821C32.4715 50.2821 32.3477 50.3069 32.2609 50.3317C32.1742 50.3689 32.038 50.3441 31.9388 50.2821ZM29.8947 50.1706C29.808 50.022 30.7248 50.022 30.9478 50.1706C31.0717 50.245 30.9478 50.2821 30.5389 50.2821C30.2168 50.2821 29.9319 50.2326 29.8947 50.1706ZM15.9577 15.3218C15.9577 15.1484 17.2089 13.86 18.0885 13.1043C19.984 11.4938 22.6227 10.0072 24.8031 9.3134C26.9463 8.63203 30.9478 7.88872 30.9478 8.17366C30.9478 8.2356 30.9354 8.29754 30.9106 8.29754C30.5266 8.29754 28.5816 8.74353 27.0702 9.18952C24.2332 10.0072 21.3715 11.4442 18.8566 13.3149C17.1842 14.5537 15.9577 15.4085 15.9577 15.3218ZM31.9141 13.637C31.7902 12.7946 31.7035 8.83025 31.8026 8.47098L31.9017 8.13649L33.1157 8.17366C34.4537 8.21082 36.0271 8.48337 37.5508 8.91697C38.4924 9.18952 39.9418 9.78416 39.9418 9.89566C39.9418 9.92044 39.7064 9.87088 39.4091 9.78416C38.2198 9.4249 33.921 8.40904 33.3016 8.3471C32.7193 8.28516 32.6326 8.29754 32.5583 8.48337C32.5211 8.59487 32.4096 8.83025 32.3105 9.00369C32.1742 9.23907 32.1247 9.87088 32.0627 11.7292C32.0256 13.2653 31.9636 13.9467 31.9141 13.637ZM3.97802 24.9353C3.75503 23.139 3.64353 21.7391 3.5692 19.633C3.49487 17.4031 3.65592 13.6741 3.82936 13.5007C3.90369 13.4264 4.01519 13.5131 4.17624 13.7609C4.37445 14.0706 4.39923 14.244 4.34968 14.7519C3.96563 18.5428 3.8913 21.3798 4.07713 24.13C4.15146 24.9105 4.25057 27.0661 3.97802 24.9353ZM60.6925 10.7752C59.5528 10.0195 58.5989 9.27624 58.5989 9.16474C58.5865 8.9913 58.859 9.1028 59.6271 9.61072C60.3209 10.0691 61.8571 11.4071 61.7084 11.4071C61.6712 11.4071 61.2252 11.1221 60.6925 10.7752Z" fill="#5F6269"/>
<path d="M29.1678 62.6219C22.9611 59.661 19.3685 57.3939 15.5652 54.0366C9.99037 49.1184 5.2208 41.9826 2.81744 34.9831C0.798113 29.0738 -0.0195267 22.7681 0.290186 15.3474C0.376905 13.2785 0.476012 12.0644 0.550343 11.9405C0.748559 11.6432 2.44578 10.3176 3.87046 9.30179C7.35162 6.86125 11.5513 4.64371 15.3918 3.20665C24.9928 -0.361236 35.4859 -0.683337 45.3719 2.30229C50.6122 3.88802 57.2896 7.40635 61.638 10.8999C62.1831 11.3459 62.7158 11.7299 62.8149 11.7671C63.0998 11.8662 63.1866 13.4395 63.1866 18.3949C63.1866 23.0778 63.0998 24.2671 62.5176 27.7235C62.1707 29.78 61.8486 31.0931 61.0805 33.6699C59.8293 37.8201 58.2064 41.1898 55.4437 45.3275C50.8724 52.1784 45.5453 56.8364 37.5424 60.999C35.1142 62.2626 31.9799 63.712 31.6826 63.712C31.5587 63.712 30.419 63.2289 29.1678 62.6219ZM33.9373 62.213C35.7213 61.383 36.7743 60.8007 37.1707 60.4415C37.3194 60.3052 38.1742 59.7477 39.0538 59.215C43.8977 56.2789 47.0815 53.8508 49.9309 50.8776C52.8793 47.8052 55.1216 44.7453 57.2896 40.7809C60.8204 34.3389 62.4928 26.8563 62.53 17.3543C62.53 15.5828 62.4928 13.7121 62.4432 13.1918C62.3565 12.2626 62.3441 12.2379 61.9725 12.0273C53.7713 5.91973 46.809 2.26512 36.7743 0.790893C34.5815 0.505958 28.6722 0.505958 26.5042 0.790893C21.8338 1.39793 17.8075 2.42617 15.0077 3.72697C9.82932 6.13033 8.36748 6.9232 4.84915 9.25223C3.53597 10.1194 2.16085 11.0238 1.7768 11.2468L1.09544 11.6556L1.03349 12.3989C0.872445 14.1705 0.822891 19.3241 0.946776 21.3062C1.5662 30.7587 3.79613 37.6838 8.5657 44.8444C10.2134 47.3097 11.8239 49.2794 14.0538 51.5218C18.1296 55.61 21.7594 58.0753 29.081 61.7423C31.4472 62.9316 31.7941 63.0678 32.1534 62.9935C32.302 62.9563 33.1073 62.6095 33.9373 62.213ZM29.5642 60.9494C26.3184 59.2522 23.308 57.3072 20.8055 55.3126C19.3808 54.1729 16.8536 51.8686 16.8536 51.7076C16.8536 51.6456 17.0642 51.7695 17.3244 51.9925C19.48 53.8384 22.6266 56.0312 25.1787 57.4806C27.0493 58.546 31.3357 60.7016 31.5711 60.7016C31.8065 60.7016 36.2292 58.4841 37.9512 57.5054C45.7559 53.0703 51.306 47.384 55.6296 39.4306C57.4878 36.0238 58.9001 31.8612 59.5939 27.8226C60.077 24.9732 60.3744 19.7948 60.2133 17.0198C60.0647 14.4058 60.7336 13.6997 58.5656 12.0768C52.2971 7.49307 47.0072 5.00298 39.8466 3.28098C38.7812 3.02082 37.8149 2.77305 37.6786 2.7235C37.2698 2.56245 38.3476 2.59961 39.7475 2.78544C45.8303 3.62786 50.8105 5.51091 55.8773 8.86819C57.3268 9.8221 60.1514 11.9653 60.5974 12.4361L60.8699 12.7334V17.5773C60.8699 22.9043 60.7956 23.8954 60.139 27.4385C59.0984 33.1125 57.302 38.105 54.6881 42.5401C53.9943 43.717 52.1236 46.4796 50.8228 48.2388C49.2743 50.3449 45.2109 54.334 43.1172 55.833C42.3119 56.4028 36.2788 59.4876 33.6152 60.6769C32.7356 61.0733 31.9799 61.4821 31.918 61.5936C31.7446 61.9776 31.2614 61.8414 29.5642 60.9494ZM4.30406 22.9043L4.35361 24.2051C4.53944 28.5907 5.84023 33.7567 7.82239 37.9688C8.87541 40.2111 10.424 42.7879 12.2079 45.278C12.6663 45.9222 13.3105 46.8141 13.6326 47.2725C13.9547 47.7309 15.1688 49.0565 16.3209 50.221C17.473 51.3855 18.2783 52.2031 18.0924 52.0545C13.7813 48.2512 10.5974 44.1258 8.16926 39.2324C5.6544 34.1531 4.44033 30.0401 3.75896 24.3538C3.4988 22.2354 3.46164 13.8608 3.69702 13.4395C4.19256 12.5723 9.56917 8.99207 12.2699 7.71606C13.36 7.20813 15.4289 6.40288 15.6271 6.41527C15.7015 6.41527 15.1688 6.71259 14.4255 7.05947C11.9354 8.24876 9.87888 9.5 7.10386 11.4698C6.55876 11.8662 5.66679 12.4361 5.13408 12.7582C4.60138 13.0803 4.16778 13.39 4.16778 13.4643L4.30406 22.9043ZM18.6128 52.4137C18.4765 52.2403 18.4765 52.2279 18.6499 52.3766C18.8358 52.5252 18.8977 52.6119 18.7986 52.6119C18.7738 52.6119 18.6871 52.5252 18.6128 52.4137Z" fill="#8D9093"/>
<path d="M29.502 58.3762C21.7591 54.3747 16.8657 50.4104 12.7032 44.786C8.88751 39.6448 6.5213 34.293 5.36917 28.235C4.78692 25.175 4.68781 23.899 4.70019 19.2905C4.70019 16.9367 4.73736 14.843 4.78692 14.6324C4.86125 14.2979 5.03469 14.1245 6.11248 13.344C9.79187 10.6681 12.5793 9.05762 16.1472 7.53383C21.1769 5.36585 27.8791 4.21372 33.5158 4.53582C42.4727 5.04374 49.4226 7.63294 57.215 13.344C58.553 14.3227 58.6149 14.3847 58.5282 14.5953C58.4786 14.7192 58.4539 14.7192 58.3424 14.5953C58.268 14.5086 57.9955 14.2856 57.7229 14.0873C57.4504 13.8891 56.7938 13.4184 56.2611 13.0219C55.7284 12.6379 55.109 12.2043 54.8736 12.068C54.6382 11.9317 54.1674 11.6344 53.833 11.4114C53.0401 10.8911 52.2968 10.4947 49.881 9.30539C46.8211 7.79399 46.1397 7.47189 45.768 7.38517C45.5822 7.348 44.9876 7.14979 44.4301 6.95157C40.7135 5.63839 36.1793 4.90747 31.7195 4.91986C26.3305 4.91986 21.276 5.88616 16.6303 7.80638C15.3419 8.33908 12.4554 9.77615 11.2537 10.4823C9.06094 11.7831 5.85233 14.0254 5.46828 14.5333C5.18335 14.9174 5.08424 16.2429 5.07185 19.5754C5.05946 25.7821 6.03815 30.9852 8.18136 36.0645C10.5352 41.6517 15.3915 48.0194 20.4831 52.2067C22.2795 53.681 22.4405 53.8172 23.0599 54.2013C23.3449 54.3871 23.9767 54.7959 24.4474 55.118C24.9182 55.4401 25.3766 55.7003 25.4633 55.7003C25.55 55.7003 25.612 55.7498 25.612 55.8118C25.612 55.8737 25.835 56.0348 26.0951 56.1711C27.272 56.7781 27.9286 57.1497 28.4985 57.5214C28.833 57.7444 29.1922 57.9178 29.2913 57.9178C29.3905 57.9178 29.5143 57.9674 29.5515 58.0293C29.5887 58.0913 29.8241 58.2399 30.0842 58.3638C30.3444 58.4877 30.6293 58.6364 30.716 58.6859C30.8027 58.7355 31.1248 58.8965 31.4098 59.0328C31.6947 59.1691 31.9053 59.3177 31.8805 59.3797C31.8434 59.4416 31.7814 59.4788 31.7443 59.4788C31.7071 59.5036 30.6912 58.9956 29.502 58.3762ZM29.8364 52.5536C29.6878 52.5288 29.0064 52.4173 28.3374 52.3182C27.6685 52.2191 26.9871 52.0705 26.8137 51.9837C26.6526 51.897 26.3801 51.8351 26.2066 51.8351C25.7854 51.8351 23.4811 51.0298 22.4157 50.5219C22.3166 50.4723 22.0317 50.3361 21.7839 50.2246C21.5362 50.1131 21.0282 49.8281 20.6318 49.5928C20.2478 49.3574 19.9009 49.1716 19.8637 49.1716C19.7646 49.1716 18.501 48.23 18.0302 47.8088C17.7824 47.5858 17.5347 47.3876 17.4851 47.3876C17.4356 47.3876 17.2497 47.2513 17.0763 47.0779C15.5525 45.6284 14.834 44.8975 14.8835 44.848C14.9207 44.8108 15.3047 45.1453 15.7507 45.5789C21.7468 51.4634 30.8399 53.5323 38.9296 50.8192C43.7983 49.1963 47.713 46.1735 50.6119 41.8252C54.5515 35.9159 55.5054 28.8916 53.3002 22.1646C51.4172 16.4535 47.1184 11.5229 41.5931 8.76029C41.1967 8.56208 40.9365 8.40103 41.0109 8.40103C41.2091 8.40103 43.8974 9.70182 43.9841 9.83809C44.0213 9.90003 44.1328 9.94959 44.2319 9.94959C44.331 9.94959 44.5911 10.0859 44.8141 10.2593C45.0371 10.4327 45.3592 10.6433 45.545 10.7301C46.4494 11.1884 49.5465 14.1741 50.6739 15.6731C54.1427 20.2816 55.6788 25.6334 55.2205 31.4932C55.1337 32.5586 55.0099 33.6612 54.9479 33.9337C54.886 34.2063 54.7745 34.6894 54.7125 34.9867C54.4524 36.176 53.5232 38.7528 53.0401 39.6448C51.6402 42.234 50.7854 43.4728 49.3607 45.0214C46.8582 47.7221 43.8478 49.791 40.6888 50.9927C37.5297 52.1943 36.0307 52.4793 32.5867 52.5288C31.2116 52.5784 29.9851 52.5784 29.8364 52.5536ZM33.6645 48.676C33.0575 47.2266 32.1779 41.8252 32.1779 39.5457C32.1779 38.7652 32.3513 38.6289 32.6858 39.1245C32.8964 39.459 33.1689 40.7969 33.1689 41.5402C33.1689 41.8252 33.2185 42.2836 33.2804 42.5437C33.3424 42.8039 33.491 43.8321 33.6273 44.8232C33.8627 46.6691 34.2963 48.4159 34.5812 48.7503C34.7299 48.9114 34.7175 48.9362 34.4821 48.9981C33.9742 49.122 33.8255 49.0724 33.6645 48.676ZM28.5728 48.8618C28.548 48.8123 28.6595 48.7875 28.8454 48.8247C29.0312 48.8494 29.1675 48.8866 29.1675 48.9114C29.1675 48.9981 28.6348 48.9486 28.5728 48.8618ZM27.9782 48.7751C28.0153 48.738 28.1144 48.738 28.1888 48.7627C28.2755 48.7999 28.2507 48.8247 28.1268 48.8247C28.0153 48.8371 27.941 48.8123 27.9782 48.7751ZM26.6154 48.4902C25.166 48.1061 24.1501 47.7345 22.8989 47.1275C12.827 42.2959 8.75123 30.1552 13.8553 20.1825C16.6303 14.7687 21.6229 10.9531 27.5446 9.73898C28.9816 9.44166 29.6506 9.46644 29.7002 9.8257C29.7249 10.0115 29.6878 10.0611 29.5639 10.0115C29.3657 9.9372 27.4455 10.2469 26.7765 10.4699C26.5287 10.5566 25.9836 10.7301 25.55 10.8663C24.4722 11.2008 22.0689 12.3901 20.9663 13.121C16.6427 16.0076 13.7314 20.3807 12.6041 25.6334C12.2943 27.0829 12.1828 29.9694 12.3811 31.6047C12.6412 33.8346 13.2606 35.9159 14.2393 37.8856C14.8092 39.0378 15.1932 39.6572 16.333 41.3049C16.7914 41.9738 18.6125 43.8321 19.6159 44.6498C20.2973 45.2072 21.9821 46.3841 22.1184 46.3841C22.1927 46.3841 22.329 46.4832 22.4405 46.6071C22.552 46.731 22.7131 46.8301 22.7998 46.8301C22.8865 46.8301 23.0971 46.9292 23.2582 47.0407C23.4192 47.1646 23.7041 47.2885 23.89 47.3381C24.0634 47.3752 24.274 47.4619 24.336 47.5115C24.4722 47.623 25.7606 48.069 26.665 48.3291C27.0366 48.4282 27.4331 48.5645 27.557 48.6141C27.9534 48.7875 27.495 48.7256 26.6154 48.4902ZM35.9935 35.8044C35.6095 35.6309 34.4202 34.5655 34.5069 34.4788C34.5441 34.4416 34.7547 34.5779 34.9901 34.7637C35.5847 35.2593 36.3404 35.4327 37.0465 35.2469C38.1987 34.9496 38.8677 34.0824 39.2765 32.3604C39.4127 31.8029 39.549 31.3197 39.5986 31.2702C39.6357 31.2206 39.7844 31.2702 39.9207 31.3693C40.1437 31.5303 40.1684 31.6294 40.1437 32.286C40.1313 32.6949 40.0569 33.1532 39.9702 33.3019C39.8835 33.4506 39.8216 33.6983 39.8216 33.8346C39.8216 33.9709 39.7225 34.1319 39.5986 34.1939C39.4747 34.2558 39.3508 34.4664 39.3136 34.6646C39.2393 35.0487 38.6447 35.569 37.9881 35.8168C37.5421 35.9902 36.4147 35.9778 35.9935 35.8044ZM17.5595 35.7424C15.7383 35.7053 15.1685 35.6557 15.0198 35.5318C14.834 35.3832 14.834 35.3708 15.0322 35.2841C15.1437 35.2345 16.3949 35.1973 17.8072 35.1973C19.8265 35.1849 20.3964 35.1602 20.4955 35.0363C20.5699 34.9496 20.7557 34.2063 20.9291 33.3762C21.1026 32.5462 21.2884 31.8029 21.3503 31.7409C21.4123 31.679 21.7963 31.6418 22.2299 31.6542L22.998 31.6914L23.0352 32.0383C23.0723 32.3604 23.0476 32.3728 22.7378 32.3356C22.1927 32.2613 21.9945 32.4471 21.7963 33.24C21.6972 33.6364 21.6105 34.0452 21.6105 34.1567C21.6105 34.516 21.3875 35.1602 21.1769 35.4203C20.9167 35.7548 20.3593 35.8044 17.5595 35.7424ZM23.5679 35.7672C23.2334 35.6805 22.9361 35.3832 23.0599 35.2593C23.1219 35.1973 24.2864 35.1478 25.6491 35.1354C27.0119 35.123 28.1888 35.0734 28.2755 35.0239C28.3498 34.9743 28.4118 34.7637 28.4118 34.5531C28.4118 34.1691 28.3994 34.1691 27.9906 34.1939L27.5693 34.231L27.5446 30.0685C27.5322 27.3554 27.557 25.9679 27.6313 26.0918C27.6932 26.1909 27.9038 26.7732 28.1144 27.3926C28.4613 28.4084 28.4737 28.5695 28.3746 29.1022C28.3127 29.4367 28.2879 30.6012 28.325 31.8401L28.387 33.9956L28.7215 34.3425C29.1675 34.8009 29.1799 35.3212 28.7586 35.5938C28.4985 35.7672 28.1516 35.792 26.1199 35.8044C24.8439 35.8168 23.6918 35.8044 23.5679 35.7672ZM31.5832 35.73C31.3107 35.569 31.3478 35.4079 31.6576 35.4079C31.8062 35.4079 31.9549 35.3584 31.992 35.3088C32.0416 35.2345 32.1779 26.2528 32.1655 23.9486C32.1655 23.8123 32.277 23.7504 32.5867 23.7256C32.9707 23.6884 33.0079 23.6636 33.0327 23.3292C33.0698 22.9575 33.1318 22.9079 33.3424 23.0566C33.4787 23.1557 33.714 23.5769 33.714 23.7256C33.714 23.7875 33.5406 24.0477 33.33 24.2955L32.946 24.7662L32.9955 27.9501C33.0574 31.7038 33.0575 31.1215 32.9707 33.5001C32.8964 35.346 32.884 35.4327 32.6362 35.6433C32.3389 35.8663 31.8929 35.9035 31.5832 35.73ZM40.0817 35.6309C39.8835 35.507 39.7225 35.3584 39.7225 35.2964C39.7225 35.2221 40.602 35.1849 42.2125 35.1849C44.8885 35.1849 45 35.1602 44.9256 34.6027C44.9008 34.4169 44.8017 34.3425 44.5787 34.3178C44.3681 34.293 44.269 34.2186 44.269 34.07C44.269 33.8842 44.4796 32.7444 44.6655 31.9887C44.715 31.7533 44.777 31.7409 45.607 31.7409H46.499V32.125C46.499 32.4843 46.4866 32.509 46.1893 32.4471C45.7061 32.348 45.4088 32.6701 45.2725 33.4258C45.161 34.008 45.1734 34.0948 45.4088 34.3921C45.6194 34.677 45.6442 34.7885 45.5574 35.1354C45.3964 35.7796 45.2106 35.8291 42.6833 35.8291C40.6392 35.8415 40.4162 35.8291 40.0817 35.6309ZM46.722 35.6062L46.3379 35.3708L46.6105 35.2964C46.7591 35.2469 47.5396 35.2097 48.3448 35.2097C49.9182 35.1973 49.943 35.1849 49.943 34.5779C49.943 34.231 50.0916 34.2434 50.3766 34.6027C50.6863 34.9867 50.6615 35.1849 50.3146 35.5566C50.0173 35.8663 50.0049 35.8663 48.5678 35.8663C47.267 35.8415 47.0688 35.8168 46.722 35.6062ZM17.1135 34.1567C17.0887 34.0824 17.0763 31.7409 17.0887 28.9659L17.1135 23.9114L17.5347 23.8743C17.8692 23.8495 17.9807 23.7751 18.0674 23.5645C18.1293 23.4159 18.2284 23.3168 18.278 23.3539C18.4886 23.4778 18.3895 23.8743 18.055 24.2583L17.7205 24.6423L17.7329 27.9996C17.7453 29.8455 17.7824 31.9763 17.832 32.7444C17.8939 33.6983 17.8816 34.1567 17.7948 34.2063C17.609 34.3425 17.1754 34.3054 17.1135 34.1567ZM25.5376 34.1443C25.4881 34.07 25.2527 33.1656 25.0297 32.125C24.8067 31.0844 24.3236 28.8668 23.9643 27.182C23.605 25.4971 23.2705 23.8619 23.221 23.5274C23.1467 22.9575 23.1467 22.9327 23.3697 23.0566C23.4935 23.1186 23.6422 23.3168 23.7165 23.4902C23.8652 23.8743 24.5713 26.674 24.8439 27.9625C25.2775 30.0437 26.058 33.1161 26.3057 33.7107C26.3801 33.9089 26.4296 34.0824 26.4048 34.1071C26.2438 34.2434 25.6244 34.2682 25.5376 34.1443ZM42.2125 34.1567C42.1878 34.0824 42.1754 31.7162 42.1878 28.904L42.2125 23.7999H42.5842C42.9559 23.7999 43.1541 23.6141 43.1541 23.292C43.1541 23.0194 43.4638 22.9451 43.6001 23.1929C43.8107 23.5893 43.7239 24.0229 43.3771 24.3698L43.0426 24.6919L43.0797 29.4367C43.1169 34.0948 43.1045 34.1815 42.8939 34.2434C42.5223 34.3301 42.2745 34.3054 42.2125 34.1567ZM48.8899 34.0948C48.8528 33.9833 48.3448 31.679 47.7626 28.9535C46.6724 23.9114 46.4742 22.7345 46.6972 22.7345C46.883 22.7345 47.2547 23.1805 47.3785 23.5522C47.5024 23.9362 47.8865 25.683 48.0475 26.5873C48.1095 26.9094 48.2457 27.5536 48.3696 28.0368C48.4935 28.5075 48.6422 29.2013 48.7165 29.573C48.7908 29.9446 48.9271 30.564 49.0138 30.9605C49.1873 31.679 49.435 32.7816 49.5961 33.5125C49.6456 33.7231 49.72 33.9833 49.7695 34.0948C49.8439 34.2558 49.7819 34.293 49.3979 34.293C49.0758 34.293 48.9395 34.2434 48.8899 34.0948ZM36.105 34.07C35.7829 33.9461 35.4237 33.4629 35.275 32.9674C35.213 32.7444 35.1263 31.5427 35.0892 30.2915C35.0272 27.8881 35.1511 25.8564 35.4484 24.8901C35.7334 23.9238 36.4271 23.5398 37.158 23.9238C37.5545 24.1344 37.9385 24.6671 37.8022 24.8158C37.7527 24.8653 37.666 24.8158 37.604 24.7043C37.4554 24.4441 36.8979 24.4565 36.6253 24.7291C36.1174 25.237 35.9068 27.2068 35.9811 30.4649C36.0431 33.0417 36.0926 33.3143 36.6129 33.7727C36.7368 33.8842 36.8483 34.0204 36.8483 34.0824C36.8359 34.2063 36.4147 34.1939 36.105 34.07ZM44.8265 30.6136C44.8265 30.3039 45.5451 26.8475 45.6194 26.8475C45.6565 26.8475 45.768 27.405 45.8795 28.0987C46.1273 29.7464 46.1149 29.6473 45.9663 29.9322C45.8052 30.2172 45.8919 30.4525 46.1273 30.3534C46.214 30.3163 46.2884 30.3658 46.2884 30.4525C46.2884 30.5516 46.1769 30.6136 45.9786 30.6136C45.8052 30.6136 45.4831 30.6508 45.2601 30.6879C44.938 30.7499 44.8265 30.7251 44.8265 30.6136ZM21.3999 30.5393C21.3875 30.3163 22.1308 26.8475 22.1927 26.8475C22.2299 26.8475 22.329 27.2935 22.4033 27.8262C22.5148 28.5695 22.5148 28.904 22.4157 29.1889C22.3414 29.3995 22.2795 29.8083 22.2671 30.0933L22.2423 30.6136H21.8211C21.5857 30.626 21.3999 30.5888 21.3999 30.5393ZM29.9603 26.2281C29.3905 24.8282 28.8949 23.5274 28.8578 23.3168L28.7958 22.9451L29.1303 23.1929C29.3781 23.3787 29.6382 23.8371 30.109 24.9025C30.4683 25.7077 30.8027 26.4015 30.8647 26.4387C30.9762 26.513 31.1125 28.1854 31.0381 28.5695C31.0257 28.6686 30.5426 27.6156 29.9603 26.2281ZM38.7809 27.0333C38.657 26.9466 38.5827 26.8599 38.6199 26.8351C38.6447 26.8103 38.7809 26.7484 38.8924 26.6741C39.0906 26.5626 39.1154 26.4015 39.165 24.8282C39.1898 23.8743 39.2641 23.0566 39.3013 23.0194C39.3508 22.9699 39.388 23.0814 39.388 23.2672C39.388 23.6884 39.5614 23.8619 39.9826 23.8619C40.2923 23.8619 40.3047 23.8866 40.2304 24.2211C40.1932 24.4193 40.1189 25.0264 40.0693 25.5591C40.0074 26.2652 39.9207 26.6245 39.7596 26.8351C39.4995 27.182 39.0906 27.2687 38.7809 27.0333ZM26.1942 24.1592C26.0084 23.9734 26.0208 23.8495 26.2314 23.8495C26.3181 23.8495 26.3924 23.9486 26.3924 24.0725C26.3924 24.3326 26.3801 24.345 26.1942 24.1592ZM30.7532 24.1592C30.555 23.961 30.5921 23.8495 30.8399 23.8495C30.9886 23.8495 31.0629 23.9238 31.0629 24.0725C31.0629 24.3326 30.939 24.3574 30.7532 24.1592ZM37.7279 22.9079C37.3067 22.6106 37.3563 22.5735 37.9137 22.7717C38.112 22.846 38.2854 22.9699 38.2854 23.0442C38.273 23.2424 38.1739 23.2177 37.7279 22.9079ZM31.9549 19.9719C31.831 19.8852 31.8186 19.8356 31.9301 19.6993C32.0168 19.6002 32.1283 18.795 32.2274 17.7543C32.5743 13.8396 33.4043 9.67704 33.8751 9.49121C33.9618 9.45405 34.445 9.5036 34.9529 9.59032C40.0198 10.4699 44.2071 12.9476 47.3909 16.9615C47.6139 17.234 47.8493 17.5809 47.9236 17.7419L48.0599 18.0145L47.8617 17.7543C47.7502 17.6181 47.4405 17.234 47.1679 16.9243C46.8954 16.6022 46.5733 16.2306 46.4494 16.0695C45.9291 15.4129 44.046 13.8891 42.6833 12.9848C39.9454 11.2008 34.9777 9.54077 34.4078 10.2345C34.1476 10.5566 33.7636 12.13 33.5158 13.9015C33.2309 15.9456 33.1813 16.4164 33.0698 17.7296C32.9212 19.4516 32.8964 19.5754 32.5495 19.8356C32.215 20.1082 32.1779 20.1205 31.9549 19.9719Z" fill="#101A4B"/>
<path d="M32.0273 29.4955L32.052 23.7597L32.4732 23.7225C32.8449 23.6853 32.8945 23.6606 32.9192 23.3385L32.9564 22.9792L31.7919 22.942C30.2681 22.8925 30.2557 22.9049 30.2929 23.3385C30.3176 23.6482 30.3796 23.6977 30.7141 23.7473L31.0981 23.7968L31.1229 26.386C31.1353 27.8107 31.1105 28.9505 31.061 28.9133C31.0114 28.8761 30.4291 27.5258 29.7602 25.9029L28.5585 22.9544L27.109 22.9792L25.6596 23.0164V23.3509C25.6596 23.6606 25.6967 23.6853 26.0808 23.7225L26.502 23.7597L26.4772 29L26.4524 34.2403H25.9569H25.4614L24.3092 28.9133C22.9217 22.4589 22.996 22.7934 22.7854 22.7067C22.3271 22.5332 22.2651 22.719 21.2617 27.3152C20.2458 31.9609 19.9609 32.8776 19.3167 33.559C18.8583 34.0421 18.2636 34.3023 17.6318 34.3023H17.0743L17.0991 29.0496L17.1239 23.7968L17.5079 23.7473C17.8548 23.6977 17.892 23.6606 17.892 23.3632V23.0288H16.17H14.448L14.4108 23.3509C14.3737 23.7101 14.5223 23.8588 14.9807 23.8588H15.2904V29.0743V34.2899H15.0179C14.5595 34.2899 14.3984 34.4014 14.3984 34.7359C14.3984 34.9093 14.4356 35.0704 14.4852 35.0951C14.5347 35.1199 15.9098 35.1075 17.5575 35.0704L20.5555 34.996L20.89 33.336L21.2245 31.6759L22.1412 31.6388C23.0208 31.6016 23.058 31.614 23.1075 31.8617C23.3058 32.7909 23.504 33.8935 23.504 34.0669C23.504 34.2156 23.4049 34.2775 23.1447 34.3023C22.8226 34.3271 22.7854 34.3766 22.7854 34.6739V35.0084L25.449 35.0332C27.7656 35.058 28.1249 35.0456 28.2364 34.8845C28.4594 34.5748 28.2859 34.2899 27.8523 34.2527L27.4435 34.2156L27.4187 30.115C27.4064 27.8603 27.4311 25.9772 27.4807 25.9277C27.5302 25.8781 28.3355 27.7488 29.277 30.0902C31.5937 35.8508 31.3335 35.3057 31.6928 35.2562L32.0025 35.219L32.0273 29.4955ZM21.2864 30.6477C21.2864 30.3751 22.1165 26.6214 22.1784 26.6214C22.2651 26.6214 23.0456 30.5238 22.9837 30.6477C22.9589 30.6972 22.5748 30.7344 22.1165 30.7344C21.6581 30.7344 21.2864 30.6972 21.2864 30.6477ZM37.2056 35.1695C38.1596 34.9093 38.8905 33.8811 39.2374 32.3201C39.448 31.3662 39.4108 31.1804 38.9648 31.1804C38.556 31.1804 38.556 31.1928 38.2834 32.2458C37.9861 33.3979 37.6145 34.0173 37.1189 34.1784C36.388 34.4262 35.7314 34.0917 35.3722 33.3112C35.1492 32.8281 35.1368 32.5679 35.0996 29.9044C35.05 25.8162 35.2854 24.3172 36.0783 23.9083C37.1065 23.3756 37.9861 24.1189 38.2958 25.7914C38.4321 26.5223 38.5188 26.6586 38.8162 26.609C39.002 26.5719 39.0268 26.4108 39.0887 24.8499C39.1259 23.9083 39.1259 23.0659 39.1011 22.9916C39.0144 22.7438 38.5312 22.8305 38.3949 23.1155L38.2711 23.3756L37.7384 23.0411C37.2552 22.7438 37.1313 22.7067 36.4747 22.7562C35.8925 22.7934 35.6571 22.8677 35.2854 23.1279C33.9846 24.0446 33.0803 26.4356 33.0803 28.9381C33.0803 31.837 34.22 34.4386 35.8057 35.1199C36.1898 35.3181 36.6482 35.3305 37.2056 35.1695ZM49.7056 35.0208C49.9534 34.7235 49.7924 34.4633 49.3216 34.4014L48.888 34.3518L47.6368 28.5664C46.943 25.395 46.3855 22.781 46.3855 22.7686C46.3855 22.7562 46.2369 22.7438 46.051 22.7438C45.667 22.7438 45.7413 22.5208 44.998 25.9648C44.7131 27.278 44.2051 29.6814 43.8459 31.2919L43.2141 34.2403L42.6814 34.2775L42.1487 34.3147L42.1734 29.0619L42.1982 23.8092L42.5823 23.7597C42.9291 23.7101 42.9663 23.673 42.9663 23.3756V23.0411H41.2443H39.5223V23.3756C39.5223 23.673 39.5595 23.7101 39.9063 23.7597L40.2904 23.8092V29.0248V34.2403L39.9063 34.2899C39.5595 34.3394 39.5099 34.389 39.4851 34.7111L39.448 35.0704L42.0991 35.0456L44.7378 35.0208L44.775 34.7111C44.7998 34.4509 44.7626 34.389 44.4653 34.3394C44.2795 34.3023 44.1308 34.2403 44.1308 34.2032C44.1308 34.166 44.2423 33.5837 44.391 32.9148L44.6387 31.6883L45.5431 31.6511C46.4103 31.614 46.4599 31.6264 46.5094 31.8741C46.7076 32.8157 46.9058 33.9058 46.9058 34.0793C46.9058 34.228 46.8315 34.2899 46.6333 34.2899C46.4722 34.2899 46.3112 34.3766 46.2492 34.5005C46.1006 34.773 46.1006 34.7978 46.3112 34.996C46.5837 35.2562 49.5074 35.2562 49.7056 35.0208ZM44.7378 30.4866C44.7626 30.3504 44.9485 29.4212 45.1591 28.4301C45.3573 27.4391 45.5555 26.6214 45.605 26.6214C45.6546 26.6214 45.8528 27.4886 46.051 28.5416C46.2492 29.5947 46.4351 30.5238 46.4722 30.5981C46.5094 30.6972 46.2988 30.7344 45.605 30.7344C44.7131 30.7344 44.6883 30.7344 44.7378 30.4866Z" fill="white"/>
<path d="M49.7108 16.2395C50.1196 16.9332 50.2311 17.1562 50.8381 18.5189C51.1479 19.2251 51.5319 20.0551 51.6682 20.3772C51.8168 20.6993 51.9407 20.9842 51.9407 21.0214C51.9407 21.0462 52.1513 21.5541 52.3991 22.1364C52.9814 23.4867 53.2415 24.7875 53.3902 26.9803C53.5884 29.904 53.2539 32.9639 52.4734 35.3921C52.1265 36.4699 51.3089 38.3529 51.2222 38.2662C51.1974 38.2414 51.3956 37.6096 51.6682 36.8539C52.6593 34.116 53.0433 32.01 53.0433 29.2721C53.0433 26.4104 52.7336 24.2672 51.9779 21.9753C51.4452 20.34 50.5904 18.6924 49.2029 16.6607C46.911 13.0432 47.0225 12.5105 49.7108 16.2395Z" fill="#8D9093"/>
</g>
<defs>
<clipPath id="clip0_10774_10956">
<rect width="64" height="64" fill="white"/>
</clipPath>
</defs>
</svg>
