<svg width="64" height="64" viewBox="0 0 64 64" fill="none" xmlns="http://www.w3.org/2000/svg">
<path d="M32 15C14.3226 15 0 22.5173 0 31.801C0 41.071 14.3226 48.6021 32 48.6021C49.6637 48.6021 64 41.0847 64 31.801C64 22.5173 49.6637 15 32 15Z" fill="#58595B"/>
<path d="M32 15C14.3226 15 0 22.5173 0 31.801C0 41.071 14.3226 48.5884 31.9863 48.5884C49.65 48.5884 63.9863 41.071 63.9863 31.801C63.9863 22.5173 49.6637 15 32 15Z" fill="#595A5C"/>
<path d="M32.0019 15.0137C14.3383 15.0137 0.015625 22.531 0.015625 31.801C0.015625 41.071 14.3383 48.5883 32.0019 48.5883C49.6656 48.5883 63.9882 41.071 63.9882 31.801C63.9882 22.531 49.6656 15.0137 32.0019 15.0137Z" fill="#5A5B5D"/>
<path d="M32.0019 15.0137C14.3383 15.0137 0.015625 22.531 0.015625 31.801C0.015625 41.071 14.3383 48.5883 32.0019 48.5883C49.6656 48.5883 63.9882 41.071 63.9882 31.801C63.9882 22.531 49.6656 15.0137 32.0019 15.0137Z" fill="#5B5C5E"/>
<path d="M32.0019 15.0137C14.3383 15.0137 0.015625 22.531 0.015625 31.801C0.015625 41.071 14.3383 48.5883 32.0019 48.5883C49.6656 48.5883 63.9882 41.071 63.9882 31.801C63.9882 22.531 49.6656 15.0137 32.0019 15.0137Z" fill="#5C5C5F"/>
<path d="M32.0019 15.0137C14.3383 15.0137 0.015625 22.531 0.015625 31.801C0.015625 41.071 14.3383 48.5883 31.9882 48.5883C49.6519 48.5883 63.9746 41.071 63.9746 31.801C63.9746 22.531 49.6656 15.0137 32.0019 15.0137Z" fill="#5C5D60"/>
<path d="M32 15.0137C14.3363 15.0137 0.0273438 22.531 0.0273438 31.801C0.0273438 41.071 14.35 48.5746 32 48.5746C49.6636 48.5746 63.9726 41.0573 63.9726 31.801C63.9726 22.531 49.6636 15.0137 32 15.0137Z" fill="#5D5E60"/>
<path d="M32 15.0273C14.3363 15.0273 0.0273438 22.531 0.0273438 31.801C0.0273438 41.071 14.3363 48.5746 32 48.5746C49.6636 48.5746 63.9726 41.0573 63.9726 31.801C63.9726 22.531 49.6499 15.0273 32 15.0273Z" fill="#5E5F61"/>
<path d="M32 15.0273C14.35 15.0273 0.0273438 22.531 0.0273438 31.801C0.0273438 41.0573 14.3363 48.5746 32 48.5746C49.6499 48.5746 63.9726 41.071 63.9726 31.801C63.9726 22.531 49.6499 15.0273 32 15.0273Z" fill="#5F6062"/>
<path d="M32.0019 15.0273C14.3519 15.0273 0.0429688 22.5447 0.0429688 31.801C0.0429688 41.0573 14.3519 48.5746 32.0019 48.5746C49.6519 48.5746 63.9745 41.071 63.9745 31.801C63.9745 22.5447 49.6519 15.0273 32.0019 15.0273Z" fill="#606163"/>
<path d="M32.0019 15.041C14.3519 15.041 0.0429688 22.5447 0.0429688 31.801C0.0429688 41.0573 14.3519 48.5609 32.0019 48.5609C49.6519 48.5609 63.9608 41.0573 63.9608 31.801C63.9608 22.5447 49.6519 15.041 32.0019 15.041Z" fill="#616264"/>
<path d="M32.0019 15.041C14.3519 15.041 0.0429688 22.5447 0.0429688 31.801C0.0429688 41.0573 14.3519 48.5609 32.0019 48.5609C49.6519 48.5609 63.9608 41.0573 63.9608 31.801C63.9608 22.5447 49.6519 15.041 32.0019 15.041Z" fill="#616265"/>
<path d="M32.0019 15.041C14.3519 15.041 0.0429688 22.5447 0.0429688 31.801C0.0429688 41.0573 14.3519 48.5609 32.0019 48.5609C49.6519 48.5609 63.9608 41.0573 63.9608 31.801C63.9608 22.5447 49.6519 15.041 32.0019 15.041Z" fill="#626366"/>
<path d="M31.9999 15.041C14.3499 15.041 0.0546875 22.5447 0.0546875 31.801C0.0546875 41.0573 14.3636 48.5609 31.9999 48.5609C49.6499 48.5609 63.9588 41.0573 63.9588 31.801C63.9588 22.5447 49.6499 15.041 31.9999 15.041Z" fill="#636467"/>
<path d="M31.9999 15.041C14.3636 15.041 0.0546875 22.5447 0.0546875 31.801C0.0546875 41.0573 14.3636 48.5472 31.9999 48.5472C49.6499 48.5472 63.9452 41.0573 63.9452 31.801C63.9452 22.5447 49.6499 15.041 31.9999 15.041Z" fill="#646567"/>
<path d="M31.9999 15.0547C14.3636 15.0547 0.0546875 22.5446 0.0546875 31.8009C0.0546875 41.0573 14.3636 48.5472 31.9999 48.5472C49.6362 48.5472 63.9452 41.0573 63.9452 31.8009C63.9452 22.5446 49.6362 15.0547 31.9999 15.0547Z" fill="#656668"/>
<path d="M31.9999 15.0547C14.3636 15.0547 0.0546875 22.5583 0.0546875 31.8009C0.0546875 41.0436 14.3636 48.5472 31.9999 48.5472C49.6362 48.5472 63.9452 41.0436 63.9452 31.8009C63.9452 22.5583 49.6362 15.0547 31.9999 15.0547Z" fill="#656769"/>
<path d="M32.0018 15.0547C14.3656 15.0547 0.0703125 22.5583 0.0703125 31.8009C0.0703125 41.0436 14.3656 48.5472 32.0018 48.5472C49.6381 48.5472 63.9471 41.0436 63.9471 31.8009C63.9471 22.5583 49.6381 15.0547 32.0018 15.0547Z" fill="#66686A"/>
<path d="M32.0018 15.0547C14.3656 15.0547 0.0703125 22.5583 0.0703125 31.8009C0.0703125 41.0436 14.3656 48.5472 32.0018 48.5472C49.6381 48.5472 63.9471 41.0436 63.9471 31.8009C63.9471 22.5583 49.6381 15.0547 32.0018 15.0547Z" fill="#67686B"/>
<path d="M32.0018 15.0684C14.3656 15.0684 0.0703125 22.5583 0.0703125 31.8009C0.0703125 41.0435 14.3656 48.5335 32.0018 48.5335C49.6381 48.5335 63.9334 41.0435 63.9334 31.8009C63.9334 22.5583 49.6381 15.0684 32.0018 15.0684Z" fill="#68696C"/>
<path d="M32.0038 15.0684C14.3812 15.0684 0.0859375 22.5583 0.0859375 31.8009C0.0859375 41.0435 14.3812 48.5335 32.0175 48.5335C49.6538 48.5335 63.949 41.0435 63.949 31.8009C63.9353 22.5583 49.6401 15.0684 32.0038 15.0684Z" fill="#696A6C"/>
<path d="M32.0038 15.0684C14.3812 15.0684 0.0859375 22.5583 0.0859375 31.8009C0.0859375 41.0435 14.3812 48.5335 32.0038 48.5335C49.6401 48.5335 63.9353 41.0435 63.9353 31.8009C63.9353 22.5583 49.6401 15.0684 32.0038 15.0684Z" fill="#696B6D"/>
<path d="M32.0038 15.0684C14.3812 15.0684 0.0859375 22.5583 0.0859375 31.8009C0.0859375 41.0435 14.3812 48.5198 32.0038 48.5198C49.6264 48.5198 63.9216 41.0299 63.9216 31.8009C63.9353 22.5583 49.6401 15.0684 32.0038 15.0684Z" fill="#6A6C6E"/>
<path d="M32.0038 15.082C14.3812 15.082 0.0859375 22.572 0.0859375 31.8009C0.0859375 41.0298 14.3812 48.5198 32.0038 48.5198C49.6264 48.5198 63.9216 41.0298 63.9216 31.8009C63.9216 22.572 49.6401 15.082 32.0038 15.082Z" fill="#6B6C6F"/>
<path d="M32.0018 15.082C14.3792 15.082 0.0976562 22.572 0.0976562 31.8009C0.0976562 41.0298 14.3929 48.5198 32.0155 48.5198C49.6381 48.5198 63.9334 41.0298 63.9334 31.8009C63.9197 22.572 49.6244 15.082 32.0018 15.082Z" fill="#6C6D70"/>
<path d="M32.0018 15.082C14.3792 15.082 0.0976562 22.572 0.0976562 31.8009C0.0976562 41.0298 14.3792 48.5198 32.0018 48.5198C49.6244 48.5198 63.9197 41.0298 63.9197 31.8009C63.9197 22.572 49.6244 15.082 32.0018 15.082Z" fill="#6D6E70"/>
<path d="M32.0018 15.082C14.3792 15.082 0.0976562 22.5583 0.0976562 31.8009C0.0976562 41.0298 14.3792 48.5198 32.0018 48.5198C49.6244 48.5198 63.906 41.0298 63.906 31.8009C63.9197 22.572 49.6244 15.082 32.0018 15.082Z" fill="#6D6F71"/>
<path d="M32.0018 15.0957C14.3792 15.0957 0.0976562 22.572 0.0976562 31.8009C0.0976562 41.0298 14.3792 48.5061 32.0018 48.5061C49.6244 48.5061 63.906 41.0298 63.906 31.8009C63.906 22.572 49.6244 15.0957 32.0018 15.0957Z" fill="#6E7072"/>
<path d="M32.0018 15.0957C14.3792 15.0957 0.0976562 22.572 0.0976562 31.8009C0.0976562 41.0298 14.3792 48.5061 32.0018 48.5061C49.6244 48.5061 63.906 41.0298 63.906 31.8009C63.906 22.572 49.6244 15.0957 32.0018 15.0957Z" fill="#6F7073"/>
<path d="M32.0037 15.0957C14.3948 15.0957 0.113281 22.572 0.113281 31.8009C0.113281 41.0298 14.3948 48.5061 32.0037 48.5061C49.6126 48.5061 63.9079 41.0298 63.9079 31.8009C63.9079 22.572 49.6263 15.0957 32.0037 15.0957Z" fill="#707174"/>
<path d="M32.0037 15.0957C14.3948 15.0957 0.113281 22.5856 0.113281 31.8009C0.113281 41.0161 14.3948 48.5061 32.0037 48.5061C49.6126 48.5061 63.8942 41.0298 63.8942 31.8009C63.9079 22.5856 49.6263 15.0957 32.0037 15.0957Z" fill="#707274"/>
<path d="M32.0155 15.1074C14.3929 15.1074 0.125 22.5837 0.125 31.7989C0.125 41.0141 14.4066 48.4904 32.0155 48.4904C49.6244 48.4904 63.9059 41.0141 63.9059 31.7989C63.9059 22.5837 49.6244 15.1074 32.0155 15.1074Z" fill="#717375"/>
<path d="M32.0155 15.1074C14.4066 15.1074 0.125 22.5837 0.125 31.7989C0.125 41.0141 14.4066 48.4904 32.0155 48.4904C49.6244 48.4904 63.9059 41.0141 63.9059 31.7989C63.8922 22.5837 49.6244 15.1074 32.0155 15.1074Z" fill="#727476"/>
<path d="M32.0155 15.1074C14.4066 15.1074 0.125 22.5837 0.125 31.7989C0.125 41.0141 14.3929 48.4904 32.0018 48.4904C49.6107 48.4904 63.8922 41.0141 63.8922 31.7989C63.8922 22.5837 49.6107 15.1074 32.0155 15.1074Z" fill="#737477"/>
<path d="M32.0155 15.1074C14.4066 15.1074 0.125 22.5837 0.125 31.7989C0.125 41.0141 14.3929 48.4904 32.0018 48.4904C49.6107 48.4904 63.8785 41.0141 63.8785 31.7989C63.8922 22.5837 49.6107 15.1074 32.0155 15.1074Z" fill="#747578"/>
<path d="M32.0135 15.1211C14.4046 15.1211 0.136719 22.5837 0.136719 31.7989C0.136719 41.0141 14.4046 48.4904 32.0135 48.4904C49.6224 48.4904 63.8902 41.0141 63.8902 31.8126C63.8902 22.5837 49.6087 15.1211 32.0135 15.1211Z" fill="#747678"/>
<path d="M32.0135 15.1211C14.4046 15.1211 0.136719 22.5837 0.136719 31.7989C0.136719 41.0141 14.4046 48.4767 32.0135 48.4767C49.6087 48.4767 63.8902 41.0141 63.8902 31.7989C63.8765 22.5837 49.6087 15.1211 32.0135 15.1211Z" fill="#757779"/>
<path d="M32.0135 15.1211C14.4046 15.1211 0.136719 22.5973 0.136719 31.7989C0.136719 41.0141 14.4046 48.4767 32.0135 48.4767C49.6087 48.4767 63.8902 41.0141 63.8902 31.7989C63.8765 22.5973 49.6087 15.1211 32.0135 15.1211Z" fill="#76777A"/>
<path d="M32.0154 15.1211C14.4202 15.1211 0.152344 22.5973 0.152344 31.7989C0.152344 41.0004 14.4202 48.4767 32.0154 48.4767C49.6106 48.4767 63.8785 41.0141 63.8785 31.7989C63.8785 22.5973 49.6106 15.1211 32.0154 15.1211Z" fill="#77787B"/>
<path d="M32.0154 15.1367C14.4202 15.1367 0.152344 22.5993 0.152344 31.8008C0.152344 41.0024 14.4202 48.4649 32.0154 48.4649C49.6106 48.4649 63.8785 41.0024 63.8785 31.8008C63.8785 22.5993 49.6106 15.1367 32.0154 15.1367Z" fill="#77797B"/>
<path d="M32.0154 15.1367C14.4202 15.1367 0.152344 22.5993 0.152344 31.8008C0.152344 41.0024 14.4202 48.4649 32.0154 48.4649C49.6106 48.4649 63.8785 41.0024 63.8785 31.8008C63.8785 22.5993 49.6106 15.1367 32.0154 15.1367Z" fill="#787A7C"/>
<path d="M32.0154 15.1367C14.4202 15.1367 0.152344 22.5993 0.152344 31.8008C0.152344 41.0024 14.4202 48.4649 32.0017 48.4649C49.5969 48.4649 63.8648 41.0024 63.8648 31.8008C63.8648 22.5993 49.6106 15.1367 32.0154 15.1367Z" fill="#797A7D"/>
<path d="M32.0134 15.1367C14.4182 15.1367 0.164062 22.5993 0.164062 31.8008C0.164062 41.0024 14.4182 48.4649 32.0134 48.4649C49.6086 48.4649 63.8628 41.0024 63.8628 31.8008C63.8628 22.5993 49.595 15.1367 32.0134 15.1367Z" fill="#7A7B7E"/>
<path d="M32.0134 15.1504C14.4182 15.1504 0.164062 22.5993 0.164062 31.8008C0.164062 41.0023 14.4182 48.4512 32.0134 48.4512C49.595 48.4512 63.8628 40.9886 63.8628 31.8008C63.8628 22.5993 49.595 15.1504 32.0134 15.1504Z" fill="#7A7C7F"/>
<path d="M32.0134 15.1504C14.4319 15.1504 0.164062 22.5993 0.164062 31.8008C0.164062 41.0023 14.4182 48.4512 32.0134 48.4512C49.595 48.4512 63.8628 40.9886 63.8628 31.8008C63.8628 22.5993 49.595 15.1504 32.0134 15.1504Z" fill="#7B7D7F"/>
<path d="M32.0115 15.1504C14.43 15.1504 0.175781 22.6129 0.175781 31.8008C0.175781 41.0023 14.43 48.4512 32.0115 48.4512C49.593 48.4512 63.8472 41.0023 63.8472 31.8008C63.8472 22.6129 49.593 15.1504 32.0115 15.1504Z" fill="#7C7D80"/>
<path d="M32.0115 15.1504C14.43 15.1504 0.175781 22.6129 0.175781 31.8008C0.175781 40.9886 14.43 48.4512 32.0115 48.4512C49.593 48.4512 63.8472 41.0023 63.8472 31.8008C63.8472 22.6129 49.593 15.1504 32.0115 15.1504Z" fill="#7C7E81"/>
<path d="M32.0115 15.1641C14.43 15.1641 0.175781 22.6129 0.175781 31.8008C0.175781 40.9886 14.43 48.4512 32.0115 48.4512C49.593 48.4512 63.8472 41.0023 63.8472 31.8008C63.8472 22.6129 49.593 15.1641 32.0115 15.1641Z" fill="#7D7F82"/>
<path d="M32.0115 15.1641C14.43 15.1641 0.175781 22.6129 0.175781 31.8008C0.175781 40.9886 14.43 48.4375 32.0115 48.4375C49.593 48.4375 63.8472 40.9886 63.8472 31.8008C63.8472 22.6129 49.593 15.1641 32.0115 15.1641Z" fill="#7E8082"/>
<path d="M32.0134 15.1641C14.4319 15.1641 0.191406 22.6129 0.191406 31.8008C0.191406 40.9886 14.4456 48.4375 32.0134 48.4375C49.5949 48.4375 63.8491 40.9886 63.8491 31.8008C63.8354 22.6129 49.5949 15.1641 32.0134 15.1641Z" fill="#7F8083"/>
<path d="M32.0134 15.1641C14.4456 15.1641 0.191406 22.6129 0.191406 31.8008C0.191406 40.9886 14.4456 48.4375 32.0134 48.4375C49.5949 48.4375 63.8354 40.9886 63.8354 31.8008C63.8354 22.6129 49.5812 15.1641 32.0134 15.1641Z" fill="#7F8184"/>
<path d="M32.0134 15.1777C14.4456 15.1777 0.191406 22.6129 0.191406 31.8008C0.191406 40.9886 14.4319 48.4375 32.0134 48.4375C49.5812 48.4375 63.8354 40.9886 63.8354 31.8008C63.8354 22.6129 49.5812 15.1777 32.0134 15.1777Z" fill="#808285"/>
<path d="M32.0153 15.1777C14.4475 15.1777 0.207031 22.6266 0.207031 31.8008C0.207031 40.9886 14.4475 48.4238 32.029 48.4238C49.5968 48.4238 63.851 40.9749 63.851 31.8008C63.8373 22.6266 49.5832 15.1777 32.0153 15.1777Z" fill="#818385"/>
<path d="M32.0153 15.1777C14.4475 15.1777 0.207031 22.6266 0.207031 31.8008C0.207031 40.9749 14.4475 48.4238 32.0153 48.4238C49.5832 48.4238 63.8236 40.9749 63.8236 31.8008C63.8373 22.6266 49.5832 15.1777 32.0153 15.1777Z" fill="#828386"/>
<path d="M32.0153 15.1777C14.4475 15.1777 0.207031 22.6266 0.207031 31.8008C0.207031 40.9749 14.4475 48.4238 32.0153 48.4238C49.5832 48.4238 63.8236 40.9749 63.8236 31.8008C63.8236 22.6266 49.5832 15.1777 32.0153 15.1777Z" fill="#828487"/>
<path d="M32.0153 15.1914C14.4475 15.1914 0.207031 22.6266 0.207031 31.8007C0.207031 40.9749 14.4475 48.4238 32.0153 48.4238C49.5832 48.4238 63.8236 40.9886 63.8236 31.8007C63.8236 22.6266 49.5832 15.1914 32.0153 15.1914Z" fill="#838588"/>
<path d="M32.0134 15.1914C14.4592 15.1914 0.21875 22.6266 0.21875 31.8007C0.21875 40.9749 14.4592 48.4101 32.0134 48.4101C49.5812 48.4101 63.8217 40.9749 63.8217 31.8007C63.8217 22.6266 49.5812 15.1914 32.0134 15.1914Z" fill="#848688"/>
<path d="M32.0134 15.1914C14.4592 15.1914 0.21875 22.6266 0.21875 31.8007C0.21875 40.9749 14.4592 48.4101 32.0134 48.4101C49.5812 48.4101 63.808 40.9749 63.808 31.8007C63.8217 22.6266 49.5812 15.1914 32.0134 15.1914Z" fill="#858689"/>
<path d="M32.0134 15.1914C14.4592 15.1914 0.21875 22.6266 0.21875 31.8007C0.21875 40.9749 14.4592 48.4101 32.0134 48.4101C49.5812 48.4101 63.808 40.9749 63.808 31.8007C63.808 22.6266 49.5812 15.1914 32.0134 15.1914Z" fill="#85878A"/>
<path d="M32.0134 15.2051C14.4592 15.2051 0.21875 22.6402 0.21875 31.8007C0.21875 40.9749 14.4592 48.41 32.0134 48.41C49.5675 48.41 63.808 40.9749 63.808 31.8007C63.808 22.6402 49.5675 15.2051 32.0134 15.2051Z" fill="#86888B"/>
<path d="M32.0114 15.2051C14.4573 15.2051 0.230469 22.6403 0.230469 31.8007C0.230469 40.9749 14.4573 48.3963 32.0114 48.3963C49.5655 48.41 63.806 40.9749 63.806 31.8007C63.806 22.6403 49.5655 15.2051 32.0114 15.2051Z" fill="#87898B"/>
<path d="M32.0114 15.2051C14.4573 15.2051 0.230469 22.6402 0.230469 31.8007C0.230469 40.9749 14.4573 48.41 32.0114 48.41C49.5655 48.41 63.806 40.9749 63.806 31.8007C63.806 22.6402 49.5655 15.2051 32.0114 15.2051Z" fill="#88898C"/>
<path d="M32.0114 15.2051C14.4573 15.2051 0.230469 22.6403 0.230469 31.8144C0.230469 40.9749 14.4573 48.41 32.0114 48.41C49.5655 48.41 63.7923 40.9749 63.7923 31.8144C63.7923 22.6403 49.5655 15.2051 32.0114 15.2051Z" fill="#888A8D"/>
<path d="M32.0133 15.2207C14.4729 15.2207 0.246094 22.6422 0.246094 31.8163C0.246094 40.9768 14.4729 48.412 32.027 48.412C49.5811 48.412 63.8079 40.9768 63.8079 31.8163C63.7942 22.6422 49.5674 15.2207 32.0133 15.2207Z" fill="#898B8E"/>
<path d="M32.0133 15.2207C14.4729 15.2207 0.246094 22.6422 0.246094 31.8163C0.246094 40.9768 14.4729 48.3983 32.0133 48.3983C49.5674 48.3983 63.7942 40.9768 63.7942 31.8163C63.7942 22.6422 49.5674 15.2207 32.0133 15.2207Z" fill="#8A8C8E"/>
<path d="M32.0133 15.2207C14.4729 15.2207 0.246094 22.6422 0.246094 31.8026C0.246094 40.9631 14.4729 48.3846 32.0133 48.3846C49.5538 48.3846 63.7806 40.9631 63.7806 31.8026C63.7942 22.6422 49.5675 15.2207 32.0133 15.2207Z" fill="#8A8C8F"/>
<path d="M32.0133 15.2207C14.4729 15.2207 0.246094 22.6422 0.246094 31.8026C0.246094 40.9631 14.4729 48.3846 32.0133 48.3846C49.5538 48.3846 63.7806 40.9631 63.7806 31.8026C63.7942 22.6559 49.5675 15.2207 32.0133 15.2207Z" fill="#8B8D90"/>
<path d="M32.0133 15.2324C14.4729 15.2324 0.246094 22.6539 0.246094 31.8144C0.246094 40.9748 14.4729 48.3963 32.0133 48.3963C49.5537 48.3963 63.7805 40.9748 63.7805 31.8144C63.7805 22.6539 49.5674 15.2324 32.0133 15.2324Z" fill="#8C8E91"/>
<path d="M32.0113 15.2324C14.4709 15.2324 0.257812 22.6539 0.257812 31.8144C0.257812 40.9611 14.4846 48.3826 32.0113 48.3826C49.5518 48.3826 63.7786 40.9611 63.7786 31.8144C63.7786 22.6539 49.5518 15.2324 32.0113 15.2324Z" fill="#8D8F91"/>
<path d="M32.0113 15.2324C14.4846 15.2324 0.257812 22.6539 0.257812 31.8144C0.257812 40.9611 14.4709 48.3826 32.0113 48.3826C49.5518 48.3826 63.7649 40.9611 63.7649 31.8144C63.7786 22.6539 49.5518 15.2324 32.0113 15.2324Z" fill="#8D8F92"/>
<path d="M32.0133 15.2324C14.4865 15.2324 0.273438 22.6539 0.273438 31.8144C0.273438 40.9611 14.4865 48.3826 32.027 48.3826C49.5674 48.3826 63.7805 40.9611 63.7805 31.8144C63.7805 22.6539 49.5537 15.2324 32.0133 15.2324Z" fill="#8E9093"/>
<path d="M32.0133 15.2461C14.4865 15.2461 0.273438 22.6539 0.273438 31.8143C0.273438 40.9611 14.4865 48.3826 32.027 48.3826C49.5674 48.3826 63.7805 40.9611 63.7805 31.8143C63.7668 22.6539 49.5537 15.2461 32.0133 15.2461Z" fill="#8F9194"/>
<path d="M32.027 15.2461C14.4865 15.2461 0.273438 22.6539 0.273438 31.8143C0.273438 40.9611 14.4865 48.3826 32.0133 48.3826C49.54 48.3826 63.7668 40.9611 63.7668 31.8143C63.7668 22.6539 49.5537 15.2461 32.027 15.2461Z" fill="#909294"/>
<path d="M32.027 15.2461C14.4865 15.2461 0.273438 22.6676 0.273438 31.8143C0.273438 40.9611 14.4865 48.3689 32.0133 48.3689C49.54 48.3689 63.7531 40.9611 63.7531 31.8143C63.7668 22.6676 49.5537 15.2461 32.027 15.2461Z" fill="#909395"/>
<path d="M32.0289 15.2461C14.4885 15.2461 0.289062 22.6676 0.289062 31.8143C0.289062 40.9611 14.5022 48.3689 32.0289 48.3689C49.5556 48.3689 63.7687 40.9611 63.7687 31.8143C63.7687 22.6676 49.5556 15.2461 32.0289 15.2461Z" fill="#919396"/>
<path d="M32.0289 15.2578C14.5022 15.2578 0.289062 22.6656 0.289062 31.8124C0.289062 40.9591 14.5022 48.3669 32.0289 48.3669C49.5556 48.3669 63.7687 40.9591 63.7687 31.8124C63.7687 22.6656 49.5556 15.2578 32.0289 15.2578Z" fill="#929497"/>
<path d="M32.0289 15.2578C14.5022 15.2578 0.289062 22.6656 0.289062 31.8124C0.289062 40.9454 14.5022 48.3669 32.0152 48.3669C49.542 48.3669 63.755 40.9591 63.755 31.8124C63.755 22.6656 49.542 15.2578 32.0289 15.2578Z" fill="#939597"/>
<path d="M32.0289 15.2578C14.5022 15.2578 0.289062 22.6656 0.289062 31.8124C0.289062 40.9454 14.4885 48.3532 32.0152 48.3532C49.5419 48.3532 63.7413 40.9454 63.7413 31.8124C63.755 22.6656 49.5419 15.2578 32.0289 15.2578Z" fill="#939698"/>
<path d="M32.0269 15.2578C14.5002 15.2578 0.300781 22.6656 0.300781 31.8124C0.300781 40.9454 14.5002 48.3532 32.0269 48.3532C49.5537 48.3532 63.7531 40.9454 63.7531 31.8124C63.7531 22.6656 49.54 15.2578 32.0269 15.2578Z" fill="#949699"/>
<path d="M32.0269 15.2734C14.5002 15.2734 0.300781 22.6675 0.300781 31.8143C0.300781 40.9474 14.5002 48.3552 32.0269 48.3552C49.54 48.3552 63.7531 40.9474 63.7531 31.8143C63.7531 22.6675 49.54 15.2734 32.0269 15.2734Z" fill="#95979A"/>
<path d="M32.0269 15.2734C14.5002 15.2734 0.300781 22.6812 0.300781 31.8143C0.300781 40.9474 14.5002 48.3552 32.0132 48.3552C49.5263 48.3552 63.7394 40.9474 63.7394 31.8143C63.7394 22.6812 49.54 15.2734 32.0269 15.2734Z" fill="#96989A"/>
<path d="M32.0289 15.2734C14.5158 15.2734 0.316406 22.6812 0.316406 31.8143C0.316406 40.9474 14.5158 48.3415 32.0289 48.3415C49.5419 48.3415 63.7413 40.9337 63.7413 31.8143C63.7413 22.6812 49.5419 15.2734 32.0289 15.2734Z" fill="#97999B"/>
<path d="M32.0289 15.2734C14.5158 15.2734 0.316406 22.6812 0.316406 31.8143C0.316406 40.9474 14.5158 48.3415 32.0289 48.3415C49.5419 48.3415 63.7413 40.9337 63.7413 31.8143C63.7413 22.6812 49.5419 15.2734 32.0289 15.2734Z" fill="#97999C"/>
<path d="M32.0289 15.2871C14.5158 15.2871 0.316406 22.6812 0.316406 31.8143C0.316406 40.9337 14.5158 48.3415 32.0289 48.3415C49.5419 48.3415 63.7413 40.9474 63.7413 31.8143C63.7413 22.6812 49.5419 15.2871 32.0289 15.2871Z" fill="#989A9D"/>
<path d="M32.0289 15.2871C14.5158 15.2871 0.316406 22.6812 0.316406 31.8143C0.316406 40.9337 14.5158 48.3415 32.0152 48.3415C49.5282 48.3415 63.7276 40.9474 63.7276 31.8143C63.7276 22.6812 49.5419 15.2871 32.0289 15.2871Z" fill="#999B9E"/>
<path d="M32.0269 15.2871C14.5138 15.2871 0.328125 22.6812 0.328125 31.8143C0.328125 40.9337 14.5275 48.3278 32.0269 48.3278C49.5399 48.3278 63.7256 40.9337 63.7256 31.8143C63.7256 22.6812 49.5262 15.2871 32.0269 15.2871Z" fill="#9A9C9E"/>
<path d="M32.0269 15.2871C14.5138 15.2871 0.328125 22.6812 0.328125 31.8143C0.328125 40.9337 14.5138 48.3278 32.0269 48.3278C49.5262 48.3278 63.7256 40.9337 63.7256 31.8143C63.7256 22.6812 49.5262 15.2871 32.0269 15.2871Z" fill="#9A9C9F"/>
<path d="M32.0269 15.3008C14.5275 15.3008 0.328125 22.6949 0.328125 31.8143C0.328125 40.9336 14.5138 48.3277 32.0269 48.3277C49.5262 48.3277 63.7256 40.9336 63.7256 31.8143C63.7256 22.6949 49.5262 15.3008 32.0269 15.3008Z" fill="#9B9DA0"/>
<path d="M32.0288 15.3008C14.5295 15.3008 0.34375 22.6949 0.34375 31.8143C0.34375 40.9336 14.5295 48.3277 32.0288 48.3277C49.5282 48.3277 63.7276 40.9336 63.7276 31.8143C63.7276 22.6949 49.5282 15.3008 32.0288 15.3008Z" fill="#9C9EA1"/>
<path d="M32.0288 15.3008C14.5295 15.3008 0.34375 22.6949 0.34375 31.8143C0.34375 40.9336 14.5295 48.314 32.0288 48.314C49.5282 48.314 63.7139 40.92 63.7139 31.8143C63.7139 22.6949 49.5282 15.3008 32.0288 15.3008Z" fill="#9D9FA1"/>
<path d="M32.0288 15.3008C14.5295 15.3008 0.34375 22.6949 0.34375 31.8143C0.34375 40.9336 14.5295 48.314 32.0288 48.314C49.5282 48.314 63.7139 40.92 63.7139 31.8143C63.7139 22.6949 49.5282 15.3008 32.0288 15.3008Z" fill="#9DA0A2"/>
<path d="M32.0288 15.3125C14.5295 15.3125 0.34375 22.6929 0.34375 31.8123C0.34375 40.918 14.5295 48.3121 32.0288 48.3121C49.5282 48.3121 63.7139 40.918 63.7139 31.8123C63.7139 22.6929 49.5282 15.3125 32.0288 15.3125Z" fill="#9EA0A3"/>
<path d="M32.0307 15.3125C14.5314 15.3125 0.359375 22.6929 0.359375 31.8123C0.359375 40.918 14.5451 48.3121 32.0307 48.3121C49.5301 48.3121 63.7158 40.9317 63.7158 31.8123C63.7158 22.6929 49.5301 15.3125 32.0307 15.3125Z" fill="#9FA1A4"/>
<path d="M32.0307 15.3125C14.5451 15.3125 0.359375 22.6929 0.359375 31.8123C0.359375 40.918 14.5451 48.3121 32.0307 48.3121C49.5301 48.3121 63.7021 40.9317 63.7021 31.8123C63.7021 22.6929 49.5301 15.3125 32.0307 15.3125Z" fill="#A0A2A4"/>
<path d="M32.0307 15.3125C14.5451 15.3125 0.359375 22.7066 0.359375 31.8123C0.359375 40.918 14.5451 48.2984 32.0307 48.2984C49.5164 48.2984 63.7021 40.918 63.7021 31.8123C63.7021 22.7066 49.5164 15.3125 32.0307 15.3125Z" fill="#A1A3A5"/>
<path d="M32.0307 15.3281C14.5451 15.3281 0.359375 22.7085 0.359375 31.8142C0.359375 40.9199 14.5314 48.3003 32.0307 48.3003C49.5164 48.3003 63.7021 40.9199 63.7021 31.8142C63.7021 22.7085 49.5164 15.3281 32.0307 15.3281Z" fill="#A1A3A6"/>
<path d="M32.0288 15.3281C14.5431 15.3281 0.371094 22.7085 0.371094 31.8142C0.371094 40.9199 14.5431 48.3003 32.0288 48.3003C49.5144 48.3003 63.7002 40.9199 63.7002 31.8142C63.7002 22.7085 49.5144 15.3281 32.0288 15.3281Z" fill="#A2A4A7"/>
<path d="M32.0288 15.3281C14.5431 15.3281 0.371094 22.7085 0.371094 31.8142C0.371094 40.9199 14.5431 48.3003 32.0288 48.3003C49.5144 48.3003 63.6865 40.9199 63.6865 31.8142C63.6865 22.7085 49.5144 15.3281 32.0288 15.3281Z" fill="#A3A5A8"/>
<path d="M32.0288 15.3281C14.5431 15.3281 0.371094 22.7085 0.371094 31.8142C0.371094 40.9199 14.5431 48.2866 32.0288 48.2866C49.5144 48.2866 63.6865 40.9062 63.6865 31.8142C63.6865 22.7085 49.5144 15.3281 32.0288 15.3281Z" fill="#A4A6A8"/>
<path d="M32.0268 15.3438C14.5548 15.3438 0.382812 22.7105 0.382812 31.8162C0.382812 40.9082 14.5548 48.2886 32.0405 48.2886C49.5261 48.2886 63.6982 40.9082 63.6982 31.8162C63.6845 22.7105 49.5125 15.3438 32.0268 15.3438Z" fill="#A4A7A9"/>
<path d="M32.0268 15.3438C14.5548 15.3438 0.382812 22.7105 0.382812 31.8162C0.382812 40.9082 14.5548 48.2886 32.0268 48.2886C49.5125 48.2886 63.6845 40.9082 63.6845 31.8162C63.6845 22.7105 49.5125 15.3438 32.0268 15.3438Z" fill="#A5A7AA"/>
<path d="M32.0268 15.3438C14.5548 15.3438 0.382812 22.7242 0.382812 31.8162C0.382812 40.9082 14.5548 48.2749 32.0268 48.2749C49.4988 48.2749 63.6708 40.9081 63.6708 31.8025C63.6845 22.7242 49.5125 15.3438 32.0268 15.3438Z" fill="#A6A8AB"/>
<path d="M32.0268 15.3438C14.5548 15.3438 0.382812 22.7242 0.382812 31.8162C0.382812 40.9082 14.5548 48.2749 32.0268 48.2749C49.5125 48.2749 63.6708 40.9082 63.6708 31.8162C63.6708 22.7242 49.5125 15.3438 32.0268 15.3438Z" fill="#A7A9AC"/>
<path d="M32.0248 15.3555C14.5529 15.3555 0.394531 22.7222 0.394531 31.8142C0.394531 40.9062 14.5529 48.2729 32.0248 48.2729C49.4968 48.2729 63.6688 40.9062 63.6688 31.8142C63.6688 22.7222 49.4968 15.3555 32.0248 15.3555Z" fill="#A8AAAC"/>
<path d="M32.0248 15.3555C14.5529 15.3555 0.394531 22.7222 0.394531 31.8142C0.394531 40.9062 14.5529 48.2729 32.0248 48.2729C49.4968 48.2729 63.6688 40.9062 63.6688 31.8142C63.6688 22.7222 49.4968 15.3555 32.0248 15.3555Z" fill="#A8ABAD"/>
<path d="M32.0248 15.3555C14.5529 15.3555 0.394531 22.7222 0.394531 31.8142C0.394531 40.9062 14.5529 48.2729 32.0248 48.2729C49.4968 48.2729 63.6551 40.9062 63.6551 31.8142C63.6688 22.7222 49.4968 15.3555 32.0248 15.3555Z" fill="#A9ABAE"/>
<path d="M32.0268 15.3555C14.5685 15.3555 0.410156 22.7222 0.410156 31.8142C0.410156 40.8925 14.5685 48.2592 32.0405 48.2592C49.5124 48.2592 63.6707 40.8925 63.6707 31.8142C63.6571 22.7222 49.4987 15.3555 32.0268 15.3555Z" fill="#AAACAF"/>
<path d="M32.0268 15.3691C14.5685 15.3691 0.410156 22.7222 0.410156 31.8142C0.410156 40.8925 14.5685 48.2592 32.0405 48.2592C49.5124 48.2592 63.6707 40.8925 63.6707 31.8142C63.6571 22.7222 49.4987 15.3691 32.0268 15.3691Z" fill="#ABADAF"/>
<path d="M32.0268 15.3691C14.5685 15.3691 0.410156 22.7358 0.410156 31.8142C0.410156 40.8925 14.5685 48.2592 32.0268 48.2592C49.485 48.2592 63.6571 40.8925 63.6571 31.8142C63.6571 22.7358 49.4987 15.3691 32.0268 15.3691Z" fill="#ACAEB0"/>
<path d="M32.0268 15.3691C14.5685 15.3691 0.410156 22.7358 0.410156 31.8142C0.410156 40.8925 14.5685 48.2592 32.0268 48.2592C49.485 48.2592 63.6434 40.8925 63.6434 31.8142C63.6571 22.7358 49.4987 15.3691 32.0268 15.3691Z" fill="#ACAFB1"/>
<path d="M32.0287 15.3691C14.5704 15.3691 0.425781 22.7359 0.425781 31.8142C0.425781 40.8925 14.5841 48.2455 32.0424 48.2455C49.5007 48.2455 63.659 40.8788 63.659 31.8142C63.6453 22.7359 49.5007 15.3691 32.0287 15.3691Z" fill="#ADAFB2"/>
<path d="M32.0424 15.3828C14.5841 15.3828 0.425781 22.7358 0.425781 31.8141C0.425781 40.8924 14.5841 48.2455 32.0424 48.2455C49.5007 48.2455 63.659 40.8924 63.659 31.8141C63.6453 22.7358 49.487 15.3828 32.0424 15.3828Z" fill="#AEB0B3"/>
<path d="M32.0424 15.3828C14.5841 15.3828 0.425781 22.7358 0.425781 31.8141C0.425781 40.8924 14.5841 48.2455 32.0287 48.2455C49.487 48.2455 63.6453 40.8924 63.6453 31.8141C63.6453 22.7358 49.487 15.3828 32.0424 15.3828Z" fill="#AFB1B3"/>
<path d="M32.0404 15.3828C14.5821 15.3828 0.4375 22.7358 0.4375 31.8141C0.4375 40.8924 14.5821 48.2455 32.0404 48.2455C49.4987 48.2455 63.6433 40.8924 63.6433 31.8141C63.6433 22.7358 49.485 15.3828 32.0404 15.3828Z" fill="#B0B2B4"/>
<path d="M32.0404 15.3828C14.5821 15.3828 0.4375 22.7358 0.4375 31.8141C0.4375 40.8787 14.5821 48.2455 32.0404 48.2455C49.4987 48.2455 63.6433 40.8924 63.6433 31.8141C63.6433 22.7358 49.485 15.3828 32.0404 15.3828Z" fill="#B1B3B5"/>
<path d="M32.0404 15.3965C14.5821 15.3965 0.4375 22.7495 0.4375 31.8141C0.4375 40.8787 14.5821 48.2317 32.0404 48.2317C49.485 48.2317 63.6433 40.8787 63.6433 31.8141C63.6296 22.7495 49.485 15.3965 32.0404 15.3965Z" fill="#B1B3B6"/>
<path d="M32.0404 15.3965C14.5821 15.3965 0.4375 22.7495 0.4375 31.8141C0.4375 40.8787 14.5821 48.2317 32.0404 48.2317C49.485 48.2317 63.6296 40.8787 63.6296 31.8141C63.6296 22.7495 49.485 15.3965 32.0404 15.3965Z" fill="#B2B4B7"/>
<path d="M32.0423 15.3965C14.5978 15.3965 0.453125 22.7495 0.453125 31.8141C0.453125 40.8787 14.5978 48.2317 32.0423 48.2317C49.4869 48.2317 63.6316 40.8787 63.6316 31.8141C63.6316 22.7495 49.4869 15.3965 32.0423 15.3965Z" fill="#B3B5B7"/>
<path d="M32.0423 15.3965C14.5978 15.3965 0.453125 22.7495 0.453125 31.8141C0.453125 40.8787 14.5978 48.2317 32.0423 48.2317C49.4869 48.2317 63.6316 40.8787 63.6316 31.8141C63.6316 22.7495 49.4869 15.3965 32.0423 15.3965Z" fill="#B4B6B8"/>
<path d="M32.0423 15.4121C14.5978 15.4121 0.453125 22.7514 0.453125 31.816C0.453125 40.8807 14.5978 48.22 32.0423 48.22C49.4869 48.22 63.6316 40.867 63.6316 31.816C63.6179 22.7514 49.4869 15.4121 32.0423 15.4121Z" fill="#B5B7B9"/>
<path d="M32.0423 15.4121C14.5978 15.4121 0.453125 22.7514 0.453125 31.816C0.453125 40.8807 14.5978 48.22 32.0423 48.22C49.4869 48.22 63.6179 40.8807 63.6179 31.816C63.6179 22.7514 49.4732 15.4121 32.0423 15.4121Z" fill="#B5B7BA"/>
<path d="M32.0404 15.4121C14.5958 15.4121 0.464844 22.7514 0.464844 31.816C0.464844 40.8807 14.5958 48.22 32.0404 48.22C49.485 48.22 63.6159 40.8807 63.6159 31.816C63.6159 22.7514 49.4713 15.4121 32.0404 15.4121Z" fill="#B6B8BB"/>
<path d="M32.0404 15.4121C14.5958 15.4121 0.464844 22.7651 0.464844 31.816C0.464844 40.867 14.5958 48.22 32.0404 48.22C49.4713 48.22 63.6159 40.8807 63.6159 31.816C63.6159 22.7651 49.4713 15.4121 32.0404 15.4121Z" fill="#B7B9BB"/>
<path d="M32.0404 15.4238C14.6095 15.4238 0.464844 22.7632 0.464844 31.8141C0.464844 40.865 14.5958 48.2043 32.0404 48.2043C49.4713 48.2043 63.6159 40.865 63.6159 31.8141C63.6159 22.7632 49.4713 15.4238 32.0404 15.4238Z" fill="#B8BABC"/>
<path d="M32.0423 15.4238C14.6114 15.4238 0.480469 22.7632 0.480469 31.8141C0.480469 40.865 14.6114 48.2043 32.0423 48.2043C49.4732 48.2043 63.6041 40.865 63.6041 31.8141C63.6041 22.7632 49.4732 15.4238 32.0423 15.4238Z" fill="#B9BBBD"/>
<path d="M32.0423 15.4238C14.6114 15.4238 0.480469 22.7632 0.480469 31.8141C0.480469 40.865 14.6114 48.2043 32.0423 48.2043C49.4732 48.2043 63.6041 40.865 63.6041 31.8141C63.6041 22.7632 49.4732 15.4238 32.0423 15.4238Z" fill="#BABBBE"/>
<path d="M32.0423 15.4238C14.6114 15.4238 0.480469 22.7632 0.480469 31.8141C0.480469 40.865 14.6114 48.2043 32.0423 48.2043C49.4732 48.2043 63.6041 40.865 63.6041 31.8141C63.6041 22.7632 49.4732 15.4238 32.0423 15.4238Z" fill="#BABCBF"/>
<path d="M32.0423 15.4355C14.6114 15.4355 0.480469 22.7612 0.480469 31.8121C0.480469 40.863 14.6114 48.1887 32.0286 48.1887C49.4595 48.1887 63.5904 40.8493 63.5904 31.8121C63.6041 22.7612 49.4732 15.4355 32.0423 15.4355Z" fill="#BBBDBF"/>
<path d="M32.0442 15.4355C14.6133 15.4355 0.496094 22.7612 0.496094 31.8121C0.496094 40.863 14.627 48.1887 32.0442 48.1887C49.4751 48.1887 63.5924 40.8493 63.5924 31.8121C63.5924 22.7612 49.4751 15.4355 32.0442 15.4355Z" fill="#BCBEC0"/>
<path d="M32.0442 15.4355C14.627 15.4355 0.496094 22.7749 0.496094 31.8121C0.496094 40.8493 14.627 48.1887 32.0442 48.1887C49.4614 48.1887 63.5924 40.8493 63.5924 31.8121C63.5924 22.7749 49.4614 15.4355 32.0442 15.4355Z" fill="#BDBFC1"/>
<path d="M32.0442 15.4355C14.627 15.4355 0.496094 22.7749 0.496094 31.8121C0.496094 40.8493 14.6133 48.1887 32.0442 48.1887C49.4614 48.1887 63.5924 40.863 63.5924 31.8121C63.5924 22.7749 49.4614 15.4355 32.0442 15.4355Z" fill="#BEC0C2"/>
<path d="M32.0423 15.4512C14.6251 15.4512 0.507812 22.7768 0.507812 31.814C0.507812 40.8513 14.6251 48.1769 32.0423 48.1769C49.4595 48.1769 63.5904 40.8513 63.5904 31.814C63.5904 22.7768 49.4595 15.4512 32.0423 15.4512Z" fill="#BFC0C3"/>
<path d="M32.0423 15.4512C14.6251 15.4512 0.507812 22.7768 0.507812 31.814C0.507812 40.8513 14.6251 48.1769 32.0423 48.1769C49.4595 48.1769 63.5767 40.8513 63.5767 31.814C63.5767 22.7768 49.4595 15.4512 32.0423 15.4512Z" fill="#BFC1C3"/>
<path d="M32.0423 15.4512C14.6251 15.4512 0.507812 22.7768 0.507812 31.814C0.507812 40.8513 14.6251 48.1769 32.0423 48.1769C49.4595 48.1769 63.5767 40.8513 63.5767 31.814C63.5767 22.7768 49.4595 15.4512 32.0423 15.4512Z" fill="#C0C2C4"/>
<path d="M32.0423 15.4512C14.6251 15.4512 0.507812 22.7768 0.507812 31.814C0.507812 40.8513 14.6251 48.1769 32.0423 48.1769C49.4595 48.1769 63.5767 40.8513 63.5767 31.814C63.5767 22.7768 49.4595 15.4512 32.0423 15.4512Z" fill="#C1C3C5"/>
<path d="M32.0403 15.4648C14.6368 15.4648 0.519531 22.7768 0.519531 31.814C0.519531 40.8512 14.6368 48.1769 32.0403 48.1769C49.4575 48.1769 63.5747 40.8512 63.5747 31.814C63.5747 22.7768 49.4575 15.4648 32.0403 15.4648Z" fill="#C2C4C6"/>
<path d="M32.0403 15.4648C14.6368 15.4648 0.519531 22.7905 0.519531 31.814C0.519531 40.8375 14.6368 48.1632 32.0403 48.1632C49.4438 48.1632 63.561 40.8375 63.561 31.814C63.5747 22.7905 49.4575 15.4648 32.0403 15.4648Z" fill="#C3C4C7"/>
<path d="M32.0403 15.4648C14.6368 15.4648 0.519531 22.7905 0.519531 31.814C0.519531 40.8375 14.6368 48.1632 32.0403 48.1632C49.4438 48.1632 63.561 40.8375 63.561 31.814C63.561 22.7905 49.4438 15.4648 32.0403 15.4648Z" fill="#C4C5C7"/>
<path d="M32.0403 15.4648C14.6368 15.4648 0.519531 22.7905 0.519531 31.814C0.519531 40.8375 14.6368 48.1632 32.0403 48.1632C49.4438 48.1632 63.561 40.8375 63.561 31.814C63.561 22.7905 49.4438 15.4648 32.0403 15.4648Z" fill="#C4C6C8"/>
<path d="M32.0383 15.4785C14.6348 15.4785 0.53125 22.7905 0.53125 31.814C0.53125 40.8375 14.6348 48.1632 32.0383 48.1632C49.4418 48.1632 63.5591 40.8512 63.5591 31.814C63.5591 22.7905 49.4418 15.4785 32.0383 15.4785Z" fill="#C5C7C9"/>
<path d="M32.0383 15.4785C14.6348 15.4785 0.53125 22.7905 0.53125 31.814C0.53125 40.8375 14.6348 48.1495 32.0383 48.1495C49.4418 48.1495 63.5454 40.8375 63.5454 31.814C63.5591 22.7905 49.4418 15.4785 32.0383 15.4785Z" fill="#C6C8CA"/>
<path d="M32.0383 15.4785C14.6485 15.4785 0.53125 22.7905 0.53125 31.814C0.53125 40.8375 14.6348 48.1495 32.0383 48.1495C49.4418 48.1495 63.5454 40.8375 63.5454 31.814C63.5454 22.7905 49.4418 15.4785 32.0383 15.4785Z" fill="#C7C9CB"/>
<path d="M32.0363 15.4785C14.6465 15.4785 0.542969 22.7905 0.542969 31.814C0.542969 40.8375 14.6465 48.1495 32.0363 48.1495C49.4398 48.1495 63.5434 40.8375 63.5434 31.814C63.5434 22.7905 49.4398 15.4785 32.0363 15.4785Z" fill="#C8C9CB"/>
<path d="M32.0363 15.4922C14.6465 15.4922 0.542969 22.7904 0.542969 31.814C0.542969 40.8375 14.6465 48.1494 32.0363 48.1494C49.4262 48.1494 63.5434 40.8375 63.5434 31.814C63.5434 22.7904 49.4398 15.4922 32.0363 15.4922Z" fill="#C9CACC"/>
<path d="M32.0363 15.4922C14.6465 15.4922 0.542969 22.8041 0.542969 31.814C0.542969 40.8238 14.6465 48.1357 32.0363 48.1357C49.4262 48.1357 63.5297 40.8238 63.5297 31.814C63.5434 22.8041 49.4398 15.4922 32.0363 15.4922Z" fill="#C9CBCD"/>
<path d="M32.0363 15.4922C14.6465 15.4922 0.542969 22.8041 0.542969 31.814C0.542969 40.8375 14.6465 48.1357 32.0363 48.1357C49.4262 48.1357 63.5297 40.8238 63.5297 31.814C63.5434 22.8041 49.4398 15.4922 32.0363 15.4922Z" fill="#CACCCE"/>
<path d="M32.0383 15.4922C14.6485 15.4922 0.558594 22.8041 0.558594 31.814C0.558594 40.8238 14.6485 48.1357 32.0383 48.1357C49.4281 48.1357 63.5316 40.8238 63.5316 31.814C63.5316 22.8041 49.4281 15.4922 32.0383 15.4922Z" fill="#CBCDCE"/>
<path d="M32.0383 15.5059C14.6621 15.5059 0.558594 22.8041 0.558594 31.8139C0.558594 40.8238 14.6621 48.1357 32.0383 48.1357C49.4281 48.1357 63.5316 40.8238 63.5316 31.8139C63.5316 22.8041 49.4281 15.5059 32.0383 15.5059Z" fill="#CCCDCF"/>
<path d="M32.0383 15.5059C14.6621 15.5059 0.558594 22.8041 0.558594 31.8139C0.558594 40.8238 14.6621 48.1357 32.0383 48.1357C49.4281 48.1357 63.5316 40.8238 63.5316 31.8139C63.5316 22.8041 49.4281 15.5059 32.0383 15.5059Z" fill="#CDCED0"/>
<path d="M32.0402 15.5059C14.6641 15.5059 0.574219 22.8041 0.574219 31.8139C0.574219 40.8238 14.6641 48.122 32.0539 48.122C49.4437 48.122 63.5336 40.8238 63.5336 31.8139C63.5336 22.8041 49.43 15.5059 32.0402 15.5059Z" fill="#CECFD1"/>
<path d="M32.0402 15.5059C14.6641 15.5059 0.574219 22.8041 0.574219 31.8139C0.574219 40.8238 14.6641 48.122 32.0539 48.122C49.4437 48.122 63.5336 40.8238 63.5336 31.8139C63.5199 22.8041 49.43 15.5059 32.0402 15.5059Z" fill="#CED0D2"/>
<path d="M32.0539 15.5195C14.6641 15.5195 0.574219 22.8178 0.574219 31.8139C0.574219 40.8238 14.6641 48.122 32.0402 48.122C49.4163 48.122 63.5199 40.8238 63.5199 31.8139C63.5199 22.8178 49.43 15.5195 32.0539 15.5195Z" fill="#CFD1D2"/>
<path d="M32.0539 15.5195C14.6641 15.5195 0.574219 22.8178 0.574219 31.8139C0.574219 40.8101 14.6641 48.1083 32.0402 48.1083C49.4163 48.1083 63.5062 40.8101 63.5062 31.8139C63.5199 22.8178 49.43 15.5195 32.0539 15.5195Z" fill="#D0D1D3"/>
<path d="M32.0558 15.5195C14.6797 15.5195 0.589844 22.8178 0.589844 31.8139C0.589844 40.8101 14.6797 48.1083 32.0558 48.1083C49.4319 48.1083 63.5218 40.8101 63.5218 31.8139C63.5218 22.8178 49.4319 15.5195 32.0558 15.5195Z" fill="#D1D2D4"/>
<path d="M32.0558 15.5195C14.6797 15.5195 0.589844 22.8178 0.589844 31.8139C0.589844 40.8101 14.6797 48.1083 32.0558 48.1083C49.4319 48.1083 63.5218 40.8101 63.5218 31.8139C63.5081 22.8178 49.4319 15.5195 32.0558 15.5195Z" fill="#D2D3D5"/>
<path d="M32.0558 15.5332C14.6797 15.5332 0.589844 22.8178 0.589844 31.8139C0.589844 40.8101 14.6797 48.1083 32.0421 48.1083C49.4183 48.1083 63.5081 40.8101 63.5081 31.8139C63.5081 22.8178 49.4183 15.5332 32.0558 15.5332Z" fill="#D2D4D6"/>
<path d="M32.0539 15.5332C14.6777 15.5332 0.601562 22.8178 0.601562 31.8139C0.601562 40.8101 14.6914 48.0946 32.0539 48.0946C49.43 48.0946 63.5061 40.7964 63.5061 31.8139C63.5061 22.8178 49.4163 15.5332 32.0539 15.5332Z" fill="#D3D5D6"/>
<path d="M32.0539 15.5332C14.6777 15.5332 0.601562 22.8178 0.601562 31.8139C0.601562 40.8101 14.6777 48.0946 32.0539 48.0946C49.43 48.0946 63.5061 40.7964 63.5061 31.8139C63.5061 22.8178 49.4163 15.5332 32.0539 15.5332Z" fill="#D4D6D7"/>
<path d="M32.0539 15.5332C14.6777 15.5332 0.601562 22.8314 0.601562 31.8139C0.601562 40.8101 14.6777 48.0946 32.0539 48.0946C49.4163 48.0946 63.5061 40.8101 63.5061 31.8139C63.5061 22.8314 49.4163 15.5332 32.0539 15.5332Z" fill="#D5D6D8"/>
<path d="M32.0539 15.5488C14.6914 15.5488 0.601562 22.8334 0.601562 31.8158C0.601562 40.7983 14.6777 48.0965 32.0402 48.0965C49.4026 48.0965 63.4924 40.812 63.4924 31.8158C63.4924 22.8334 49.4163 15.5488 32.0539 15.5488Z" fill="#D6D7D9"/>
<path d="M32.0558 15.5488C14.6934 15.5488 0.617188 22.8334 0.617188 31.8158C0.617188 40.7983 14.6934 48.0965 32.0558 48.0965C49.4182 48.0965 63.4944 40.812 63.4944 31.8158C63.4944 22.8334 49.4182 15.5488 32.0558 15.5488Z" fill="#D7D8D9"/>
<path d="M32.0558 15.5488C14.6934 15.5488 0.617188 22.8334 0.617188 31.8158C0.617188 40.7983 14.6934 48.0828 32.0558 48.0828C49.4182 48.0828 63.4944 40.7983 63.4944 31.8158C63.4944 22.8334 49.4182 15.5488 32.0558 15.5488Z" fill="#D7D9DA"/>
<path d="M32.0558 15.5488C14.6934 15.5488 0.617188 22.8334 0.617188 31.8158C0.617188 40.7983 14.6934 48.0828 32.0558 48.0828C49.4182 48.0828 63.4944 40.7983 63.4944 31.8158C63.4944 22.8334 49.4182 15.5488 32.0558 15.5488Z" fill="#D8DADB"/>
<path d="M32.0558 15.5605C14.6934 15.5605 0.617188 22.8314 0.617188 31.8139C0.617188 40.7963 14.6934 48.0809 32.0421 48.0809C49.4045 48.0809 63.4807 40.7963 63.4807 31.8139C63.4807 22.8314 49.4182 15.5605 32.0558 15.5605Z" fill="#D9DADC"/>
<path d="M32.0538 15.5605C14.6914 15.5605 0.628906 22.8314 0.628906 31.8139C0.628906 40.7963 14.7051 48.0809 32.0538 48.0809C49.4162 48.0809 63.4787 40.7963 63.4787 31.8139C63.4787 22.8314 49.4025 15.5605 32.0538 15.5605Z" fill="#DADBDD"/>
<path d="M32.0538 15.5605C14.7051 15.5605 0.628906 22.8451 0.628906 31.8139C0.628906 40.7963 14.7051 48.0672 32.0538 48.0672C49.4025 48.0672 63.4787 40.7826 63.4787 31.8139C63.4787 22.8451 49.4025 15.5605 32.0538 15.5605Z" fill="#DBDCDD"/>
<path d="M32.0538 15.5605C14.7051 15.5605 0.628906 22.8451 0.628906 31.8139C0.628906 40.7963 14.6914 48.0672 32.0538 48.0672C49.4025 48.0672 63.4787 40.7826 63.4787 31.8139C63.4787 22.8451 49.4025 15.5605 32.0538 15.5605Z" fill="#DCDDDE"/>
<path d="M32.0518 15.5762C14.7031 15.5762 0.640625 22.847 0.640625 31.8158C0.640625 40.7846 14.7031 48.0691 32.0518 48.0691C49.4006 48.0691 63.4767 40.7983 63.4767 31.8158C63.463 22.847 49.4006 15.5762 32.0518 15.5762Z" fill="#DCDEDF"/>
<path d="M32.0518 15.5762C14.7031 15.5762 0.640625 22.847 0.640625 31.8158C0.640625 40.7846 14.7031 48.0691 32.0518 48.0691C49.4006 48.0691 63.463 40.7983 63.463 31.8158C63.463 22.847 49.4006 15.5762 32.0518 15.5762Z" fill="#DDDEE0"/>
<path d="M32.0518 15.5762C14.7031 15.5762 0.640625 22.847 0.640625 31.8158C0.640625 40.7846 14.7031 48.0554 32.0518 48.0554C49.4006 48.0554 63.463 40.7846 63.463 31.8158C63.463 22.847 49.4006 15.5762 32.0518 15.5762Z" fill="#DEDFE0"/>
<path d="M32.0518 15.5762C14.7031 15.5762 0.640625 22.847 0.640625 31.8158C0.640625 40.7846 14.7031 48.0554 32.0518 48.0554C49.4006 48.0554 63.463 40.7846 63.463 31.8158C63.463 22.847 49.4006 15.5762 32.0518 15.5762Z" fill="#DFE0E1"/>
<path d="M32.0538 15.5879C14.7187 15.5879 0.65625 22.8451 0.65625 31.8138C0.65625 40.7826 14.7187 48.0534 32.0538 48.0534C49.4025 48.0534 63.465 40.7826 63.465 31.8138C63.465 22.8451 49.4025 15.5879 32.0538 15.5879Z" fill="#E0E1E2"/>
<path d="M32.0538 15.5879C14.7187 15.5879 0.65625 22.8588 0.65625 31.8138C0.65625 40.7826 14.7187 48.0534 32.0538 48.0534C49.3888 48.0534 63.4513 40.7826 63.4513 31.8138C63.4513 22.8588 49.3888 15.5879 32.0538 15.5879Z" fill="#E0E2E3"/>
<path d="M32.0538 15.5879C14.7187 15.5879 0.65625 22.8588 0.65625 31.8138C0.65625 40.7826 14.7187 48.0398 32.0538 48.0398C49.3888 48.0398 63.4513 40.7689 63.4513 31.8138C63.4513 22.8588 49.3888 15.5879 32.0538 15.5879Z" fill="#E1E2E3"/>
<path d="M32.0518 15.5879C14.7168 15.5879 0.667969 22.8588 0.667969 31.8275C0.667969 40.7826 14.7168 48.0534 32.0655 48.0534C49.4005 48.0534 63.463 40.7826 63.463 31.8275C63.4493 22.8588 49.3868 15.5879 32.0518 15.5879Z" fill="#E2E3E4"/>
<path d="M32.0518 15.5996C14.7168 15.5996 0.667969 22.8568 0.667969 31.8255C0.667969 40.7806 14.7168 48.0515 32.0518 48.0515C49.3868 48.0515 63.4493 40.7806 63.4493 31.8255C63.4493 22.8568 49.3868 15.5996 32.0518 15.5996Z" fill="#E3E4E5"/>
<path d="M32.0518 15.5996C14.7168 15.5996 0.667969 22.8568 0.667969 31.8255C0.667969 40.7806 14.7168 48.0515 32.0518 48.0515C49.3868 48.0515 63.4356 40.7806 63.4356 31.8255C63.4356 22.8568 49.3868 15.5996 32.0518 15.5996Z" fill="#E4E5E6"/>
<path d="M32.0518 15.5996C14.7304 15.5996 0.667969 22.8568 0.667969 31.8255C0.667969 40.7806 14.7168 48.0378 32.0518 48.0378C49.3868 48.0378 63.4356 40.7806 63.4356 31.8255C63.4356 22.8568 49.3868 15.5996 32.0518 15.5996Z" fill="#E5E6E7"/>
<path d="M32.0537 15.5996C14.7324 15.5996 0.683594 22.8568 0.683594 31.8255C0.683594 40.7806 14.7324 48.0378 32.0674 48.0378C49.4025 48.0378 63.4512 40.7806 63.4512 31.8255C63.4375 22.8568 49.3888 15.5996 32.0537 15.5996Z" fill="#E5E6E7"/>
<path d="M32.0537 15.6152C14.7324 15.6152 0.683594 22.8724 0.683594 31.8275C0.683594 40.7825 14.7324 48.0397 32.0537 48.0397C49.3751 48.0397 63.4376 40.7825 63.4376 31.8275C63.4376 22.8724 49.3888 15.6152 32.0537 15.6152Z" fill="#E6E7E8"/>
<path d="M31.9981 16.3281C15.019 16.3281 1.25781 23.2567 1.25781 31.801C1.25781 40.3452 15.019 47.2738 31.9981 47.2738C48.9771 47.2738 62.7383 40.3452 62.7383 31.801C62.7383 23.2567 48.9771 16.3281 31.9981 16.3281Z" fill="url(#paint0_linear_11140_11093)"/>
<path d="M32.001 18.1758C16.09 18.1758 3.19141 24.3375 3.19141 31.937C3.19141 39.5365 16.09 45.6982 32.001 45.6982C47.912 45.6982 60.8106 39.5365 60.8106 31.937C60.8106 24.3375 47.912 18.1758 32.001 18.1758Z" stroke="#004E24" stroke-width="0.396296"/>
<path d="M31.9983 17.3672C15.6628 17.3672 2.42188 23.8439 2.42188 31.8131C2.42188 39.7959 15.6628 46.2589 31.9983 46.2589C48.3337 46.2589 61.5883 39.7822 61.5883 31.8131C61.5746 23.8439 48.3337 17.3672 31.9983 17.3672Z" stroke="#F5F0CC" stroke-width="0.751363"/>
<path d="M49.7432 25.2434H44.9096L44.3209 27.0097H47.4428L43.8827 28.2969L43.6499 29.0089L49.1407 27.133L49.7432 25.2434ZM19.4274 28.201L18.7701 30.0769H14.0598C14.0598 30.0769 14.1694 30.0358 14.32 29.7209C14.4706 29.406 16.6478 23.0662 16.6478 23.0662C16.6478 23.0662 16.949 22.3953 16.6067 22.231H19.3315C19.3315 22.231 19.1809 22.1899 18.9208 22.8608C18.7701 23.2442 16.949 28.3379 16.949 28.3379H18.9208C18.9208 28.3379 19.3726 28.379 19.4274 28.201ZM27.1775 30.0769H29.3957C29.3957 30.0769 29.2451 29.8441 29.341 29.584C29.4642 29.228 30.6418 25.8732 30.6418 25.8732L31.1621 30.0769H33.1749L35.8039 22.6007C35.8039 22.6007 35.9135 22.2447 36.0641 22.2447H33.928C33.928 22.2447 33.9828 22.5048 33.9143 22.6965C33.8322 22.9019 32.6272 26.284 32.6272 26.284L32.148 22.2447H29.8476C29.8476 22.2447 29.9708 22.45 29.8887 22.6554C29.8202 22.8334 27.4514 29.6387 27.4514 29.6387C27.4514 29.6387 27.3144 30.0769 27.1775 30.0769ZM39.8433 22.2447H37.3238C37.3238 22.2447 37.5155 22.5596 37.2691 23.299C37.0226 24.0384 35.0919 29.4881 35.0919 29.4881C35.0919 29.4881 34.9413 30.0085 34.7359 30.1043H37.7757C37.7757 30.1043 41.4591 30.2549 42.5956 26.2019C42.5819 26.1882 44.0196 22.2036 39.8433 22.2447ZM40.1172 26.5305C39.4736 28.1736 38.5151 28.2832 38.0085 28.2832H37.6525L39.1313 23.9289H39.7064C39.6927 23.9289 41.1715 23.8467 40.1172 26.5305ZM10.6914 36.403H15.525L16.1137 34.6366H12.9781L16.5519 33.3495L16.7847 32.6375L11.2939 34.5271L10.6914 36.403ZM24.4526 34.7598C25.3564 31.72 22.3029 31.8022 22.3029 31.8022H19.1672C19.4 32.0624 19.222 32.6238 19.222 32.6238C19.222 32.6238 17.2776 38.4432 17.127 38.8951C16.9764 39.3469 16.7025 39.6482 16.7025 39.6482H19.1809C19.0988 39.6482 19.0988 39.388 19.0988 39.388L19.9888 36.9233C19.9888 36.9233 21.0979 39.1963 21.1801 39.3469C21.2485 39.5112 21.2211 39.6345 21.2211 39.6345H23.8639C23.6037 39.6345 23.3435 39.1278 23.3435 39.1278L22.029 36.6494C23.8502 36.6768 24.4526 34.7598 24.4526 34.7598ZM22.2892 34.486C21.9469 35.2665 21.0021 35.1706 21.0021 35.1706H20.5228L21.0294 33.596H21.5498C22.6863 33.596 22.2892 34.486 22.2892 34.486ZM51.7971 34.8557C52.7693 31.6653 49.6747 31.8296 49.6747 31.8296H46.5665C46.7992 32.0898 46.6212 32.6512 46.6212 32.6512C46.6212 32.6512 44.5947 38.498 44.4441 38.9361C44.2935 39.388 44.0059 39.6755 44.0059 39.6755H46.5938C46.4021 39.6755 46.5391 39.1963 46.5391 39.1963L47.3333 36.9507C47.3333 36.9507 48.4013 39.2237 48.4834 39.3743C48.5656 39.5386 48.5245 39.6619 48.5245 39.6619H51.2631C51.0029 39.6619 50.7291 39.1552 50.7291 39.1552L49.4146 36.6768C51.2494 36.7042 51.7971 34.8557 51.7971 34.8557ZM49.6063 34.5271C49.3187 35.2802 48.3876 35.2117 48.3876 35.2117H47.9084L48.415 33.6507H49.0996C49.0996 33.6507 49.9349 33.6233 49.6063 34.5271ZM29.3683 31.5968C26.9447 31.5968 25.3701 33.5138 24.9593 35.8963C24.5896 38.0872 25.7671 39.8399 27.7252 39.8399C30.4638 39.8399 32.0932 37.0328 32.0932 35.02C32.0932 32.9113 31.2579 31.5968 29.3683 31.5968ZM29.7244 35.9648C29.3273 37.6079 28.5742 38.1146 27.9032 37.9913C26.9721 37.8133 27.1364 36.3071 27.287 35.6088C27.6157 34.0889 28.4235 33.3632 29.026 33.4316C29.2177 33.459 30.3131 33.4864 29.7244 35.9648ZM32.7368 31.8296C32.7368 31.8296 32.9285 31.9391 32.9285 32.4321V39.2237C32.9285 39.2237 32.9011 39.5934 32.7642 39.6755H34.7907C34.7907 39.6755 34.7907 39.5112 34.9961 39.2511C35.2015 38.9909 39.4188 33.0619 39.4188 33.0619C39.4188 33.0619 40.3773 31.8159 40.6375 31.8159H37.7209C37.7209 31.8159 37.9537 31.9802 37.7757 32.2678C37.5977 32.5553 35.0098 36.6084 35.0098 36.6084L35.0508 32.5279C35.0508 32.5279 35.0508 31.8707 35.2973 31.8159L32.7368 31.8296ZM45.0329 33.6781L45.6901 31.8296H40.7607C40.7607 31.8296 40.9387 31.9939 40.706 32.6512C40.4732 33.3084 38.474 38.9361 38.474 38.9361C38.474 38.9361 38.118 39.6755 38.0222 39.6755H43.1022L43.7047 37.7996C43.7047 37.7996 43.6225 37.9092 43.1433 37.9092H40.9935L41.4454 36.6358H43.1296C43.1296 36.6358 43.4856 36.6084 43.5541 36.7179L44.2387 34.7051C44.2387 34.7051 44.1839 34.8831 43.7321 34.8831H42.1163L42.5956 33.4864H44.6495C44.6495 33.5001 44.9233 33.459 45.0329 33.6781ZM26.9173 30.0906C26.9173 30.0906 26.7393 29.9811 26.6983 29.6661L26.397 22.765C26.397 22.765 26.3833 22.3268 26.5887 22.231H24.1788C24.1788 22.231 24.3431 22.45 24.0282 22.943C23.6995 23.4359 19.5917 29.8168 19.5917 29.8168C19.5917 29.8168 19.5096 29.9811 19.3042 30.0769H21.7415C21.7415 30.0769 21.7278 29.8852 21.7962 29.7483C21.9058 29.5155 22.207 28.9678 22.207 28.9678H24.658V29.6524C24.658 29.6524 24.6717 29.8989 24.4937 30.0769H26.9173V30.0906ZM23.2614 27.2014L24.617 24.901L24.6306 27.2014H23.2614Z" fill="#F5F0CC"/>
<defs>
<linearGradient id="paint0_linear_11140_11093" x1="23.9146" y1="14.4707" x2="40.0745" y2="49.1257" gradientUnits="userSpaceOnUse">
<stop stop-color="#008948"/>
<stop offset="0.042" stop-color="#008847"/>
<stop offset="0.096" stop-color="#008244"/>
<stop offset="0.157" stop-color="#00793F"/>
<stop offset="0.222" stop-color="#006A37"/>
<stop offset="0.291" stop-color="#00572B"/>
<stop offset="0.319" stop-color="#004E24"/>
<stop offset="1"/>
</linearGradient>
</defs>
</svg>
