<svg width="64" height="64" viewBox="0 0 64 64" fill="none" xmlns="http://www.w3.org/2000/svg">
<path d="M32 15C14.3226 15 0 22.5173 0 31.801C0 41.071 14.3226 48.602 32 48.602C49.6637 48.602 64 41.0847 64 31.801C64 22.5173 49.6637 15 32 15Z" fill="#58595B"/>
<path d="M32 15C14.3226 15 0 22.5173 0 31.801C0 41.071 14.3226 48.5884 31.9863 48.5884C49.65 48.5884 63.9863 41.071 63.9863 31.801C63.9863 22.5173 49.6637 15 32 15Z" fill="#595A5C"/>
<path d="M32.0019 15.0137C14.3383 15.0137 0.015625 22.531 0.015625 31.801C0.015625 41.071 14.3383 48.5883 32.0019 48.5883C49.6656 48.5883 63.9882 41.071 63.9882 31.801C63.9882 22.531 49.6656 15.0137 32.0019 15.0137Z" fill="#5A5B5D"/>
<path d="M32.0019 15.0137C14.3383 15.0137 0.015625 22.531 0.015625 31.801C0.015625 41.071 14.3383 48.5883 32.0019 48.5883C49.6656 48.5883 63.9882 41.071 63.9882 31.801C63.9882 22.531 49.6656 15.0137 32.0019 15.0137Z" fill="#5B5C5E"/>
<path d="M32.0019 15.0137C14.3383 15.0137 0.015625 22.531 0.015625 31.801C0.015625 41.071 14.3383 48.5883 32.0019 48.5883C49.6656 48.5883 63.9882 41.071 63.9882 31.801C63.9882 22.531 49.6656 15.0137 32.0019 15.0137Z" fill="#5C5C5F"/>
<path d="M32.0019 15.0137C14.3383 15.0137 0.015625 22.531 0.015625 31.801C0.015625 41.071 14.3383 48.5883 31.9882 48.5883C49.6519 48.5883 63.9745 41.071 63.9745 31.801C63.9745 22.531 49.6656 15.0137 32.0019 15.0137Z" fill="#5C5D60"/>
<path d="M32 15.0137C14.3363 15.0137 0.0273438 22.531 0.0273438 31.801C0.0273438 41.071 14.35 48.5746 32 48.5746C49.6636 48.5746 63.9726 41.0573 63.9726 31.801C63.9726 22.531 49.6636 15.0137 32 15.0137Z" fill="#5D5E60"/>
<path d="M32 15.0273C14.3363 15.0273 0.0273438 22.531 0.0273438 31.801C0.0273438 41.071 14.3363 48.5746 32 48.5746C49.6636 48.5746 63.9726 41.0573 63.9726 31.801C63.9726 22.531 49.6499 15.0273 32 15.0273Z" fill="#5E5F61"/>
<path d="M32 15.0273C14.35 15.0273 0.0273438 22.531 0.0273438 31.801C0.0273438 41.0573 14.3363 48.5746 32 48.5746C49.6499 48.5746 63.9726 41.071 63.9726 31.801C63.9726 22.531 49.6499 15.0273 32 15.0273Z" fill="#5F6062"/>
<path d="M32.0019 15.0273C14.3519 15.0273 0.0429688 22.5447 0.0429688 31.801C0.0429688 41.0573 14.3519 48.5746 32.0019 48.5746C49.6519 48.5746 63.9745 41.071 63.9745 31.801C63.9745 22.5447 49.6519 15.0273 32.0019 15.0273Z" fill="#606163"/>
<path d="M32.0019 15.041C14.3519 15.041 0.0429688 22.5447 0.0429688 31.801C0.0429688 41.0573 14.3519 48.5609 32.0019 48.5609C49.6519 48.5609 63.9608 41.0573 63.9608 31.801C63.9608 22.5447 49.6519 15.041 32.0019 15.041Z" fill="#616264"/>
<path d="M32.0019 15.041C14.3519 15.041 0.0429688 22.5447 0.0429688 31.801C0.0429688 41.0573 14.3519 48.5609 32.0019 48.5609C49.6519 48.5609 63.9608 41.0573 63.9608 31.801C63.9608 22.5447 49.6519 15.041 32.0019 15.041Z" fill="#616265"/>
<path d="M32.0019 15.041C14.3519 15.041 0.0429688 22.5447 0.0429688 31.801C0.0429688 41.0573 14.3519 48.5609 32.0019 48.5609C49.6519 48.5609 63.9608 41.0573 63.9608 31.801C63.9608 22.5447 49.6519 15.041 32.0019 15.041Z" fill="#626366"/>
<path d="M31.9999 15.041C14.3499 15.041 0.0546875 22.5447 0.0546875 31.801C0.0546875 41.0573 14.3636 48.5609 31.9999 48.5609C49.6499 48.5609 63.9588 41.0573 63.9588 31.801C63.9588 22.5447 49.6499 15.041 31.9999 15.041Z" fill="#636467"/>
<path d="M31.9999 15.041C14.3636 15.041 0.0546875 22.5447 0.0546875 31.801C0.0546875 41.0573 14.3636 48.5472 31.9999 48.5472C49.6499 48.5472 63.9451 41.0573 63.9451 31.801C63.9451 22.5447 49.6499 15.041 31.9999 15.041Z" fill="#646567"/>
<path d="M31.9999 15.0547C14.3636 15.0547 0.0546875 22.5446 0.0546875 31.8009C0.0546875 41.0573 14.3636 48.5472 31.9999 48.5472C49.6362 48.5472 63.9451 41.0573 63.9451 31.8009C63.9451 22.5446 49.6362 15.0547 31.9999 15.0547Z" fill="#656668"/>
<path d="M31.9999 15.0547C14.3636 15.0547 0.0546875 22.5583 0.0546875 31.8009C0.0546875 41.0436 14.3636 48.5472 31.9999 48.5472C49.6362 48.5472 63.9451 41.0436 63.9451 31.8009C63.9451 22.5583 49.6362 15.0547 31.9999 15.0547Z" fill="#656769"/>
<path d="M31.9979 15.0547C14.3617 15.0547 0.0664062 22.5583 0.0664062 31.8009C0.0664062 41.0436 14.3617 48.5472 31.9979 48.5472C49.6342 48.5472 63.9432 41.0436 63.9432 31.8009C63.9432 22.5583 49.6342 15.0547 31.9979 15.0547Z" fill="#66686A"/>
<path d="M31.9979 15.0547C14.3617 15.0547 0.0664062 22.5583 0.0664062 31.8009C0.0664062 41.0436 14.3617 48.5472 31.9979 48.5472C49.6342 48.5472 63.9432 41.0436 63.9432 31.8009C63.9432 22.5583 49.6342 15.0547 31.9979 15.0547Z" fill="#67686B"/>
<path d="M31.9979 15.0684C14.3617 15.0684 0.0664062 22.5583 0.0664062 31.8009C0.0664062 41.0435 14.3617 48.5335 31.9979 48.5335C49.6342 48.5335 63.9295 41.0435 63.9295 31.8009C63.9295 22.5583 49.6342 15.0684 31.9979 15.0684Z" fill="#68696C"/>
<path d="M32.0038 15.0684C14.3812 15.0684 0.0859375 22.5583 0.0859375 31.8009C0.0859375 41.0435 14.3812 48.5335 32.0175 48.5335C49.6538 48.5335 63.949 41.0435 63.949 31.8009C63.9353 22.5583 49.6401 15.0684 32.0038 15.0684Z" fill="#696A6C"/>
<path d="M32.0038 15.0684C14.3812 15.0684 0.0859375 22.5583 0.0859375 31.8009C0.0859375 41.0435 14.3812 48.5335 32.0038 48.5335C49.6401 48.5335 63.9353 41.0435 63.9353 31.8009C63.9353 22.5583 49.6401 15.0684 32.0038 15.0684Z" fill="#696B6D"/>
<path d="M32.0038 15.0684C14.3812 15.0684 0.0859375 22.5583 0.0859375 31.8009C0.0859375 41.0435 14.3812 48.5198 32.0038 48.5198C49.6264 48.5198 63.9216 41.0298 63.9216 31.8009C63.9353 22.5583 49.6401 15.0684 32.0038 15.0684Z" fill="#6A6C6E"/>
<path d="M32.0038 15.082C14.3812 15.082 0.0859375 22.572 0.0859375 31.8009C0.0859375 41.0298 14.3812 48.5198 32.0038 48.5198C49.6264 48.5198 63.9216 41.0298 63.9216 31.8009C63.9216 22.572 49.6401 15.082 32.0038 15.082Z" fill="#6B6C6F"/>
<path d="M32.0018 15.082C14.3792 15.082 0.0976562 22.572 0.0976562 31.8009C0.0976562 41.0298 14.3929 48.5198 32.0155 48.5198C49.6381 48.5198 63.9333 41.0298 63.9333 31.8009C63.9196 22.572 49.6244 15.082 32.0018 15.082Z" fill="#6C6D70"/>
<path d="M32.0018 15.082C14.3792 15.082 0.0976562 22.572 0.0976562 31.8009C0.0976562 41.0298 14.3792 48.5198 32.0018 48.5198C49.6244 48.5198 63.9197 41.0298 63.9197 31.8009C63.9197 22.572 49.6244 15.082 32.0018 15.082Z" fill="#6D6E70"/>
<path d="M32.0018 15.082C14.3792 15.082 0.0976562 22.5583 0.0976562 31.8009C0.0976562 41.0298 14.3792 48.5198 32.0018 48.5198C49.6244 48.5198 63.906 41.0298 63.906 31.8009C63.9196 22.572 49.6244 15.082 32.0018 15.082Z" fill="#6D6F71"/>
<path d="M32.0018 15.0957C14.3792 15.0957 0.0976562 22.572 0.0976562 31.8009C0.0976562 41.0298 14.3792 48.5061 32.0018 48.5061C49.6244 48.5061 63.906 41.0298 63.906 31.8009C63.906 22.572 49.6244 15.0957 32.0018 15.0957Z" fill="#6E7072"/>
<path d="M32.0018 15.0957C14.3792 15.0957 0.0976562 22.572 0.0976562 31.8009C0.0976562 41.0298 14.3792 48.5061 32.0018 48.5061C49.6244 48.5061 63.906 41.0298 63.906 31.8009C63.906 22.572 49.6244 15.0957 32.0018 15.0957Z" fill="#6F7073"/>
<path d="M31.9998 15.0957C14.3909 15.0957 0.109375 22.572 0.109375 31.8009C0.109375 41.0298 14.3909 48.5061 31.9998 48.5061C49.6087 48.5061 63.904 41.0298 63.904 31.8009C63.904 22.572 49.6224 15.0957 31.9998 15.0957Z" fill="#707174"/>
<path d="M31.9998 15.0957C14.3909 15.0957 0.109375 22.5856 0.109375 31.8009C0.109375 41.0161 14.3909 48.5061 31.9998 48.5061C49.6087 48.5061 63.8903 41.0298 63.8903 31.8009C63.904 22.5856 49.6224 15.0957 31.9998 15.0957Z" fill="#707274"/>
<path d="M32.0155 15.1094C14.3929 15.1094 0.125 22.5856 0.125 31.8009C0.125 41.0161 14.4066 48.4923 32.0155 48.4923C49.6244 48.4923 63.9059 41.0161 63.9059 31.8009C63.9059 22.5856 49.6244 15.1094 32.0155 15.1094Z" fill="#717375"/>
<path d="M32.0155 15.1094C14.4066 15.1094 0.125 22.5856 0.125 31.8009C0.125 41.0161 14.4066 48.4923 32.0155 48.4923C49.6244 48.4923 63.9059 41.0161 63.9059 31.8009C63.8922 22.5856 49.6244 15.1094 32.0155 15.1094Z" fill="#727476"/>
<path d="M32.0155 15.1094C14.4066 15.1094 0.125 22.5856 0.125 31.8009C0.125 41.0161 14.3929 48.4923 32.0018 48.4923C49.6107 48.4923 63.8922 41.0161 63.8922 31.8009C63.8922 22.5856 49.6107 15.1094 32.0155 15.1094Z" fill="#737477"/>
<path d="M32.0155 15.1094C14.4066 15.1094 0.125 22.5856 0.125 31.8009C0.125 41.0161 14.3929 48.4923 32.0018 48.4923C49.6107 48.4923 63.8785 41.0161 63.8785 31.8009C63.8922 22.5856 49.6107 15.1094 32.0155 15.1094Z" fill="#747578"/>
<path d="M32.0135 15.125C14.4046 15.125 0.136719 22.5876 0.136719 31.8028C0.136719 41.018 14.4046 48.4943 32.0135 48.4943C49.6224 48.4943 63.8903 41.018 63.8903 31.8165C63.8903 22.5876 49.6087 15.125 32.0135 15.125Z" fill="#747678"/>
<path d="M32.0135 15.125C14.4046 15.125 0.136719 22.5876 0.136719 31.8028C0.136719 41.018 14.4046 48.4806 32.0135 48.4806C49.6087 48.4806 63.8903 41.018 63.8903 31.8028C63.8766 22.5876 49.6087 15.125 32.0135 15.125Z" fill="#757779"/>
<path d="M32.0135 15.125C14.4046 15.125 0.136719 22.6013 0.136719 31.8028C0.136719 41.018 14.4046 48.4806 32.0135 48.4806C49.6087 48.4806 63.8903 41.018 63.8903 31.8028C63.8766 22.6013 49.6087 15.125 32.0135 15.125Z" fill="#76777A"/>
<path d="M32.0115 15.125C14.4163 15.125 0.148438 22.6013 0.148438 31.8028C0.148438 41.0043 14.4163 48.4806 32.0115 48.4806C49.6067 48.4806 63.8746 41.018 63.8746 31.8028C63.8746 22.6013 49.6067 15.125 32.0115 15.125Z" fill="#77787B"/>
<path d="M32.0115 15.1367C14.4163 15.1367 0.148438 22.5993 0.148438 31.8008C0.148438 41.0024 14.4163 48.4649 32.0115 48.4649C49.6067 48.4649 63.8746 41.0024 63.8746 31.8008C63.8746 22.5993 49.6067 15.1367 32.0115 15.1367Z" fill="#77797B"/>
<path d="M32.0115 15.1367C14.4163 15.1367 0.148438 22.5993 0.148438 31.8008C0.148438 41.0024 14.4163 48.4649 32.0115 48.4649C49.6067 48.4649 63.8746 41.0024 63.8746 31.8008C63.8746 22.5993 49.6067 15.1367 32.0115 15.1367Z" fill="#787A7C"/>
<path d="M32.0115 15.1367C14.4163 15.1367 0.148438 22.5993 0.148438 31.8008C0.148438 41.0024 14.4163 48.4649 31.9978 48.4649C49.593 48.4649 63.8609 41.0024 63.8609 31.8008C63.8609 22.5993 49.6067 15.1367 32.0115 15.1367Z" fill="#797A7D"/>
<path d="M32.0134 15.1367C14.4182 15.1367 0.164062 22.5993 0.164062 31.8008C0.164062 41.0024 14.4182 48.4649 32.0134 48.4649C49.6086 48.4649 63.8628 41.0024 63.8628 31.8008C63.8628 22.5993 49.595 15.1367 32.0134 15.1367Z" fill="#7A7B7E"/>
<path d="M32.0134 15.1504C14.4182 15.1504 0.164062 22.5993 0.164062 31.8008C0.164062 41.0023 14.4182 48.4512 32.0134 48.4512C49.595 48.4512 63.8628 40.9886 63.8628 31.8008C63.8628 22.5993 49.595 15.1504 32.0134 15.1504Z" fill="#7A7C7F"/>
<path d="M32.0134 15.1504C14.4319 15.1504 0.164062 22.5993 0.164062 31.8008C0.164062 41.0023 14.4182 48.4512 32.0134 48.4512C49.595 48.4512 63.8628 40.9886 63.8628 31.8008C63.8628 22.5993 49.595 15.1504 32.0134 15.1504Z" fill="#7B7D7F"/>
<path d="M32.0115 15.1504C14.43 15.1504 0.175781 22.6129 0.175781 31.8008C0.175781 41.0023 14.43 48.4512 32.0115 48.4512C49.593 48.4512 63.8472 41.0023 63.8472 31.8008C63.8472 22.6129 49.593 15.1504 32.0115 15.1504Z" fill="#7C7D80"/>
<path d="M32.0115 15.1504C14.43 15.1504 0.175781 22.6129 0.175781 31.8008C0.175781 40.9886 14.43 48.4512 32.0115 48.4512C49.593 48.4512 63.8472 41.0023 63.8472 31.8008C63.8472 22.6129 49.593 15.1504 32.0115 15.1504Z" fill="#7C7E81"/>
<path d="M32.0115 15.1641C14.43 15.1641 0.175781 22.6129 0.175781 31.8008C0.175781 40.9886 14.43 48.4512 32.0115 48.4512C49.593 48.4512 63.8472 41.0023 63.8472 31.8008C63.8472 22.6129 49.593 15.1641 32.0115 15.1641Z" fill="#7D7F82"/>
<path d="M32.0115 15.1641C14.43 15.1641 0.175781 22.6129 0.175781 31.8008C0.175781 40.9886 14.43 48.4375 32.0115 48.4375C49.593 48.4375 63.8472 40.9886 63.8472 31.8008C63.8472 22.6129 49.593 15.1641 32.0115 15.1641Z" fill="#7E8082"/>
<path d="M32.0134 15.1641C14.4319 15.1641 0.191406 22.6129 0.191406 31.8008C0.191406 40.9886 14.4456 48.4375 32.0134 48.4375C49.5949 48.4375 63.8491 40.9886 63.8491 31.8008C63.8354 22.6129 49.5949 15.1641 32.0134 15.1641Z" fill="#7F8083"/>
<path d="M32.0134 15.1641C14.4456 15.1641 0.191406 22.6129 0.191406 31.8008C0.191406 40.9886 14.4456 48.4375 32.0134 48.4375C49.5949 48.4375 63.8354 40.9886 63.8354 31.8008C63.8354 22.6129 49.5812 15.1641 32.0134 15.1641Z" fill="#7F8184"/>
<path d="M32.0134 15.1777C14.4456 15.1777 0.191406 22.6129 0.191406 31.8008C0.191406 40.9886 14.4319 48.4375 32.0134 48.4375C49.5812 48.4375 63.8354 40.9886 63.8354 31.8008C63.8354 22.6129 49.5812 15.1777 32.0134 15.1777Z" fill="#808285"/>
<path d="M32.0153 15.1777C14.4475 15.1777 0.207031 22.6266 0.207031 31.8008C0.207031 40.9886 14.4475 48.4238 32.029 48.4238C49.5968 48.4238 63.851 40.9749 63.851 31.8008C63.8373 22.6266 49.5832 15.1777 32.0153 15.1777Z" fill="#818385"/>
<path d="M32.0153 15.1777C14.4475 15.1777 0.207031 22.6266 0.207031 31.8008C0.207031 40.9749 14.4475 48.4238 32.0153 48.4238C49.5831 48.4238 63.8236 40.9749 63.8236 31.8008C63.8373 22.6266 49.5831 15.1777 32.0153 15.1777Z" fill="#828386"/>
<path d="M32.0153 15.1777C14.4475 15.1777 0.207031 22.6266 0.207031 31.8008C0.207031 40.9749 14.4475 48.4238 32.0153 48.4238C49.5832 48.4238 63.8236 40.9749 63.8236 31.8008C63.8236 22.6266 49.5832 15.1777 32.0153 15.1777Z" fill="#828487"/>
<path d="M32.0153 15.1914C14.4475 15.1914 0.207031 22.6266 0.207031 31.8007C0.207031 40.9749 14.4475 48.4238 32.0153 48.4238C49.5832 48.4238 63.8236 40.9886 63.8236 31.8007C63.8236 22.6266 49.5832 15.1914 32.0153 15.1914Z" fill="#838588"/>
<path d="M32.0134 15.1914C14.4592 15.1914 0.21875 22.6266 0.21875 31.8007C0.21875 40.9749 14.4592 48.4101 32.0134 48.4101C49.5812 48.4101 63.8217 40.9749 63.8217 31.8007C63.8217 22.6266 49.5812 15.1914 32.0134 15.1914Z" fill="#848688"/>
<path d="M32.0134 15.1914C14.4592 15.1914 0.21875 22.6266 0.21875 31.8007C0.21875 40.9749 14.4592 48.4101 32.0134 48.4101C49.5812 48.4101 63.808 40.9749 63.808 31.8007C63.8217 22.6266 49.5812 15.1914 32.0134 15.1914Z" fill="#858689"/>
<path d="M32.0134 15.1914C14.4592 15.1914 0.21875 22.6266 0.21875 31.8007C0.21875 40.9749 14.4592 48.4101 32.0134 48.4101C49.5812 48.4101 63.808 40.9749 63.808 31.8007C63.808 22.6266 49.5812 15.1914 32.0134 15.1914Z" fill="#85878A"/>
<path d="M32.0134 15.2051C14.4592 15.2051 0.21875 22.6402 0.21875 31.8007C0.21875 40.9749 14.4592 48.41 32.0134 48.41C49.5675 48.41 63.808 40.9749 63.808 31.8007C63.808 22.6402 49.5675 15.2051 32.0134 15.2051Z" fill="#86888B"/>
<path d="M32.0153 15.2051C14.4612 15.2051 0.234375 22.6402 0.234375 31.8007C0.234375 40.9749 14.4612 48.3963 32.0153 48.3963C49.5694 48.41 63.8099 40.9749 63.8099 31.8007C63.8099 22.6402 49.5694 15.2051 32.0153 15.2051Z" fill="#87898B"/>
<path d="M32.0153 15.2051C14.4612 15.2051 0.234375 22.6402 0.234375 31.8007C0.234375 40.9749 14.4612 48.41 32.0153 48.41C49.5694 48.41 63.8099 40.9749 63.8099 31.8007C63.8099 22.6402 49.5694 15.2051 32.0153 15.2051Z" fill="#88898C"/>
<path d="M32.0153 15.2051C14.4612 15.2051 0.234375 22.6402 0.234375 31.8144C0.234375 40.9749 14.4612 48.41 32.0153 48.41C49.5694 48.41 63.7962 40.9749 63.7962 31.8144C63.7962 22.6402 49.5694 15.2051 32.0153 15.2051Z" fill="#888A8D"/>
<path d="M32.0172 15.2207C14.4768 15.2207 0.25 22.6422 0.25 31.8163C0.25 40.9768 14.4768 48.412 32.0309 48.412C49.585 48.412 63.8118 40.9768 63.8118 31.8163C63.7981 22.6422 49.5713 15.2207 32.0172 15.2207Z" fill="#898B8E"/>
<path d="M32.0172 15.2207C14.4768 15.2207 0.25 22.6422 0.25 31.8163C0.25 40.9768 14.4768 48.3983 32.0172 48.3983C49.5714 48.3983 63.7981 40.9768 63.7981 31.8163C63.7981 22.6422 49.5714 15.2207 32.0172 15.2207Z" fill="#8A8C8E"/>
<path d="M32.0172 15.2207C14.4768 15.2207 0.25 22.6422 0.25 31.8026C0.25 40.9631 14.4768 48.3846 32.0172 48.3846C49.5577 48.3846 63.7844 40.9631 63.7844 31.8026C63.7981 22.6422 49.5714 15.2207 32.0172 15.2207Z" fill="#8A8C8F"/>
<path d="M32.0172 15.2207C14.4768 15.2207 0.25 22.6422 0.25 31.8026C0.25 40.9631 14.4768 48.3846 32.0172 48.3846C49.5577 48.3846 63.7844 40.9631 63.7844 31.8026C63.7981 22.6559 49.5714 15.2207 32.0172 15.2207Z" fill="#8B8D90"/>
<path d="M32.0172 15.2324C14.4768 15.2324 0.25 22.6539 0.25 31.8144C0.25 40.9748 14.4768 48.3963 32.0172 48.3963C49.5577 48.3963 63.7844 40.9748 63.7844 31.8144C63.7844 22.6539 49.5714 15.2324 32.0172 15.2324Z" fill="#8C8E91"/>
<path d="M32.0152 15.2324C14.4748 15.2324 0.261719 22.6539 0.261719 31.8144C0.261719 40.9611 14.4885 48.3826 32.0152 48.3826C49.5557 48.3826 63.7825 40.9611 63.7825 31.8144C63.7825 22.6539 49.5557 15.2324 32.0152 15.2324Z" fill="#8D8F91"/>
<path d="M32.0152 15.2324C14.4885 15.2324 0.261719 22.6539 0.261719 31.8144C0.261719 40.9611 14.4748 48.3826 32.0152 48.3826C49.5557 48.3826 63.7688 40.9611 63.7688 31.8144C63.7825 22.6539 49.5557 15.2324 32.0152 15.2324Z" fill="#8D8F92"/>
<path d="M32.0133 15.2324C14.4865 15.2324 0.273438 22.6539 0.273438 31.8144C0.273438 40.9611 14.4865 48.3826 32.027 48.3826C49.5674 48.3826 63.7805 40.9611 63.7805 31.8144C63.7805 22.6539 49.5537 15.2324 32.0133 15.2324Z" fill="#8E9093"/>
<path d="M32.0133 15.2441C14.4865 15.2441 0.273438 22.6519 0.273438 31.8124C0.273438 40.9592 14.4865 48.3806 32.027 48.3806C49.5674 48.3806 63.7805 40.9592 63.7805 31.8124C63.7668 22.6519 49.5537 15.2441 32.0133 15.2441Z" fill="#8F9194"/>
<path d="M32.027 15.2441C14.4865 15.2441 0.273438 22.6519 0.273438 31.8124C0.273438 40.9592 14.4865 48.3806 32.0133 48.3806C49.54 48.3806 63.7668 40.9592 63.7668 31.8124C63.7668 22.6519 49.5537 15.2441 32.027 15.2441Z" fill="#909294"/>
<path d="M32.027 15.2441C14.4865 15.2441 0.273438 22.6656 0.273438 31.8124C0.273438 40.9592 14.4865 48.3669 32.0133 48.3669C49.54 48.3669 63.7531 40.9592 63.7531 31.8124C63.7668 22.6656 49.5537 15.2441 32.027 15.2441Z" fill="#909395"/>
<path d="M32.0289 15.2441C14.4885 15.2441 0.289062 22.6656 0.289062 31.8124C0.289062 40.9592 14.5022 48.3669 32.0289 48.3669C49.5556 48.3669 63.7687 40.9592 63.7687 31.8124C63.7687 22.6656 49.5556 15.2441 32.0289 15.2441Z" fill="#919396"/>
<path d="M32.0289 15.2617C14.5022 15.2617 0.289062 22.6695 0.289062 31.8163C0.289062 40.963 14.5022 48.3708 32.0289 48.3708C49.5556 48.3708 63.7687 40.963 63.7687 31.8163C63.7687 22.6695 49.5556 15.2617 32.0289 15.2617Z" fill="#929497"/>
<path d="M32.0289 15.2617C14.5022 15.2617 0.289062 22.6695 0.289062 31.8163C0.289062 40.9494 14.5022 48.3708 32.0152 48.3708C49.5419 48.3708 63.755 40.963 63.755 31.8163C63.755 22.6695 49.5419 15.2617 32.0289 15.2617Z" fill="#939597"/>
<path d="M32.0289 15.2617C14.5022 15.2617 0.289062 22.6695 0.289062 31.8163C0.289062 40.9494 14.4885 48.3571 32.0152 48.3571C49.5419 48.3571 63.7413 40.9494 63.7413 31.8163C63.755 22.6695 49.5419 15.2617 32.0289 15.2617Z" fill="#939698"/>
<path d="M32.0269 15.2617C14.5002 15.2617 0.300781 22.6695 0.300781 31.8163C0.300781 40.9494 14.5002 48.3571 32.0269 48.3571C49.5537 48.3571 63.7531 40.9494 63.7531 31.8163C63.7531 22.6695 49.54 15.2617 32.0269 15.2617Z" fill="#949699"/>
<path d="M32.0269 15.2734C14.5002 15.2734 0.300781 22.6675 0.300781 31.8143C0.300781 40.9474 14.5002 48.3552 32.0269 48.3552C49.54 48.3552 63.7531 40.9474 63.7531 31.8143C63.7531 22.6675 49.54 15.2734 32.0269 15.2734Z" fill="#95979A"/>
<path d="M32.0269 15.2734C14.5002 15.2734 0.300781 22.6812 0.300781 31.8143C0.300781 40.9474 14.5002 48.3552 32.0132 48.3552C49.5263 48.3552 63.7394 40.9474 63.7394 31.8143C63.7394 22.6812 49.54 15.2734 32.0269 15.2734Z" fill="#96989A"/>
<path d="M32.025 15.2734C14.5119 15.2734 0.3125 22.6812 0.3125 31.8143C0.3125 40.9474 14.5119 48.3415 32.025 48.3415C49.538 48.3415 63.7374 40.9337 63.7374 31.8143C63.7374 22.6812 49.538 15.2734 32.025 15.2734Z" fill="#97999B"/>
<path d="M32.025 15.2734C14.5119 15.2734 0.3125 22.6812 0.3125 31.8143C0.3125 40.9474 14.5119 48.3415 32.025 48.3415C49.538 48.3415 63.7374 40.9337 63.7374 31.8143C63.7374 22.6812 49.538 15.2734 32.025 15.2734Z" fill="#97999C"/>
<path d="M32.025 15.2871C14.5119 15.2871 0.3125 22.6812 0.3125 31.8143C0.3125 40.9337 14.5119 48.3414 32.025 48.3414C49.538 48.3414 63.7374 40.9474 63.7374 31.8143C63.7374 22.6812 49.538 15.2871 32.025 15.2871Z" fill="#989A9D"/>
<path d="M32.0249 15.2871C14.5119 15.2871 0.3125 22.6812 0.3125 31.8143C0.3125 40.9337 14.5119 48.3414 32.0113 48.3414C49.5243 48.3414 63.7237 40.9474 63.7237 31.8143C63.7237 22.6812 49.538 15.2871 32.0249 15.2871Z" fill="#999B9E"/>
<path d="M32.0269 15.2871C14.5138 15.2871 0.328125 22.6812 0.328125 31.8143C0.328125 40.9337 14.5275 48.3278 32.0269 48.3278C49.5399 48.3278 63.7256 40.9337 63.7256 31.8143C63.7256 22.6812 49.5262 15.2871 32.0269 15.2871Z" fill="#9A9C9E"/>
<path d="M32.0269 15.2871C14.5138 15.2871 0.328125 22.6812 0.328125 31.8143C0.328125 40.9337 14.5138 48.3278 32.0269 48.3278C49.5262 48.3278 63.7256 40.9337 63.7256 31.8143C63.7256 22.6812 49.5262 15.2871 32.0269 15.2871Z" fill="#9A9C9F"/>
<path d="M32.0269 15.3008C14.5275 15.3008 0.328125 22.6949 0.328125 31.8143C0.328125 40.9336 14.5138 48.3277 32.0269 48.3277C49.5262 48.3277 63.7256 40.9336 63.7256 31.8143C63.7256 22.6949 49.5262 15.3008 32.0269 15.3008Z" fill="#9B9DA0"/>
<path d="M32.0288 15.3008C14.5295 15.3008 0.34375 22.6949 0.34375 31.8143C0.34375 40.9336 14.5295 48.3277 32.0288 48.3277C49.5282 48.3277 63.7276 40.9336 63.7276 31.8143C63.7276 22.6949 49.5282 15.3008 32.0288 15.3008Z" fill="#9C9EA1"/>
<path d="M32.0288 15.3008C14.5295 15.3008 0.34375 22.6949 0.34375 31.8143C0.34375 40.9336 14.5295 48.314 32.0288 48.314C49.5282 48.314 63.7139 40.9199 63.7139 31.8143C63.7139 22.6949 49.5282 15.3008 32.0288 15.3008Z" fill="#9D9FA1"/>
<path d="M32.0288 15.3008C14.5295 15.3008 0.34375 22.6949 0.34375 31.8143C0.34375 40.9336 14.5295 48.314 32.0288 48.314C49.5282 48.314 63.7139 40.9199 63.7139 31.8143C63.7139 22.6949 49.5282 15.3008 32.0288 15.3008Z" fill="#9DA0A2"/>
<path d="M32.0288 15.3164C14.5295 15.3164 0.34375 22.6968 0.34375 31.8162C0.34375 40.9219 14.5295 48.316 32.0288 48.316C49.5282 48.316 63.7139 40.9219 63.7139 31.8162C63.7139 22.6968 49.5282 15.3164 32.0288 15.3164Z" fill="#9EA0A3"/>
<path d="M32.0268 15.3164C14.5275 15.3164 0.355469 22.6968 0.355469 31.8162C0.355469 40.9219 14.5412 48.316 32.0268 48.316C49.5262 48.316 63.7119 40.9356 63.7119 31.8162C63.7119 22.6968 49.5262 15.3164 32.0268 15.3164Z" fill="#9FA1A4"/>
<path d="M32.0268 15.3164C14.5412 15.3164 0.355469 22.6968 0.355469 31.8162C0.355469 40.9219 14.5412 48.316 32.0268 48.316C49.5262 48.316 63.6982 40.9356 63.6982 31.8162C63.6982 22.6968 49.5262 15.3164 32.0268 15.3164Z" fill="#A0A2A4"/>
<path d="M32.0268 15.3164C14.5412 15.3164 0.355469 22.7105 0.355469 31.8162C0.355469 40.9219 14.5412 48.3023 32.0268 48.3023C49.5125 48.3023 63.6982 40.9219 63.6982 31.8162C63.6982 22.7105 49.5125 15.3164 32.0268 15.3164Z" fill="#A1A3A5"/>
<path d="M32.0268 15.3301C14.5412 15.3301 0.355469 22.7105 0.355469 31.8162C0.355469 40.9219 14.5275 48.3023 32.0268 48.3023C49.5125 48.3023 63.6982 40.9219 63.6982 31.8162C63.6982 22.7105 49.5125 15.3301 32.0268 15.3301Z" fill="#A1A3A6"/>
<path d="M32.0249 15.3301C14.5392 15.3301 0.367188 22.7105 0.367188 31.8162C0.367188 40.9219 14.5392 48.3023 32.0249 48.3023C49.5105 48.3023 63.6962 40.9219 63.6962 31.8162C63.6962 22.7105 49.5105 15.3301 32.0249 15.3301Z" fill="#A2A4A7"/>
<path d="M32.0249 15.3301C14.5392 15.3301 0.367188 22.7105 0.367188 31.8162C0.367188 40.9219 14.5392 48.3023 32.0249 48.3023C49.5105 48.3023 63.6826 40.9219 63.6826 31.8162C63.6826 22.7105 49.5105 15.3301 32.0249 15.3301Z" fill="#A3A5A8"/>
<path d="M32.0249 15.3301C14.5392 15.3301 0.367188 22.7105 0.367188 31.8162C0.367188 40.9219 14.5392 48.2886 32.0249 48.2886C49.5105 48.2886 63.6826 40.9082 63.6826 31.8162C63.6826 22.7105 49.5105 15.3301 32.0249 15.3301Z" fill="#A4A6A8"/>
<path d="M32.0268 15.3398C14.5548 15.3398 0.382812 22.7066 0.382812 31.8122C0.382812 40.9042 14.5548 48.2846 32.0405 48.2846C49.5262 48.2846 63.6982 40.9042 63.6982 31.8122C63.6845 22.7066 49.5125 15.3398 32.0268 15.3398Z" fill="#A4A7A9"/>
<path d="M32.0268 15.3398C14.5548 15.3398 0.382812 22.7066 0.382812 31.8122C0.382812 40.9042 14.5548 48.2846 32.0268 48.2846C49.5125 48.2846 63.6845 40.9042 63.6845 31.8122C63.6845 22.7066 49.5125 15.3398 32.0268 15.3398Z" fill="#A5A7AA"/>
<path d="M32.0268 15.3398C14.5548 15.3398 0.382812 22.7202 0.382812 31.8122C0.382812 40.9042 14.5548 48.271 32.0268 48.271C49.4988 48.271 63.6708 40.9042 63.6708 31.7985C63.6845 22.7202 49.5125 15.3398 32.0268 15.3398Z" fill="#A6A8AB"/>
<path d="M32.0268 15.3398C14.5548 15.3398 0.382812 22.7202 0.382812 31.8122C0.382812 40.9042 14.5548 48.271 32.0268 48.271C49.5125 48.271 63.6708 40.9042 63.6708 31.8122C63.6708 22.7202 49.5125 15.3398 32.0268 15.3398Z" fill="#A7A9AC"/>
<path d="M32.0287 15.3555C14.5568 15.3555 0.398438 22.7222 0.398438 31.8142C0.398438 40.9062 14.5568 48.2729 32.0287 48.2729C49.5007 48.2729 63.6727 40.9062 63.6727 31.8142C63.6727 22.7222 49.5007 15.3555 32.0287 15.3555Z" fill="#A8AAAC"/>
<path d="M32.0287 15.3555C14.5568 15.3555 0.398438 22.7222 0.398438 31.8142C0.398438 40.9062 14.5568 48.2729 32.0287 48.2729C49.5007 48.2729 63.6727 40.9062 63.6727 31.8142C63.6727 22.7222 49.5007 15.3555 32.0287 15.3555Z" fill="#A8ABAD"/>
<path d="M32.0287 15.3555C14.5568 15.3555 0.398438 22.7222 0.398438 31.8142C0.398438 40.9062 14.5568 48.2729 32.0287 48.2729C49.5007 48.2729 63.659 40.9062 63.659 31.8142C63.6727 22.7222 49.5007 15.3555 32.0287 15.3555Z" fill="#A9ABAE"/>
<path d="M32.0268 15.3555C14.5685 15.3555 0.410156 22.7222 0.410156 31.8142C0.410156 40.8925 14.5685 48.2592 32.0405 48.2592C49.5124 48.2592 63.6707 40.8925 63.6707 31.8142C63.6571 22.7222 49.4987 15.3555 32.0268 15.3555Z" fill="#AAACAF"/>
<path d="M32.0268 15.3711C14.5685 15.3711 0.410156 22.7241 0.410156 31.8161C0.410156 40.8944 14.5685 48.2611 32.0405 48.2611C49.5124 48.2611 63.6707 40.8944 63.6707 31.8161C63.6571 22.7241 49.4987 15.3711 32.0268 15.3711Z" fill="#ABADAF"/>
<path d="M32.0268 15.3711C14.5685 15.3711 0.410156 22.7378 0.410156 31.8161C0.410156 40.8944 14.5685 48.2611 32.0268 48.2611C49.485 48.2611 63.6571 40.8944 63.6571 31.8161C63.6571 22.7378 49.4987 15.3711 32.0268 15.3711Z" fill="#ACAEB0"/>
<path d="M32.0268 15.3711C14.5685 15.3711 0.410156 22.7378 0.410156 31.8161C0.410156 40.8944 14.5685 48.2611 32.0268 48.2611C49.485 48.2611 63.6434 40.8944 63.6434 31.8161C63.6571 22.7378 49.4987 15.3711 32.0268 15.3711Z" fill="#ACAFB1"/>
<path d="M32.0287 15.3711C14.5704 15.3711 0.425781 22.7378 0.425781 31.8161C0.425781 40.8944 14.5841 48.2474 32.0424 48.2474C49.5007 48.2474 63.659 40.8807 63.659 31.8161C63.6453 22.7378 49.5007 15.3711 32.0287 15.3711Z" fill="#ADAFB2"/>
<path d="M32.0424 15.3828C14.5841 15.3828 0.425781 22.7358 0.425781 31.8141C0.425781 40.8924 14.5841 48.2454 32.0424 48.2454C49.5007 48.2454 63.659 40.8924 63.659 31.8141C63.6453 22.7358 49.487 15.3828 32.0424 15.3828Z" fill="#AEB0B3"/>
<path d="M32.0424 15.3828C14.5841 15.3828 0.425781 22.7358 0.425781 31.8141C0.425781 40.8924 14.5841 48.2454 32.0287 48.2454C49.487 48.2454 63.6453 40.8924 63.6453 31.8141C63.6453 22.7358 49.487 15.3828 32.0424 15.3828Z" fill="#AFB1B3"/>
<path d="M32.0443 15.3828C14.586 15.3828 0.441406 22.7358 0.441406 31.8141C0.441406 40.8924 14.586 48.2454 32.0443 48.2454C49.5026 48.2454 63.6472 40.8924 63.6472 31.8141C63.6472 22.7358 49.4889 15.3828 32.0443 15.3828Z" fill="#B0B2B4"/>
<path d="M32.0443 15.3828C14.586 15.3828 0.441406 22.7358 0.441406 31.8141C0.441406 40.8787 14.586 48.2454 32.0443 48.2454C49.5026 48.2454 63.6472 40.8924 63.6472 31.8141C63.6472 22.7358 49.4889 15.3828 32.0443 15.3828Z" fill="#B1B3B5"/>
<path d="M32.0443 15.3965C14.586 15.3965 0.441406 22.7495 0.441406 31.8141C0.441406 40.8787 14.586 48.2317 32.0443 48.2317C49.4889 48.2317 63.6472 40.8787 63.6472 31.8141C63.6335 22.7495 49.4889 15.3965 32.0443 15.3965Z" fill="#B1B3B6"/>
<path d="M32.0443 15.3965C14.586 15.3965 0.441406 22.7495 0.441406 31.8141C0.441406 40.8787 14.586 48.2317 32.0443 48.2317C49.4889 48.2317 63.6335 40.8787 63.6335 31.8141C63.6335 22.7495 49.4889 15.3965 32.0443 15.3965Z" fill="#B2B4B7"/>
<path d="M32.0423 15.3965C14.5978 15.3965 0.453125 22.7495 0.453125 31.8141C0.453125 40.8787 14.5978 48.2317 32.0423 48.2317C49.4869 48.2317 63.6316 40.8787 63.6316 31.8141C63.6316 22.7495 49.4869 15.3965 32.0423 15.3965Z" fill="#B3B5B7"/>
<path d="M32.0423 15.3965C14.5978 15.3965 0.453125 22.7495 0.453125 31.8141C0.453125 40.8787 14.5978 48.2317 32.0423 48.2317C49.4869 48.2317 63.6316 40.8787 63.6316 31.8141C63.6316 22.7495 49.4869 15.3965 32.0423 15.3965Z" fill="#B4B6B8"/>
<path d="M32.0423 15.4102C14.5978 15.4102 0.453125 22.7495 0.453125 31.8141C0.453125 40.8787 14.5978 48.218 32.0423 48.218C49.4869 48.218 63.6316 40.865 63.6316 31.8141C63.6179 22.7495 49.4869 15.4102 32.0423 15.4102Z" fill="#B5B7B9"/>
<path d="M32.0423 15.4102C14.5978 15.4102 0.453125 22.7495 0.453125 31.8141C0.453125 40.8787 14.5978 48.218 32.0423 48.218C49.4869 48.218 63.6179 40.8787 63.6179 31.8141C63.6179 22.7495 49.4732 15.4102 32.0423 15.4102Z" fill="#B5B7BA"/>
<path d="M32.0404 15.4102C14.5958 15.4102 0.464844 22.7495 0.464844 31.8141C0.464844 40.8787 14.5958 48.218 32.0404 48.218C49.485 48.218 63.6159 40.8787 63.6159 31.8141C63.6159 22.7495 49.4713 15.4102 32.0404 15.4102Z" fill="#B6B8BB"/>
<path d="M32.0404 15.4102C14.5958 15.4102 0.464844 22.7632 0.464844 31.8141C0.464844 40.865 14.5958 48.218 32.0404 48.218C49.4713 48.218 63.6159 40.8787 63.6159 31.8141C63.6159 22.7632 49.4713 15.4102 32.0404 15.4102Z" fill="#B7B9BB"/>
<path d="M32.0404 15.4258C14.6095 15.4258 0.464844 22.7651 0.464844 31.816C0.464844 40.8669 14.5958 48.2063 32.0404 48.2063C49.4713 48.2063 63.6159 40.8669 63.6159 31.816C63.6159 22.7651 49.4713 15.4258 32.0404 15.4258Z" fill="#B8BABC"/>
<path d="M32.0423 15.4258C14.6114 15.4258 0.480469 22.7651 0.480469 31.816C0.480469 40.8669 14.6114 48.2063 32.0423 48.2063C49.4732 48.2063 63.6041 40.8669 63.6041 31.816C63.6041 22.7651 49.4732 15.4258 32.0423 15.4258Z" fill="#B9BBBD"/>
<path d="M32.0423 15.4258C14.6114 15.4258 0.480469 22.7651 0.480469 31.816C0.480469 40.8669 14.6114 48.2063 32.0423 48.2063C49.4732 48.2063 63.6041 40.8669 63.6041 31.816C63.6041 22.7651 49.4732 15.4258 32.0423 15.4258Z" fill="#BABBBE"/>
<path d="M32.0423 15.4258C14.6114 15.4258 0.480469 22.7651 0.480469 31.816C0.480469 40.8669 14.6114 48.2063 32.0423 48.2063C49.4732 48.2063 63.6041 40.8669 63.6041 31.816C63.6041 22.7651 49.4732 15.4258 32.0423 15.4258Z" fill="#BABCBF"/>
<path d="M32.0423 15.4375C14.6114 15.4375 0.480469 22.7631 0.480469 31.814C0.480469 40.865 14.6114 48.1906 32.0286 48.1906C49.4595 48.1906 63.5904 40.8513 63.5904 31.814C63.6041 22.7631 49.4732 15.4375 32.0423 15.4375Z" fill="#BBBDBF"/>
<path d="M32.0364 15.4375C14.6055 15.4375 0.488281 22.7631 0.488281 31.814C0.488281 40.865 14.6192 48.1906 32.0364 48.1906C49.4673 48.1906 63.5846 40.8513 63.5846 31.814C63.5846 22.7631 49.4673 15.4375 32.0364 15.4375Z" fill="#BCBEC0"/>
<path d="M32.0364 15.4375C14.6192 15.4375 0.488281 22.7768 0.488281 31.814C0.488281 40.8513 14.6192 48.1906 32.0364 48.1906C49.4536 48.1906 63.5846 40.8513 63.5846 31.814C63.5846 22.7768 49.4536 15.4375 32.0364 15.4375Z" fill="#BDBFC1"/>
<path d="M32.0364 15.4375C14.6192 15.4375 0.488281 22.7768 0.488281 31.814C0.488281 40.8513 14.6055 48.1906 32.0364 48.1906C49.4536 48.1906 63.5846 40.865 63.5846 31.814C63.5846 22.7768 49.4536 15.4375 32.0364 15.4375Z" fill="#BEC0C2"/>
<path d="M32.0383 15.4512C14.6211 15.4512 0.503906 22.7768 0.503906 31.814C0.503906 40.8513 14.6211 48.1769 32.0383 48.1769C49.4555 48.1769 63.5865 40.8513 63.5865 31.814C63.5865 22.7768 49.4555 15.4512 32.0383 15.4512Z" fill="#BFC0C3"/>
<path d="M32.0384 15.4512C14.6212 15.4512 0.503906 22.7768 0.503906 31.814C0.503906 40.8513 14.6212 48.1769 32.0384 48.1769C49.4556 48.1769 63.5728 40.8513 63.5728 31.814C63.5728 22.7768 49.4556 15.4512 32.0384 15.4512Z" fill="#BFC1C3"/>
<path d="M32.0384 15.4512C14.6212 15.4512 0.503906 22.7768 0.503906 31.814C0.503906 40.8513 14.6212 48.1769 32.0384 48.1769C49.4556 48.1769 63.5728 40.8513 63.5728 31.814C63.5728 22.7768 49.4556 15.4512 32.0384 15.4512Z" fill="#C0C2C4"/>
<path d="M32.0384 15.4512C14.6212 15.4512 0.503906 22.7768 0.503906 31.814C0.503906 40.8513 14.6212 48.1769 32.0384 48.1769C49.4556 48.1769 63.5728 40.8513 63.5728 31.814C63.5728 22.7768 49.4556 15.4512 32.0384 15.4512Z" fill="#C1C3C5"/>
<path d="M32.0442 15.4648C14.6407 15.4648 0.523438 22.7768 0.523438 31.814C0.523438 40.8512 14.6407 48.1769 32.0442 48.1769C49.4614 48.1769 63.5786 40.8512 63.5786 31.814C63.5786 22.7768 49.4614 15.4648 32.0442 15.4648Z" fill="#C2C4C6"/>
<path d="M32.0442 15.4648C14.6407 15.4648 0.523438 22.7905 0.523438 31.814C0.523438 40.8375 14.6407 48.1632 32.0442 48.1632C49.4477 48.1632 63.565 40.8375 63.565 31.814C63.5786 22.7905 49.4614 15.4648 32.0442 15.4648Z" fill="#C3C4C7"/>
<path d="M32.0442 15.4648C14.6407 15.4648 0.523438 22.7905 0.523438 31.814C0.523438 40.8375 14.6407 48.1632 32.0442 48.1632C49.4477 48.1632 63.5649 40.8375 63.5649 31.814C63.5649 22.7905 49.4477 15.4648 32.0442 15.4648Z" fill="#C4C5C7"/>
<path d="M32.0442 15.4648C14.6407 15.4648 0.523438 22.7905 0.523438 31.814C0.523438 40.8375 14.6407 48.1632 32.0442 48.1632C49.4477 48.1632 63.5649 40.8375 63.5649 31.814C63.5649 22.7905 49.4477 15.4648 32.0442 15.4648Z" fill="#C4C6C8"/>
<path d="M32.0383 15.4805C14.6348 15.4805 0.53125 22.7924 0.53125 31.8159C0.53125 40.8395 14.6348 48.1651 32.0383 48.1651C49.4418 48.1651 63.5591 40.8532 63.5591 31.8159C63.5591 22.7924 49.4418 15.4805 32.0383 15.4805Z" fill="#C5C7C9"/>
<path d="M32.0383 15.4805C14.6348 15.4805 0.53125 22.7924 0.53125 31.8159C0.53125 40.8395 14.6348 48.1514 32.0383 48.1514C49.4418 48.1514 63.5454 40.8395 63.5454 31.8159C63.5591 22.7924 49.4418 15.4805 32.0383 15.4805Z" fill="#C6C8CA"/>
<path d="M32.0383 15.4805C14.6485 15.4805 0.53125 22.7924 0.53125 31.8159C0.53125 40.8395 14.6348 48.1514 32.0383 48.1514C49.4418 48.1514 63.5454 40.8395 63.5454 31.8159C63.5454 22.7924 49.4418 15.4805 32.0383 15.4805Z" fill="#C7C9CB"/>
<path d="M32.0402 15.4805C14.6504 15.4805 0.546875 22.7924 0.546875 31.8159C0.546875 40.8395 14.6504 48.1514 32.0402 48.1514C49.4437 48.1514 63.5473 40.8395 63.5473 31.8159C63.5473 22.7924 49.4437 15.4805 32.0402 15.4805Z" fill="#C8C9CB"/>
<path d="M32.0402 15.4922C14.6504 15.4922 0.546875 22.7904 0.546875 31.814C0.546875 40.8375 14.6504 48.1494 32.0402 48.1494C49.4301 48.1494 63.5473 40.8375 63.5473 31.814C63.5473 22.7904 49.4437 15.4922 32.0402 15.4922Z" fill="#C9CACC"/>
<path d="M32.0402 15.4922C14.6504 15.4922 0.546875 22.8041 0.546875 31.814C0.546875 40.8238 14.6504 48.1357 32.0402 48.1357C49.43 48.1357 63.5336 40.8238 63.5336 31.814C63.5473 22.8041 49.4437 15.4922 32.0402 15.4922Z" fill="#C9CBCD"/>
<path d="M32.0402 15.4922C14.6504 15.4922 0.546875 22.8041 0.546875 31.814C0.546875 40.8375 14.6504 48.1357 32.0402 48.1357C49.43 48.1357 63.5336 40.8238 63.5336 31.814C63.5473 22.8041 49.4437 15.4922 32.0402 15.4922Z" fill="#CACCCE"/>
<path d="M32.0383 15.4922C14.6485 15.4922 0.558594 22.8041 0.558594 31.814C0.558594 40.8238 14.6485 48.1357 32.0383 48.1357C49.4281 48.1357 63.5316 40.8238 63.5316 31.814C63.5316 22.8041 49.4281 15.4922 32.0383 15.4922Z" fill="#CBCDCE"/>
<path d="M32.0383 15.5078C14.6621 15.5078 0.558594 22.8061 0.558594 31.8159C0.558594 40.8257 14.6621 48.1377 32.0383 48.1377C49.4281 48.1377 63.5316 40.8257 63.5316 31.8159C63.5316 22.8061 49.4281 15.5078 32.0383 15.5078Z" fill="#CCCDCF"/>
<path d="M32.0383 15.5078C14.6621 15.5078 0.558594 22.8061 0.558594 31.8159C0.558594 40.8257 14.6621 48.1377 32.0383 48.1377C49.4281 48.1377 63.5316 40.8257 63.5316 31.8159C63.5316 22.8061 49.4281 15.5078 32.0383 15.5078Z" fill="#CDCED0"/>
<path d="M32.0402 15.5078C14.6641 15.5078 0.574219 22.8061 0.574219 31.8159C0.574219 40.8257 14.6641 48.124 32.0539 48.124C49.4437 48.124 63.5336 40.8257 63.5336 31.8159C63.5336 22.8061 49.43 15.5078 32.0402 15.5078Z" fill="#CECFD1"/>
<path d="M32.0402 15.5078C14.6641 15.5078 0.574219 22.8061 0.574219 31.8159C0.574219 40.8257 14.6641 48.124 32.0539 48.124C49.4437 48.124 63.5336 40.8257 63.5336 31.8159C63.5199 22.8061 49.43 15.5078 32.0402 15.5078Z" fill="#CED0D2"/>
<path d="M32.0539 15.5176C14.6641 15.5176 0.574219 22.8158 0.574219 31.812C0.574219 40.8218 14.6641 48.1201 32.0402 48.1201C49.4163 48.1201 63.5199 40.8218 63.5199 31.812C63.5199 22.8158 49.43 15.5176 32.0539 15.5176Z" fill="#CFD1D2"/>
<path d="M32.0539 15.5176C14.6641 15.5176 0.574219 22.8158 0.574219 31.812C0.574219 40.8081 14.6641 48.1064 32.0402 48.1064C49.4163 48.1064 63.5062 40.8081 63.5062 31.812C63.5199 22.8158 49.43 15.5176 32.0539 15.5176Z" fill="#D0D1D3"/>
<path d="M32.0558 15.5176C14.6797 15.5176 0.589844 22.8158 0.589844 31.812C0.589844 40.8081 14.6797 48.1064 32.0558 48.1064C49.4319 48.1064 63.5218 40.8081 63.5218 31.812C63.5218 22.8158 49.4319 15.5176 32.0558 15.5176Z" fill="#D1D2D4"/>
<path d="M32.0558 15.5176C14.6797 15.5176 0.589844 22.8158 0.589844 31.812C0.589844 40.8081 14.6797 48.1064 32.0558 48.1064C49.4319 48.1064 63.5218 40.8081 63.5218 31.812C63.5081 22.8158 49.4319 15.5176 32.0558 15.5176Z" fill="#D2D3D5"/>
<path d="M32.0558 15.5332C14.6797 15.5332 0.589844 22.8178 0.589844 31.8139C0.589844 40.8101 14.6797 48.1083 32.0421 48.1083C49.4183 48.1083 63.5081 40.8101 63.5081 31.8139C63.5081 22.8178 49.4183 15.5332 32.0558 15.5332Z" fill="#D2D4D6"/>
<path d="M32.0538 15.5332C14.6777 15.5332 0.601562 22.8178 0.601562 31.8139C0.601562 40.81 14.6914 48.0946 32.0538 48.0946C49.43 48.0946 63.5061 40.7964 63.5061 31.8139C63.5061 22.8178 49.4163 15.5332 32.0538 15.5332Z" fill="#D3D5D6"/>
<path d="M32.0538 15.5332C14.6777 15.5332 0.601562 22.8178 0.601562 31.8139C0.601562 40.81 14.6777 48.0946 32.0538 48.0946C49.43 48.0946 63.5061 40.7964 63.5061 31.8139C63.5061 22.8178 49.4163 15.5332 32.0538 15.5332Z" fill="#D4D6D7"/>
<path d="M32.0538 15.5332C14.6777 15.5332 0.601562 22.8314 0.601562 31.8139C0.601562 40.81 14.6777 48.0946 32.0538 48.0946C49.4163 48.0946 63.5061 40.81 63.5061 31.8139C63.5061 22.8314 49.4163 15.5332 32.0538 15.5332Z" fill="#D5D6D8"/>
<path d="M32.0538 15.5488C14.6914 15.5488 0.601562 22.8334 0.601562 31.8158C0.601562 40.7983 14.6777 48.0965 32.0402 48.0965C49.4026 48.0965 63.4924 40.812 63.4924 31.8158C63.4924 22.8334 49.4163 15.5488 32.0538 15.5488Z" fill="#D6D7D9"/>
<path d="M32.0558 15.5488C14.6934 15.5488 0.617188 22.8334 0.617188 31.8158C0.617188 40.7983 14.6934 48.0965 32.0558 48.0965C49.4182 48.0965 63.4944 40.812 63.4944 31.8158C63.4944 22.8334 49.4182 15.5488 32.0558 15.5488Z" fill="#D7D8D9"/>
<path d="M32.0558 15.5488C14.6934 15.5488 0.617188 22.8334 0.617188 31.8158C0.617188 40.7983 14.6934 48.0828 32.0558 48.0828C49.4182 48.0828 63.4944 40.7983 63.4944 31.8158C63.4944 22.8334 49.4182 15.5488 32.0558 15.5488Z" fill="#D7D9DA"/>
<path d="M32.0558 15.5488C14.6934 15.5488 0.617188 22.8334 0.617188 31.8158C0.617188 40.7983 14.6934 48.0828 32.0558 48.0828C49.4182 48.0828 63.4944 40.7983 63.4944 31.8158C63.4944 22.8334 49.4182 15.5488 32.0558 15.5488Z" fill="#D8DADB"/>
<path d="M32.0558 15.5605C14.6934 15.5605 0.617188 22.8314 0.617188 31.8139C0.617188 40.7963 14.6934 48.0809 32.0421 48.0809C49.4045 48.0809 63.4807 40.7963 63.4807 31.8139C63.4807 22.8314 49.4182 15.5605 32.0558 15.5605Z" fill="#D9DADC"/>
<path d="M32.0577 15.5605C14.6953 15.5605 0.632812 22.8314 0.632812 31.8139C0.632812 40.7963 14.709 48.0809 32.0577 48.0809C49.4201 48.0809 63.4826 40.7963 63.4826 31.8139C63.4826 22.8314 49.4064 15.5605 32.0577 15.5605Z" fill="#DADBDD"/>
<path d="M32.0577 15.5605C14.709 15.5605 0.632812 22.8451 0.632812 31.8139C0.632812 40.7963 14.709 48.0672 32.0577 48.0672C49.4064 48.0672 63.4826 40.7826 63.4826 31.8139C63.4826 22.8451 49.4064 15.5605 32.0577 15.5605Z" fill="#DBDCDD"/>
<path d="M32.0577 15.5605C14.709 15.5605 0.632812 22.8451 0.632812 31.8139C0.632812 40.7963 14.6953 48.0672 32.0577 48.0672C49.4064 48.0672 63.4826 40.7826 63.4826 31.8139C63.4826 22.8451 49.4064 15.5605 32.0577 15.5605Z" fill="#DCDDDE"/>
<path d="M32.0518 15.5742C14.7031 15.5742 0.640625 22.8451 0.640625 31.8138C0.640625 40.7826 14.7031 48.0672 32.0518 48.0672C49.4006 48.0672 63.4767 40.7963 63.4767 31.8138C63.4631 22.8451 49.4006 15.5742 32.0518 15.5742Z" fill="#DCDEDF"/>
<path d="M32.0518 15.5742C14.7031 15.5742 0.640625 22.8451 0.640625 31.8138C0.640625 40.7826 14.7031 48.0672 32.0518 48.0672C49.4006 48.0672 63.463 40.7963 63.463 31.8138C63.463 22.8451 49.4006 15.5742 32.0518 15.5742Z" fill="#DDDEE0"/>
<path d="M32.0518 15.5742C14.7031 15.5742 0.640625 22.8451 0.640625 31.8138C0.640625 40.7826 14.7031 48.0535 32.0518 48.0535C49.4006 48.0535 63.463 40.7826 63.463 31.8138C63.463 22.8451 49.4006 15.5742 32.0518 15.5742Z" fill="#DEDFE0"/>
<path d="M32.0518 15.5742C14.7031 15.5742 0.640625 22.8451 0.640625 31.8138C0.640625 40.7826 14.7031 48.0535 32.0518 48.0535C49.4006 48.0535 63.463 40.7826 63.463 31.8138C63.463 22.8451 49.4006 15.5742 32.0518 15.5742Z" fill="#DFE0E1"/>
<path d="M32.0577 15.5898C14.7226 15.5898 0.660156 22.847 0.660156 31.8158C0.660156 40.7845 14.7226 48.0554 32.0577 48.0554C49.4064 48.0554 63.4689 40.7845 63.4689 31.8158C63.4689 22.847 49.4064 15.5898 32.0577 15.5898Z" fill="#E0E1E2"/>
<path d="M32.0577 15.5898C14.7226 15.5898 0.660156 22.8607 0.660156 31.8158C0.660156 40.7845 14.7226 48.0554 32.0577 48.0554C49.3927 48.0554 63.4552 40.7845 63.4552 31.8158C63.4552 22.8607 49.3927 15.5898 32.0577 15.5898Z" fill="#E0E2E3"/>
<path d="M32.0577 15.5898C14.7226 15.5898 0.660156 22.8607 0.660156 31.8158C0.660156 40.7845 14.7226 48.0417 32.0577 48.0417C49.3927 48.0417 63.4552 40.7708 63.4552 31.8158C63.4552 22.8607 49.3927 15.5898 32.0577 15.5898Z" fill="#E1E2E3"/>
<path d="M32.0557 15.5898C14.7207 15.5898 0.671875 22.8607 0.671875 31.8295C0.671875 40.7845 14.7207 48.0554 32.0694 48.0554C49.4044 48.0554 63.4669 40.7845 63.4669 31.8295C63.4532 22.8607 49.3907 15.5898 32.0557 15.5898Z" fill="#E2E3E4"/>
<path d="M32.0557 15.6035C14.7207 15.6035 0.671875 22.8607 0.671875 31.8294C0.671875 40.7845 14.7207 48.0554 32.0557 48.0554C49.3908 48.0554 63.4532 40.7845 63.4532 31.8294C63.4532 22.8607 49.3908 15.6035 32.0557 15.6035Z" fill="#E3E4E5"/>
<path d="M32.0557 15.6035C14.7207 15.6035 0.671875 22.8607 0.671875 31.8294C0.671875 40.7845 14.7207 48.0554 32.0557 48.0554C49.3907 48.0554 63.4395 40.7845 63.4395 31.8294C63.4395 22.8607 49.3907 15.6035 32.0557 15.6035Z" fill="#E4E5E6"/>
<path d="M32.0557 15.6035C14.7343 15.6035 0.671875 22.8607 0.671875 31.8294C0.671875 40.7845 14.7207 48.0417 32.0557 48.0417C49.3907 48.0417 63.4395 40.7845 63.4395 31.8294C63.4395 22.8607 49.3907 15.6035 32.0557 15.6035Z" fill="#E5E6E7"/>
<path d="M32.0537 15.6035C14.7324 15.6035 0.683594 22.8607 0.683594 31.8294C0.683594 40.7845 14.7324 48.0417 32.0674 48.0417C49.4025 48.0417 63.4512 40.7845 63.4512 31.8294C63.4375 22.8607 49.3888 15.6035 32.0537 15.6035Z" fill="#E5E6E7"/>
<path d="M32.0537 15.6152C14.7324 15.6152 0.683594 22.8724 0.683594 31.8275C0.683594 40.7825 14.7324 48.0397 32.0537 48.0397C49.3751 48.0397 63.4375 40.7825 63.4375 31.8275C63.4375 22.8724 49.3888 15.6152 32.0537 15.6152Z" fill="#E6E7E8"/>
<path d="M31.9942 16.3281C15.0151 16.3281 1.25391 23.2567 1.25391 31.8009C1.25391 40.3452 15.0151 47.2738 31.9942 47.2738C48.9732 47.2738 62.7344 40.3452 62.7344 31.8009C62.7344 23.2567 48.9732 16.3281 31.9942 16.3281Z" fill="url(#paint0_linear_10774_11158)"/>
<path d="M32.001 18.1777C16.09 18.1777 3.19141 24.3395 3.19141 31.939C3.19141 39.5385 16.09 45.7002 32.001 45.7002C47.912 45.7002 60.8106 39.5385 60.8106 31.939C60.8106 24.3395 47.912 18.1777 32.001 18.1777Z" stroke="#004E24" stroke-width="0.322287"/>
<path d="M31.9983 17.3672C15.6628 17.3672 2.42188 23.8439 2.42188 31.8131C2.42188 39.7959 15.6628 46.2589 31.9983 46.2589C48.3337 46.2589 61.5883 39.7822 61.5883 31.8131C61.5746 23.8439 48.3337 17.3672 31.9983 17.3672Z" stroke="#F5F0CC" stroke-width="0.611045"/>
<path d="M49.751 25.2414H44.9174L44.3287 27.0078H47.4506L43.8905 28.2949L43.6577 29.0069L49.1485 27.131L49.751 25.2414ZM19.4352 28.1991L18.778 30.075H14.0676C14.0676 30.075 14.1772 30.0339 14.3278 29.7189C14.4784 29.404 16.6556 23.0643 16.6556 23.0643C16.6556 23.0643 16.9568 22.3933 16.6145 22.229H19.3394C19.3394 22.229 19.1887 22.1879 18.9286 22.8589C18.778 23.2423 16.9568 28.336 16.9568 28.336H18.9286C18.9286 28.336 19.3804 28.3771 19.4352 28.1991ZM27.1853 30.075H29.4035C29.4035 30.075 29.2529 29.8422 29.3488 29.582C29.472 29.226 30.6496 25.8713 30.6496 25.8713L31.1699 30.075H33.1827L35.8118 22.5987C35.8118 22.5987 35.9213 22.2427 36.0719 22.2427H33.9358C33.9358 22.2427 33.9906 22.5029 33.9222 22.6946C33.84 22.9 32.635 26.2821 32.635 26.2821L32.1558 22.2427H29.8554C29.8554 22.2427 29.9786 22.4481 29.8965 22.6535C29.828 22.8315 27.4592 29.6368 27.4592 29.6368C27.4592 29.6368 27.3222 30.075 27.1853 30.075ZM39.8511 22.2427H37.3316C37.3316 22.2427 37.5233 22.5576 37.2769 23.297C37.0304 24.0364 35.0997 29.4862 35.0997 29.4862C35.0997 29.4862 34.9491 30.0065 34.7437 30.1023H37.7835C37.7835 30.1023 41.4669 30.253 42.6034 26.1999C42.5897 26.1862 44.0274 22.2016 39.8511 22.2427ZM40.125 26.5285C39.4814 28.1717 38.5229 28.2812 38.0163 28.2812H37.6603L39.1391 23.9269H39.7142C39.7005 23.9269 41.1793 23.8448 40.125 26.5285ZM10.6992 36.401H15.5328L16.1216 34.6346H12.9859L16.5597 33.3475L16.7925 32.6355L11.3017 34.5251L10.6992 36.401ZM24.4605 34.7579C25.3642 31.7181 22.3107 31.8002 22.3107 31.8002H19.175C19.4078 32.0604 19.2298 32.6218 19.2298 32.6218C19.2298 32.6218 17.2854 38.4412 17.1348 38.8931C16.9842 39.345 16.7103 39.6462 16.7103 39.6462H19.1887C19.1066 39.6462 19.1066 39.386 19.1066 39.386L19.9966 36.9213C19.9966 36.9213 21.1057 39.1943 21.1879 39.345C21.2563 39.5093 21.229 39.6325 21.229 39.6325H23.8717C23.6115 39.6325 23.3513 39.1259 23.3513 39.1259L22.0368 36.6475C23.858 36.6749 24.4605 34.7579 24.4605 34.7579ZM22.297 34.484C21.9547 35.2645 21.0099 35.1687 21.0099 35.1687H20.5306L21.0373 33.594H21.5576C22.6941 33.594 22.297 34.484 22.297 34.484ZM51.8049 34.8537C52.7771 31.6633 49.6825 31.8276 49.6825 31.8276H46.5743C46.807 32.0878 46.629 32.6492 46.629 32.6492C46.629 32.6492 44.6025 38.496 44.4519 38.9342C44.3013 39.386 44.0137 39.6736 44.0137 39.6736H46.6017C46.41 39.6736 46.5469 39.1943 46.5469 39.1943L47.3411 36.9487C47.3411 36.9487 48.4091 39.2217 48.4913 39.3723C48.5734 39.5367 48.5323 39.6599 48.5323 39.6599H51.2709C51.0107 39.6599 50.7369 39.1533 50.7369 39.1533L49.4224 36.6749C51.2572 36.7023 51.8049 34.8537 51.8049 34.8537ZM49.6141 34.5251C49.3265 35.2782 48.3954 35.2097 48.3954 35.2097H47.9162L48.4228 33.6488H49.1074C49.1074 33.6488 49.9427 33.6214 49.6141 34.5251ZM29.3762 31.5949C26.9525 31.5949 25.3779 33.5118 24.9671 35.8944C24.5974 38.0852 25.775 39.8379 27.733 39.8379C30.4716 39.8379 32.101 37.0309 32.101 35.018C32.101 32.9094 31.2658 31.5949 29.3762 31.5949ZM29.7322 35.9628C29.3351 37.606 28.582 38.1126 27.911 37.9894C26.9799 37.8114 27.1442 36.3052 27.2949 35.6068C27.6235 34.0869 28.4314 33.3612 29.0338 33.4297C29.2255 33.4571 30.321 33.4845 29.7322 35.9628ZM32.7446 31.8276C32.7446 31.8276 32.9363 31.9372 32.9363 32.4301V39.2217C32.9363 39.2217 32.9089 39.5914 32.772 39.6736H34.7985C34.7985 39.6736 34.7985 39.5093 35.0039 39.2491C35.2093 38.989 39.4266 33.06 39.4266 33.06C39.4266 33.06 40.3851 31.8139 40.6453 31.8139H37.7287C37.7287 31.8139 37.9615 31.9783 37.7835 32.2658C37.6055 32.5533 35.0176 36.6064 35.0176 36.6064L35.0586 32.526C35.0586 32.526 35.0586 31.8687 35.3051 31.8139L32.7446 31.8276ZM45.0407 33.6762L45.6979 31.8276H40.7685C40.7685 31.8276 40.9465 31.9919 40.7138 32.6492C40.481 33.3065 38.4818 38.9342 38.4818 38.9342C38.4818 38.9342 38.1258 39.6736 38.03 39.6736H43.11L43.7125 37.7977C43.7125 37.7977 43.6303 37.9072 43.1511 37.9072H41.0013L41.4532 36.6338H43.1374C43.1374 36.6338 43.4934 36.6064 43.5619 36.716L44.2465 34.7031C44.2465 34.7031 44.1917 34.8811 43.7399 34.8811H42.1241L42.6034 33.4845H44.6573C44.6573 33.4982 44.9311 33.4571 45.0407 33.6762ZM26.9251 30.0887C26.9251 30.0887 26.7471 29.9791 26.7061 29.6642L26.4048 22.763C26.4048 22.763 26.3911 22.3249 26.5965 22.229H24.1866C24.1866 22.229 24.3509 22.4481 24.036 22.941C23.7073 23.434 19.5995 29.8148 19.5995 29.8148C19.5995 29.8148 19.5174 29.9791 19.312 30.075H21.7493C21.7493 30.075 21.7356 29.8833 21.8041 29.7463C21.9136 29.5136 22.2148 28.9658 22.2148 28.9658H24.6658V29.6505C24.6658 29.6505 24.6795 29.897 24.5015 30.075H26.9251V30.0887ZM23.2692 27.1995L24.6248 24.8991L24.6385 27.1995H23.2692Z" fill="#F5F0CC"/>
<defs>
<linearGradient id="paint0_linear_10774_11158" x1="23.9106" y1="14.4707" x2="40.0706" y2="49.1257" gradientUnits="userSpaceOnUse">
<stop stop-color="#008948"/>
<stop offset="0.042" stop-color="#008847"/>
<stop offset="0.096" stop-color="#008244"/>
<stop offset="0.157" stop-color="#00793F"/>
<stop offset="0.222" stop-color="#006A37"/>
<stop offset="0.291" stop-color="#00572B"/>
<stop offset="0.319" stop-color="#004E24"/>
<stop offset="1"/>
</linearGradient>
</defs>
</svg>
