<svg width="64" height="64" viewBox="0 0 64 64" fill="none" xmlns="http://www.w3.org/2000/svg">
<path d="M51.2716 34.9941H50.3817L49.8516 36.6262H50.7023C50.896 36.6102 51.0876 36.5747 51.2741 36.5202C51.4319 36.4772 51.5739 36.3895 51.6831 36.2678C51.8076 36.1335 51.9023 35.9743 51.9608 35.8007C52.0454 35.5407 52.0454 35.3425 51.9608 35.2012C51.8762 35.0598 51.6389 34.9941 51.2716 34.9941Z" fill="url(#paint0_linear_11262_17870)"/>
<path d="M38.6608 29.7183C39.0787 29.7183 39.3917 29.664 39.6037 29.5416C39.8561 29.391 40.069 29.1824 40.2248 28.9332C40.4255 28.6441 40.6401 28.1758 40.8723 27.527C41.1702 26.6637 41.2687 26.0792 41.1588 25.7599C41.049 25.4405 40.7385 25.2891 40.2248 25.2891H39.7363L38.1875 29.7183H38.6608Z" fill="url(#paint1_linear_11262_17870)"/>
<path d="M20.9945 34.9941H20.1109L19.582 36.6262H20.429C20.623 36.6097 20.815 36.5742 21.0021 36.5202C21.1598 36.4755 21.3022 36.3881 21.4136 36.2678C21.5372 36.1328 21.6318 35.9738 21.6913 35.8007C21.772 35.5407 21.772 35.3425 21.6913 35.2012C21.6105 35.0598 21.3605 34.9941 20.9945 34.9941Z" fill="url(#paint2_linear_11262_17870)"/>
<path d="M24.9209 25.5508L23.1992 28.4653H24.6066L24.9209 25.5508Z" fill="url(#paint3_linear_11262_17870)"/>
<path d="M31.9995 17.7832C15.315 17.7832 1.69531 24.2207 1.69531 32.1173C1.69531 40.014 15.315 46.4528 31.9995 46.4528C48.6839 46.4528 62.3074 40.0153 62.3074 32.1173C62.3074 24.2194 48.6915 17.7832 31.9995 17.7832ZM45.7277 28.2018L46.2945 26.5243L51.8067 26.4334L50.7048 28.1337L45.2632 30.7162L48.1664 28.1072L45.7277 28.2018ZM41.3401 23.4507C41.9233 23.4507 42.3499 23.553 42.6403 23.7524C42.9295 23.9535 43.1337 24.2549 43.2133 24.5981C43.3167 25.0259 43.3343 25.4699 43.2651 25.9045C43.1872 26.4405 43.0549 26.967 42.87 27.476C42.562 28.3419 42.249 29.0173 41.9309 29.4956C41.6348 29.9438 41.2761 30.3472 40.8655 30.6935C40.5397 30.9822 40.1595 31.2028 39.7472 31.3423C39.3448 31.4742 38.9258 31.5486 38.5026 31.5632H35.5666L38.413 23.457L41.3401 23.4507ZM24.6115 23.4507H26.7573L26.308 31.5569H24.2442L24.402 30.2189H22.1539L21.3776 31.5569H19.358L24.6115 23.4507ZM16.3273 23.4507H18.2939L16.1481 29.5575H19.2217L18.5237 31.5569H13.4747L16.3273 23.4507ZM15.0651 37.8909L9.54779 37.9792L10.6497 36.2739L16.0951 33.6977L13.1919 36.3068L15.6281 36.2121L15.0651 37.8909ZM23.7746 35.5999C23.645 36.0193 23.4392 36.4113 23.1675 36.7561C22.9201 37.0699 22.6172 37.3356 22.2738 37.54C22.0219 37.6872 21.7484 37.7941 21.4635 37.8568C21.6234 37.9276 21.7689 38.0273 21.8926 38.1509C21.9721 38.2854 22.0349 38.4291 22.0794 38.5788C22.1356 38.7427 22.1749 38.9119 22.1968 39.0837L22.4127 41.4138H20.1343L19.8516 38.955C19.8162 38.6381 19.7632 38.4349 19.6849 38.3352C19.6325 38.2729 19.5664 38.2236 19.4917 38.1912C19.417 38.1588 19.3358 38.1441 19.2545 38.1484H19.0727L18.0137 41.4138H15.9891L18.6057 33.3783H21.9721C22.5932 33.3783 23.0463 33.4389 23.3366 33.579C23.627 33.7191 23.8062 33.9476 23.8958 34.3074C23.9854 34.6671 23.945 35.0912 23.7759 35.5999H23.7746ZM31.3557 37.3254C31.1074 38.1541 30.7235 38.9359 30.2197 39.6391C29.8012 40.212 29.2682 40.6917 28.6545 41.0478C28.0476 41.3811 27.3652 41.5528 26.6728 41.5464C25.9344 41.5464 25.3714 41.4 24.9851 41.1159C24.5989 40.8319 24.354 40.3586 24.2606 39.7414C24.1672 39.1241 24.2606 38.3352 24.5699 37.3961C24.999 36.0859 25.6301 35.0651 26.4632 34.3339C27.236 33.6244 28.248 33.2327 29.297 33.237C30.3838 33.237 31.1071 33.5942 31.4592 34.3099C31.8114 35.0256 31.7761 36.0341 31.357 37.3254H31.3557ZM31.7748 31.5569L30.9518 27.1062L29.3904 31.5569H27.5425L30.3863 23.4507H32.2254L33.0522 27.9342L34.625 23.4507H36.4817L33.6404 31.5569H31.7748ZM33.1519 41.4088L33.3009 33.3733H35.4151L34.9961 39.1531L38.3297 33.3733H40.3808L35.3407 41.4088H33.1519ZM45.3061 38.007H42.1669L41.6519 39.5836H45.1357L44.5463 41.4088H39.0365L41.6519 33.3733H47.0594L46.5002 35.0912H43.1187L42.6996 36.3661H45.8439L45.3061 38.007ZM54.051 35.5999C53.9204 36.0192 53.7142 36.411 53.4426 36.7561C53.1952 37.0708 52.8913 37.3367 52.5464 37.54C52.2959 37.6883 52.0231 37.7953 51.7386 37.8568C51.8992 37.9284 52.0458 38.028 52.1715 38.1509C52.2489 38.2863 52.3111 38.4298 52.3571 38.5788C52.4139 38.7424 52.4524 38.9117 52.472 39.0837L52.7004 41.4088H50.4107L50.128 38.9499C50.0977 38.6331 50.0472 38.4299 49.9664 38.3302C49.9129 38.2674 49.8457 38.2179 49.7699 38.1855C49.6942 38.1531 49.6119 38.1387 49.5296 38.1433H49.3542L48.2926 41.4088H46.2629L48.8796 33.3733H52.2397C52.8708 33.3733 53.324 33.4339 53.6118 33.574C53.7566 33.6413 53.8831 33.7428 53.9802 33.8696C54.0774 33.9964 54.1424 34.1449 54.1697 34.3023C54.2618 34.6557 54.2151 35.0912 54.0523 35.5999H54.051Z" fill="url(#paint4_linear_11262_17870)"/>
<path d="M28.6769 35.1152C28.273 35.1152 27.8918 35.292 27.5244 35.653C27.1571 36.014 26.8504 36.5883 26.5803 37.4087C26.3101 38.2292 26.2546 38.7972 26.3808 39.1544C26.5071 39.5117 26.7885 39.6871 27.2063 39.6871C27.4283 39.6848 27.6473 39.6372 27.8503 39.5474C28.0532 39.4575 28.2357 39.3273 28.3866 39.1645C28.7337 38.8199 29.0555 38.1951 29.3471 37.2964C29.5996 36.5391 29.6513 35.9912 29.515 35.6403C29.3787 35.2894 29.1035 35.1152 28.6769 35.1152Z" fill="url(#paint5_linear_11262_17870)"/>
<path d="M32.0006 16C14.3758 16 0 23.2441 0 32.1177C0 40.9913 14.3771 48.2316 32.0006 48.2316C49.6242 48.2316 64 40.9939 64 32.1177C64 23.2415 49.628 16 32.0006 16ZM32.0006 47.2938C14.7671 47.2938 0.711911 40.4776 0.711911 32.1177C0.711911 23.7578 14.7684 16.9442 32.0006 16.9442C49.2329 16.9442 63.2919 23.7603 63.2919 32.1177C63.2919 40.4751 49.238 47.2938 32.0006 47.2938Z" fill="url(#paint6_linear_11262_17870)"/>
<defs>
<linearGradient id="paint0_linear_11262_17870" x1="33.821" y1="35.8096" x2="35.9933" y2="35.8096" gradientUnits="userSpaceOnUse">
<stop offset="0.52" stop-color="#027F48"/>
<stop offset="1" stop-color="#0C6535"/>
</linearGradient>
<linearGradient id="paint1_linear_11262_17870" x1="37.1714" y1="27.5056" x2="40.1932" y2="27.5056" gradientUnits="userSpaceOnUse">
<stop offset="0.52" stop-color="#027F48"/>
<stop offset="1" stop-color="#0C6535"/>
</linearGradient>
<linearGradient id="paint2_linear_11262_17870" x1="11.3736" y1="35.8096" x2="24.679" y2="35.8096" gradientUnits="userSpaceOnUse">
<stop offset="0.52" stop-color="#027F48"/>
<stop offset="1" stop-color="#0C6535"/>
</linearGradient>
<linearGradient id="paint3_linear_11262_17870" x1="23.1992" y1="27.0074" x2="24.9209" y2="27.0074" gradientUnits="userSpaceOnUse">
<stop offset="0.52" stop-color="#027F48"/>
<stop offset="1" stop-color="#0C6535"/>
</linearGradient>
<linearGradient id="paint4_linear_11262_17870" x1="10.1625" y1="20.6006" x2="53.4388" y2="43.4221" gradientUnits="userSpaceOnUse">
<stop offset="0.25" stop-color="#0C6535"/>
<stop offset="0.52" stop-color="#027F48"/>
<stop offset="0.75" stop-color="#0C6535"/>
</linearGradient>
<linearGradient id="paint5_linear_11262_17870" x1="20.0065" y1="37.4012" x2="37.245" y2="37.4012" gradientUnits="userSpaceOnUse">
<stop offset="0.52" stop-color="#027F48"/>
<stop offset="1" stop-color="#0C6535"/>
</linearGradient>
<linearGradient id="paint6_linear_11262_17870" x1="0.00126225" y1="32.1152" x2="64.0013" y2="32.1152" gradientUnits="userSpaceOnUse">
<stop offset="0.25" stop-color="#0C6535"/>
<stop offset="0.52" stop-color="#027F48"/>
<stop offset="0.75" stop-color="#0C6535"/>
</linearGradient>
</defs>
</svg>
