<svg width="64" height="64" viewBox="0 0 64 64" fill="none" xmlns="http://www.w3.org/2000/svg">
<path d="M32.0052 62.5556C42.6004 62.5556 52.0032 57.6389 57.829 50.0695L52.5785 50.0972C47.6208 55.6389 40.3621 59.125 32.1412 59.125C16.7975 59.125 4.83216 46.9861 4.83216 32.0139C4.83216 14.7361 16.808 4.90279 32.1412 4.90279C33.1139 4.90279 33.8983 5.50001 33.3126 6.62501C30.1225 11.7222 21.0439 28.125 19.3914 31.6806C16.1281 38.6806 16.2013 47.3056 24.2026 47.9167H57.8395C59.5548 47.9167 59.994 46.8472 60.6111 45.7361C62.8599 41.6945 64.0104 36.9584 63.9999 32.0278C63.9895 19.1528 57.1701 9.5139 47.1397 4.7639L45.5917 7.84724C53.9277 11.9306 59.4397 20.1945 59.4397 32.0278C59.4397 34.0834 59.2096 36.0834 58.7808 38.0139C58.4042 39.6806 57.6826 41.0972 56.3019 41.0972H29.4636C26.0225 41.0972 27.3508 36.3889 28.6269 34.0972C30.4782 29.6945 40.5922 11.3889 43.0292 7.97223C43.6463 6.72223 45.393 4.12501 42.9874 3.1389C39.5672 2.05557 35.8646 1.50001 32.0052 1.50001C14.3291 1.48612 0.0104649 13.5417 5.71803e-06 32.0139C-0.0104535 50.6667 14.3291 62.5556 32.0052 62.5556Z" fill="black"/>
</svg>
