<svg width="64" height="64" viewBox="0 0 64 64" fill="none" xmlns="http://www.w3.org/2000/svg">
<path fill-rule="evenodd" clip-rule="evenodd" d="M32 7C49.6701 7 64 18.0923 64 31.7701C64 45.448 49.6701 56.5403 32 56.5403C14.3299 56.5403 0 45.448 0 31.7701C0 18.0923 14.3299 7 32 7ZM32 9.51474C46.8234 9.51474 58.8448 19.4809 58.8448 31.7701C58.8448 44.0594 46.8234 54.0255 32 54.0255C17.1766 54.0255 5.1552 44.0594 5.1552 31.7701C5.1552 19.4809 17.1766 9.51474 32 9.51474Z" fill="#E31C2A"/>
<path fill-rule="evenodd" clip-rule="evenodd" d="M14.2095 42.6872C19.3489 41.4795 24.6428 37.1528 26.8263 32.0385L33.0607 17.4355H21.1287L9.30859 47.1094C14.1166 47.1094 18.9246 47.1094 23.7326 47.1094L25.0213 43.7504H13.772L14.2095 42.6872Z" fill="#E31C2A"/>
<path fill-rule="evenodd" clip-rule="evenodd" d="M29.0716 39.4205C33.5461 38.369 38.1552 34.602 40.0561 30.1493L45.484 17.4355H35.0956L24.8047 43.2706C28.9907 43.2706 33.1767 43.2706 37.3627 43.2706L38.4847 40.3461H28.6906L29.0716 39.4205Z" fill="#E31C2A"/>
<path fill-rule="evenodd" clip-rule="evenodd" d="M42.4307 36.6419C46.3397 35.7233 50.3663 32.4324 52.027 28.5425L56.7689 17.4355H47.6934L38.7031 40.0054C42.36 40.0054 46.017 40.0054 49.674 40.0054L50.6542 37.4506H42.098L42.4307 36.6419Z" fill="#E31C2A"/>
</svg>
