<?xml version="1.0" encoding="UTF-8" standalone="no"?>
<svg
   xmlns:dc="http://purl.org/dc/elements/1.1/"
   xmlns:cc="http://creativecommons.org/ns#"
   xmlns:rdf="http://www.w3.org/1999/02/22-rdf-syntax-ns#"
   xmlns:svg="http://www.w3.org/2000/svg"
   xmlns="http://www.w3.org/2000/svg"
   id="06aa20c4-1e26-11ed-beb4-0242ac110005"
   version="1.1"
   width="612.0pt"
   viewBox="0 0 612.0 792.0"
   height="792.0pt">
  <metadata
     id="metadata23">
    <rdf:RDF>
      <cc:Work
         rdf:about="">
        <dc:format>image/svg+xml</dc:format>
        <dc:type
           rdf:resource="http://purl.org/dc/dcmitype/StillImage" />
      </cc:Work>
    </rdf:RDF>
  </metadata>
  <defs
     id="defs21" />
  <g
     id="g2" />
  <g
     id="g12">
    <path
       id="path4"
       d="M 333.3963,213.052 C 463.8988,213.052 569.7326,294.9741 569.7326,395.9921 569.7326,497.01 463.8988,578.9322 333.3963,578.9322 202.8937,578.9322 97.06,497.01 97.06,395.9921 97.06,294.9741 202.8937,213.052 333.3963,213.052 Z M 333.3963,231.6246 C 442.8748,231.6246 531.6588,305.2298 531.6588,395.9921 531.6588,486.7543 442.8748,560.3596 333.3963,560.3596 223.9177,560.3596 135.1338,486.7543 135.1338,395.9921 135.1338,305.2298 223.9177,231.6246 333.3963,231.6246 Z"
       style="fill-rule:evenodd;fill:#e31c2a;" />
    <path
       id="path6"
       d="M 202.0062,476.6247 C 239.9632,467.7052 279.0618,435.75 295.1875,397.9783 L 341.2321,290.1283 253.1078,290.1283 165.8106,509.2849 C 201.3199,509.2849 236.8298,509.2849 272.3391,509.2849 L 281.8573,484.4772 198.775,484.4772 202.0062,476.6247 Z"
       style="fill-rule:evenodd;fill:#e31c2a;" />
    <path
       id="path8"
       d="M 311.7773,452.4981 C 344.8239,444.7325 378.8644,416.9112 392.904,384.026 L 432.9918,290.1283 356.268,290.1283 280.2643,480.9331 C 311.1798,480.9331 342.0959,480.9331 373.0114,480.9331 L 381.2983,459.3347 308.9641,459.3347 311.7773,452.4981 Z"
       style="fill-rule:evenodd;fill:#e31c2a;" />
    <path
       id="path10"
       d="M 410.4416,431.9768 C 439.3116,425.1927 469.0499,400.8877 481.315,372.1587 L 516.3364,290.1283 449.3093,290.1283 382.9114,456.8181 C 409.9196,456.8181 436.9284,456.8181 463.9366,456.8181 L 471.1761,437.9495 407.984,437.9495 410.4416,431.9768 Z"
       style="fill-rule:evenodd;fill:#e31c2a;" />
  </g>
  <g
     id="g14" />
  <g
     id="g16" />
</svg>
