<svg width="64" height="64" viewBox="0 0 64 64" fill="none" xmlns="http://www.w3.org/2000/svg">
<g clip-path="url(#clip0_10704_18031)">
<path d="M37.5065 30.5043C37.4541 18.7257 36.8125 5.46933 35.7388 1.31857L32.3082 -0.0722656L28.8776 1.31857C27.8039 5.46933 27.1623 18.704 27.1099 30.4826L25.6172 30.6782V33.1773L27.1099 33.3729C27.1623 45.1515 27.8039 58.4079 28.8776 62.5369L32.3082 63.9277L35.7388 62.5369C36.8125 58.3861 37.4541 45.1515 37.5065 33.3512L38.9599 33.1556V30.6564L37.5065 30.5043ZM29.9382 59.2119C28.9692 52.3012 28.7728 40.8921 28.6943 33.5033L31.1298 33.8075L31.5619 59.2119H29.9382ZM31.1298 30.0914L28.6943 30.3956C28.7728 23.0069 28.9692 11.5977 29.9382 4.68699H31.5488L31.1298 30.0914ZM34.6782 59.2119H33.0284L33.4605 33.8075L35.9221 33.5033C35.8436 40.8921 35.6603 52.3012 34.6782 59.2119ZM33.4605 30.0914L33.0284 4.68699H34.6782C35.6472 11.5977 35.8436 23.0069 35.9221 30.3956L33.4605 30.0914Z" fill="black"/>
</g>
<defs>
<clipPath id="clip0_10704_18031">
<rect width="64" height="64" fill="white"/>
</clipPath>
</defs>
</svg>
