<svg width="64" height="69" viewBox="0 0 64 69" fill="none" xmlns="http://www.w3.org/2000/svg">
<path d="M32 66C49.6731 66 64 51.6731 64 34C64 16.3269 49.6731 2 32 2C14.3269 2 0 16.3269 0 34C0 51.6731 14.3269 66 32 66Z" fill="#FFF200"/>
<path d="M6.90486 34.4426C5.7639 35.916 5.08594 37.7645 5.08594 39.7723C5.08594 40.1195 5.10682 40.4616 5.14686 40.7984C5.44537 43.3423 6.83872 45.5519 8.84389 46.9409C8.84389 46.9409 14.7663 51.5596 32.0643 51.5596C49.3615 51.5596 55.1551 46.9409 55.1551 46.9409C57.1254 45.5754 58.5057 43.4188 58.8364 40.9307C58.8869 40.5521 58.9139 40.1657 58.9139 39.7732C58.9139 37.7654 58.2351 35.9169 57.095 34.4435C57.095 34.4435 43.0153 17.9539 39.6707 14.605L39.6612 14.5954C37.6951 12.6329 34.9911 11.418 32.0008 11.418C29.0104 11.418 26.2908 12.6329 24.3248 14.5954C24.3248 14.5954 24.3221 14.598 24.316 14.6041C20.9515 17.9304 6.90486 34.4426 6.90486 34.4426Z" fill="#062E28"/>
<path d="M54.2491 40.2165C53.9567 39.8754 53.6068 39.6256 53.1986 39.4672C52.7905 39.3088 52.2665 39.1513 51.626 38.9929C51.0098 38.851 50.5512 38.7074 50.2509 38.5621C49.9507 38.4167 49.801 38.1939 49.801 37.8937C49.801 37.5943 49.9307 37.3524 50.1909 37.1696C50.4511 36.9868 50.8532 36.8946 51.3971 36.8946C52.1734 36.8946 52.9497 37.1235 53.726 37.5813L54.3265 36.0452C53.9427 35.7954 53.4937 35.6039 52.9819 35.4708C52.4693 35.3376 51.9454 35.2715 51.4093 35.2715C50.6408 35.2715 49.9907 35.3925 49.4581 35.6335C48.9255 35.8755 48.5277 36.2018 48.2632 36.6135C47.9995 37.0251 47.8672 37.4855 47.8672 37.9929C47.8672 38.576 48.0134 39.0416 48.3058 39.3915C48.5982 39.7413 48.9481 39.9955 49.3563 40.153C49.7644 40.3114 50.2884 40.4698 50.9289 40.6273C51.3449 40.7274 51.6747 40.8188 51.9193 40.9023C52.163 40.9859 52.3631 41.0955 52.5198 41.233C52.6756 41.3705 52.7539 41.5437 52.7539 41.7509C52.7539 42.0337 52.6216 42.2608 52.3579 42.4314C52.0942 42.602 51.6852 42.6873 51.1334 42.6873C50.6373 42.6873 50.1413 42.6046 49.6443 42.4375C49.1483 42.2713 48.7201 42.0502 48.3598 41.7761L48.1605 41.6151L47.9359 43.468C48.2771 43.6916 48.6957 43.8787 49.1944 44.0293C49.8149 44.2164 50.4572 44.3104 51.1212 44.3104C51.8897 44.3104 52.5416 44.1894 53.0785 43.9484C53.6146 43.7073 54.0167 43.3801 54.2848 42.9684C54.5528 42.5568 54.6868 42.1007 54.6868 41.6012C54.6868 41.0198 54.5406 40.5577 54.2491 40.2165Z" fill="#FFF200"/>
<path d="M22.4448 35.252C19.9427 35.252 17.9141 37.2806 17.9141 39.7827C17.9141 42.2848 19.9427 44.3135 22.4448 44.3135C24.9469 44.3135 26.9756 42.2848 26.9756 39.7827C26.9756 37.2806 24.9469 35.252 22.4448 35.252ZM22.4448 42.5041C20.9383 42.5041 19.7165 41.2823 19.7165 39.7758C19.7165 38.2693 20.9383 37.0474 22.4448 37.0474C23.9513 37.0474 25.1732 38.2693 25.1732 39.7758C25.1732 41.2823 23.9513 42.5041 22.4448 42.5041Z" fill="#FFF200"/>
<path d="M43.7123 35.4032V37.0594V40.4074C43.7123 41.5179 42.8124 42.4178 41.7019 42.4178C40.5914 42.4178 39.6915 41.5179 39.6915 40.4074V37.0594V35.4633H37.7969V40.4074C37.7969 42.564 39.5453 44.3125 41.7019 44.3125C43.8585 44.3125 45.6069 42.564 45.6069 40.4074V35.4023H43.7123V35.4032Z" fill="#FFF200"/>
<path d="M35.5723 35.4043H28.4446L28.2227 37.2345H31.0511V44.1804H32.9562V37.2345H35.7934L35.5723 35.4043Z" fill="#FFF200"/>
<path d="M16.9715 42.338H12.2527V35.4043H10.3477V44.1804H16.7487L16.9715 42.338Z" fill="#FFF200"/>
<path d="M32.0013 30.1807C28.8482 30.1807 26.2216 27.9309 25.6368 24.9493L25.6403 24.9458L26.4201 24.166H29.393C29.5906 25.2443 30.4426 26.0963 31.52 26.2939V28.3809H33.7401C35.1683 28.3809 36.3293 27.2216 36.3293 25.7961C36.3293 24.9267 35.8985 24.1564 35.2379 23.6874C35.8976 23.2174 36.3293 22.4463 36.3293 21.5769C36.3293 20.1487 35.1674 18.9877 33.7401 18.9877H31.3581C30.6532 18.9877 29.9874 19.2584 29.4774 19.7553L25.5141 23.7187C25.5141 23.7117 25.5141 23.7039 25.5141 23.6969C25.5141 20.1148 28.4174 17.2115 31.9995 17.2115C34.5652 17.2115 36.7827 18.7014 37.834 20.8624H38.881C37.7679 18.154 35.103 16.248 31.9943 16.248C27.883 16.248 24.5507 19.5804 24.5507 23.6917C24.5507 24.0076 24.5707 24.3192 24.609 24.6255L20.8945 28.34H22.2478L24.8387 25.7491C25.7316 28.8595 28.5967 31.1354 31.9943 31.1354C35.0874 31.1354 37.7392 29.2494 38.8636 26.5646H37.8192C36.7618 28.7055 34.5539 30.1807 32.0013 30.1807ZM30.3059 23.6874C30.3059 22.9198 30.8194 22.2714 31.52 22.0643V25.3105C30.8194 25.1033 30.3059 24.4541 30.3059 23.6874ZM35.3737 25.7961C35.3737 26.6934 34.6418 27.4235 33.741 27.4235H32.4773V26.293C33.2084 26.159 33.835 25.7247 34.2249 25.1225H32.8925C32.7645 25.2025 32.6253 25.2669 32.4765 25.3105V24.1652H33.7401C34.6409 24.1652 35.3737 24.8971 35.3737 25.7961ZM32.4773 22.0634C32.6253 22.1078 32.7645 22.1713 32.8933 22.2514H34.2258C33.8359 21.6491 33.2093 21.2148 32.4782 21.0808V19.9442H33.7419C34.6418 19.9442 35.3746 20.6761 35.3746 21.5769C35.3746 22.4768 34.6426 23.2096 33.7419 23.2096H32.4782V22.0634H32.4773ZM30.151 20.4351C30.4765 20.1183 30.9047 19.9442 31.359 19.9442H31.5209V21.0817C30.4426 21.2792 29.5914 22.1313 29.3939 23.2096H27.3783L30.151 20.4351Z" fill="#FFF200"/>
</svg>
