<svg width="64" height="64" viewBox="0 0 64 64" fill="none" xmlns="http://www.w3.org/2000/svg">
<path d="M30.3927 16C21.4885 16.0017 13.4714 19.0583 12.5551 23.1548C11.946 25.8797 14.7693 28.6751 19.0841 30.3107C24.1313 25.6958 29.8397 20.8133 37.2867 17.4597C30.4981 21.856 25.4905 26.6866 21.4112 31.1037C22.783 31.4647 24.282 31.7951 25.8698 31.9785C28.1625 28.4162 30.7147 23.9835 38.2534 17.5318C32.777 24.16 30.2225 28.0961 28.0106 32.2565C36.1619 32.9907 45.6465 31.9624 47.9059 24.7592C48.8818 20.3888 41.8342 16.496 32.1828 16.0531C31.5866 16.0217 30.9897 16.004 30.3927 16ZM30.0701 16.6667C33.6836 16.6246 36.5166 17.0271 36.5166 17.0271C29.5108 19.5508 24.5748 22.134 18.0728 25.84C18.1358 25.9034 12.9419 25.0804 16.6757 20.7579C19.4938 17.4949 25.4246 16.7209 30.0701 16.6667ZM39.2206 17.8743C39.2206 17.8743 43.9624 18.4787 45.1302 22.7043C46.4149 27.3573 34.2371 29.223 33.4188 28.5252C35.6719 23.044 36.3372 22.9973 39.2206 17.8743Z" fill="#FF0000"/>
<path d="M7.26819 39.0156C6.66308 39.0156 6.1531 39.1171 5.72505 39.323C5.297 39.5289 4.87067 39.8882 4.45008 40.3755V39.1915H1.54257C0.766129 39.1909 0.295679 39.7481 0 40.5728C0.638918 40.6558 1.46865 40.368 1.54257 41.5595V47.1946H4.67356V43.1161C4.67356 42.5082 4.77842 42.067 5.00935 41.8012C5.2397 41.5342 5.54512 41.4061 5.90383 41.4061C6.10857 41.4065 6.30786 41.4726 6.47273 41.5948C6.63761 41.7169 6.75949 41.8888 6.82066 42.0855C6.86192 42.2112 6.88771 42.4356 6.88771 42.7874V47.1946H10.0187V43.0723C10.0187 42.4944 10.1287 42.0838 10.3545 41.8225C10.5797 41.5613 10.8799 41.428 11.2484 41.428C11.5613 41.428 11.8214 41.5682 12.0317 41.8444C12.175 42.0203 12.2552 42.2723 12.2552 42.6339V47.1946H15.3862V42.1737C15.3862 41.0883 15.1398 40.2936 14.6481 39.7832C14.1559 39.2734 13.4671 39.0162 12.591 39.0162C11.9962 39.0162 11.4971 39.1125 11.092 39.3011C10.6874 39.4897 10.2422 39.853 9.75052 40.3755C9.50985 39.928 9.1901 39.5929 8.81076 39.3668C8.432 39.1408 7.91914 39.0162 7.26819 39.0162V39.0156ZM33.6352 39.1039C32.9859 39.0583 32.4032 39.3801 32.3378 39.8271C32.2719 40.2746 32.7395 40.6806 33.3888 40.7267C34.038 40.7717 34.6208 40.428 34.6861 39.9811C34.752 39.5335 34.2844 39.1488 33.6352 39.1039ZM24.6445 39.1696C23.9929 39.3172 24.0588 39.6396 23.8394 39.8928C24.1964 39.9926 24.6301 39.887 24.6445 40.77V47.1946H26.9257V44.4102C26.9257 43.8797 27.0002 43.5181 27.1721 43.3139C27.3434 43.1092 27.5674 43.0065 27.8425 43.0065C28.0923 43.0065 28.2866 43.0746 28.4241 43.2257C28.5616 43.3773 28.6476 43.6282 28.6476 43.9933V47.1946H30.9288V43.5111C30.9288 42.747 30.7483 42.1697 30.3924 41.8006C30.036 41.4315 29.5575 41.2527 28.9387 41.2527C28.521 41.2527 28.1479 41.3144 27.8425 41.45C27.5371 41.5849 27.2351 41.8156 26.9257 42.1293V39.1696H24.6445ZM47.724 39.1696C47.1831 39.1811 47.1206 39.5133 46.9413 39.7613C47.355 39.7613 47.5865 40.0358 47.724 40.4413V41.954C47.5029 41.7251 47.2361 41.5458 46.9413 41.428C46.635 41.3077 46.3085 41.2482 45.9797 41.2527C45.2532 41.2527 44.6618 41.5082 44.1908 42.0197C43.7192 42.5319 43.4751 43.2701 43.4751 44.2343C43.4751 45.0971 43.6968 45.8244 44.1237 46.427C44.5506 47.0303 45.1712 47.3267 45.9803 47.3267C46.3826 47.3267 46.7482 47.2535 47.0759 47.0851C47.3218 46.957 47.5825 46.705 47.881 46.3394V47.1946H50.0276V39.1696H47.724ZM19.9709 41.2527C19.5457 41.2527 19.1509 41.2781 18.7853 41.3404C18.4203 41.4027 18.1218 41.4903 17.9132 41.6034C17.6227 41.7602 17.3975 41.9598 17.2428 42.1737C17.088 42.3871 16.9889 42.6778 16.907 43.0503L19.0759 43.2695C19.1658 43.0175 19.2884 42.8346 19.434 42.7435C19.6202 42.6265 19.8884 42.5682 20.2614 42.5682C20.552 42.5682 20.7496 42.634 20.8654 42.7435C20.9806 42.8531 21.0442 43.0394 21.0442 43.3139C20.7611 43.4235 20.4924 43.5094 20.2391 43.5769C19.9858 43.6444 19.4374 43.7597 18.5842 43.9275C17.8719 44.0659 17.3728 44.2782 17.1081 44.5636C16.8434 44.8485 16.7282 45.2176 16.7282 45.6594C16.7282 46.1312 16.8972 46.5222 17.2645 46.844C17.6313 47.1652 18.1665 47.3261 18.8747 47.3261C19.4076 47.3261 19.8809 47.2454 20.2838 47.0851C20.6157 46.9448 20.9189 46.744 21.1783 46.4928C21.2046 46.6612 21.2195 46.7869 21.2453 46.8659C21.2717 46.9443 21.3387 47.0447 21.4241 47.1946H23.5489C23.4518 47.0068 23.3768 46.8082 23.3254 46.6029C23.2898 46.4472 23.2807 46.2407 23.2807 45.9668V43.4016C23.2807 43.127 23.2136 42.826 23.1019 42.5244C22.9896 42.2228 22.848 41.9869 22.6544 41.8225C22.3787 41.5849 22.0172 41.4373 21.6034 41.3623C21.1897 41.2873 20.6528 41.2527 19.9703 41.2527H19.9709ZM40.3888 41.2527C39.9229 41.2527 39.5281 41.3277 39.2038 41.4938C38.8794 41.6599 38.5586 41.9396 38.2417 42.3271V41.3842H36.1175C35.6734 41.3957 35.6018 41.7245 35.4912 41.9321C35.8063 41.9684 36.0762 42.0838 36.1175 42.5895V47.1946H38.3981V44.4102C38.3981 43.8797 38.4726 43.5181 38.6445 43.3139C38.8164 43.1092 39.0399 43.0065 39.3149 43.0065C39.5654 43.0065 39.759 43.0746 39.8971 43.2257C40.0347 43.3773 40.1206 43.6282 40.1206 43.9933V47.1946H42.4012V43.5111C42.4012 42.7441 42.2207 42.168 41.8649 41.8006C41.509 41.4332 41.0185 41.2527 40.3888 41.2527ZM55.0151 41.2527C54.6942 41.2527 54.4278 41.3386 54.21 41.4938C53.9917 41.6495 53.7659 41.9142 53.5614 42.3271V41.3842H51.4366C50.9209 41.3854 50.9782 41.6956 50.922 41.954C51.1409 42.0538 51.4137 42.0215 51.4366 42.5682V47.1946H53.7172V45.243C53.7172 44.311 53.841 43.6755 54.0754 43.3358C54.2398 43.0942 54.4708 42.9846 54.7687 42.9846C54.9252 42.9846 55.1492 43.0284 55.4174 43.138L56.1107 41.5595C55.7119 41.3548 55.3503 41.2527 55.0151 41.2527ZM59.4652 41.2527C59.0406 41.2527 58.6458 41.2781 58.2802 41.3404C57.9146 41.4027 57.6166 41.4903 57.4081 41.6034C57.117 41.7602 56.8918 41.9598 56.7371 42.1737C56.5823 42.3871 56.4832 42.6778 56.4013 43.0503L58.5707 43.2695C58.6601 43.0175 58.7827 42.8346 58.9283 42.7435C59.1151 42.6265 59.3833 42.5682 59.7557 42.5682C60.0468 42.5682 60.2445 42.634 60.3597 42.7435C60.4754 42.8531 60.5385 43.0394 60.5385 43.3139C60.2554 43.4235 59.9872 43.5094 59.7334 43.5769C59.4801 43.6444 58.9323 43.7597 58.0785 43.9275C57.3668 44.0659 56.8671 44.2782 56.603 44.5636C56.3382 44.8485 56.2225 45.2176 56.2225 45.6594C56.2225 46.1312 56.3921 46.5222 56.7594 46.844C57.1261 47.1652 57.6613 47.3261 58.3696 47.3261C58.9025 47.3261 59.3758 47.2454 59.7781 47.0851C60.1102 46.9449 60.4136 46.7441 60.6731 46.4928C60.6989 46.6612 60.7138 46.7869 60.7402 46.8659C60.766 46.9443 60.833 47.0447 60.919 47.1946H63.0437C62.924 46.9536 62.8552 46.7581 62.8202 46.6029C62.7853 46.4478 62.775 46.2407 62.775 45.9668V43.4016C62.775 43.127 62.7079 42.826 62.5962 42.5244C62.4845 42.2228 62.3429 41.9869 62.1492 41.8225C61.873 41.5849 61.5115 41.4373 61.0977 41.3623C60.684 41.2873 60.1471 41.2527 59.4652 41.2527ZM32.3825 41.3842V47.1946H34.6637V41.3842H32.3825ZM46.6954 42.9189C46.9974 42.9189 47.2358 43.0227 47.4335 43.2476C47.6312 43.4725 47.7464 43.8214 47.7464 44.2782C47.7464 44.7828 47.6495 45.1519 47.4558 45.3745C47.2622 45.5977 47.0089 45.7032 46.7178 45.7032C46.4456 45.7032 46.209 45.596 46.0244 45.3745C45.8399 45.1536 45.7563 44.7978 45.7563 44.322C45.7563 43.8145 45.8457 43.4633 46.0244 43.2482C46.2032 43.0325 46.4313 42.9194 46.6954 42.9194V42.9189ZM21.0442 44.4322V44.8047C21.0442 45.0827 21.0012 45.3111 20.9101 45.4847C20.8184 45.6577 20.658 45.8019 20.4402 45.923C20.2225 46.0441 20.0007 46.0983 19.7469 46.0983C19.505 46.0983 19.3131 46.0349 19.1882 45.923C19.0632 45.8117 19.0088 45.6819 19.0088 45.5066C19.0088 45.3526 19.061 45.2101 19.1882 45.0896C19.3108 44.9725 19.5979 44.8595 20.0603 44.739C20.3995 44.6548 20.7307 44.5417 21.0442 44.4322ZM60.5385 44.4322V44.8047C60.5385 45.0827 60.4961 45.3111 60.4044 45.4847C60.3127 45.6577 60.1528 45.8019 59.9345 45.923C59.7168 46.0441 59.495 46.0983 59.2412 46.0983C58.9993 46.0983 58.8074 46.0349 58.6825 45.923C58.5575 45.8117 58.5037 45.6819 58.5037 45.5066C58.5037 45.3526 58.5553 45.2101 58.6825 45.0896C58.8057 44.9725 59.0927 44.8595 59.5546 44.739C59.8938 44.6548 60.2256 44.5417 60.5385 44.4322Z" fill="#666666"/>
</svg>
