<svg width="64" height="64" viewBox="0 0 64 64" fill="none" xmlns="http://www.w3.org/2000/svg">
<path d="M26.7492 53.8112H37.2508V56.7223H26.7492V53.8112ZM28.1223 58.1778H35.9381V64H28.1223V58.1778ZM17.5603 39.2559H46.4397V40.7114H17.5603V39.2559ZM16.2476 42.1669H47.7524V43.6225H16.2476V42.1669ZM16.2476 36.3448H47.7524V37.8003H16.2476V36.3448ZM37.6827 47.1056C35.9289 48.9803 35.9381 52.3557 35.9381 52.3557H28.0619C28.0619 52.3557 28.0724 48.9803 26.3186 47.1056C25.0991 45.7927 23.5488 45.5205 23.5488 45.5205C22.5708 45.2978 22.8124 45.1493 22.8124 45.078H41.1902C41.1902 45.078 41.3018 45.2861 40.3252 45.5205C40.3252 45.5205 38.8983 45.7927 37.6827 47.1056ZM17.5603 45.078C17.9068 45.078 21.0114 45.078 21.4984 45.078C21.4984 46.8712 20.4101 47.8828 18.873 47.9818C18.4634 48.008 18.0223 47.9687 17.5603 47.8624C17.5603 46.4098 17.5603 45.8145 17.5603 45.078ZM17.5603 34.8892C17.5603 31.9782 17.2885 26.8081 15.6949 20.8942C13.9503 14.4113 10.7762 10.6254 11.0125 10.2412C11.2278 9.87874 14.0186 10.5323 16.195 12.1916C18.5172 13.9659 21.6664 17.187 21.4984 17.4053C21.396 17.5407 20.6924 17.3515 19.2799 16.7707C17.7769 16.1492 16.2476 15.9672 16.2476 15.9672C16.2476 15.9672 18.6603 19.9307 19.8956 24.8882C20.9313 29.0482 21.4695 34.422 21.4984 34.8892H17.5603ZM46.4397 34.8892H42.5016C42.5292 34.422 43.0687 29.0482 44.1044 24.8882C45.341 19.9307 47.7524 15.9672 47.7524 15.9672C47.7524 15.9672 46.2231 16.1492 44.7201 16.7722C43.3076 17.3529 42.604 17.5407 42.5016 17.4068C42.3336 17.1884 45.4828 13.9673 47.805 12.193C49.9814 10.5337 52.7722 9.88019 52.9875 10.2426C53.2238 10.6269 50.0497 14.4113 48.3051 20.8957C46.7128 26.8081 46.4397 31.9782 46.4397 34.8892ZM46.4397 45.078C46.0932 45.078 42.9886 45.078 42.5016 45.078C42.5016 46.8698 43.5912 47.8814 45.127 47.9804C45.5366 48.0065 45.979 47.9687 46.4397 47.8624C46.4397 46.4098 46.4397 45.8145 46.4397 45.078ZM34.2513 23.7165C33.0948 19.7211 33.3127 11.6006 33.3127 11.6006C33.3127 11.6006 34.6884 12.8466 35.9709 13.5118C36.7664 13.9266 38.3561 14.829 38.5622 14.4666C38.721 14.1755 35.3369 10.7462 34.0084 7.8206C32.6419 4.82947 32.3374 0.413373 32 0C31.6626 0.413373 31.3594 4.82947 29.9916 7.8206C28.6631 10.7462 25.2776 14.1755 25.4378 14.4666C25.6439 14.829 27.2336 13.9266 28.0291 13.5118C29.3116 12.8466 30.6873 11.6006 30.6873 11.6006C30.6873 11.6006 30.9065 19.7211 29.7487 23.7165C28.0619 30.5226 25.7279 34.4424 25.4365 34.8892H29.3746C30.4878 32.7205 31.2229 30.3567 32 27.121C32.7771 30.3582 33.5122 32.7219 34.6254 34.8892H38.5635C38.2734 34.4424 35.9381 30.5226 34.2513 23.7165Z" fill="#D50000"/>
</svg>
