<svg width="64" height="64" viewBox="0 0 64 64" fill="none" xmlns="http://www.w3.org/2000/svg">
<path d="M31.2249 8.37939C26.6287 9.93153 21.4924 13.5836 15.4209 19.6091C12.4972 22.5045 9.25734 26.2478 6.82077 29.5603C4.58143 32.5734 1.86863 37.6858 0.814592 40.8554C-0.146711 43.6855 -0.252506 45.6677 0.472389 46.9851C0.946509 47.8329 1.27565 48.1065 2.88283 48.9938C7.72918 51.6803 15.5659 54.1197 22.4008 55.0717C25.9965 55.5671 27.524 55.6719 32.0151 55.6719C36.5062 55.6719 38.0337 55.5678 41.6295 55.0717C47.9909 54.1851 54.7866 52.1634 59.936 49.6198C62.1224 48.5372 62.9126 48.0153 63.36 47.2981C63.9262 46.4114 64.0581 45.8112 63.9791 44.3897C63.8602 42.3163 62.991 39.6945 61.2526 36.2901C60.0013 33.799 57.2748 29.3909 56.5904 28.6995C56.4722 28.5818 56.3932 28.4389 56.4062 28.3736C56.4591 28.23 54.1538 25.3087 52.4422 23.3395C50.8487 21.5002 47.0296 17.7181 45.0534 16.0095C40.8915 12.4098 37.0326 9.84034 34.1487 8.75772C33.0816 8.36646 31.7781 8.19701 31.2249 8.37939ZM34.0696 10.8576C36.4403 12.0185 43.46 17.0921 46.2387 19.6479C51.3359 24.3302 56.0503 30.7994 59.7381 38.1941C62.7278 44.1938 62.9779 45.7977 61.0945 47.0239C58.513 48.7196 53.0874 50.7147 46.963 52.2145C41.6157 53.5319 38.0729 53.9619 32.4102 53.9619C28.1823 53.9749 26.6019 53.8707 23.0068 53.323C15.9342 52.2403 6.25457 49.0843 3.22503 46.8667C1.61851 45.7058 1.90781 44.0496 4.75254 38.3241C7.4131 32.977 10.7581 27.864 14.248 23.8471C15.6175 22.2426 19.0813 18.8518 20.4906 17.7039C24.0863 14.7826 29.1828 11.3653 31.1982 10.5175C32.1732 10.1139 32.6865 10.1792 34.0696 10.8576Z" fill="black"/>
<path d="M21.9794 23.965L21.9402 30.7989L20.6759 30.1076C19.9908 29.7163 18.0284 28.5554 16.3298 27.5252C14.3673 26.3255 13.2088 25.6995 13.1559 25.7907C13.103 25.8689 13.0508 31.425 13.0508 38.1418V50.3494L14.144 50.7537C14.737 50.9755 15.3162 51.1708 15.4214 51.1973C15.5925 51.2361 15.6323 49.9976 15.6846 40.9066L15.7505 30.5771L18.5424 32.1163C20.0829 32.9642 21.4792 33.7596 21.6633 33.8773L22.0055 34.0862V43.3984V52.6977L22.7696 52.8413C23.1778 52.9195 23.7969 53.0237 24.1391 53.076L24.7712 53.1543L24.7973 44.4811L24.8365 35.8078L28.4976 38.0119L32.1456 40.203L35.8066 37.9989L39.4546 35.8078L39.4938 44.4681C39.5199 51.498 39.5597 53.1284 39.691 53.1284C39.7831 53.1284 40.218 53.0631 40.6523 52.9978C41.0735 52.9195 41.6267 52.8283 41.8637 52.7889L42.285 52.7236V43.4243C42.285 36.1338 42.3241 34.0856 42.4561 33.9815C42.5351 33.9161 43.9444 33.1077 45.5777 32.2075L48.5413 30.5771L48.6072 40.9066C48.6601 49.997 48.6993 51.2361 48.8704 51.1973C48.9755 51.1714 49.5555 50.9755 50.1608 50.7537L51.241 50.3494V38.1418C51.241 31.425 51.1881 25.8689 51.1359 25.7907C51.083 25.6995 49.9244 26.3255 47.962 27.5252C46.2634 28.5554 44.3009 29.7163 43.6159 30.1076L42.3516 30.7989L42.3124 23.965C42.2863 18.2001 42.2595 17.131 42.1014 17.131C41.9963 17.131 39.7178 18.396 37.0311 19.9352L32.1449 22.7524L27.2587 19.9352C24.572 18.396 22.2935 17.131 22.1884 17.131C22.0316 17.1304 22.0055 18.1742 21.9794 23.965ZM28.4982 23.769C30.4476 24.8516 32.094 25.7383 32.1593 25.7383C32.2122 25.7383 33.8847 24.8387 35.8602 23.7296L39.4559 21.7208L39.4951 27.0815C39.5212 31.2684 39.482 32.4811 39.3632 32.5988C39.2711 32.677 37.6117 33.6943 35.6753 34.8552L32.1462 36.981L28.4982 34.764L24.8372 32.56L24.798 27.1216C24.7849 24.1221 24.8111 21.7092 24.864 21.7351C24.9293 21.7739 26.5626 22.6864 28.4982 23.769Z" fill="black"/>
</svg>
