<svg width="64" height="64" viewBox="0 0 64 64" fill="none" xmlns="http://www.w3.org/2000/svg">
<g clip-path="url(#clip0_10704_19044)">
<path d="M26.1495 22.0028C24.3767 19.5837 22.2661 18.2268 20.0928 17.1361C19.7407 16.9595 19.3865 16.7897 19.0312 16.623C20.0606 17.0313 21.0554 17.4978 22.6454 18.4117C24.3894 19.4143 25.9569 21.5528 26.9473 23.0313C27.0702 23.2148 27.1949 23.3983 27.3204 23.5814C26.9346 23.0769 26.5476 22.5459 26.1495 22.0028Z" fill="#43565C"/>
<path fill-rule="evenodd" clip-rule="evenodd" d="M8.58671 25.918C8.66199 26.5572 8.75398 27.1943 8.86259 27.8287C13.1975 42.4394 18.2408 43.5242 30.6359 44.0771C40.2644 44.5064 45.7761 42.0983 49.0221 39.0827C52.271 36.0647 53.2693 32.4217 53.8381 30.3352C54.2468 28.8357 54.5174 27.3879 54.6364 25.9184L61.5384 25.918C61.2583 30.6371 59.7863 35.2048 56.6754 39.2476C52.8289 44.0222 46.8148 46.2182 41.6107 47.2166C36.4038 48.2156 31.9848 48.0208 31.3067 47.9991C30.6297 47.9775 28.1537 48.0127 25.1033 47.7464C22.0519 47.4797 18.4165 46.9108 15.4274 45.6761C14.1106 45.1322 12.9727 44.5737 11.9715 43.9867C9.26441 42.3431 6.76116 39.9525 5.53724 38.1976C4.00076 35.9945 2.15641 32.1355 1.62891 25.9186L8.58671 25.918ZM31.1467 25.918C31.3577 26.2126 31.5232 26.3845 31.6129 26.4077C31.666 26.398 31.7277 26.3541 31.8187 26.2439C31.8894 26.1582 31.9665 26.0468 32.0482 25.9184L38.0755 25.918C37.0348 26.7036 36.1337 27.6023 35.2859 28.6783C33.9003 30.4367 33.1077 32.1664 32.8545 33.0089C32.5908 33.886 32.0893 34.6253 32.0113 34.735C31.9188 34.8652 31.4941 34.9761 31.3518 34.7268C31.2054 34.5949 31.0563 34.3233 30.9198 33.9677C30.7415 33.5038 30.519 32.7777 30.0697 31.8647C29.6228 30.9564 28.9498 29.8603 27.8683 28.6508C26.9347 27.6067 25.9635 26.6913 24.9714 25.9184L31.1467 25.918Z" fill="#657681"/>
<path fill-rule="evenodd" clip-rule="evenodd" d="M1.62386 25.9172C1.52881 24.7975 1.47656 23.6006 1.47656 22.323V22.2832L1.47673 22.2445L1.4769 22.2056L1.47716 22.167C1.52413 16.2716 4.21016 10.926 6.16743 8.62547C6.4365 8.30918 7.42386 7.16763 8.27669 6.35857C10.7279 4.03311 17.357 -0.377529 32.1314 0.0258863C40.5341 0.0454396 45.6517 1.15843 49.1142 2.67227C50.8461 3.42953 52.1614 4.2861 53.265 5.1533C54.364 6.01733 55.2525 6.89209 56.1354 7.69025L56.159 7.71169L56.169 7.74205C56.1746 7.7592 60.3517 12.8237 61.2988 19.9917C61.5607 21.9751 61.6496 23.9589 61.5335 25.9166L54.6314 25.9172C54.7528 24.417 54.7161 22.8941 54.5068 21.2705C54.3597 20.4252 54.2058 19.7491 54.0946 19.3044C54.119 19.2877 53.9459 19.4389 53.9459 19.4389C53.9459 19.4389 52.7205 20.2039 46.7854 22.0062C42.8389 23.2047 40.1706 24.3312 38.0705 25.9169L32.0432 25.9171C32.0601 25.891 32.0771 25.8638 32.0943 25.8359C32.2973 25.5072 32.5145 25.1057 32.715 24.7766C33.158 24.0497 34.5033 22.1183 36.4158 20.3117C38.2828 18.5481 42.7639 16.4707 46.075 15.2312C46.6301 15.0237 47.1804 14.8034 47.7254 14.5704C49.0879 13.9373 50.4366 13.134 51.646 12.3302C51.5667 12.0187 51.4771 11.8188 51.4289 11.7179C51.4289 11.7179 51.3708 11.5659 51.2357 11.31C51.0981 11.0492 50.8798 10.678 50.5575 10.2362C49.9122 9.35168 48.8478 8.1814 47.1741 7.04628C46.3963 6.50514 45.2701 5.90516 43.7954 5.24652C40.8591 4.03156 36.8544 3.13177 31.4322 3.13177C23.0325 3.13177 18.1201 5.26668 15.3106 7.38889C13.9052 8.45034 13.0235 9.51042 12.4939 10.303C12.2298 10.6982 12.0528 11.0275 11.9419 11.2581C11.8334 11.4837 11.6716 11.8077 11.6716 11.8077C11.5118 12.2583 11.6933 12.4504 12.0194 12.6642C12.6793 13.0964 13.6683 13.6907 13.8499 13.7994C14.6518 14.2005 15.7565 14.7023 17.1693 15.2312C20.4804 16.4708 24.9615 18.5481 26.8284 20.3118C28.7432 22.1205 29.9959 24.0882 30.4367 24.8114C30.6365 25.1392 30.8723 25.5324 31.0954 25.8521C31.111 25.8746 31.1266 25.8965 31.1418 25.9177L24.9664 25.9172C23.6536 24.8947 22.3044 24.1213 20.9576 23.6293C18.5723 22.7578 16.1276 22.2173 15.0541 21.8867C14.5425 21.7291 13.9266 21.5314 13.4213 21.3675C13.1473 21.2786 12.8735 21.189 12.5999 21.099L12.472 21.0544C11.3119 20.6467 10.1228 20.1319 9.00187 19.4779C8.95813 19.4523 8.93073 19.4466 8.91592 19.4461C8.90448 19.4453 8.89312 19.4485 8.88375 19.4551C8.8715 19.4632 8.85703 19.4772 8.83908 19.501C8.81866 19.528 8.80079 19.5573 8.78292 19.5842C8.71824 19.6821 8.46458 21.7663 8.42169 24.2298C8.42679 24.2297 8.4599 24.8846 8.58167 25.9175L1.62395 25.9172" fill="#657681"/>
<path d="M8.67504 27.5962C13.0477 42.5409 18.1346 43.6551 30.6406 44.2127C49.9422 45.0736 52.8249 34.5594 53.9632 30.3826C55.2196 25.7725 54.5163 19.7441 54.5163 19.7441L56.4766 26.4818L52.6063 39.1466L47.1775 43.1996L41.3971 44.9724L32.1484 46.0361L20.3363 44.9724L13.6511 41.5785L10.2832 36.7152L8.97644 32.1051C8.97644 32.1051 8.42333 28.8124 8.67504 27.5962Z" fill="#CCCCCC"/>
<path d="M54.1645 18.1728C54.1645 18.1728 56.2769 26.9884 52.906 34.0319C49.5351 41.0756 46.3281 45.3784 31.345 45.4294C16.362 45.4804 13.2501 39.1954 10.9354 34.8416C8.62066 30.4878 8.32326 24.2538 8.32326 24.2538L8.05078 31.5766L12.3396 39.7052L15.9128 43.0006L20.9854 45.2254L34.5581 46.086L40.5412 45.2254L46.9229 43.6062L53.0072 38.4878L55.4171 29.723L55.1702 20.0019C54.7958 18.5094 54.4605 17.8996 54.1645 18.1728Z" fill="#666666"/>
<path d="M5.66833 13.5566L7.05879 14.4751C7.05879 14.4751 6.84103 24.6739 6.79755 24.8465C6.75398 25.0191 6.79755 30.5339 6.79755 30.5339L8.57689 37.532L7.79605 38.1902L4.01953 28.1262L4.41139 19.8145L5.19223 14.6069L5.66833 13.5566Z" fill="#808080"/>
<path d="M54.5813 18.4419C54.5813 18.4419 56.7257 27.4896 53.482 34.4815C50.2384 41.4736 47.9005 45.0028 32.0403 45.6319C19.1754 45.9569 15.8309 42.5814 13.4532 40.1249C11.5723 38.1818 10.2638 34.9308 10.2638 34.9308C10.2638 34.9308 4.45776 24.1036 5.073 27.5191C5.87936 31.9944 7.16634 38.4071 12.1673 42.4323C15.2306 44.8979 21.4088 46.4175 21.4088 46.4175L31.0853 47.1893L39.7435 46.6718L53.4382 41.3506L59.2945 28.4474C59.0217 22.4503 58.4482 17.4892 57.5737 13.5645L55.6636 15.2263L54.5813 18.4419Z" fill="url(#paint0_linear_10704_19044)"/>
<path d="M6.25309 9.68534C6.25309 9.68534 6.00069 12.4061 6.60436 14.0034C5.78864 15.32 4.7144 19.2639 4.57518 22.4321C4.43588 25.6006 5.02321 33.8685 9.07552 38.5876C8.39902 39.8777 7.996 40.6722 7.996 40.6722C7.996 40.6722 1.61719 36.3084 1.61719 22.3385C1.61719 15.601 5.21858 9.54667 7.12863 7.94922C6.54513 8.77131 6.253 9.68534 6.253 9.68534H6.25309Z" fill="url(#paint1_radial_10704_19044)"/>
<path d="M2.07031 25.0212C2.07031 25.0212 2.25361 31.7902 4.76391 36.0843C7.27422 40.3783 9.53911 43.1245 15.4836 45.5799C21.4282 48.0354 29.9688 47.8507 31.3215 47.8939C32.6741 47.9371 48.9525 48.6717 56.5928 39.1879C60.9702 33.4992 62.1085 26.7615 61.1963 20.0239C60.2842 13.2862 56.8929 9.34961 56.8929 9.34961C56.8929 9.34961 57.3645 10.5714 56.807 13.9462C57.6335 15.3959 58.9744 20.2085 58.7172 24.0586C58.4599 27.9087 57.7588 33.1311 54.8541 37.2197C52.987 39.848 51.5057 41.6866 47.4282 43.6117C43.3509 45.5367 37.1063 46.4993 31.4618 46.4128C25.8174 46.3263 20.3874 45.8824 15.8267 43.7845C11.2659 41.6866 8.84125 38.4966 7.10275 35.9547C5.36426 33.4127 6.7051 34.7015 4.5807 32.5918C2.4563 30.482 2.0704 25.0212 2.0704 25.0212" fill="#121113"/>
<path d="M6.375 8.60534C6.375 8.60534 12.2644 -0.378274 32.1388 0.164244C48.9285 0.203093 52.5424 4.61175 56.0661 7.79799C56.1424 8.0304 54.6702 9.23344 54.6702 9.23344L52.2535 10.148L45.3313 4.67153L33.0345 1.96992C33.0345 1.96992 21.4623 3.35048 20.9813 3.29079C20.5005 3.23111 12.9197 7.49938 12.9197 7.49938L11.5023 11.8796L7.0116 8.46186L6.375 8.60525" fill="#C9CDD1"/>
<path d="M7.434 7.92197C7.434 7.92197 12.8238 -0.201561 32.1261 0.325348C48.4323 0.363083 52.3932 5.06813 55.8155 8.16269C54.7238 9.10237 53.5743 8.9709 53.5743 8.9709L51.6617 10.0216L44.9388 4.70288L32.996 2.07914C32.996 2.07914 21.7571 3.42008 21.29 3.36211C20.823 3.30405 13.4603 7.44943 13.4603 7.44943L9.55415 9.89582L7.19531 8.46345L7.434 7.92197Z" fill="#E6E6E6"/>
<path d="M7.43359 8.82558C7.43359 8.82558 13.9398 1.48633 31.3092 1.48633C48.6789 1.48633 55.0253 7.41251 55.6914 8.30767C54.9367 9.28568 53.5735 10.3296 53.5735 10.3296C49.1237 7.51156 44.9452 5.28567 41.0386 3.65211L30.5334 2.08802C30.5334 2.08802 18.1181 4.97556 17.8793 4.97556C17.6406 4.97556 11.194 9.54759 11.194 9.54759C11.194 9.54759 10.6669 10.4414 10.1767 10.3308C8.84132 9.2404 7.43359 8.82566 7.43359 8.82566V8.82558Z" fill="#808080"/>
<path d="M51.5465 11.6884C51.5465 11.6884 48.2885 3.02942 31.4477 3.02942C14.6069 3.02942 11.6919 11.5915 11.6919 11.5915L10.8867 10.1699L13.7518 6.21917L21.342 2.72145L26.6139 1.90905L31.6475 1.6582L38.0997 2.01179L43.1803 3.10266L50.1927 6.67816L53.9913 9.71192L54.2626 10.0189L51.5465 11.6884Z" fill="#2A2E33"/>
<path d="M51.076 13.0293C51.076 13.0293 49.4505 14.1214 46.1377 15.3615C42.8251 16.6016 38.366 18.6721 36.5187 20.4171C34.6153 22.215 33.2766 24.1376 32.838 24.8573C32.3994 25.5768 31.8812 26.6434 31.6057 26.5393C31.5714 27.1549 31.4336 30.8313 31.4336 30.8313L31.6402 30.9701L33.378 27.9438L39.1427 21.6224L41.7667 18.8044L50.7063 14.5032L51.076 13.0293Z" fill="#B3B3B3"/>
<path d="M45.8018 15.5816C44.7258 16.0571 39.6766 17.6609 37.1762 20.7392C36.3237 21.7887 34.8288 24.5526 34.4206 25.2211C34.0123 25.8899 32.0366 30.1514 31.5554 30.7392C31.0743 31.3271 34.1216 28.2558 34.1216 28.2558C34.1216 28.2558 42.3887 20.8494 42.5711 20.7392C42.7534 20.629 45.6913 17.9619 45.6913 17.9619C45.6913 17.9619 46.6463 15.2085 45.8019 15.5816" fill="#121113"/>
<path d="M56.3512 8.92969C56.3512 8.92969 52.0208 12.78 47.6101 14.7783C43.1994 16.777 37.698 18.6887 34.4044 25.9911C31.8999 30.4448 38.315 21.9938 38.315 21.9938L41.6905 19.5543L49.5201 16.0348L53.5225 13.4486L56.3512 8.92969Z" fill="#333333"/>
<path d="M56.4309 8.85547C56.4309 8.85547 53.3497 11.9823 49.0094 14.447C47.5733 15.2626 43.7544 16.948 41.9962 17.8856C38.1228 19.9513 36.1202 23.5873 35.4932 24.3294C34.8663 25.0716 31.6367 30.9201 31.6367 30.9201L33.0291 30.6189L38.3948 23.4771L42.7617 20.81L52.7203 17.6652L55.9864 14.9246C55.9864 14.9246 56.7777 15.3291 57.0143 11.5963C57.1602 9.29636 56.431 8.85555 56.431 8.85555L56.4309 8.85547Z" fill="#E6E6E6"/>
<path d="M49.0983 21.127L42.5027 23.2625L38.802 24.7965L34.1164 28.3158C34.1164 28.3158 33.0121 30.3011 32.9226 30.7222C32.833 31.1433 32.1467 33.4292 32.1467 33.4292L32.0571 34.1813L31.8183 34.4819L31.6094 33.1285L31.7272 31.2813L32.642 29.5755L33.6985 27.7444L35.6683 25.6087L38.3841 23.9844L42.9802 22.5406L46.8003 21.548L49.0983 21.127Z" fill="#333333"/>
<path d="M53.8877 19.3598C53.8877 19.3598 52.6747 20.1142 46.7638 21.9091C40.8529 23.7041 37.7814 25.3449 35.2002 28.6208C33.8064 30.3898 33.0061 32.1328 32.748 32.9913C32.49 33.8497 31.9973 34.5764 31.9221 34.6822C31.8447 34.7911 31.4465 34.8377 31.4414 34.6036C31.4397 34.5229 31.7826 34.8222 31.8988 33.9614C31.8951 32.9628 31.9859 31.1953 32.5675 30.1557C33.3675 28.7248 34.5807 27.0079 36.5424 25.8373C38.5041 24.6666 41.0336 23.6522 42.6855 23.0538C44.3375 22.4554 48.4673 21.3108 50.2483 20.6604C52.0293 20.01 54.2748 19.0215 54.2748 19.0215L53.8877 19.3598Z" fill="#999999"/>
<path d="M31.7778 31.1438C31.7778 31.1438 31.8736 33.8867 31.7778 34.1763C31.6821 34.466 31.2061 34.0314 31.2061 34.0314L29.272 29.4844L26.5507 26.6451L22.4191 24.044L20.6049 23.3229L17.6919 22.4087L16.4974 22.0467L16.2578 21.3496L22.3474 22.8432L26.907 25.2479L29.248 27.4627L30.9905 29.8675L31.7778 31.1438Z" fill="#B3B3B3"/>
<path d="M12.2031 13.0293C12.2031 13.0293 13.8287 14.1214 17.1414 15.3615C20.4541 16.6016 24.9133 18.6721 26.7605 20.4171C28.6638 22.215 29.9102 24.1723 30.3486 24.8919C30.7872 25.6116 31.398 26.6434 31.6735 26.5393C31.7078 27.1549 31.8456 30.8313 31.8456 30.8313L31.639 30.9701L29.901 27.9438L24.1364 21.6224L21.5124 18.8044L12.5728 14.5032L12.2031 13.0293Z" fill="#CCCCCC"/>
<path d="M31.0512 29.9388L28.6884 26.9657L24.3976 23.2549L10.7652 17.8947L6.60987 14.1091C6.60987 14.1091 5.63902 10.8997 6.24711 9.70802C6.22533 9.33411 6.91741 7.38933 7.17542 7.99488C7.87915 8.71621 8.72653 9.78726 11.6156 11.6882C11.3664 12.2791 11.5994 12.5377 11.9732 12.7826C12.7038 13.2613 13.8371 13.938 13.8371 13.938L16.2708 15.2906L21.009 17.6979L23.5173 19.2916L25.9706 21.8957L27.806 24.1797L29.7908 26.7838L31.8231 30.8709L31.0512 29.9388Z" fill="#E6E6E6"/>
<path d="M11.1768 36.7455C10.1253 36.0016 8.80459 35.3853 7.51616 34.5532C6.4803 33.8842 5.66492 31.1146 5.25953 28.811C3.81572 20.6065 6.66811 14.5753 6.66811 14.5753C6.66811 14.5753 6.71806 14.4334 6.663 14.3827C6.45588 14.1917 6.60454 13.8481 6.93011 14.0661C10.5722 16.5051 11.5056 16.5263 14.3584 17.8672C18.4439 19.7875 22.7269 19.7696 27.2706 24.3847C29.4334 26.5816 31.5828 30.9071 31.8321 30.8532C31.8142 31.284 31.7496 33.3182 31.7496 33.3182C31.7496 33.3182 31.8649 31.3616 31.246 30.38C28.7355 26.3996 25.0578 24.7436 25.0578 24.7436C25.0578 24.7436 21.89 23.0813 16.9255 22.1188C14.7852 21.7038 11.7368 20.9383 9.0797 19.3879C8.85982 19.2597 8.77821 19.416 8.70162 19.5318C8.55705 19.7505 7.98461 25.2645 8.57815 28.811C9.12897 32.1029 9.88428 33.8842 11.1768 36.7455Z" fill="#1A1A1A"/>
<path d="M7.20712 8.01562C7.20712 8.01562 8.80291 9.92052 11.5288 11.6967C10.3888 11.2706 9.87859 11.2041 8.84843 10.4124C8.15678 9.88082 7.20703 8.01562 7.20703 8.01562" fill="#3C444B"/>
<path d="M56.0336 7.93368C56.0336 7.93368 54.7674 9.30773 53.919 9.94784C53.0706 10.5879 51.6484 11.6367 51.6484 11.6367L54.239 10.346L56.0336 7.93359" fill="#121113"/>
<path d="M9.27344 9.7305C9.27344 9.7305 11.5572 6.54228 15.3773 4.67426C19.1974 2.80641 21.7455 2.40694 24.1047 2.05687C26.3703 1.72069 30.9613 1.63339 31.3222 1.62695H31.3447C31.7163 1.63313 36.5692 1.72043 38.8373 2.05687C41.1965 2.40694 43.7642 2.73008 47.5843 4.59811C51.4045 6.46596 54.0948 9.82312 54.0948 9.82312C54.0948 9.82312 53.1363 10.05 52.5512 10.5332C51.9661 11.0164 51.7462 10.7983 51.7462 10.7983C51.7462 10.7983 51.694 9.46421 49.9162 7.51249C48.1382 5.56085 45.3904 4.40798 41.8344 3.12604C38.3969 1.88655 31.7813 1.84521 31.3447 1.84393H31.3222C30.897 1.8453 24.5433 1.88706 21.1074 3.12604C17.5516 4.40798 15.483 5.88039 13.705 7.83211C11.9271 9.78375 11.5572 11.7621 11.5572 11.7621C11.5572 11.7621 10.9759 11.0164 10.3908 10.5331C9.80571 10.05 9.27352 9.73041 9.27352 9.73041L9.27344 9.7305Z" fill="#1A1A1A"/>
<path fill-rule="evenodd" clip-rule="evenodd" d="M27.3198 23.5867C26.9353 23.0563 26.5493 22.527 26.162 21.9986C24.3882 19.5782 22.2762 18.2206 20.1024 17.1296C19.7508 16.9538 19.3968 16.7827 19.0407 16.6163C20.0635 17.0395 21.0579 17.5058 22.6476 18.4196C24.3897 19.421 25.9561 21.558 26.9468 23.0367C27.0701 23.2207 27.1944 23.4041 27.3198 23.5867ZM6.71094 8.97461C7.02213 9.32159 9.48257 11.4141 13.5325 14.0766C17.6707 16.797 22.4855 17.3883 25.97 22.1433C28.684 25.8467 28.9626 25.4511 31.4072 30.0288C30.9532 28.7226 30.4737 27.8131 29.8592 26.8432C29.2448 25.8733 28.1325 24.3752 27.1447 22.9004C26.1568 21.4258 24.5625 19.2416 22.7655 18.2086C20.9685 17.1757 19.9265 16.7104 18.7519 16.2372C17.5772 15.7641 15.6638 15.0149 13.8126 13.9504C11.9614 12.8858 8.78003 10.6936 6.71094 8.97461Z" fill="#3C444B"/>
<path d="M31.9492 30.9032C33.7797 26.9086 35.5464 24.6147 39.2153 21.9396C41.3386 20.3915 42.8708 20.1063 45.2937 19.1374C46.8986 18.4954 47.8629 18.2896 49.462 17.6334C52.3845 16.4338 53.6865 15.8436 56.6928 13.9746C56.9018 14.6886 55.3472 17.492 54.2371 19.1374C51.1135 20.524 48.599 21.2936 44.8579 22.1762C42.6136 22.7057 40.9627 23.2525 38.6821 24.1814C34.862 25.7377 33.7565 27.654 31.9492 30.9033V30.9032Z" fill="#1A1A1A"/>
<path d="M30.923 30.7234C31.5158 31.9042 31.7885 32.9493 31.7885 34.002C31.7885 35.0548 31.4005 34.8743 31.0423 33.9419C30.6842 33.0095 30.147 31.0243 27.9683 28.5878C25.7897 26.1514 23.4021 24.4069 21.0146 23.5345C18.627 22.6623 16.1797 22.1209 15.1053 21.7899C14.031 21.4591 12.4961 20.9512 12.4961 20.9512L15.1949 21.6397C15.1949 21.6397 21.313 23.0233 24.8049 25.0987C28.2966 27.1741 29.986 28.8574 30.923 30.7234Z" fill="#CCCCCC"/>
<path d="M6.249 9.69022C6.11574 9.85342 2.703 14.1011 1.61719 22.3385C1.61719 15.9621 4.85455 10.0498 6.82076 8.08008C6.54556 8.49387 6.24696 9.41819 6.24892 9.69022" fill="#C9CDD1"/>
<path d="M11.5391 11.7418C11.5391 11.7418 10.6765 10.5973 9.59702 9.74412C8.51767 8.89098 7.69531 8.54297 7.69531 8.54297C7.69531 8.54297 8.29294 9.28282 9.50878 10.2492C10.7248 11.2158 11.5391 11.7418 11.5391 11.7418" fill="#121113"/>
<path d="M7.70312 8.55128C7.70312 8.55128 8.3924 8.76482 9.3995 9.58571C9.3995 9.58571 11.5626 6.62811 14.7625 4.98632C17.9625 3.34479 21.1238 2.32116 25.4631 1.88867C25.4631 1.88867 20.1089 2.07143 14.6703 4.85871C11.5869 6.43901 9.37516 9.35013 9.37516 9.35013C8.83617 8.94963 8.27879 8.68343 7.70312 8.55128Z" fill="#C9CDD1"/>
<path d="M56.7328 13.8262C56.7328 13.8262 57.3215 14.6002 58.0522 17.5744C58.6075 19.835 58.7282 22.0564 58.7282 22.0564C58.7282 22.0564 58.2567 17.4337 56.6914 13.9772L56.7328 13.8262Z" fill="#E6E6E6"/>
<path d="M31.3438 1.48711C31.7371 1.47733 36.5839 1.55615 38.8585 1.89361C40.043 2.06942 41.2797 2.23863 42.7 2.59813C44.1232 2.95841 45.7303 3.50942 47.6524 4.44934C49.5818 5.39288 51.2226 6.71032 52.3793 7.78927C52.864 8.24209 53.329 8.71585 53.7731 9.20919C53.9207 9.37351 54.0653 9.54049 54.2069 9.71003L54.0924 9.82066C54.0924 9.82066 51.4021 6.46367 47.5819 4.59574C43.7619 2.72771 41.1942 2.40457 38.8349 2.0545C36.5668 1.71806 31.3438 1.48711 31.3438 1.48711Z" fill="#F2F2F2"/>
<path d="M17.2266 42.1797C24.7707 45.7916 39.9173 45.5771 46.4038 42.1797C39.584 46.3234 24.6874 46.5379 17.2266 42.1797Z" fill="#E6E6E6"/>
<path d="M53.799 34.0821H56.4144C56.4144 34.0821 53.5527 41.5943 45.5435 44.2087C42.192 45.3029 37.1719 45.3626 37.1719 45.3626C46.3311 44.8213 51.0409 41.8701 53.799 34.082V34.0821Z" fill="#CCCCCC"/>
<path d="M33.1758 28.4486C33.1758 28.4486 35.5699 23.3797 41.2432 20.5139C42.7372 19.7592 45.2379 19.1543 45.2379 19.1543L43.7824 19.7056C42.1533 20.2961 40.8612 20.7367 39.2129 21.9385C36.3823 24.0024 34.6839 25.8395 33.2148 28.4057L33.1758 28.4486Z" fill="white"/>
<path d="M32.3281 30.6834C32.3281 30.6834 33.4312 25.7454 41.3225 23.3809C36.2922 25.2976 34.0523 26.9721 32.3281 30.6833V30.6834Z" fill="#B3B3B3"/>
<path d="M31.5141 34.3332C31.4549 34.2372 31.3759 34.0838 31.2856 33.8488C31.1047 33.3777 30.8779 32.641 30.4218 31.714C29.9608 30.777 29.2688 29.6517 28.1626 28.4144C27.2436 27.3867 26.2859 26.4788 25.3047 25.7051C28.351 27.5945 29.8466 29.1521 30.695 30.8418C31.2738 31.9944 31.5328 32.9994 31.5328 34.0029C31.5328 34.1427 31.5254 34.2516 31.5141 34.3331V34.3332Z" fill="#E6E6E6"/>
<path d="M51.5586 11.7281L51.7416 12.2769C51.7416 12.2769 52.6523 11.7705 54.2908 10.4978C55.9293 9.22499 56.4363 8.84636 56.4363 8.84636C56.4363 8.84636 56.9061 9.21084 58.5632 11.9363C58.5632 11.9363 58.0467 10.3321 56.1687 7.95703L54.2627 10.3274L51.5586 11.7281Z" fill="#ECECEC"/>
<path d="M25.7817 21.8971C23.1428 19.0356 21.2818 18.3862 17.9028 17.1673C14.6579 15.9969 13.3202 14.1577 13.0664 13.7695C13.2195 13.8716 13.3729 13.9732 13.5267 14.0742C17.593 16.7475 22.3128 17.3648 25.7817 21.8971Z" fill="#666666"/>
<path d="M41.1507 61.7295H44.2115C44.2115 61.7295 45.5491 61.7203 45.5491 59.6033C45.5491 57.445 44.2115 57.4418 44.2115 57.4418H41.1507V61.7295ZM22.0575 60.2864C21.7319 60.2864 21.4679 60.5903 21.4679 60.9653C21.4679 61.3404 21.7319 61.6443 22.0576 61.6443L25.6266 61.6436V60.2869L22.0575 60.2863V60.2864ZM51.1046 60.2864C50.7791 60.2864 50.515 60.5904 50.515 60.9654C50.515 61.3404 50.7791 61.6444 51.1046 61.6444L54.6737 61.6437V60.287L51.1046 60.2865V60.2864ZM49.8583 58.5331H54.7255C54.7264 58.0552 54.6935 57.2984 53.5818 57.2979C52.4334 57.2973 48.5894 57.2979 48.5894 57.2979V55.1428C48.5894 55.1428 52.3007 55.1439 54.6737 55.1433C56.1555 55.143 57.3265 55.7519 57.3267 57.5361L57.3255 63.9942H49.8746L49.9596 63.9998C48.9729 63.9998 48.1433 63.1243 47.9104 61.9409C47.2469 63.9939 45.6428 63.9931 44.402 63.99L38.4038 63.9901V57.0567L29.9637 63.9941H20.8276L20.9125 63.9997C20.093 63.9997 19.3817 63.3958 19.0309 62.513L19.0295 63.9941H16.4225V58.2969C16.4225 58.2969 16.4165 57.5381 15.6144 57.5363H13.6871V63.994H11.1081V57.5363H8.40382V63.994H5.73047L5.73472 55.1427L16.6169 55.1426C17.8179 55.1426 19.0336 55.9373 19.0336 57.5364L19.0327 60.011C19.3839 59.1313 20.0931 58.5299 20.9108 58.5299L20.8112 58.533H25.6786C25.6792 58.0551 25.6464 57.2984 24.5346 57.2978C23.3863 57.2973 19.5424 57.2978 19.5424 57.2978V55.1428C19.5424 55.1428 23.2536 55.1439 25.6266 55.1433C27.1083 55.143 28.2795 55.7519 28.2796 57.5361L28.2787 61.9777L36.8014 55.1428H38.4038L44.4226 55.1429C46.0063 55.1429 48.2183 55.1429 48.2183 59.5554L48.2174 59.7143C48.5985 58.9989 49.2359 58.53 49.958 58.53L49.8583 58.5332V58.5331ZM29.2136 55.1428H35.2969L32.6032 57.5364H29.2119L29.2136 55.1428ZM37.6137 63.9873H31.5303L34.2242 61.5937H37.6154L37.6137 63.9873Z" fill="#0080C5"/>
<path d="M17.4609 22.2246C17.4609 22.2246 18.0061 22.3447 18.1805 22.3858C20.1768 22.8447 21.8187 23.3948 22.9968 23.8485C24.0042 24.3086 25.1339 24.9112 26.3603 25.7006C31.3915 28.9394 31.4191 31.6412 31.4191 31.6412C31.4191 31.6412 31.3475 29.7813 28.2773 27.196C25.1833 24.5906 19.9252 22.9392 18.3703 22.4901C18.0852 22.4078 17.4609 22.2246 17.4609 22.2246Z" fill="#808080"/>
</g>
<defs>
<linearGradient id="paint0_linear_10704_19044" x1="52.8118" y1="16.2297" x2="52.2674" y2="38.2362" gradientUnits="userSpaceOnUse">
<stop stop-color="#999999"/>
<stop offset="1" stop-color="#D7D7D7"/>
</linearGradient>
<radialGradient id="paint1_radial_10704_19044" cx="0" cy="0" r="1" gradientUnits="userSpaceOnUse" gradientTransform="translate(3.71578 21.8812) rotate(-36.9887) scale(13.4986 8.35424)">
<stop stop-color="white"/>
<stop offset="1" stop-color="#919191"/>
</radialGradient>
<clipPath id="clip0_10704_19044">
<rect width="64" height="64" fill="white"/>
</clipPath>
</defs>
</svg>
