<svg width="64" height="64" viewBox="0 0 64 64" fill="none" xmlns="http://www.w3.org/2000/svg">
<g clip-path="url(#clip0_10704_19088)">
<path d="M56.809 36.1844V33.6731C56.809 32.108 56.0413 31.6713 53.8286 31.6713H49.4753V36.1844H52.221V33.1271H52.9525C53.7654 33.1271 54.0544 33.6094 54.0544 34.128V36.1844H56.809ZM48.9515 33.1635V32.9815C48.9515 32.2354 48.527 31.6713 46.6123 31.6713H43.7944C42.0152 31.6713 41.2746 32.2809 41.2746 33.6185V34.4101C41.2746 35.5384 42.0152 36.1844 43.5867 36.1844H48.6083V34.8559H44.5531C44.1557 34.8559 44.0112 34.7286 44.0112 34.4283V34.3828H47.1632C48.2832 34.3919 48.9515 34.0097 48.9515 33.1635ZM46.3504 33.2727C46.3504 33.4729 46.2691 33.5912 45.953 33.5912H44.0202V33.4183C44.0202 33.1635 44.1196 32.9906 44.4357 32.9906H45.9349C46.1788 32.9815 46.3504 33.0725 46.3504 33.2727ZM39.2696 33.027H40.9856V31.6622H37.4633C36.8943 31.6622 36.542 31.9716 36.542 32.4629V36.1753H39.2786V33.027H39.2696ZM35.9459 34.4283V33.4456C35.9459 32.3173 35.2144 31.6713 33.6338 31.6713H28.7206V32.9815H32.6675C33.0648 32.9815 33.2094 33.1089 33.2094 33.4183V33.4638H30.0573C28.7297 33.4638 28.2871 34.037 28.2871 34.765V34.9105C28.2871 35.2381 28.3865 35.5202 28.5761 35.7022C28.9555 36.0752 29.7051 36.1844 30.7076 36.1844H33.4351C35.2053 36.1753 35.9459 35.7568 35.9459 34.4283ZM33.2003 34.4283C33.2003 34.6831 33.101 34.8559 32.7849 34.8559H31.3037C31.0508 34.8559 30.8973 34.7832 30.8973 34.583C30.8973 34.3828 30.9876 34.2554 31.3037 34.2554H33.2003V34.4283ZM27.8807 36.1844V34.8196H25.7673V30.9434H23.0217V36.1844H27.8807ZM17.982 36.1844H22.4075V34.8196H18.7858C18.4336 34.8196 18.0723 34.6194 18.0723 33.9551V33.8642C18.0723 33.2727 18.3704 33.0361 18.7587 33.0361H22.4075V31.6713H17.8917C16.0583 31.6713 15.3086 32.4811 15.3086 33.7186V34.1371C15.3086 35.593 16.1125 36.1844 17.982 36.1844ZM12.0031 36.1844H14.7487V30.9434H13.141C12.4817 30.9434 12.0121 31.2254 11.5605 31.6167C11.0547 32.0625 9.23937 33.6458 9.23937 33.6458V30.9434H7.62271C6.71051 30.9434 6.2499 31.2618 5.73509 31.6622C5.39189 31.9443 0 36.1844 0 36.1844H3.26946L6.49375 33.5093V36.1844H9.11293L12.0031 33.5275V36.1844Z" fill="#54565A"/>
<path d="M61.9024 26.959C60.4935 26.959 58.5065 27.3866 56.3479 28.1783C54.5506 28.8425 52.7714 29.6796 50.8477 30.908C51.9766 30.4439 54.1894 29.9253 56.0228 29.9253C58.4975 29.9253 60.2586 30.8807 57.6575 34.22C65.3254 29.161 65.1086 26.959 61.9024 26.959Z" fill="#54565A"/>
</g>
<defs>
<clipPath id="clip0_10704_19088">
<rect width="64" height="64" fill="white"/>
</clipPath>
</defs>
</svg>
