<svg width="64" height="64" viewBox="0 0 64 64" fill="none" xmlns="http://www.w3.org/2000/svg">
<path d="M31.6908 0C17.5248 0 6 11.525 6 25.691C6 39.857 17.5248 51.3818 31.6908 51.3818C45.8568 51.3818 57.3816 39.857 57.3816 25.691C57.3816 11.525 45.8568 0 31.6908 0ZM31.6908 50.0129C18.2795 50.0129 7.36896 39.1021 7.36896 25.691C7.36896 12.28 18.2795 1.36896 31.6908 1.36896C45.1021 1.36896 56.0126 12.2797 56.0126 25.6908C56.0126 39.1019 45.1021 50.0129 31.6908 50.0129Z" fill="#6D6E71"/>
<path d="M31.6877 7.91406C21.886 7.91406 13.9117 15.8884 13.9117 25.6901C13.9117 35.4918 21.886 43.4659 31.6877 43.4659C41.4894 43.4659 49.4638 35.4916 49.4638 25.6899C49.4638 15.8882 41.4894 7.91406 31.6877 7.91406ZM14.8589 25.6901C14.8589 16.4108 22.4082 8.86131 31.6877 8.86131C37.8658 8.86131 43.2741 12.2092 46.201 17.1847L26.2886 17.2285C25.4678 17.2285 24.3941 17.1793 23.526 18.5545L15.9276 31.5908C15.2192 29.7042 14.8572 27.7053 14.8589 25.6901ZM18.8364 36.5584L28.1148 20.6882C28.8291 19.52 29.137 19.2359 30.4037 19.2359H47.2287C47.3436 19.5118 47.4511 19.7907 47.551 20.0724L31.9034 20.1182C31.0826 20.1182 30.0089 20.0691 29.1408 21.4443C29.1408 21.4443 19.7497 37.5392 19.7546 37.5441C19.4379 37.2256 19.1317 36.8969 18.8364 36.5584ZM23.7839 40.5433L33.8768 23.2756C34.591 22.1074 34.8989 21.8233 36.1656 21.8233H48.0672C48.0906 21.9276 48.2011 22.4178 48.2675 22.8012L37.734 22.8486C36.9132 22.8486 35.8395 22.7995 34.9714 24.1746L25.047 41.1522C24.6177 40.9669 24.1962 40.7637 23.7839 40.5433ZM31.6877 42.5187C31.1533 42.5187 30.6251 42.4924 30.1033 42.4435L39.7074 26.0056C40.4217 24.8373 40.7296 24.5532 41.9963 24.5532H48.4772C48.5023 24.9289 48.5163 25.3077 48.5163 25.6899C48.5167 34.9694 40.9672 42.5187 31.6877 42.5187ZM9.96419 61.8211C10.1305 61.2235 10.3366 60.5828 10.5824 59.8986L11.8925 56.269H13.8434V63.8572H12.454V60.0122C12.454 59.4488 12.4767 58.7946 12.522 58.0499H12.4711C12.4067 58.2655 12.3313 58.5074 12.2442 58.7759C12.157 59.0442 12.0663 59.3088 11.9718 59.5698L10.401 63.8572H9.50491L7.93409 59.5698C7.83892 59.3067 7.74813 59.042 7.66177 58.7759C7.58331 58.5348 7.50765 58.2928 7.4348 58.0499H7.38389C7.42924 58.7492 7.45191 59.4015 7.45191 60.0064V63.8572H6.0625V56.269H8.00212L9.31217 59.8817C9.54335 60.5199 9.74959 61.167 9.9304 61.8213H9.96419V61.8211ZM17.0475 62.6945H20.7792V63.857H15.6581V56.2687H20.5751V57.4314H17.0475V59.3935H20.076V60.5559H17.0475V62.6945ZM27.8681 58.5487C27.8681 59.078 27.7216 59.5269 27.4286 59.8957C27.1356 60.2643 26.6829 60.5375 26.0703 60.7153V60.738L28.3273 63.8572H26.66L24.5957 60.9194H23.6429V63.8572H22.2535V56.269H24.5617C24.9434 56.269 25.2989 56.291 25.6279 56.3343C25.9569 56.3777 26.2383 56.443 26.4729 56.53C26.9188 56.7002 27.2629 56.9523 27.505 57.2869C27.7471 57.6215 27.8681 58.0421 27.8681 58.5487ZM24.3292 59.7567C24.6468 59.7567 24.9163 59.7427 25.1375 59.7143C25.3587 59.6858 25.5447 59.6436 25.6961 59.5867C25.9758 59.4809 26.1696 59.3364 26.2775 59.153C26.3853 58.9696 26.4391 58.7588 26.4391 58.5205C26.4391 58.3164 26.3966 58.1359 26.3115 57.9787C26.2263 57.822 26.0818 57.698 25.8775 57.6073C25.745 57.547 25.5788 57.5023 25.3785 57.4739C25.1779 57.4456 24.9305 57.4316 24.6355 57.4316H23.6431V59.7567H24.3292ZM33.2388 57.3011C32.8606 57.3011 32.5118 57.3634 32.1924 57.4883C31.8816 57.6072 31.6008 57.7931 31.37 58.0328C31.1413 58.2708 30.9626 58.5649 30.8341 58.9146C30.7056 59.2643 30.6413 59.664 30.6413 60.1142C30.6413 60.5604 30.7 60.9525 30.8172 61.2909C30.9343 61.6292 31.1026 61.912 31.3218 62.1387C31.541 62.3655 31.8087 62.5367 32.1243 62.6521C32.44 62.7674 32.7984 62.825 33.199 62.825C33.4862 62.825 33.7792 62.8021 34.078 62.7568C34.3629 62.7147 34.6436 62.6483 34.9172 62.5582V63.7549C34.6361 63.8338 34.35 63.8936 34.0608 63.9336C33.7452 63.9777 33.4268 63.9995 33.108 63.9988C32.4651 63.9988 31.9 63.9072 31.4123 63.7238C30.9245 63.5406 30.5173 63.2816 30.19 62.9468C29.863 62.6123 29.6172 62.2114 29.4529 61.7446C29.2886 61.2778 29.2063 60.7627 29.2063 60.1993C29.2063 59.6207 29.2942 59.0838 29.47 58.5887C29.6458 58.0932 29.899 57.6644 30.2298 57.3014C30.5606 56.9383 30.9746 56.6529 31.4719 56.4448C31.9689 56.237 32.5314 56.1311 33.1589 56.1271C33.4802 56.1271 33.7845 56.1492 34.072 56.1925C34.3592 56.2358 34.6184 56.2974 34.8489 56.3768V57.5564C34.5464 57.4619 34.2647 57.3956 34.0039 57.3578C33.7506 57.3206 33.4948 57.3016 33.2388 57.3011ZM39.4773 63.9988C39.0803 63.9988 38.723 63.9599 38.4056 63.8827C38.0879 63.8052 37.808 63.6936 37.5662 63.5479C37.3305 63.4079 37.1214 63.2275 36.9482 63.0151C36.7754 62.8008 36.6376 62.5606 36.5398 62.3032C36.4528 62.0767 36.3928 61.8407 36.361 61.6001C36.3253 61.3431 36.3072 61.0557 36.3072 60.738V56.269H37.6967V60.6133C37.6967 61.1502 37.7609 61.5699 37.8894 61.8722C38.033 62.2088 38.2431 62.4515 38.519 62.6009C38.7948 62.7503 39.1201 62.825 39.4944 62.825C39.8688 62.825 40.1938 62.7503 40.4699 62.6009C40.746 62.4515 40.9559 62.2085 41.0995 61.8722C41.228 61.5699 41.2922 61.1502 41.2922 60.6133V56.269H42.6816V60.738C42.6816 61.0557 42.6639 61.3431 42.6278 61.6001C42.5962 61.8407 42.5362 62.0767 42.4491 62.3032C42.3511 62.5611 42.2122 62.8014 42.0378 63.0151C41.8614 63.2286 41.6483 63.4091 41.4085 63.5479C41.1609 63.6936 40.8761 63.8052 40.5548 63.8827C40.2334 63.9599 39.8744 63.9988 39.4773 63.9988ZM50.0824 58.5487C50.0824 59.078 49.9357 59.5269 49.6427 59.8957C49.3497 60.2643 48.8971 60.5375 48.2847 60.7153V60.738L50.5417 63.8572H48.8742L46.8101 60.9194H45.8573V63.8572H44.4679V56.269H46.7761C47.158 56.269 47.5132 56.291 47.8423 56.3343C48.1713 56.3777 48.4527 56.443 48.6872 56.53C49.1334 56.7002 49.4775 56.9523 49.7196 57.2869C49.9613 57.6215 50.0824 58.0421 50.0824 58.5487ZM46.5436 59.7567C46.8612 59.7567 47.1304 59.7427 47.3516 59.7143C47.5728 59.6858 47.7591 59.6436 47.9103 59.5867C48.1902 59.4809 48.384 59.3364 48.4916 59.153C48.5992 58.9696 48.6535 58.7588 48.6535 58.5205C48.6535 58.3164 48.611 58.1359 48.5259 57.9787C48.4407 57.822 48.2962 57.698 48.0919 57.6073C47.9596 57.547 47.7931 57.5023 47.5931 57.4739C47.3925 57.4456 47.1449 57.4316 46.8499 57.4316H45.8575V59.7567H46.5436ZM54.5455 59.5355L56.5644 56.269H58.1068L55.2315 60.8005V63.8572H53.8421V60.8005L50.9666 56.269H52.5091L54.5281 59.5355H54.5455Z" fill="#6D6E71"/>
</svg>
