<svg width="64" height="64" viewBox="0 0 64 64" fill="none" xmlns="http://www.w3.org/2000/svg">
<g clip-path="url(#clip0_10704_19091)">
<path d="M46.88 3.6C42.4 1.28 37.36 0 32 0C26.64 0 21.6 1.28 17.12 3.6C6.96 8.96 0 19.68 0 32C0 44.32 6.96 55.04 17.2 60.4C21.6 62.64 26.64 64 32 64C37.36 64 42.32 62.64 46.8 60.32C57.04 55.04 64 44.32 64 32C64 19.68 57.04 8.96 46.88 3.6ZM3.2 32C3.2 21.52 8.8 12.4 17.2 7.28C21.28 4.8 26 3.36 31.2 3.2L27.6 29.36L17.2 37.44L6.64 45.68C4.48 41.6 3.2 36.96 3.2 32ZM46.88 56.64C42.48 59.28 37.44 60.8 32 60.8C26.56 60.8 21.44 59.28 17.12 56.64C13.2 54.32 10 51.12 7.6 47.28L17.12 43.36L32 37.28L46.88 43.28L56.48 47.2C54.08 51.12 50.72 54.32 46.88 56.64ZM46.88 37.44L36.56 29.44L32.88 3.2C37.92 3.36 42.72 4.8 46.8 7.28C55.2 12.32 60.8 21.52 60.8 32C60.8 36.96 59.6 41.6 57.36 45.68L46.88 37.44Z" fill="black"/>
</g>
<defs>
<clipPath id="clip0_10704_19091">
<rect width="64" height="64" fill="white"/>
</clipPath>
</defs>
</svg>
