<svg width="64" height="64" viewBox="0 0 64 64" fill="none" xmlns="http://www.w3.org/2000/svg">
<path fill-rule="evenodd" clip-rule="evenodd" d="M45.793 0.548705L63.4584 18.2726L63.9983 18.0508L46.0138 0.0078125L45.793 0.548705Z" fill="#F8F0C4"/>
<path fill-rule="evenodd" clip-rule="evenodd" d="M18.3118 63.4045L0.601688 45.625L0.0625 45.8473L18.0897 63.945L18.3118 63.4045Z" fill="#F8F1CF"/>
<path fill-rule="evenodd" clip-rule="evenodd" d="M63.4605 45.584L45.6445 63.3751L45.8662 63.9156L64.0005 45.8071L63.4605 45.584Z" fill="#FBF9E7"/>
<path fill-rule="evenodd" clip-rule="evenodd" d="M0.540386 18.3533L18.4941 0.604945L18.2733 0.0644531L0 18.1294L0.540386 18.3533Z" fill="#F5EAAB"/>
<path fill-rule="evenodd" clip-rule="evenodd" d="M63.4609 18.2727V45.5847L64.0009 45.8078V18.0508L63.4609 18.2727Z" fill="#FAF5D8"/>
<path fill-rule="evenodd" clip-rule="evenodd" d="M0.600296 45.6237L0.540386 18.3528L0 18.1289L0.0611079 45.8459L0.600296 45.6237Z" fill="#F8EFB7"/>
<path fill-rule="evenodd" clip-rule="evenodd" d="M18.4943 0.605473L45.7948 0.548705L46.0156 0.0078125L18.2734 0.0649806L18.4943 0.605473Z" fill="#F5EAAD"/>
<path fill-rule="evenodd" clip-rule="evenodd" d="M45.6455 63.375L18.3119 63.4034L18.0898 63.9439L45.8672 63.9155L45.6455 63.375Z" fill="#FCF9E2"/>
<path fill-rule="evenodd" clip-rule="evenodd" d="M63.4587 45.5848L45.6427 63.3759L18.3091 63.4043L0.598972 45.6248L0.539062 18.3539L18.4928 0.605596L45.7933 0.548828L63.4587 18.2727V45.5848Z" fill="#AB922B"/>
<path fill-rule="evenodd" clip-rule="evenodd" d="M1.07422 32.5724C1.07422 46.9495 12.4471 60.1971 26.2759 63.3953L38.9779 63.3821C44.2684 62.1476 49.1969 59.4436 53.2644 55.7684L55.7239 53.3114C59.5042 49.1386 62.264 44.0539 63.4622 38.599V26.5459C60.3917 12.5674 47.0673 1.01758 32.5995 1.01758C16.0932 1.01758 1.07422 16.0506 1.07422 32.5724Z" fill="#AD952E"/>
<path fill-rule="evenodd" clip-rule="evenodd" d="M1.71484 32.5725C1.71484 48.0141 15.1071 62.1269 30.3797 63.391L34.8737 63.3862C49.8068 62.1173 62.925 48.5694 63.4594 33.5244V31.6215C62.8979 15.8157 48.4484 1.66211 32.5967 1.66211C16.4271 1.66211 1.71484 16.3881 1.71484 32.5725Z" fill="#AE9630"/>
<path fill-rule="evenodd" clip-rule="evenodd" d="M2.35938 32.573C2.35938 48.4208 16.7653 62.8398 32.5974 62.8398C48.43 62.8398 62.8355 48.4208 62.8355 32.573C62.8355 16.726 48.43 2.30664 32.5974 2.30664C16.7653 2.30664 2.35938 16.7256 2.35938 32.573Z" fill="#AE9633"/>
<path fill-rule="evenodd" clip-rule="evenodd" d="M3.00391 32.5739C3.00391 48.0847 17.1035 62.1971 32.5989 62.1971C48.0952 62.1971 62.1943 48.0847 62.1943 32.5739C62.1943 17.0639 48.0952 2.95117 32.5989 2.95117C17.1035 2.95117 3.00391 17.0639 3.00391 32.5739Z" fill="#B19937"/>
<path fill-rule="evenodd" clip-rule="evenodd" d="M3.64453 32.5725C3.64453 47.7458 17.4374 61.5516 32.5961 61.5516C47.7553 61.5516 61.5477 47.7458 61.5477 32.5725C61.5477 17.3999 47.7553 3.59375 32.5961 3.59375C17.4374 3.59375 3.64453 17.3995 3.64453 32.5725Z" fill="#B39C3B"/>
<path fill-rule="evenodd" clip-rule="evenodd" d="M4.28906 32.5726C4.28906 47.4085 17.7755 60.9076 32.5968 60.9076C47.4189 60.9076 60.905 47.4085 60.905 32.5726C60.905 17.737 47.4189 4.23828 32.5968 4.23828C17.7751 4.23788 4.28906 17.737 4.28906 32.5726Z" fill="#B39C3E"/>
<path fill-rule="evenodd" clip-rule="evenodd" d="M4.93359 32.5731C4.93359 47.072 18.1133 60.2641 32.5983 60.2641C47.0837 60.2641 60.2631 47.072 60.2631 32.5731C60.2631 18.0749 47.0837 4.88281 32.5983 4.88281C18.1133 4.88241 4.93359 18.0745 4.93359 32.5731Z" fill="#B39C41"/>
<path fill-rule="evenodd" clip-rule="evenodd" d="M5.57422 32.574C5.57422 46.7359 18.4476 59.6214 32.5955 59.6214C46.7438 59.6214 59.6172 46.7359 59.6172 32.574C59.6172 18.4128 46.7438 5.52734 32.5955 5.52734C18.4476 5.52694 5.57422 18.4124 5.57422 32.574Z" fill="#B7A045"/>
<path fill-rule="evenodd" clip-rule="evenodd" d="M6.21875 32.5725C6.21875 46.397 18.7858 58.9755 32.5966 58.9755C46.4078 58.9755 58.9749 46.397 58.9749 32.5725C58.9749 18.7484 46.4078 6.16992 32.5966 6.16992C18.7854 6.16992 6.21875 18.7484 6.21875 32.5725Z" fill="#B9A349"/>
<path fill-rule="evenodd" clip-rule="evenodd" d="M6.86328 32.573C6.86328 46.0601 19.1236 58.332 32.5977 58.332C46.0726 58.332 58.3326 46.0605 58.3326 32.573C58.3326 19.0863 46.073 6.81445 32.5977 6.81445C19.1236 6.81445 6.86328 19.0859 6.86328 32.573Z" fill="#B9A34C"/>
<path fill-rule="evenodd" clip-rule="evenodd" d="M7.50781 32.5739C7.50781 45.7244 19.4618 57.6892 32.5992 57.6892C45.7374 57.6892 57.691 45.724 57.691 32.5739C57.691 19.4238 45.737 7.45898 32.5992 7.45898C19.4618 7.45858 7.50781 19.4238 7.50781 32.5739Z" fill="#B9A350"/>
<path fill-rule="evenodd" clip-rule="evenodd" d="M8.14844 32.574C8.14844 45.3871 19.7957 57.0453 32.5964 57.0453C45.3975 57.0453 57.0448 45.3871 57.0448 32.574C57.0448 19.7613 45.3975 8.10352 32.5964 8.10352C19.7957 8.10312 8.14844 19.7613 8.14844 32.574Z" fill="#BDA754"/>
<path fill-rule="evenodd" clip-rule="evenodd" d="M8.79297 32.5729C8.79297 45.0486 20.1339 56.4002 32.5975 56.4002C45.0615 56.4002 56.4025 45.0486 56.4025 32.5729C56.4025 20.0976 45.0615 8.74609 32.5975 8.74609C20.1339 8.74609 8.79297 20.0972 8.79297 32.5729Z" fill="#BFAA58"/>
<path fill-rule="evenodd" clip-rule="evenodd" d="M9.4375 32.573C9.4375 44.7113 20.4713 55.7559 32.5982 55.7559C44.7251 55.7559 55.7593 44.7113 55.7593 32.573C55.7593 20.4351 44.7251 9.39063 32.5982 9.39063C20.4713 9.39023 9.4375 20.4347 9.4375 32.573Z" fill="#BFAA5C"/>
<path fill-rule="evenodd" clip-rule="evenodd" d="M10.0781 32.5724C10.0781 44.3741 20.806 55.112 32.5958 55.112C44.3856 55.112 55.1143 44.3741 55.1143 32.5724C55.1143 20.7711 44.386 10.0332 32.5958 10.0332C20.8056 10.0332 10.0781 20.7711 10.0781 32.5724Z" fill="#BFAA5F"/>
<path fill-rule="evenodd" clip-rule="evenodd" d="M10.7227 32.5725C10.7227 44.0368 21.1438 54.468 32.5969 54.468C44.0509 54.468 54.472 44.0368 54.472 32.5725C54.472 21.1086 44.0509 10.6777 32.5969 10.6777C21.1438 10.6773 10.7227 21.1086 10.7227 32.5725Z" fill="#C1AE63"/>
<path fill-rule="evenodd" clip-rule="evenodd" d="M11.3672 32.573C11.3672 43.6999 21.482 53.8241 32.598 53.8241C43.7149 53.8241 53.8292 43.6999 53.8292 32.573C53.8292 21.4465 43.7149 11.3223 32.598 11.3223C21.482 11.3223 11.3672 21.4461 11.3672 32.573Z" fill="#C4B168"/>
<path fill-rule="evenodd" clip-rule="evenodd" d="M12.0078 32.5739C12.0078 43.3637 21.8162 53.1814 32.5956 53.1814C43.3754 53.1814 53.1842 43.3637 53.1842 32.5739C53.1842 21.7844 43.3754 11.9668 32.5956 11.9668C21.8162 11.9668 12.0078 21.7844 12.0078 32.5739Z" fill="#C5B26B"/>
<path fill-rule="evenodd" clip-rule="evenodd" d="M12.6523 32.5724C12.6523 43.0249 22.1544 52.5363 32.5967 52.5363C43.0394 52.5363 52.5419 43.0253 52.5419 32.5724C52.5419 22.12 43.0398 12.6094 32.5967 12.6094C22.1544 12.6094 12.6523 22.12 12.6523 32.5724Z" fill="#C5B26E"/>
<path fill-rule="evenodd" clip-rule="evenodd" d="M13.2969 32.5725C13.2969 42.688 22.4922 51.8915 32.5978 51.8915C42.7038 51.8915 51.8991 42.688 51.8991 32.5725C51.8991 22.4575 42.7038 13.2539 32.5978 13.2539C22.4922 13.2535 13.2969 22.4575 13.2969 32.5725Z" fill="#C8B572"/>
<path fill-rule="evenodd" clip-rule="evenodd" d="M13.9414 32.573C13.9414 42.3515 22.83 51.2484 32.5985 51.2484C42.3674 51.2484 51.2564 42.3515 51.2564 32.573C51.2564 22.7954 42.3674 13.8984 32.5985 13.8984C22.83 13.898 13.9414 22.795 13.9414 32.573Z" fill="#C8B575"/>
<path fill-rule="evenodd" clip-rule="evenodd" d="M14.582 32.5724C14.582 42.0134 23.1643 50.6037 32.5965 50.6037C42.0291 50.6037 50.611 42.0134 50.611 32.5724C50.611 23.1317 42.0295 14.541 32.5965 14.541C23.1639 14.541 14.582 23.1313 14.582 32.5724Z" fill="#CCBA79"/>
<path fill-rule="evenodd" clip-rule="evenodd" d="M15.2266 32.5725C15.2266 41.6765 23.5021 49.9598 32.5972 49.9598C41.6927 49.9598 49.9686 41.6765 49.9686 32.5725C49.9686 23.4692 41.6927 15.1855 32.5972 15.1855C23.5021 15.1851 15.2266 23.4688 15.2266 32.5725Z" fill="#CEBD7E"/>
<path fill-rule="evenodd" clip-rule="evenodd" d="M15.8711 32.573C15.8711 41.34 23.8403 49.3166 32.5983 49.3166C41.3571 49.3166 49.3263 41.34 49.3263 32.573C49.3263 23.8067 41.3571 15.8301 32.5983 15.8301C23.8403 15.8301 15.8711 23.8067 15.8711 32.573Z" fill="#CEBD81"/>
<path fill-rule="evenodd" clip-rule="evenodd" d="M16.5117 32.5735C16.5117 41.0031 24.1746 48.6727 32.5955 48.6727C41.0172 48.6727 48.6797 41.0031 48.6797 32.5735C48.6797 24.1446 41.0168 16.4746 32.5955 16.4746C24.1746 16.4746 16.5117 24.1446 16.5117 32.5735Z" fill="#CEBD84"/>
<path fill-rule="evenodd" clip-rule="evenodd" d="M17.1562 32.5724C17.1562 40.665 24.5124 48.028 32.597 48.028C40.6816 48.028 48.0377 40.665 48.0377 32.5724C48.0377 24.4802 40.6816 17.1172 32.597 17.1172C24.5124 17.1172 17.1562 24.4802 17.1562 32.5724Z" fill="#D0C188"/>
<path fill-rule="evenodd" clip-rule="evenodd" d="M17.8008 32.5725C17.8008 40.3273 24.8502 47.3841 32.5977 47.3841C40.3452 47.3841 47.395 40.3277 47.395 32.5725C47.395 24.8177 40.3456 17.7617 32.5977 17.7617C24.8502 17.7613 17.8008 24.8177 17.8008 32.5725Z" fill="#D3C58D"/>
<path fill-rule="evenodd" clip-rule="evenodd" d="M18.4453 32.5734C18.4453 39.9916 25.1884 46.7405 32.5992 46.7405C40.01 46.7405 46.7531 39.9912 46.7531 32.5734C46.7531 25.1556 40.01 18.4062 32.5992 18.4062C25.1884 18.4062 18.4453 25.1556 18.4453 32.5734Z" fill="#D5C590"/>
<path fill-rule="evenodd" clip-rule="evenodd" d="M19.0859 32.5739C19.0859 39.6551 25.5226 46.0974 32.5968 46.0974C39.6713 46.0974 46.1076 39.6551 46.1076 32.5739C46.1076 25.4935 39.6713 19.0508 32.5968 19.0508C25.523 19.0504 19.0859 25.4931 19.0859 32.5739Z" fill="#D5C694"/>
<path fill-rule="evenodd" clip-rule="evenodd" d="M19.7305 32.5724C19.7305 39.3162 25.8608 45.4523 32.5975 45.4523C39.3349 45.4523 45.4649 39.3162 45.4649 32.5724C45.4649 25.8291 39.3349 19.6934 32.5975 19.6934C25.8604 19.693 19.7305 25.8291 19.7305 32.5724Z" fill="#D7C999"/>
<path fill-rule="evenodd" clip-rule="evenodd" d="M20.375 32.5729C20.375 38.9793 26.1986 44.8084 32.5986 44.8084C38.9989 44.8084 44.8222 38.9793 44.8222 32.5729C44.8222 26.167 38.9989 20.3379 32.5986 20.3379C26.1986 20.3379 20.375 26.1666 20.375 32.5729Z" fill="#DACD9E"/>
<path fill-rule="evenodd" clip-rule="evenodd" d="M21.0156 32.5734C21.0156 38.6428 26.5325 44.1648 32.5958 44.1648C38.6594 44.1648 44.1759 38.6428 44.1759 32.5734C44.1759 26.5045 38.6594 20.9824 32.5958 20.9824C26.5325 20.9824 21.0156 26.5045 21.0156 32.5734Z" fill="#DACEA1"/>
<path fill-rule="evenodd" clip-rule="evenodd" d="M21.6602 32.5724C21.6602 38.3047 26.8707 43.5201 32.5973 43.5201C38.3239 43.5201 43.5348 38.3047 43.5348 32.5724C43.5348 26.8408 38.3239 21.625 32.5973 21.625C26.8707 21.625 21.6602 26.8404 21.6602 32.5724Z" fill="#DACEA5"/>
<path fill-rule="evenodd" clip-rule="evenodd" d="M22.3047 32.5725C22.3047 37.9674 27.2089 42.8758 32.5984 42.8758C37.9879 42.8758 42.8921 37.9674 42.8921 32.5725C42.8921 27.1779 37.9879 22.2695 32.5984 22.2695C27.2089 22.2695 22.3047 27.1775 22.3047 32.5725Z" fill="#DED2AA"/>
<path fill-rule="evenodd" clip-rule="evenodd" d="M22.9453 32.573C22.9453 37.6305 27.5428 42.2327 32.5956 42.2327C37.6488 42.2327 42.2458 37.6305 42.2458 32.573C42.2458 27.5158 37.6488 22.9141 32.5956 22.9141C27.5428 22.9137 22.9453 27.5154 22.9453 32.573Z" fill="#E1D6AF"/>
<path fill-rule="evenodd" clip-rule="evenodd" d="M23.5898 32.5739C23.5898 37.2948 27.881 41.5899 32.5967 41.5899C37.3132 41.5899 41.6043 37.2948 41.6043 32.5739C41.6043 27.8537 37.3132 23.5586 32.5967 23.5586C27.8806 23.5582 23.5898 27.8533 23.5898 32.5739Z" fill="#E1D6B3"/>
<path fill-rule="evenodd" clip-rule="evenodd" d="M24.2344 32.5724C24.2344 36.9559 28.2188 40.944 32.5978 40.944C36.9772 40.944 40.9616 36.9555 40.9616 32.5724C40.9616 28.1897 36.9768 24.2012 32.5978 24.2012C28.2188 24.2012 24.2344 28.1893 24.2344 32.5724Z" fill="#E1D7B6"/>
<path fill-rule="evenodd" clip-rule="evenodd" d="M24.8789 32.5729C24.8789 36.619 28.5566 40.3005 32.5989 40.3005C36.6412 40.3005 40.3192 36.619 40.3192 32.5729C40.3192 28.5272 36.6412 24.8457 32.5989 24.8457C28.5566 24.8453 24.8789 28.5268 24.8789 32.5729Z" fill="#E5DBBC"/>
<path fill-rule="evenodd" clip-rule="evenodd" d="M25.5195 32.5734C25.5195 36.2821 28.8909 39.657 32.5961 39.657C36.3013 39.657 39.673 36.2825 39.673 32.5734C39.673 28.8651 36.3017 25.4902 32.5961 25.4902C28.8913 25.4902 25.5195 28.8647 25.5195 32.5734Z" fill="#E8DFC2"/>
<path fill-rule="evenodd" clip-rule="evenodd" d="M26.1641 32.5723C26.1641 35.9444 29.229 39.0123 32.5976 39.0123C35.9669 39.0123 39.0315 35.944 39.0315 32.5723C39.0315 29.2007 35.9665 26.1328 32.5976 26.1328C29.229 26.1328 26.1641 29.2007 26.1641 32.5723Z" fill="#E8E0C5"/>
<path fill-rule="evenodd" clip-rule="evenodd" d="M26.8086 32.5724C26.8086 35.6075 29.5668 38.3684 32.5987 38.3684C35.6309 38.3684 38.3891 35.6075 38.3891 32.5724C38.3891 29.5382 35.6309 26.7773 32.5987 26.7773C29.5672 26.7769 26.8086 29.5382 26.8086 32.5724Z" fill="#EAE4CB"/>
<path fill-rule="evenodd" clip-rule="evenodd" d="M27.4492 32.5729C27.4492 35.2706 29.9011 37.7248 32.5955 37.7248C35.2906 37.7248 37.7425 35.2706 37.7425 32.5729C37.7425 29.8761 35.2906 27.4219 32.5955 27.4219C29.9007 27.4219 27.4492 29.8757 27.4492 32.5729Z" fill="#EAE4CE"/>
<path fill-rule="evenodd" clip-rule="evenodd" d="M28.0938 32.5738C28.0938 34.9341 30.2393 37.0817 32.597 37.0817C34.955 37.0817 37.101 34.9341 37.101 32.5738C37.101 30.214 34.955 28.0664 32.597 28.0664C30.2389 28.066 28.0938 30.2136 28.0938 32.5738Z" fill="#EAE4D2"/>
<path fill-rule="evenodd" clip-rule="evenodd" d="M28.7383 32.5724C28.7383 34.5956 30.5775 36.4366 32.5985 36.4366C34.6198 36.4366 36.4591 34.5956 36.4591 32.5724C36.4591 30.5495 34.6198 28.709 32.5985 28.709C30.5775 28.7086 28.7383 30.5495 28.7383 32.5724Z" fill="#F0EAD8"/>
<path fill-rule="evenodd" clip-rule="evenodd" d="M29.3828 32.5729C29.3828 34.2591 30.9149 35.7931 32.5992 35.7931C34.2834 35.7931 35.8163 34.2591 35.8163 32.5729C35.8163 30.8874 34.2834 29.3535 32.5992 29.3535C30.9153 29.3535 29.3828 30.8874 29.3828 32.5729Z" fill="#F3EEDF"/>
<path fill-rule="evenodd" clip-rule="evenodd" d="M30.0234 32.573C30.0234 33.9218 31.2492 35.1487 32.5964 35.1487C33.9435 35.1487 35.1697 33.9218 35.1697 32.573C35.1697 31.2245 33.9435 29.998 32.5964 29.998C31.2492 29.9976 30.0234 31.2245 30.0234 32.573Z" fill="#F3EFE3"/>
<path fill-rule="evenodd" clip-rule="evenodd" d="M30.668 32.5723C30.668 33.5841 31.5874 34.5044 32.5979 34.5044C33.6087 34.5044 34.5278 33.5841 34.5278 32.5723C34.5278 31.5613 33.6087 30.6406 32.5979 30.6406C31.5874 30.6402 30.668 31.5609 30.668 32.5723Z" fill="#F3EFE6"/>
<path fill-rule="evenodd" clip-rule="evenodd" d="M31.3125 32.5728C31.3125 33.2476 31.9256 33.8609 32.599 33.8609C33.2731 33.8609 33.8862 33.2476 33.8862 32.5728C33.8862 31.8984 33.2731 31.2852 32.599 31.2852C31.9256 31.2852 31.3125 31.8984 31.3125 32.5728Z" fill="#FAF7EF"/>
<path fill-rule="evenodd" clip-rule="evenodd" d="M31.9531 32.5729C31.9531 32.9103 32.2599 33.2166 32.5962 33.2166C32.9332 33.2166 33.2388 32.9099 33.2388 32.5729C33.2388 32.2359 32.9328 31.9297 32.5962 31.9297C32.2599 31.9293 31.9531 32.2359 31.9531 32.5729Z" fill="#FFFEF9"/>
<path fill-rule="evenodd" clip-rule="evenodd" d="M17.6257 1.46252L21.023 0.825287L22.7488 0.596617L42.138 0.556641L44.0599 0.807697L46.5038 1.26224L63.4587 18.273V45.585L45.6427 63.3761L18.3091 63.4045L0.598972 45.625L0.539062 18.3541L17.6257 1.46252Z" fill="white"/>
<path fill-rule="evenodd" clip-rule="evenodd" d="M17.7435 62.836C18.6134 63.0423 19.4929 63.2294 20.3792 63.4013L44.943 63.3765C45.2361 63.3189 45.5289 63.2594 45.8205 63.1986L63.4587 45.5846V18.2722L47.581 2.34241C42.9255 1.22837 38.1607 0.63534 33.3744 0.574219L31.4014 0.578217C26.3508 0.676951 21.3292 1.3674 16.4391 2.63545L0.539062 18.3533L0.598972 45.6242L17.7435 62.836Z" fill="#AD952E"/>
<path fill-rule="evenodd" clip-rule="evenodd" d="M16.8312 61.9174C19.3493 62.5672 21.905 63.0615 24.4837 63.3973L40.8359 63.3806C42.8257 63.1167 44.7855 62.7605 46.7022 62.3212L63.4622 45.5851V18.2726L48.5067 3.26834C43.4603 1.95229 38.0848 1.2207 32.5995 1.2207C26.6668 1.2207 20.8632 2.07742 15.4645 3.60255L0.542969 18.3542L0.602878 45.6251L16.8312 61.9174Z" fill="#AE9630"/>
<path fill-rule="evenodd" clip-rule="evenodd" d="M15.8724 60.9566C21.1432 62.4406 26.8067 63.2733 32.596 63.2733C37.7638 63.2733 42.8314 62.6089 47.6094 61.4112L63.4591 45.5838V18.2717L49.4646 4.23091C44.1522 2.72136 38.4384 1.87305 32.5964 1.87305C26.2783 1.87305 20.1096 2.86488 14.4385 4.61309L0.539062 18.3529L0.598972 45.6238L15.8724 60.9566Z" fill="#AE9633"/>
<path fill-rule="evenodd" clip-rule="evenodd" d="M14.8739 59.9559C20.4107 61.6573 26.4309 62.6224 32.596 62.6224C38.1121 62.6224 43.5123 61.85 48.5539 60.4692L63.4587 45.5857V18.2732L50.4675 5.2394C44.8899 3.50959 38.817 2.52734 32.596 2.52734C26.056 2.53272 19.56 3.59721 13.3597 5.67955L0.539062 18.3543L0.598972 45.6252L14.8739 59.9559Z" fill="#B19937"/>
<path fill-rule="evenodd" clip-rule="evenodd" d="M13.8219 58.8984C19.8741 60.926 26.2137 61.9623 32.596 61.9675C38.4839 61.9675 44.2364 61.0684 49.546 59.4773L63.4587 45.584V18.2719L51.5291 6.30311C45.4293 4.23996 39.0346 3.18501 32.596 3.17969C25.4116 3.17969 18.4281 4.51813 12.2059 6.81962L0.539062 18.3531L0.598972 45.6239L13.8219 58.8984Z" fill="#B39C3B"/>
<path fill-rule="evenodd" clip-rule="evenodd" d="M12.6959 57.7697C18.7704 60.012 25.5853 61.3157 32.596 61.3157C38.8841 61.3157 45.0133 60.2667 50.5933 58.4329L63.4591 45.5854V18.2734L52.6613 7.43993C46.5458 5.16043 39.6709 3.83398 32.5964 3.83398C24.908 3.83398 17.4556 5.40149 10.9566 8.05638L0.539062 18.3545L0.598972 45.6254L12.6959 57.7697Z" fill="#B39C3E"/>
<path fill-rule="evenodd" clip-rule="evenodd" d="M11.4798 56.5475C17.8238 59.1341 25.0949 60.6608 32.596 60.6608C39.3194 60.6608 45.8572 59.4339 51.7088 57.3179L63.4591 45.5842V18.2721L53.8899 8.67155C47.5051 6.04104 40.1678 4.48633 32.5964 4.48633C24.3336 4.48633 16.3488 6.33808 9.57665 9.41952L0.539062 18.3532L0.598972 45.6241L11.4798 56.5475Z" fill="#B39C41"/>
<path fill-rule="evenodd" clip-rule="evenodd" d="M10.1402 55.2026C16.749 58.2045 24.5369 60.0083 32.596 60.0083C39.8015 60.0083 46.7902 58.5663 52.913 56.1157L63.4587 45.5845V18.272L55.2447 10.0307C48.5955 6.97643 40.7329 5.13867 32.596 5.13867C23.6463 5.13867 15.0312 7.36301 7.99463 10.9825L0.539062 18.3532L0.598972 45.624L10.1402 55.2026Z" fill="#B7A045"/>
<path fill-rule="evenodd" clip-rule="evenodd" d="M8.60731 53.6641C15.4718 57.1893 23.8711 59.3549 32.596 59.3549C40.3531 59.3549 47.8518 57.6431 54.2438 54.7863L63.4587 45.5843V18.2727L56.8063 11.5985C49.9019 8.00531 41.4155 5.79297 32.596 5.79297C22.7588 5.79297 13.335 8.5454 6.05955 12.8965L0.539062 18.3538L0.598972 45.6247L8.60731 53.6641Z" fill="#B9A349"/>
<path fill-rule="evenodd" clip-rule="evenodd" d="M6.74332 51.7927C13.8358 56.0251 23.0148 58.7012 32.5956 58.7012C41.0057 58.7012 49.1067 56.64 55.7583 53.2739L63.4583 45.5843V18.2718L58.7154 13.5129C51.5862 9.18815 42.2966 6.44531 32.5956 6.44531C21.3178 6.44531 10.5955 10.152 3.17949 15.7424L0.539062 18.3529L0.598972 45.6238L6.74332 51.7927Z" fill="#B9A34C"/>
<path fill-rule="evenodd" clip-rule="evenodd" d="M4.03331 49.0709C11.2596 54.4735 21.6604 58.0498 32.5979 58.0498C41.8511 58.0498 50.7198 55.4893 57.6078 51.43L63.4606 45.5853V18.2733L61.6198 16.4263C54.3791 10.8303 43.7687 7.09961 32.5979 7.09961C19.7448 7.09961 7.63189 12.038 0.542969 19.0752L0.601281 45.6253L4.03331 49.0709Z" fill="#B9A350"/>
<path fill-rule="evenodd" clip-rule="evenodd" d="M0.596888 44.936C7.37428 52.2111 19.5959 57.3953 32.5955 57.3953C43.1827 57.3953 53.2528 53.9561 60.2874 48.751L63.4582 45.5844V19.0583C56.5039 12.3945 44.8978 7.75195 32.5955 7.75195C19.5615 7.75195 7.30918 12.9642 0.542969 20.2696L0.596888 44.936Z" fill="#BDA754"/>
<path fill-rule="evenodd" clip-rule="evenodd" d="M0.595202 43.6594C6.98637 51.2387 19.3789 56.7432 32.5966 56.7432C45.0686 56.7432 56.8053 51.8423 63.4593 44.9227V20.2267C56.8053 13.3067 45.0682 8.40625 32.5966 8.40625C19.3454 8.40625 6.92367 13.9391 0.546875 21.548L0.595202 43.6594Z" fill="#BFAA58"/>
<path fill-rule="evenodd" clip-rule="evenodd" d="M0.593118 42.2641C6.50461 50.1972 19.1092 56.0886 32.5973 56.0886C45.2718 56.0886 57.1667 50.8864 63.46 43.6769V21.4703C57.1663 14.2608 45.2718 9.05859 32.5973 9.05859C19.0769 9.05859 6.4439 14.9784 0.550781 22.9403L0.593118 42.2641Z" fill="#BFAA5C"/>
<path fill-rule="evenodd" clip-rule="evenodd" d="M0.590234 40.7021C5.87907 49.0586 18.7613 55.4353 32.598 55.4353C45.5222 55.4353 57.6127 49.8721 63.4607 42.3284V22.8179C57.6123 15.2742 45.5222 9.71094 32.598 9.71094C18.7301 9.71094 5.82115 16.1161 0.554688 24.5005L0.590234 40.7021Z" fill="#BFAA5F"/>
<path fill-rule="evenodd" clip-rule="evenodd" d="M0.586152 38.837C4.99351 47.7424 18.2683 54.7824 32.5979 54.7824C45.8436 54.7824 58.1874 48.767 63.4606 40.8235V24.3237C58.1874 16.3802 45.8436 10.3652 32.5979 10.3652C18.238 10.3652 4.9384 17.4348 0.558594 26.3669L0.586152 38.837Z" fill="#C1AE63"/>
<path fill-rule="evenodd" clip-rule="evenodd" d="M0.578476 36.2576C3.47252 45.9993 17.4259 54.1283 32.5962 54.1283C46.2872 54.1283 58.9853 47.5072 63.459 39.0556V26.0902C58.9853 17.6386 46.2872 11.0176 32.5962 11.0176C17.3979 11.0176 3.42099 19.1765 0.5625 28.9422L0.578476 36.2576Z" fill="#C4B168"/>
<path fill-rule="evenodd" clip-rule="evenodd" d="M1.01953 32.5744C1.01953 43.519 16.0641 53.4769 32.5988 53.4769C47.0115 53.4769 60.2898 45.9112 63.4615 36.7212V28.4279C60.2898 19.238 47.0111 11.6719 32.5988 11.6719C16.0645 11.6719 1.01953 21.6302 1.01953 32.5744Z" fill="#C5B26B"/>
<path fill-rule="evenodd" clip-rule="evenodd" d="M2.00391 32.5731C2.00391 43.1755 16.5784 52.8224 32.5962 52.8224C48.6141 52.8224 63.1893 43.1755 63.1893 32.5731C63.1893 21.9707 48.6145 12.3242 32.5962 12.3242C16.5784 12.3242 2.00391 21.9711 2.00391 32.5731Z" fill="#C5B26E"/>
<path fill-rule="evenodd" clip-rule="evenodd" d="M2.99219 32.5742C2.99219 42.8347 17.0965 52.1706 32.5976 52.1706C48.0986 52.1706 62.203 42.8347 62.203 32.5742C62.203 22.314 48.0986 12.9785 32.5976 12.9785C17.0965 12.9785 2.99219 22.314 2.99219 32.5742Z" fill="#C8B572"/>
<path fill-rule="evenodd" clip-rule="evenodd" d="M3.98047 32.5733C3.98047 42.492 17.6143 51.5161 32.5986 51.5161C47.5832 51.5161 61.217 42.492 61.217 32.5733C61.217 22.6553 47.5828 13.6309 32.5986 13.6309C17.6143 13.6309 3.98047 22.6553 3.98047 32.5733Z" fill="#C8B575"/>
<path fill-rule="evenodd" clip-rule="evenodd" d="M4.96484 32.5728C4.96484 42.1494 18.1286 50.8628 32.5964 50.8628C47.0646 50.8628 60.2292 42.1494 60.2292 32.5728C60.2292 22.9966 47.0646 14.2832 32.5964 14.2832C18.1286 14.2832 4.96484 22.9966 4.96484 32.5728Z" fill="#CCBA79"/>
<path fill-rule="evenodd" clip-rule="evenodd" d="M5.95312 32.5735C5.95312 41.8082 18.6472 50.2098 32.5978 50.2098C46.5488 50.2098 59.2429 41.8078 59.2429 32.5735C59.2429 23.3395 46.5488 14.9375 32.5978 14.9375C18.6472 14.9375 5.95312 23.3395 5.95312 32.5735Z" fill="#CEBD7E"/>
<path fill-rule="evenodd" clip-rule="evenodd" d="M6.94141 32.5726C6.94141 41.4647 19.165 49.5557 32.5992 49.5557C46.0337 49.5557 58.2573 41.4647 58.2573 32.5726C58.2573 23.6808 46.0337 15.5898 32.5992 15.5898C19.1654 15.5898 6.94141 23.6808 6.94141 32.5726Z" fill="#CEBD81"/>
<path fill-rule="evenodd" clip-rule="evenodd" d="M7.92578 32.5737C7.92578 41.124 19.6793 48.9036 32.5962 48.9036C45.5136 48.9036 57.2671 41.124 57.2671 32.5737C57.2671 24.0237 45.5136 16.2441 32.5962 16.2441C19.6793 16.2441 7.92578 24.0241 7.92578 32.5737Z" fill="#CEBD84"/>
<path fill-rule="evenodd" clip-rule="evenodd" d="M8.91406 32.5732C8.91406 40.7817 20.1975 48.2503 32.5984 48.2503C44.9993 48.2503 56.2831 40.7817 56.2831 32.5732C56.2831 24.365 44.9993 16.8965 32.5984 16.8965C20.1979 16.8969 8.91406 24.3654 8.91406 32.5732Z" fill="#D0C188"/>
<path fill-rule="evenodd" clip-rule="evenodd" d="M9.89844 32.5742C9.89844 40.4406 20.7118 47.5977 32.5954 47.5977C44.4799 47.5977 55.2933 40.4406 55.2933 32.5742C55.2933 24.7083 44.4799 17.5508 32.5954 17.5508C20.7118 17.5512 9.89844 24.7087 9.89844 32.5742Z" fill="#D3C58D"/>
<path fill-rule="evenodd" clip-rule="evenodd" d="M10.8867 32.573C10.8867 40.0971 21.2295 46.9432 32.5968 46.9432C43.9641 46.9432 54.3069 40.0971 54.3069 32.573C54.3069 25.0492 43.9641 18.2031 32.5968 18.2031C21.2299 18.2031 10.8867 25.0492 10.8867 32.573Z" fill="#D5C590"/>
<path fill-rule="evenodd" clip-rule="evenodd" d="M11.875 32.5744C11.875 39.7567 21.7481 46.2918 32.5986 46.2918C43.4494 46.2918 53.323 39.7563 53.323 32.5744C53.323 25.3925 43.4494 18.8574 32.5986 18.8574C21.7481 18.8574 11.875 25.3925 11.875 32.5744Z" fill="#D5C694"/>
<path fill-rule="evenodd" clip-rule="evenodd" d="M12.8594 32.5735C12.8594 39.4136 22.2624 45.6377 32.5964 45.6377C42.9309 45.6377 52.3339 39.414 52.3339 32.5735C52.3339 25.7338 42.9309 19.5098 32.5964 19.5098C22.2624 19.5098 12.8594 25.7338 12.8594 32.5735Z" fill="#D7C999"/>
<path fill-rule="evenodd" clip-rule="evenodd" d="M13.8477 32.5727C13.8477 39.071 22.7802 44.9836 32.5974 44.9836C42.4146 44.9836 51.3472 39.071 51.3472 32.5727C51.3472 26.0747 42.4146 20.1621 32.5974 20.1621C22.7802 20.1625 13.8477 26.0751 13.8477 32.5727Z" fill="#DACD9E"/>
<path fill-rule="evenodd" clip-rule="evenodd" d="M14.8359 32.5737C14.8359 38.7298 23.2984 44.331 32.5984 44.331C41.8992 44.331 50.3616 38.7298 50.3616 32.5737C50.3616 26.418 41.8992 20.8164 32.5984 20.8164C23.298 20.8168 14.8359 26.418 14.8359 32.5737Z" fill="#DACEA1"/>
<path fill-rule="evenodd" clip-rule="evenodd" d="M15.8203 32.5728C15.8203 38.3875 23.8127 43.6773 32.5962 43.6773C41.3806 43.6773 49.3726 38.3875 49.3726 32.5728C49.3726 26.7589 41.3806 21.4688 32.5962 21.4688C23.8123 21.4688 15.8203 26.7593 15.8203 32.5728Z" fill="#DACEA5"/>
<path fill-rule="evenodd" clip-rule="evenodd" d="M16.8086 32.5739C16.8086 38.046 24.3309 43.0252 32.5976 43.0252C40.8648 43.0252 48.387 38.0464 48.387 32.5739C48.387 27.1018 40.8648 22.123 32.5976 22.123C24.3309 22.1234 16.8086 27.1022 16.8086 32.5739Z" fill="#DED2AA"/>
<path fill-rule="evenodd" clip-rule="evenodd" d="M17.7969 32.573C17.7969 37.7033 24.8487 42.371 32.599 42.371C40.3497 42.371 47.4015 37.7033 47.4015 32.573C47.4015 27.4431 40.3497 22.7754 32.599 22.7754C24.8487 22.7758 17.7969 27.4431 17.7969 32.573Z" fill="#E1D6AF"/>
<path fill-rule="evenodd" clip-rule="evenodd" d="M18.7812 32.5725C18.7812 37.361 25.3629 41.7173 32.5968 41.7173C39.8311 41.7173 46.4128 37.361 46.4128 32.5725C46.4128 27.7845 39.8311 23.4277 32.5968 23.4277C25.3629 23.4277 18.7812 27.7849 18.7812 32.5725Z" fill="#E1D6B3"/>
<path fill-rule="evenodd" clip-rule="evenodd" d="M19.7695 32.5732C19.7695 37.0195 25.8811 41.0648 32.5982 41.0648C39.3153 41.0648 45.4273 37.0195 45.4273 32.5732C45.4273 28.1273 39.3153 24.082 32.5982 24.082C25.8811 24.082 19.7695 28.1273 19.7695 32.5732Z" fill="#E1D7B6"/>
<path fill-rule="evenodd" clip-rule="evenodd" d="M20.7539 32.5743C20.7539 36.6783 26.3954 40.4126 32.5957 40.4126C38.7963 40.4126 44.4378 36.6779 44.4378 32.5743C44.4378 28.4706 38.7963 24.7363 32.5957 24.7363C26.3958 24.7367 20.7539 28.4706 20.7539 32.5743Z" fill="#E5DBBC"/>
<path fill-rule="evenodd" clip-rule="evenodd" d="M21.7422 32.5734C21.7422 36.3352 26.9136 39.7585 32.5966 39.7585C38.2801 39.7585 43.4515 36.3356 43.4515 32.5734C43.4515 28.8115 38.2805 25.3887 32.5966 25.3887C26.9136 25.3891 21.7422 28.8119 21.7422 32.5734Z" fill="#E8DFC2"/>
<path fill-rule="evenodd" clip-rule="evenodd" d="M22.7305 32.5729C22.7305 35.9934 27.4318 39.1052 32.5988 39.1052C37.7662 39.1052 42.4675 35.9934 42.4675 32.5729C42.4675 29.1528 37.7662 26.041 32.5988 26.041C27.4314 26.0414 22.7305 29.1532 22.7305 32.5729Z" fill="#E8E0C5"/>
<path fill-rule="evenodd" clip-rule="evenodd" d="M23.7148 32.5736C23.7148 35.6518 27.9461 38.4522 32.5959 38.4522C37.2457 38.4522 41.4777 35.6518 41.4777 32.5736C41.4777 29.4957 37.2457 26.6953 32.5959 26.6953C27.9461 26.6953 23.7148 29.4957 23.7148 32.5736Z" fill="#EAE4CB"/>
<path fill-rule="evenodd" clip-rule="evenodd" d="M24.7031 32.5727C24.7031 35.3087 28.4643 37.7981 32.5972 37.7981C36.731 37.7981 40.4917 35.3083 40.4917 32.5727C40.4917 29.837 36.731 27.3477 32.5972 27.3477C28.4639 27.3477 24.7031 29.837 24.7031 32.5727Z" fill="#EAE4CE"/>
<path fill-rule="evenodd" clip-rule="evenodd" d="M25.6914 32.5742C25.6914 34.9684 28.9824 37.1468 32.599 37.1468C36.2164 37.1468 39.5074 34.9688 39.5074 32.5742C39.5074 30.1803 36.2164 28.002 32.599 28.002C28.982 28.002 25.6914 30.1803 25.6914 32.5742Z" fill="#EAE4D2"/>
<path fill-rule="evenodd" clip-rule="evenodd" d="M26.6758 32.5733C26.6758 34.6253 29.4963 36.4926 32.5965 36.4926C35.6966 36.4926 38.5171 34.6253 38.5171 32.5733C38.5171 30.5212 35.6966 28.6543 32.5965 28.6543C29.4963 28.6543 26.6758 30.5216 26.6758 32.5733Z" fill="#F0EAD8"/>
<path fill-rule="evenodd" clip-rule="evenodd" d="M27.6641 32.5739C27.6641 34.2838 30.0145 35.8397 32.5978 35.8397C35.1815 35.8397 37.532 34.2838 37.532 32.5739C37.532 30.8641 35.1815 29.3086 32.5978 29.3086C30.0145 29.3086 27.6641 30.8645 27.6641 32.5739Z" fill="#F3EEDF"/>
<path fill-rule="evenodd" clip-rule="evenodd" d="M28.6523 32.5731C28.6523 33.9411 30.5327 35.1856 32.5988 35.1856C34.6653 35.1856 36.5461 33.9411 36.5461 32.5731C36.5461 31.2054 34.6653 29.9609 32.5988 29.9609C30.5327 29.9609 28.6523 31.2058 28.6523 32.5731Z" fill="#F3EFE3"/>
<path fill-rule="evenodd" clip-rule="evenodd" d="M29.6367 32.5726C29.6367 33.5984 31.047 34.5322 32.5971 34.5322C34.1471 34.5322 35.5574 33.5984 35.5574 32.5726C35.5574 31.5468 34.1471 30.6133 32.5971 30.6133C31.0474 30.6133 29.6367 31.5472 29.6367 32.5726Z" fill="#F3EFE6"/>
<path fill-rule="evenodd" clip-rule="evenodd" d="M30.625 32.5736C30.625 33.2576 31.5652 33.8801 32.5984 33.8801C33.6321 33.8801 34.5719 33.2576 34.5719 32.5736C34.5719 31.89 33.6317 31.2676 32.5984 31.2676C31.5656 31.2676 30.625 31.8904 30.625 32.5736Z" fill="#FAF7EF"/>
<path fill-rule="evenodd" clip-rule="evenodd" d="M31.6094 32.5728C31.6094 32.9146 32.0795 33.226 32.5955 33.226C33.1119 33.226 33.5824 32.915 33.5824 32.5728C33.5824 32.2313 33.1119 31.9199 32.5955 31.9199C32.0795 31.9203 31.6094 32.2313 31.6094 32.5728Z" fill="#FFFEF9"/>
<path fill-rule="evenodd" clip-rule="evenodd" d="M43.4595 6.04688L58.0324 20.7041L57.3342 20.994L43.168 6.74488L43.4595 6.04688Z" fill="#281C09"/>
<path fill-rule="evenodd" clip-rule="evenodd" d="M58.0312 43.1535L43.1732 58.0251L42.8828 57.3271L57.333 42.8633L58.0312 43.1535Z" fill="#140000"/>
<path fill-rule="evenodd" clip-rule="evenodd" d="M20.8889 58.025L6.03125 43.225L6.729 42.9336L21.1776 57.327L20.8889 58.025Z" fill="#221700"/>
<path fill-rule="evenodd" clip-rule="evenodd" d="M6.03125 20.8473L20.8889 6.04688L21.1776 6.74488L6.729 21.1383L6.03125 20.8473Z" fill="#342615"/>
<path fill-rule="evenodd" clip-rule="evenodd" d="M58.0302 20.7031V43.1536L57.332 42.8633V20.993L58.0302 20.7031Z" fill="#1D1100"/>
<path fill-rule="evenodd" clip-rule="evenodd" d="M43.1735 58.0261H20.8867L21.1755 57.3281H42.8832L43.1735 58.0261Z" fill="#180900"/>
<path fill-rule="evenodd" clip-rule="evenodd" d="M6.03125 43.2246V20.8457L6.729 21.1367V42.9331L6.03125 43.2246Z" fill="#2F2211"/>
<path fill-rule="evenodd" clip-rule="evenodd" d="M20.8867 6.04688H43.4587L43.1672 6.74488H21.1755L20.8867 6.04688Z" fill="#332514"/>
<path fill-rule="evenodd" clip-rule="evenodd" d="M63.4587 18.2724L45.8867 0.540492L46.1092 0L63.9986 18.0517L63.4587 18.2724Z" fill="#CDC1AF"/>
<path fill-rule="evenodd" clip-rule="evenodd" d="M0.59858 45.6562L18.3139 63.4589L18.091 63.9998L0.0585938 45.8777L0.59858 45.6562Z" fill="#D5CABA"/>
<path fill-rule="evenodd" clip-rule="evenodd" d="M45.6016 63.4586L63.4587 45.584L63.9986 45.8067L45.8228 63.9995L45.6016 63.4586Z" fill="#E9E4DD"/>
<path fill-rule="evenodd" clip-rule="evenodd" d="M18.4565 0.540492L0.59858 18.4151L0.0585938 18.1929L18.2344 0L18.4565 0.540492Z" fill="#BBAA91"/>
<path fill-rule="evenodd" clip-rule="evenodd" d="M63.4609 45.5835V18.2715L64.0009 18.0508V45.8062L63.4609 45.5835Z" fill="#DFD6C9"/>
<path fill-rule="evenodd" clip-rule="evenodd" d="M45.8863 0.540492H18.4564L18.2344 0H46.1088L45.8863 0.540492Z" fill="#BCAC93"/>
<path fill-rule="evenodd" clip-rule="evenodd" d="M18.3166 63.459H45.6039L45.8252 63.9999H18.0938L18.3166 63.459Z" fill="#E4DDD3"/>
<path fill-rule="evenodd" clip-rule="evenodd" d="M0.59858 18.4156V45.6569L0.0585938 45.8784V18.1934L0.59858 18.4156Z" fill="#C0B19C"/>
<path fill-rule="evenodd" clip-rule="evenodd" d="M45.8893 0.541016H18.4595L0.601562 18.4156V45.657L18.3165 63.4596H45.6038L63.4613 45.585V18.2729L45.8893 0.541016ZM58.033 43.1544L43.175 58.0259H20.8882L6.03058 43.2259V20.8471L20.8882 6.04708H43.4606L58.033 20.7043V43.1544Z" fill="#664B2B"/>
<path fill-rule="evenodd" clip-rule="evenodd" d="M14.8985 17.1282L9.25536 22.4192L8.69141 22.1738L15.1349 16.1328L14.8985 17.1282Z" fill="#9A8160"/>
<path fill-rule="evenodd" clip-rule="evenodd" d="M9.25536 41.3652L14.6844 46.8709L15.3582 48.3573L8.69141 41.5967L9.25536 41.3652Z" fill="#B09D81"/>
<path fill-rule="evenodd" clip-rule="evenodd" d="M30.7554 9.54965H24.3982L23.9844 8.98438H31.3852L30.7554 9.54965Z" fill="#9D8664"/>
<path fill-rule="evenodd" clip-rule="evenodd" d="M9.25536 22.4193V41.3665L8.69141 41.598V22.1738L9.25536 22.4193Z" fill="#A18B6C"/>
<path fill-rule="evenodd" clip-rule="evenodd" d="M24.7547 54.3066H30.7549L31.3847 54.8723H24.1484L24.7547 54.3066Z" fill="#BCAC93"/>
<path fill-rule="evenodd" clip-rule="evenodd" d="M18.6843 24.8503L14.8984 17.1282L15.1349 16.1328L18.6428 23.2879L18.6843 24.8503Z" fill="#533E22"/>
<path fill-rule="evenodd" clip-rule="evenodd" d="M24.3968 9.54965L18.6822 24.8505L18.6406 23.2882L23.983 8.98438L24.3968 9.54965Z" fill="#866C46"/>
<path fill-rule="evenodd" clip-rule="evenodd" d="M14.6836 46.8725V28.4258L15.3574 31.3621V48.3588L14.6836 46.8725Z" fill="#43321C"/>
<path fill-rule="evenodd" clip-rule="evenodd" d="M14.6836 28.4258L19.3977 38.9362L19.4784 40.5505L15.3574 31.3621L14.6836 28.4258Z" fill="#907652"/>
<path fill-rule="evenodd" clip-rule="evenodd" d="M24.7547 24.9219V54.3076L24.1484 54.8732V28.3335L24.7547 24.9219Z" fill="#775A32"/>
<path fill-rule="evenodd" clip-rule="evenodd" d="M19.3984 38.9359L24.756 24.9219L24.1497 28.3335L19.4791 40.5502L19.3984 38.9359Z" fill="#5E4625"/>
<path fill-rule="evenodd" clip-rule="evenodd" d="M30.7539 54.3078V9.54965L31.3838 8.98438V54.8735L30.7539 54.3078Z" fill="#74572D"/>
<path fill-rule="evenodd" clip-rule="evenodd" d="M18.6829 24.8497L14.897 17.1277L9.25391 22.4187V41.3659L14.6829 46.8716V28.4249L19.397 38.9353L24.7546 24.9213V54.307H30.7547V9.54883H24.3975L18.6829 24.8497Z" fill="#664B2B"/>
<path fill-rule="evenodd" clip-rule="evenodd" d="M54.8086 27.6382V22.633L55.3725 22.4023V28.2766L54.8086 27.6382Z" fill="#B8A68E"/>
<path fill-rule="evenodd" clip-rule="evenodd" d="M41.9501 9.54965H34.9506L34.3164 8.98438H42.1858L41.9501 9.54965Z" fill="#9D8664"/>
<path fill-rule="evenodd" clip-rule="evenodd" d="M54.8086 41.3655V31.9272L55.3725 31.3008V41.6005L54.8086 41.3655Z" fill="#B8A68E"/>
<path fill-rule="evenodd" clip-rule="evenodd" d="M34.9506 54.3066H41.8075L42.0392 54.8723H34.3164L34.9506 54.3066Z" fill="#BCAC93"/>
<path fill-rule="evenodd" clip-rule="evenodd" d="M54.811 22.6338L41.9531 9.54965L42.1888 8.98438L55.3749 22.4031L54.811 22.6338Z" fill="#AC9679"/>
<path fill-rule="evenodd" clip-rule="evenodd" d="M41.8086 54.3063L54.809 41.3652L55.373 41.6003L42.0402 54.872L41.8086 54.3063Z" fill="#C0B19C"/>
<path fill-rule="evenodd" clip-rule="evenodd" d="M49.3808 27.6387H54.8094L55.3734 28.2771H48.707L49.3808 27.6387Z" fill="#6F532A"/>
<path fill-rule="evenodd" clip-rule="evenodd" d="M49.3808 25.4922V27.6374L48.707 28.2758V25.762L49.3808 25.4922Z" fill="#312413"/>
<path fill-rule="evenodd" clip-rule="evenodd" d="M48.8827 39.2204C48.9047 39.1937 48.9263 39.1667 48.9474 39.1393L48.4054 38.7383C48.389 38.7589 48.3723 38.7793 48.3555 38.7994L48.8827 39.2204Z" fill="#2C1F0F"/>
<path fill-rule="evenodd" clip-rule="evenodd" d="M48.9447 39.1406C48.9651 39.1134 48.9855 39.0854 49.0046 39.0582L48.4491 38.6816C48.4339 38.7014 48.4183 38.7209 48.4023 38.74L48.9447 39.1406Z" fill="#2D2110"/>
<path fill-rule="evenodd" clip-rule="evenodd" d="M49.0044 39.0576C49.0232 39.0296 49.0419 39.0016 49.0599 38.9736L48.4928 38.625C48.4788 38.6434 48.4648 38.6618 48.4492 38.681L49.0044 39.0576Z" fill="#312413"/>
<path fill-rule="evenodd" clip-rule="evenodd" d="M49.0632 38.9725C49.0804 38.9445 49.0976 38.9161 49.114 38.8877L48.5368 38.5703C48.5237 38.5879 48.5105 38.6059 48.4961 38.6239L49.0632 38.9725Z" fill="#342615"/>
<path fill-rule="evenodd" clip-rule="evenodd" d="M49.1127 38.8893C49.1284 38.8611 49.1437 38.8327 49.1586 38.8041L48.5727 38.5215C48.5605 38.5385 48.548 38.5553 48.5352 38.5719L49.1127 38.8893Z" fill="#3A2B18"/>
<path fill-rule="evenodd" clip-rule="evenodd" d="M49.1597 38.8037L49.2013 38.7185L48.6086 38.4727L48.5742 38.521L49.1597 38.8037Z" fill="#3F2F1A"/>
<path fill-rule="evenodd" clip-rule="evenodd" d="M49.1982 38.718C49.2106 38.6896 49.2229 38.6608 49.2341 38.6329L48.6366 38.4258L48.6055 38.4718L49.1982 38.718Z" fill="#47351E"/>
<path fill-rule="evenodd" clip-rule="evenodd" d="M49.2342 38.6331C49.2458 38.6047 49.2562 38.5759 49.2662 38.5479L48.6647 38.3828C48.6557 38.3974 48.6464 38.4118 48.6367 38.426L49.2342 38.6331Z" fill="#4D3A20"/>
<path fill-rule="evenodd" clip-rule="evenodd" d="M49.2656 38.5481C49.2747 38.5201 49.2843 38.4917 49.2919 38.4637L48.6896 38.3418L48.6641 38.383L49.2656 38.5481Z" fill="#554023"/>
<path fill-rule="evenodd" clip-rule="evenodd" d="M49.2937 38.4634C49.3021 38.4355 49.3093 38.4079 49.3165 38.3803L48.7134 38.3027L48.6914 38.3419L49.2937 38.4634Z" fill="#5E4625"/>
<path fill-rule="evenodd" clip-rule="evenodd" d="M49.3179 38.3815C49.3243 38.3539 49.3295 38.3263 49.3351 38.2992L48.7344 38.2676C48.7288 38.2792 48.722 38.2916 48.7148 38.304L49.3179 38.3815Z" fill="#654B28"/>
<path fill-rule="evenodd" clip-rule="evenodd" d="M49.3351 38.2991C49.3399 38.2723 49.3435 38.2451 49.3467 38.2188L48.7515 38.2331L48.7344 38.2675L49.3351 38.2991Z" fill="#6F512A"/>
<path fill-rule="evenodd" clip-rule="evenodd" d="M49.3451 38.2174C49.3491 38.191 49.3515 38.1643 49.3531 38.1387L48.764 38.1998L48.75 38.2318L49.3451 38.2174Z" fill="#74572D"/>
<path fill-rule="evenodd" clip-rule="evenodd" d="M49.3543 38.1393C49.3559 38.1133 49.3567 38.0877 49.3567 38.0625L48.7764 38.1708L48.7656 38.2008L49.3543 38.1393Z" fill="#775A32"/>
<path fill-rule="evenodd" clip-rule="evenodd" d="M49.3538 38.063C49.3538 38.0379 49.353 38.0131 49.3506 37.9883L48.7818 38.1434C48.7794 38.1522 48.777 38.1618 48.7734 38.171L49.3538 38.063Z" fill="#7A5D34"/>
<path fill-rule="evenodd" clip-rule="evenodd" d="M49.3543 37.988C49.3535 37.9636 49.3503 37.94 49.3471 37.916L48.7915 38.1175C48.7899 38.1259 48.7876 38.1343 48.7852 38.1427L49.3543 37.988Z" fill="#7D5F37"/>
<path fill-rule="evenodd" clip-rule="evenodd" d="M49.3446 37.9164C49.3414 37.8928 49.3366 37.87 49.3322 37.8477L48.7923 38.0943C48.7915 38.1019 48.7907 38.1095 48.7891 38.1179L49.3446 37.9164Z" fill="#7D5F37"/>
<path fill-rule="evenodd" clip-rule="evenodd" d="M49.333 37.8468C49.3274 37.824 49.3222 37.8024 49.315 37.7812L48.7938 38.0723C48.7946 38.0791 48.7938 38.0859 48.793 38.0939L49.333 37.8468Z" fill="#7D5F37"/>
<path fill-rule="evenodd" clip-rule="evenodd" d="M49.3158 37.7827C49.3094 37.7616 49.3018 37.7409 49.293 37.7207L48.793 38.0541C48.7943 38.0605 48.7949 38.0671 48.7946 38.0737L49.3158 37.7827Z" fill="#7A5D34"/>
<path fill-rule="evenodd" clip-rule="evenodd" d="M49.2927 37.7205C49.2847 37.7005 49.2756 37.6811 49.2655 37.6621L48.7891 38.0367C48.7907 38.0423 48.7923 38.0479 48.7931 38.0543L49.2927 37.7205Z" fill="#775A32"/>
<path fill-rule="evenodd" clip-rule="evenodd" d="M49.2641 37.6618C49.2541 37.643 49.2429 37.6248 49.2306 37.6074L48.7812 38.0204C48.7836 38.0256 48.786 38.0304 48.7876 38.036L49.2641 37.6618Z" fill="#775930"/>
<path fill-rule="evenodd" clip-rule="evenodd" d="M49.2315 37.6066C49.2198 37.5894 49.2073 37.5727 49.194 37.5566L48.7734 38.0064C48.7766 38.0104 48.7798 38.0148 48.7818 38.0196L49.2315 37.6066Z" fill="#74562D"/>
<path fill-rule="evenodd" clip-rule="evenodd" d="M49.1957 37.5563C49.1819 37.5405 49.1674 37.5254 49.1522 37.5111L48.7644 37.9944C48.7684 37.998 48.7716 38.002 48.7752 38.006L49.1957 37.5563ZM49.1518 37.5111C49.1364 37.4968 49.1203 37.4833 49.1035 37.4707L48.75 37.984L48.764 37.994L49.1518 37.5111Z" fill="#71542A"/>
<path fill-rule="evenodd" clip-rule="evenodd" d="M49.1034 37.4703C49.0861 37.4578 49.0681 37.4462 49.0495 37.4355L48.7344 37.976C48.7408 37.9784 48.7452 37.9812 48.75 37.984L49.1034 37.4703Z" fill="#71542A"/>
<path fill-rule="evenodd" clip-rule="evenodd" d="M49.0471 37.4358C49.0281 37.4248 49.0083 37.4149 48.988 37.4062L48.7148 37.9695C48.7212 37.9715 48.7264 37.9739 48.732 37.9763L49.0471 37.4358Z" fill="#74572D"/>
<path fill-rule="evenodd" clip-rule="evenodd" d="M48.9885 37.4064C48.9676 37.3973 48.9463 37.3895 48.9246 37.3828L48.6953 37.9653C48.7022 37.9665 48.709 37.9679 48.7157 37.9697L48.9885 37.4064Z" fill="#775931"/>
<path fill-rule="evenodd" clip-rule="evenodd" d="M48.927 37.3828C48.9042 37.3756 48.881 37.3697 48.8575 37.3652L48.6758 37.9621C48.6838 37.9629 48.6914 37.9637 48.6977 37.9653L48.927 37.3828Z" fill="#7A5D35"/>
<path fill-rule="evenodd" clip-rule="evenodd" d="M48.8537 37.3667C48.8289 37.3614 48.8039 37.3577 48.7786 37.3555L48.6484 37.9627C48.6564 37.9631 48.6648 37.9631 48.672 37.9639L48.8537 37.3667Z" fill="#80633C"/>
<path fill-rule="evenodd" clip-rule="evenodd" d="M48.7808 37.3544C48.7541 37.3515 48.7273 37.3499 48.7005 37.3496L48.625 37.9617L48.6506 37.9613L48.7808 37.3544Z" fill="#836842"/>
<path fill-rule="evenodd" clip-rule="evenodd" d="M48.7015 37.3497C48.6729 37.3493 48.6442 37.3501 48.6156 37.3521L48.5977 37.9641C48.6068 37.9629 48.6164 37.9625 48.6256 37.9617L48.7015 37.3497Z" fill="#896D48"/>
<path fill-rule="evenodd" clip-rule="evenodd" d="M48.6141 37.3516C48.5838 37.3539 48.5536 37.3571 48.5234 37.3612L48.5662 37.9672L48.5957 37.9636L48.6141 37.3516Z" fill="#8D734F"/>
<path fill-rule="evenodd" clip-rule="evenodd" d="M54.8096 31.9272H44.809L44.1484 31.3008H55.3735L54.8096 31.9272Z" fill="#5C4525"/>
<path fill-rule="evenodd" clip-rule="evenodd" d="M40.9531 16.6992L49.3816 25.4934L48.7078 25.7633L41.5546 18.2999L40.9531 16.6992Z" fill="#3E2D19"/>
<path fill-rule="evenodd" clip-rule="evenodd" d="M48.8811 39.2217C48.8703 39.2353 48.8567 39.2501 48.8427 39.2665L48.7952 39.3201L48.2712 38.8955L48.3163 38.8444L48.3539 38.8008L48.8811 39.2217ZM48.7952 39.3205L48.7389 39.3825L48.2185 38.9539C48.2372 38.9335 48.2552 38.9139 48.2708 38.8959L48.7952 39.3205ZM48.7389 39.3825L48.6742 39.4524L48.1602 39.0187L48.2185 38.9539L48.7389 39.3825Z" fill="#2C1F0F"/>
<path fill-rule="evenodd" clip-rule="evenodd" d="M48.6733 39.4513L48.5999 39.5297C48.5999 39.5297 48.5475 39.5857 48.5188 39.6152L48.0195 39.1659C48.0451 39.1395 48.0922 39.0887 48.0922 39.0887L48.1593 39.0176L48.6733 39.4513Z" fill="#2C1F0F"/>
<path fill-rule="evenodd" clip-rule="evenodd" d="M48.5216 39.6158C48.5076 39.631 48.4928 39.6457 48.4788 39.6613L47.9844 39.2076L48.0227 39.166L48.5216 39.6158Z" fill="#2D2110"/>
<path fill-rule="evenodd" clip-rule="evenodd" d="M48.477 39.6619L48.4311 39.7091L48.3843 39.7583L48.3352 39.8094L48.2845 39.8618L47.8124 39.3865L47.8567 39.3401L47.9003 39.2945L47.9418 39.251L47.9826 39.209L48.477 39.6619ZM48.2841 39.8618L48.2318 39.9162L48.1779 39.9718C48.1779 39.9718 48.1411 40.0101 48.1215 40.0293L48.0644 40.0881L48.0053 40.1481L47.9454 40.2096L47.8839 40.2728L47.4609 39.7483L47.5149 39.6927L47.568 39.6387L47.6195 39.5856L47.6694 39.5336L47.7185 39.4832C47.7341 39.4664 47.7661 39.4341 47.7661 39.4341C47.7817 39.4177 47.7964 39.4017 47.812 39.3861L48.2841 39.8618Z" fill="#2D2110"/>
<path fill-rule="evenodd" clip-rule="evenodd" d="M47.8856 40.2714C47.8644 40.293 47.8436 40.3138 47.8225 40.3362L47.7578 40.4017L47.352 39.8604L47.4075 39.8029L47.463 39.7461L47.8856 40.2714ZM47.7578 40.4017L47.6915 40.4685L47.6244 40.5372L47.5557 40.6068L47.4854 40.6776L47.4143 40.7499C47.4143 40.7499 47.3668 40.7983 47.3416 40.8227L47.2681 40.897L47.1938 40.9722L47.1183 41.0482L47.042 41.1249L46.965 41.2029L46.8863 41.2816C46.8863 41.2816 46.834 41.3344 46.8068 41.3608L46.7273 41.4411L46.6462 41.5223L46.5644 41.6042L46.4817 41.687C46.4817 41.687 46.4262 41.7422 46.399 41.7701L46.3147 41.8537L46.2305 41.938L46.1454 42.0232L46.0595 42.1088L45.9737 42.1947L45.887 42.2811L45.8003 42.3674L45.7128 42.4546L45.6254 42.5417L45.5371 42.6297L45.4488 42.7172L45.3598 42.8056L45.2715 42.8939L45.1824 42.9823L45.0934 43.0702L45.0043 43.1586L44.9152 43.2473L44.8262 43.3353L44.7371 43.424L44.6481 43.512L44.5598 43.5999L44.4707 43.6879C44.4707 43.6879 44.4124 43.7462 44.3825 43.775L44.2942 43.8626L44.2067 43.9497L44.1193 44.0361L44.0318 44.1224L43.9451 44.2084C43.9451 44.2084 43.8872 44.2651 43.8592 44.2935L43.7734 44.3783L43.6875 44.4626L43.87 43.342L43.9419 43.2705L44.0146 43.1985L44.0889 43.1258L44.1624 43.0526L44.2359 42.9795L44.311 42.9055L44.3852 42.8319L44.4607 42.7572L44.5358 42.6824L44.6109 42.6073L44.6864 42.5325L44.7619 42.4574L44.8374 42.3822L44.9129 42.307L44.9883 42.2319L45.0638 42.1567L45.1393 42.0816L45.2148 42.0064C45.2404 41.9816 45.2903 41.9313 45.2903 41.9313L45.3658 41.8561L45.4409 41.7809L45.5159 41.7058C45.5415 41.681 45.591 41.631 45.591 41.631L45.6661 41.5563L45.7404 41.4819L45.8147 41.408L45.8882 41.334L45.9617 41.2608L46.0344 41.1877L46.1071 41.1153L46.1789 41.0434L46.2508 40.9714L46.3211 40.9006L46.3914 40.8299L46.4609 40.7599C46.5297 40.6919 46.5979 40.6233 46.6654 40.554L46.7325 40.4865L46.7988 40.4201C46.8413 40.3761 46.8841 40.3325 46.9274 40.2894C46.9494 40.2678 46.9905 40.225 46.9905 40.225L47.0536 40.1623L47.1143 40.0999L47.175 40.0383L47.2342 39.978L47.2925 39.9188L47.3504 39.8604L47.7578 40.4017Z" fill="#2F2211"/>
<path fill-rule="evenodd" clip-rule="evenodd" d="M43.6881 44.4604L43.6038 44.544L43.5195 44.6271L43.7272 43.4818L43.7983 43.411L43.871 43.3398L43.6881 44.4604Z" fill="#2F2211"/>
<path fill-rule="evenodd" clip-rule="evenodd" d="M43.5213 44.6282L43.4378 44.7105L43.3552 44.7921L43.2733 44.8732L43.1922 44.9532L43.1119 45.0323L43.0324 45.1107C43.0324 45.1107 42.9793 45.1627 42.9538 45.1887L42.8759 45.265L42.7996 45.3406L42.7241 45.4157C42.7241 45.4157 42.6734 45.4649 42.649 45.4897L42.5747 45.5624L42.9266 44.2752L42.9889 44.2136C43.0093 44.1928 43.052 44.1512 43.052 44.1512L43.1159 44.0881L43.1814 44.0237L43.2469 43.9586L43.314 43.893L43.3811 43.8258L43.4498 43.7587L43.5185 43.6907L43.588 43.6219L43.6583 43.5524L43.7294 43.4824L43.5213 44.6282ZM42.5743 45.5628L42.5016 45.6344L42.4297 45.7052L42.3595 45.7743L42.2908 45.8427C42.2908 45.8427 42.2448 45.8871 42.2229 45.9094L42.1558 45.9746L42.0911 46.039L42.0272 46.1013L41.9648 46.1629L42.4102 44.7837L42.4625 44.7317L42.5164 44.6785L42.5719 44.6238L42.6282 44.5682L42.6862 44.5118L42.7445 44.4539L42.8036 44.3955L42.8643 44.3359L42.9258 44.2756L42.5743 45.5628Z" fill="#2D2110"/>
<path fill-rule="evenodd" clip-rule="evenodd" d="M41.9661 46.1628C41.9461 46.1829 41.9259 46.2027 41.9054 46.2224L41.8463 46.2808L41.7884 46.3379L42.2613 44.9311L42.3096 44.8827L42.3604 44.8336C42.3767 44.8172 42.3939 44.8 42.4119 44.7832L41.9661 46.1628ZM41.7884 46.3379L41.7321 46.3931L41.6774 46.4471L41.6243 46.499L41.5727 46.5494L41.5236 46.5982L41.4761 46.6453L41.4302 46.6901C41.4302 46.6901 41.3718 46.7481 41.3435 46.7749L41.2656 46.852L41.1953 46.9212L41.7593 45.4244L41.8184 45.3661L41.8847 45.3009L41.9574 45.2293L41.9965 45.191L42.0372 45.1514L42.0788 45.1098L42.1223 45.0674L42.1666 45.0235L42.2134 44.9783L42.2609 44.9315L41.7884 46.3379Z" fill="#2D2110"/>
<path fill-rule="evenodd" clip-rule="evenodd" d="M41.1936 46.9206C41.1708 46.9422 41.1508 46.9622 41.1312 46.9813C41.1312 46.9813 41.0937 47.0177 41.0781 47.0341L41.66 45.5194L41.7044 45.475L41.7575 45.4238L41.1936 46.9206Z" fill="#2C1F0F"/>
<path fill-rule="evenodd" clip-rule="evenodd" d="M41.0785 47.0347C41.0614 47.0503 41.0474 47.0647 41.0342 47.0778L40.9735 47.1366L40.9531 47.1574L41.5546 45.6235L41.5718 45.6063L41.6233 45.5563L41.6609 45.5195L41.0785 47.0347Z" fill="#2C1F0F"/>
<path fill-rule="evenodd" clip-rule="evenodd" d="M44.809 37.3613H48.5238L48.4787 37.9734H44.1484L44.809 37.3613Z" fill="#896D47"/>
<path fill-rule="evenodd" clip-rule="evenodd" d="M44.809 31.9272V37.3613L44.1484 37.9734V31.3008L44.809 31.9272Z" fill="#3C2C19"/>
<path fill-rule="evenodd" clip-rule="evenodd" d="M40.9531 47.1575V16.6992L41.5546 18.2999V45.6236L40.9531 47.1575Z" fill="#8D734F"/>
<path fill-rule="evenodd" clip-rule="evenodd" d="M34.9506 9.54965V54.3078L34.3164 54.8735V8.98438L34.9506 9.54965Z" fill="#574123"/>
<path fill-rule="evenodd" clip-rule="evenodd" d="M34.9531 9.54883V54.3066H41.81L54.8108 41.3655V31.9277H44.8103V37.3618H48.5251C49.5252 37.2191 49.5971 38.3628 48.8825 39.2208C48.168 40.0787 40.9537 47.157 40.9537 47.157V16.6988L49.3826 25.493V27.6381H54.8112V22.633L41.9534 9.54883H34.9531Z" fill="#664B2B"/>
</svg>
