<svg width="64" height="64" viewBox="0 0 64 64" fill="none" xmlns="http://www.w3.org/2000/svg">
<g clip-path="url(#clip0_11147_10286)">
<path fill-rule="evenodd" clip-rule="evenodd" d="M46.1089 0H18.1819L0 18.1816V45.8906L18.0365 64H45.8181L64 45.8181V18.0365L46.1089 0ZM58.4729 43.3455L43.3455 58.4729H20.6545L5.52744 43.4184V20.6545L20.6545 5.59996H43.6359L58.4726 20.5091V43.3455H58.4729Z" fill="black"/>
<path fill-rule="evenodd" clip-rule="evenodd" d="M18.4128 24.7276L14.5582 16.873L8.8125 22.255V41.5279L14.3399 47.1278V28.364L19.1401 39.0549L24.5943 24.8005V54.6914H30.7033V9.16406H24.231L18.4128 24.7276ZM34.9753 9.16406V54.6914H41.9573L55.1937 41.5279V31.9275H45.0118V37.455H48.7936C49.812 37.3093 49.8845 38.4734 49.1569 39.3457C48.4299 40.2184 41.0843 47.4186 41.0843 47.4186V16.4368L49.6659 25.3821V27.5639H55.1933V22.4729L42.1023 9.16406H34.9753Z" fill="black"/>
</g>
<defs>
<clipPath id="clip0_11147_10286">
<rect width="64" height="64" fill="white"/>
</clipPath>
</defs>
</svg>