<svg width="64" height="64" viewBox="0 0 64 64" fill="none" xmlns="http://www.w3.org/2000/svg">
<path d="M31.9999 18C29.6427 18.0004 27.3236 18.5952 25.2567 19.7294C23.1898 20.8636 21.4416 22.5008 20.1736 24.4897H0L2.00831 26.4999H19.1257C18.8008 27.2565 18.5431 28.0402 18.3554 28.842H4.34811L6.33195 30.8276H18.0306C17.9922 31.2324 17.9713 31.6387 17.9681 32.0453C17.9718 32.4207 17.9906 32.7959 18.0243 33.1699H8.67189L10.6558 35.1556H18.3294C18.5073 35.9564 18.755 36.7401 19.0695 37.4976H12.9955L15.0039 39.5078H20.1325C21.3932 41.5199 23.1431 43.179 25.2185 44.3302C27.2939 45.4814 29.6271 46.087 31.9998 46.0903C34.3726 46.087 36.7058 45.4814 38.7813 44.3303C40.8568 43.1791 42.6067 41.5199 43.8674 39.5078H48.9961L51.0044 37.4976H44.9305C45.2451 36.7401 45.4927 35.9564 45.6706 35.1556H53.3443L55.3281 33.1699H45.9757C46.0094 32.7959 46.0282 32.4207 46.0318 32.0453C46.0287 31.6387 46.008 31.2324 45.9697 30.8276H57.6681L59.6519 28.842H45.6447C45.457 28.0402 45.1992 27.2565 44.8743 26.4999H61.9916L64 24.4897H43.8263C42.5583 22.5008 40.8101 20.8636 38.7432 19.7293C36.6762 18.5951 34.3571 18.0004 31.9999 18V18ZM31.9999 19.9038C35.2169 19.9038 38.3022 21.183 40.577 23.46C42.8518 25.7369 44.1298 28.8252 44.1298 32.0453C44.1298 35.2654 42.8519 38.3536 40.577 40.6306C38.3022 42.9076 35.2169 44.1867 31.9999 44.1867C28.7828 44.1867 25.6975 42.9076 23.4227 40.6306C21.1479 38.3536 19.8699 35.2654 19.8699 32.0453C19.8699 28.8252 21.1479 25.7369 23.4227 23.46C25.6975 21.183 28.7828 19.9038 31.9999 19.9038ZM22.3505 28.8984V35.1919H23.6617V30.2379L25.0448 35.1919H26.4039L27.7916 30.2379V35.1919H29.1031V28.8984H26.9857L25.7315 33.1914L24.4631 28.8984H22.3505ZM30.4716 28.8984V35.1919H31.8831V28.8984H30.4716ZM33.2374 28.8984V35.1919H34.5488V31.0879L37.3673 35.1919H38.7837V28.8984H37.4722V33.1012L34.611 28.8984H33.2374ZM40.238 28.8984V35.1919H41.6495V28.8984H40.238Z" fill="#120A08"/>
</svg>
