<svg width="64" height="64" viewBox="0 0 64 64" fill="none" xmlns="http://www.w3.org/2000/svg">
<path d="M23.6254 35.2418H22.3836V28.889H24.2309L25.8525 33.9692L27.4638 28.889H29.3111V35.2418H28.0282V30.5311L26.5401 35.2418H25.1546L23.6254 30.5003V35.2418ZM32.0616 35.2418H30.7479V28.889H32.0616V35.2418ZM34.771 35.2418H33.5087V28.889H35.0584L37.5933 33.4971V28.889H38.8557V35.2418H37.306L34.771 30.6543V35.2418ZM41.6164 35.2418H40.3028V28.889H41.6164V35.2418ZM50.9455 37.5818H44.9211C45.2393 36.8326 45.4958 36.0526 45.6908 35.2418H53.2957L55.3072 33.2303H46.009C46.0398 32.8403 46.0603 32.4503 46.0603 32.0603C46.0603 31.6703 46.0398 31.2803 46.009 30.8903H57.6472L59.6588 28.8788H45.6908C45.5061 28.068 45.2495 27.288 44.9211 26.5388H61.9885L64 24.5273H43.8538C41.3598 20.6068 36.9775 18 31.9897 18C27.0122 18 22.6299 20.6068 20.136 24.5273H0L2.00128 26.5388H19.0789C18.7607 27.288 18.5042 28.068 18.3092 28.8788H4.34124L6.34253 30.8903H17.991C17.9602 31.2803 17.9397 31.6703 17.9397 32.0603C17.9397 32.4503 17.9602 32.8403 17.991 33.2303H8.69275L10.694 35.2418H18.2989C18.4836 36.0526 18.7402 36.8326 19.0686 37.5818H13.034L15.0353 39.5933H20.1257C22.6196 43.5138 27.0019 46.1206 31.9795 46.1206C36.957 46.1206 41.3393 43.5138 43.8435 39.5933H48.9339L50.9455 37.5818ZM32 44.109C25.3598 44.109 19.9513 38.7005 19.9513 32.0603C19.9513 25.4201 25.3598 20.0115 32 20.0115C38.6402 20.0115 44.0487 25.4201 44.0487 32.0603C44.0487 38.7005 38.6402 44.109 32 44.109Z" fill="black"/>
</svg>
