<svg width="64" height="64" viewBox="0 0 64 64" fill="none" xmlns="http://www.w3.org/2000/svg">
<path d="M44.3088 23.8464C44.5867 23.9064 44.9032 23.9973 45.2636 24.128C45.4015 24.178 46.3418 24.6751 46.5559 24.8088C48.1476 25.8038 51.8944 28.1278 53.4701 28.9506C53.4701 28.9506 55.59 30.4696 59.5071 30.5156C59.5071 30.5156 62.5948 30.3775 61.9035 26.7411C61.9035 26.7411 60.0141 28.3062 56.1891 27.2935C52.3641 26.2808 45.4976 22.7825 43.7003 22.5063C42.3748 22.3026 41.5255 23.2508 41.1711 23.7625C41.0449 23.9446 40.9169 24.2139 40.8726 24.4299C40.754 25.0093 40.7815 26.1171 42.5943 26.4189C42.5943 26.4189 44.6167 26.902 44.539 24.7367C44.5381 24.713 44.4987 24.5153 44.3848 24.3962C44.1086 24.1077 43.4523 23.6248 42.4262 24.2184C42.4123 24.2265 42.3937 24.2261 42.3928 24.2103" stroke="#0C2F59" stroke-width="2.66667"/>
<path d="M42.3867 24.2129C42.3865 24.2053 42.3902 24.1942 42.4005 24.1787C42.5243 23.9919 42.9654 23.5605 44.3027 23.849" stroke="#0C2F59" stroke-width="2.66667"/>
<path d="M48.0212 25.7022C48.0592 26.0032 48.1082 26.9788 47.1323 26.8813C47.1323 26.8813 47.0632 28.2852 45.9111 27.7789C45.9111 27.7789 45.9341 29.1598 44.6437 28.7685L44.5977 29.482C44.5977 29.482 46.0723 29.8963 46.2567 28.4923C46.2567 28.4923 47.524 28.7915 47.6162 27.3646C47.6162 27.3646 48.763 27.4307 48.6185 26.0757" stroke="#0C2F59" stroke-width="2.66667"/>
<path d="M53.4684 28.9497C53.4684 28.9497 53.4461 30.5109 51.8411 30.2084C51.8155 30.2036 51.7571 30.2272 51.7408 30.2845C51.6465 30.6192 51.2207 31.7294 49.8048 31.2973C49.8048 31.2973 48.9292 33.0465 47.2701 32.0798C47.2701 32.0798 46.3485 33.4377 44.5742 32.1949C44.5742 32.1949 46.3485 33.9671 47.754 34.2893C49.0512 34.5866 49.7989 34.0608 49.997 33.7065C50.0136 33.6769 50.0563 33.6427 50.1014 33.676C50.2935 33.817 50.9232 34.1797 52.2472 34.1052C52.2472 34.1052 53.1458 34.3123 53.8141 33.4147C53.8141 33.4147 54.7588 33.9901 56.1183 33.4838C56.1183 33.4838 57.1782 33.2076 57.3164 32.287C57.3164 32.287 59.2981 32.356 59.5054 30.5148" stroke="#0C2F59" stroke-width="2.66667"/>
<path d="M47.6133 27.3638C47.6133 27.3638 53.2355 32.22 57.314 32.2891" stroke="#0C2F59" stroke-width="2.66667"/>
<path d="M46.25 28.4921C46.25 28.4921 51.2114 32.9929 53.8191 33.4062" stroke="#0C2F59" stroke-width="2.66667"/>
<path d="M44.5977 29.4821C44.5977 29.4821 47.9364 33.3798 50.0696 33.6582" stroke="#0C2F59" stroke-width="2.66667"/>
<path d="M44.6369 32.2433C44.6369 32.2433 45.4664 36.317 41.6875 36.4551" stroke="#0C2F59" stroke-width="2.66667"/>
<path d="M42.6111 32.2426C42.6111 32.2426 43.4175 37.375 39.5234 37.1448" stroke="#0C2F59" stroke-width="2.66667"/>
<path d="M38.0039 37.7199C38.9025 37.8349 39.6168 37.1215 39.6168 37.1215C40.7689 35.5334 40.3081 33.9223 40.3081 33.9223" stroke="#0C2F59" stroke-width="2.66667"/>
<path d="M38.7143 35.9469C38.7143 35.9469 38.599 37.3739 37.9078 37.7651C37.2165 38.1564 36.4331 38.1564 35.9492 37.7651" stroke="#0C2F59" stroke-width="2.66667"/>
<path d="M2.10088 26.7587C2.10088 26.7587 3.99032 28.3237 7.8153 27.3111C11.6403 26.2984 18.5068 22.8 20.3041 22.5239C21.6297 22.3201 22.4791 23.2683 22.8335 23.7799C22.9597 23.962 23.0877 24.2315 23.1317 24.4475C23.2506 25.0268 23.2229 26.1347 21.4101 26.4365C21.4101 26.4365 19.343 26.9302 19.4688 24.6821C19.4705 24.6535 19.5063 24.5438 19.5693 24.4699C19.8059 24.193 20.4826 23.6021 21.5784 24.236C21.5989 24.2479 21.6296 24.2413 21.5981 24.1938C21.4504 23.9711 20.8523 23.4011 18.8235 24.116C18.6609 24.1733 17.6378 24.7082 17.4028 24.855C15.786 25.8653 12.0952 28.1532 10.5343 28.9682C10.5343 28.9682 8.41439 30.4872 4.49725 30.5332C4.49725 30.5332 1.40962 30.3951 2.10088 26.7587V26.7587Z" stroke="#0C2F59" stroke-width="2.66667"/>
<path d="M15.981 25.7178C15.9431 26.0187 15.8941 26.9944 16.8699 26.8969C16.8699 26.8969 16.939 28.3008 18.0911 27.7945C18.0911 27.7945 18.0681 29.1754 19.3584 28.7841L19.4045 29.4976C19.4045 29.4976 17.9298 29.9119 17.7455 28.508C17.7455 28.508 16.4782 28.8072 16.386 27.3802C16.386 27.3802 15.2391 27.4462 15.3837 26.0913" stroke="#0C2F59" stroke-width="2.66667"/>
<path d="M10.537 28.9674C10.537 28.9674 10.5593 30.5284 12.1645 30.226C12.19 30.2211 12.2485 30.2447 12.2647 30.3022C12.359 30.6367 12.7847 31.7471 14.2007 31.3149C14.2007 31.3149 15.0763 33.0641 16.7354 32.0974C16.7354 32.0974 17.657 33.4553 19.4313 32.2125C19.4313 32.2125 17.657 33.9847 16.2515 34.3069C14.9543 34.6042 14.2067 34.0783 14.0085 33.7241C13.992 33.6944 13.9493 33.6604 13.9041 33.6936C13.7121 33.8345 13.0824 34.1973 11.7583 34.1228C11.7583 34.1228 10.8596 34.3299 10.1914 33.4323C10.1914 33.4323 9.24665 34.0077 7.88718 33.5014C7.88718 33.5014 6.82724 33.2252 6.68899 32.3046C6.68899 32.3046 4.70738 32.3736 4.5 30.5324" stroke="#0C2F59" stroke-width="2.66667"/>
<path d="M16.3882 27.3794C16.3882 27.3794 10.7659 32.2356 6.6875 32.3047" stroke="#0C2F59" stroke-width="2.66667"/>
<path d="M17.7451 28.5077C17.7451 28.5077 12.7835 33.0085 10.1758 33.4219" stroke="#0C2F59" stroke-width="2.66667"/>
<path d="M19.4056 29.4958C19.4056 29.4958 16.0667 33.3934 13.9336 33.6719" stroke="#0C2F59" stroke-width="2.66667"/>
<path d="M19.3624 32.2589C19.3624 32.2589 18.5329 36.3326 22.3117 36.4707" stroke="#0C2F59" stroke-width="2.66667"/>
<path d="M21.3856 32.2602C21.3856 32.2602 20.5791 37.3926 24.4732 37.1624" stroke="#0C2F59" stroke-width="2.66667"/>
<path d="M25.9968 37.7374C25.0982 37.8525 24.3839 37.139 24.3839 37.139C23.2318 35.551 23.6926 33.9399 23.6926 33.9399" stroke="#0C2F59" stroke-width="2.66667"/>
<path d="M25.2812 35.9626C25.2812 35.9626 25.3965 37.3895 26.0877 37.7808C26.779 38.172 27.5624 38.172 28.0463 37.7808" stroke="#0C2F59" stroke-width="2.66667"/>
<path d="M41.5488 29.2015C41.5488 34.462 37.2794 38.7266 32.0126 38.7266C26.7461 38.7266 22.4766 34.462 22.4766 29.2015C22.4766 23.9408 26.7461 19.6763 32.0126 19.6763C37.2794 19.6763 41.5488 23.9408 41.5488 29.2015Z" fill="white"/>
<path d="M41.5488 29.2015C41.5488 34.462 37.2794 38.7266 32.0126 38.7266C26.7461 38.7266 22.4766 34.462 22.4766 29.2015C22.4766 23.9408 26.7461 19.6763 32.0126 19.6763C37.2794 19.6763 41.5488 23.9408 41.5488 29.2015V29.2015Z" stroke="#0C2F59" stroke-width="2.66667"/>
<path d="M41.1069 29.1503C41.1069 34.1587 37.0423 38.2188 32.0281 38.2188C27.0139 38.2188 22.9492 34.1587 22.9492 29.1503C22.9492 24.1419 27.0139 20.0819 32.0281 20.0819C37.0423 20.0819 41.1069 24.1419 41.1069 29.1503Z" stroke="#0C2F59" stroke-width="2.66667"/>
<path d="M32.0027 35.7988C28.4567 35.7988 25.582 32.9532 25.582 29.4433C25.582 25.9331 28.4567 23.0876 32.0027 23.0876C33.2866 23.0876 34.4822 23.4606 35.4855 24.1031" stroke="#0C2F59" stroke-width="2.66667"/>
<path d="M32.0459 35.3887C28.6551 35.3887 25.9062 32.7211 25.9062 29.4307C25.9062 26.14 28.6551 23.4725 32.0459 23.4725C33.5256 23.4725 34.8833 23.9806 35.9434 24.8266" stroke="#0C2F59" stroke-width="2.66667"/>
<path d="M37.6752 29.4222C37.6752 32.5124 35.128 35.0176 31.9859 35.0176C28.844 35.0176 26.2969 32.5124 26.2969 29.4222C26.2969 26.3317 28.844 23.8266 31.9859 23.8266C35.128 23.8266 37.6752 26.3317 37.6752 29.4222Z" stroke="#0C2F59" stroke-width="2.66667"/>
<path d="M37.2526 29.4046C37.2526 32.2995 34.8927 34.6465 31.9817 34.6465C29.0708 34.6465 26.7109 32.2995 26.7109 29.4046C26.7109 26.5094 29.0708 24.1624 31.9817 24.1624C34.8927 24.1624 37.2526 26.5094 37.2526 29.4046Z" stroke="#0C2F59" stroke-width="2.66667"/>
<path d="M34.86 37.6426H29.207V20.734H34.86V37.6426Z" fill="white"/>
<path d="M34.86 37.6426H29.207V20.734H34.86V37.6426Z" stroke="#0C2F59" stroke-width="2.66667"/>
<path d="M34.3359 37.0586H29.7891V21.3468H34.3359V37.0586Z" fill="#0C2F59"/>
<path d="M44.571 32.2109H19.3477V26.5338H44.571V32.2109Z" fill="white"/>
<path d="M44.571 32.2109H19.3477V26.5338H44.571V32.2109Z" stroke="#0C2F59" stroke-width="2.66667"/>
<path d="M43.9508 31.6602H19.9258V27.0877H43.9508V31.6602Z" fill="#0C2F59"/>
<path d="M21.0625 27.8545V30.9375L21.6409 30.9329L21.6456 28.7095L22.2564 30.9329H22.8395L23.4503 28.7049L23.4549 30.9329H24.0334V27.8498H23.1126L22.5526 29.8513L21.9629 27.8545H21.0625Z" fill="white"/>
<path d="M26.5977 27.7868C26.5977 27.7868 25.0938 27.7612 25.0938 29.3974C25.0938 31.0337 26.5931 30.9967 26.5931 30.9967C26.5931 30.9967 28.0971 31.1031 28.0971 29.4021C28.0971 27.7011 26.5977 27.7868 26.5977 27.7868ZM26.5977 30.4446C26.5977 30.4446 25.7601 30.5068 25.7601 29.3974C25.7601 28.2881 26.5977 28.3184 26.5977 28.3184C26.5977 28.3184 27.4451 28.2466 27.4425 29.4021C27.44 30.5576 26.5977 30.4446 26.5977 30.4446Z" fill="white"/>
<path d="M30.9472 29.6016C30.9472 29.6016 31.7388 29.4305 31.6715 28.7095C31.6715 28.7095 31.7715 27.9377 30.8572 27.8545H29.1562V30.9375H29.7903V29.6367L30.1373 29.634C30.1373 29.634 30.3085 29.6849 30.4242 29.8282C30.54 29.9714 31.1878 30.9282 31.1878 30.9282L31.9374 30.9328C31.9374 30.9328 31.4192 29.8788 30.9472 29.6016ZM30.6278 29.1301L29.7903 29.1279V28.3561C29.7903 28.3561 30.2252 28.3583 30.6278 28.3607C31.0305 28.3632 31.0305 28.7372 31.0305 28.7372C31.0351 29.1394 30.6278 29.1301 30.6278 29.1301Z" fill="white"/>
<path d="M34.2686 29.2655H35.6291V30.4652C35.6291 30.4652 35.3469 30.9576 34.2686 30.9551C33.1905 30.9526 32.7553 30.25 32.7462 29.3995C32.7368 28.549 33.2413 27.7913 34.2686 27.7565C35.296 27.7217 35.5551 28.4935 35.5967 28.6461C35.6384 28.7987 34.9951 28.7987 34.9951 28.7987C34.9951 28.7987 34.7777 28.3091 34.2686 28.3112C34.2686 28.3112 33.3941 28.3087 33.3941 29.3626C33.3941 30.4164 34.2223 30.4303 34.2594 30.4349C34.2594 30.4349 34.7915 30.4303 34.9813 30.1298L34.9838 29.797H34.2686V29.2655Z" fill="white"/>
<path d="M38.3199 27.8486H37.6581L36.418 30.9316H37.1028L37.3989 30.2244H38.5882L38.8799 30.9316H39.5647L38.3199 27.8486ZM37.5748 29.7022L37.9775 28.5789L38.3893 29.7068L37.5748 29.7022Z" fill="white"/>
<path d="M40.442 27.8486L40.4375 30.9316H41.0483V28.9857L42.2792 30.9316H42.8947L42.8926 27.8533H42.3281V29.7946L41.0807 27.8486H40.442Z" fill="white"/>
<path d="M6.54188 42.0795H6.52122L6.57731 43.9473H6.11719V41.8674H6.83682L7.2438 43.5024L7.6479 41.8674H8.3675V43.9473H7.90745L7.96646 42.0795H7.94579L7.47094 43.9473H7.01378L6.54188 42.0795Z" fill="#0C2F59"/>
<path d="M10.2734 43.5601C9.96371 43.5601 9.769 43.3215 9.769 42.9091C9.769 42.4966 9.96371 42.255 10.2734 42.255C10.586 42.255 10.7777 42.4937 10.7777 42.9091C10.7777 43.3244 10.586 43.5601 10.2734 43.5601ZM11.2851 42.9091C11.2851 42.5496 11.17 42.2609 10.9488 42.0606C10.7689 41.8986 10.5447 41.8191 10.2734 41.8191C10.005 41.8191 9.7779 41.8986 9.59796 42.0606C9.37675 42.2609 9.26172 42.5466 9.26172 42.9091C9.26172 43.5748 9.66582 43.9961 10.2734 43.9961C10.8839 43.9961 11.2851 43.5748 11.2851 42.9091Z" fill="#0C2F59"/>
<path d="M12.6644 42.2504H13.0213C13.2925 42.2504 13.4135 42.3063 13.4135 42.5421C13.4135 42.7571 13.2867 42.8278 13.0213 42.8278H12.6644V42.2504ZM12.1719 43.9473H12.6644V43.2108H12.9948L13.3987 43.9473H13.9562L13.4872 43.1106C13.7674 43.0135 13.9119 42.813 13.9119 42.5156C13.9119 42.0737 13.6288 41.8674 13.0508 41.8674H12.1719V43.9473Z" fill="#0C2F59"/>
<path d="M18.1311 43.2373L18.3906 42.4124L18.6502 43.2373H18.1311ZM17.901 43.9473L18.0131 43.6203H18.7711L18.8773 43.9473H19.4111L18.6531 41.8674H18.1252L17.3672 43.9473H17.901Z" fill="#0C2F59"/>
<path d="M20.1289 41.8674H20.648L21.4443 43.3109L21.403 41.8674H21.8749V43.9473H21.3588L20.5595 42.5214L20.6008 43.9473H20.1289V41.8674Z" fill="#0C2F59"/>
<path d="M24.8075 42.0795H24.787L24.8429 43.9473H24.3828V41.8674H25.1025L25.5095 43.5024L25.9135 41.8674H26.6332V43.9473H26.1731L26.2321 42.0795H26.2114L25.7366 43.9473H25.2794L24.8075 42.0795Z" fill="#0C2F59"/>
<path d="M28.5312 43.5601C28.2215 43.5601 28.0268 43.3215 28.0268 42.9091C28.0268 42.4966 28.2215 42.255 28.5312 42.255C28.8438 42.255 29.0355 42.4937 29.0355 42.9091C29.0355 43.3244 28.8438 43.5601 28.5312 43.5601ZM29.5428 42.9091C29.5428 42.5496 29.4278 42.2609 29.2066 42.0606C29.0267 41.8986 28.8025 41.8191 28.5312 41.8191C28.2628 41.8191 28.0357 41.8986 27.8558 42.0606C27.6346 42.2609 27.5195 42.5466 27.5195 42.9091C27.5195 43.5748 27.9236 43.9961 28.5312 43.9961C29.1417 43.9961 29.5428 43.5748 29.5428 42.9091Z" fill="#0C2F59"/>
<path d="M30.8259 42.271H30.2891V41.8674H31.8581V42.271H31.3184V43.9473H30.8259V42.271Z" fill="#0C2F59"/>
<path d="M33.6053 43.5601C33.2957 43.5601 33.101 43.3215 33.101 42.9091C33.101 42.4966 33.2957 42.255 33.6053 42.255C33.918 42.255 34.1097 42.4937 34.1097 42.9091C34.1097 43.3244 33.918 43.5601 33.6053 43.5601ZM34.617 42.9091C34.617 42.5496 34.502 42.2609 34.2807 42.0606C34.1008 41.8986 33.8767 41.8191 33.6053 41.8191C33.337 41.8191 33.1098 41.8986 32.93 42.0606C32.7088 42.2609 32.5938 42.5466 32.5938 42.9091C32.5938 43.5748 32.9977 43.9961 33.6053 43.9961C34.2158 43.9961 34.617 43.5748 34.617 42.9091Z" fill="#0C2F59"/>
<path d="M35.9925 42.2504H36.3493C36.6208 42.2504 36.7416 42.3063 36.7416 42.5421C36.7416 42.7571 36.6148 42.8278 36.3493 42.8278H35.9925V42.2504ZM35.5 43.9473H35.9925V43.2108H36.3228L36.7268 43.9473H37.2843L36.8153 43.1106C37.0955 43.0135 37.24 42.813 37.24 42.5156C37.24 42.0737 36.9569 41.8674 36.3789 41.8674H35.5V43.9473Z" fill="#0C2F59"/>
<path d="M40.5251 44C39.9294 44 39.543 43.5817 39.543 42.91C39.543 42.2501 39.953 41.82 40.5487 41.82C40.9262 41.82 41.2124 42.0026 41.3687 42.3443L40.9824 42.5476C40.8908 42.3473 40.7404 42.2442 40.5458 42.2442C40.248 42.2442 40.0503 42.4858 40.0503 42.91C40.0503 43.3342 40.2391 43.5699 40.5517 43.5699C40.7522 43.5699 40.8968 43.4726 40.9941 43.2753L41.3863 43.4697C41.1946 43.8232 40.9086 44 40.5251 44Z" fill="#0C2F59"/>
<path d="M43.1132 43.5601C42.8036 43.5601 42.6089 43.3215 42.6089 42.9091C42.6089 42.4966 42.8036 42.255 43.1132 42.255C43.4259 42.255 43.6175 42.4937 43.6175 42.9091C43.6175 43.3244 43.4259 43.5601 43.1132 43.5601ZM44.1249 42.9091C44.1249 42.5496 44.0099 42.2609 43.7886 42.0606C43.6087 41.8986 43.3845 41.8191 43.1132 41.8191C42.8448 41.8191 42.6177 41.8986 42.4378 42.0606C42.2166 42.2609 42.1016 42.5466 42.1016 42.9091C42.1016 43.5748 42.5056 43.9961 43.1132 43.9961C43.7237 43.9961 44.1249 43.5748 44.1249 42.9091Z" fill="#0C2F59"/>
<path d="M45.4325 42.0795H45.4119L45.4679 43.9473H45.0078V41.8674H45.7275L46.1345 43.5024L46.5385 41.8674H47.2582V43.9473H46.7981L46.8571 42.0795H46.8364L46.3616 43.9473H45.9044L45.4325 42.0795Z" fill="#0C2F59"/>
<path d="M48.7504 42.2504H49.0777C49.3756 42.2504 49.5113 42.3241 49.5113 42.5716C49.5113 42.822 49.3756 42.8926 49.0777 42.8926H48.7504V42.2504ZM48.2578 43.9473H48.7504V43.2756H49.1338C49.7237 43.2756 50.0215 43.034 50.0215 42.5539C50.0215 42.0649 49.7413 41.8674 49.1308 41.8674H48.2578V43.9473Z" fill="#0C2F59"/>
<path d="M51.2092 43.2373L51.4687 42.4124L51.7283 43.2373H51.2092ZM50.9791 43.9473L51.0912 43.6203H51.8492L51.9553 43.9473H52.4892L51.7312 41.8674H51.2033L50.4453 43.9473H50.9791Z" fill="#0C2F59"/>
<path d="M53.207 41.8674H53.7261L54.5225 43.3109L54.4812 41.8674H54.9531V43.9473H54.4369L53.6376 42.5214L53.679 43.9473H53.207V41.8674Z" fill="#0C2F59"/>
<path d="M57.6672 41.8674L56.8767 42.981V43.9473H56.3842V42.981L55.5938 41.8674H56.1865L56.626 42.5833L57.0714 41.8674H57.6672Z" fill="#0C2F59"/>
<path d="M16.638 42.7863L16.6368 42.7876V42.7858H15.7491V43.1894H16.2004C16.1966 43.2303 16.1865 43.2672 16.1736 43.3023C16.1395 43.3941 16.0758 43.4656 15.9865 43.5101C15.9178 43.5444 15.8351 43.5635 15.7402 43.5635C15.4039 43.5635 15.2094 43.3279 15.2094 42.9096C15.2094 42.4912 15.4099 42.2555 15.752 42.2555C15.9673 42.2555 16.1147 42.3439 16.2268 42.5383L16.6279 42.3203C16.4481 41.9963 16.1324 41.8166 15.7343 41.8166C15.1061 41.8166 14.7109 42.2349 14.7109 42.939C14.7109 43.5989 15.0736 43.9966 15.6193 43.9966C15.6196 43.9966 15.62 43.9966 15.6203 43.9966C15.8962 44.008 16.0995 43.9513 16.2484 43.856C16.5146 43.6856 16.6079 43.3946 16.6368 43.1588C16.6622 42.951 16.638 42.7863 16.638 42.7863Z" fill="#0C2F59"/>
</svg>
