<?xml version="1.0" encoding="UTF-8" standalone="no"?>
<svg
   xmlns:dc="http://purl.org/dc/elements/1.1/"
   xmlns:cc="http://creativecommons.org/ns#"
   xmlns:rdf="http://www.w3.org/1999/02/22-rdf-syntax-ns#"
   xmlns:svg="http://www.w3.org/2000/svg"
   xmlns="http://www.w3.org/2000/svg"
   viewBox="0 0 870.65332 353.61334"
   height="353.61334"
   width="870.65332"
   xml:space="preserve"
   id="svg2"
   version="1.1"><metadata
     id="metadata8"><rdf:RDF><cc:Work
         rdf:about=""><dc:format>image/svg+xml</dc:format><dc:type
           rdf:resource="http://purl.org/dc/dcmitype/StillImage" /></cc:Work></rdf:RDF></metadata><defs
     id="defs6" /><g
     transform="matrix(1.3333333,0,0,-1.3333333,0,353.61333)"
     id="g10"><g
       transform="scale(0.1)"
       id="g12"><path
         id="path14"
         style="fill:none;stroke:#0c2f59;stroke-width:20;stroke-linecap:butt;stroke-linejoin:miter;stroke-miterlimit:4;stroke-dasharray:none;stroke-opacity:1"
         d="m 4599.93,2189.07 c 30.15,-6.51 64.49,-16.39 103.59,-30.59 14.96,-5.43 116.99,-59.42 140.21,-73.95 172.7,-108.08 579.22,-360.52 750.18,-449.89 0,0 230,-165 655,-170 0,0 335,15 260,410 0,0 -205,-170 -620,-60 -415,110 -1160,490 -1355,520 -143.81,22.13 -235.96,-80.87 -274.41,-136.45 -13.7,-19.78 -27.58,-49.04 -32.39,-72.5 -12.87,-62.94 -9.88,-183.27 186.8,-216.05 0,0 219.43,-52.48 211,182.72 -0.1,2.58 -4.38,24.05 -16.74,36.99 -29.96,31.34 -101.17,83.79 -212.5,19.31 -1.51,-0.88 -3.52,-0.83 -3.62,0.88" /><path
         id="path16"
         style="fill:none;stroke:#0c2f59;stroke-width:20;stroke-linecap:butt;stroke-linejoin:miter;stroke-miterlimit:4;stroke-dasharray:none;stroke-opacity:1"
         d="m 4392.05,2149.54 c -0.03,0.82 0.38,2.03 1.49,3.71 13.44,20.29 61.29,67.15 206.39,35.82" /><path
         id="path18"
         style="fill:none;stroke:#0c2f59;stroke-width:20;stroke-linecap:butt;stroke-linejoin:miter;stroke-miterlimit:4;stroke-dasharray:none;stroke-opacity:1"
         d="m 5002.86,1987.71 c 4.12,-32.69 9.43,-138.66 -96.45,-128.07 0,0 -7.5,-152.5 -132.5,-97.5 0,0 2.5,-150 -137.5,-107.5 l -5,-77.5 c 0,0 160,-45 180,107.5 0,0 137.5,-32.5 147.5,122.5 0,0 124.43,-7.18 108.75,140" /><path
         id="path20"
         style="fill:none;stroke:#0c2f59;stroke-width:20;stroke-linecap:butt;stroke-linejoin:miter;stroke-miterlimit:4;stroke-dasharray:none;stroke-opacity:1"
         d="m 5593.91,1634.64 c 0,0 -2.42,-169.58 -176.56,-136.72 -2.78,0.52 -9.12,-2.04 -10.88,-8.27 -10.24,-36.35 -56.43,-156.95 -210.06,-110.01 0,0 -95,-190 -275,-85 0,0 -100,-147.5 -292.5,-12.5 0,0 192.5,-192.5 345,-227.5 140.74,-32.3 221.86,24.82 243.36,63.31 1.8,3.21 6.43,6.92 11.33,3.31 20.84,-15.32 89.16,-54.72 232.81,-46.62 0,0 97.5,-22.5 170,75 0,0 102.5,-62.5 250,-7.5 0,0 115,30 130,130 0,0 215,-7.5 237.5,192.5" /><path
         id="path22"
         style="fill:none;stroke:#0c2f59;stroke-width:20;stroke-linecap:butt;stroke-linejoin:miter;stroke-miterlimit:4;stroke-dasharray:none;stroke-opacity:1"
         d="m 4958.91,1807.14 c 0,0 610,-527.5 1052.5,-535" /><path
         id="path24"
         style="fill:none;stroke:#0c2f59;stroke-width:20;stroke-linecap:butt;stroke-linejoin:miter;stroke-miterlimit:4;stroke-dasharray:none;stroke-opacity:1"
         d="m 4811.43,1684.66 c 0,0 538.3,-488.89 821.23,-533.79" /><path
         id="path26"
         style="fill:none;stroke:#0c2f59;stroke-width:20;stroke-linecap:butt;stroke-linejoin:miter;stroke-miterlimit:4;stroke-dasharray:none;stroke-opacity:1"
         d="m 4631.47,1577.09 c 0,0 362.24,-423.38 593.69,-453.62" /><path
         id="path28"
         style="fill:none;stroke:#0c2f59;stroke-width:20;stroke-linecap:butt;stroke-linejoin:miter;stroke-miterlimit:4;stroke-dasharray:none;stroke-opacity:1"
         d="m 4636.41,1277.14 c 0,0 90,-442.499 -320,-457.499" /><path
         id="path30"
         style="fill:none;stroke:#0c2f59;stroke-width:20;stroke-linecap:butt;stroke-linejoin:miter;stroke-miterlimit:4;stroke-dasharray:none;stroke-opacity:1"
         d="m 4416.41,1277.14 c 0,0 87.5,-557.499 -335,-532.499" /><path
         id="path32"
         style="fill:none;stroke:#0c2f59;stroke-width:20;stroke-linecap:butt;stroke-linejoin:miter;stroke-miterlimit:4;stroke-dasharray:none;stroke-opacity:1"
         d="m 3916.41,682.141 c 97.5,-12.5 175,65 175,65 125,172.5 75,347.499 75,347.499" /><path
         id="path34"
         style="fill:none;stroke:#0c2f59;stroke-width:20;stroke-linecap:butt;stroke-linejoin:miter;stroke-miterlimit:4;stroke-dasharray:none;stroke-opacity:1"
         d="m 3993.91,874.641 c 0,0 -12.5,-155 -87.5,-197.5 -75,-42.5 -160,-42.5 -212.5,0" /><path
         id="path36"
         style="fill:none;stroke:#0c2f59;stroke-width:20;stroke-linecap:butt;stroke-linejoin:miter;stroke-miterlimit:4;stroke-dasharray:none;stroke-opacity:1"
         d="m 20.9453,1872.97 c 0,0 204.9997,-170 619.9997,-60 415.005,110 1160.005,490 1355.005,520 143.82,22.13 235.98,-80.86 274.43,-136.44 13.69,-19.78 27.58,-49.05 32.36,-72.51 12.9,-62.93 9.89,-183.27 -186.79,-216.05 0,0 -224.28,-53.63 -210.63,190.57 0.18,3.1 4.07,15.02 10.9,23.04 25.67,30.08 99.1,94.27 217.99,25.41 2.22,-1.29 5.55,-0.57 2.13,4.59 -16.02,24.19 -80.91,86.1 -301.03,8.45 -17.64,-6.23 -128.65,-64.33 -154.15,-80.28 -175.41,-109.74 -575.86,-358.26 -745.215,-446.78 0,0 -230,-165 -655,-170 0,0 -334.9997,15 -259.9997,410 z" /><path
         id="path38"
         style="fill:none;stroke:#0c2f59;stroke-width:20;stroke-linecap:butt;stroke-linejoin:miter;stroke-miterlimit:4;stroke-dasharray:none;stroke-opacity:1"
         d="m 1527,1986.05 c -4.11,-32.69 -9.42,-138.67 96.45,-128.08 0,0 7.5,-152.5 132.5,-97.5 0,0 -2.5,-150 137.5,-107.5 l 5,-77.5 c 0,0 -160,-45 -180,107.5 0,0 -137.5,-32.5 -147.5,122.5 0,0 -124.44,-7.17 -108.75,140.01" /><path
         id="path40"
         style="fill:none;stroke:#0c2f59;stroke-width:20;stroke-linecap:butt;stroke-linejoin:miter;stroke-miterlimit:4;stroke-dasharray:none;stroke-opacity:1"
         d="m 935.945,1632.97 c 0,0 2.422,-169.57 176.575,-136.72 2.77,0.53 9.12,-2.03 10.88,-8.27 10.23,-36.34 56.41,-156.95 210.05,-110.01 0,0 95,-190 275,-85 0,0 100,-147.5 292.5,-12.5 0,0 -192.5,-192.5 -345,-227.5 -140.74,-32.29 -221.85,24.83 -243.36,63.31 -1.79,3.22 -6.42,6.92 -11.32,3.31 -20.84,-15.31 -89.16,-54.71 -232.82,-46.62 0,0 -97.505,-22.5 -170.005,75 0,0 -102.5,-62.5 -250,-7.5 0,0 -115,30 -130,130 0,0 -215,-7.5 -237.5,192.5" /><path
         id="path42"
         style="fill:none;stroke:#0c2f59;stroke-width:20;stroke-linecap:butt;stroke-linejoin:miter;stroke-miterlimit:4;stroke-dasharray:none;stroke-opacity:1"
         d="m 1570.95,1805.47 c 0,0 -610.005,-527.5 -1052.505,-535" /><path
         id="path44"
         style="fill:none;stroke:#0c2f59;stroke-width:20;stroke-linecap:butt;stroke-linejoin:miter;stroke-miterlimit:4;stroke-dasharray:none;stroke-opacity:1"
         d="m 1718.45,1682.99 c 0,0 -538.32,-488.89 -821.247,-533.79" /><path
         id="path46"
         style="fill:none;stroke:#0c2f59;stroke-width:20;stroke-linecap:butt;stroke-linejoin:miter;stroke-miterlimit:4;stroke-dasharray:none;stroke-opacity:1"
         d="m 1898.41,1575.42 c 0,0 -362.26,-423.37 -593.7,-453.62" /><path
         id="path48"
         style="fill:none;stroke:#0c2f59;stroke-width:20;stroke-linecap:butt;stroke-linejoin:miter;stroke-miterlimit:4;stroke-dasharray:none;stroke-opacity:1"
         d="m 1893.45,1275.47 c 0,0 -90,-442.497 320,-457.497" /><path
         id="path50"
         style="fill:none;stroke:#0c2f59;stroke-width:20;stroke-linecap:butt;stroke-linejoin:miter;stroke-miterlimit:4;stroke-dasharray:none;stroke-opacity:1"
         d="m 2113.45,1275.47 c 0,0 -87.5,-557.497 335,-532.497" /><path
         id="path52"
         style="fill:none;stroke:#0c2f59;stroke-width:20;stroke-linecap:butt;stroke-linejoin:miter;stroke-miterlimit:4;stroke-dasharray:none;stroke-opacity:1"
         d="m 2613.45,680.473 c -97.5,-12.5 -175,65 -175,65 -125,172.5 -75,347.497 -75,347.497" /><path
         id="path54"
         style="fill:none;stroke:#0c2f59;stroke-width:20;stroke-linecap:butt;stroke-linejoin:miter;stroke-miterlimit:4;stroke-dasharray:none;stroke-opacity:1"
         d="m 2535.95,872.973 c 0,0 12.5,-155 87.5,-197.5 75,-42.5 160,-42.5 212.5,0" /><path
         id="path56"
         style="fill:#ffffff;fill-opacity:1;fill-rule:nonzero;stroke:none"
         d="m 4301.29,1607.46 c 0,-571.42 -463.22,-1034.647 -1034.65,-1034.647 -571.41,0 -1034.64,463.227 -1034.64,1034.647 0,571.43 463.23,1034.65 1034.64,1034.65 571.43,0 1034.65,-463.22 1034.65,-1034.65" /><path
         id="path58"
         style="fill:none;stroke:#0c2f59;stroke-width:20;stroke-linecap:butt;stroke-linejoin:miter;stroke-miterlimit:4;stroke-dasharray:none;stroke-opacity:1"
         d="m 4301.29,1607.46 c 0,-571.42 -463.22,-1034.647 -1034.65,-1034.647 -571.41,0 -1034.64,463.227 -1034.64,1034.647 0,571.43 463.23,1034.65 1034.64,1034.65 571.43,0 1034.65,-463.22 1034.65,-1034.65 z" /><path
         id="path60"
         style="fill:none;stroke:#0c2f59;stroke-width:20;stroke-linecap:butt;stroke-linejoin:miter;stroke-miterlimit:4;stroke-dasharray:none;stroke-opacity:1"
         d="m 4253.19,1613.25 c 0,-544.03 -441,-985.047 -985.02,-985.047 -544.03,0 -985.04,441.017 -985.04,985.047 0,544.02 441.01,985.04 985.04,985.04 544.02,0 985.02,-441.02 985.02,-985.04 z" /><path
         id="path62"
         style="fill:none;stroke:#0c2f59;stroke-width:20;stroke-linecap:butt;stroke-linejoin:miter;stroke-miterlimit:4;stroke-dasharray:none;stroke-opacity:1"
         d="m 3264.79,890.938 c -384.74,0 -696.63,309.102 -696.63,690.352 0,381.29 311.89,690.38 696.63,690.38 139.3,0 269.02,-40.52 377.87,-110.31" /><path
         id="path64"
         style="fill:none;stroke:#0c2f59;stroke-width:20;stroke-linecap:butt;stroke-linejoin:miter;stroke-miterlimit:4;stroke-dasharray:none;stroke-opacity:1"
         d="m 3269.91,935.375 c -367.9,0 -666.14,289.765 -666.14,647.175 0,357.45 298.24,647.2 666.14,647.2 160.54,0 307.85,-55.19 422.87,-147.09" /><path
         id="path66"
         style="fill:none;stroke:#0c2f59;stroke-width:20;stroke-linecap:butt;stroke-linejoin:miter;stroke-miterlimit:4;stroke-dasharray:none;stroke-opacity:1"
         d="m 3880.71,1583.38 c 0,-335.67 -276.36,-607.79 -617.27,-607.79 -340.89,0 -617.25,272.12 -617.25,607.79 0,335.7 276.36,607.81 617.25,607.81 340.91,0 617.27,-272.11 617.27,-607.81 z" /><path
         id="path68"
         style="fill:none;stroke:#0c2f59;stroke-width:20;stroke-linecap:butt;stroke-linejoin:miter;stroke-miterlimit:4;stroke-dasharray:none;stroke-opacity:1"
         d="m 3834.91,1585.46 c 0,-314.45 -256.04,-569.39 -571.88,-569.39 -315.82,0 -571.86,254.94 -571.86,569.39 0,314.49 256.04,569.42 571.86,569.42 315.84,0 571.88,-254.93 571.88,-569.42 z" /><path
         id="path70"
         style="fill:#ffffff;fill-opacity:1;fill-rule:nonzero;stroke:none"
         d="M 3575.12,690.473 H 2961.79 V 2527.14 h 613.33 V 690.473" /><path
         id="path72"
         style="fill:none;stroke:#0c2f59;stroke-width:20;stroke-linecap:butt;stroke-linejoin:miter;stroke-miterlimit:4;stroke-dasharray:none;stroke-opacity:1"
         d="M 3575.12,690.473 H 2961.79 V 2527.14 h 613.33 z" /><path
         id="path74"
         style="fill:#0c2f59;fill-opacity:1;fill-rule:nonzero;stroke:none"
         d="M 3518.44,753.809 H 3025.12 V 2460.47 h 493.32 V 753.809" /><path
         id="path76"
         style="fill:#ffffff;fill-opacity:1;fill-rule:nonzero;stroke:none"
         d="M 4628.46,1280.47 H 1891.79 v 616.67 h 2736.67 v -616.67" /><path
         id="path78"
         style="fill:none;stroke:#0c2f59;stroke-width:20;stroke-linecap:butt;stroke-linejoin:miter;stroke-miterlimit:4;stroke-dasharray:none;stroke-opacity:1"
         d="M 4628.46,1280.47 H 1891.79 v 616.67 h 2736.67 z" /><path
         id="path80"
         style="fill:#0c2f59;fill-opacity:1;fill-rule:nonzero;stroke:none"
         d="M 4561.78,1340.47 H 1955.12 v 496.67 h 2606.66 v -496.67" /><path
         id="path82"
         style="fill:#ffffff;fill-opacity:1;fill-rule:nonzero;stroke:none"
         d="m 2078.43,1753.84 v -334.89 l 62.76,0.5 0.5,241.51 66.27,-241.51 h 63.27 l 66.27,242.01 0.5,-242.01 h 62.77 v 334.9 h -99.91 l -60.76,-217.41 -63.98,216.9 h -97.69" /><path
         id="path84"
         style="fill:#ffffff;fill-opacity:1;fill-rule:nonzero;stroke:none"
         d="m 2678.92,1761.1 c 0,0 -163.18,2.78 -163.18,-174.95 0,-177.73 162.68,-173.72 162.68,-173.72 0,0 163.18,-11.55 163.18,173.21 0,184.77 -162.68,175.46 -162.68,175.46 z m 0,-288.7 c 0,0 -90.88,-6.75 -90.88,113.75 0,120.5 90.88,117.21 90.88,117.21 0,0 91.94,7.8 91.65,-117.72 -0.27,-125.51 -91.65,-113.24 -91.65,-113.24" /><path
         id="path86"
         style="fill:#ffffff;fill-opacity:1;fill-rule:nonzero;stroke:none"
         d="m 3150.88,1564.06 c 0,0 85.89,18.58 78.59,96.9 0,0 10.85,83.84 -88.35,92.88 h -184.55 v -334.89 h 68.79 v 141.3 l 37.65,0.29 c 0,0 18.58,-5.53 31.13,-21.09 12.56,-15.56 82.85,-119.49 82.85,-119.49 l 81.33,-0.5 c 0,0 -56.23,114.49 -107.44,144.6 z m -34.65,51.21 -90.87,0.24 v 83.84 c 0,0 47.19,-0.24 90.87,-0.5 43.69,-0.27 43.69,-40.9 43.69,-40.9 0.5,-43.68 -43.69,-42.68 -43.69,-42.68" /><path
         id="path88"
         style="fill:#ffffff;fill-opacity:1;fill-rule:nonzero;stroke:none"
         d="m 3510.86,1600.71 h 147.62 v -130.32 c 0,0 -30.62,-53.49 -147.62,-53.21 -116.97,0.27 -164.18,76.59 -165.17,168.97 -1.02,92.39 53.71,174.69 165.17,178.47 111.47,3.78 139.59,-80.06 144.1,-96.63 4.52,-16.58 -65.27,-16.58 -65.27,-16.58 0,0 -23.59,53.18 -78.83,52.95 0,0 -94.88,0.28 -94.88,-114.2 0,-114.47 89.86,-115.98 93.89,-116.48 0,0 57.73,0.5 78.32,33.14 l 0.27,36.15 h -77.6 v 57.74" /><path
         id="path90"
         style="fill:#ffffff;fill-opacity:1;fill-rule:nonzero;stroke:none"
         d="m 3950.69,1754.35 h -71.8 l -134.55,-334.89 h 74.3 l 32.13,76.82 h 129.04 l 31.64,-76.82 h 74.3 z m -80.84,-201.34 43.69,122.01 44.69,-122.51 z" /><path
         id="path92"
         style="fill:#ffffff;fill-opacity:1;fill-rule:nonzero;stroke:none"
         d="m 4181.14,1754.35 -0.49,-334.89 h 66.27 v 211.37 l 133.55,-211.37 h 66.78 l -0.23,334.38 h -61.25 v -210.87 l -135.34,211.38 h -69.29" /><path
         id="path94"
         style="fill:#0c2f59;fill-opacity:1;fill-rule:nonzero;stroke:none"
         d="m 503.027,208.641 h -2.242 L 506.871,5.76172 H 456.949 V 231.68 h 78.078 L 579.184,54.082 623.027,231.68 h 78.075 V 5.76172 H 651.188 L 657.59,208.641 h -2.242 L 603.828,5.76172 h -49.601 l -51.2,202.87928" /><path
         id="path96"
         style="fill:#0c2f59;fill-opacity:1;fill-rule:nonzero;stroke:none"
         d="m 907.504,47.6836 c -33.598,0 -54.723,25.918 -54.723,70.7144 0,44.805 21.125,71.043 54.723,71.043 33.922,0 54.719,-25.925 54.719,-71.043 0,-45.1167 -20.797,-70.7144 -54.719,-70.7144 z m 109.766,70.7144 c 0,39.043 -12.48,70.403 -36.485,92.157 -19.519,17.597 -43.844,26.242 -73.281,26.242 -29.121,0 -53.758,-8.645 -73.281,-26.242 -24,-21.754 -36.481,-52.789 -36.481,-92.157 0,-72.3121 43.844,-118.077687 109.762,-118.077687 66.242,0 109.766,45.765587 109.766,118.077687" /><path
         id="path98"
         style="fill:#0c2f59;fill-opacity:1;fill-rule:nonzero;stroke:none"
         d="m 1167.03,190.078 h 38.72 c 29.43,0 42.55,-6.074 42.55,-31.68 0,-23.359 -13.75,-31.035 -42.55,-31.035 h -38.72 z M 1113.59,5.76172 h 53.44 V 85.7617 h 35.84 L 1246.7,5.76172 h 60.48 L 1256.3,96.6406 c 30.4,10.5544 46.08,32.3244 46.08,64.6364 0,48 -30.72,70.403 -93.43,70.403 h -95.36 V 5.76172" /><path
         id="path100"
         style="fill:#0c2f59;fill-opacity:1;fill-rule:nonzero;stroke:none"
         d="m 1759.85,82.8828 28.16,89.5972 28.16,-89.5972 z m -24.96,-77.12108 12.16,35.51558 h 82.24 l 11.52,-35.51558 h 57.92 L 1816.49,231.68 h -57.28 L 1676.97,5.76172 h 57.92" /><path
         id="path102"
         style="fill:#0c2f59;fill-opacity:1;fill-rule:nonzero;stroke:none"
         d="m 1977.13,231.68 h 56.32 l 86.4,-156.7972 -4.48,156.7972 h 51.2 V 5.76172 h -56 L 2023.85,160.645 2028.33,5.76172 h -51.2 V 231.68" /><path
         id="path104"
         style="fill:#0c2f59;fill-opacity:1;fill-rule:nonzero;stroke:none"
         d="m 2484.32,208.641 h -2.23 l 6.07,-202.87928 h -49.92 V 231.68 h 78.08 l 44.16,-177.598 43.84,177.598 h 78.08 V 5.76172 h -49.92 l 6.4,202.87928 h -2.24 L 2585.12,5.76172 h -49.6 l -51.2,202.87928" /><path
         id="path106"
         style="fill:#0c2f59;fill-opacity:1;fill-rule:nonzero;stroke:none"
         d="m 2888.8,47.6836 c -33.6,0 -54.72,25.918 -54.72,70.7144 0,44.805 21.12,71.043 54.72,71.043 33.92,0 54.72,-25.925 54.72,-71.043 0,-45.1167 -20.8,-70.7144 -54.72,-70.7144 z m 109.76,70.7144 c 0,39.043 -12.48,70.403 -36.48,92.157 -19.52,17.597 -43.84,26.242 -73.28,26.242 -29.12,0 -53.76,-8.645 -73.28,-26.242 -24,-21.754 -36.48,-52.789 -36.48,-92.157 0,-72.3121 43.84,-118.077687 109.76,-118.077687 66.24,0 109.76,45.765587 109.76,118.077687" /><path
         id="path108"
         style="fill:#0c2f59;fill-opacity:1;fill-rule:nonzero;stroke:none"
         d="m 3137.12,187.844 h -58.24 v 43.836 h 170.24 v -43.836 h -58.56 V 5.76172 h -53.44 V 187.844" /><path
         id="path110"
         style="fill:#0c2f59;fill-opacity:1;fill-rule:nonzero;stroke:none"
         d="m 3438.87,47.6836 c -33.59,0 -54.71,25.918 -54.71,70.7144 0,44.805 21.12,71.043 54.71,71.043 33.93,0 54.73,-25.925 54.73,-71.043 0,-45.1167 -20.8,-70.7144 -54.73,-70.7144 z m 109.77,70.7144 c 0,39.043 -12.48,70.403 -36.49,92.157 -19.52,17.597 -43.83,26.242 -73.28,26.242 -29.11,0 -53.76,-8.645 -73.27,-26.242 -24,-21.754 -36.48,-52.789 -36.48,-92.157 0,-72.3121 43.83,-118.077687 109.75,-118.077687 66.24,0 109.77,45.765587 109.77,118.077687" /><path
         id="path112"
         style="fill:#0c2f59;fill-opacity:1;fill-rule:nonzero;stroke:none"
         d="m 3698.39,190.078 h 38.72 c 29.45,0 42.56,-6.074 42.56,-31.68 0,-23.359 -13.76,-31.035 -42.56,-31.035 h -38.72 z M 3644.96,5.76172 h 53.43 V 85.7617 h 35.84 l 43.84,-79.99998 h 60.48 l -50.88,90.87888 c 30.4,10.5544 46.08,32.3244 46.08,64.6364 0,48 -30.72,70.403 -93.43,70.403 h -95.36 V 5.76172" /><path
         id="path114"
         style="fill:#0c2f59;fill-opacity:1;fill-rule:nonzero;stroke:none"
         d="m 4189.59,0 c -64.63,0 -106.56,45.4375 -106.56,118.398 0,71.68 44.49,118.399 109.12,118.399 40.96,0 72.01,-19.832 88.97,-56.953 l -41.92,-22.078 c -9.93,21.754 -26.25,32.957 -47.37,32.957 -32.31,0 -53.76,-26.243 -53.76,-72.325 0,-46.0738 20.49,-71.6792 54.41,-71.6792 21.75,0 37.44,10.5664 47.99,32.0039 l 42.56,-21.125 C 4262.23,19.1992 4231.2,0 4189.59,0" /><path
         id="path116"
         style="fill:#0c2f59;fill-opacity:1;fill-rule:nonzero;stroke:none"
         d="m 4470.23,47.6836 c -33.59,0 -54.72,25.918 -54.72,70.7144 0,44.805 21.13,71.043 54.72,71.043 33.93,0 54.72,-25.925 54.72,-71.043 0,-45.1167 -20.79,-70.7144 -54.72,-70.7144 z M 4580,118.398 c 0,39.043 -12.48,70.403 -36.49,92.157 -19.52,17.597 -43.84,26.242 -73.28,26.242 -29.12,0 -53.76,-8.645 -73.28,-26.242 -24,-21.754 -36.48,-52.789 -36.48,-92.157 0,-72.3121 43.84,-118.077687 109.76,-118.077687 66.24,0 109.77,45.765587 109.77,118.077687" /><path
         id="path118"
         style="fill:#0c2f59;fill-opacity:1;fill-rule:nonzero;stroke:none"
         d="m 4722.39,208.641 h -2.24 l 6.08,-202.87928 h -49.92 V 231.68 h 78.08 l 44.16,-177.598 43.84,177.598 h 78.08 V 5.76172 h -49.92 l 6.4,202.87928 h -2.24 L 4823.19,5.76172 h -49.6 l -51.2,202.87928" /><path
         id="path120"
         style="fill:#0c2f59;fill-opacity:1;fill-rule:nonzero;stroke:none"
         d="m 5082.39,190.078 h 35.52 c 32.32,0 47.04,-8 47.04,-34.883 0,-27.199 -14.72,-34.875 -47.04,-34.875 h -35.52 z M 5028.95,5.76172 h 53.44 V 78.7227 h 41.6 c 64,0 96.32,26.2383 96.32,78.3943 0,53.117 -30.4,74.563 -96.64,74.563 h -94.72 V 5.76172" /><path
         id="path122"
         style="fill:#0c2f59;fill-opacity:1;fill-rule:nonzero;stroke:none"
         d="m 5348.62,82.8828 28.16,89.5972 28.16,-89.5972 z m -24.96,-77.12108 12.16,35.51558 h 82.24 l 11.51,-35.51558 h 57.93 L 5405.26,231.68 h -57.28 L 5265.74,5.76172 h 57.92" /><path
         id="path124"
         style="fill:#0c2f59;fill-opacity:1;fill-rule:nonzero;stroke:none"
         d="m 5565.9,231.68 h 56.32 l 86.4,-156.7972 -4.48,156.7972 h 51.2 V 5.76172 h -56 L 5612.62,160.645 5617.11,5.76172 H 5565.9 V 231.68" /><path
         id="path126"
         style="fill:#0c2f59;fill-opacity:1;fill-rule:nonzero;stroke:none"
         d="M 6049.42,231.68 5963.66,110.723 V 5.76172 h -53.44 V 110.723 l -85.76,120.957 h 64.31 l 47.69,-77.762 48.32,77.762 h 64.64" /><path
         id="path128"
         style="fill:#0c2f59;fill-opacity:1;fill-rule:nonzero;stroke:none"
         d="m 1597.87,131.785 -0.13,-0.137 v 0.188 h -96.31 V 87.9961 h 48.96 c -0.41,-4.4336 -1.5,-8.4453 -2.91,-12.2539 -3.69,-9.9805 -10.61,-17.7461 -20.3,-22.5781 -7.45,-3.7227 -16.42,-5.8008 -26.72,-5.8008 -36.48,0 -57.59,25.5976 -57.59,71.0347 0,45.442 21.76,71.043 58.87,71.043 23.36,0 39.36,-9.597 51.52,-30.718 l 43.52,23.679 c -19.51,35.196 -53.76,54.715 -96.96,54.715 -68.16,0 -111.03,-45.437 -111.03,-121.914 0,-71.6796 39.35,-114.882687 98.55,-114.882687 0.04,0 0.08,0 0.11,0 29.94,-1.238282 52,4.921877 68.15,15.277387 28.88,18.5039 39.01,50.1171 42.14,75.7304 2.76,22.5669 0.13,40.4569 0.13,40.4569" /></g></g></svg>