<svg width="64" height="64" viewBox="0 0 64 64" fill="none" xmlns="http://www.w3.org/2000/svg">
<path d="M61.792 24.9325C61.216 24.7713 60.544 24.6745 59.168 24.5133C53.408 24.2553 39.232 23.707 32 23.707C24.768 23.707 10.592 24.2553 4.832 24.5133C3.456 24.6745 2.784 24.7713 2.208 24.9325C0.384 25.3518 0 25.9968 0 27.319V36.2523C0 37.5423 1.376 38.4453 2.336 38.6065C3.296 38.8 3.904 38.8645 4.896 38.9613C10.016 39.2838 21.952 39.961 32 39.961C42.048 39.961 53.952 39.2838 59.104 38.9613C60.096 38.8645 60.704 38.8 61.664 38.6065C62.624 38.4453 64 37.5423 64 36.2523V27.319C64 25.9968 63.616 25.3518 61.792 24.9325Z" fill="url(#paint0_linear_10704_19366)"/>
<path d="M8.95613 25.285C11.7721 15.3842 21.0521 8.128 32.0921 8.128C43.0681 8.128 52.3481 15.352 55.1961 25.2205C55.1961 25.2528 55.1961 25.285 55.2281 25.3172C56.8601 25.1237 58.3321 24.8335 59.3561 24.5755C59.3241 24.511 59.3241 24.511 59.3241 24.4465C56.0921 12.643 45.1161 4 32.0921 4C19.0361 4 8.02813 12.7075 4.82812 24.511C6.26813 24.898 7.32413 25.0592 8.95613 25.285Z" fill="url(#paint1_radial_10704_19366)"/>
<path d="M55.1306 38.25C55.0986 38.3467 55.0666 38.4435 55.0666 38.4758C52.0586 48.1185 42.9066 55.1168 32.0906 55.1168C21.1786 55.1168 11.9946 48.0217 9.05062 38.25C7.25862 38.5725 6.65062 38.7015 4.89062 38.9273C8.18663 50.634 19.0986 59.2125 32.0906 59.2125C45.0826 59.2125 56.0266 50.6017 59.2906 38.895C57.7226 38.7337 56.8266 38.5725 55.1306 38.25Z" fill="url(#paint2_radial_10704_19366)"/>
<path d="M9.56894 25.2557C10.2409 24.9654 10.9129 24.5139 11.9369 24.2237C15.0089 16.2257 22.8809 10.5174 32.1289 10.5174C41.3449 10.5174 49.2169 16.1934 52.2889 24.1592C52.2889 24.1914 52.3209 24.2237 52.3209 24.2237C52.8649 24.4172 54.4009 25.0299 54.8809 25.2557H55.2329C55.2329 25.2234 55.2009 25.1912 55.2009 25.1589C52.3529 15.2904 43.0729 8.06641 32.0969 8.06641C21.0889 8.06641 11.8089 15.3227 8.96094 25.2234C9.15294 25.2879 9.44094 25.2557 9.56894 25.2557Z" fill="url(#paint3_radial_10704_19366)"/>
<path d="M31.9369 8.77295C42.2409 8.77295 51.3929 14.965 54.8489 25.1882C54.8489 25.2205 54.8809 25.2527 54.8809 25.285H55.2329C55.2329 25.2527 55.2009 25.2205 55.2009 25.1882C52.3529 15.3197 43.0729 8.0957 32.0969 8.0957C21.0889 8.0957 11.8089 15.352 8.96094 25.2527C9.18494 25.2527 9.28094 25.2527 9.53694 25.2205C12.6409 15.5455 21.6969 8.77295 31.9369 8.77295Z" fill="white"/>
<path d="M54.5548 38.2854C53.8188 38.7047 52.8908 39.0917 52.1548 39.3497C52.1548 39.3819 52.0908 39.4787 52.0908 39.5109C48.8908 47.2509 41.1468 52.7334 32.0908 52.7334C22.9708 52.7334 15.1948 47.1864 12.0268 39.3819C11.1628 39.1562 9.91478 38.5757 9.43478 38.3177C9.24278 38.3177 9.14678 38.3177 9.05078 38.2854C11.9948 48.0249 21.1788 55.1522 32.0908 55.1522C42.9388 55.1522 52.1228 48.1217 55.0668 38.4467C55.0668 38.4144 55.0988 38.3177 55.0988 38.3177C54.9708 38.2532 54.6828 38.2854 54.5548 38.2854Z" fill="url(#paint4_radial_10704_19366)"/>
<path d="M61.28 25.5758C59.744 25.3823 58.72 25.4146 55.008 25.2856C54.848 25.2856 54.656 25.2856 54.496 25.2533C47.776 25.0276 37.696 24.7051 32 24.7051C26.304 24.7051 16.192 25.0276 9.504 25.2533C9.344 25.2533 9.152 25.2533 8.992 25.2856C5.28 25.4146 4.256 25.3823 2.72 25.5758C1.184 25.7693 0 26.4143 0 27.5753V35.8636C0 36.9923 1.44 37.9276 2.72 37.9276C2.72 37.9276 18.944 38.9273 32 38.9596C45.056 38.9596 61.28 37.9276 61.28 37.9276C62.56 37.9276 64 36.9923 64 35.8636V27.5753C64 26.4143 62.816 25.7693 61.28 25.5758Z" fill="url(#paint5_radial_10704_19366)"/>
<path d="M54.5618 38.2823C51.3618 47.796 42.4018 54.4395 32.2898 54.4395C22.0498 54.4395 12.9938 48.3443 9.47384 38.2823C9.34584 38.2823 9.21784 38.2822 9.08984 38.25C12.0338 47.9895 21.2178 55.1168 32.1298 55.1168C43.0418 55.1168 52.2258 47.9895 55.1698 38.25C54.9458 38.25 54.7538 38.2823 54.5618 38.2823Z" fill="white"/>
<path d="M54.5574 38.2852C53.7894 38.7044 52.8614 39.0914 52.1254 39.3494C52.1254 39.3817 52.0614 39.4784 52.0614 39.5107C51.0374 41.9617 49.5974 44.1869 47.7734 46.0897C50.6534 43.9612 52.9574 41.3167 54.5574 38.2852Z" fill="#8C8C8C"/>
<path d="M17.0247 46.6702C14.8807 44.6062 13.1847 42.1229 12.0647 39.3494C11.2007 39.1237 9.95266 38.5432 9.47266 38.2852C9.98466 39.3817 10.5927 40.3814 11.2647 41.3489C12.6727 43.1872 14.4007 44.8642 16.3207 46.2509C16.5447 46.3799 16.8007 46.5412 17.0247 46.6702Z" fill="#4D4D4D"/>
<path d="M9.05062 38.25C7.25862 38.5725 6.65063 38.7015 4.89062 38.9273C5.01863 39.4433 5.17862 39.927 5.37062 40.443L9.05062 38.25Z" fill="#252525"/>
<path d="M44.9853 29.2186C44.4413 28.0254 44.6333 28.1544 43.4813 28.1221C43.3853 28.0899 43.1293 28.0899 42.7773 28.0899C42.4253 28.0899 42.3613 28.0899 42.0733 28.1221C40.9853 28.1221 41.1773 28.0576 40.7933 28.8639C40.7933 28.8639 38.9053 33.1209 38.1053 34.8946L38.0733 34.9591C37.9133 35.2816 38.0093 35.2816 38.2653 35.2816H39.9613C40.0893 35.2816 40.1533 35.2171 40.1853 35.1526C40.1853 35.1526 40.4413 34.6044 40.7613 33.8626H44.8893C45.2093 34.6044 45.4333 35.1204 45.4333 35.1526C45.4653 35.2494 45.5613 35.2816 45.6573 35.2816H47.4173C47.6733 35.2816 47.7373 35.3139 47.6413 35.0881C47.3213 34.3141 45.2733 29.8959 44.9853 29.2186ZM41.4013 32.3469C41.9453 31.0891 42.4573 29.8636 42.4573 29.8314C42.4893 29.7669 42.5533 29.7346 42.6493 29.7346C42.6813 29.7024 42.7773 29.7024 42.8733 29.7024C42.9373 29.7024 43.0333 29.7024 43.0653 29.7346C43.1293 29.7346 43.1933 29.7669 43.2253 29.8636C43.3533 30.2184 43.8333 31.2826 44.2493 32.3469H41.4013ZM18.7773 28.0254C18.9373 28.0254 18.9693 28.0899 18.9693 28.2189V34.9914C18.9693 35.1526 18.9373 35.2171 18.7453 35.2171H17.1133C16.9213 35.2171 16.8893 35.1849 16.8893 34.9914V28.2189C16.8893 28.0899 16.9213 28.0254 17.0493 28.0254H18.7773ZM15.2893 28.0899C15.4813 28.0899 15.5133 28.1544 15.5133 28.3156V35.0559C15.5133 35.2494 15.4813 35.2816 15.2893 35.2816H13.3693C12.2493 35.2816 12.1533 35.2816 11.7693 34.6366C11.0013 33.4111 8.63334 29.7669 8.63334 29.7669V35.0559C8.63334 35.2494 8.60134 35.2816 8.40934 35.2816H7.00134C6.80934 35.2816 6.77734 35.2494 6.77734 35.0559V28.3156C6.77734 28.1544 6.80934 28.0899 7.00134 28.0899H8.63334C9.84934 28.0899 10.0093 28.0576 10.4573 28.7026C10.8093 29.2831 13.6573 33.7014 13.6573 33.7014V28.3156C13.6573 28.1544 13.6893 28.0899 13.8813 28.0899H15.2893ZM57.2093 28.0899C57.4013 28.0899 57.4333 28.1544 57.4333 28.3156V35.0559C57.4333 35.2494 57.4013 35.2816 57.2093 35.2816H55.2893C54.1693 35.2816 54.0733 35.2816 53.6893 34.6366C52.8893 33.4111 50.5533 29.7669 50.5533 29.7669V35.0559C50.5533 35.2494 50.5213 35.2816 50.3293 35.2816H48.9213C48.7293 35.2816 48.6973 35.2494 48.6973 35.0559V28.3156C48.6973 28.1544 48.7293 28.0899 48.9213 28.0899H50.5533C51.7693 28.0899 51.9293 28.0576 52.3773 28.7026C52.7613 29.2831 55.5773 33.7014 55.5773 33.7014V28.3156C55.5773 28.1544 55.6093 28.0899 55.8013 28.0899H57.2093ZM25.9773 30.8311C27.2253 30.9601 28.1533 31.1859 28.4093 32.3791C28.4093 32.4759 28.4413 32.7984 28.4413 33.1531C28.4413 33.3789 28.4413 33.6691 28.3773 33.9271C28.1533 35.0559 27.3213 35.2816 25.9773 35.2816H20.6973C20.5053 35.2816 20.4733 35.2494 20.4733 35.0559V33.9271C20.4733 33.7336 20.5053 33.7014 20.6973 33.7014H26.0413C26.2653 33.7014 26.3293 33.6369 26.3613 33.4756V32.9919C26.3293 32.8629 26.2973 32.6694 26.0093 32.6371C25.4013 32.6049 23.6413 32.4436 22.4573 32.3146C20.9213 32.1534 20.5373 31.5084 20.4733 30.9279C20.4413 30.7344 20.4413 30.4764 20.4413 30.2506C20.4413 30.0571 20.4413 29.7669 20.4733 29.5411C20.6973 28.5414 21.4333 28.0576 22.7773 28.0576H27.8973C28.0893 28.0576 28.1533 28.0899 28.1533 28.2511V29.4121C28.1533 29.5734 28.0893 29.6379 27.8973 29.6056H22.8733C22.6493 29.6056 22.5533 29.7024 22.5213 29.9281V30.2184C22.5213 30.3796 22.6173 30.5086 22.8413 30.5409C23.4173 30.6376 25.2733 30.7666 25.9773 30.8311ZM35.0333 30.8311C36.2813 30.9601 37.2093 31.1859 37.4653 32.3791C37.4653 32.4759 37.4973 32.7984 37.4973 33.1531C37.4973 33.3789 37.4973 33.6691 37.4333 33.9271C37.2093 35.0559 36.3773 35.2816 35.0333 35.2816H29.7853C29.5933 35.2816 29.5613 35.2494 29.5613 35.0559V33.9271C29.5613 33.7336 29.5933 33.7014 29.7853 33.7014H35.1293C35.3533 33.7014 35.4173 33.6369 35.4493 33.4756V32.9919C35.4173 32.8629 35.3533 32.6694 35.0973 32.6371C34.4893 32.6049 32.7293 32.4436 31.5453 32.3146C30.0093 32.1534 29.6573 31.5084 29.5613 30.9279C29.5293 30.7344 29.5293 30.4764 29.5293 30.2506C29.5293 30.0571 29.5293 29.7669 29.5613 29.5411C29.7853 28.5414 30.5213 28.0576 31.8653 28.0576H36.9853C37.1773 28.0576 37.2413 28.0899 37.2413 28.2511V29.4121C37.2413 29.5734 37.1773 29.6379 36.9853 29.6056H31.9613C31.7373 29.6056 31.6413 29.7024 31.6093 29.9281V30.2184C31.6093 30.3796 31.6733 30.5086 31.9293 30.5409C32.5053 30.6376 34.3613 30.7666 35.0333 30.8311Z" fill="url(#paint6_radial_10704_19366)"/>
<defs>
<linearGradient id="paint0_linear_10704_19366" x1="32" y1="4.80789" x2="32" y2="49.7647" gradientUnits="userSpaceOnUse">
<stop offset="0.194" stop-color="white"/>
<stop offset="0.208" stop-color="#F8F8F8"/>
<stop offset="0.366" stop-color="#AEAEAE"/>
<stop offset="0.513" stop-color="#707070"/>
<stop offset="0.647" stop-color="#404040"/>
<stop offset="0.764" stop-color="#1D1D1D"/>
<stop offset="0.86" stop-color="#080808"/>
<stop offset="0.922"/>
</linearGradient>
<radialGradient id="paint1_radial_10704_19366" cx="0" cy="0" r="1" gradientUnits="userSpaceOnUse" gradientTransform="translate(14.03 -7.11238) scale(44.6278 44.9765)">
<stop offset="0.202" stop-color="white"/>
<stop offset="0.382" stop-color="#FDFDFD"/>
<stop offset="0.487" stop-color="#F4F4F4"/>
<stop offset="0.573" stop-color="#E6E6E6"/>
<stop offset="0.648" stop-color="#D2D2D2"/>
<stop offset="0.689" stop-color="#C4C4C4"/>
<stop offset="1" stop-color="#333333"/>
</radialGradient>
<radialGradient id="paint2_radial_10704_19366" cx="0" cy="0" r="1" gradientUnits="userSpaceOnUse" gradientTransform="translate(122.032 64.9288) scale(92.9443 93.6704)">
<stop offset="0.202" stop-color="white"/>
<stop offset="0.368" stop-color="#E4E4E4"/>
<stop offset="0.594" stop-color="#C4C4C4"/>
<stop offset="1" stop-color="#333333"/>
</radialGradient>
<radialGradient id="paint3_radial_10704_19366" cx="0" cy="0" r="1" gradientUnits="userSpaceOnUse" gradientTransform="translate(24.7545 44.2603) scale(28.5341 28.757)">
<stop offset="0.202" stop-color="white"/>
<stop offset="0.368" stop-color="#E4E4E4"/>
<stop offset="0.594" stop-color="#C4C4C4"/>
<stop offset="1" stop-color="#333333"/>
</radialGradient>
<radialGradient id="paint4_radial_10704_19366" cx="0" cy="0" r="1" gradientUnits="userSpaceOnUse" gradientTransform="translate(47.7746 73.6662) scale(54.1418 54.5648)">
<stop offset="0.202" stop-color="white"/>
<stop offset="0.368" stop-color="#E4E4E4"/>
<stop offset="0.594" stop-color="#C4C4C4"/>
<stop offset="1" stop-color="#333333"/>
</radialGradient>
<radialGradient id="paint5_radial_10704_19366" cx="0" cy="0" r="1" gradientUnits="userSpaceOnUse" gradientTransform="translate(31.5712 9.68044) scale(43.0246 43.3608)">
<stop offset="0.202" stop-color="white"/>
<stop offset="0.397" stop-color="#FDFDFD"/>
<stop offset="0.51" stop-color="#F4F4F4"/>
<stop offset="0.603" stop-color="#E6E6E6"/>
<stop offset="0.684" stop-color="#D2D2D2"/>
<stop offset="0.728" stop-color="#C4C4C4"/>
<stop offset="1" stop-color="#4D4D4D"/>
</radialGradient>
<radialGradient id="paint6_radial_10704_19366" cx="0" cy="0" r="1" gradientUnits="userSpaceOnUse" gradientTransform="translate(32.5613 14.0218) scale(28.9792 29.2056)">
<stop offset="0.111" stop-color="#4D4D4D"/>
<stop offset="0.248" stop-color="#494949"/>
<stop offset="0.355" stop-color="#404040"/>
<stop offset="0.451" stop-color="#2F2F2F"/>
<stop offset="0.541" stop-color="#181818"/>
<stop offset="0.611"/>
</radialGradient>
</defs>
</svg>
