<svg width="64" height="64" viewBox="0 0 64 64" fill="none" xmlns="http://www.w3.org/2000/svg">
<g clip-path="url(#clip0_11140_10302)">
<path d="M37.2976 33.9145C37.2468 33.9272 37.0437 33.9272 36.9548 33.9272H30.4024V35.451H37.0691C37.1199 35.451 37.5135 35.451 37.5897 35.4383C38.9484 35.3113 39.5706 34.1812 39.5706 33.1907C39.5706 32.1748 38.923 31.0828 37.6913 30.9685C37.45 30.9431 37.2468 30.9431 37.1579 30.9431H32.8024C32.6119 30.9431 32.396 30.9304 32.3199 30.905C31.977 30.8161 31.85 30.5113 31.85 30.2574C31.85 30.0288 31.977 29.724 32.3326 29.6224C32.4341 29.597 32.5484 29.5844 32.7897 29.5844H39.0754V28.0859H32.6881C32.4214 28.0859 32.2183 28.0986 32.0532 28.124C30.9611 28.2764 30.1992 29.1526 30.1992 30.2701C30.1992 31.1844 30.7706 32.251 32.0278 32.4288C32.2564 32.4542 32.5738 32.4542 32.7135 32.4542H36.9548C37.031 32.4542 37.2214 32.4542 37.2595 32.4669C37.7421 32.5304 37.9072 32.8859 37.9072 33.2034C37.9072 33.5082 37.7167 33.8383 37.2976 33.9145Z" fill="black"/>
<path d="M24.8797 33.9145C24.8289 33.9272 24.6257 33.9272 24.5495 33.9272H17.9844V35.451H24.6511C24.7019 35.451 25.0955 35.451 25.1717 35.4383C26.5305 35.3113 27.1527 34.1812 27.1527 33.1907C27.1527 32.1748 26.5051 31.0828 25.2733 30.9685C25.032 30.9431 24.8289 30.9431 24.74 30.9431H20.3844C20.1939 30.9431 19.9781 30.9304 19.9019 30.905C19.559 30.8161 19.432 30.5113 19.432 30.2574C19.432 30.0288 19.559 29.724 19.9146 29.6224C20.0162 29.597 20.1305 29.5844 20.3717 29.5844H26.6574V28.0859H20.2701C20.0035 28.0859 19.8003 28.0986 19.6352 28.124C18.5432 28.2764 17.7812 29.1526 17.7812 30.2701C17.7812 31.1844 18.3527 32.251 19.6098 32.4288C19.8384 32.4542 20.1559 32.4542 20.2955 32.4542H24.5368C24.613 32.4542 24.8035 32.4542 24.8416 32.4669C25.3241 32.5304 25.4892 32.8859 25.4892 33.2034C25.4892 33.5082 25.3114 33.8383 24.8797 33.9145Z" fill="black"/>
<path d="M14.5649 28.0352H12.9141V35.4891H14.5649V28.0352Z" fill="black"/>
<path d="M9.26984 35.4891V28.0352H7.61905V33.5971L2.12063 28.0352H0V35.4891H1.65079V29.9018L7.1873 35.4891H9.26984Z" fill="black"/>
<path d="M62.3612 28.0352V33.5971L56.8628 28.0352H54.7422V35.4891H56.393V29.9018L61.9168 35.4891H63.9993V28.0352H62.3612Z" fill="black"/>
<path d="M46.1476 28.0352L41.5 35.4891H43.5064L44.3317 34.1558H49.754L50.5794 35.4891H52.573L47.9254 28.0352H46.1476ZM48.9032 32.7463H45.1825L47.0492 29.7494L48.9032 32.7463Z" fill="black"/>
<path d="M9.18049 23.8064C12.5075 14.0921 21.6757 7.56508 32.0122 7.56508C42.3488 7.56508 51.5297 14.0921 54.844 23.8064L54.8694 23.8825H62.1456V23.0064L59.1234 22.6508C57.2567 22.4349 56.863 21.6095 56.3551 20.5683L56.2281 20.3143C51.8599 11.019 42.3488 5 32.0122 5C21.663 5 12.1646 11.019 7.79637 20.3397L7.66938 20.5937C7.16145 21.6349 6.7678 22.4603 4.90113 22.6762L1.87891 23.0317V23.9079H9.1424L9.18049 23.8064Z" fill="black"/>
<path d="M54.8723 39.6553L54.8469 39.7315C51.5199 49.4458 42.3517 55.96 32.0152 55.96C21.6787 55.96 12.4977 49.4331 9.18342 39.7188L9.15802 39.6426H1.89453V40.5188L4.91675 40.8743C6.78342 41.0902 7.17707 41.9156 7.68501 42.9569L7.81199 43.2108C12.1802 52.5315 21.6914 58.5505 32.0279 58.5505C42.3644 58.5505 51.8755 52.5315 56.2437 43.2235L56.3707 42.9696C56.8787 41.9283 57.2723 41.1029 59.139 40.887L62.1612 40.5315V39.6553H54.8723Z" fill="black"/>
</g>
<defs>
<clipPath id="clip0_11140_10302">
<rect width="64" height="53.5492" fill="white" transform="translate(0 5)"/>
</clipPath>
</defs>
</svg>
