<svg width="64" height="64" viewBox="0 0 64 64" fill="none" xmlns="http://www.w3.org/2000/svg">
<path d="M37.9191 44.8817C38.2711 44.9461 38.4311 45.1391 38.4311 45.5252C38.4311 46.1686 38.2711 46.7799 37.8871 47.3268C37.5671 47.7772 37.0871 47.9059 36.6071 47.9381C35.7751 48.0024 34.9431 48.0346 34.0791 48.0346C33.0551 48.0667 32.0311 48.0346 31.0071 48.0346H30.6551C30.8151 47.4555 30.9431 46.9729 31.0711 46.4582C31.1991 45.9434 31.3591 45.4608 31.4871 44.9461C31.5191 44.7852 31.6151 44.7209 31.7751 44.7209C33.4391 44.7209 35.0711 44.7209 36.7351 44.753C37.1191 44.7209 37.5351 44.7852 37.9191 44.8817ZM38.6231 40.8602C39.0071 40.9568 39.1671 41.1498 39.1671 41.5359C39.1351 42.1149 38.9751 42.6619 38.6231 43.1123C38.3671 43.434 38.0151 43.5949 37.6311 43.6592C37.0871 43.7235 36.5431 43.7879 36.0311 43.7879C34.6871 43.8201 33.3751 43.7879 32.0311 43.7879C31.9671 43.7879 31.9351 43.7879 31.8711 43.7557C32.1591 42.7584 32.4151 41.7932 32.7031 40.8281C32.7351 40.7637 32.8311 40.6994 32.8951 40.6994C34.5591 40.6994 36.2231 40.6994 37.9191 40.7316C38.1111 40.7637 38.3671 40.7959 38.6231 40.8602ZM26.9111 40.8924C27.3911 41.0533 27.6151 41.3107 27.5831 41.8254C27.5191 42.4045 27.4231 42.9836 27.2631 43.5305C26.9431 44.5922 26.5911 45.6539 26.2071 46.7155C25.9511 47.4555 25.4071 47.8737 24.6071 47.9059C23.6791 47.9702 22.7831 48.0346 21.8231 48.1311C20.9271 48.0667 19.9991 47.9702 19.0711 47.9059C18.9431 47.9059 18.8151 47.8415 18.6871 47.8094C18.3351 47.7129 18.1751 47.552 18.2071 47.1659C18.2711 46.4903 18.3351 45.8147 18.4951 45.1713C18.7511 44.1418 19.1351 43.1445 19.4551 42.115C19.5191 41.9541 19.5831 41.8254 19.6791 41.6645C19.9991 40.9246 20.6711 40.7959 21.3431 40.6994C22.9751 40.5385 24.6071 40.5064 26.2711 40.6994C26.4631 40.7637 26.6871 40.8281 26.9111 40.8924Z" fill="#FFFF57"/>
<path d="M4.35297 48.903C4.54497 48.903 4.60897 48.8386 4.64097 48.6778C5.24897 46.5222 5.82497 44.3346 6.43297 42.179C6.56097 41.6965 6.68897 41.2461 6.84897 40.7313C7.48897 41.793 8.09697 42.7903 8.70498 43.7876C9.69697 45.4284 10.721 47.0692 11.713 48.6778C11.809 48.8386 11.905 48.8708 12.065 48.8708H14.017C14.209 48.8708 14.305 48.8386 14.337 48.6134C15.041 46.0397 15.777 43.4337 16.481 40.86C16.577 40.5061 16.673 40.1844 16.769 39.7983H15.521C15.329 39.7983 15.265 39.8627 15.201 40.0235C14.561 42.3077 13.921 44.6241 13.281 46.9083C13.185 47.2622 13.089 47.6161 12.993 48.0022C12.705 47.5196 12.449 47.1013 12.193 46.6831C10.817 44.4311 9.47297 42.2112 8.09697 39.9592C8.03297 39.8627 7.90497 39.7983 7.80897 39.7983H5.85697C5.60097 39.7983 5.53697 39.8948 5.47297 40.12C4.83297 42.4686 4.16097 44.8493 3.52097 47.1979C3.36097 47.7448 3.23297 48.2917 3.07297 48.8708C3.55297 48.903 3.93697 48.903 4.35297 48.903ZM62.465 39.0262C63.041 39.2192 63.361 39.8627 63.169 40.5383L62.017 45.0745C61.761 46.0397 61.505 47.0048 61.281 47.97C61.025 48.9995 60.033 49.9325 58.785 49.9325H2.24097C1.98497 49.9325 1.69697 49.9325 1.47297 49.836C0.864974 49.6429 0.608974 49.0317 0.800974 48.2917L2.04897 43.3694C2.24097 42.5651 2.46497 41.793 2.65697 40.9887C2.91297 39.7983 4.00097 38.9297 5.18497 38.9297C12.513 38.9619 19.873 38.9297 27.201 38.9297H61.729C61.985 38.9619 62.241 38.9619 62.465 39.0262ZM60.833 40.6026C60.929 40.3453 60.961 40.12 61.057 39.8305H52.865C52.673 39.8305 52.577 39.8627 52.513 40.0879C52.449 40.3452 52.385 40.6026 52.289 40.86C51.681 42.9833 51.105 45.1389 50.497 47.2622C50.337 47.777 50.209 48.3239 50.049 48.8708H58.497C58.561 48.6134 58.657 48.3239 58.753 48.0022H51.809C52.097 46.9727 52.385 45.9753 52.641 45.0102C52.705 44.7206 52.833 44.6563 53.153 44.6563H59.169C59.265 44.6563 59.425 44.6241 59.457 44.5598C59.553 44.3346 59.617 44.0772 59.681 43.7876H53.025C53.281 42.8547 53.537 41.986 53.761 41.0852C53.825 40.7957 53.953 40.7313 54.241 40.7313H60.609C60.673 40.7313 60.801 40.667 60.833 40.6026ZM49.313 48.8065C49.409 48.5491 49.473 48.2595 49.569 47.9378H42.817C43.585 45.2354 44.321 42.5651 45.057 39.8627H43.649C43.585 39.8627 43.521 39.9914 43.521 40.0557C42.913 42.179 42.337 44.2702 41.761 46.3936C41.537 47.23 41.313 48.0343 41.057 48.9351H49.089C49.153 48.903 49.313 48.8386 49.313 48.8065ZM40.641 41.0852C40.641 40.5383 40.353 40.1844 39.809 40.0879C39.297 39.9914 38.753 39.8627 38.209 39.8627C36.001 39.8305 33.825 39.8305 31.617 39.8305C31.393 39.8305 31.361 39.927 31.297 40.12C30.657 42.5008 29.985 44.8815 29.313 47.23C29.153 47.777 29.025 48.2917 28.865 48.903H33.825C34.657 48.903 35.489 48.903 36.321 48.8386C36.993 48.8065 37.665 48.6778 38.273 48.356C39.233 47.8091 39.681 46.8761 39.809 45.8145C39.905 45.0745 39.585 44.5919 38.849 44.3346C38.689 44.2702 38.497 44.238 38.273 44.1737C38.401 44.1415 38.497 44.1094 38.561 44.0772C40.097 43.5946 40.641 42.5008 40.641 41.0852ZM28.609 43.8198C28.801 43.0477 28.961 42.2756 28.929 41.4713C28.897 40.7313 28.609 40.3453 27.937 40.1522C27.553 40.0557 27.169 39.9592 26.785 39.8948C24.865 39.7018 22.945 39.7018 21.025 39.9914C19.297 40.2487 18.145 41.1495 17.697 42.8868C17.569 43.3372 17.409 43.8198 17.281 44.2702C17.025 45.2675 16.737 46.2649 16.769 47.3265C16.801 48.0343 17.025 48.3882 17.697 48.6134C17.985 48.7099 18.273 48.8065 18.561 48.8065C19.585 48.903 20.641 48.9673 21.153 49.0317C22.913 48.9995 24.161 48.9673 25.409 48.6778C26.273 48.4847 26.881 48.0022 27.329 47.23C27.969 46.1684 28.321 44.978 28.609 43.8198Z" fill="#FFFF57"/>
<path d="M64 39.8V40.5721C64 40.6043 63.968 40.6043 63.968 40.6365C63.328 43.1137 62.688 45.5909 62.08 48.1003C61.856 49.0012 61.408 49.7089 60.608 50.1915C60.224 50.4167 59.808 50.5454 59.392 50.7063H1.632C1.216 50.5776 0.8 50.4811 0.544 50.1272C0.32 49.8376 0.192 49.4837 0 49.1298V48.3255C0.192 47.5856 0.384 46.8135 0.576 46.0735C1.024 44.2719 1.504 42.4703 1.952 40.6686C2.272 39.3818 3.584 38.1914 5.152 38.1914C24 38.2236 42.848 38.1914 61.728 38.2236C62.112 38.2236 62.496 38.2557 62.848 38.3844C63.392 38.5775 63.744 38.9957 63.904 39.5748C63.936 39.607 63.968 39.7035 64 39.8ZM63.2 40.54C63.36 39.8643 63.072 39.1887 62.496 39.0279C62.272 38.9635 62.016 38.9635 61.76 38.9635H5.216C4.032 38.9635 2.944 39.8322 2.688 41.0225C2.528 41.8268 2.304 42.599 2.08 43.4032L0.832 48.3255C0.64 49.0655 0.896 49.6768 1.504 49.8698C1.76 49.9663 2.016 49.9663 2.272 49.9663H58.816C60.064 49.9663 61.056 49.0333 61.312 48.0038C61.536 47.0387 61.792 46.0735 62.048 45.1084C62.432 43.5641 62.816 42.052 63.2 40.54Z" fill="black"/>
<path d="M60.4167 39.8313H61.0247C60.9607 40.1209 60.8967 40.3461 60.8007 40.6035C60.7687 40.6678 60.6407 40.7 60.5767 40.7H54.2087C53.9207 40.7 53.7927 40.7643 53.7287 41.0539C53.5047 41.9547 53.2487 42.8233 52.9927 43.7563H59.6487C59.5527 44.0458 59.5207 44.3032 59.4247 44.5284C59.3927 44.5928 59.2327 44.6249 59.1367 44.6249H53.1207C52.8327 44.6249 52.7047 44.7215 52.6087 44.9788C52.3527 45.9762 52.0647 46.9413 51.7767 47.9708H58.7207C58.6247 48.2925 58.5607 48.5499 58.4647 48.8395H50.0167C50.1767 48.2925 50.3047 47.7456 50.4647 47.2309C51.0727 45.1075 51.6487 42.952 52.2567 40.8287C52.3207 40.5713 52.4167 40.3139 52.4807 40.0565C52.5127 39.8635 52.6407 39.7992 52.8327 39.7992C55.3607 39.8313 57.8887 39.8313 60.4167 39.8313ZM42.8167 47.9386H49.5687C49.4727 48.2604 49.4087 48.5499 49.3127 48.8073C49.2807 48.8716 49.1527 48.9038 49.0567 48.9038H41.0247C41.2807 48.0352 41.5047 47.1987 41.7287 46.3622C42.3047 44.2389 42.9127 42.1477 43.4887 40.0244C43.5207 39.96 43.5847 39.8313 43.6167 39.8313H45.0247C44.3207 42.5338 43.5847 45.204 42.8167 47.9386ZM42.9127 14.9303C43.5207 14.9303 44.0007 15.4451 44.0007 16.0242C44.0007 16.6032 43.5207 17.118 42.9127 17.118C42.3047 17.118 41.7927 16.6032 41.7927 16.0242C41.7927 15.4451 42.3047 14.9303 42.9127 14.9303ZM41.6967 18.244H43.8407C43.7767 18.5657 43.6807 18.8553 43.6167 19.177C42.7847 22.4264 41.9847 25.6757 41.1527 28.9251C41.0887 29.1503 40.9927 29.2146 40.8007 29.2146H37.9527C37.7287 29.2146 37.6007 29.1503 37.5687 28.8929C37.0247 25.9974 36.4487 23.102 35.9047 20.1743C35.9047 20.1422 35.9047 20.1422 35.8727 20.11H35.8087C35.7127 20.7212 35.6167 21.3325 35.5207 21.9116C35.1367 24.228 34.7527 26.5765 34.3687 28.8929C34.3367 29.1181 34.2407 29.1824 34.0167 29.1824C33.4087 29.1503 32.8007 29.1824 32.1607 29.1824C32.8327 25.5149 33.4727 21.8794 34.1447 18.2118H37.6007C38.2087 21.236 38.7847 24.228 39.3927 27.2521H39.4567C40.1607 24.2602 40.9287 21.2682 41.6967 18.244ZM40.9607 30.2441V32.1423H22.9127C22.9127 32.0779 22.8807 32.0136 22.8807 31.9171C22.8807 31.4667 22.9127 31.0162 22.8807 30.5658C22.8807 30.2763 22.9767 30.1798 23.2327 30.2441H40.9607ZM40.9287 33.2361V35.1342C40.8647 35.1342 40.7687 35.1664 40.7047 35.1664H23.2007C22.8487 35.1664 22.8487 35.1664 22.8487 34.8125V33.2683C28.9287 33.2361 34.9127 33.2361 40.9287 33.2361ZM39.8087 40.0887C40.3527 40.1852 40.6407 40.5391 40.6407 41.086C40.6407 42.5016 40.0967 43.5954 38.6247 44.0458C38.5287 44.078 38.4647 44.1102 38.3367 44.1424C38.5607 44.2067 38.7207 44.2711 38.9127 44.3032C39.6167 44.5606 39.9687 45.0432 39.8727 45.7831C39.7447 46.8448 39.2967 47.7778 38.3367 48.3247C37.7287 48.6786 37.0567 48.7751 36.3847 48.8073C35.5527 48.8395 34.7207 48.8395 33.8887 48.8716H28.9287C29.0887 48.2925 29.2487 47.7456 29.3767 47.1987C30.0487 44.818 30.6887 42.4373 31.3607 40.0887C31.3927 39.9278 31.4567 39.7992 31.6807 39.7992C33.8887 39.7992 36.0647 39.7992 38.2727 39.8313C38.7527 39.8635 39.2967 39.9922 39.8087 40.0887ZM39.1687 41.5364C39.2007 41.1504 39.0087 40.9252 38.6247 40.8608C38.3687 40.7965 38.1127 40.7643 37.8567 40.7643C36.1927 40.7321 34.5287 40.7321 32.8327 40.7321C32.7687 40.7321 32.6407 40.7965 32.6407 40.8608C32.3527 41.826 32.0967 42.7911 31.8087 43.7885C31.8727 43.7885 31.9367 43.8206 31.9687 43.8206H35.9687C36.5127 43.8206 37.0567 43.7563 37.5687 43.692C37.9527 43.6598 38.3047 43.4989 38.5607 43.145C38.9447 42.6625 39.1367 42.1155 39.1687 41.5364ZM38.4007 45.5258C38.4007 45.1719 38.2727 44.9467 37.8887 44.8823C37.5047 44.818 37.0887 44.7536 36.7047 44.7215C35.0407 44.6893 33.4087 44.6893 31.7447 44.6893C31.5527 44.6893 31.4887 44.7536 31.4567 44.9145C31.3287 45.4292 31.1687 45.9118 31.0407 46.4266C30.9127 46.9413 30.7527 47.4239 30.6247 48.003H34.0487C34.8807 48.003 35.7127 47.9708 36.5767 47.9065C37.0567 47.8743 37.5367 47.7456 37.8567 47.2952C38.2407 46.7805 38.4007 46.1692 38.4007 45.5258ZM36.9607 13.4182C37.6007 13.9008 37.7607 14.7695 37.4407 15.5094C37.1207 16.2172 36.3207 16.6354 35.5527 16.4746C34.7847 16.3137 34.2087 15.6703 34.1447 14.8338C34.0807 14.0938 34.5927 13.3539 35.3287 13.0965L35.6167 13H36.2247C36.4167 13.1287 36.7047 13.2252 36.9607 13.4182ZM31.8087 29.2146H30.9447C30.6247 29.2146 30.2727 29.1824 29.9527 29.2146C29.6967 29.2468 29.6327 29.1181 29.6007 28.8929L28.8327 24.2602C28.6087 22.8768 28.3847 21.5255 28.0967 20.1422C28.0647 20.2708 28.0327 20.3995 28.0007 20.496C27.4567 23.295 26.9127 26.1261 26.3687 28.9251C26.3367 29.1181 26.2727 29.1824 26.0807 29.1824H23.1687C22.9447 29.1824 22.8487 29.1181 22.8167 28.8929C22.2407 26.5122 21.6327 24.1636 21.0247 21.8151L20.1607 18.437C20.1607 18.3727 20.1287 18.3084 20.1287 18.244H22.2727C23.0407 21.236 23.8087 24.2602 24.5767 27.2521H24.6407C25.2167 24.2602 25.8247 21.236 26.4007 18.2118H29.8567C30.4967 21.8794 31.1687 25.5149 31.8087 29.2146ZM29.5687 13.7721C29.9847 14.3834 29.9527 15.1877 29.5367 15.799C29.0887 16.4102 28.3207 16.6676 27.6167 16.4424C26.9127 16.2172 26.4007 15.5737 26.4007 14.8338C26.3687 13.9973 26.8487 13.3539 27.6167 13.0965L27.8087 13H28.4167C28.8647 13.1287 29.2807 13.3539 29.5687 13.7721ZM28.9607 41.4721C28.9927 42.2764 28.8327 43.0485 28.6407 43.8206C28.3207 44.9788 27.9687 46.1692 27.3927 47.2309C26.9767 48.003 26.3367 48.4856 25.4727 48.6786C24.2247 48.9681 22.9767 49.0003 21.2167 49.0325C20.6727 49.0003 19.6487 48.9038 18.6247 48.8073C18.3367 48.7751 18.0487 48.7108 17.7607 48.6143C17.0887 48.389 16.8647 48.0352 16.8327 47.3274C16.8007 46.2657 17.0567 45.2684 17.3447 44.271C17.4727 43.8206 17.6327 43.3381 17.7607 42.8877C18.2087 41.1504 19.3607 40.2496 21.0887 39.9922C23.0087 39.7026 24.9287 39.7026 26.8487 39.8957C27.2327 39.9278 27.6167 40.0244 28.0007 40.1531C28.6407 40.3139 28.9287 40.7321 28.9607 41.4721ZM27.5847 41.826C27.6487 41.3112 27.4247 41.0539 26.9127 40.893C26.6887 40.8287 26.4647 40.7643 26.2407 40.7321C24.6087 40.5391 22.9767 40.5713 21.3127 40.7321C20.6407 40.7965 19.9687 40.9573 19.6487 41.6973C19.5847 41.8582 19.4887 41.9868 19.4247 42.1477C19.1047 43.1772 18.7207 44.1745 18.4647 45.204C18.3047 45.8475 18.2407 46.5553 18.1767 47.1987C18.1447 47.5526 18.3047 47.7134 18.6567 47.8421L19.0407 47.9386C19.9687 48.0352 20.8967 48.0995 21.7927 48.1638C22.7527 48.0995 23.6807 48.003 24.5767 47.9386C25.3767 47.8743 25.9207 47.4882 26.1767 46.7483C26.5287 45.6866 26.9127 44.6249 27.2327 43.5633C27.4247 42.9842 27.5207 42.4051 27.5847 41.826ZM21.0887 14.9303C21.6647 14.9303 22.1767 15.4451 22.1447 16.0563C22.1127 16.6676 21.6327 17.1502 21.0247 17.118C20.4487 17.118 19.9687 16.6032 19.9687 15.992C19.9687 15.4129 20.4807 14.9303 21.0887 14.9303ZM12.2567 46.7483C12.5127 47.1665 12.7687 47.5848 13.0567 48.0673C13.1527 47.6813 13.2487 47.3274 13.3447 46.9735C13.9847 44.6893 14.6247 42.3729 15.2647 40.0887C15.3287 39.8957 15.3927 39.8313 15.5847 39.8635H16.8327C16.7367 40.2496 16.6407 40.5713 16.5447 40.9252C15.8407 43.4989 15.1047 46.1048 14.4007 48.6786C14.3367 48.8716 14.2727 48.936 14.0807 48.936H12.1287C11.9367 48.936 11.8407 48.8716 11.7767 48.7429C10.7847 47.1022 9.76072 45.4614 8.76872 43.8528C8.16072 42.8555 7.55272 41.8582 6.91272 40.7965C6.78472 41.3112 6.65672 41.7938 6.49672 42.2442C5.88872 44.3997 5.28072 46.5874 4.70472 48.7429C4.67272 48.9038 4.57672 48.9681 4.41672 48.9681H3.13672C3.29672 48.389 3.45672 47.8421 3.58472 47.2952C4.22472 44.9467 4.89672 42.5981 5.53672 40.2174C5.60072 39.9922 5.69672 39.8957 5.92072 39.8957C6.56072 39.9278 7.23272 39.8957 7.87272 39.8957C7.96872 39.8957 8.12872 39.96 8.16072 40.0565C9.53672 42.2442 10.8807 44.4963 12.2567 46.7483Z" fill="black"/>
</svg>
