<svg width="64" height="50" viewBox="0 0 64 50" fill="none" xmlns="http://www.w3.org/2000/svg">
<g clip-path="url(#clip0_10704_19391)">
<path d="M31.9873 46.4706C19.9692 46.4706 10.0014 36.7366 10.0014 25.0004C10.0014 24.3901 10.0301 23.7854 10.0829 23.1871L28.4791 24.3081L20.5224 29.6762C20.4673 29.7137 20.4224 29.7637 20.3913 29.8218C20.3602 29.8799 20.3438 29.9444 20.3437 30.01C20.3438 30.1179 20.3877 30.2214 20.4659 30.2978C20.5441 30.3741 20.65 30.417 20.7606 30.4171H53.248C50.7499 39.5864 42.094 46.4706 31.9873 46.4706ZM31.9873 3.5294C44.0054 3.5294 53.9733 13.2642 53.9733 25.0004C53.9733 25.6059 53.946 26.2066 53.8935 26.8009L35.5151 25.6601L43.4899 20.3238C43.5451 20.2864 43.5901 20.2365 43.6212 20.1783C43.6523 20.1202 43.6686 20.0556 43.6685 19.99C43.6685 19.7653 43.4825 19.5828 43.2533 19.5828H10.7266C13.2255 10.4136 21.8807 3.5294 31.9873 3.5294ZM63.5194 27.3984L57.5043 27.0248C57.559 26.3572 57.5882 25.6816 57.5882 25.0004C57.5881 11.1928 46.1265 0 31.9871 0C19.7539 0 9.52564 8.3805 6.9917 19.5828H2.268C2.12083 19.5827 1.97562 19.6157 1.84362 19.6793C1.71163 19.7429 1.59639 19.8352 1.50685 19.9493L0.101174 21.8447C0.035564 21.9269 -4.60293e-05 22.0281 3.94072e-07 22.1323C-8.05057e-05 22.1939 0.0122954 22.255 0.0364191 22.312C0.0605427 22.3689 0.0959399 22.4207 0.140583 22.4643C0.185225 22.5079 0.238236 22.5424 0.296578 22.566C0.35492 22.5895 0.417446 22.6016 0.480573 22.6015L6.47212 22.9665C6.41579 23.6431 6.38744 24.3216 6.38712 25.0004C6.38723 38.8072 17.849 50 31.9873 50C44.2209 50 54.449 41.6195 56.9838 30.4171H61.7311C61.8783 30.4173 62.0236 30.3843 62.1556 30.3208C62.2876 30.2572 62.4029 30.1648 62.4924 30.0507L63.8989 28.1553C63.9541 28.086 63.9882 28.0029 63.9975 27.9156C64.0067 27.8282 63.9906 27.7401 63.9511 27.6612C63.9116 27.5823 63.8501 27.5159 63.7738 27.4694C63.6975 27.423 63.6093 27.3984 63.5194 27.3984Z" fill="#1A171B"/>
</g>
<defs>
<clipPath id="clip0_10704_19391">
<rect width="64" height="50" fill="white"/>
</clipPath>
</defs>
</svg>
