<svg width="64" height="43" viewBox="0 0 64 43" fill="none" xmlns="http://www.w3.org/2000/svg">
<g clip-path="url(#clip0_10704_19393)">
<path d="M63.9576 21.0974C63.9235 21.0045 63.8709 20.9187 63.8076 20.8425C63.7344 20.7537 63.647 20.6778 63.5537 20.6096C63.4598 20.5413 63.3605 20.4812 63.2581 20.4259C63.1899 20.3888 63.1202 20.3547 63.0494 20.3215C62.932 20.2668 62.812 20.2167 62.6906 20.1705C62.4307 20.0701 62.1647 19.9863 61.8968 19.909C61.5505 19.8096 61.2013 19.7219 60.85 19.6421C60.424 19.5458 59.9949 19.4614 59.5649 19.3832C58.9015 19.2632 58.2356 19.1589 57.5677 19.064C56.3509 18.8919 55.129 18.7524 53.9056 18.631C52.4343 18.4855 50.961 18.3665 49.4862 18.2651C47.9036 18.1568 46.3194 18.0684 44.7347 17.9962C43.0577 17.9194 41.3797 17.8612 39.7012 17.8175C38.0392 17.7744 36.3767 17.7463 34.7148 17.7312C31.3928 17.701 28.0704 17.7255 24.75 17.8064C23.0715 17.8471 21.3935 17.9027 19.716 17.9761C18.1177 18.0453 16.5205 18.1311 14.9243 18.237C13.4736 18.3333 12.0234 18.4463 10.5757 18.5837C9.91784 18.6465 9.26048 18.7142 8.60362 18.7885C8.00549 18.8562 7.40783 18.9294 6.81119 19.0103C6.26623 19.0841 5.72228 19.1643 5.17984 19.2536C4.72019 19.3289 4.26104 19.4107 3.8044 19.502C3.42305 19.5783 3.04269 19.6621 2.66532 19.7559C2.34216 19.8367 2.02153 19.9255 1.70438 20.0284C1.45749 20.1092 1.21262 20.1985 0.976266 20.3069C0.846257 20.3657 0.718836 20.4304 0.597404 20.5046C0.511062 20.5573 0.427794 20.6146 0.350015 20.6798C0.259692 20.755 0.176906 20.8408 0.113665 20.9402C0.0388459 21.0581 -0.00823635 21.1956 -0.00780962 21.3346C-0.00780962 21.4154 0.00826377 21.4967 0.0358588 21.573C0.069997 21.6663 0.1222 21.7516 0.185398 21.8279C0.258653 21.9162 0.346474 21.9925 0.439813 22.0602C0.533693 22.1289 0.633007 22.1892 0.734867 22.2439C0.80357 22.281 0.873411 22.3151 0.943622 22.3483C1.06154 22.403 1.18148 22.4531 1.3024 22.4998C1.56233 22.6002 1.8283 22.684 2.09625 22.7613C2.4425 22.8607 2.79175 22.9485 3.14302 23.0277C3.56953 23.1246 3.99808 23.2089 4.42812 23.2866C5.09199 23.4071 5.75789 23.5114 6.42528 23.6063C7.64264 23.7789 8.86453 23.9179 10.0874 24.0389C11.5587 24.1844 13.0325 24.3038 14.5073 24.4052C16.0899 24.5135 17.6736 24.6019 19.2588 24.6741C20.9358 24.7504 22.6138 24.8091 24.2924 24.8528C25.9543 24.8954 27.6163 24.924 29.2787 24.9391C32.6007 24.9693 35.9226 24.9448 39.2435 24.8639C40.922 24.8232 42.6 24.7676 44.277 24.6943C45.8753 24.6246 47.473 24.5392 49.0687 24.4333C50.5199 24.337 51.9696 24.2241 53.4173 24.0866C54.0757 24.0238 54.7331 23.9561 55.3894 23.8818C55.9875 23.8141 56.5852 23.7409 57.1818 23.66C57.7268 23.5858 58.2707 23.5055 58.8137 23.4167C59.2733 23.3414 59.732 23.2596 60.1891 23.1683C60.5705 23.092 60.9503 23.0082 61.3277 22.9139C61.6509 22.8331 61.972 22.7448 62.2886 22.6414C62.536 22.5612 62.7804 22.4713 63.0172 22.3634C63.1467 22.3042 63.2742 22.2399 63.3956 22.1657C63.4819 22.113 63.5652 22.0553 63.643 21.9905C63.7333 21.9147 63.8166 21.829 63.8798 21.7296C63.9541 21.6117 64.0013 21.4747 64.0013 21.3352C64.0013 21.2538 63.9852 21.1736 63.9576 21.0974ZM62.7568 22.122C61.7974 22.5265 60.8043 22.7212 59.7952 22.9129C58.1282 23.23 56.4512 23.4418 54.7662 23.6229C52.5432 23.8618 50.3172 24.0329 48.0867 24.1694C42.7255 24.498 37.3663 24.626 31.9965 24.626C26.6228 24.626 21.2595 24.498 15.8943 24.1689C13.6648 24.0323 11.4408 23.8608 9.21983 23.6224C7.53579 23.4413 5.86029 23.229 4.1943 22.9124C3.18619 22.7207 2.19413 22.526 1.2357 22.1215C0.963223 22.0066 0.317897 21.7617 0.317897 21.3352C0.317897 20.9077 0.963721 20.6633 1.2367 20.5484C2.19564 20.1439 3.18871 19.9492 4.19782 19.757C5.8653 19.4404 7.54232 19.2281 9.22737 19.0475C11.4498 18.8086 13.6763 18.637 15.9068 18.5005C21.268 18.1724 26.6268 18.0444 31.9965 18.0444C37.3708 18.0444 42.734 18.1724 48.0993 18.5015C50.3283 18.6381 52.5528 18.8097 54.7737 19.048C56.4577 19.2292 58.1333 19.4409 59.7987 19.7575C60.8074 19.9497 61.7994 20.1444 62.7579 20.5489C63.0303 20.6638 63.6756 20.9082 63.6756 21.3352C63.6756 21.7622 63.0293 22.0066 62.7568 22.122Z" fill="black"/>
<path d="M53.3747 19.6839H52.6145V22.9798H53.3747L53.3747 19.6839ZM15.7023 19.6841H11.418V22.9799H12.1782V22.2698H15.7023C16.4164 22.2698 16.9955 21.6913 16.9955 20.9772C16.9955 20.2631 16.4164 19.6841 15.7024 19.6841M15.7024 21.5096H12.1782V20.4448H15.7023C15.9964 20.4448 16.2347 20.6831 16.2347 20.9772C16.2347 21.2713 15.9964 21.5096 15.7023 21.5096M45.3756 20.4799C46.4002 21.2421 47.4254 22.0044 48.4506 22.7666C48.7356 22.9789 49.1165 23.012 49.4336 22.8519C49.5895 22.7738 49.7205 22.6538 49.812 22.5055C49.9035 22.3571 49.952 22.1863 49.952 22.0119V19.6841H49.1917V22.0701C49.1917 22.1374 49.1687 22.1745 49.1084 22.2046C49.0487 22.2347 49.005 22.2312 48.9513 22.1903C47.9262 21.4281 46.9015 20.6659 45.8763 19.9036C45.5908 19.6919 45.2104 19.6588 44.8928 19.8183C44.5752 19.9779 44.3749 20.303 44.3749 20.6583V22.9791H45.1352V20.6001C45.1352 20.5328 45.1582 20.4957 45.2179 20.4657C45.2781 20.4355 45.3218 20.4396 45.3755 20.4799M25.2345 22.9798V20.8757C25.2345 20.794 25.226 20.7122 25.2099 20.6324C25.1899 20.5381 25.1587 20.4457 25.117 20.3589C25.0699 20.2617 25.01 20.1712 24.9389 20.0899C24.8752 20.0177 24.8029 19.9524 24.7236 19.8972C24.6442 19.8419 24.5583 19.7966 24.4677 19.7623C24.402 19.7372 24.3343 19.7176 24.265 19.7045C24.2409 19.7002 24.2168 19.696 24.1923 19.6931C24.1687 19.6903 24.1446 19.6874 24.121 19.686C24.1105 19.685 24.1 19.6845 24.0895 19.6846C24.0704 19.6836 24.0508 19.6836 24.0317 19.6836H20.8343C20.8183 19.6841 20.8022 19.685 20.7867 19.685C20.7676 19.686 20.749 19.6879 20.7305 19.6893C20.7014 19.6921 20.6723 19.6964 20.6432 19.7007C20.5715 19.7135 20.5002 19.7322 20.4314 19.7578C20.3385 19.7924 20.2503 19.8391 20.169 19.8954C20.0888 19.9516 20.0149 20.0173 19.9507 20.0911C19.8555 20.2004 19.7809 20.3261 19.7304 20.4619C19.7054 20.5298 19.6867 20.5999 19.6746 20.6712C19.6675 20.7093 19.6633 20.7484 19.6601 20.7875C19.6587 20.8146 19.6573 20.8417 19.6573 20.8689V20.8746C19.6573 21.5761 19.6573 22.2771 19.6578 22.9786H20.4165V22.2686H24.4761V22.9786L25.2345 22.9798ZM20.4163 21.5095V20.8757C20.4163 20.8672 20.4163 20.8582 20.4168 20.8497C20.4197 20.7947 20.4333 20.7409 20.4569 20.6911C20.4799 20.6415 20.5131 20.5968 20.5527 20.5591C20.593 20.522 20.6398 20.4926 20.6907 20.4724C20.7163 20.4624 20.7423 20.4549 20.7689 20.4503C20.7906 20.4461 20.8116 20.4432 20.8332 20.4432C20.8361 20.4427 20.8375 20.4427 20.8404 20.4427H21.6129C22.4228 20.4432 23.2327 20.4441 24.0426 20.4422C24.282 20.4417 24.4762 20.6364 24.4757 20.8758C24.4752 21.087 24.4752 21.2983 24.4752 21.5095L20.4163 21.5095ZM33.1988 20.9514H30.9357C30.7691 20.9514 30.6346 21.0864 30.6346 21.2525V21.7121H32.7467C32.8666 21.7116 32.9163 21.7608 32.9163 21.8802V22.0488C32.9163 22.0985 32.9018 22.1342 32.8671 22.1693C32.8319 22.2044 32.7968 22.2195 32.7472 22.2195H29.1633C28.8838 22.2195 28.657 21.9922 28.657 21.7127V20.9515C28.657 20.6715 28.8838 20.4446 29.1633 20.4446H33.4733V19.985C33.4733 19.8189 33.3388 19.6844 33.1727 19.6844H29.1633C28.4638 19.6844 27.8963 20.2515 27.8963 20.9515V21.7127C27.8963 22.4122 28.4638 22.9797 29.1633 22.9797H32.8229C33.2384 22.9797 33.5751 22.643 33.5751 22.2275V21.3278C33.5751 21.2178 33.5425 21.1396 33.4647 21.0619C33.3869 20.984 33.3087 20.9515 33.1988 20.9515M41.713 22.9798V20.8757C41.713 20.794 41.7045 20.7122 41.688 20.6324C41.6684 20.5378 41.6374 20.446 41.5957 20.3589C41.5485 20.2617 41.4886 20.1712 41.4175 20.0899C41.3538 20.0177 41.2816 19.9524 41.2023 19.8972C41.1229 19.8419 41.0369 19.7966 40.9464 19.7623C40.8807 19.7372 40.813 19.7176 40.7436 19.7045C40.7196 19.7002 40.6954 19.696 40.6709 19.6931C40.6473 19.6903 40.6233 19.6874 40.5997 19.686C40.5892 19.685 40.5786 19.6845 40.5681 19.6846C40.549 19.6836 40.5294 19.6836 40.5104 19.6836H37.313C37.2969 19.6841 37.2808 19.685 37.2653 19.685C37.2463 19.686 37.2277 19.6879 37.2092 19.6893C37.18 19.6921 37.151 19.6964 37.1218 19.7007C37.0501 19.7135 36.9788 19.7322 36.9101 19.7578C36.8172 19.7924 36.7289 19.8391 36.6476 19.8954C36.5673 19.9516 36.4936 20.0173 36.4293 20.0911C36.3342 20.2004 36.2595 20.3261 36.2091 20.4619C36.1841 20.5299 36.1653 20.5999 36.1529 20.6712C36.1458 20.7093 36.1415 20.7484 36.1386 20.7875C36.1372 20.8146 36.1358 20.8417 36.1358 20.8689V22.9786H36.8945V22.2686H40.9546V22.9786L41.713 22.9798ZM36.8943 21.5095V20.8757C36.8948 20.8672 36.8948 20.8582 36.8953 20.8497C36.8982 20.7947 36.9118 20.7409 36.9354 20.6911C36.9584 20.6415 36.9916 20.5968 37.0312 20.5591C37.0715 20.522 37.1183 20.4926 37.1692 20.4724C37.1948 20.4624 37.2209 20.4549 37.2475 20.4503C37.2691 20.4461 37.2901 20.4432 37.3117 20.4432C37.3146 20.4427 37.316 20.4427 37.3189 20.4427H38.0914C38.9013 20.4432 39.7112 20.4441 40.5211 20.4422C40.7605 20.4417 40.9547 20.6364 40.9542 20.8758C40.9542 21.087 40.9537 21.2983 40.9537 21.5095L36.8943 21.5095Z" fill="black"/>
</g>
<defs>
<clipPath id="clip0_10704_19393">
<rect width="64" height="42.6667" fill="white"/>
</clipPath>
</defs>
</svg>
