<svg width="64" height="64" viewBox="0 0 64 64" fill="none" xmlns="http://www.w3.org/2000/svg">
<path fill-rule="evenodd" clip-rule="evenodd" d="M26.6155 0.813666C25.3595 1.24543 23.8235 2.00642 23.2021 2.50505C22.581 3.00368 20.9685 3.91114 19.619 4.52153C16.8024 5.7958 16.637 6.32117 18.2866 8.75158C19.9506 11.2033 21.2507 11.7058 22.5598 10.4028C23.4853 9.48201 25.5746 9.59026 26.1102 10.5866C26.6334 11.559 25.6939 12.0089 23.4494 11.8615C20.5858 11.6733 19.901 12.7205 21.4619 14.9019C22.8085 16.7834 23.747 17.1311 25.3083 16.3278C26.9298 15.4935 27.3122 15.7827 26.5243 17.2473C25.5899 18.9849 25.3048 18.9273 18.725 15.6699C9.89072 11.2963 5.46768 11.3482 3.01328 15.8543C2.124 17.4868 3.36816 19.139 5.26 18.8378C6.75408 18.6003 6.94608 18.6792 7.33232 19.6898C7.61008 20.4171 8.0776 20.804 8.67824 20.804C9.18416 20.804 10.293 21.2316 11.1419 21.7541L12.6856 22.7042L9.91248 23.2637C4.37552 24.381 2.97296 25.0633 1.91248 27.1562C0.0206378 30.8886 1.17904 33.2228 4.38512 32.1399C5.72656 31.6868 6.44528 31.6286 6.828 31.9419C7.16368 32.2163 9.86704 32.3529 13.9256 32.3001C20.8773 32.2093 22.1627 32.4672 24.4056 34.4035C25.4571 35.3113 25.4578 35.3141 24.6664 36.6553C19.244 45.8439 18.2354 48.1135 18.0805 51.4714C17.997 53.2844 17.901 54.7679 17.867 54.7682C16.5371 54.7806 10.3646 56.2052 9.66576 56.6608C8.70992 57.284 8.35824 58.5455 8.09104 62.3116L7.99248 63.6996L17.5925 63.775L27.1925 63.8502L27.0446 60.8594L26.8968 57.8682L31.8683 52.312L36.8398 46.7555L40.1227 49.1913C45.3733 53.0867 46.0014 53.4704 47.7032 53.8222C49.6834 54.2317 50.0725 55.0682 48.4494 55.427C44.1208 56.3838 43.4965 57.0655 43.0274 61.3481L42.7483 63.8954L50.8354 63.8785L58.9221 63.8616L60.8706 61.7799C61.9422 60.6349 62.819 59.4456 62.819 59.1371C62.819 58.1835 57.4709 48.1539 54.9602 44.3993C52.0725 40.081 52.0741 40.5879 54.9371 37.7748C59.0453 33.7377 58.9912 32.5312 54.2501 22.4262C50.732 14.9277 50.18 12.9189 51.0606 10.8212C51.7854 9.09514 53.4325 8.69649 53.4325 10.2475C53.4325 14.0429 59.5214 21.3236 60.8744 19.1457C61.1291 18.7356 59.3794 11.6001 58.2923 8.6153C56.7358 4.34067 51.2373 3.58509 48.1608 7.2229L46.9826 8.61625L45.2827 6.96467C44.348 6.05625 43.476 4.88865 43.3451 4.36996C43.1656 3.65832 42.291 3.11353 39.7829 2.15098C33.6626 -0.19728 30.4946 -0.51919 26.6155 0.813666ZM33.6094 1.91759C38.7739 3.22242 41.0478 4.26584 41.3474 5.46815C41.4997 6.08077 42.8581 7.85621 44.3656 9.41355C47.02 12.156 47.1186 12.3372 47.4821 15.1449C48.4098 22.3056 48.4136 22.2982 43.1925 23.59C37.9269 24.893 37.9928 25.3273 44.7394 33.789C51.1282 41.8023 55.8584 48.7981 58.7016 54.439L60.771 58.5445L59.3416 60.2945L57.9125 62.0448L54.7547 61.8025C53.0181 61.6694 50.699 61.5602 49.6018 61.5602C47.627 61.5602 47.6088 61.5474 47.795 60.2843C47.9976 58.9117 48.5026 58.6951 54.9256 57.2276C58.4376 56.4252 58.4059 56.0059 54.3442 49.5536C44.6498 34.1532 37.6667 28.1636 17.539 17.9854C12.8891 15.6343 11.5554 15.1481 9.24848 14.9637C5.36624 14.6536 5.74352 13.8805 9.6808 14.0785C12.7605 14.2333 13.1669 14.3912 22.3739 19.0145C34.0581 24.8818 33.6968 24.8395 35.8254 20.5919C38.6578 14.9392 38.5253 13.821 34.4043 8.60288C31.3218 4.69952 27.8174 4.29068 21.1627 7.05701C19.7422 7.64766 18.8725 7.55595 18.8725 6.81502C18.8725 6.62079 19.6885 6.13968 20.6856 5.74612C21.683 5.35257 22.979 4.59253 23.5656 4.05761C24.7816 2.94827 28.3131 1.58071 30.6229 1.32439C30.8667 1.29733 32.2107 1.56415 33.6094 1.91759ZM25.4226 3.395C24.2616 3.86115 23.7765 4.62628 24.3074 5.15484C24.8635 5.70791 28.259 4.34099 28.259 3.56407C28.259 2.90624 26.8494 2.82218 25.4226 3.395ZM53.2603 29.2787C54.0552 31.1309 53.2658 32.4204 50.4648 33.845C48.2133 34.9903 48.0667 34.9203 44.8386 31.1573C41.5573 27.332 41.6318 26.8295 45.6744 25.5374C48.0232 24.7863 48.9134 24.2842 49.268 23.5101C49.7586 22.4387 51.2501 24.5943 53.2603 29.2787ZM19.917 29.2707C20.6558 30.083 20.5822 30.0976 15.0901 30.226C9.05776 30.367 7.7832 29.4112 13.2302 28.8307C17.9934 28.3235 19.123 28.3977 19.917 29.2707ZM29.2901 35.7968C30.0011 36.3142 29.8133 36.6954 26.7298 40.9974C21.6117 48.1377 20.4526 50.5802 20.7938 53.5057C21.1355 56.4357 20.9067 56.6637 16.9445 57.3384C13.1762 57.98 12.6069 58.2863 12.2597 59.8586C11.9298 61.3545 10.7656 61.5962 10.7656 60.1687C10.7656 58.2233 11.8363 57.4244 15.1358 56.9079C20.1947 56.116 20.1448 56.1603 20.0341 52.5531C19.9304 49.1779 21.9346 44.3305 26.0958 37.892C27.9301 35.054 28.1083 34.9371 29.2901 35.7968Z" fill="black"/>
</svg>
