<svg xmlns="http://www.w3.org/2000/svg" height="800" width="1200" viewBox="-20.57265 -12.42625 178.2963 74.5575"><path fill="#1A3460" clip-rule="evenodd" fill-rule="evenodd" d="M62.051 5.98h13.414v21.709H62.051z"/><path fill="#FFF" clip-rule="evenodd" fill-rule="evenodd" d="M62.722 6.631h12.074v20.408H62.722z"/><path fill="#04213E" clip-rule="evenodd" fill-rule="evenodd" d="M62.974 6.919h11.57v19.833h-11.57z"/><path fill="#FFF" clip-rule="evenodd" fill-rule="evenodd" d="M63.183 7.127h11.151v19.416H63.183z"/><path d="M72.13 17.259h-2.113v5.133l-3.515 3.744V17.26h-2.386l1.362-1.934h1.024c0-.446-.002-.892-.001-1.338.001-.277.004-.556.003-.835 0-.175-.002-.352-.003-.527v-.207c.002-.154.009-.308.023-.461.045-.496.16-.988.353-1.449.091-.217.199-.427.328-.624.194-.295.435-.563.716-.778.275-.21.588-.373.918-.48.256-.083.521-.133.788-.16.451-.046.91-.026 1.351.078.441.104.864.294 1.223.571.25.193.468.43.647.69.156.226.283.47.378.726.102.274.167.563.182.854.013.273-.021.549-.077.818-.07.329-.176.65-.347.938-.141.236-.326.451-.55.612-.129.093-.271.167-.419.223-.127.047-.259.079-.393.099-.235.034-.475.028-.71-.005-.232-.034-.461-.094-.673-.194a1.7478 1.7478 0 01-.223-.126v1.579h3.52z" fill="#04213E" clip-rule="evenodd" fill-rule="evenodd"/><path d="M72.054 17.112h-2.186v5.222l-3.218 3.427v-8.649h-2.249l1.153-1.64h1.095v-2.809c0-.118-.002-.237.001-.355.007-.308.044-.614.107-.915.069-.327.17-.649.31-.953.171-.373.403-.721.699-1.007a2.84 2.84 0 01.579-.431c.234-.132.486-.229.746-.295.328-.084.668-.119 1.007-.116.402.003.804.059 1.181.192.342.119.664.302.938.536.43.367.744.861.916 1.399.063.201.108.409.122.619.006.09.006.18.002.27-.008.184-.033.367-.069.547-.059.288-.147.569-.286.828-.093.173-.208.334-.348.474-.18.179-.4.317-.642.398-.195.065-.404.093-.612.094a2.57 2.57 0 01-.539-.057c-.209-.044-.414-.114-.597-.225a1.5288 1.5288 0 01-.297-.235v2.042h3.377z" fill="#FFF" clip-rule="evenodd" fill-rule="evenodd"/><path d="M71.894 16.798h-2.339v5.412l-2.59 2.758v-8.17h-1.959l.714-1.013h1.246v-3.414c0-.179.002-3.579 3.252-3.465 2.158.075 2.772 1.897 2.729 2.661-.043.765-.354 2.157-1.774 2.063-1.306-.087-1.414-.95-1.414-1.412 0-1.485 1.32-1.145 1.391-1.128-.003-.008-.049-.169-.47-.169-.42 0-1.123.285-1.123 1.638v3.225h3.075z" fill="#1A3460" clip-rule="evenodd" fill-rule="evenodd"/><path fill="#D51F29" clip-rule="evenodd" fill-rule="evenodd" d="M63.548 12.728V7.38h5.051zm10.421 8.215v5.348h-5.051z"/><path d="M69.625 1.088C69.756.532 69.333 0 68.759 0c-.574 0-.998.532-.867 1.088-.775-.645-1.729-.21-1.729.798a.9182.9182 0 00-.375-.045.8497.8497 0 00-.258.064.7053.7053 0 00-.123.069.6583.6583 0 00-.169.18.7258.7258 0 00-.104.281c-.014.101-.005.203.015.302.021.103.057.203.096.3.045.11.096.218.151.323.112.212.243.416.382.612.123.174.252.342.385.507.067.083.136.167.209.245v.256c-.055 0-.071.032-.09.075a.278.278 0 00-.025.12c0 .042.007.081.025.119.019.042.036.074.09.074v.257c1.624-.345 3.148-.345 4.771 0v-.256c.055 0 .071-.032.091-.074.018-.038.024-.077.024-.119 0-.042-.007-.081-.024-.12-.02-.042-.036-.075-.091-.075v-.255c.073-.078.142-.161.209-.245.134-.166.263-.333.386-.507.139-.196.27-.4.382-.612.056-.105.106-.212.151-.323.039-.097.074-.197.096-.3.021-.099.029-.202.016-.302a.72.72 0 00-.104-.281.6729.6729 0 00-.169-.18.6459.6459 0 00-.123-.069.7951.7951 0 00-.258-.064.9182.9182 0 00-.375.045c0-1.013-.949-1.44-1.729-.8z" fill="#04213E" clip-rule="evenodd" fill-rule="evenodd"/><path d="M70.635 1.028c1.442.723-.617 3.303-.726 3.438-.017.021-.032.04-.049.061-.322-.031-.645-.048-.969-.053-.096-.916.024-1.748.382-2.598-.17.06-.336.087-.516.083-.18.003-.346-.023-.515-.083.357.85.477 1.682.381 2.598-.324.004-.646.021-.969.053-.016-.021-.032-.04-.048-.061-.108-.136-2.168-2.716-.727-3.438.329-.115.742.066.961.296.263.275.51.447.916.447s.653-.172.916-.447c.222-.229.635-.411.963-.296z" fill="#FFF" clip-rule="evenodd" fill-rule="evenodd"/><ellipse ry=".146" rx=".231" cy="11.8062" cx="66.7523" fill="#FFF" clip-rule="evenodd" fill-rule="evenodd" transform="rotate(-5.814)"/><path fill="#D51F29" clip-rule="evenodd" fill-rule="evenodd" d="M68.161 4.875l-.278-.171.536-.029z"/><path d="M66.543 4.69c-.187-.194-1.459-1.636-1.234-2.277.154-.439.636-.429.877-.325.263.901.684 1.729 1.285 2.458-.348.037-.585.075-.928.144z" fill="#FFF" clip-rule="evenodd" fill-rule="evenodd"/><path fill="#D51F29" clip-rule="evenodd" fill-rule="evenodd" d="M68.168 5.015l-.257.198.535-.028zm-1.147-.024l-.294-.141.53-.083zm.021.139l-.237.223.53-.08zm1.484-.772c-.281.006-.561.021-.841.047-.014-.018-.028-.036-.042-.055-.093-.123-1.858-2.469-.667-3.067.266-.092.763-.014 1.105.708.459.969.446 2.238.445 2.305v.062zm-1.948.205c-.001 0-.001-.001-.002-.001-.107-.113-.205-.235-.301-.358-.167-.214-.328-.432-.47-.661-.072-.118-.14-.239-.2-.363-.051-.106-.096-.213-.126-.326a.8586.8586 0 01-.032-.208.437.437 0 01.011-.114c.012-.05.036-.099.069-.141.048-.06.114-.106.187-.13.073-.025.153-.029.231-.023.045.004.091.011.134.022.295.797.687 1.513 1.2 2.191-.235.03-.469.068-.701.112z"/><path d="M70.973 4.69c.187-.194 1.459-1.636 1.234-2.277-.154-.439-.637-.429-.877-.325-.264.901-.685 1.729-1.285 2.458.348.037.584.075.928.144z" fill="#FFF" clip-rule="evenodd" fill-rule="evenodd"/><path d="M70.94 4.563c.108-.114.206-.236.302-.359.167-.214.328-.432.47-.661.072-.118.141-.239.2-.363.051-.106.097-.213.126-.326a.8125.8125 0 00.032-.208.3987.3987 0 00-.012-.114.3712.3712 0 00-.069-.141.3929.3929 0 00-.187-.13c-.073-.025-.152-.029-.23-.023a.8638.8638 0 00-.135.022c-.295.797-.687 1.513-1.199 2.191.235.03.469.068.702.112zm-1.948-.205c.28.006.561.021.841.047.014-.018.027-.036.041-.055.093-.123 1.858-2.469.667-3.067-.266-.092-.763-.014-1.105.708-.459.969-.445 2.238-.444 2.305a.641.641 0 000 .062zm1.482.772l.238.223-.53-.08zm.023-.139l.293-.141-.531-.083zm-1.149.024l.258.198-.535-.028zm.008-.14l.277-.171-.535-.029z" fill="#D51F29" clip-rule="evenodd" fill-rule="evenodd"/><ellipse ry=".146" rx=".232" cy="2.1168" cx="-70.0575" fill="#FFF" clip-rule="evenodd" fill-rule="evenodd" transform="rotate(-174.192)"/><path d="M68.759 5.092c.098 0 .287-.032.287-.168s-.189-.167-.288-.167c-.099 0-.288.032-.287.168.001.136.19.167.288.167z" fill="#FFF" clip-rule="evenodd" fill-rule="evenodd"/><circle r=".598" cy=".893" cx="68.758" fill="#FFF" clip-rule="evenodd" fill-rule="evenodd"/><circle r=".115" cy="5.134" cx="66.573" fill="#FFF" clip-rule="evenodd" fill-rule="evenodd"/><circle r=".115" cy="5.134" cx="70.944" fill="#FFF" clip-rule="evenodd" fill-rule="evenodd"/><path d="M127.904 43.974h-2.734l1.941-2.142h2.732zm-49.879 0h-2.732l1.939-2.142h2.734zm52.553 0l2.713-2.996h-8.08l-2.715 2.996h-5.465c.625-.692 1.252-1.383 1.879-2.075.158-.175.369-.288.305-.592-.064-.314-.27-.329-.539-.329h-7.012l-2.715 2.996h-5.881l2.713-2.996h-2.674l-2.713 2.996h-5.467c.477-.527.953-1.053 1.432-1.58.119-.132.238-.263.357-.396.119-.131.258-.241.35-.4.113-.195.096-.33-.061-.493-.15-.158-.316-.127-.498-.127h-4.273l.674-.745h-2.674c-.613.677-1.227 1.354-1.84 2.031-.635.7-1.268 1.259-2.217 1.539-.918.271-1.816.17-2.73.17h-2.748l2.713-2.996H69.883l1.588-1.753c.529-.584 1.008-1.199 1.677-1.659 1.49-1.022 2.973-.835 4.573-.835l1.102-1.216h-3.441c-1.298 0-2.132-.02-3.342.617-1.073.564-1.753 1.451-2.524 2.302-.768.848-1.536 1.696-2.305 2.544h-2.855l-.773.854h2.855l-1.94 2.142h-6.292c.626-.692 1.252-1.383 1.879-2.075.159-.175.371-.288.306-.592-.066-.314-.271-.329-.54-.329h-7.013l-2.713 2.996h-5.883l2.714-2.996h-2.674l-2.713 2.996h-5.466c.626-.692 1.252-1.383 1.879-2.075.159-.175.371-.288.306-.592-.066-.314-.271-.329-.54-.329h-7.013l-2.714 2.996h-5.882l2.714-2.996h-2.674l-2.713 2.996h-5.467c.477-.527.954-1.053 1.431-1.58.12-.132.239-.263.358-.396.119-.131.258-.241.35-.4.112-.195.095-.33-.061-.493-.152-.158-.316-.127-.498-.127h-4.274l.674-.745H9.305l-3.388 3.74H.923L0 44.994h4.993L.725 49.705h2.674l7.132-7.873h2.733c-.634.699-1.268 1.399-1.902 2.099-.083.09-.398.414-.432.553-.059.247.118.49.374.509.473.035.942.001 1.414.001h17.053l2.864-3.162h2.733c-.634.699-1.268 1.399-1.902 2.099-.082.09-.398.414-.432.553-.06.247.118.49.374.509.473.035.943.001 1.414.001h17.053l2.864-3.162h2.733l-2.065 2.279c-.182.202-.402.347-.23.665.17.314.427.218.69.218h7.707l-4.268 4.711h2.674l7.132-7.873h5.449c-.677.746-1.354 1.493-2.029 2.24-.176.193-.412.32-.29.65.124.335.376.271.645.271h10.61c1.01 0 2.02.049 3.029-.009 2.51-.143 3.488-1.552 4.938-3.152h2.732c-.633.699-1.268 1.399-1.902 2.099-.082.09-.396.414-.43.553-.061.247.117.49.373.509.473.035.941.001 1.414.001h17.051l2.865-3.162h2.732c-.73.806-1.461 1.612-2.191 2.418-.201.224-.227.538.066.694.123.066.686.049.807.049h21.246l.924-1.02h-6.573z" fill="#1A3460" clip-rule="evenodd" fill-rule="evenodd"/><path fill="#1A3460" clip-rule="evenodd" fill-rule="evenodd" d="M26.116 39.582h-2.674l1.113-1.228h2.674zm79.368-1.228l-1.113 1.228h2.674l1.113-1.228zm-59.939 1.228h2.674l1.113-1.228h-2.674z"/></svg>