<svg width="64" height="43" viewBox="0 0 64 43" fill="none" xmlns="http://www.w3.org/2000/svg">
<g clip-path="url(#clip0_10704_19399)">
<path fill-rule="evenodd" clip-rule="evenodd" d="M28.9609 12.5254H35.2207V22.6561H28.9609V12.5254Z" fill="#1A3460"/>
<path fill-rule="evenodd" clip-rule="evenodd" d="M29.2695 12.8301H34.904V22.3536H29.2695V12.8301Z" fill="white"/>
<path fill-rule="evenodd" clip-rule="evenodd" d="M29.3867 12.9629H34.7859V22.2181H29.3867V12.9629Z" fill="#04213E"/>
<path fill-rule="evenodd" clip-rule="evenodd" d="M29.4805 13.0605H34.6842V22.1212H29.4805V13.0605Z" fill="white"/>
<path fill-rule="evenodd" clip-rule="evenodd" d="M33.6578 17.7895H32.6717V20.1849L31.0314 21.932V17.79H29.918L30.5536 16.8875H31.0314C31.0314 16.6793 31.0305 16.4712 31.0309 16.2631C31.0314 16.1338 31.0328 16.0036 31.0323 15.8734C31.0323 15.7918 31.0314 15.7092 31.0309 15.6275V15.5309C31.0319 15.459 31.0351 15.3872 31.0417 15.3158C31.0627 15.0843 31.1163 14.8547 31.2064 14.6396C31.2489 14.5383 31.2993 14.4403 31.3595 14.3484C31.45 14.2107 31.5625 14.0857 31.6936 13.9853C31.8219 13.8873 31.968 13.8113 32.122 13.7613C32.2415 13.7226 32.3651 13.6993 32.4897 13.6867C32.7002 13.6652 32.9144 13.6745 33.1202 13.7231C33.326 13.7716 33.5234 13.8603 33.6909 13.9895C33.8076 14.0796 33.9093 14.1902 33.9928 14.3115C34.0656 14.417 34.1249 14.5309 34.1692 14.6503C34.2168 14.7782 34.2471 14.913 34.2541 15.0488C34.2602 15.1762 34.2444 15.305 34.2182 15.4306C34.1856 15.5841 34.1361 15.7339 34.0563 15.8683C33.9905 15.9784 33.9042 16.0788 33.7996 16.1539C33.7394 16.1973 33.6732 16.2318 33.6041 16.258C33.5448 16.2799 33.4832 16.2948 33.4207 16.3042C33.311 16.32 33.199 16.3172 33.0894 16.3018C32.9811 16.286 32.8742 16.258 32.7753 16.2113C32.7392 16.1943 32.7045 16.1746 32.6712 16.1525V16.8893H34.3139L33.6578 17.7895Z" fill="#04213E"/>
<path fill-rule="evenodd" clip-rule="evenodd" d="M33.626 17.7206H32.6059V20.1575L31.1042 21.7567V17.7206H30.0547L30.5927 16.9553H31.1037V15.6445C31.1037 15.5894 31.1028 15.5339 31.1042 15.4788C31.1075 15.3351 31.1247 15.1923 31.1541 15.0518C31.1863 14.8992 31.2335 14.7489 31.2988 14.6071C31.3786 14.433 31.4869 14.2706 31.625 14.1371C31.7061 14.0589 31.7969 13.9913 31.8952 13.936C32.0044 13.8744 32.122 13.8292 32.2433 13.7984C32.3964 13.7592 32.555 13.7428 32.7132 13.7442C32.9008 13.7456 33.0884 13.7718 33.2644 13.8338C33.424 13.8894 33.5742 13.9748 33.7021 14.084C33.9027 14.2552 34.0493 14.4857 34.1295 14.7368C34.1589 14.8306 34.1799 14.9277 34.1865 15.0257C34.1893 15.0677 34.1893 15.1097 34.1874 15.1517C34.1837 15.2375 34.172 15.3229 34.1552 15.4069C34.1277 15.5413 34.0866 15.6725 34.0217 15.7933C33.9783 15.874 33.9247 15.9492 33.8593 16.0145C33.7753 16.098 33.6727 16.1624 33.5598 16.2002C33.4688 16.2306 33.3712 16.2436 33.2742 16.2441C33.1896 16.2441 33.1053 16.2352 33.0226 16.2175C32.9251 16.197 32.8294 16.1643 32.744 16.1125C32.6935 16.0818 32.6469 16.045 32.6054 16.0028V16.9558H34.1813L33.626 17.7206Z" fill="white"/>
<path fill-rule="evenodd" clip-rule="evenodd" d="M33.5503 17.5767H32.4588V20.1023L31.2501 21.3893V17.5767H30.3359L30.6691 17.104H31.2506V15.5109C31.2506 15.4273 31.2515 13.8407 32.7682 13.8939C33.7752 13.9289 34.0617 14.7791 34.0417 15.1357C34.0216 15.4927 33.8765 16.1422 33.2138 16.0984C32.6044 16.0578 32.554 15.6551 32.554 15.4395C32.554 14.7465 33.17 14.9051 33.2031 14.9131C33.2017 14.9093 33.1802 14.8342 32.9838 14.8342C32.7878 14.8342 32.4597 14.9672 32.4597 15.5986V17.1036H33.8947L33.5503 17.5767Z" fill="#1A3460"/>
<path fill-rule="evenodd" clip-rule="evenodd" d="M29.6562 15.6773V13.1816H32.0133L29.6562 15.6773ZM34.5193 19.5109V22.0066H32.1622L34.5193 19.5109Z" fill="#D51F29"/>
<path fill-rule="evenodd" clip-rule="evenodd" d="M32.4895 10.2441C32.5507 9.98459 32.3533 9.73633 32.0854 9.73633C31.8176 9.73633 31.6197 9.98459 31.6808 10.2441C31.3192 9.94306 30.874 10.1461 30.874 10.6164C30.8177 10.5974 30.7581 10.5902 30.699 10.5954C30.6575 10.599 30.6169 10.6091 30.5786 10.6253C30.5584 10.6341 30.5392 10.6449 30.5212 10.6575C30.4898 10.6803 30.4631 10.7088 30.4423 10.7415C30.4172 10.7814 30.4007 10.826 30.3938 10.8726C30.3873 10.9198 30.3915 10.9674 30.4008 11.0136C30.4106 11.0616 30.4274 11.1083 30.4456 11.1536C30.4666 11.2049 30.4904 11.2553 30.5161 11.3043C30.5683 11.4032 30.6294 11.4984 30.6943 11.5899C30.7517 11.6711 30.8119 11.7495 30.874 11.8265C30.9052 11.8652 30.9374 11.9044 30.9715 11.9408V12.0603C30.9458 12.0603 30.9384 12.0752 30.9295 12.0953C30.9215 12.1128 30.9175 12.132 30.9178 12.1513C30.9178 12.1709 30.9211 12.1891 30.9295 12.2068C30.9384 12.2264 30.9463 12.2413 30.9715 12.2413V12.3613C31.7294 12.2003 32.4405 12.2003 33.1979 12.3613V12.2418C33.2236 12.2418 33.2311 12.2269 33.2404 12.2073C33.2488 12.1895 33.2516 12.1713 33.2516 12.1517C33.2516 12.1321 33.2483 12.1139 33.2404 12.0957C33.2311 12.0761 33.2236 12.0607 33.1979 12.0607V11.9418C33.232 11.9054 33.2642 11.8666 33.2955 11.8274C33.358 11.75 33.4182 11.672 33.4756 11.5908C33.5405 11.4994 33.6016 11.4042 33.6539 11.3052C33.68 11.2562 33.7033 11.2063 33.7243 11.1545C33.7425 11.1092 33.7589 11.0626 33.7691 11.0145C33.7789 10.9683 33.7827 10.9202 33.7766 10.8736C33.7698 10.8269 33.7532 10.7823 33.7281 10.7424C33.7072 10.7098 33.6804 10.6813 33.6492 10.6584C33.6313 10.6456 33.612 10.6348 33.5918 10.6262C33.5536 10.6096 33.5129 10.5995 33.4714 10.5964C33.4122 10.5912 33.3526 10.5983 33.2964 10.6174C33.2964 10.1447 32.8535 9.94539 32.4895 10.2441Z" fill="#04213E"/>
<path fill-rule="evenodd" clip-rule="evenodd" d="M32.9673 10.2139C33.6402 10.5513 32.6793 11.7552 32.6285 11.8182C32.6205 11.828 32.6135 11.8369 32.6056 11.8467C32.4553 11.8322 32.3046 11.8243 32.1534 11.822C32.1086 11.3945 32.1646 11.0063 32.3317 10.6096C32.2523 10.6376 32.1749 10.6502 32.0909 10.6483C32.0069 10.6497 31.9294 10.6376 31.8505 10.6096C32.0171 11.0063 32.0731 11.3945 32.0283 11.822C31.8771 11.8238 31.7269 11.8318 31.5762 11.8467C31.5687 11.8369 31.5612 11.828 31.5538 11.8182C31.5034 11.7548 30.542 10.5508 31.2145 10.2139C31.368 10.1602 31.5608 10.2447 31.6629 10.352C31.7857 10.4803 31.9009 10.5606 32.0904 10.5606C32.2799 10.5606 32.3951 10.4803 32.5179 10.352C32.6215 10.2451 32.8142 10.1602 32.9673 10.2139Z" fill="white"/>
<path d="M31.5546 12.1305C31.6139 12.1245 31.6588 12.0892 31.655 12.0518C31.6512 12.0144 31.6001 11.9889 31.5408 11.9949C31.4816 12.001 31.4367 12.0362 31.4405 12.0736C31.4443 12.1111 31.4954 12.1365 31.5546 12.1305Z" fill="white"/>
<path fill-rule="evenodd" clip-rule="evenodd" d="M31.8016 12.0093L31.6719 11.9295L31.922 11.916L31.8016 12.0093Z" fill="#D51F29"/>
<path fill-rule="evenodd" clip-rule="evenodd" d="M31.0492 11.9256C30.9619 11.8351 30.3683 11.1622 30.4733 10.863C30.5452 10.6582 30.7701 10.6628 30.8826 10.7114C31.0053 11.1318 31.2018 11.5182 31.4823 11.8584C31.3199 11.8757 31.2093 11.8934 31.0492 11.9256Z" fill="white"/>
<path fill-rule="evenodd" clip-rule="evenodd" d="M31.8051 12.0783L31.6851 12.1707L31.9348 12.1577L31.8051 12.0783ZM31.2698 12.0671L31.1326 12.0013L31.3799 11.9626L31.2698 12.0671ZM31.2796 12.132L31.169 12.2361L31.4163 12.1987L31.2796 12.132ZM31.9721 11.7717C31.841 11.7745 31.7103 11.7815 31.5797 11.7937C31.5731 11.7853 31.5666 11.7769 31.5601 11.768C31.5167 11.7106 30.693 10.6158 31.2488 10.3368C31.3729 10.2938 31.6049 10.3302 31.7645 10.6672C31.9787 11.1194 31.9726 11.7115 31.9721 11.7428V11.7717ZM31.0631 11.8674C31.0626 11.8674 31.0626 11.8669 31.0621 11.8669C31.0122 11.8142 30.9665 11.7573 30.9217 11.6999C30.8437 11.6 30.7686 11.4983 30.7023 11.3914C30.6687 11.3363 30.637 11.2799 30.609 11.222C30.5852 11.1726 30.5642 11.1226 30.5502 11.0699C30.5413 11.0383 30.5363 11.0057 30.5353 10.9728C30.5347 10.9549 30.5364 10.9371 30.5404 10.9196C30.546 10.8963 30.5572 10.8734 30.5726 10.8538C30.595 10.8258 30.6258 10.8044 30.6599 10.7932C30.6939 10.7815 30.7313 10.7796 30.7677 10.7824C30.7887 10.7843 30.8101 10.7876 30.8302 10.7927C30.9679 11.1646 31.1508 11.4987 31.3902 11.8151C31.2805 11.8291 31.1713 11.8469 31.0631 11.8674Z" fill="#D51F29"/>
<path fill-rule="evenodd" clip-rule="evenodd" d="M33.1206 11.9256C33.2078 11.8351 33.8014 11.1622 33.6964 10.863C33.6245 10.6582 33.3992 10.6628 33.2872 10.7114C33.164 11.1318 32.9675 11.5182 32.6875 11.8584C32.8499 11.8757 32.96 11.8934 33.1206 11.9256Z" fill="white"/>
<path fill-rule="evenodd" clip-rule="evenodd" d="M33.1047 11.8674C33.1551 11.8142 33.2008 11.7573 33.2456 11.6999C33.3236 11.6 33.3987 11.4983 33.465 11.3914C33.4986 11.3363 33.5308 11.2799 33.5583 11.222C33.5821 11.1726 33.6036 11.1226 33.6171 11.0699C33.6263 11.0383 33.6313 11.0057 33.632 10.9728C33.6327 10.9549 33.6309 10.937 33.6264 10.9196C33.6205 10.8956 33.6095 10.8732 33.5942 10.8538C33.5718 10.8254 33.5414 10.8043 33.507 10.7932C33.4729 10.7815 33.436 10.7796 33.3996 10.7824C33.3784 10.7842 33.3573 10.7876 33.3366 10.7927C33.199 11.1646 33.016 11.4987 32.7771 11.8151C32.8868 11.8291 32.996 11.8469 33.1047 11.8674ZM32.1957 11.7717C32.3263 11.7745 32.4575 11.7815 32.5881 11.7937C32.5947 11.7853 32.6007 11.7769 32.6073 11.768C32.6507 11.7106 33.4743 10.6158 32.9185 10.3368C32.7944 10.2938 32.5625 10.3302 32.4029 10.6672C32.1887 11.1194 32.1952 11.7115 32.1957 11.7428C32.1952 11.7524 32.1952 11.7621 32.1957 11.7717ZM32.8872 12.132L32.9983 12.2361L32.751 12.1987L32.8872 12.132ZM32.898 12.0671L33.0347 12.0013L32.7869 11.9626L32.898 12.0671ZM32.3618 12.0783L32.4822 12.1707L32.2325 12.1577L32.3618 12.0783ZM32.3655 12.013L32.4948 11.9332L32.2451 11.9197L32.3655 12.013Z" fill="#D51F29"/>
<path d="M32.6326 11.9941C32.5732 11.9881 32.5218 12.0135 32.518 12.0509C32.5142 12.0884 32.5594 12.1236 32.6189 12.1297C32.6783 12.1357 32.7296 12.1103 32.7335 12.0728C32.7373 12.0354 32.6921 12.0002 32.6326 11.9941Z" fill="white"/>
<path fill-rule="evenodd" clip-rule="evenodd" d="M32.0875 12.1134C32.1333 12.1134 32.2215 12.0984 32.2215 12.035C32.2215 11.9715 32.1333 11.957 32.0871 11.957C32.0409 11.957 31.9527 11.972 31.9531 12.0354C31.9536 12.0989 32.0418 12.1134 32.0875 12.1134Z" fill="white"/>
<path d="M32.0837 10.4312C32.2379 10.4312 32.3628 10.3062 32.3628 10.1521C32.3628 9.99799 32.2379 9.87305 32.0837 9.87305C31.9296 9.87305 31.8047 9.99799 31.8047 10.1521C31.8047 10.3062 31.9296 10.4312 32.0837 10.4312Z" fill="white"/>
<path d="M31.0696 12.1861C31.0994 12.1861 31.1236 12.1619 31.1236 12.1321C31.1236 12.1023 31.0994 12.0781 31.0696 12.0781C31.0398 12.0781 31.0156 12.1023 31.0156 12.1321C31.0156 12.1619 31.0398 12.1861 31.0696 12.1861Z" fill="white"/>
<path d="M33.1048 12.1861C33.1346 12.1861 33.1588 12.1619 33.1588 12.1321C33.1588 12.1023 33.1346 12.0781 33.1048 12.0781C33.075 12.0781 33.0508 12.1023 33.0508 12.1321C33.0508 12.1619 33.075 12.1861 33.1048 12.1861Z" fill="white"/>
<path fill-rule="evenodd" clip-rule="evenodd" d="M59.6834 30.2565H58.4076L59.3134 29.257H60.5883L59.6834 30.2565ZM36.407 30.2565H35.1321L36.037 29.257H37.3128L36.407 30.2565ZM60.9313 30.2565L62.1973 28.8584H58.4267L57.1598 30.2565H54.6095C54.9011 29.9336 55.1937 29.6112 55.4863 29.2882C55.5601 29.2066 55.6585 29.1538 55.6287 29.012C55.5988 28.8654 55.5027 28.8584 55.3771 28.8584H52.1049L50.8379 30.2565H48.0935L49.3596 28.8584H48.1117L46.8457 30.2565H44.2945C44.5171 30.0106 44.7392 29.7652 44.9627 29.5192C45.0183 29.4576 45.0738 29.3965 45.1293 29.3344C45.1849 29.2733 45.2497 29.222 45.2927 29.1478C45.3454 29.0568 45.3375 28.9938 45.2642 28.9177C45.1942 28.844 45.1167 28.8584 45.0318 28.8584H43.0378L43.3523 28.5108H42.1045C41.8184 28.8267 41.5319 29.1426 41.2458 29.4586C40.9495 29.7852 40.6541 30.0461 40.2112 30.1768C39.7828 30.3032 39.3638 30.2561 38.9373 30.2561H37.6549L38.9209 28.858H32.6075L33.3486 28.0399C33.5954 27.7674 33.819 27.4804 34.1311 27.2657C34.8265 26.7888 35.5185 26.8761 36.2652 26.8761L36.7794 26.3086H35.1737C34.5679 26.3086 34.1787 26.2993 33.6141 26.5966C33.1134 26.8597 32.796 27.2737 32.4362 27.6708C32.0779 28.0665 31.7195 28.4623 31.3606 28.858H30.0283L29.6676 29.2565H30.9999L30.0946 30.2561H27.1584C27.4505 29.9332 27.7426 29.6107 28.0352 29.2878C28.1094 29.2061 28.2083 29.1534 28.178 29.0115C28.1472 28.865 28.0515 28.858 27.926 28.858H24.6533L23.3873 30.2561H20.6419L21.9085 28.858H20.6606L19.3946 30.2561H16.8438C17.136 29.9332 17.4281 29.6107 17.7207 29.2878C17.7949 29.2061 17.8938 29.1534 17.8635 29.0115C17.8327 28.865 17.737 28.858 17.6115 28.858H14.3388L13.0723 30.2561H10.3274L11.5939 28.858H10.3461L9.08005 30.2561H6.52883C6.75143 30.0102 6.97402 29.7647 7.19662 29.5188C7.25262 29.4572 7.30815 29.396 7.36368 29.334C7.41921 29.2728 7.48408 29.2215 7.52701 29.1473C7.57928 29.0563 7.57134 28.9933 7.49854 28.9172C7.42761 28.8435 7.35108 28.858 7.26615 28.858H5.27166L5.58618 28.5103H4.33834L2.75731 30.2556H0.426818L-0.00390625 30.7325H2.32611L0.33442 32.931H1.58226L4.91046 29.257H6.18584C5.88998 29.5832 5.59412 29.9098 5.29825 30.2365C5.25952 30.2785 5.11253 30.4297 5.09666 30.4945C5.06913 30.6098 5.15172 30.7232 5.27119 30.7321C5.49192 30.7484 5.71078 30.7325 5.93104 30.7325H13.889L15.2255 29.257H16.5008C16.205 29.5832 15.9091 29.9098 15.6132 30.2365C15.575 30.2785 15.4275 30.4297 15.4117 30.4945C15.3837 30.6098 15.4667 30.7232 15.5862 30.7321C15.8069 30.7484 16.0262 30.7325 16.246 30.7325H24.2039L25.5405 29.257H26.8158L25.8522 30.3205C25.7672 30.4147 25.6646 30.4824 25.7448 30.6308C25.8242 30.7773 25.9441 30.7325 26.0668 30.7325H29.6634L27.6717 32.931H28.9195L32.2477 29.257H34.7905C34.4746 29.6051 34.1587 29.9537 33.8437 30.3023C33.7616 30.3923 33.6514 30.4516 33.7084 30.6056C33.7662 30.7619 33.8838 30.7321 34.0093 30.7321H38.9606C39.4319 30.7321 39.9032 30.7549 40.3741 30.7279C41.5454 30.6611 42.0018 30.0036 42.6784 29.257H43.9534C43.658 29.5832 43.3616 29.9098 43.0658 30.2365C43.0275 30.2785 42.881 30.4297 42.8651 30.4945C42.8366 30.6098 42.9197 30.7232 43.0392 30.7321C43.2599 30.7484 43.4783 30.7325 43.699 30.7325H51.656L52.993 29.257H54.2679C53.9272 29.6331 53.5861 30.0092 53.2454 30.3853C53.1516 30.4899 53.1395 30.6364 53.2762 30.7092C53.3336 30.74 53.5964 30.7321 53.6528 30.7321H63.5674L63.9986 30.2561H60.9313V30.2565Z" fill="#1A3460"/>
<path fill-rule="evenodd" clip-rule="evenodd" d="M12.1892 28.2078H10.9414L11.4608 27.6348H12.7086L12.1892 28.2078ZM49.2269 27.6348L48.7075 28.2078H49.9554L50.4748 27.6348H49.2269ZM21.2559 28.2078H22.5038L23.0232 27.6348H21.7753L21.2559 28.2078Z" fill="#1A3460"/>
</g>
<defs>
<clipPath id="clip0_10704_19399">
<rect width="64" height="42.6667" fill="white"/>
</clipPath>
</defs>
</svg>
