<svg width="64" height="64" viewBox="0 0 64 64" fill="none" xmlns="http://www.w3.org/2000/svg">
<path fill-rule="evenodd" clip-rule="evenodd" d="M0 31.9999C0 14.3268 14.3268 0 31.9998 0C49.6731 0 64 14.3268 64 31.9999C64 49.6734 49.6731 64 31.9998 64C14.3268 64 0 49.6734 0 31.9999Z" fill="black"/>
<path fill-rule="evenodd" clip-rule="evenodd" d="M7.16073 40.6124L6.82275 39.562H8.74372C7.97086 37.1822 7.55284 34.642 7.55284 32.0039C7.55284 18.5014 18.4993 7.55514 32.0016 7.55514C45.504 7.55514 56.4505 18.5014 56.4505 32.0039C56.4505 45.5064 45.504 56.4526 32.0016 56.4526C22.3035 56.4526 13.9238 50.8055 9.97187 42.6201C9.46668 42.4566 9.18994 42.5488 8.63646 42.518C8.08314 42.4872 7.62202 41.9035 7.49904 41.5345L9.48288 41.5407L9.1099 40.6076L7.16073 40.6124ZM6.61503 24.1621L5.14433 23.5377L6.54358 20.3813C6.67952 20.0502 6.11924 19.8049 5.99755 20.0948L4.58388 23.2924L4.02344 23.0469L5.65131 19.3519C5.80442 18.9993 6.17918 18.8551 6.78305 19.1343C7.38692 19.4138 7.5146 19.6533 7.36634 20.0447L6.08845 22.9115L6.97716 23.2736L6.61503 24.1621ZM58.5171 19.5948L57.6579 19.9777L58.6924 22.5237L59.5673 22.1635L59.9241 23.0579L57.3374 24.1451L56.9808 23.2511L58.1321 22.7812L57.0854 20.1933L55.9496 20.6859L55.5964 19.7724L58.1953 18.7268L58.5171 19.5948ZM55.7429 14.45L52.6049 10.9875L52.0231 11.4661L53.3169 12.8218L51.7036 14.3547L52.3575 15.0647L53.9901 13.5331L55.1816 14.9106L55.7429 14.45ZM45.3587 5.64162L44.3558 7.16255C44.1488 7.45436 43.906 8.18558 44.5456 8.625L47.6572 10.7159L49.2609 8.22722L48.4722 7.71328L47.2605 9.54546L45.4322 8.29495C45.1385 8.10732 45.0507 7.82346 45.2385 7.53003L46.1665 6.15767L45.3587 5.64162ZM23.9423 3.65777L24.4101 6.38629L25.3847 6.23042L24.9754 4.08649L26.0864 3.91118C26.3594 3.85269 26.6321 4.0084 26.6712 4.24236L26.9439 5.97701L27.8988 5.82098L27.5285 3.67738L28.581 3.5019C28.8733 3.42397 29.1656 3.59912 29.2048 3.85269L29.4969 5.58734L30.4324 5.41186L30.1013 3.40436C30.0428 3.07302 29.4775 2.72224 29.0098 2.80001L27.2559 3.09247C27.0803 3.11191 27.022 3.22889 26.9829 3.30683C26.827 3.19017 26.6321 3.1704 26.4761 3.20945L23.9423 3.65777Z" fill="white"/>
<path fill-rule="evenodd" clip-rule="evenodd" d="M8.57812 14.232L9.2097 13.4844L10.857 14.9713L13.3606 12.2172L13.8783 12.7183L10.7225 16.2019L8.57812 14.232ZM17.014 8.64111L17.7909 9.72182L18.6127 9.12103L17.8375 8.06057L18.6059 7.53642C18.859 7.33356 19.1794 6.65305 18.9426 6.26646L18.3666 5.44499L17.5645 6.01937L17.9511 6.52748C18.0644 6.67217 18.0937 7.13945 17.9317 7.2741L16.4513 8.29211C16.235 8.47147 15.8547 8.39418 15.7158 8.19295L15.2997 7.59005L14.5172 8.162L15.1107 8.96208C15.3568 9.24984 15.9932 9.3396 16.3971 9.0815L17.014 8.64111ZM36.2242 5.79983C35.7331 5.69775 34.8735 5.67701 35.2008 3.97866C35.3849 2.97572 35.9583 2.77124 37.0019 2.9553L38.9663 3.30317C39.8258 3.46682 40.3991 3.71245 40.1944 4.89961C39.9895 6.08629 39.3963 6.37291 38.5368 6.2091L36.2242 5.79983Z" fill="white"/>
<path fill-rule="evenodd" clip-rule="evenodd" d="M36.3862 5.18239C35.9565 5.10056 35.8951 4.77311 35.9974 4.09795C36.0845 3.52227 36.4478 3.46329 36.7955 3.54528L38.9035 3.93414C39.2512 4.01612 39.4966 4.28201 39.3944 4.79369C39.2923 5.30536 39.0261 5.69422 38.4942 5.57141L36.3862 5.18239ZM49.1203 47.6106C49.5736 47.1197 49.9137 46.7331 50.324 46.2046C45.2177 45.4649 37.5011 44.85 35.3797 49.7997C33.5968 48.4776 29.2312 48.3856 28.0936 49.2463C27.0484 48.3856 23.39 47.8013 21.3608 49.4618C19.6393 47.6783 16.5956 44.1123 11.418 42.6884C13.4652 46.6221 16.6072 49.8947 20.4399 52.1033C21.3608 50.4759 25.0808 48.9389 27.94 50.9681C29.2006 50.1379 33.1355 49.5232 36.179 52.1671C36.2714 50.1069 38.6385 45.6799 49.1203 47.6106C38.6385 45.6799 49.1203 47.6106 49.1203 47.6106Z" fill="black"/>
<path fill-rule="evenodd" clip-rule="evenodd" d="M27.9751 51.8284C31.4797 50.2603 34.8309 51.9207 36.5524 53.5807C36.6237 52.8921 37.1981 46.6941 48.2738 48.5161C44.0879 52.6398 38.3424 55.1846 32.0024 55.1846C28.1084 55.1846 24.5923 54.2555 21.3703 52.5591C21.9798 51.3979 25.6076 50.0453 27.9751 51.8286C27.9751 51.8286 25.6076 50.0453 27.9751 51.8286V51.8284ZM36.6752 9.28351C35.1374 8.96951 33.5718 8.81171 32.0022 8.8125C19.1974 8.8125 8.81641 19.1935 8.81641 31.9984C8.81641 34.0895 9.09347 36.1164 9.61228 38.0432C10.3587 30.5842 14.7859 25.0504 17.1225 22.4677C19.8085 19.4991 28.1894 12.455 36.6752 9.28367C36.6752 9.28367 28.1894 12.455 36.6752 9.28367V9.28351ZM33.7241 39.5617C32.7403 36.3643 31.6335 27.5099 45.5297 14.5976L36.3064 39.5617H33.7241ZM38.0281 39.5617C38.4585 37.5325 43.9923 36.8561 54.0147 39.0697L53.9533 39.5617H38.0281ZM10.9122 39.5617C11.4655 37.2869 15.2777 36.7331 18.598 36.8561C21.9183 36.9791 28.0057 37.9013 32.2482 39.5619L10.9122 39.5617ZM10.4201 40.6071L10.7277 41.5294H53.1538L53.5229 40.6071H10.4201Z" fill="black"/>
<path d="M49.6317 45.3337C50.5264 45.3337 51.2517 44.6084 51.2517 43.7137C51.2517 42.819 50.5264 42.0938 49.6317 42.0938C48.737 42.0938 48.0117 42.819 48.0117 43.7137C48.0117 44.6084 48.737 45.3337 49.6317 45.3337Z" fill="black"/>
<path d="M49.6352 45.0633C50.3808 45.0633 50.9853 44.4589 50.9853 43.7133C50.9853 42.9677 50.3808 42.3633 49.6352 42.3633C48.8896 42.3633 48.2852 42.9677 48.2852 43.7133C48.2852 44.4589 48.8896 45.0633 49.6352 45.0633Z" fill="white"/>
<path d="M48.9297 43.7384V42.8672L49.3137 42.8688C49.6961 42.8704 49.7243 42.8711 49.8208 42.8831C49.9676 42.9014 50.0558 42.9396 50.1348 43.0193C50.1749 43.0597 50.2019 43.0982 50.2261 43.1493C50.2586 43.2186 50.2703 43.2692 50.2701 43.3421C50.2709 43.4635 50.224 43.5803 50.1395 43.6674C50.0498 43.7625 49.9487 43.81 49.7957 43.829L49.7755 43.8316L49.8147 43.851C49.8829 43.885 49.9119 43.909 49.9791 43.9868C50.0431 44.0608 50.1058 44.1508 50.2097 44.3175C50.2685 44.4117 50.3272 44.506 50.386 44.6002L50.3921 44.6096H50.0483L50.0251 44.5681C50.0036 44.5296 49.982 44.4911 49.9603 44.4526C49.8388 44.2366 49.8202 44.205 49.7693 44.1286C49.6889 44.0078 49.6219 43.9366 49.5593 43.905C49.5054 43.8777 49.4535 43.8705 49.3137 43.8703H49.21V44.6096H48.9297V43.7384Z" fill="black"/>
<path d="M49.6902 43.621C49.7647 43.611 49.8035 43.6008 49.8488 43.5791C49.868 43.5698 49.8804 43.5606 49.9012 43.5397C49.9498 43.4906 49.97 43.4438 49.9729 43.3738C49.9753 43.3506 49.9735 43.3271 49.9676 43.3046C49.9599 43.2706 49.9446 43.2387 49.9229 43.2114C49.9011 43.1841 49.8736 43.162 49.8422 43.1468C49.802 43.1267 49.7709 43.1178 49.7122 43.11C49.6797 43.1058 49.6264 43.1043 49.4413 43.1032L49.2109 43.1016V43.6293L49.4313 43.6277C49.6037 43.6265 49.6597 43.6251 49.6902 43.621Z" fill="white"/>
</svg>
