<svg width="64" height="64" viewBox="0 0 64 64" fill="none" xmlns="http://www.w3.org/2000/svg">
<path d="M32.0931 7.55353L15.0273 0C15.0273 0 32.1101 63.5816 32.0249 63.93L49.1758 0.0733352L32.0931 7.55353ZM17.1243 2.34673L32.1442 8.91023L47.1641 2.42006L32.076 57.7698C32.1442 57.4765 17.1243 2.34673 17.1243 2.34673Z" fill="black"/>
<path d="M32.1439 10.4126L18.7266 4.61914C18.7266 4.61914 32.1439 53.3137 32.0757 53.5704L45.5612 4.67414L32.1439 10.4126ZM32.0245 23.2463L30.8823 18.8828L24.6424 17.7645L31.0016 16.7928L31.9222 12.7777L33.0474 16.8661L39.6282 17.8011L32.9281 18.7912L32.0245 23.2463Z" fill="black"/>
</svg>
