<svg width="64" height="64" viewBox="0 0 64 64" fill="none" xmlns="http://www.w3.org/2000/svg">
<g clip-path="url(#clip0_10704_19440)">
<path fill-rule="evenodd" clip-rule="evenodd" d="M46.1576 54.4349C42.4034 57.8556 39.1711 59.6989 32.3628 63.2708C26.0247 60.3885 21.8882 57.5472 18.3007 54.7476C13.3433 50.8884 9.78203 44.6213 9.47338 40.7779L7 4.19427C23.7552 -0.161007 41.577 -0.0617969 56.9932 4.48708L54.4837 40.6997C54.1644 43.9788 51.2308 50.3558 46.1576 54.4349Z" fill="#EDC95E" stroke="black" stroke-width="0.340692" stroke-miterlimit="2.613"/>
<path fill-rule="evenodd" clip-rule="evenodd" d="M51.6118 39.4989L53.8764 7.16108C40.6091 2.93567 24.7168 2.87332 10.0742 6.71704L12.3857 39.4779C12.6261 42.8824 15.0788 48.0893 19.7803 52.0791C22.6096 54.4818 28.1526 58.514 32.2468 60.0593C36.9638 57.6728 41.2526 54.7057 44.6516 51.777C48.867 47.9381 51.3562 43.1642 51.6118 39.4989Z" fill="#EDC95E" stroke="black" stroke-width="0.340692" stroke-miterlimit="2.613"/>
<path fill-rule="evenodd" clip-rule="evenodd" d="M44.1028 50.9238C40.8443 53.7334 36.457 56.8823 32.2416 58.8934C28.4768 57.7287 22.9123 53.4355 20.235 51.1271C15.5652 47.0956 13.6668 42.8757 13.3795 38.8859L11.1094 7.61388C25.0512 3.95272 40.2687 3.95272 52.9136 7.97972L50.6703 38.8342C50.3465 42.9381 48.4377 46.8607 44.1028 50.9238Z" fill="#EDC95E" stroke="black" stroke-width="0.340692" stroke-miterlimit="2.613"/>
<path d="M12.1562 8.22132L12.6058 13.6111M12.6058 13.6111C25.9148 10.2848 39.8564 10.6186 51.4296 14.1182M51.4296 14.1182L51.926 8.63436M51.926 8.63436C39.9349 4.95805 25.3764 4.75928 12.1562 8.22167" stroke="black" stroke-width="0.340692" stroke-miterlimit="2.613"/>
<path fill-rule="evenodd" clip-rule="evenodd" d="M45.2526 10.2229L42.2511 9.72724L42.1354 11.1369L41.1581 10.9911L41.3882 7.25145L42.3872 7.39751L42.2821 8.834L45.326 9.32488L45.4248 7.8884L46.4449 8.08199L46.1362 11.8317L45.1431 11.6488L45.2526 10.2229ZM30.7658 8.95457C30.3999 8.95457 30.1071 8.85536 29.9135 8.53154C29.7464 8.26526 29.7464 7.3982 29.9135 7.1109C30.0964 6.77675 30.4258 6.68271 30.6979 6.68271L34.9543 6.68822L34.9653 7.60695L30.9387 7.60179C30.7399 7.60179 30.7348 8.04582 30.9542 8.04582H34.1283C34.4996 8.04582 34.8293 8.27077 34.9337 8.56255C35.0487 8.87637 35.0277 9.58669 34.9337 9.87881C34.8448 10.1716 34.5099 10.3328 34.0914 10.3328H29.8925L29.887 9.39309H33.626C33.6812 9.38872 33.7327 9.3637 33.7703 9.32303C33.8079 9.28236 33.8287 9.22903 33.8287 9.17366C33.8287 9.11829 33.8079 9.06495 33.7703 9.02429C33.7327 8.98362 33.6812 8.9586 33.626 8.95422H30.7658V8.95457ZM28.3034 9.32798C28.3024 9.2812 28.2922 9.23507 28.2732 9.19229C28.2542 9.14952 28.2269 9.11096 28.1928 9.07886C28.1587 9.04676 28.1186 9.02177 28.0748 9.00533C28.031 8.9889 27.9843 8.98136 27.9376 8.98316L25.1135 9.18709L25.171 10.5864L24.2561 10.6804L24.0625 6.98827L28.2672 6.67479C28.8112 6.63345 29.1302 7.04028 29.156 7.37994C29.1874 7.78195 29.2032 8.29902 28.8894 8.51329C29.1508 8.70654 29.219 8.99384 29.2242 9.39585L29.2349 10.3408L28.3196 10.3776L28.3034 9.32798Z" fill="black"/>
<path fill-rule="evenodd" clip-rule="evenodd" d="M27.7036 8.12976C28.0643 8.10875 28.0329 7.55 27.7036 7.58135L25.0156 7.78494L25.047 8.29649L27.7036 8.12976Z" fill="#EDC95E"/>
<path fill-rule="evenodd" clip-rule="evenodd" d="M18.8953 7.63853C19.7582 7.43494 21.5258 7.15316 22.4514 7.08495C22.8748 7.05394 23.2044 7.27304 23.262 7.60236C23.398 8.35953 23.4817 9.14254 23.3873 10.1929C23.3612 10.4957 23.0997 10.7358 22.7545 10.8091C21.5674 11.0703 20.234 11.2111 19.2453 11.3052C18.9942 11.3314 18.597 11.133 18.5291 10.8195C18.3565 10.0568 18.2935 8.99131 18.3462 8.25998C18.3672 7.98887 18.6183 7.70157 18.8953 7.63853Z" fill="black"/>
<path fill-rule="evenodd" clip-rule="evenodd" d="M22.2538 9.88892C22.3741 9.8624 22.4264 9.73218 22.4371 9.63814C22.4788 9.35084 22.4423 8.59849 22.3741 8.34806C22.3534 8.24884 22.2697 8.18581 22.0816 8.20165C21.569 8.23334 20.2145 8.42625 19.5452 8.57231C19.3674 8.61434 19.2992 8.71872 19.2889 8.81276C19.2572 9.05803 19.3306 9.73184 19.3933 10.1077C19.4091 10.1969 19.5242 10.2592 19.6127 10.2541C20.5176 10.1814 21.5848 10.0353 22.2538 9.88892Z" fill="#EDC95E"/>
<path fill-rule="evenodd" clip-rule="evenodd" d="M37.0892 7.79594C36.8908 7.79078 36.7547 7.911 36.7392 8.01538C36.6921 8.32369 36.6759 8.72019 36.6759 9.23725C36.6759 9.30512 36.7909 9.4932 36.8905 9.50871C37.7899 9.63444 39.5368 9.79118 40.4886 9.85353L40.4307 10.8195C39.1813 10.7623 37.874 10.5635 36.5195 10.4698C36.0747 10.4381 35.7506 10.1984 35.7344 9.77017C35.7082 9.06501 35.7506 7.99953 35.8763 7.37809C35.9597 6.99709 36.3259 6.79832 36.7389 6.809C37.9883 6.8562 38.9822 6.96609 40.6191 7.18518L40.5564 8.14628C39.7624 8.07842 38.256 7.84314 37.0892 7.79594ZM16.626 8.07635C17.8916 7.77872 18.0849 10.0244 17.0283 10.2855L14.0789 11.022L14.2201 12.4737L13.2945 12.7189L12.9648 8.9379L16.626 8.07635Z" fill="black"/>
<path fill-rule="evenodd" clip-rule="evenodd" d="M16.6038 9.5452C16.9069 9.47699 16.8652 8.93409 16.5407 9.00195L13.8789 9.64441L13.9416 10.2032L16.6038 9.5452Z" fill="#EDC95E"/>
<path fill-rule="evenodd" clip-rule="evenodd" d="M47.9016 10.7835L47.8389 11.3895L50.7622 12.126L50.6836 12.9717L46.7617 12.0478L47.1014 8.24023L51.0495 9.19583L50.961 10.0836L48.0218 9.37358L47.964 10.016L50.8821 10.7264L50.8087 11.4784L47.9016 10.7835Z" fill="black"/>
<path d="M24.164 27.3703V24.2004L24.1674 22.8638L24.1692 22.2161L31.6837 22.2106L31.6789 11.9434M31.6789 11.9434C25.832 11.9434 19.4263 12.4966 12.6328 14.393M12.6328 14.393L14.0342 33.6791H24.1636V27.3703" stroke="black" stroke-width="0.340692" stroke-miterlimit="2.613"/>
<path fill-rule="evenodd" clip-rule="evenodd" d="M24.1534 23.8941C24.1534 23.8262 23.3218 23.7632 22.9084 23.8152C21.8102 23.9457 19.0647 24.8076 17.9038 25.6068C17.878 25.6747 17.8828 26.0557 17.8046 26.2334C17.7367 26.395 17.5641 26.5624 17.3967 26.6354C17.0984 26.7657 16.7532 26.3692 16.6017 26.4267C16.4446 26.4839 16.1101 26.6199 15.7491 26.364C15.5872 26.2493 15.5038 25.9255 15.561 25.685C15.6133 25.5124 15.7597 25.3767 15.8751 25.2672C15.9799 25.1628 15.9061 24.7608 16.2827 24.5203C16.5441 24.3536 16.9051 24.4897 17.1825 24.6354C17.2451 24.6144 17.2872 24.5885 17.334 24.5468C17.3702 24.4366 17.4281 24.1025 17.4804 23.8413C17.5435 23.5592 17.5645 23.3763 17.6478 23.1155C17.8569 22.4837 18.3589 21.575 18.8821 21.0996C19.2952 20.7341 19.9383 20.4417 20.414 20.473C20.3668 20.5457 19.7761 21.0734 19.6031 21.3087C19.1953 21.8513 18.8191 22.687 18.6413 23.3973C18.5783 23.6374 18.5783 23.7266 18.6203 23.883C19.0072 23.7104 19.5091 23.5437 19.8022 23.4493C19.9173 23.1937 19.98 22.9009 20.0795 22.6663C20.2363 22.3005 20.3362 22.1437 20.4977 21.8881C20.9631 21.1675 21.9463 20.4572 22.6731 20.473C22.4324 20.6818 21.9304 21.204 21.732 21.5171C21.5701 21.7782 21.4182 22.0604 21.3031 22.3528C21.2039 22.614 21.1726 22.8072 21.1464 23.0211C21.5229 22.9119 21.8943 22.8334 22.1347 22.8176C22.297 22.7287 22.349 22.5564 22.4382 22.3945C22.7152 21.8775 23.2588 21.2977 23.6043 21.11C23.8812 20.9584 24.2891 20.812 24.5819 20.9064C24.2681 21.1413 23.9388 21.5168 23.7924 21.7417C23.6408 21.9818 23.3948 22.4469 23.4052 22.6663C23.6618 22.687 23.9956 22.6736 24.1424 22.637L24.1534 23.8941L24.1568 22.5571L24.1534 23.8941Z" fill="black"/>
<path fill-rule="evenodd" clip-rule="evenodd" d="M20.8211 15.4374C21.2187 14.8842 22.2642 14.0488 23.0699 14.0956C22.6307 14.4766 22.2435 14.8997 21.9717 15.3489C21.6159 15.9283 21.3282 16.6548 21.2659 17.2132C21.5322 17.114 22.1598 16.9366 22.5208 16.858C22.8398 16.1636 23.2583 15.3957 23.7761 14.983C24.1471 14.6854 24.6804 14.4294 25.1775 14.487C25.0624 14.6489 24.874 14.7743 24.7327 14.9052C24.4761 15.1294 24.2987 15.4326 24.1574 15.7405C24.0527 15.9703 23.875 16.6596 23.8698 16.6913C24.2305 16.6861 24.8688 16.7275 25.0045 16.7695C25.4282 16.2159 26.3539 15.4119 27.4627 15.5945C26.9815 15.8556 26.1031 16.6179 26.1554 17.0358C26.8768 17.5008 27.954 18.4771 28.0012 19.3803C27.5096 18.8688 26.699 18.362 26.2912 18.2212C25.3132 17.8763 24.1471 17.8295 23.1743 18.0069C21.1453 18.3882 19.3516 19.2656 17.6312 20.2946C17.5896 20.5715 17.4376 20.9891 17.3122 21.13C17.1869 21.2708 16.9984 21.4069 16.7948 21.4386C16.5385 21.4799 16.2771 21.3759 16.0573 21.2609C15.9161 21.1823 15.5447 21.2819 15.3098 21.1558C15.1475 21.0724 14.8964 20.8375 14.9646 20.4668C15.0221 20.1378 15.3515 19.9394 15.3983 19.6259C15.4665 19.1668 15.8007 18.9676 15.9736 18.937C16.1617 18.9001 16.3553 18.9632 16.5279 19.041C16.6009 19.0775 16.6791 19.1406 16.7476 19.1616C16.8155 19.1406 16.9147 19.0569 16.9726 19.031C16.9881 18.9783 17.1607 18.0231 17.2547 17.6052C17.3488 17.1874 17.511 16.8319 17.6471 16.4409C18.055 15.2817 19.3154 14.1115 20.3247 14.1742C20.2724 14.2476 19.9479 14.4825 19.4983 15.0044C18.7715 15.8559 18.5882 16.7595 18.3164 18.3104C18.8759 18.0493 19.3623 17.8615 19.8693 17.6782C19.9899 17.198 20.1518 16.7278 20.3506 16.2735C20.4815 15.981 20.6382 15.6933 20.8211 15.4374Z" fill="black"/>
<path fill-rule="evenodd" clip-rule="evenodd" d="M51.2996 16.7207L32.6094 16.7369L32.6249 22.2307L50.881 22.2204L51.2996 16.7207Z" fill="#CA3132"/>
<path fill-rule="evenodd" clip-rule="evenodd" d="M36.9034 41.2943C36.7728 41.821 36.7098 42.709 36.7205 42.7307C37.0394 42.5995 37.3374 42.4844 37.5992 42.4066C37.6196 42.3749 37.9916 41.5657 38.159 41.3463C38.5507 40.7407 39.0788 40.2233 39.7219 39.8788C40.125 39.6748 40.6162 39.4871 41.0506 39.6494C40.4801 39.9205 40.0361 40.4117 39.7688 40.6935C39.5232 40.9546 39.2352 41.3408 39.1046 41.7376C39.0836 41.8055 39.0629 41.9467 39.0629 41.9467C39.3292 41.8633 40.1818 41.7376 40.5377 41.6904C40.5793 41.6849 40.6889 41.4503 40.7726 41.3352C40.8777 41.1947 40.94 41.1058 41.1078 40.9181C41.537 40.453 42.2635 39.9566 42.9694 40.0662C42.5825 40.3118 42.1584 40.7035 41.8188 41.3197C41.7716 41.4138 41.7092 41.5444 41.7354 41.6015C41.8398 41.6229 42.3579 41.6122 42.6714 41.6494C43.0321 41.4248 43.4141 41.2257 43.8271 41.1375C44.2922 41.0325 44.8988 41.1165 45.1399 41.3352C44.8575 41.3197 44.5901 41.3721 44.3345 41.4713C44.1878 41.5292 43.8953 41.6649 43.7847 41.8527C44.0627 41.9309 44.5175 42.2288 44.8048 42.4689C45.0032 42.6357 45.244 42.8761 45.3955 43.0959C45.7776 43.6126 45.8558 44.5417 45.6518 44.819C45.5947 44.6567 45.5313 44.4955 45.4434 44.3433C45.2598 44.0356 44.9718 43.7015 44.7262 43.5182C43.5395 42.6153 41.8291 42.5682 40.4336 42.8496C39.2352 43.0959 37.0756 43.5448 35.6639 44.5472C35.7001 44.7256 35.5899 45.0222 35.4283 45.138C35.2137 45.294 34.9102 45.0801 34.7535 45.1642C34.5395 45.2737 34.2726 45.2052 34.1627 45.1587C33.9743 45.0798 33.8492 44.8869 33.833 44.6623C33.8175 44.4845 33.9898 44.2706 34.0266 44.0777C34.0428 43.9988 33.9588 43.6126 34.2884 43.4142C34.3511 43.378 34.5395 43.3098 34.6698 43.3308C34.8003 43.357 34.9054 43.4404 35.0356 43.4614C35.2132 43.3983 35.3834 43.316 35.543 43.2158C35.6481 42.8134 35.7259 42.3484 35.7786 41.936L36.9034 41.2943Z" fill="black"/>
<path d="M35.7787 41.9348C34.8421 42.3999 33.6185 42.7134 32.5781 42.755M32.5781 42.755L32.5836 57.7796M32.5836 57.7796C36.9503 55.566 41.74 51.9417 43.78 49.952C47.0794 46.7393 49.3024 43.4857 49.6417 38.7959M49.6413 38.7963L49.95 34.5247L40.03 34.514M40.0303 34.5137C40.0303 36.9371 39.2249 39.4466 36.899 41.281M36.899 41.281L35.7787 41.9348" stroke="black" stroke-width="0.340692" stroke-miterlimit="2.613"/>
<path fill-rule="evenodd" clip-rule="evenodd" d="M37.0859 46.8544C37.2434 46.6143 37.4318 46.2636 37.5251 46.1124C37.8548 45.585 38.3305 45.1933 38.6554 45.0421C39.0994 44.8282 39.8159 44.7024 40.1349 44.8592C39.7843 44.9432 39.518 45.1048 39.2717 45.277C39.0205 45.4493 38.529 45.8988 38.4036 46.0866C38.263 46.2957 38.168 46.4834 38.1318 46.5823C38.5286 46.4941 39.005 46.4207 39.2507 46.4207C39.4291 46.1961 39.8993 45.6584 40.2497 45.4076C40.5321 45.2092 41.1336 45.0108 41.5098 45.1727C41.1491 45.2877 40.5115 45.7889 40.2758 46.1489C40.2235 46.233 40.1763 46.3218 40.1663 46.3684C40.3595 46.3845 40.7254 46.4207 40.9245 46.4472C40.9448 46.4472 41.4891 46.1128 41.7347 46.0449C42.0544 45.956 42.577 45.8416 42.9059 46.1916C42.6658 46.1965 42.4402 46.2171 42.2628 46.296C42.0072 46.4111 41.897 46.4944 41.7819 46.656C42.2838 46.9223 42.8074 47.1996 43.1161 47.6908C43.2249 47.8631 43.3927 48.2702 43.2983 48.5365C43.1416 48.3381 42.927 48.1448 42.7547 48.0453C42.5091 47.9041 42.331 47.7687 42.0327 47.6536C41.0967 47.3036 39.8728 47.2096 38.8948 47.3401C37.6299 47.5024 36.0763 48.1293 35.2819 48.6722C35.3342 48.9172 35.214 49.2045 35.0728 49.2723C34.7748 49.4236 34.4875 49.168 34.4348 49.1835C34.3559 49.2096 34.1151 49.293 33.9429 49.2203C33.7706 49.1525 33.6611 48.849 33.729 48.6557C33.7806 48.5097 33.9901 48.3005 33.9901 48.3005C33.9584 47.9822 34.1678 47.7893 34.4558 47.7521C34.6181 47.7366 34.7331 47.8624 34.8637 47.8882C34.9843 47.831 35.0676 47.7893 35.1307 47.7577C35.204 47.4965 35.3136 47.2302 35.3863 47.0108C35.5068 46.6402 35.6849 46.3112 35.9099 45.9667C36.2333 45.4703 36.8093 45.0004 37.4945 44.9897C37.2854 45.152 37.1648 45.2409 37.0343 45.4028C36.8097 45.6846 36.6367 45.9405 36.48 46.243C36.3388 46.5092 36.2082 46.9064 36.1865 47.2561C36.438 47.1365 36.8248 46.9588 37.0859 46.8544ZM36.985 49.6792C37.1628 49.6065 37.3508 49.5541 37.5393 49.5748C37.1001 49.8566 36.697 50.2693 36.5871 50.7595C36.5771 50.8125 36.5771 50.9162 36.624 50.9479C36.749 50.9162 37.068 50.8483 37.1521 50.8073C37.2044 50.6978 37.335 50.5256 37.4239 50.4105C37.7373 49.9926 38.1876 49.5748 38.809 49.7315C38.4019 49.9138 38.1666 50.1701 37.9881 50.4939C37.9571 50.5517 37.9358 50.6606 37.9775 50.6606C38.0825 50.6606 38.48 50.6451 38.5372 50.6451C38.7202 50.4828 39.2538 50.1749 39.6199 50.2899C39.4374 50.376 39.2699 50.4906 39.1235 50.6296C39.0874 50.6713 39.0395 50.7236 39.0295 50.7863C39.3537 50.9479 39.641 51.1308 39.9083 51.3609C40.0495 51.4808 40.2534 51.7054 40.3785 52.0916C40.065 51.8205 39.0395 51.3347 38.4804 51.3086C38.1146 51.2931 37.6595 51.3609 37.4294 51.4129C36.5454 51.6114 35.635 52.0086 34.8564 52.4526C34.8613 52.6038 34.8354 52.7871 34.6629 52.9276C34.5478 53.0217 34.297 53.0689 34.2026 52.9331C34.1509 52.8598 33.8103 52.938 33.7369 52.8443C33.7369 52.8443 33.648 52.7082 33.6373 52.5463C33.6273 52.374 33.7424 52.2697 33.8364 52.1808C33.8626 52.1498 33.8575 51.8573 34.0765 51.7574C34.2126 51.6947 34.349 51.7164 34.4641 51.7891C34.5113 51.7629 34.5474 51.7368 34.5785 51.7164C34.6046 51.3768 34.668 51.0633 34.7931 50.724C34.966 50.2431 35.5306 49.6582 36.017 49.6792C35.688 50.0343 35.4211 50.5256 35.3322 50.9327C35.306 51.0633 35.296 51.3189 35.296 51.4395C35.4124 51.3681 35.5346 51.3069 35.6615 51.2565C35.7139 51.1315 35.8654 50.818 35.944 50.6764C36.1434 50.3109 36.5875 49.8411 36.985 49.6792Z" fill="black"/>
<path fill-rule="evenodd" clip-rule="evenodd" d="M14.5352 39.3535C14.5979 41.1707 15.3406 43.3643 16.3602 44.8842H31.5729L31.5415 42.7635C29.5856 42.7635 26.5996 41.4738 25.4177 39.3645L14.5352 39.3535Z" fill="#CA3132"/>
<path d="M24.9922 34.6109C24.9922 44.2726 39.1431 44.2726 39.1431 34.7105M39.1431 34.7105L39.1487 23.0852L24.9925 23.0801V34.6106" stroke="black" stroke-width="0.340692" stroke-miterlimit="2.613"/>
<path fill-rule="evenodd" clip-rule="evenodd" d="M29.5509 29.9826C29.7184 29.7997 29.8651 29.5592 29.8961 29.3556C29.9219 29.1886 29.4517 29.1992 29.2788 29.3036C29.1848 29.3611 29.0955 29.4759 29.0225 29.5806C28.9701 29.6588 28.7821 29.7215 28.688 29.6326C28.5885 29.5385 28.7666 29.3766 28.7614 29.2774C28.7614 29.1107 28.4421 29.3611 28.2956 29.2933C28.1964 29.2461 28.1909 29.0952 28.2591 29.0063C28.2956 28.9588 28.4004 28.9801 28.4476 28.9278C28.4948 28.8754 28.4948 28.7976 28.5106 28.7294C28.5316 28.6508 28.615 28.6146 28.6673 28.5571C28.8661 28.3639 29.2426 28.0349 29.3157 28.0401C29.4879 28.0559 29.7339 28.1444 29.8854 28.0659C29.9168 28.0507 29.9743 27.9987 29.9219 27.967L29.5141 27.7007C29.5122 27.6587 29.5196 27.6168 29.5358 27.5779C29.552 27.5391 29.5766 27.5043 29.6078 27.4761C29.7962 27.3091 30.089 27.4238 30.335 27.3873C30.5072 27.3611 30.6698 27.2932 30.7949 27.173C30.8262 27.2984 30.7477 27.4238 30.7477 27.5543C30.9048 27.7007 31.067 27.8258 31.2186 27.967C31.6681 28.4162 31.8617 29.0687 31.8931 29.6433C31.9193 29.9096 31.9192 30.1813 31.9192 30.6254C31.9926 30.4376 32.0395 30.1603 32.0553 29.9202C32.1232 29.2099 32.0133 28.5781 31.6109 28.0401C31.4473 27.8134 31.2615 27.6037 31.0563 27.4138C31.0773 27.205 31.2554 26.8495 31.4225 26.9801C31.5324 27.0638 31.3705 27.1888 31.4855 27.2622C31.6113 27.3408 31.7942 27.3301 31.8724 27.3142C32.0557 27.2674 32.2334 27.2205 32.4001 27.205C32.479 27.1995 32.6092 27.163 32.6358 27.2415C32.6571 27.2936 32.5996 27.3301 32.5417 27.3511C32.4739 27.3721 32.3695 27.3566 32.3116 27.4141C32.2644 27.461 32.2176 27.513 32.2334 27.5809C32.2537 27.6594 32.3378 27.7011 32.4212 27.6749C32.7368 27.5879 33.0616 27.5387 33.3888 27.5285C33.5617 27.5285 33.5249 27.6539 33.4412 27.7011C33.384 27.7321 33.2944 27.7586 33.2372 27.7638C32.9286 27.8003 32.6985 27.8213 32.7353 27.9991C32.7615 28.1189 32.9548 28.0039 32.9964 28.0924C33.0436 28.1865 32.9131 28.2388 32.9238 28.3015C32.9548 28.4996 33.3368 28.4583 33.5145 28.4162C33.6451 28.3849 33.8542 28.2805 33.9176 28.3642C33.9748 28.4369 33.9276 28.552 33.8542 28.573C33.6658 28.6253 33.3416 28.719 33.2527 28.8237C33.1694 28.923 33.2689 29.1265 33.3678 29.1369C33.5924 29.1631 33.8387 29.1631 34.0165 29.2154C34.0843 29.2361 34.1422 29.2833 34.1422 29.3563C34.1422 29.4349 34.0633 29.461 34.001 29.4817C33.8804 29.5182 33.6768 29.5182 33.5662 29.5651C33.53 29.5809 33.4567 29.6071 33.4674 29.6488C33.4984 29.7273 33.6558 29.7063 33.7863 29.7218C33.8597 29.7273 34.001 29.7845 34.001 29.8627C34.001 29.9464 33.9276 29.9723 33.7963 29.9623C33.5924 29.9464 33.4047 29.9723 33.3158 30.0091C33.2889 30.0194 33.1329 30.0401 33.1373 30.1138C33.148 30.202 33.3158 30.1448 33.3568 30.2337C33.3936 30.3171 33.2786 30.3643 33.2686 30.4686C33.2686 30.5107 33.2889 30.5313 33.3313 30.5472C33.4673 30.6047 33.6241 30.5992 33.7598 30.5734C33.9011 30.5472 33.9534 30.7353 33.9172 30.7563C33.7336 30.8555 33.3258 30.7511 33.2317 30.8083C33.1012 30.892 33.4512 31.0801 33.4408 31.1221C33.4301 31.169 33.3885 31.2158 33.3568 31.2265C33.1797 31.2944 32.9496 31.1638 32.8187 31.2368C32.7091 31.3047 32.756 31.4769 32.6881 31.5662C32.6041 31.6757 32.4156 31.6289 32.3323 31.6916C32.2227 31.7698 32.2172 31.9575 32.3378 32.0726C32.4318 32.1614 32.5207 32.2238 32.6413 32.281C33.1856 32.5528 33.7502 32.8246 34.2783 32.7877C34.5501 32.7722 34.9941 32.7567 35.2404 32.8194C35.5594 32.8976 35.8829 33.1429 36.0513 33.2472C36.1867 33.3306 36.4065 33.3523 36.5794 33.2896C36.7044 33.2472 36.7878 33.1012 36.7623 32.9761C36.6834 32.5583 35.9934 32.4277 35.9824 32.0099C35.9724 31.5297 35.9307 31.2685 35.7733 30.965C35.7161 30.8503 35.7054 30.584 35.8419 30.5475C35.9514 30.5214 35.9879 30.6733 36.0768 30.6364C36.4798 30.4793 36.4953 29.8424 36.9139 29.7222C37.1595 29.6543 37.9856 29.6436 37.9177 29.5392C37.7455 29.294 37.8237 29.0118 37.9177 28.8813C37.9804 28.7979 38.1533 28.7139 38.2212 28.7979C38.3152 28.9071 38.08 29.0377 38.0962 29.1999C38.1117 29.3511 38.3311 29.6436 38.164 29.8004C38.0645 29.8941 37.3162 29.9257 37.0968 30.2599C36.9607 30.4635 36.9456 30.6257 37.1075 30.6099C37.238 30.5944 37.3476 30.4376 37.4675 30.3488C37.6821 30.1924 37.855 30.1293 37.9756 30.244C38.0383 30.3016 37.9546 30.4115 37.8395 30.4425C37.7455 30.4738 37.5154 30.7198 37.5777 30.7818C37.6718 30.881 38.1947 30.427 38.3259 30.521C38.3938 30.573 38.0689 30.9075 38.1268 30.9964C38.1947 31.1059 38.4148 30.9337 38.4827 31.0174C38.5815 31.1428 38.3097 31.3881 38.153 31.4976C38.0331 31.5762 38.0796 31.8683 37.9074 31.9572C37.7138 32.0512 37.6249 32.2179 37.6456 32.2441C37.6666 32.2858 37.7134 32.3168 37.7868 32.2703C38.0007 32.1342 38.2677 31.9727 38.3776 32.0147C38.4403 32.0409 38.3521 32.3382 38.2732 32.479C38.1943 32.6203 38.5922 32.5424 38.5343 32.662C38.485 32.7716 38.4705 32.8938 38.4926 33.012C38.5243 33.1742 38.0641 33.2104 38.0224 33.3203C37.9752 33.446 38.0689 33.477 38.1165 33.4825C38.3938 33.5242 38.3566 33.7798 38.247 33.8897C38.101 34.0364 37.8495 34.0936 37.6301 34.0571C37.4416 34.0254 37.0179 33.9469 36.7675 33.7591C36.6886 33.702 36.5739 33.7436 36.5577 33.8218C36.5422 33.9107 36.6366 34.073 36.6783 34.2087C36.7361 34.4119 36.7044 34.6682 36.6366 34.8666C36.4905 35.279 36.0978 35.6235 35.9879 36.1195C35.9617 36.2508 35.9986 36.4123 36.0513 36.5381C36.1657 36.8092 36.3331 37.0655 36.5215 37.2949C36.5477 37.3683 36.5842 37.4516 36.5532 37.5195C36.5115 37.6239 36.1867 37.8485 36.093 37.9374C35.795 38.214 35.5387 38.5746 35.4808 38.966C35.4598 39.1065 35.1574 39.2478 34.9528 39.3056C34.8015 39.3466 34.6444 39.389 34.5187 39.4879C34.5032 39.6029 34.5711 39.7025 34.5866 39.8168C34.6128 40.0153 34.362 40.1148 34.168 40.1775C34.0762 40.2129 33.9791 40.2323 33.8807 40.2347C33.8446 40.2347 33.8335 40.172 33.839 40.1413C33.8962 39.8696 33.9486 39.6501 34.053 39.4262C34.0953 39.3422 34.1632 39.2743 34.2314 39.2171L34.9789 38.5901L35.5649 37.7493C35.6166 37.6711 35.6376 37.6032 35.6376 37.546C35.6376 37.3838 35.5697 37.2325 35.4547 37.1282C35.3086 36.9976 35.094 36.9769 34.9317 36.8925C34.7226 36.7889 34.4192 36.4957 34.3775 36.4747C34.2624 36.4175 34.1945 36.6259 34.179 36.7465C34.1529 36.9294 34.2101 37.1016 34.2052 37.2842C34.2052 37.3683 34.1946 37.4155 34.1529 37.4671C33.6616 37.7489 33.0495 37.8533 32.6888 38.3028C32.6254 38.381 32.5689 38.4651 32.4849 38.5223C32.2803 38.6635 31.941 38.5013 31.789 38.7207C31.7212 38.8203 31.7997 38.9508 31.7735 39.0604C31.7577 39.1231 31.6375 39.2064 31.5438 39.2536C31.4181 39.3097 31.2835 39.3432 31.1462 39.3525C30.9947 39.2798 31.0887 39.0659 31.1407 38.914C31.1931 38.7572 31.2665 38.6012 31.3867 38.4961C31.5648 38.3401 31.789 38.1416 31.931 38.0727C32.0508 38.0156 32.2341 38.0156 32.3802 37.9584C32.5346 37.911 32.681 37.8405 32.8142 37.7493C33.0288 37.6139 33.2272 37.4465 33.3478 37.2164C33.4839 36.9559 33.4684 36.6063 33.2955 36.3813C33.1387 36.1774 32.9558 35.979 32.8514 35.7489C32.7935 35.6238 32.8352 35.4516 32.9248 35.3365C32.9193 35.3317 32.8569 35.2893 32.8197 35.3003C32.0722 35.332 31.314 35.2487 30.6185 34.9714C30.4352 34.898 30.2471 34.6631 30.1162 34.6479C29.996 34.6317 29.9226 34.7833 29.8024 34.8146C29.6088 34.867 29.3577 34.8356 29.1331 34.8146C28.8716 34.7884 28.3277 34.6734 27.9353 34.5483C27.8726 34.559 27.8048 34.5694 27.7472 34.6062C27.6635 34.6634 27.648 34.7884 27.6425 34.8935C27.6322 35.0341 27.6739 35.1646 27.658 35.3107C27.6532 35.3841 27.6115 35.4626 27.6322 35.5308C27.6532 35.6142 27.7366 35.6507 27.7941 35.703C27.8881 35.7919 27.904 35.9742 27.904 36.1202C27.904 36.2825 27.8464 36.4964 27.9825 36.6066C28.0662 36.6745 28.1813 36.5853 28.286 36.6066C28.4011 36.6269 28.4372 36.7682 28.4427 36.8777C28.4483 37.0028 28.3435 37.2694 28.2753 37.3373C28.2281 37.3845 28.1496 37.3479 28.0924 37.3218C27.9412 37.2539 27.7996 37.144 27.7162 36.9983C27.6797 36.9349 27.6797 36.8571 27.6429 36.7899C27.5853 36.6748 27.4806 36.607 27.3762 36.5281C27.2508 36.434 27.2247 36.2625 27.2036 36.1102C27.1881 35.9697 27.2143 35.8329 27.2247 35.6924C27.2516 35.4128 27.2339 35.1307 27.1723 34.8567C27.1251 34.6482 27.0104 34.4388 27.0624 34.2304C27.0886 34.1308 27.1564 34.0371 27.2508 33.9955C27.7579 33.9693 28.2602 33.8852 28.7411 33.7336L28.4276 33.4253C28.3487 33.4253 28.2863 33.5042 28.2078 33.5042C28.1241 33.5042 28.009 33.3843 27.978 33.342C27.8158 33.1019 27.7114 32.8252 27.638 32.5435C27.5698 32.4339 27.4865 32.3233 27.3607 32.2717C27.2735 32.2335 27.1789 32.2156 27.0838 32.2193C26.822 32.3344 26.5815 32.559 26.5605 32.8463C26.5553 32.9196 26.597 32.9823 26.5867 33.0547C26.5712 33.1804 26.4768 33.2638 26.3879 33.3526C26.299 33.4415 26.2153 33.5304 26.1788 33.6554C26.1475 33.7598 26.1843 33.8694 26.2308 33.9689C26.2625 34.0368 26.299 34.1043 26.2729 34.1773C26.2098 34.3496 25.7971 34.5273 25.6769 34.5273C25.6352 34.5273 25.5984 34.4701 25.5829 34.423C25.5357 34.2662 25.5463 34.0995 25.5777 33.9421C25.6876 33.8222 25.7713 33.6816 25.8181 33.5249C25.8808 33.3165 25.8495 33.0915 25.949 32.8979C26.2102 32.4546 26.8795 31.5669 27.0107 31.436C27.0683 31.3784 27.2092 31.3471 27.267 31.3836C27.5495 31.5665 27.7169 31.7911 27.9884 31.932C28.1351 32.005 28.318 32.1149 28.4489 32.0102C28.5795 31.9058 28.6005 31.2062 28.6842 31.0284C28.8348 30.7191 29.2585 30.3116 29.5509 29.9826ZM34.7564 25.6325L34.6413 26.071H34.2228L34.7671 24.0131H35.2428L35.7654 26.0555H35.3475L35.2428 25.6325H34.7564ZM33.6575 24.6045C33.663 24.4688 33.6213 24.2914 33.5114 24.2494C33.3957 24.2077 33.2758 24.2439 33.2241 24.3224C33.1346 24.4688 33.1346 24.6672 33.1401 24.9697C33.1401 25.1526 33.1456 25.4089 33.1818 25.5288C33.2707 25.8057 33.5059 25.8216 33.621 25.649C33.6789 25.5656 33.6789 25.4037 33.6734 25.2577H33.4326V24.9545H34.055V26.0617H33.7571V25.9101C33.7515 25.9208 33.621 26.0197 33.558 26.0514C33.4536 26.0982 33.2551 26.0982 33.0929 26.03C32.9568 25.9728 32.8266 25.7902 32.7687 25.5553C32.7116 25.3093 32.737 24.9907 32.737 24.7192C32.7426 24.4323 32.8938 24.1133 33.1029 23.9934C33.2496 23.9097 33.5214 23.9097 33.6944 23.9724C33.9035 24.0458 34.065 24.3486 34.034 24.6042H33.6575V24.6045ZM26.6521 24.0444C26.8195 24.1488 26.9084 24.342 26.8774 24.567H26.5474C26.5474 24.3582 26.4585 24.2583 26.2811 24.2535C26.1712 24.248 26.0352 24.3737 26.0352 24.4678C26.0296 24.7441 26.276 24.8019 26.443 24.8539C26.5684 24.8908 26.72 24.969 26.7934 25.0785C26.9294 25.2766 26.9449 25.4861 26.8354 25.7575C26.7834 25.8877 26.5843 26.0445 26.4172 26.081C26.2288 26.123 25.9986 26.102 25.8106 25.9608C25.659 25.8457 25.5908 25.6211 25.6221 25.4175H25.9935C25.9935 25.5171 26.009 25.5898 26.051 25.6528C26.0824 25.6948 26.1399 25.7623 26.2394 25.7679C26.2788 25.7708 26.3184 25.7651 26.3553 25.751C26.3922 25.737 26.4256 25.7149 26.453 25.6865C26.4804 25.6581 26.5013 25.624 26.514 25.5866C26.5268 25.5492 26.5311 25.5095 26.5267 25.4702C26.5057 25.1516 25.9725 25.1306 25.7892 24.9266C25.5694 24.6762 25.638 24.2738 25.8157 24.1119C26.0613 23.8828 26.3962 23.8828 26.6521 24.0444ZM37.2115 25.4061C37.2163 25.4847 37.2222 25.7613 37.2325 25.9391C37.238 25.9911 37.2897 26.0589 37.2897 26.0641H36.8974C36.8457 26.0641 36.8402 25.9701 36.8347 25.8919C36.8247 25.6831 36.8453 25.1867 36.6414 25.1867H36.3899V26.0589H35.9976V24.022H36.7041C37.0593 24.022 37.2377 24.226 37.2377 24.5026C37.2377 24.6855 37.2322 24.8994 37.0231 24.9883C37.1326 25.093 37.1953 25.2498 37.2115 25.4061Z" fill="black"/>
<path fill-rule="evenodd" clip-rule="evenodd" d="M36.6763 24.3145H36.3828V24.8632H36.5974C36.9536 24.8632 36.9481 24.3145 36.6763 24.3145Z" fill="#EDC95E"/>
<path fill-rule="evenodd" clip-rule="evenodd" d="M27.8462 26.0667H27.4538V24.3484H27.0039V24.0039H28.3009V24.3484H27.8462V26.0667ZM30.3709 26.0667V24.3484H29.921V24.0039H31.2231V24.3484H30.7632V26.0667H30.3709ZM31.3995 24.0043H32.7016V24.3546H32.2414V26.0674H31.849V24.3546H31.3995V24.0043ZM38.2027 24.3546V26.0729H37.8103V24.3546H37.3601V24.0049H38.6574V24.3546H38.2027ZM29.3267 25.4752V24.0077H29.7081V25.4387C29.7081 26.2951 28.4635 26.2951 28.4635 25.4649V24.0077H28.8448V25.4804C28.8452 25.7993 29.3267 25.7993 29.3267 25.4752Z" fill="black"/>
<path d="M30.2066 27.0188C30.3216 26.9199 30.4835 26.7835 30.672 26.664C30.8394 26.5541 30.651 26.8049 30.6406 26.9093C30.6089 27.191 30.3947 27.2224 30.1594 27.1704C30.1177 27.16 30.1335 27.0815 30.2066 27.0188Z" stroke="black" stroke-width="0.340692" stroke-miterlimit="2.613"/>
<path fill-rule="evenodd" clip-rule="evenodd" d="M40.0346 33.602L50.0232 33.5965L50.4672 28.082L40.0346 28.0872V33.602ZM31.6107 50.7775L21.3086 50.7565C23.4316 52.6625 28.3474 56.23 31.5793 57.6764L31.6107 50.7775Z" fill="#CA3132"/>
<path fill-rule="evenodd" clip-rule="evenodd" d="M24.1604 29.0291V29.912C23.7526 29.6092 21.8593 29.3898 20.6932 29.8442C20.4111 29.9534 19.4906 30.3506 19.0721 30.6796L17.8957 31.6093C17.7803 31.7027 17.7703 31.9069 17.7703 32.0637C17.7703 32.4082 17.3676 32.6693 17.1426 32.5959C16.9597 32.5332 16.7086 32.497 16.4785 32.5487C16.2325 32.6011 16.0131 32.2931 15.9921 32.1154C15.9607 31.8963 16.1337 31.6093 16.1436 31.5149C16.154 31.426 16.0965 31.0764 16.4206 30.8621C16.567 30.7681 16.7713 30.7733 16.9174 30.8518C16.9599 30.8768 17.0106 30.8842 17.0586 30.8725C17.111 30.8518 17.2522 30.7264 17.2887 30.6951C17.3046 30.4866 17.2732 30.1573 17.2942 29.9747C17.3411 29.6192 17.3621 29.416 17.472 29.0708C17.566 28.7732 17.7703 28.3398 17.9215 28.0946C18.1937 27.6505 18.7324 27.2223 19.1348 27.2588C18.9777 27.4676 18.9257 27.5775 18.8106 27.7918C18.5964 28.1834 18.3976 28.8311 18.3035 29.2692C18.2405 29.5514 18.2092 29.7708 18.2247 30.0684C18.5333 29.8387 18.8575 29.6509 19.0717 29.5304C19.1752 29.0122 19.3513 28.5112 19.5947 28.0422C19.8561 27.5461 20.562 27.0081 21.0222 27.0497C20.5881 27.52 20.2798 28.1728 20.1648 28.5906C20.1176 28.7573 20.0601 28.9506 20.0862 29.0553C20.2585 28.9616 20.6147 28.8676 20.7869 28.8517C20.902 28.5644 21.0587 28.2196 21.1896 28.0164C21.5975 27.3894 22.2406 27.0081 22.6072 27.0239C22.3195 27.4101 22.0732 27.7604 21.8958 28.2771C21.8431 28.4284 21.8173 28.5906 21.8173 28.6688C22.0419 28.632 22.3922 28.632 22.5338 28.632C22.9148 28.2899 22.8772 28.1962 23.2975 27.8751C23.559 27.6712 24.045 27.3942 24.1601 27.3732V27.9905C23.961 28.1686 23.5586 28.551 23.4797 28.7498C23.653 28.8131 23.9982 28.9196 24.1604 29.0291Z" fill="black"/>
<path fill-rule="evenodd" clip-rule="evenodd" d="M35.1819 25.259L34.9942 24.4336L34.8164 25.259H35.1819Z" fill="#EDC95E"/>
<path fill-rule="evenodd" clip-rule="evenodd" d="M50.8258 22.7659L40.0762 22.7704V27.5298L50.4961 27.5425L50.813 22.954L50.8258 22.7659ZM51.3205 16.1946L51.4159 14.6431C44.6702 12.5614 38.4331 11.9375 32.5872 11.9375L32.5844 16.1688L51.3205 16.1946ZM25.1581 38.7919C24.4275 37.4429 24.1391 35.9613 24.1391 34.5107L14.2188 34.5214L14.5274 38.7929L25.1581 38.7919ZM31.5775 50.0547L31.5792 45.6027L16.7335 45.5865C17.6973 47.1246 18.935 48.5373 20.3788 49.9428C20.4184 49.9817 20.4594 50.0217 20.5014 50.062L31.5775 50.0547Z" fill="black"/>
</g>
<defs>
<clipPath id="clip0_10704_19440">
<rect width="64" height="64" fill="white"/>
</clipPath>
</defs>
</svg>
