<svg width="64" height="64" viewBox="0 0 64 64" fill="none" xmlns="http://www.w3.org/2000/svg">
<path d="M4.02188 18.5394C3.33772 12.1361 5.82049 10.6904 8.02327 8.77162C13.2983 5.92994 21.923 2.57081 26.9383 1.58201C32.8146 0.423461 35.7699 1.25968 37.7095 1.81545C43.5728 3.49613 48.5184 4.78499 55.575 8.22386C60.0378 10.4786 60.3954 14.1427 59.9486 18.083C53.9494 42.7369 45.1716 51.1294 38.1736 59.8928C34.6979 63.1911 30.969 64.8027 26.2625 59.8928C19.8774 52.7154 13.462 46.0985 7.55824 29.9504C6.47989 26.8864 5.56367 25.0153 4.02188 18.5394Z" fill="#000952" stroke="#FFBD00" stroke-width="0.513032"/>
<path d="M32.0954 16.5703C26.2897 16.3587 16.1938 20.6124 16.0898 32.2718C16.626 40.155 21.5717 47.5273 31.9092 47.9733C39.546 48.0067 47.1766 44.0724 48.4732 33.002C49.1019 22.0184 39.3198 16.0341 32.0954 16.5703Z" fill="#0C6E0D" stroke="#FFBD00" stroke-width="0.513032"/>
<path d="M8.45703 13.7436L9.94592 17.943L11.2486 17.4865L10.6902 15.8433L9.85282 14.1087L13.389 13.0134C14.4155 12.7532 14.4555 13.6808 13.9473 13.9263L10.4112 15.2042L10.6902 15.9344L14.5985 14.6564C15.8567 13.2489 14.993 11.8901 13.3887 12.1003L8.45703 13.7436ZM16.1574 11.2334L17.1344 15.4555L18.3674 15.2274L17.6231 11.7584L20.6474 11.0966C22.1542 10.9578 21.6665 12.2291 21.0196 12.2151L17.8556 12.8541L17.9953 13.6073L20.5309 13.2878L22.3223 14.5431L23.9043 13.9953L21.6708 12.8085C22.6622 12.4648 23.4585 10.5638 21.5777 10.0927L16.1574 11.2334ZM24.2533 10.9821L25.3931 11.0051C25.4856 11.6582 24.9905 12.8129 26.3421 12.8149C26.7045 12.8156 27.4735 12.7882 27.9987 12.8991H29.3945C30.5614 12.9294 30.43 12.2895 30.4647 11.7352V10.9364C30.3382 10.5513 30.2106 10.1664 29.4179 10.1377H26.4401C25.9758 10.1916 25.5085 10.2388 25.3468 11.0048L24.3697 10.9819C24.2183 10.1579 25.6243 9.34487 26.0448 9.29297H29.9997C31.5637 9.66608 31.5142 10.6734 31.5351 10.5025V12.1228C31.388 12.9256 30.9411 13.5382 29.7438 13.6748L26.068 13.7204C24.8761 13.6053 24.5911 13.0566 24.3 12.4882L24.2533 10.9821ZM32.5585 9.29341V10.2063L35.1641 10.1835L35.1877 13.8579H36.3276L36.3042 10.2063L39.2123 10.2292V9.38474L32.5585 9.29341ZM39.9543 11.1882L41.0727 11.4058C41.0474 12.0647 40.3547 13.117 41.6848 13.3504C42.0415 13.413 42.8038 13.5179 43.3011 13.7171L44.6755 13.9561C45.8188 14.1858 45.8036 13.5331 45.9365 12.9934L46.0786 12.2068C46.0225 11.8059 45.9653 11.4051 45.1901 11.2412L42.2579 10.7311C41.7911 10.7046 41.3229 10.6709 41.027 11.3978L40.069 11.208C40.0663 10.3707 41.5956 9.81109 42.0186 9.83203L45.9128 10.5094C47.3863 11.1447 47.1585 12.1282 47.2094 11.9633L46.9208 13.5589C46.6329 14.3243 46.0838 14.8509 44.881 14.7801L41.2534 14.1953C40.1003 13.8777 39.9173 13.2887 39.732 12.6791L39.9543 11.1882ZM47.7264 15.3869L48.9131 15.7976L49.9599 12.9448L53.6822 17.7146L54.613 17.9427L56.1018 13.7434L55.0317 13.3553L53.8684 16.4592L50.1926 11.5296L49.1458 11.2786L47.7264 15.3869ZM21.206 23.0561C24.9392 18.7059 28.501 18.5589 32.063 18.4085C29.823 19.592 28.6307 20.7753 27.786 21.9588C30.0013 21.3961 32.2165 20.865 34.4318 21.3134C39.8485 22.9375 42.5593 26.1955 45.8154 29.1239C44.2884 28.831 43.0468 28.8176 41.8674 28.8657C43.5661 29.9824 45.1776 31.0817 46.0127 32.0286C44.3379 35.7054 43.158 35.4982 41.8013 36.6764L42.4594 34.5464C41.8106 34.0334 41.0459 33.7476 40.2221 33.5778C39.7175 33.1448 39.2132 33.4061 38.7086 33.6424C32.6623 35.306 33.2542 36.7935 33.5104 38.29C34.2538 39.2797 35.0517 40.2696 36.1423 41.2593C36.4552 41.4847 36.7761 41.6943 37.2611 41.5821L38.7086 40.7427C37.9745 43.2091 36.6155 45.425 32.0628 46.3586C29.7002 38.376 23.1297 36.4765 17.6526 32.9969C20.9737 32.3912 24.1792 32.918 27.3253 34.0298C25.164 31.2454 21.8752 29.4094 18.508 27.6392C21.7321 27.7301 24.9565 27.8651 28.1806 29.6402C26.7033 26.9467 24.4374 24.7171 21.206 23.0561Z" fill="#FFBD00" stroke="#FFBD00" stroke-width="0.256516"/>
<path d="M37.7241 27.026C35.9837 26.0844 34.1914 25.3968 32.3267 25.0633C35.3572 24.4147 37.3815 25.0346 39.5852 25.4286C38.2848 25.4447 36.9026 25.4338 35.9562 25.5656C36.7934 25.9915 37.3829 26.4783 37.7241 27.026ZM29.5352 31.6361C30.6937 32.8504 31.2146 35.2459 31.2568 38.5284C31.4182 37.2284 31.6943 38.0085 31.6292 32.5946L36.8402 32.549C34.7116 31.901 32.5172 31.3269 29.5352 31.6361Z" fill="#0C6E0D" stroke="#0C6E0D" stroke-width="0.256516"/>
</svg>
