<svg width="64" height="64" viewBox="0 0 64 64" fill="none" xmlns="http://www.w3.org/2000/svg">
<path d="M31.3893 18.0213C31.0846 19.2404 30.6274 20.4594 30.3227 21.8308C29.7132 20.6118 29.1036 19.3927 28.3417 18.3261C26.6656 15.4309 24.6846 12.8404 22.0942 10.8595C19.8085 9.1833 17.0657 8.11665 14.1704 8.26903C10.0562 8.42141 6.70384 10.0976 4.11339 13.4499C3.96101 13.4499 3.80863 13.6023 3.65625 13.6023C4.26577 12.0785 5.33243 10.7071 6.55146 9.48806C11.58 4.91667 19.0466 4.76429 24.6846 8.87854C27.5798 11.1642 29.7132 14.0595 31.237 17.4118C31.3893 17.7166 31.3893 17.8689 31.3893 18.0213ZM60.3415 13.7547C59.2748 12.3833 58.0558 11.1642 56.532 10.25C51.8082 7.35475 46.0178 7.65951 41.5988 11.1642C39.0083 13.2976 37.0274 15.888 35.3512 18.7832C34.7417 19.6975 34.2846 20.7642 33.675 21.8308C33.3703 20.7642 33.0655 19.8499 32.7608 18.9356C32.456 18.1737 32.6084 17.5642 32.9131 16.9547C34.4369 14.0595 36.4179 11.3166 39.0083 9.33568C44.494 4.91667 52.2653 5.22143 57.2939 9.79282C58.6653 10.8595 59.7319 12.0785 60.3415 13.7547Z" fill="#E64A19"/>
<path d="M61.2575 18.7835C59.5813 15.7359 56.9908 14.2122 53.4861 14.2122C50.1337 14.2122 47.5433 15.7359 45.2576 18.0216C42.3624 20.9169 40.8386 24.574 39.4672 28.3835C39.4672 28.5358 39.4672 28.8406 39.6196 28.8406C40.0767 29.1454 40.5338 29.4501 40.991 29.7549C41.2957 29.9073 41.4481 30.212 41.2957 30.5168C40.991 31.8882 40.8386 33.2596 40.5338 34.631C40.5338 34.9358 40.2291 35.0882 40.0767 35.2405C39.01 35.6977 38.0958 36.1548 37.0291 36.4596C36.7243 36.612 36.572 36.7643 36.572 37.2215C36.4196 37.9834 36.4196 38.5929 36.2672 39.3548C36.1148 39.9643 36.1148 40.7262 35.9625 41.3357C37.0291 40.1167 37.9434 38.7453 39.7719 38.5929C39.6196 39.5072 39.4672 40.2691 39.3148 41.1833C39.3148 41.4881 39.01 41.6405 38.8577 41.7929C37.9434 42.25 37.0291 42.5548 36.1148 42.8595C35.8101 43.0119 35.6577 43.1643 35.6577 43.469C35.3529 45.6024 35.0482 47.8881 34.7434 50.0214C34.591 50.7833 34.4387 51.3928 34.7434 52.1547C35.0482 52.7642 35.2006 53.5261 35.3529 54.288C34.2863 54.7451 33.2196 55.2023 32.153 55.507C32.0006 55.507 31.8482 55.507 31.6958 55.507C30.6292 55.0499 29.5625 54.7451 28.4959 54.288C28.8006 53.5261 28.953 52.7642 29.1054 52.1547C29.2577 51.8499 29.2577 51.3928 29.2577 50.9356C28.953 48.4976 28.4958 46.0595 28.1911 43.6214C28.1911 43.3167 28.0387 43.1643 27.734 43.0119C26.8197 42.7071 25.9054 42.25 24.9911 41.7929C24.8387 41.7929 24.6864 41.6405 24.6864 41.4881C24.534 40.5738 24.2292 39.5072 24.0768 38.5929C25.9054 38.7453 26.8197 40.1167 27.8863 41.4881C27.734 39.9643 27.5816 38.5929 27.2768 37.0691C27.2768 36.9167 26.9721 36.612 26.8197 36.612C25.753 36.1548 24.8387 35.8501 23.7721 35.3929C23.6197 35.2405 23.3149 35.0882 23.3149 34.7834C23.0102 33.412 22.7054 31.8882 22.553 30.5168C22.553 30.3644 22.553 30.0596 22.7054 29.9073C23.1626 29.6025 23.6197 29.2977 24.0768 28.993C24.3816 28.8406 24.3816 28.6882 24.3816 28.3835C23.4673 25.793 22.4007 23.2025 21.0292 20.9169C19.5055 18.6312 17.6769 16.4978 15.0864 15.2788C11.8865 13.755 8.6865 13.755 5.63891 15.7359C3.35321 17.2597 2.28656 19.5454 1.67704 22.1359C1.37228 23.3549 1.2199 24.7263 1.37228 26.0978C1.82942 26.0978 2.13418 26.0978 2.43894 26.0978C2.89608 26.0978 3.04845 26.2501 3.04845 26.7073C3.50559 28.5358 3.96273 30.3644 4.57225 32.1929C5.33415 34.3263 6.40081 36.3072 7.77222 38.1358C8.38174 38.8977 9.14364 39.6595 10.2103 40.1167C11.4293 40.5738 12.1912 39.9643 12.1912 38.7453C12.1912 37.6786 12.0389 36.612 11.7341 35.5453C10.9722 32.9548 10.3627 30.3644 10.5151 27.6216C10.5151 26.8597 10.6674 26.0978 11.1246 25.3359C11.7341 23.9645 13.4103 23.6597 14.4769 24.7263C14.9341 25.1835 15.2388 25.793 15.696 26.2501C15.8483 26.5549 15.8483 26.8597 15.8483 27.1644C15.696 28.0787 15.3912 28.993 15.3912 29.9073C15.2388 32.6501 16.1531 34.3263 18.4388 35.2405C19.2007 35.5453 20.115 36.0024 20.8769 36.3072C21.1816 36.4596 21.334 36.612 21.4864 37.0691C21.9435 39.05 22.4007 40.8786 22.8578 42.8595C23.3149 44.9928 23.9245 47.1262 25.1435 48.9547C25.753 49.869 26.2102 50.7833 26.6673 51.6975C26.8197 52.0023 26.9721 52.1547 26.9721 52.4594C27.2768 54.1356 27.5816 55.6594 27.8863 57.3356C28.1911 58.8594 29.1054 59.6213 30.6292 59.6213C31.6958 59.6213 32.6101 59.6213 33.6768 59.6213C35.2006 59.6213 35.9624 58.8594 36.2672 57.488C36.572 56.4213 36.7243 55.3547 36.8767 54.288C37.0291 52.7642 37.4862 51.3928 38.4005 50.1737C39.01 49.2595 39.6196 48.1928 40.0767 47.2785C40.3815 46.5166 40.8386 45.7547 40.991 45.1452C41.6005 42.4024 42.21 39.8119 42.9719 37.0691C42.9719 36.7643 43.2767 36.612 43.4291 36.4596C44.3433 36.0024 45.41 35.5453 46.4766 35.0882C48.0004 34.3263 48.9147 33.1072 49.0671 31.4311C49.2195 30.0596 48.9147 28.6882 48.61 27.3168C48.61 27.1644 48.4576 26.7073 48.61 26.5549C48.9147 25.9454 49.3719 25.3359 49.829 24.7263C50.8957 23.6597 52.5718 23.9645 53.3337 25.3359C53.6385 26.0978 53.7909 26.8597 53.7909 27.7739C53.9432 29.9073 53.4861 32.0406 52.8766 34.1739C52.5718 35.5453 52.1147 36.9167 51.9623 38.2881C51.8099 39.9643 52.8766 40.5738 54.248 39.9643C54.7051 39.6595 55.1623 39.3548 55.467 39.05C56.2289 37.9834 57.1432 36.9167 57.9051 35.8501C59.5813 33.1072 60.4956 30.0596 61.1051 26.8597C61.1051 26.4025 61.4098 26.4025 61.7146 26.4025C62.0194 26.4025 62.4765 26.4025 62.7813 26.4025C62.7813 26.2501 62.7813 26.0978 62.7813 25.9454C62.7813 23.2026 62.4765 20.9169 61.2575 18.7835ZM17.0674 29.9073C17.0674 28.8406 17.2198 27.7739 17.2198 26.5549H17.3721C19.0483 28.6882 20.2674 30.9739 20.4197 33.8691C18.2864 33.2596 17.0674 32.4977 17.0674 29.9073ZM46.7814 31.5834C46.4766 32.3453 45.8671 33.1072 45.1052 33.412C44.6481 33.5644 44.1909 33.8691 43.5814 34.0215C43.7338 31.1263 44.9529 28.8406 46.7814 26.5549C46.9338 28.2311 47.2385 29.9073 46.7814 31.5834Z" fill="#E64A19"/>
<path d="M63.9994 27.3164V27.6212C63.8471 31.8878 63.5423 36.002 62.3233 40.1163C61.5614 42.2496 60.7995 44.2305 59.1233 45.9067C57.1424 48.04 54.5519 49.1067 51.6567 48.3448C49.5234 47.8877 48.3043 46.2115 48.152 44.0782C48.152 42.0972 48.6091 40.2687 49.5234 38.5925C49.5234 39.5068 49.371 40.5734 49.371 41.4877C49.371 43.0115 50.4376 44.2305 51.8091 44.5353C52.7233 44.6877 53.79 44.5353 54.5519 44.0782C55.9233 43.3163 56.8376 42.0972 57.7519 40.7258C59.7328 37.6782 60.7995 34.4782 61.5614 30.9735C61.8661 29.7545 62.0185 28.6878 62.3233 27.4688H63.9994V27.3164ZM15.5427 45.7543C14.7808 47.7353 13.1046 48.4972 11.1237 48.6496C8.07612 48.8019 5.79042 47.2781 3.96187 44.8401C2.43807 42.5544 1.5238 40.1163 1.06666 37.3735C0.304759 34.1735 0 30.6688 0 27.3164H1.67618C2.13331 29.4497 2.59045 31.4307 3.19997 33.564C3.96187 36.4592 5.18091 39.202 7.00946 41.6401C7.77136 42.7067 8.83802 43.7734 10.0571 44.3829C12.4951 45.4496 14.6284 43.9258 14.6284 41.3353C14.6284 40.5734 14.4761 39.6592 14.4761 38.7449C15.0856 39.9639 15.5427 41.183 15.6951 42.5544C15.9999 43.4686 15.9999 44.6877 15.5427 45.7543Z" fill="#E64A19"/>
</svg>
