<svg width="64" height="64" viewBox="0 0 64 64" fill="none" xmlns="http://www.w3.org/2000/svg">
<g clip-path="url(#clip0_10704_19481)">
<path d="M14.3143 54.2956C14.4096 53.847 14.448 53.2461 14.448 53.074C14.448 51.0434 13.2458 49.8342 11.2332 49.8342H4.94639L4.84058 50.418L4.98595 50.4364C5.21849 50.4646 5.29864 50.5654 5.29864 50.8295C5.29864 50.9428 5.27773 51.0915 5.24404 51.2538L2.78492 62.5832C2.72681 62.8611 2.70703 62.9827 2.70703 63.113C2.70703 63.5432 2.9745 63.8123 3.40815 63.8123H6.68935L6.79392 63.2297L6.65092 63.2088C6.42652 63.1794 6.33936 63.0675 6.33936 62.8155C6.33936 62.6804 6.35564 62.5132 6.3917 62.3325L7.28579 58.1353H7.86946L9.43912 63.1609C9.56585 63.6673 9.73327 63.8123 10.2938 63.8123H11.2878C11.7633 63.8123 12.0215 63.6354 12.2877 63.1081C12.5552 62.5783 13.2783 61.1428 13.2783 61.1428H12.8109C12.5028 61.1428 12.3167 61.0679 12.2644 60.9229L11.2808 57.9091C12.8935 57.5982 13.884 56.4146 14.3143 54.2956ZM60.6449 49.8342H57.8684L57.7637 50.4181L57.908 50.4365C58.1429 50.4648 58.2393 50.5865 58.2393 50.8483C58.2393 50.8937 58.2033 51.1776 58.1683 51.3116L56.7895 57.2713L54.4477 50.74C54.257 50.1809 53.8269 49.8342 53.3257 49.8342H50.7912L50.6888 50.4169L50.8306 50.4365C51.0632 50.4648 51.1445 50.5656 51.1445 50.8102C51.1445 50.938 51.1247 51.0892 51.091 51.2539L48.632 62.5834C48.5725 62.8599 48.554 62.9827 48.554 63.1131C48.554 63.5433 48.8202 63.8124 49.2516 63.8124H52.0282L52.1328 63.2261L51.9886 63.2091C51.7549 63.1794 51.6585 63.0603 51.6585 62.7959C51.6585 62.7026 51.6874 62.5047 51.7293 62.3326L52.9631 57.0292L55.3395 63.2471C55.5035 63.6638 55.851 63.8124 56.1033 63.8124H58.501L61.2668 51.0609C61.3273 50.7844 61.3448 50.6615 61.3448 50.5336C61.3448 50.1011 61.0751 49.8342 60.6449 49.8342ZM43.827 49.6348C41.6445 49.6348 40.1283 50.1719 39.0483 51.3223C37.9402 52.5022 37.4449 54.2253 37.1066 55.758C36.7856 57.1849 36.5949 58.6205 36.5949 59.6012C36.5949 62.6389 37.9829 63.958 41.2266 63.9895H41.5055C43.7741 63.9704 45.0965 63.5336 46.0489 62.4921C47.0942 61.3502 47.6603 59.4833 48.2382 56.8347C48.4813 55.683 48.5951 54.7367 48.5951 53.9463C48.5951 51.004 47.0812 49.6348 43.827 49.6348ZM44.6141 57.0289C43.863 60.555 43.1502 61.1216 41.7422 61.1216C40.4528 61.1216 40.0388 60.7542 40.0388 59.6012C40.0388 58.9486 40.1726 58.0501 40.504 56.4991C41.2284 53.08 42.0293 52.5022 43.5455 52.5022C44.5944 52.5022 45.0222 52.9582 45.0222 54.0865C45.0222 54.7772 44.8885 55.7371 44.6141 57.0289ZM36.5479 49.8342H33.7017L33.5692 50.4365H33.7424C33.9587 50.4365 34.0588 50.5865 34.0633 50.7314C34.0633 50.7758 34.0563 50.8127 34.0064 50.9023L30.3427 58.5594L29.7916 50.783C29.7626 50.3442 29.3952 49.8342 28.9649 49.8342H25.6872L25.5536 50.4365H25.7269C25.9709 50.4365 26.2397 50.6565 26.2791 51.0781L27.3186 62.9435C27.3687 63.488 27.8174 63.8124 28.5196 63.8124H30.91L37.3096 51.2121C37.3956 51.0228 37.4305 50.8618 37.4282 50.6725C37.4201 50.1784 37.0573 49.8342 36.5479 49.8342ZM25.3652 63.2097C25.1036 63.2097 24.906 63.018 24.8885 62.7524L23.8386 50.8637C23.7781 50.2479 23.3027 49.8337 22.6584 49.8337H18.853L18.7519 50.436H18.924C19.1598 50.436 19.3041 50.5528 19.317 50.7507C19.3216 50.8416 19.3007 50.935 19.2437 51.0566L13.5951 62.6517C13.4916 62.8053 13.4662 63.0303 13.4766 63.1913C13.4963 63.49 13.7604 63.8119 14.2917 63.8119H17.0996L17.203 63.2097H17.0286C16.8879 63.2097 16.8054 63.1666 16.7914 62.9527C16.7869 62.857 16.8088 62.8053 16.853 62.702C16.8635 62.6762 16.8739 62.6517 16.8843 62.6246L17.8843 60.4578H21.2561L21.4677 63.1126C21.4969 63.5501 21.8096 63.8119 22.3072 63.8119H25.4592L25.5279 63.2097H25.3652ZM20.8366 54.1318L21.0865 57.8903H19.068L20.8366 54.1318ZM10.8926 53.3885C10.8926 53.5005 10.8728 53.6849 10.8379 53.8323C10.539 55.1793 10.1612 55.5664 9.14723 55.5664H7.85431L8.56368 52.4029H9.84485C10.7099 52.4029 10.8926 52.9388 10.8926 53.3886" fill="#2453A0"/>
<path d="M32.7147 30.3309C33.4944 29.4771 34.1437 28.4427 35.1037 27.8055C39.3848 28.0648 43.6753 28.2258 47.9503 28.5837C45.3748 30.3737 42.6159 31.8711 39.8104 33.2178C37.6356 34.1798 35.3366 35.1783 32.932 34.965C32.1708 34.8694 31.127 34.4526 31.1146 33.4969C31.0741 32.2227 32 31.2439 32.7147 30.3309ZM49.2365 28.7382C50.7309 27.5493 52.2563 26.3931 53.7849 25.2471C53.3126 30.0387 51.3709 34.6922 48.2673 38.2359C44.3464 42.8927 38.5025 45.6219 32.6181 45.7204C28.3682 45.7238 24.0684 44.5446 20.5049 42.0553C16.8886 39.5857 13.9806 35.9502 12.3216 31.7496C13.8471 31.9401 15.3538 32.2654 16.8792 32.4392C19.9238 37.5955 25.2488 41.3033 31.0588 41.5888C37.2878 42.1374 43.6102 38.8204 47.043 33.3163C48.0001 31.9171 48.5405 30.2783 49.2365 28.7382ZM10.7807 23.9137C11.9767 23.2209 13.2288 22.6427 14.4715 22.0517C14.5087 23.1847 14.5491 24.3176 14.6052 25.4507C13.2784 25.4835 11.9456 25.4049 10.6314 25.2077C10.6719 24.7741 10.6531 24.3309 10.7807 23.9137ZM30.1547 21.559C38.661 21.1221 47.1642 21.8152 55.6427 22.4623C53.7881 24.2421 51.8618 26.009 49.7025 27.362C45.1853 27.2373 40.6649 26.853 36.1477 26.6034C36.9491 25.4442 37.9992 24.5213 38.8506 23.408C34.4978 23.1451 30.136 23.5164 25.7865 23.6674C23.9782 23.756 21.6172 24.1174 20.3994 22.3406C23.6303 21.8251 26.9018 21.7626 30.1546 21.559H30.1547ZM26.5664 12.9546C38.686 9.23369 51.7686 8.90853 64 12.2354V12.8986C62.0085 15.4603 60.0575 18.081 57.7648 20.3538C57.1277 21.0861 56.1335 20.7445 55.3134 20.7709C50.7246 20.426 46.1236 20.472 41.5316 20.3043C42.3612 18.9776 43.2902 17.7167 44.042 16.3306C40.0155 15.733 35.9114 15.8774 31.8788 16.3668C24.8201 17.2798 17.9231 19.4671 11.489 22.6626C9.92003 23.4933 8.27643 24.2091 6.86288 25.3358C9.12462 26.206 11.5729 25.9565 13.9152 26.2849C14.5864 26.6559 15.0618 27.3128 15.5929 27.868C16.814 29.2702 18.1965 30.5082 19.3615 31.9665C16.5499 31.7825 13.7755 31.2309 11.0105 30.689C7.2512 29.8809 3.47643 28.9188 0 27.1616V26.6362C1.04682 25.5196 2.26796 24.613 3.47338 23.7035C10.4605 18.6458 18.4293 15.3057 26.5664 12.9545V12.9546ZM30.6424 0.0117188H33.6807C39.8632 0.560226 45.9246 3.84756 49.5627 9.22377C48.0559 9.24002 46.5492 9.26321 45.0456 9.20071C44.3059 9.227 43.8183 8.55385 43.2621 8.14659C39.3942 4.80321 34.1282 3.49289 29.2289 4.38293C24.2142 5.21381 19.694 8.56688 17.0686 13.1319C16.5376 14.0252 16.1989 15.0301 15.649 15.9103C14.2384 16.843 12.6292 17.398 11.113 18.1172C12.5483 10.4258 18.1313 3.88043 25.0905 1.2893C26.8862 0.622605 28.7752 0.33688 30.6424 0.0118383" fill="#004C9B"/>
</g>
<defs>
<clipPath id="clip0_10704_19481">
<rect width="64" height="64" fill="white"/>
</clipPath>
</defs>
</svg>
