<svg width="64" height="64" viewBox="0 0 64 64" fill="none" xmlns="http://www.w3.org/2000/svg">
<path fill-rule="evenodd" clip-rule="evenodd" d="M23.955 0.677027C23.7563 1.03543 22.4539 3.37405 21.061 5.87412C19.6682 8.3739 17.9361 11.4831 17.212 12.7832C16.4879 14.083 15.0971 16.5784 14.1214 18.3285C13.1457 20.0786 11.6181 22.8196 10.7265 24.4196C9.83485 26.0196 8.53071 28.3596 7.82816 29.6202L6.55078 31.9119L7.13202 32.9537C7.45173 33.5265 9.30133 36.8315 11.2423 40.2983C13.1835 43.765 16.1834 49.1239 17.9085 52.2072C20.817 57.4049 22.947 61.2097 24.0414 63.162L24.4914 63.9649L31.9579 63.9634L39.4247 63.9623L39.7357 63.4029C40.3236 62.3451 43.6132 56.462 51.045 43.1771C52.5275 40.5269 54.5508 36.9083 55.5413 35.1355L57.3418 31.9125L55.5102 28.6206C52.9377 23.9963 43.2225 6.52808 41.2501 2.98015L39.6077 0.0253906H31.962H24.3166L23.955 0.677027ZM41.3659 4.22234C42.5258 6.29739 44.442 9.72692 45.6245 11.8436C46.8071 13.9602 48.2852 16.6058 48.9095 17.7226C54.2255 27.2321 56.7358 31.7342 56.7658 31.8122C56.7975 31.8942 56.0673 31.9044 50.074 31.9044H43.3467L43.0785 31.4346C42.9313 31.1762 42.4138 30.2831 41.9288 29.4497C40.2264 26.5246 37.1541 21.2379 35.3953 18.2072C34.4184 16.524 33.5166 14.9732 33.3912 14.7608L33.1631 14.3751L33.3423 13.9544C33.441 13.7228 33.9733 12.5327 34.5255 11.3098C36.3983 7.16139 38.1217 3.25245 38.1217 3.15266C38.1217 3.13259 37.9512 3.11717 37.7429 3.11834L37.3642 3.12037L36.2037 5.16372C35.5655 6.28779 33.3595 10.1665 31.3016 13.7831C26.9374 21.4532 26.6087 22.0312 23.4334 27.6126C22.1118 29.9355 21.0308 31.8514 21.0308 31.87C21.0308 31.889 21.6783 31.905 22.4702 31.9058L23.9096 31.9073L24.6605 33.2542C25.3598 34.5083 30.5054 43.7092 31.532 45.5407C31.7839 45.9908 32.01 46.3588 32.0341 46.3588C32.058 46.3588 33.2231 44.3134 34.6232 41.8133C36.0231 39.3132 37.8404 36.0679 38.6616 34.6014L40.1546 31.9346L41.7441 31.9183C42.6186 31.9096 43.3336 31.9169 43.3336 31.9349C43.3336 31.9527 41.4607 35.219 39.1716 39.1934C36.8824 43.1678 34.6561 47.0331 34.2241 47.7831C33.7921 48.533 32.4562 50.8513 31.2554 52.9345C30.0545 55.018 28.561 57.6088 27.9367 58.6922L26.8013 60.6619L26.3931 60.6799C26.0772 60.6939 25.9925 60.6802 26.0175 60.6194C26.0353 60.5761 27.157 58.0516 28.5101 55.0095C29.8634 51.9675 30.9773 49.4581 30.9854 49.4328C30.9967 49.3982 23.7167 36.6735 21.3211 32.5406L20.9697 31.9346L14.0318 31.9044L7.09391 31.8741L8.85391 28.7224C9.82176 26.9892 10.8135 25.2164 11.0573 24.7832C11.3013 24.3498 12.4082 22.3724 13.5172 20.389C16.89 14.3567 19.1777 10.2663 20.2122 8.41957C20.7538 7.45288 21.8442 5.50263 22.6357 4.08619C23.427 2.66946 24.2098 1.27165 24.3754 0.980154L24.6762 0.449827H31.9669H39.2574L41.3659 4.22234ZM32.4013 18.9508C32.572 19.2586 34.2322 22.2241 36.0911 25.5407C37.9501 28.8574 39.5119 31.6571 39.5623 31.7624L39.6539 31.9538L38.3501 34.2776C37.6327 35.5556 35.962 38.5377 34.6372 40.9042C33.3124 43.2711 32.1831 45.2812 32.1278 45.3717L32.0274 45.5361L30.7314 43.2202C27.2257 36.9557 25.7455 34.3131 25.1108 33.1861C24.7288 32.5077 24.4286 31.921 24.4434 31.882C24.4583 31.8433 25.8957 29.2754 27.6373 26.1761C29.379 23.0764 31.0756 20.0565 31.4075 19.4648C31.7391 18.8731 32.0289 18.3896 32.051 18.3902C32.0731 18.3908 32.2308 18.643 32.4013 18.9508Z" fill="black"/>
</svg>
