<svg width="64" height="64" viewBox="0 0 64 64" fill="none" xmlns="http://www.w3.org/2000/svg">
<path fill-rule="evenodd" clip-rule="evenodd" d="M9.6 54.816V4.144C9.6 4.144 9.776 1.312 8.272 0.352002V2.47388e-06H27.792C29.4926 -0.000702388 31.1899 0.149217 32.864 0.448002C35.3349 0.88595 37.6355 2.00216 39.5087 3.67196C41.3819 5.34177 42.7541 7.49944 43.472 9.904C44.2276 12.3678 44.3983 14.9739 43.9706 17.5153C43.5429 20.0566 42.5285 22.4633 41.008 24.544C39.5365 26.4435 37.808 28.1289 35.872 29.552C35.44 29.856 35.184 30.016 34.736 30.304C37.3193 34.2065 39.42 38.4078 40.992 42.816C42.3328 46.6646 43.3445 50.6202 44.016 54.64C44.432 57.968 45.424 58.304 45.616 58.368V58.736H33.936V58.368C34.288 58.176 37.456 56.768 37.472 51.856C37.3394 47.7004 36.4951 43.5983 34.976 39.728C34.018 37.0771 32.8793 34.4951 31.568 32C29.318 32.9052 26.9877 33.5962 24.608 34.064C23.088 34.352 21.552 34.592 19.648 34.8C17.744 35.008 16.448 35.104 15.408 35.168V54.848C15.408 55.28 15.52 57.6 17.008 58.4V58.768H8V58.4C9.456 57.632 9.6 55.28 9.6 54.848M28.048 3.328H15.36V31.52C18.1079 31.3715 20.8351 30.959 23.504 30.288C32.752 27.552 37.168 21.104 37.232 13.504C37.232 9.088 35.632 6.384 34.032 4.944C32.9944 4.14534 31.7629 3.63728 30.464 3.472C29.6849 3.36366 28.8985 3.31552 28.112 3.328M26.832 34.432V37.408C28.8504 37.2852 30.8595 37.0394 32.848 36.672C33.392 37.92 33.872 39.104 34.208 40.016V40.144C33.2 40.32 32.128 40.464 31.008 40.592C29.408 40.784 27.808 40.88 26.864 40.944V60.144C26.864 60.56 26.96 62.832 28.464 63.616V64H19.616V63.648C21.04 62.896 21.216 60.592 21.216 60.176V35.456C23.1151 35.2128 25.0003 34.871 26.864 34.432M38.496 34.816C41.4226 33.5419 43.9098 31.4351 45.648 28.7581C47.3863 26.081 48.2988 22.9518 48.272 19.76C48.272 15.424 46.784 12.8 45.072 11.36L44.768 11.2C44.64 10.688 44.512 10.192 44.352 9.712C44.0267 8.74078 43.6199 7.79876 43.136 6.896C43.44 6.896 43.728 6.992 44 7.04C46.4214 7.47402 48.6757 8.56893 50.5138 10.2038C52.352 11.8386 53.7024 13.9498 54.416 16.304C55.1628 18.7266 55.3333 21.2901 54.9138 23.7902C54.4944 26.2903 53.4966 28.6578 52 30.704C50.555 32.5617 48.8588 34.2095 46.96 35.6C46.544 35.904 46.288 36.064 45.856 36.352C48.3853 40.1729 50.4379 44.2888 51.968 48.608C53.2802 52.3811 54.2809 56.2554 54.96 60.192C55.344 63.392 56.32 63.712 56.56 63.776V64H45.072V63.648C45.424 63.472 48.528 62.192 48.544 57.344C48.4276 53.2704 47.6047 49.248 46.112 45.456C45.1397 42.868 44.0013 40.3454 42.704 37.904C42.128 38.16 41.296 38.448 40.384 38.752C39.792 37.376 39.184 36.128 38.496 34.864M35.904 9.776H26.832V28.08C25.6734 28.6232 24.4753 29.0779 23.248 29.44C22.569 29.6407 21.8801 29.8062 21.184 29.936V10.576C21.184 10.576 21.344 7.808 19.792 6.864V6.512H34.304C35.052 7.45712 35.5967 8.54654 35.904 9.712" fill="black"/>
</svg>
