<svg width="64" height="64" viewBox="0 0 64 64" fill="none" xmlns="http://www.w3.org/2000/svg">
<g clip-path="url(#clip0_10704_20049)">
<path fill-rule="evenodd" clip-rule="evenodd" d="M30.3817 61.2957H36.2952L37.6185 61.248L38.6154 61.1999L39.5953 61.032L40.5427 60.6963L41.4248 60.224L42.1764 59.5994L42.8377 58.8555L43.4751 57.783L44.0792 56.6152L44.9858 54.5347L46.1786 51.6135L47.4201 48.1485L48.1308 46.1882L48.7675 44.236L49.3723 42.2513L49.9358 40.243L50.5238 38.0901L51.0546 35.9376L51.5691 33.769L52.0352 31.6004L52.4511 29.4479L52.86 27.2957L53.2273 25.1428L53.5707 23.0704L53.8402 21.1819L54.1093 19.4135L54.2974 17.7654L54.5182 15.8765L54.7628 13.4839L54.9836 11.1876L55.0817 9.89918L55.1308 8.80306L55.0081 7.72261L54.6409 6.67456L54.1093 5.71428L53.3748 4.88181L52.5006 4.18591L51.5204 3.68956L50.4506 3.35344L49.3229 3.2573L47.6647 3.16153L44.9612 3.04136L41.1308 2.89715L36.2952 2.80138L30.7494 2.77734L25.0154 2.80138L19.894 2.89715L16.2349 3.04136L14.1849 3.16153L13.3516 3.2573L12.5513 3.44958L11.7915 3.75365L11.0812 4.16187L10.4523 4.6899L9.88874 5.29003L9.42299 5.97793L9.08809 6.72227L8.86729 7.50666L8.76953 8.29907V9.10677L8.89182 11.0914L9.16168 14.0604L9.52112 17.6692L10.011 21.4619L10.6236 25.3111L11.2525 29.1121L12.0123 32.8571L12.8862 36.6815L13.8419 40.4349L14.8139 43.8995L15.7695 46.8605L16.668 49.4209L17.5745 51.7813L18.522 54.0304L20.033 57.495L20.8419 58.9032L21.7971 59.8875L23.2594 60.6719L24.7704 61.1278L26.6245 61.248L27.7683 61.2724L30.3817 61.2957Z" fill="black"/>
<path fill-rule="evenodd" clip-rule="evenodd" d="M13.3182 9.01008V6.2494L13.5386 6.20934L13.8162 6.16929H14.1103L14.3307 6.20934H14.347L14.5429 6.27344L14.7388 6.38523L14.9347 6.53709L15.0901 6.71334L15.2127 6.90525L15.2863 7.11355L15.3432 7.34552V7.53743L15.3269 7.75337L15.2863 7.96131L15.1882 8.16123L15.0737 8.32947L14.8938 8.50536L14.6816 8.68161L14.4035 8.83347L14.3299 8.8575L14.1095 8.92924L13.8319 8.98532L13.4969 9.00935H13.3182V9.01008ZM48.3338 8.86588L48.3743 8.84985L48.6278 8.71402L48.8646 8.54578L49.0445 8.35387L49.1753 8.16196L49.2567 7.96204L49.314 7.7541L49.3385 7.57821V7.41034L49.298 7.19439L49.2407 7.01814L49.1586 6.86629L49.0445 6.67437L48.8646 6.49849L48.6687 6.3703L48.4479 6.27453L48.3338 6.2505L48.2356 6.23447L47.9576 6.21044H47.6803L47.4435 6.2505L47.3287 6.27453V9.04322H47.5413L47.7613 9.0272L47.974 8.98714L48.178 8.93106L48.3338 8.86588ZM48.3338 5.67294H48.6438L48.9051 5.68896L49.2158 5.72902L49.5099 5.7851L49.8039 5.90491L50.0819 6.0411L50.2778 6.19332L50.457 6.38523L50.6123 6.61757L50.751 6.90561L50.8331 7.178L50.8737 7.44202L50.8491 7.67399L50.8086 7.92999L50.7105 8.16196L50.5956 8.38592L50.4165 8.58584L50.2038 8.77811L49.9671 8.94599L49.7057 9.06616L49.4117 9.17832L49.1582 9.23404L49.0441 9.2741L49.24 9.37023L49.4114 9.49004L49.5745 9.64226L49.7054 9.79411L51.5022 11.9146L51.6576 12.0905L51.8368 12.2427L52.0334 12.3785L52.2285 12.5147L52.3679 12.5949L52.5233 12.6506L52.6779 12.6906V12.8028H51.0692L50.8733 12.7868L50.6692 12.7467L50.4971 12.6666L50.3425 12.5548L50.1793 12.3785L48.333 10.0498L48.055 9.69761L47.9569 9.60147L47.8587 9.50534L47.7446 9.4336L47.622 9.35348L47.4833 9.31343L47.3447 9.2974L47.3279 12.8024H45.5556V12.6903L45.637 12.6101L45.6943 12.53L45.7515 12.4339L45.792 12.3217L45.8326 12.2016L45.8731 12.0894V6.44131L45.8493 6.34518L45.8326 6.2494L45.7753 6.16929L45.7099 6.09755L45.6534 6.01743L45.5802 5.96135L45.4162 5.86522L45.2776 5.80914L45.2044 5.78547V5.6733H48.3338V5.67294ZM22.8008 12.0909L22.964 12.1069H23.2007L23.3966 12.0909L23.6334 12.0111L23.9029 11.8749L24.1233 11.7227L24.2951 11.5468L24.4582 11.3389L24.6132 11.0668L24.7277 10.8189L24.8259 10.5304L24.8913 10.2424L24.9322 9.91429L24.9485 9.6022V9.31415L24.9076 9.01008L24.8259 8.68234L24.7523 8.35423L24.5969 7.98607L24.4173 7.65796L24.2215 7.34588L23.9847 7.08187L23.707 6.82586L23.429 6.63395L23.1595 6.49776L22.8001 6.40162L22.506 6.36957L22.1957 6.40162L21.9343 6.46571L21.6972 6.5939L21.4686 6.76978L21.2887 6.94567L21.1337 7.13758L20.9947 7.40961L20.856 7.69766L20.7579 7.98571L20.7006 8.31381L20.6598 8.68198V9.04176L20.7006 9.40993L20.7579 9.79411L20.856 10.1463L20.9947 10.4904L21.2318 10.9303L21.4441 11.2263L21.5667 11.3545L21.624 11.4346L21.6812 11.5148L21.779 11.6109L21.9752 11.7628L22.1957 11.8989L22.4488 12.0111L22.6856 12.0748L22.8008 12.0909ZM22.8008 5.53711H23.0621L23.4706 5.59319L23.8301 5.6733L24.1813 5.78547L24.4995 5.94533L24.8099 6.11357L25.1284 6.32952L25.4224 6.59353L25.6756 6.86556L25.896 7.15361L26.0674 7.46569L26.2473 7.83385L26.3859 8.27376L26.4595 8.64192L26.5 8.98605V9.35421L26.4432 9.81815L26.3614 10.2184L26.2224 10.5865L26.0265 11.0108L25.8142 11.3545L25.5775 11.6506L25.2998 11.939L24.9649 12.203L24.6545 12.4193L24.3359 12.5952L23.9438 12.7471L23.4702 12.8833L23.103 12.9393H22.7276L22.3514 12.9233L21.976 12.8592L21.6411 12.7871L21.2489 12.6273L20.8571 12.4354L20.5631 12.2274L20.326 12.0355L20.2278 11.9153L20.1052 11.8192L19.9093 11.5872L19.7379 11.3392L19.5584 11.0275L19.4034 10.7074L19.2807 10.3393L19.2071 9.91501L19.1417 9.53083V9.13863L19.1826 8.75444L19.2644 8.35423L19.4034 7.94601L19.5424 7.60188L19.7383 7.27378L19.9505 6.96169L20.2037 6.67365L20.4654 6.42529L20.7594 6.19332L21.0943 5.97701L21.5273 5.76908L21.9031 5.64927L22.2544 5.57717L22.6056 5.53711H22.8008ZM31.0259 12.8989H31.5567L34.3423 6.49739L34.4077 6.38523L34.481 6.27344L34.5791 6.15326L34.6772 6.05713L34.7999 5.97701L35.0118 5.84883L35.1344 5.7851V5.67294H33.0674V5.7851L33.1246 5.82479L33.2068 5.90491L33.2633 6.00105L33.3045 6.09718L33.3205 6.20934L33.3045 6.34518L33.2633 6.46535L31.54 10.3942L29.8246 6.52106L29.7673 6.36921L29.7514 6.23338V6.13724L29.7673 6.0411L29.8246 5.94497L29.89 5.84883L29.9881 5.7851V5.67294H27.4483V5.7851L27.5219 5.82479L27.7259 5.92093L27.8976 6.0411L28.0527 6.19332L28.1753 6.34518L28.2158 6.42529L28.2567 6.49739L31.0259 12.8989ZM37.3156 12.691V12.8031H42.6247L43.0819 11.3228L42.9838 11.2828L42.8611 11.4346L42.7225 11.6105L42.5916 11.7467L42.4522 11.8589L42.3136 11.9146L42.1582 11.9386H39.1039V9.46637H41.5219L41.62 9.49004L41.7014 9.54612L41.7835 9.60184L41.8408 9.65792L41.8813 9.73803H41.9954V8.36953H41.8813L41.8568 8.38555L41.7995 8.4897L41.743 8.54578L41.6449 8.60186L41.5468 8.64192H39.1043V6.48137H41.4237L41.6196 6.49739L41.7988 6.53709L41.9787 6.6172L42.1341 6.71334L42.2727 6.84953L42.3868 6.98537L42.4522 7.09753H42.5671L42.5266 5.67294H36.9967V5.7851H37.0621L37.1602 5.82479L37.2744 5.88087L37.3725 5.96099L37.4714 6.07315L37.5695 6.20934L37.61 6.34518L37.6345 6.48137L37.6505 6.59353L37.6345 11.939V12.0512L37.61 12.187L37.5528 12.3629L37.4955 12.5151L37.4141 12.6112L37.3156 12.691ZM14.3307 5.67294H11.2188V5.7851H11.276L11.431 5.84883L11.57 5.90491L11.6681 5.97701L11.7499 6.07315L11.8068 6.20934L11.8477 6.34518L11.864 6.48137V11.9146L11.8477 12.0905L11.8068 12.2427L11.7499 12.3946L11.6681 12.5544L11.57 12.6906V12.7868H13.3018L13.3182 9.2741H13.3999L13.4817 9.29813L13.6776 9.37023L13.849 9.46637L13.988 9.6022L14.0861 9.7384L14.1515 9.81851L14.3311 10.0505L16.2342 12.4594L16.3732 12.5956L16.5282 12.7077L16.6832 12.7635L16.8628 12.7875H18.5782V12.6914L18.4719 12.6513L18.2188 12.5315L17.9816 12.3953L17.7121 12.1473L17.0014 11.3228L16.3725 10.5869L15.6618 9.73876L15.5473 9.6266L15.4246 9.50643L15.3101 9.41066L15.0325 9.2344L15.1715 9.21838L15.4492 9.12224L15.7432 9.02611L15.9963 8.89027L16.2086 8.71439L16.4126 8.54615L16.5676 8.3302L16.6821 8.09787L16.7802 7.84988L16.8208 7.61791V7.34588L16.7802 7.08187L16.723 6.82586L16.6085 6.5939L16.4695 6.3856L16.3145 6.20971L16.0941 6.04147L15.8409 5.90527L15.5796 5.78547L15.3098 5.71336L15.0321 5.6733H14.3307V5.67294Z" fill="#EFC261"/>
<path fill-rule="evenodd" clip-rule="evenodd" d="M31.9991 0H27.8088L23.1123 0.064092L16.4558 0.256367L13.4743 0.45629L12.445 0.584109L11.4158 0.888181L10.4601 1.28839L9.55353 1.8004L8.71198 2.43257L7.96856 3.18456L7.30692 4.001L6.80066 4.90521L6.39215 5.86549L6.11449 6.88185L6 7.91388V8.8982L6.29402 13.1792L6.61257 16.3802L7.05454 20.1729L7.60169 24.1338L8.21426 27.9029L8.85137 31.4556L9.53754 34.8728L10.346 38.2413L11.2362 41.5941L12.2655 45.011L13.3438 48.3481L14.43 51.4129L15.4838 54.1179L17.6727 59.0868L18.6856 60.6315L19.9517 61.9756L21.5036 62.9516L23.1945 63.5918L24.9099 63.8798L25.7674 63.9523L30.6439 64H37.4725L38.436 63.9523L39.4894 63.8241L40.5595 63.5914L41.6137 63.248L42.6266 62.7757L43.8109 61.9116L44.8156 60.9272L45.6322 59.8071L46.269 58.6228L47.0618 56.8385L48.0747 54.4216L49.1527 51.6612L50.2306 48.772L51.2435 45.8595L52.1501 42.9149L52.9668 39.9375L54.3882 33.7924L55.0494 30.6555L55.662 27.4626L56.2006 24.2616L56.6667 21.0607L57.3767 15.3791L57.9161 10.026L57.9982 8.89747L57.9161 7.71323L57.6626 6.55338L57.2217 5.41721L56.6497 4.40085L55.9389 3.43255L55.0814 2.59207L54.0934 1.86376L53.0314 1.28766L51.8713 0.911487L50.712 0.671507L49.3724 0.551335L44.2424 0.279309L33.2897 0H31.9991ZM31.9991 63.0641H30.6517L25.8161 63.0157L25.04 62.9439L23.4554 62.6799L21.9362 62.1038L20.5721 61.2473L19.4532 60.0554L18.5221 58.6385L17.3297 55.9663L16.3822 53.7657L15.3284 51.0928L14.2586 48.0521L13.1807 44.7306L12.1596 41.3381L11.2775 38.0173L10.4768 34.6722L9.79068 31.2877L9.16175 27.751L8.54917 23.998L8.0102 20.0531L7.56898 16.276L7.2586 13.0991L7.06271 10.5227L6.96458 8.87453V7.96231L7.06271 7.05811L7.30767 6.16993L7.66711 5.31379L8.10833 4.52175L8.69637 3.80144L9.34983 3.13722L10.0851 2.58516L10.8935 2.12887L11.7429 1.77673L12.6495 1.51271L13.5724 1.39254L16.4967 1.20063L19.3309 1.10449L23.1372 1.00835L27.8174 0.93625H33.2737L39.0563 1.08009L44.2023 1.2243L47.6651 1.39254L49.2991 1.48868L50.5733 1.60848L51.6186 1.82479L52.6393 2.1529L53.5708 2.6569L54.4443 3.3051L55.2045 4.04106L55.8412 4.90521L56.3478 5.80941L56.74 6.81776L56.9608 7.84177L57.034 8.89783L56.9608 9.94624L56.7154 12.3147L56.4214 15.2757L55.9888 18.8364L55.7193 20.9409L55.2531 24.1178L54.7145 27.2947L54.1098 30.4716L53.4485 33.6005L52.7129 36.7526L52.0356 39.7136L51.2268 42.6502L50.328 45.5711L49.3233 48.4596L48.2531 51.3324L47.1752 54.0771L46.179 56.4696L45.3951 58.2143L44.8148 59.3104L44.0792 60.3111L43.1812 61.1989L42.127 61.9669L41.2535 62.3675L40.2975 62.6796L39.3255 62.8951L38.3453 63.0153L37.4472 63.0638H31.9991V63.0641Z" fill="black"/>
<path fill-rule="evenodd" clip-rule="evenodd" d="M23.3639 55.6324L22.8167 54.3356C23.0044 54.3917 23.1843 54.4394 23.3639 54.4878C23.7069 54.576 24.0419 54.64 24.3686 54.6797C24.5563 54.6961 24.7444 54.7038 24.9321 54.7038C25.2016 54.7038 25.4792 54.6797 25.7814 54.632C25.8878 54.608 25.9937 54.5916 26.1082 54.5596C26.2632 54.5439 26.4104 54.5275 26.5494 54.5119C26.8237 54.487 27.0995 54.4815 27.3746 54.4955C28.3548 54.5439 29.0896 54.8797 29.7922 55.6564C29.9472 55.8243 30.1025 56.0085 30.2579 56.2241C30.2661 56.2405 30.2743 56.2562 30.2906 56.2645C30.2743 56.2645 30.2661 56.2562 30.2579 56.2562C30.0947 56.1844 29.9475 56.1123 29.7922 56.0563C28.9592 55.7121 28.2076 55.5286 27.3746 55.5839C27.1133 55.6003 26.8434 55.64 26.5494 55.7121C26.4349 55.7362 26.3126 55.7762 26.19 55.8083C26.0509 55.8724 25.9123 55.9284 25.7814 55.9689C25.5068 56.0588 25.2212 56.1124 24.9321 56.1284C24.7434 56.1311 24.5549 56.1178 24.3686 56.0887C24.0465 56.0377 23.7332 55.9433 23.4375 55.8083L23.3639 55.6324ZM43.261 46.086C46.5042 37.3873 48.3255 28.6414 48.7088 19.391H49.1749L49.2648 18.351H14.6328L14.6982 19.2472L15.1636 19.3033C15.629 28.5216 17.3362 37.4041 20.5705 46.0619C21.3957 44.806 22.335 43.7412 23.3639 42.8614C23.6854 42.5839 24.0207 42.3221 24.3686 42.077C24.5545 41.9488 24.7424 41.8234 24.9321 41.7008C25.2088 41.5253 25.4921 41.36 25.7814 41.2052C26.0346 41.0693 26.2959 40.9492 26.549 40.829C26.8217 40.7115 27.0968 40.5995 27.3742 40.4932C27.967 40.2747 28.5759 40.1006 29.1956 39.9725C28.8077 41.1969 28.3299 42.3923 27.766 43.5493L28.0191 43.6935C28.6148 42.4697 29.1171 41.2045 29.5219 39.908L29.7914 39.8603L29.9464 39.8363C29.8986 40.0187 29.8469 40.2001 29.7914 40.3804C29.3842 41.7405 28.8765 43.0698 28.2723 44.3577C27.9374 44.0376 27.6433 43.869 27.3738 43.8293C27.0308 43.7732 26.7531 43.9174 26.5487 44.1891C26.1156 44.7652 26.0669 45.8941 26.5487 46.598C26.7445 46.8696 27.0144 47.086 27.3738 47.1741C27.3902 47.1817 27.4066 47.1817 27.4229 47.1897C28.4763 47.1897 28.6317 46.1501 28.6317 45.3333C29.277 46.3496 28.5581 47.6056 27.3738 47.5579C27.3084 47.5579 27.243 47.5503 27.1694 47.5422C27.1367 48.166 26.9326 48.6303 26.5487 48.8944C26.3446 49.0382 26.0915 49.1263 25.7811 49.1504C25.634 49.1592 25.4865 49.1566 25.3399 49.1427C25.2336 49.5502 25.0949 49.8306 24.9313 50.0389C24.7682 50.2465 24.5801 50.3823 24.3678 50.5025C24.1147 50.6467 23.8285 50.7672 23.5018 50.9427L23.9021 51.5112C24.0571 51.4151 24.2125 51.3269 24.3678 51.2308C24.5555 51.1106 24.7433 50.9907 24.9313 50.871C25.2178 50.6781 25.5009 50.4806 25.7807 50.2785C26.0417 50.0795 26.2977 49.8742 26.5483 49.6627C26.8329 49.4279 27.1081 49.1824 27.3735 48.9268C28.286 48.0633 29.0969 47.1023 29.7911 46.0619C29.9542 45.83 30.1014 45.582 30.2568 45.342C30.4539 45.0094 30.6445 44.6731 30.8285 44.3333C30.9671 44.0609 31.1062 43.7892 31.237 43.5088L31.2861 39.7078C31.4169 39.7078 31.5556 39.7001 31.6864 39.7001V57.1604H32.2257V39.7078C32.3399 39.7154 32.4547 39.7154 32.5607 39.7241L32.6093 43.5485C32.7487 43.8289 32.8796 44.1013 33.026 44.373C33.2073 44.7143 33.398 45.0506 33.5981 45.3817C33.7449 45.6293 33.9081 45.8697 34.0635 46.1093C34.7555 47.1466 35.5636 48.105 36.4729 48.9665C36.7426 49.2227 37.0203 49.4708 37.3055 49.7104C37.5578 49.9175 37.8139 50.1203 38.0735 50.3186C38.3515 50.5192 38.6288 50.7192 38.9228 50.9111C39.1027 51.0312 39.2901 51.1514 39.4863 51.2709C39.6335 51.367 39.7889 51.4628 39.9524 51.5513L40.3524 50.9828C40.0257 50.8073 39.7316 50.6871 39.4863 50.5425C39.2663 50.4231 39.0782 50.2865 38.9228 50.079C38.7596 49.8707 38.621 49.591 38.5061 49.1828C38.3624 49.197 38.2176 49.1995 38.0735 49.1904C37.7716 49.1664 37.5099 49.0866 37.3055 48.9421C36.9223 48.6781 36.7175 48.2061 36.6848 47.5823C36.6115 47.5899 36.5461 47.598 36.4729 47.6056C35.2886 47.646 34.5694 46.3893 35.2236 45.3817C35.2236 46.1974 35.3782 47.2302 36.4324 47.2302C36.4483 47.2218 36.4562 47.2218 36.4729 47.2138C36.8401 47.1256 37.1182 46.9101 37.3055 46.6297C37.7876 45.9254 37.7304 44.8209 37.3055 44.2448C37.1104 43.9644 36.8241 43.8129 36.4729 43.8686C36.2116 43.9171 35.9094 44.0769 35.5826 44.405C34.9795 43.1196 34.4716 41.7933 34.0631 40.4364C34.0059 40.2445 33.9572 40.0603 33.8999 39.876C33.9572 39.8844 34.014 39.8924 34.0631 39.9C34.178 39.9241 34.2917 39.9397 34.4066 39.9641C34.8084 41.25 35.3079 42.5046 35.9008 43.7175L36.1543 43.5733C35.5967 42.4284 35.122 41.2464 34.7337 40.0362C35.3217 40.1728 35.9012 40.3483 36.4733 40.5646C36.7595 40.6764 37.0368 40.7886 37.3059 40.9168C37.5679 41.0369 37.8207 41.1651 38.0738 41.3009C38.36 41.4532 38.6459 41.621 38.9232 41.7966C39.1113 41.9167 39.2993 42.0449 39.4867 42.1727C39.8301 42.4131 40.1736 42.6771 40.5003 42.9571C41.5292 43.8289 42.4607 44.8773 43.261 46.086ZM40.5007 54.5439C40.688 54.4955 40.868 54.4394 41.056 54.376L40.5007 55.6721L40.4186 55.872C40.084 56.0002 39.7733 56.0883 39.4871 56.1367C39.3007 56.1656 39.1122 56.1789 38.9235 56.1764C38.6343 56.1674 38.348 56.1161 38.0742 56.0242C37.9323 55.9816 37.7932 55.9308 37.6575 55.872C37.5426 55.8328 37.4253 55.8007 37.3062 55.7759C37.0329 55.7087 36.7544 55.6633 36.4736 55.64C35.6488 55.5839 34.8976 55.7759 34.0642 56.1123C33.9088 56.1764 33.7542 56.2405 33.5988 56.3123C33.5903 56.3199 33.5743 56.3286 33.5661 56.3286C33.5739 56.3123 33.5899 56.3046 33.5988 56.2882C33.7542 56.0726 33.9088 55.8884 34.0642 55.7121C34.7831 54.9441 35.5425 54.6003 36.4736 54.5519C36.7514 54.5367 37.0299 54.5447 37.3062 54.576C37.5516 54.608 37.8051 54.6477 38.0742 54.7041L38.295 54.7518C38.5069 54.7682 38.7117 54.7682 38.9235 54.7682C39.1119 54.7628 39.2999 54.7496 39.4871 54.7285C39.8296 54.6947 40.1687 54.633 40.5007 54.5439ZM40.5007 50.3186C41.0456 50.7809 41.5981 51.2345 42.1581 51.6791L42.0689 51.7992C41.5463 51.383 41.0237 50.9748 40.5007 50.5509C40.3652 50.444 40.2316 50.3347 40.1 50.2232C39.8885 50.2259 39.6791 50.1818 39.4874 50.0943C39.2101 49.9748 39.0221 49.7509 38.9239 49.4464C38.8817 49.3196 38.857 49.1878 38.8507 49.0546L38.9239 49.0062L38.9734 48.9741L39.4874 49.4308C39.8227 49.7268 40.1572 50.0225 40.5007 50.3186ZM40.5007 49.8226C41.1047 50.2949 41.7095 50.7672 42.3053 51.2628L42.4362 50.9508C41.7793 50.4777 41.134 49.9895 40.5007 49.4865C40.1608 49.2115 39.8229 48.9341 39.4871 48.6544C39.4543 48.6311 39.4306 48.6067 39.3978 48.5826L39.2257 48.7669C39.3157 48.8386 39.3979 48.9107 39.4871 48.9832C39.8227 49.2709 40.1572 49.5426 40.5007 49.8226ZM40.5007 49.0469C41.1828 49.5878 41.8689 50.1238 42.5589 50.6551L42.8607 50.0149C42.0674 49.4365 41.2806 48.8497 40.5003 48.2545C40.159 47.992 39.8211 47.7253 39.4867 47.4545C39.2993 47.3103 39.1113 47.1581 38.9232 47.0066C38.637 46.7739 38.3519 46.5423 38.0738 46.3103C38.0333 46.2783 37.9924 46.2462 37.9597 46.2142L37.6977 46.7739C37.8292 46.8784 37.9512 46.9745 38.0738 47.0783C38.3514 47.3169 38.6346 47.549 38.9232 47.7746C39.1113 47.9268 39.2993 48.0783 39.4867 48.2305C39.8227 48.5025 40.1654 48.7746 40.5007 49.0469ZM40.5007 46.7899C41.0148 47.0219 41.2434 47.8296 41.178 48.3904L40.8185 48.1664C40.8185 47.8143 40.7126 47.5823 40.5007 47.4304C40.3613 47.3343 40.1822 47.2782 39.9532 47.2462C40.2305 47.3423 40.2959 47.4781 40.3286 47.7505L39.7573 47.2946V46.8303C40.0513 46.6941 40.2959 46.6941 40.5007 46.7899ZM40.5007 17.4705L44.7478 17.9748L40.5007 17.5185L39.4871 17.4064L38.9235 17.3423L38.0742 17.2545L37.3062 17.1664L36.4736 17.0783L34.0642 16.8142L33.5988 16.7662L33.0268 16.7021L32.7 16.67V16.5419L33.0268 16.5819L33.5988 16.654L34.0642 16.7021L36.4736 16.9901L37.3062 17.0943L38.0742 17.1824L38.9235 17.2866L39.4871 17.3503L40.5007 17.4705ZM39.4871 56.5446C39.7079 56.5362 39.9443 56.5042 40.1818 56.4565L39.4871 57.9444L39.3157 58.3049C39.1847 58.2985 39.0539 58.2878 38.9235 58.2729C38.6372 58.2495 38.3532 58.2038 38.0742 58.1363C37.8154 58.0804 37.5592 58.0137 37.3062 57.9364C37.0457 57.8566 36.7676 57.7765 36.4736 57.6804C35.5016 57.4564 34.7827 57.5923 34.0642 57.7929C33.9088 57.8326 33.7542 57.8803 33.5988 57.9288C33.4094 57.984 33.2187 58.0348 33.0268 58.081C32.7 58.1684 32.3573 58.2325 31.9815 58.2645C31.5812 58.2168 31.1976 58.113 30.83 58.0005C30.6341 57.9444 30.446 57.8803 30.2583 57.825L29.7925 57.6808C29.4985 57.601 29.1881 57.5285 28.8696 57.4965C28.347 57.4965 27.8567 57.577 27.375 57.6884C27.1051 57.7445 26.8274 57.8166 26.5498 57.8891C26.2966 57.9531 26.0435 58.0172 25.7822 58.0646C25.5045 58.1207 25.2187 58.1607 24.9328 58.1848C24.8592 58.1924 24.7856 58.2004 24.7124 58.2004L24.3693 57.4564L23.8627 56.352C24.0422 56.3847 24.2058 56.408 24.3693 56.4244C24.5652 56.4484 24.7451 56.4565 24.9328 56.4485C25.1614 56.4485 25.3982 56.4321 25.6599 56.3924C25.7008 56.376 25.7417 56.3683 25.7826 56.352C26.0361 56.2749 26.2921 56.2056 26.5501 56.1444C26.8364 56.0803 27.114 56.0406 27.3753 56.0162C28.2083 55.9357 28.9681 56.0723 29.7929 56.5125C29.9479 56.5923 30.0951 56.6804 30.2587 56.7842C30.3077 56.8162 30.3646 56.8559 30.4137 56.888C30.5609 56.9685 30.6999 57.0402 30.8304 57.1119C31.6143 57.5202 32.1291 57.6964 33.0275 57.2562C33.1007 57.2241 33.1747 57.1837 33.2483 57.136C33.371 57.0642 33.4851 56.9921 33.5996 56.9197C33.755 56.8159 33.9096 56.7278 34.065 56.6393C34.8571 56.2074 35.6172 55.9437 36.4744 55.9991C36.7439 56.0155 37.0219 56.0632 37.307 56.1433C37.4624 56.191 37.6255 56.2471 37.7891 56.3112C37.8872 56.3352 37.9772 56.3596 38.0753 56.3836C38.3615 56.4554 38.6474 56.5118 38.9247 56.5351C39.112 56.5526 39.2912 56.5526 39.4871 56.5446ZM39.4871 51.591C39.5692 51.6394 39.651 51.6871 39.7406 51.7352L39.4871 52.0709L39.2503 52.383C39.1362 52.3189 39.0295 52.2548 38.9235 52.1987C38.6362 52.0321 38.353 51.8587 38.0742 51.6787C37.8129 51.5188 37.5594 51.3422 37.3062 51.1667C37.0217 50.9676 36.744 50.7593 36.4736 50.5422C35.5994 49.8543 34.8076 49.0939 34.0642 48.2454C33.9088 48.0699 33.7542 47.8776 33.5988 47.6934C33.4017 47.4529 33.2109 47.2075 33.0268 46.9574C32.8309 46.6934 32.6346 46.4297 32.4387 46.1493V43.8606C32.6129 44.2732 32.8092 44.6766 33.0268 45.0689C33.1981 45.389 33.394 45.7011 33.5988 46.0135C33.7457 46.2375 33.9007 46.4614 34.0642 46.6857C34.7671 47.6373 35.5916 48.5422 36.4736 49.3579C36.747 49.6027 37.0246 49.843 37.3062 50.0786C37.5598 50.2862 37.8129 50.4868 38.0742 50.6711C38.3522 50.8787 38.6377 51.0709 38.9235 51.2552C39.112 51.3746 39.2997 51.4872 39.4871 51.591ZM38.9239 52.6313C38.9485 52.647 38.9734 52.6554 38.9971 52.671L38.9239 52.7428L38.6793 52.9831L38.1073 52.6554C38.0995 52.647 38.0827 52.639 38.0746 52.6313C37.8147 52.4885 37.5587 52.3391 37.3066 52.1834C37.0247 52.003 36.7471 51.8161 36.474 51.623C35.5997 50.9908 34.824 50.2953 34.0646 49.5029L33.5992 48.9985C33.5252 48.9104 33.452 48.8306 33.3784 48.7425C33.2398 48.5903 33.1249 48.4621 33.0271 48.3507C32.5945 47.8543 32.4391 47.5903 32.4391 46.7098C32.635 46.9822 32.8313 47.2538 33.0271 47.5186C33.2152 47.7746 33.4033 48.0229 33.5992 48.2782C33.7522 48.4693 33.9074 48.6588 34.0646 48.8467C34.0789 48.8717 34.0984 48.8935 34.1218 48.9107C34.8301 49.7064 35.6181 50.4303 36.474 51.0717C36.7435 51.2716 37.0215 51.4722 37.3066 51.6558C37.5601 51.8244 37.8133 51.9842 38.0746 52.1445C38.3526 52.3113 38.6299 52.4715 38.9239 52.6313ZM38.9239 48.2458L38.9971 48.3099C38.9734 48.3503 38.9485 48.3824 38.9239 48.4144C38.6544 48.7906 38.3526 48.9421 38.0746 48.9344C37.7805 48.9188 37.5111 48.7268 37.3066 48.4301C37.1363 48.1671 37.0328 47.8681 37.0048 47.5579L37.3066 47.2622L37.5519 47.0219L38.0746 47.4698L38.1073 47.5018C38.095 47.504 38.0836 47.5097 38.0746 47.5182C37.8787 47.63 37.6824 47.4778 37.5519 47.3099C37.5519 48.0062 37.6828 48.2061 38.0746 48.1664C38.2299 48.15 38.418 48.0947 38.6548 48.0142L38.9239 48.2458ZM38.9239 45.4935C39.3161 45.7739 39.4465 46.3981 39.3978 46.9578L38.9971 46.7094C38.9971 46.5579 38.9734 46.4297 38.9239 46.3176C38.7931 46.0295 38.5158 45.8773 38.124 45.8773C38.3526 45.9498 38.4994 46.1177 38.5727 46.334L38.0746 46.0139L37.9605 45.9414L38.0664 45.3974H38.0742C38.4336 45.2936 38.7199 45.3496 38.9239 45.4935ZM38.9239 43.5973L39.3328 45.318L39.2101 45.2775L38.9239 44.1017L38.4013 41.9728H38.5321L38.9239 43.5973ZM38.0746 52.9671C38.1972 53.0312 38.3199 53.1037 38.4418 53.1678C38.3199 53.2551 38.1972 53.32 38.0746 53.3753C37.8378 53.4791 37.6014 53.5352 37.3066 53.5993C37.2988 53.5993 37.2906 53.6069 37.2828 53.6069C37.0048 53.4314 36.7353 53.2635 36.474 53.0949C35.6165 52.5509 34.8403 52.0232 34.0646 51.3743C33.9092 51.2468 33.7546 51.1103 33.5992 50.9744C33.4843 50.8706 33.3617 50.7669 33.2479 50.6543C33.1737 50.5748 33.1001 50.4947 33.0271 50.414C32.341 49.638 32.4391 49.4701 32.4391 48.1416C32.635 48.39 32.8313 48.6216 33.0271 48.8543C33.2152 49.0699 33.4033 49.2862 33.5992 49.4858C33.7546 49.6544 33.9092 49.8142 34.0646 49.9657C34.806 50.6986 35.6123 51.3655 36.474 51.9587C36.7452 52.1518 37.0229 52.3359 37.3066 52.5108C37.5598 52.6634 37.8129 52.8156 38.0746 52.9671ZM37.3062 41.7489L37.6984 43.8213H37.5516L37.3062 42.5886L37.0457 41.2445H37.217L37.3062 41.7489ZM37.3062 15.9982L37.323 16.0062H37.3062C37.0208 16.1023 36.7427 16.166 36.4736 16.1981C35.6488 16.3102 34.9136 16.1741 34.0642 15.9661C33.917 15.9341 33.7624 15.894 33.607 15.854L33.5992 15.8616L33.0271 15.9017L32.4391 15.9417V14.8372C32.6285 14.7695 32.8263 14.7266 33.0271 14.7094C33.2176 14.692 33.4094 14.6947 33.5992 14.7174C33.7546 14.7334 33.9092 14.7651 34.0646 14.8052C34.4727 14.8933 34.8812 15.0375 35.3061 15.1493L36.4744 15.0852L37.2338 15.0452L36.7684 15.6693L37.3062 15.9982ZM36.4736 45.9501C36.8818 45.83 37.1925 45.0299 36.5558 44.4054C37.0371 44.4054 37.2579 44.8216 37.2579 45.2539C37.2579 46.094 36.8658 46.4942 36.474 46.5583C35.9592 46.638 35.4533 46.1257 35.8127 45.2298C35.951 45.8376 36.2283 46.0139 36.4736 45.9501ZM36.4736 53.7916L36.7922 53.7118L36.4736 53.5199C35.6321 53.0155 34.8154 52.4638 34.0642 51.8393C33.9051 51.7077 33.7499 51.5716 33.5988 51.4311C33.4021 51.2506 33.2113 51.0639 33.0268 50.8714C32.8223 50.6546 32.6261 50.4303 32.4387 50.1991V50.9908C32.6346 51.1915 32.8309 51.3914 33.0268 51.5753C33.2149 51.7508 33.4029 51.9194 33.5988 52.0873C33.7542 52.2231 33.9088 52.3513 34.0642 52.4715C34.685 52.9671 35.3302 53.4238 36.0242 53.8953L36.4736 53.7916ZM34.0642 44.2131C34.3423 44.0773 34.6195 43.4451 34.2029 43.2372C34.2029 43.4691 34.2683 43.7251 34.0642 43.8133C34.0063 43.8309 33.9457 43.8388 33.885 43.8366L33.7129 43.653C33.7126 44.1891 33.8929 44.3012 34.0642 44.2131ZM34.0642 54.9758L34.3504 54.7282C34.2523 54.6797 34.1545 54.64 34.0642 54.5916C33.9052 54.5076 33.7499 54.4169 33.5988 54.32C33.4011 54.1964 33.2101 54.0627 33.0268 53.9194C32.8245 53.7615 32.6283 53.5961 32.4387 53.4238V54.1677L33.0268 54.5119L33.5988 54.8476L33.9661 55.0639L34.0642 54.9758ZM34.0642 54.1521C34.2523 54.2715 34.4482 54.384 34.6523 54.5035C35.0284 54.2318 35.1998 54.1357 35.6652 54.0235C35.0938 53.616 34.5623 53.2639 34.0642 52.8797C33.9088 52.7595 33.7542 52.6394 33.5988 52.5112C33.4043 52.3447 33.2135 52.174 33.0268 51.9992C32.8227 51.8015 32.6265 51.5961 32.4387 51.3834V52.9438C32.6346 53.1117 32.8309 53.2715 33.0268 53.4238C33.2149 53.5676 33.4029 53.7118 33.5988 53.84L34.0642 54.1521ZM33.5988 42.349C33.7542 42.2929 33.7947 42.0766 33.6475 41.869C34.0475 42.0609 33.8356 42.5169 33.5988 42.6527C33.4267 42.7488 33.2476 42.6847 33.2476 42.2609C33.3858 42.3646 33.5085 42.381 33.5988 42.349ZM33.5988 55.2959C33.6066 55.3043 33.6226 55.3043 33.6315 55.3123C33.623 55.3199 33.607 55.3363 33.5988 55.3443C33.399 55.5497 33.2081 55.7633 33.0268 55.9845C32.8147 56.2376 32.6132 56.4991 32.4228 56.7682L32.4387 54.5599C32.6156 54.7344 32.813 54.8877 33.0268 55.0166C33.1978 55.1124 33.378 55.1998 33.5988 55.2959ZM33.0264 40.9244C33.3699 41.1243 33.3937 40.8527 33.3126 40.5402C33.5899 40.676 33.5085 41.3082 33.0758 41.2044C33.0609 41.1692 33.0444 41.1345 33.0264 41.1007C32.9937 41.0366 32.9692 40.9805 32.9692 40.8924C32.9941 40.9 33.0108 40.9164 33.0264 40.9244ZM30.8296 40.8683C30.8481 40.8578 30.8646 40.8444 30.8787 40.8286C30.8787 40.9324 30.8623 41.0129 30.8296 41.069C30.6583 41.3406 30.168 40.9885 30.5029 40.4929H30.5438C30.4947 40.6928 30.4702 40.7809 30.5847 40.9488C30.6824 40.932 30.756 40.9244 30.8296 40.8683ZM30.8296 54.9678C31.0382 54.8386 31.2325 54.6885 31.4095 54.5199L31.434 56.7041C31.2464 56.4276 31.0447 56.1606 30.8296 55.904C30.6419 55.6965 30.4538 55.4878 30.2579 55.2802C30.2433 55.2739 30.2317 55.2625 30.2252 55.2482C30.2334 55.2482 30.2416 55.2405 30.2579 55.2405C30.4702 55.1521 30.6579 55.0719 30.8296 54.9678ZM30.8296 53.8556C31.0255 53.7118 31.2136 53.5436 31.4095 53.36V54.104C31.2136 54.2639 31.0255 54.3997 30.8296 54.5279C30.6419 54.6404 30.4538 54.7442 30.2579 54.84C30.1353 54.896 30.013 54.9525 29.8821 54.9998L29.7922 54.9201L29.4982 54.6641C29.6045 54.6237 29.7026 54.576 29.7922 54.5199C29.9554 54.4394 30.1107 54.352 30.2579 54.2639C30.4556 54.1376 30.6464 54.0013 30.8296 53.8556ZM30.8296 51.9351C31.0331 51.7393 31.2267 51.5338 31.4095 51.3193V52.9034C31.2225 53.0681 31.029 53.2256 30.8296 53.3757C30.6419 53.5199 30.4456 53.6561 30.2579 53.7919C30.1025 53.8881 29.9475 53.9918 29.7922 54.0876C29.6045 54.2078 29.4082 54.3203 29.2041 54.4398C28.8202 54.2001 28.6406 54.0876 28.1831 53.9838C28.7633 53.5756 29.2941 53.2158 29.7922 52.8236C29.9472 52.7034 30.1025 52.5833 30.2579 52.4551C30.4456 52.2872 30.6415 52.1193 30.8296 51.9351ZM30.8296 50.8229C31.0361 50.6047 31.2298 50.375 31.4095 50.135V50.9267C31.2136 51.135 31.0255 51.3273 30.8296 51.5112C30.6419 51.6955 30.4456 51.871 30.2579 52.0389C30.1025 52.1754 29.9475 52.3036 29.7922 52.4314C29.1646 52.9379 28.5075 53.4081 27.824 53.8396L27.375 53.7271L27.0646 53.6474C27.1709 53.5833 27.2772 53.5272 27.375 53.4631C28.2161 52.9587 29.041 52.4147 29.7925 51.7909C29.9475 51.6627 30.1029 51.5261 30.2583 51.3903C30.4548 51.2072 30.6454 51.018 30.8296 50.8229ZM30.8296 48.8142C31.0295 48.574 31.2228 48.3286 31.4095 48.0783C31.4095 49.4067 31.5076 49.5746 30.8296 50.3506C30.7642 50.4231 30.6906 50.5028 30.6092 50.591C30.4865 50.7111 30.3724 50.8149 30.2579 50.9267C30.1025 51.0633 29.9475 51.1991 29.7922 51.3273C29.0164 51.9675 28.2239 52.4875 27.3746 53.0399C27.1211 53.2078 26.8598 53.3677 26.5985 53.5436C26.5821 53.5436 26.5658 53.5436 26.5494 53.5359C26.2476 53.4798 26.0186 53.4157 25.7818 53.3039C25.6512 53.2506 25.5254 53.1864 25.406 53.112C25.5369 53.0403 25.6592 52.9678 25.7818 52.9037C26.0418 52.7559 26.2977 52.6013 26.5494 52.4402C26.8301 52.2726 27.1053 52.0964 27.3746 51.9118C28.2485 51.3124 29.0488 50.6722 29.7922 49.9351C29.9472 49.7753 30.1025 49.6238 30.2579 49.4552C30.4456 49.2465 30.6415 49.0306 30.8296 48.8142ZM30.8296 47.4545L31.4095 46.6701C31.4095 47.5426 31.2463 47.7982 30.8296 48.2946C30.7233 48.4148 30.6092 48.5429 30.4783 48.7028C30.4051 48.7909 30.3312 48.8707 30.2579 48.9512C30.1025 49.1267 29.9475 49.2946 29.7922 49.4548C29.0164 50.2549 28.2403 50.9271 27.3746 51.5436C27.1055 51.7361 26.8303 51.9202 26.5494 52.0957C26.3044 52.2555 26.0431 52.4158 25.7818 52.5756C25.5859 52.6882 25.3815 52.8076 25.1774 52.9198L24.9325 52.6958L24.8589 52.6317C24.8834 52.6153 24.9079 52.6077 24.9325 52.592C25.2184 52.4313 25.5016 52.2658 25.7818 52.0957C26.0419 51.9395 26.2979 51.7768 26.5494 51.6077C26.8327 51.4214 27.108 51.2238 27.3746 51.0152C28.258 50.356 29.0683 49.6076 29.7922 48.7826C29.9148 48.6467 30.0375 48.4945 30.1598 48.3507L30.2579 48.2225L30.8296 47.4545ZM30.8296 45.0132C31.0479 44.6196 31.2415 44.2134 31.4095 43.7969V46.0856C31.2246 46.366 31.0312 46.6409 30.8296 46.9101C30.6419 47.1661 30.4456 47.4137 30.2579 47.654C30.1025 47.8383 29.9475 48.0226 29.7922 48.1981C29.0488 49.0466 28.2566 49.7986 27.3746 50.4948C27.1061 50.706 26.8309 50.9089 26.5494 51.103C26.2982 51.2829 26.0423 51.4563 25.7818 51.623C25.5042 51.7992 25.2183 51.9671 24.9325 52.135C24.8262 52.1991 24.712 52.2552 24.6057 52.3193L24.369 52.0236L24.1158 51.6958C24.1976 51.6474 24.2872 51.5997 24.369 51.5516C24.5587 51.4372 24.7466 51.3198 24.9325 51.1995C25.2212 51.0127 25.5044 50.818 25.7818 50.6154C26.0433 50.4223 26.2993 50.2222 26.5494 50.0152C26.8322 49.7836 27.1074 49.5433 27.3746 49.2946C28.2674 48.4832 29.0771 47.5882 29.7922 46.6224C29.9554 46.4061 30.1107 46.1821 30.2579 45.9582C30.4591 45.6494 30.6498 45.3343 30.8296 45.0132ZM30.8296 16.5182L31.1563 16.4781V16.6063L30.8296 16.6384L30.2579 16.7024L29.7922 16.7505L27.3746 17.0145L26.5494 17.1027L25.7818 17.1908L24.9325 17.2785L24.369 17.3426L23.3642 17.4548L19.1085 17.9187L23.3642 17.4067L24.369 17.2869L24.9325 17.2228L25.7818 17.1187L26.5494 17.0306L27.3746 16.9344L29.7922 16.6464L30.2579 16.5903L30.8296 16.5182ZM31.728 17.9187H32.0793V14.4061L32.3161 14.2382V14.0703H31.5158V14.2382L31.728 14.4061V17.9187ZM30.2579 42.3006C30.3475 42.349 30.4702 42.3326 30.6092 42.1968C30.6092 42.637 30.4215 42.7011 30.2579 42.605C30.0208 42.4684 29.8085 41.9968 30.2007 41.8049C30.0698 41.9968 30.1189 42.2208 30.2579 42.3006ZM29.7922 43.7652C29.874 43.7972 29.9881 43.7575 30.1353 43.613C30.1353 44.1093 29.9639 44.2295 29.7922 44.1658C29.5145 44.0532 29.2368 43.4615 29.6699 43.1734C29.6208 43.4371 29.6535 43.7011 29.7922 43.7652ZM27.3746 46.5262C27.5296 46.5495 27.7013 46.5099 27.889 46.3981C28.2239 46.0055 28.2239 45.6293 28.0362 45.1734C27.8972 45.7815 27.6195 45.9578 27.3746 45.8941C26.9661 45.7815 26.6557 44.9658 27.2928 44.3413C26.2227 44.3413 26.4922 46.3981 27.3746 46.5262ZM26.5494 47.1897L26.8679 47.5018L26.7453 48.0779C26.688 48.2137 26.6226 48.3263 26.5494 48.4221C26.3372 48.7177 26.0677 48.8623 25.7818 48.8623C25.4878 48.8547 25.1774 48.6937 24.9325 48.3503C24.906 48.3168 24.8814 48.282 24.8589 48.2458L24.9325 48.1904L25.2183 47.9585C25.4387 48.0867 25.6268 48.1497 25.7818 48.1497C26.1576 48.166 26.3208 47.7975 26.3208 47.2458C26.1413 47.4221 26.0922 47.5018 25.8309 47.5018L25.7818 47.4457L25.7655 47.4381L25.7818 47.4304L26.3208 46.9581L26.5494 47.1897ZM26.5494 41.6363L26.6393 41.1804H26.8107L26.5494 42.5333L26.3208 43.7816H26.1494L26.5494 41.6363ZM25.7818 46.2458C25.8145 46.2138 25.8554 46.1817 25.8963 46.1497L26.1494 46.7094C26.0268 46.8139 25.9045 46.9177 25.7818 47.0138C25.3161 47.4067 24.8451 47.7935 24.369 48.1741C24.034 48.4388 23.6991 48.7105 23.3642 48.9741C22.6763 49.5175 21.9847 50.0564 21.2894 50.5906L20.9953 49.9504C21.7968 49.379 22.5866 48.7921 23.3642 48.1901C23.6991 47.9341 24.034 47.6693 24.369 47.3977C24.5567 47.2455 24.7448 47.102 24.9325 46.9417C25.2183 46.7182 25.496 46.4778 25.7818 46.2458ZM25.7818 45.3333H25.79L25.8963 45.8773L25.7818 45.9498L25.2837 46.2699C25.4064 46.0215 25.4633 45.9414 25.7249 45.8132C25.341 45.8132 25.0551 45.9895 24.9328 46.2775C24.8819 46.402 24.8569 46.5352 24.8592 46.6694L24.4507 46.8933C24.4102 46.3336 24.5407 45.7091 24.9328 45.429C25.1365 45.2856 25.4142 45.2375 25.7818 45.3333ZM24.9325 48.9665L25.0057 49.0149C24.9988 49.1456 24.9742 49.2748 24.9325 49.3991C24.8343 49.6948 24.6384 49.9111 24.369 50.0393C24.1976 50.119 23.9932 50.1587 23.7564 50.1587C23.6255 50.2712 23.4947 50.375 23.3642 50.4788C22.8416 50.9114 22.3108 51.3197 21.7796 51.7355L21.7142 51.6317C22.266 51.1695 22.816 50.7054 23.3642 50.2392L24.369 49.375C24.5403 49.2228 24.712 49.0794 24.8752 48.9348L24.9325 48.9665ZM24.9325 43.5332L25.3246 41.9087H25.4473L24.9328 44.1093L24.663 45.2295L24.5158 45.2535L24.9325 43.5332ZM24.3686 48.5903C24.3931 48.567 24.4258 48.5426 24.45 48.5186L24.6217 48.7028C24.5399 48.7746 24.45 48.8467 24.3686 48.9191C24.0337 49.2072 23.6988 49.4788 23.3639 49.7512C22.7595 50.2312 22.1469 50.7035 21.5507 51.1995L21.4444 50.9038C22.0896 50.4074 22.7268 49.9195 23.3639 49.4151C23.6988 49.1427 24.034 48.8703 24.3686 48.5903ZM23.3639 47.3583C23.4947 47.2622 23.6742 47.2061 23.9028 47.2061C23.617 47.3023 23.5597 47.398 23.5189 47.6861L24.1151 47.2302V46.7735C23.8211 46.6453 23.5676 46.6541 23.3635 46.7415C22.8409 46.9654 22.6041 47.7258 22.6691 48.3263L23.0286 48.118C23.029 47.7822 23.1434 47.5182 23.3639 47.3583Z" fill="#EFC261"/>
<path fill-rule="evenodd" clip-rule="evenodd" d="M20.8918 35.8015C19.7399 30.384 19.0868 24.9748 18.8742 19.2852H16.2031C16.5544 27.7515 18.1144 35.7455 20.8915 43.7952C20.9078 43.8436 20.9242 43.8833 20.932 43.9233L22.4839 42.2191C21.8782 40.0984 21.3472 37.958 20.8918 35.8015ZM42.9694 36.0015C44.1544 30.5438 44.8157 25.1106 44.9789 19.3492H47.65C47.3065 27.8156 45.7465 35.8095 42.9694 43.8592C42.9534 43.8989 42.9367 43.9474 42.9207 43.9874L41.3767 42.2832C41.9728 40.2057 42.504 38.1108 42.9694 36.0015ZM42.9694 34.2014C43.8928 29.368 44.2764 24.5826 44.5544 19.3653H40.8213C41.1321 24.9748 40.6254 30.656 39.5966 36.1857C39.3419 37.5878 39.0504 38.9832 38.7223 40.3706L39.5966 40.9864L40.9934 41.9707C41.808 39.4214 42.4678 36.8271 42.9694 34.2014ZM39.5962 33.8008C40.3061 29.0315 40.5764 24.2304 40.437 19.3492H37.0065C37.3418 25.0625 37.1864 30.6003 36.2958 36.1857C36.1412 37.17 35.9613 38.1536 35.7572 39.1467L36.2958 39.3543L38.3874 40.1787C38.8778 38.0696 39.2811 35.9419 39.5962 33.8008ZM36.2962 19.3012H36.6474C36.9987 23.9584 36.8515 28.6156 36.2962 33.2324C36.0579 35.1788 35.7502 37.1165 35.3736 39.0418C35.0518 38.976 34.7276 38.9227 34.4016 38.8819C34.2785 38.4071 34.167 37.9294 34.067 37.4493C33.5522 34.953 33.3968 32.4003 33.3968 29.6316L33.127 29.7361L33.0616 29.7602C33.0694 30.4564 33.0943 31.1363 33.127 31.7925C33.2329 34.2571 33.4864 36.5058 34.0663 38.7621C34.0741 38.7862 34.0823 38.8182 34.0908 38.8426H34.0663L33.6247 38.7942C33.4134 37.904 33.2471 37.0042 33.1266 36.098C32.8404 34.0893 32.7512 32.0329 32.7839 29.8403L32.4404 29.904L32.5553 38.7385C32.4486 38.7301 32.3427 38.7301 32.2286 38.7301V29.7602H31.6892V38.7301C31.5584 38.7301 31.4275 38.7385 31.3052 38.7385L31.4115 29.8639L31.0766 29.7998C31.1012 31.8803 31.0276 33.8329 30.7744 35.7455C30.6428 36.7731 30.4575 37.7935 30.2191 38.8026C30.0883 38.8182 29.9574 38.8259 29.827 38.8422C30.3908 36.6813 30.6522 34.5372 30.7744 32.2007C30.8153 31.4087 30.848 30.5842 30.8644 29.7361L30.7744 29.7041L30.5213 29.6159C30.5213 32.4404 30.3659 35.0335 29.8188 37.5863C29.7297 38.0182 29.6289 38.4476 29.5166 38.8743C29.1657 38.914 28.8141 38.9624 28.4632 39.0181C28.0999 37.3059 27.8163 35.5784 27.6134 33.8409C27.0418 29.0318 27.0499 24.1747 27.2135 19.3015H36.2962V19.3012ZM34.0667 28.4638C34.2547 28.5359 34.222 28.1917 34.0667 27.4634C33.9352 26.875 33.7963 26.2881 33.65 25.7031H33.544C33.544 26.2792 33.4132 26.6393 33.1274 27.1036C33.1029 27.1338 33.081 27.166 33.0619 27.1998C33.0787 27.2158 33.1024 27.2318 33.1274 27.2558C33.4541 27.5279 33.6994 27.9521 33.8875 28.3283C33.9604 28.3997 34.0172 28.4397 34.0667 28.4638ZM34.0667 24.4147C34.2679 24.2253 34.4486 24.0162 34.606 23.7905L34.3525 23.2785C34.2625 23.3907 34.1644 23.5108 34.0663 23.6226C33.8949 23.8226 33.7068 24.0148 33.5269 24.2067L33.8455 24.607L34.0667 24.4147ZM34.0667 23.0862C34.4506 22.446 34.5726 21.7738 34.4506 21.0936C34.3447 21.4297 34.222 21.7818 34.0667 22.1179C33.8626 22.5739 33.6013 22.9981 33.25 23.3342H32.6865L32.4252 23.2141V23.3342H32.1717V22.7978H31.7717V23.3342H31.5022V23.174L31.2409 23.3342H30.6124C30.2448 22.9821 29.9916 22.5659 29.8199 22.1179C29.6984 21.7863 29.6135 21.4429 29.5668 21.0936C29.4686 21.8219 29.485 22.5181 29.8199 23.15C29.9778 23.4337 30.1883 23.6861 30.4406 23.8943H30.9878C30.9551 24.1022 30.8819 24.2861 30.7756 24.4784C30.7592 24.5105 30.7347 24.5505 30.7101 24.5826H31.5026V23.8943H31.7721V24.8706L30.7756 24.9828L30.2938 25.0388V25.167H33.6098V25.0388L33.1277 24.9908L32.1721 24.8946V23.8943H32.4256V24.5826H33.1682C33.1523 24.5505 33.1355 24.5185 33.1277 24.4864C33.0429 24.2972 32.9827 24.0983 32.9486 23.8943H33.4217C33.6823 23.6307 33.9031 23.3663 34.0667 23.0862ZM33.127 28.872C33.1924 29.0078 33.2578 29.128 33.3556 29.2157C33.6823 28.9758 33.5269 28.1597 33.127 27.7114C32.833 27.3913 32.4248 27.2635 31.9673 27.6393C31.9591 27.6313 31.9509 27.6233 31.9427 27.6233C31.4773 27.3032 31.0443 27.5191 30.7748 27.8873C30.4563 28.3352 30.3745 28.9994 30.7748 29.2154C30.7912 29.2234 30.7993 29.2314 30.8157 29.2394C30.9053 28.679 31.3956 27.919 31.9427 27.8949H31.9591C32.727 27.8796 32.9062 28.4397 33.127 28.872ZM33.127 25.5589H33.1842C33.1842 25.7908 33.1675 25.9831 33.127 26.159C33.0538 26.439 32.9311 26.687 32.7188 26.9751C32.498 26.7908 32.4408 26.663 32.4003 26.391C32.7348 26.2868 32.8497 26.183 33.0616 25.911H32.0814C32.1141 26.2712 32.1877 26.5832 32.2773 26.935C32.1631 27.0712 32.1141 27.1353 32.0405 27.3032H31.7952C31.7422 27.1714 31.6707 27.0475 31.5829 26.935C31.7137 26.5508 31.7706 26.3189 31.7706 25.911H30.864C31.0436 26.1991 31.1744 26.2952 31.5011 26.391C31.403 26.6073 31.3134 26.7591 31.1335 26.935C30.9726 26.6708 30.8515 26.3851 30.7741 26.0869C30.733 25.9132 30.7057 25.7367 30.6923 25.5589H33.127ZM31.9427 29.3596H32.523C33.0456 29.2398 32.5557 28.5355 32.3181 28.3035H31.7141C31.5019 28.5355 30.9138 29.2398 31.5264 29.3596H31.9427ZM30.7748 27.2955C30.8075 27.2475 30.8402 27.2154 30.8648 27.1834C30.8321 27.1193 30.8075 27.0632 30.7748 27.0075C30.5544 26.5512 30.4481 26.183 30.35 25.6474H30.2931C30.2358 25.8873 29.9663 26.6557 29.8192 27.3196C29.7214 27.7839 29.6887 28.1921 29.8192 28.36C29.8437 28.376 29.86 28.392 29.8846 28.408C30.105 28.3356 30.538 27.6393 30.7748 27.2955ZM29.8192 24.3266C29.8682 24.3746 29.9173 24.4307 29.9742 24.4784C30.1132 24.3422 30.2195 24.2541 30.3336 24.0862C30.1486 23.9089 29.9767 23.7189 29.8192 23.5178C29.7317 23.4053 29.6473 23.2905 29.566 23.1736L29.3129 23.7097C29.4761 23.9183 29.6396 24.1266 29.8192 24.3266ZM27.6138 39.2902L28.1041 39.0983C27.925 38.2128 27.7616 37.3243 27.6138 36.4333C26.6722 30.7666 26.4227 25.0101 26.8708 19.2855H23.4154C23.3745 24.1987 23.5953 28.88 24.2733 33.6089C24.587 35.7962 24.9958 37.9694 25.4984 40.1226L27.6138 39.2902ZM24.2733 36.2178C24.534 37.5858 24.8199 38.949 25.1308 40.3069L24.2733 40.915L22.8682 41.9074C22.0621 39.2393 21.4024 36.5308 20.8918 33.7936C20.0098 29.0803 19.5767 24.415 19.2991 19.3019H23.0318C22.7214 24.9347 23.2358 30.6563 24.2733 36.2178Z" fill="#7E002D"/>
</g>
<defs>
<clipPath id="clip0_10704_20049">
<rect width="64" height="64" fill="white"/>
</clipPath>
</defs>
</svg>
