<svg width="64" height="64" viewBox="0 0 64 64" fill="none" xmlns="http://www.w3.org/2000/svg">
<path d="M64 36.0124C63.9483 34.8377 63.4008 32.8708 60.7664 32.6224C63.1115 32.2767 63.5764 30.7496 63.5867 29.548C63.6073 28.3263 62.8429 26.2285 59.7436 26.2252C59.2994 26.2283 47.5738 26.2283 47.5635 26.2252V36.0225L43.3588 26.2252H35.7449L32.0981 35.0995L28.2343 26.2218H20.5585L17.2526 34.4483C16.9116 32.1425 14.6905 31.0114 9.65934 31.0987C7.12827 31.1456 6.27081 30.7999 6.27081 29.7729C6.27081 28.7827 7.19025 28.4068 8.48163 28.4505C9.742 28.5042 10.7957 28.7022 10.8061 30.3502H16.7877C16.798 26.7185 12.3867 26.0305 8.79152 26.0003C5.21704 25.9835 0.723104 26.7185 0.60945 30.2998C0.50614 33.8643 3.3678 34.502 7.41751 34.4483C11.147 34.4047 11.085 35.4854 11.1056 35.8748C11.0953 35.8983 11.1056 35.9185 11.1056 35.9486C11.116 36.3715 10.8784 37.2878 8.48161 37.2475C6.74602 37.2475 6.2088 36.4755 6.06416 35.9486C5.97115 35.6566 5.99191 35.4384 5.99191 35.4485C4.78321 35.4384 0.0103117 35.4384 0 35.4485C0.0103438 35.6029 0.0206876 35.7707 0.0309512 35.9486C0.278882 37.9255 2.06613 40.1005 8.86388 39.9964C14.3083 39.9427 14.9901 38.8787 15.5377 38.4995L15.1347 39.6474H20.1039L21.0027 37.5227H27.7901L28.6992 39.6473H35.4247L36.3235 37.5227H43.1109L44.0097 39.6473H60.3325C62.9876 39.6505 63.9897 37.422 64 36.0124C63.9897 35.9721 63.9897 36.0493 64 36.0124L64 36.0124ZM22.3354 34.398L24.3912 29.5111L26.4677 34.398L22.3354 34.398ZM37.6561 34.3948L39.712 29.5146L41.7782 34.3948H37.6561ZM52.6153 31.3506V29.424H56.9026C57.4605 29.4209 57.8841 29.857 57.8841 30.3907C57.8841 30.9243 57.4088 31.3506 56.8716 31.3506H52.6153ZM52.6153 36.1469V34.2472H57.1919C57.7291 34.2472 58.2043 34.6667 58.2043 35.197C58.2043 35.724 57.7291 36.1502 57.1919 36.1502" fill="#C8C8C8"/>
</svg>
