<svg width="64" height="64" viewBox="0 0 64 64" fill="none" xmlns="http://www.w3.org/2000/svg">
<g clip-path="url(#clip0_10704_20059)">
<path d="M33.5179 23.5883C33.4884 23.6031 33.4136 23.6615 33.3244 23.7641H28.9803C29.0841 23.6615 29.1584 23.6031 29.1883 23.5883H24.8438V24.5697L28.6083 24.4961C28.6527 24.3351 28.7125 24.2035 28.7718 24.0862H33.1009C33.057 24.174 33.0122 24.2766 32.9673 24.394L39.023 24.2619V23.5883H33.5179ZM32.863 24.9502V25.2728H28.5339C28.5339 25.2433 28.519 25.2139 28.519 25.1844C28.519 25.0676 28.5339 24.9502 28.5484 24.8476L24.8438 24.7745V26.0637L28.6826 25.9753C28.6377 25.8438 28.5933 25.7117 28.5634 25.5948H32.8929C32.9229 25.6827 32.9528 25.7853 32.9822 25.8875L39.023 25.7411V25.0823L32.863 24.9502ZM33.2351 26.4442C33.2945 26.5468 33.3543 26.6494 33.4136 26.7515H29.084C28.9948 26.6199 28.9205 26.4884 28.8462 26.3563L24.8438 26.2537V27.5719L29.6496 27.4693C29.5454 27.3667 29.4412 27.2204 29.3075 27.0741H33.6515C33.7259 27.1767 33.8156 27.2793 33.8899 27.3667L39.023 27.2498V26.5762L33.2351 26.4442ZM34.4256 27.9818C34.4849 28.055 34.5592 28.1433 34.6191 28.2308H30.2895C30.1853 28.0992 30.096 27.9671 30.0067 27.8797L24.8438 27.7624V29.0806L30.7653 28.9485C30.676 28.8022 30.6017 28.6702 30.5124 28.5533H34.857C34.9163 28.6412 34.9757 28.7438 35.0355 28.8459L39.023 28.758V28.0844L34.4256 27.9818ZM35.3328 29.5052C35.3627 29.5931 35.3922 29.681 35.4071 29.7689H31.078C31.0481 29.6368 31.0182 29.52 30.9738 29.4026L24.8438 29.2711V30.5888L31.1075 30.4425C31.1224 30.3546 31.1224 30.2814 31.1224 30.1788V30.0762H35.452V30.3399L39.023 30.2667V29.5931L35.3328 29.5052ZM35.3183 31.0135C35.2734 31.1013 35.244 31.1892 35.1991 31.2771H30.8695C30.9289 31.175 30.9738 31.0576 31.0182 30.9113L24.8438 30.7793V31.7754H30.4531C30.4975 31.7459 30.5573 31.6875 30.6466 31.5849H34.9757C34.9014 31.6875 34.8271 31.7459 34.7976 31.7754H39.023V31.1013L35.3183 31.0135Z" fill="#C3002F"/>
<path d="M24.6788 39.3615V35.7584H23.3098V40.416H31.8203V39.3615H24.6788ZM16.1982 40.416V39.3615H19.3822L16.1982 36.5788V35.7731H17.1209L22.4026 40.416H16.1982ZM64.0016 40.416V35.7584H62.6326V39.4346L55.4467 35.7584H53.7654V40.416H55.1345V36.8571L62.1119 40.416H64.0016ZM42.071 36.8129V35.7584H32.9809V40.416H42.071V39.3615H34.3494V38.5705L42.071 38.5853V37.5891H34.3494V36.8129H42.071ZM52.4862 36.8129V35.7584H43.4101V40.416H52.4862V39.3615H44.7791V38.5705L52.4862 38.5853V37.5891H44.7791V36.8129H52.4862ZM16.1982 35.7731V36.5788L13.0143 39.3615H16.1982V40.416H9.99436L15.2756 35.7731H16.1982ZM9.20536 40.255L9.23529 40.2255C9.41384 40.0061 9.53303 39.5372 9.53303 39.0099C9.53303 38.3364 9.33952 37.7796 9.08665 37.677C8.99738 37.6186 8.90811 37.6039 8.78892 37.5891H1.36465V36.8129H9.3096V35.7584H0.754682C0.635971 35.7584 0.531735 35.7878 0.442461 35.8463C0.427501 35.8463 0.42751 35.8463 0.412551 35.861C0.412551 35.861 0.397589 35.861 0.383112 35.8757C0.383112 35.8905 0.368147 35.8905 0.353187 35.9052C0.328175 35.9293 0.303406 35.9537 0.278876 35.9783V35.9931C0.115287 36.2125 -0.00390625 36.6666 -0.00390625 37.1792C-0.00390625 37.7212 0.115289 38.1753 0.308315 38.3948C0.308315 38.4095 0.323266 38.4242 0.338225 38.4385C0.353185 38.4537 0.368153 38.4679 0.383112 38.4827C0.397589 38.4827 0.412551 38.4974 0.412551 38.4974C0.42751 38.4974 0.427498 38.5121 0.427498 38.5121C0.516773 38.5558 0.635971 38.6 0.754682 38.6L8.14952 38.5853V39.3615H0.219513V40.416H8.80387C8.9081 40.416 9.01234 40.3866 9.08665 40.3429C9.13105 40.3134 9.17593 40.284 9.20536 40.255Z" fill="black"/>
</g>
<defs>
<clipPath id="clip0_10704_20059">
<rect width="64" height="64" fill="white"/>
</clipPath>
</defs>
</svg>
