<svg width="64" height="64" viewBox="0 0 64 64" fill="none" xmlns="http://www.w3.org/2000/svg">
<g clip-path="url(#clip0_10704_20063)">
<path d="M24.3008 22.3947C24.5951 14.6395 27.1707 7.14182 31.7003 0.837891H64.0049V2.39139C49.8558 6.57765 35.6168 13.8137 24.3008 22.3947ZM57.8032 63.1617C40.4531 60.4636 26.815 46.5107 24.587 29.0052C26.0832 27.5867 27.6449 26.2457 29.272 24.9784C39.66 16.9002 49.1281 11.5161 64.009 5.99305V63.1617H57.8032Z" fill="black"/>
<path d="M46.8298 63.1635C34.0175 57.5628 24.4839 45.8584 21.888 31.7338C16.0664 38.0827 13.2538 44.3703 13.4173 49.1044C13.7239 58.0411 22.3458 63.1635 34.6266 63.1635H46.8298ZM21.1848 24.8453C21.1766 24.555 21.1766 24.2566 21.1766 23.9622C21.1766 15.4466 23.6704 7.50335 27.963 0.84375H0V56.2096H1.54123C1.54123 54.7869 1.52488 53.6218 1.84376 51.868C3.60166 42.7718 10.9317 33.2669 21.1848 24.8453Z" fill="black"/>
</g>
<defs>
<clipPath id="clip0_10704_20063">
<rect width="64" height="64" fill="white"/>
</clipPath>
</defs>
</svg>
