<svg width="64" height="64" viewBox="0 0 64 64" fill="none" xmlns="http://www.w3.org/2000/svg">
<g clip-path="url(#clip0_10704_20067)">
<path d="M32.0682 11C14.4223 11 0.0664062 20.7358 0.0664062 32.7027C0.0664062 44.6675 14.4223 54.4018 32.0682 54.4018C40.6039 54.4018 48.631 52.1515 54.6707 48.0654C60.7297 43.9665 64.0664 38.5105 64.0664 32.7027C64.0666 20.7358 49.7122 11 32.0682 11ZM32.0679 51.0895C17.7716 51.0895 6.18514 42.8566 6.18514 32.7023C6.18514 22.5448 17.7716 14.3123 32.0679 14.3123C46.3585 14.3123 57.9478 22.545 57.9478 32.7023C57.9478 42.8566 46.3615 51.0895 32.0679 51.0895Z" fill="url(#paint0_linear_10704_20067)"/>
<path d="M32.0661 11.168C14.484 11.168 0.234375 20.8088 0.234375 32.7034C0.234375 44.5943 14.484 54.2352 32.0661 54.2352C49.6447 54.2352 63.8942 44.5943 63.8942 32.7034C63.8943 20.8088 49.6413 11.168 32.0661 11.168ZM32.0657 51.0902C17.7695 51.0902 6.18301 42.8573 6.18301 32.703C6.18301 22.5455 17.7695 14.313 32.0657 14.313C46.3563 14.313 57.9457 22.5457 57.9457 32.703C57.9457 42.8573 46.3594 51.0902 32.0657 51.0902Z" fill="url(#paint1_linear_10704_20067)"/>
<path d="M32.0645 13.0684C16.8545 13.0684 4.52734 21.8586 4.52734 32.7037C4.52734 43.5457 16.8546 52.3361 32.0645 52.3361C47.2718 52.3361 59.5987 43.5457 59.5987 32.7037C59.5987 21.8586 47.2687 13.0684 32.0645 13.0684ZM32.0645 51.0909C17.7682 51.0909 6.18176 42.858 6.18176 32.7037C6.18176 22.5462 17.7682 14.3137 32.0645 14.3137C46.3551 14.3137 57.9445 22.5464 57.9445 32.7037C57.9445 42.858 46.3581 51.0909 32.0645 51.0909Z" fill="url(#paint2_linear_10704_20067)"/>
<path d="M32.0648 12.7324C16.6932 12.7324 4.1875 21.6909 4.1875 32.7023C4.1875 43.7121 16.6932 52.6692 32.0648 52.6692C47.4347 52.6692 59.9393 43.7121 59.9393 32.7023C59.9393 21.6909 47.4349 12.7324 32.0648 12.7324ZM32.0648 52.3347C16.8548 52.3347 4.5277 43.5443 4.5277 32.7023C4.5277 21.8572 16.855 13.067 32.0648 13.067C47.269 13.067 59.599 21.8572 59.599 32.7023C59.599 43.5445 47.2723 52.3347 32.0648 52.3347Z" fill="url(#paint3_linear_10704_20067)"/>
<path d="M59.1694 29.2305H4.95639C4.38444 31.5102 4.38433 33.8924 4.95605 36.1722H59.1699C59.4547 35.037 59.5986 33.8721 59.5988 32.7028C59.5986 31.5326 59.4544 30.3667 59.1694 29.2305Z" fill="url(#paint4_linear_10704_20067)"/>
<path d="M57.3625 28.8125H6.76436C6.76436 28.8125 4.99207 29.0907 4.95703 29.2307H59.1701C59.1348 29.0907 57.3625 28.8125 57.3625 28.8125Z" fill="#58585E"/>
<path d="M6.63901 36.1718H4.95143C4.98647 36.3118 6.75842 36.5899 6.75842 36.5899H57.358C57.358 36.5899 59.1296 36.3116 59.1646 36.1718H57.4774H6.63901ZM59.1684 36.1582L59.1648 36.1718H59.1653L59.1684 36.1582ZM4.95126 36.1718H4.95143L4.94922 36.1634L4.95126 36.1718Z" fill="#3A3B3E"/>
<path d="M32.85 13.4434C32.85 13.4434 25.7448 20.582 24.4805 29.23H30.6773C28.5415 22.399 32.85 13.4434 32.85 13.4434Z" fill="url(#paint5_linear_10704_20067)"/>
<path d="M30.6762 29.23H35.7407C30.0139 26.1633 32.849 13.4434 32.849 13.4434C32.849 13.4434 28.5404 22.399 30.6762 29.23Z" fill="url(#paint6_linear_10704_20067)"/>
<path d="M31.2773 51.9566C31.2773 51.9566 38.3825 44.818 39.6469 36.1699H33.4501C35.586 43.0009 31.2773 51.9566 31.2773 51.9566Z" fill="url(#paint7_linear_10704_20067)"/>
<path d="M33.4513 36.1699H28.3867C34.1135 39.2367 31.2785 51.9566 31.2785 51.9566C31.2785 51.9566 35.5871 43.0009 33.4513 36.1699Z" fill="url(#paint8_linear_10704_20067)"/>
<path d="M57.7441 34.2913C57.7441 34.8037 57.3066 35.1866 56.768 35.1866H56.1778V31.5319C56.1778 31.3029 55.9762 31.1117 55.7227 31.1117H48.1575V35.1864H46.5527V30.2168H56.4069C57.1638 30.2168 57.7475 30.7974 57.7475 31.508L57.7441 34.2913ZM6.39062 34.2885L15.5324 34.2915C15.8034 34.2915 15.9908 34.1311 15.9874 33.9023L15.984 33.1579H6.401V31.5083C6.401 30.784 7.02255 30.2171 7.78342 30.2171H17.5886V31.112H8.39477C8.10304 31.112 8.00574 31.2828 8.00574 31.5083L7.9952 32.2633H17.592V33.9024C17.592 34.6301 16.9807 35.1869 16.2132 35.1869H7.3665C6.8283 35.1866 6.39062 34.8003 6.39062 34.2885ZM20.4472 33.8748C20.4472 34.1003 20.6487 34.2913 20.909 34.2913H30.0198V35.1866H20.2248C19.4607 35.1866 18.8426 34.6091 18.8426 33.8954V31.5081C18.8426 30.7976 19.4607 30.217 20.2248 30.217H30.0198V31.1119H20.909C20.6487 31.1119 20.4472 31.3066 20.4472 31.532V33.8748ZM32.8786 30.217V35.1897H31.2667L31.2701 30.217H32.8786ZM45.3026 31.5081V33.8954C45.3026 34.6091 44.6843 35.1866 43.9234 35.1866H35.5114C34.7473 35.1866 34.1288 34.6091 34.1288 33.8954V31.5081C34.1288 30.7976 34.7473 30.217 35.5114 30.217H43.9234C44.6845 30.217 45.3026 30.7976 45.3026 31.5081ZM43.2357 31.1119H36.1954C35.9349 31.1119 35.7298 31.303 35.7298 31.5284V33.8715C35.7298 34.1003 35.9349 34.2915 36.1954 34.2915H43.2357C43.4963 34.2915 43.7013 34.1003 43.6981 33.875L43.7015 31.5285C43.6981 31.3029 43.4963 31.1119 43.2357 31.1119Z" fill="#060506"/>
</g>
<defs>
<linearGradient id="paint0_linear_10704_20067" x1="32.0665" y1="54.4018" x2="32.0665" y2="11" gradientUnits="userSpaceOnUse">
<stop stop-color="#717279"/>
<stop offset="1" stop-color="#EEEDEC"/>
</linearGradient>
<linearGradient id="paint1_linear_10704_20067" x1="32.0644" y1="54.2352" x2="32.0644" y2="11.168" gradientUnits="userSpaceOnUse">
<stop offset="0.45" stop-color="#717279"/>
<stop offset="0.55" stop-color="#EEEDEC"/>
</linearGradient>
<linearGradient id="paint2_linear_10704_20067" x1="32.0631" y1="13.0684" x2="32.0631" y2="52.3362" gradientUnits="userSpaceOnUse">
<stop offset="0.45" stop-color="#717279"/>
<stop offset="0.55" stop-color="#EEEDEC"/>
</linearGradient>
<linearGradient id="paint3_linear_10704_20067" x1="32.0635" y1="12.7324" x2="32.0635" y2="52.6694" gradientUnits="userSpaceOnUse">
<stop stop-color="#717279"/>
<stop offset="1" stop-color="#EEEDEC"/>
</linearGradient>
<linearGradient id="paint4_linear_10704_20067" x1="32.063" y1="36.1722" x2="32.063" y2="29.2306" gradientUnits="userSpaceOnUse">
<stop stop-color="#717279"/>
<stop offset="1" stop-color="#EEEDEC"/>
</linearGradient>
<linearGradient id="paint5_linear_10704_20067" x1="27.7204" y1="19.0416" x2="29.5934" y2="23.747" gradientUnits="userSpaceOnUse">
<stop offset="0.006" stop-color="#BFBFBB"/>
<stop offset="1" stop-color="#F6F6F4"/>
</linearGradient>
<linearGradient id="paint6_linear_10704_20067" x1="28.8645" y1="17.3878" x2="36.6283" y2="28.3283" gradientUnits="userSpaceOnUse">
<stop offset="0.006" stop-color="#67676F"/>
<stop offset="0.5" stop-color="#BBBCB8"/>
<stop offset="1" stop-color="#959796"/>
</linearGradient>
<linearGradient id="paint7_linear_10704_20067" x1="36.4071" y1="46.3584" x2="34.5341" y2="41.6529" gradientUnits="userSpaceOnUse">
<stop offset="0.006" stop-color="#BFBFBB"/>
<stop offset="1" stop-color="#F6F6F4"/>
</linearGradient>
<linearGradient id="paint8_linear_10704_20067" x1="35.2631" y1="48.0122" x2="27.4994" y2="37.0718" gradientUnits="userSpaceOnUse">
<stop offset="0.006" stop-color="#67676F"/>
<stop offset="0.5" stop-color="#BBBCB8"/>
<stop offset="1" stop-color="#959796"/>
</linearGradient>
<clipPath id="clip0_10704_20067">
<rect width="64" height="64" fill="white"/>
</clipPath>
</defs>
</svg>
