<svg width="64" height="64" viewBox="0 0 64 64" fill="none" xmlns="http://www.w3.org/2000/svg">
<path d="M21.5134 4.00376C33.4492 3.5861 45.3968 4.0008 57.3117 4.76059C58.5661 4.8687 59.837 4.85982 61.072 5.12196C61.7402 5.28192 62.4622 5.53518 62.853 6.13797C63.2095 6.79408 63.2169 7.55979 63.3094 8.28255C63.5928 11.8327 63.6763 15.3976 63.9433 18.9477C63.4272 19.0099 62.9111 18.9314 62.395 18.9151C53.2053 18.4426 44.0082 18.0501 34.8035 18.0383C30.0364 18.0516 25.2633 18.0057 20.5006 18.2353C19.3461 18.4041 18.0395 18.7877 17.3727 19.8096C20.9764 20.445 24.5727 21.1308 28.1749 21.778C40.1136 23.9966 52.0613 26.1664 64 28.382C63.9896 30.6303 63.994 32.8785 63.9985 35.1268C57.2848 34.0234 50.5831 32.8326 43.8739 31.6937C29.4397 29.2233 15.0101 26.7188 0.571429 24.2721C0.599769 21.7765 0.707164 19.2824 0.759369 16.7853C0.850357 14.8081 0.793676 12.8042 1.24414 10.8626C1.54693 9.49258 2.10777 8.11519 3.15338 7.13621C4.95821 5.3619 7.5685 4.86278 9.99831 4.61248C13.8272 4.25999 17.6726 4.14446 21.5134 4.00376ZM0 27.7312C20.6727 31.5129 41.3379 35.3582 62.0075 39.162C62.4594 39.2714 62.9425 39.2803 63.3764 39.4444L63.4286 39.5627C63.3152 42.9245 63.2496 46.2893 63.1274 49.6511C63.0483 51.7253 62.8277 53.8955 61.7511 55.7228C60.597 57.6121 58.4468 58.6574 56.319 59.0521C53.1832 59.636 49.9803 59.6745 46.8043 59.8474C33.1383 60.4624 19.444 60.1224 5.80039 59.191C4.7104 59.1156 3.60102 59.0964 2.54233 58.7963C1.99361 58.6248 1.42699 58.3484 1.11684 57.8457C0.784321 57.1864 0.763445 56.4339 0.681434 55.7154C0.389178 51.7933 0.234103 47.8637 0.0268399 43.9372C7.06485 44.3807 14.1148 44.6291 21.1662 44.7843C27.9746 44.8937 34.783 44.8922 41.5914 44.9587C43.0601 45.0193 44.6481 44.7414 45.762 43.7184C45.9245 43.5336 46.1884 43.3621 46.1616 43.0856C43.0929 42.6288 40.0421 42.0611 36.9794 41.5614C24.6569 39.4725 12.3284 37.4028 0.00745552 35.302C-0.00745552 32.7784 0.0104377 30.2548 0 27.7312Z" fill="#19191B"/>
</svg>
