<svg width="64" height="64" viewBox="0 0 64 64" fill="none" xmlns="http://www.w3.org/2000/svg">
<g clip-path="url(#clip0_10774_10310)">
<path d="M7.81576 0.0372549L8.79992 1.15683C8.85345 1.22099 8.90801 1.24331 8.99397 1.24331H11.0588C11.1458 1.24331 11.1996 1.22099 11.2531 1.15683L12.2373 0.0372549C12.3232 -0.0607697 12.291 -0.157254 12.1505 -0.157254H10.7572C10.6694 -0.157254 10.6148 -0.125178 10.561 -0.0607697L10.1403 0.543542H9.91198L9.49119 -0.0607697C9.4374 -0.125178 9.38336 -0.157254 9.28607 -0.157254H7.90275C7.76094 -0.157254 7.73083 -0.0607697 7.81576 0.0372549ZM26.0329 5.66184V5.76987C26.0329 9.5302 26.6509 9.75781 31.1786 9.75781C35.7077 9.75781 36.3238 9.5302 36.3238 5.75832V5.66184C36.3238 1.90151 35.7077 1.67467 31.1786 1.67467C26.6509 1.67467 26.0329 1.90151 26.0329 5.66184ZM25.5743 9.40164L21.272 5.20918L25.3139 2.03007C25.4335 1.94411 25.389 1.83607 25.2379 1.83607H22.6007C22.5256 1.83607 22.471 1.85763 22.4064 1.91126L18.2778 5.19943V1.99774C18.2778 1.89073 18.2237 1.83607 18.1157 1.83607H16.1054C15.9971 1.83607 15.9425 1.89073 15.9425 1.99774V9.43372C15.9425 9.54175 15.9971 9.59538 16.1054 9.59538H18.1159C18.224 9.59538 18.2778 9.54175 18.2778 9.43372V7.55894L19.499 6.59923L22.4602 9.50967C22.5256 9.57383 22.5794 9.59538 22.6651 9.59538H25.4976C25.6381 9.59538 25.6819 9.4989 25.5743 9.40164ZM42.2705 1.83607H37.9581C37.8505 1.83607 37.7949 1.89073 37.7949 1.99774V9.43372C37.7949 9.54175 37.8505 9.59538 37.9581 9.59538H42.2705C46.8865 9.59538 47.4913 9.36854 47.4913 5.74755V5.68339C47.4913 2.06215 46.8865 1.83607 42.2705 1.83607ZM58.9759 9.40164L55.2469 1.95488C55.2143 1.86918 55.1491 1.83607 55.0632 1.83607H51.7563C51.6683 1.83607 51.604 1.86918 51.5718 1.95488L47.8426 9.40164C47.7878 9.52045 47.8326 9.59538 47.9605 9.59538H50.1123C50.198 9.59538 50.2639 9.5633 50.2955 9.47657L50.8584 8.37752H55.9604L56.5217 9.47657C56.5551 9.5633 56.6192 9.59538 56.7065 9.59538H58.8567C58.9867 9.59538 59.0299 9.52045 58.9759 9.40164ZM33.8158 5.66184V5.76987C33.8158 7.94719 33.7296 7.97926 31.1786 7.97926C28.6277 7.97926 28.5407 7.94719 28.5407 5.76987V5.66184C28.5407 3.48504 28.6277 3.45296 31.1786 3.45296C33.7296 3.45296 33.8158 3.48504 33.8158 5.66184ZM45.0381 5.66184V5.76987C45.0381 7.76346 44.875 7.82838 42.282 7.82838H40.1418V3.60308H42.282C44.875 3.60308 45.0381 3.66825 45.0381 5.66184ZM55.1383 6.75088H51.6796L53.2689 3.6136H53.5496L55.1383 6.75088ZM5.255 9.60693C6.40104 9.65953 8.26975 9.71316 9.34939 9.71316C14.063 9.71316 14.6253 9.70341 14.6253 7.14939C14.6253 5.134 14.0316 4.97259 11.5344 4.89766L8.63778 4.81093C7.30901 4.76731 7.28662 4.62797 7.28662 4.0352C7.28662 3.42088 7.44876 3.42088 10.6372 3.42088C11.2415 3.42088 13.1658 3.45296 14.1829 3.47452C14.2895 3.47452 14.3451 3.42088 14.3451 3.31285V1.99774C14.3451 1.89073 14.2895 1.83607 14.1927 1.82632C13.1872 1.77115 11.5452 1.71752 10.3667 1.71752C5.74116 1.71752 4.99609 1.80426 4.99609 4.18506C4.99609 6.22253 5.44905 6.49222 8.41053 6.58948L11.0686 6.67518C12.3124 6.71804 12.3348 6.86867 12.3348 7.3321C12.3348 7.96874 12.2802 8.00082 9.33961 8.00082C7.96709 8.00082 6.55134 7.94719 5.26555 7.90357C5.15746 7.89279 5.10367 7.94719 5.10367 8.05445V9.43372C5.10367 9.54175 5.15746 9.59538 5.255 9.60693Z" fill="#141414"/>
<path d="M31.9241 17.549C44.7226 17.505 55.1337 27.8144 55.1778 40.5758C55.222 53.3372 44.8825 63.7181 32.084 63.7621C19.2854 63.8061 8.87436 53.4967 8.83021 40.7353C8.78605 27.9739 19.1255 17.593 31.9241 17.549Z" fill="url(#paint0_linear_10774_10310)" stroke="#141414" stroke-width="0.164487" stroke-linecap="square"/>
<path d="M32.0046 61.4043C26.4461 61.4043 21.2206 59.2466 17.2904 55.3274C13.3599 51.409 11.1953 46.1981 11.1953 40.6568C11.1953 35.1142 13.3599 29.9041 17.2904 25.9857C21.2206 22.0666 26.4461 19.9086 32.0046 19.9086C37.563 19.9086 42.7885 22.0666 46.7187 25.9857C50.6492 29.9041 52.8133 35.1142 52.8133 40.6568C52.8133 46.1981 50.6492 51.4082 46.7187 55.3274C42.7885 59.2466 37.563 61.4043 32.0046 61.4043Z" fill="#141414"/>
<path d="M32.0031 59.7168C26.8958 59.7168 22.0944 57.7338 18.4833 54.1333C14.8716 50.5326 12.8828 45.7451 12.8828 40.6533C12.8828 35.561 14.8716 30.7735 18.4833 27.1727C22.0944 23.5722 26.8958 21.5888 32.0031 21.5888C37.1105 21.5888 41.9118 23.5722 45.523 27.1727C49.1346 30.7735 51.1234 35.561 51.1234 40.6533C51.1234 45.7451 49.1346 50.5326 45.523 54.1333C41.9118 57.7338 37.1105 59.7168 32.0031 59.7168Z" fill="white"/>
<path d="M46.5201 49.8151C45.1065 48.4923 43.3244 47.6076 41.383 47.2986C41.1061 47.2558 40.8552 47.469 40.8552 47.7486C40.8552 47.9761 40.8552 48.2228 40.8552 48.4512C40.8552 48.6601 40.6951 48.8969 40.4847 48.8969C40.3324 48.8969 40.18 48.9011 40.0267 48.8969C39.4854 48.8885 39.3869 48.2254 39.4955 47.8349C40.6496 43.7085 40.9317 41.2056 40.9183 39.3831C40.9039 37.446 40.8552 35.5161 39.9795 32.9611C39.136 30.5033 38.3657 28.0968 34.2918 24.4186C34.0149 24.17 33.7353 24.0492 33.3625 24.0224C32.9618 23.9946 32.6342 23.9805 32.2267 23.9805C30.5355 23.9805 28.9032 24.228 27.3607 24.6896C26.7834 24.8634 26.87 25.2638 27.1875 25.5367C28.7254 26.8485 30.8108 28.8203 32.2495 31.2831C31.3386 31.3712 30.6424 30.866 30.0573 30.3069C28.1344 28.4821 26.1325 27.181 24.5422 26.2905C24.2652 26.136 23.9924 26.0713 23.718 26.2284C21.9652 27.2448 20.7842 28.2008 19.3926 29.8101C19.1559 30.0836 19.3092 30.2968 19.5406 30.4193C21.062 31.2236 23.4443 32.7494 25.629 34.7313C25.1838 35.1048 24.4782 34.9823 23.4553 34.4477C21.4896 33.4177 19.5997 32.8251 18.1574 32.4548C17.8486 32.376 17.5176 32.4624 17.3585 32.7378C16.435 34.3377 15.7977 36.2514 15.4963 38.192C15.4391 38.5648 15.6934 38.8947 16.0663 38.9594C19.4279 39.546 25.4202 41.1215 26.4155 48.0045C26.5012 48.6072 25.9515 49.1369 25.2275 48.7978C24.2172 48.3259 23.2079 47.8551 22.1984 47.3826C22.0924 47.3338 21.9719 47.2919 21.8557 47.2919C20.2301 47.2919 18.7191 47.2919 17.0943 47.2919C16.4173 47.2919 16.1387 47.9374 16.579 48.4403C17.7238 49.7547 18.7738 51.1732 19.6719 52.6767C19.7512 52.8101 19.8422 52.8613 19.9978 52.8613C20.6906 52.8613 21.3844 52.8613 22.0764 52.8613C22.2178 52.8613 22.3389 52.8286 22.4611 52.7564C23.1144 52.3744 23.7676 51.9934 24.4226 51.6115C24.5439 51.5393 24.665 51.5408 24.8066 51.5408C29.8191 51.5408 35.197 51.5408 40.4746 51.5408C40.6849 51.5408 40.8552 51.676 40.8552 51.8859C40.8552 52.1419 40.8552 52.398 40.8552 52.6548C40.8552 52.9343 41.1061 53.1467 41.383 53.1039C43.3244 52.7949 45.1065 51.9102 46.5201 50.5882C46.7449 50.3792 46.7449 50.0233 46.5201 49.8151" fill="url(#paint1_linear_10774_10310)"/>
<path d="M46.5201 49.8151C45.1065 48.4923 43.3244 47.6076 41.383 47.2986C41.1061 47.2558 40.8552 47.469 40.8552 47.7486C40.8552 47.9761 40.8552 48.2228 40.8552 48.4512C40.8552 48.6601 40.6951 48.8969 40.4847 48.8969C40.3324 48.8969 40.18 48.9011 40.0267 48.8969C39.4854 48.8885 39.3869 48.2254 39.4955 47.8349C40.6496 43.7085 40.9317 41.2056 40.9183 39.3831C40.9039 37.446 40.8552 35.5161 39.9795 32.9611C39.136 30.5033 38.3657 28.0968 34.2918 24.4186C34.0149 24.17 33.7353 24.0492 33.3625 24.0224C32.9618 23.9946 32.6342 23.9805 32.2267 23.9805C30.5355 23.9805 28.9032 24.228 27.3607 24.6896C26.7834 24.8634 26.87 25.2638 27.1875 25.5367C28.7254 26.8485 30.8108 28.8203 32.2495 31.2831C31.3386 31.3712 30.6424 30.866 30.0573 30.3069C28.1344 28.4821 26.1325 27.181 24.5422 26.2905C24.2652 26.136 23.9924 26.0713 23.718 26.2284C21.9652 27.2448 20.7842 28.2008 19.3926 29.8101C19.1559 30.0836 19.3092 30.2968 19.5406 30.4193C21.062 31.2236 23.4443 32.7494 25.629 34.7313C25.1838 35.1048 24.4782 34.9823 23.4553 34.4477C21.4896 33.4177 19.5997 32.8251 18.1574 32.4548C17.8486 32.376 17.5176 32.4624 17.3585 32.7378C16.435 34.3377 15.7977 36.2514 15.4963 38.192C15.4391 38.5648 15.6934 38.8947 16.0663 38.9594C19.4279 39.546 25.4202 41.1215 26.4155 48.0045C26.5012 48.6072 25.9515 49.1369 25.2275 48.7978C24.2172 48.3259 23.2079 47.8551 22.1984 47.3826C22.0924 47.3338 21.9719 47.2919 21.8557 47.2919C20.2301 47.2919 18.7191 47.2919 17.0943 47.2919C16.4173 47.2919 16.1387 47.9374 16.579 48.4403C17.7238 49.7547 18.7738 51.1732 19.6719 52.6767C19.7512 52.8101 19.8422 52.8613 19.9978 52.8613C20.6906 52.8613 21.3844 52.8613 22.0764 52.8613C22.2178 52.8613 22.3389 52.8286 22.4611 52.7564C23.1144 52.3744 23.7676 51.9934 24.4226 51.6115C24.5439 51.5393 24.665 51.5408 24.8066 51.5408C29.8191 51.5408 35.197 51.5408 40.4746 51.5408C40.6849 51.5408 40.8552 51.676 40.8552 51.8859C40.8552 52.1419 40.8552 52.398 40.8552 52.6548C40.8552 52.9343 41.1061 53.1467 41.383 53.1039C43.3244 52.7949 45.1065 51.9102 46.5201 50.5882C46.7449 50.3792 46.7449 50.0233 46.5201 49.8151" stroke="#141414" stroke-width="0.164342"/>
<path d="M34.8497 47.5662C33.3064 47.5662 32.0573 46.3199 32.0573 44.7837C32.0573 43.246 33.3064 42.0003 34.8497 42.0003C36.3894 42.0003 37.6405 43.246 37.6405 44.7837C37.6405 46.3199 36.3894 47.5662 34.8497 47.5662ZM45.1104 50.2003C44.0504 49.3384 42.9332 48.781 41.5761 48.5005C41.4532 48.4754 41.3935 48.5225 41.3935 48.6484C41.3935 48.6718 41.3935 48.6929 41.3935 48.7163C41.3935 49.0487 41.0601 49.4357 40.725 49.4357C40.4321 49.4357 40.1358 49.4357 39.8435 49.4357C39.0993 49.4357 38.4351 48.8246 38.7105 47.8432C41.8953 36.5107 38.3366 29.5035 33.8428 25.581C32.6221 24.5176 32.5127 24.4587 31.2961 24.5049C30.3372 24.541 29.2133 24.6585 28.2629 24.8885C28.076 24.9338 27.9202 25.0816 28.1669 25.2882C30.4736 27.2262 33.5573 30.567 35.0323 35.767C35.0829 35.9475 34.9758 35.935 34.8379 35.9425C33.517 36.0222 33.0717 35.2156 32.659 34.7026C29.6646 30.9867 26.3072 28.7263 23.7943 27.2412C23.5443 27.0919 23.5038 27.0945 23.3135 27.2053C22.3033 27.787 21.1693 28.7153 20.3704 29.5598C20.2038 29.7386 20.2458 29.8224 20.4301 29.9206C22.7031 31.1354 26.1598 33.5283 29.3723 37.586C29.5719 37.8369 29.5855 37.9528 29.4726 38.0192C28.8547 38.386 27.8234 38.3808 26.6937 37.6792C23.6309 35.7745 20.5201 34.4257 18.0863 33.7264C17.827 33.651 17.7815 33.666 17.6755 33.8876C17.082 35.1315 16.4354 36.7483 16.2022 38.15C16.1727 38.3331 16.1568 38.3473 16.3268 38.3817C23.0247 39.7382 26.6995 43.4013 27.1187 48.2983C27.1919 49.1478 26.2281 49.9661 25.2691 49.6639C24.2277 49.3341 23.2167 48.9638 22.1745 48.6348C22.0626 48.5979 21.9497 48.582 21.8309 48.582C20.3915 48.5811 18.9501 48.5804 17.5089 48.5804C17.3169 48.5804 17.2042 48.7005 17.3951 48.9414C18.4828 50.313 19.1152 51.0902 19.882 52.3728C19.9604 52.5063 20.0512 52.5574 20.2087 52.5574C20.7374 52.5574 21.2678 52.5566 21.799 52.5566C22.0094 52.5566 22.1895 52.508 22.3723 52.4005C22.949 52.0638 23.5223 51.7499 24.099 51.4125C24.2824 51.3051 24.4391 51.2404 24.6512 51.2404C29.881 51.2388 35.4862 51.2404 40.7149 51.2395C41.0483 51.2395 41.3935 51.6283 41.3935 51.963C41.3935 52.0009 41.3935 52.0395 41.3935 52.0782C41.3935 52.2039 41.4532 52.251 41.5761 52.2267C42.9332 51.9463 44.0504 51.2967 45.1104 50.4346C45.2063 50.3557 45.2063 50.2801 45.1104 50.2003" fill="#42BD3B"/>
<path d="M37.7623 44.4661C38.0142 46.1828 36.8227 47.7758 35.101 48.0269C33.3807 48.2778 31.7815 47.0918 31.5297 45.3751C31.2778 43.6584 32.469 42.0637 34.1893 41.8128C35.9111 41.5617 37.5105 42.7494 37.7623 44.4661Z" fill="url(#paint2_linear_10774_10310)"/>
<path d="M35.15 41.8203L34.2031 48.0339C35.5596 48.2265 36.9353 47.5113 37.5216 46.2005C38.2302 44.6159 37.517 42.7613 35.9292 42.0553C35.674 41.9419 35.4133 41.8629 35.15 41.8203Z" fill="url(#paint3_linear_10774_10310)"/>
<path d="M37.2999 44.8405C37.2999 46.0013 36.3547 46.9448 35.1878 46.9448C34.0219 46.9448 33.0781 46.0013 33.0781 44.8405C33.0781 43.6771 34.0219 42.7344 35.1878 42.7344C36.3547 42.7344 37.2999 43.6771 37.2999 44.8405Z" fill="white" stroke="#141414" stroke-width="0.164342"/>
</g>
<defs>
<linearGradient id="paint0_linear_10774_10310" x1="32.0842" y1="63.8442" x2="31.9247" y2="17.4669" gradientUnits="userSpaceOnUse">
<stop stop-color="#99A2A7"/>
<stop offset="0.47584" stop-color="#98A3A8"/>
<stop offset="0.535243" stop-color="#E6E6E6"/>
<stop offset="1" stop-color="#E6E6E6"/>
</linearGradient>
<linearGradient id="paint1_linear_10774_10310" x1="15.7468" y1="52.5963" x2="46.4689" y2="24.4033" gradientUnits="userSpaceOnUse">
<stop stop-color="#151313"/>
<stop offset="0.085001" stop-color="#151313"/>
<stop offset="0.127798" stop-color="#F8F1F1"/>
<stop offset="0.228741" stop-color="#151313"/>
<stop offset="0.304102" stop-color="#141414"/>
<stop offset="0.381742" stop-color="#F8F1F1"/>
<stop offset="0.449694" stop-color="#151313"/>
<stop offset="0.565496" stop-color="#F8F1F4"/>
<stop offset="0.626805" stop-color="#141414"/>
<stop offset="0.787047" stop-color="#F8F1F1"/>
<stop offset="1" stop-color="#F8F1F2"/>
</linearGradient>
<linearGradient id="paint2_linear_10774_10310" x1="34.6689" y1="44.3353" x2="37.6186" y2="48.2031" gradientUnits="userSpaceOnUse">
<stop stop-color="#151313"/>
<stop offset="0.162563" stop-color="#CCC4C4"/>
<stop offset="0.496139" stop-color="#B7ACAD"/>
<stop offset="1" stop-color="#151313"/>
</linearGradient>
<linearGradient id="paint3_linear_10774_10310" x1="35.3751" y1="43.9062" x2="30.9619" y2="45.7044" gradientUnits="userSpaceOnUse">
<stop stop-color="#151313"/>
<stop offset="0.25" stop-color="#CCC4C4"/>
<stop offset="0.5" stop-color="#B7ACAD"/>
<stop offset="1" stop-color="#151313"/>
</linearGradient>
<clipPath id="clip0_10774_10310">
<rect width="64" height="64" fill="white"/>
</clipPath>
</defs>
</svg>
