<svg width="64" height="64" viewBox="0 0 64 64" fill="none" xmlns="http://www.w3.org/2000/svg">
<g clip-path="url(#clip0_10704_21757)">
<path d="M43.1055 58.5479V5.45508C52.515 12.3186 59.5654 21.0836 63.9427 32.0015C59.2364 43.0247 52.3304 51.9116 43.1055 58.5479Z" fill="#FFA000"/>
<path d="M30.8117 46.2104C22.2878 46.2104 15.3773 39.8481 15.3773 32C15.3773 24.1519 22.2878 17.7896 30.8117 17.7896C35.0209 17.7896 38.8311 19.3448 41.6158 21.8605V4.81678C37.8592 3.02675 33.6858 2 29.2683 2C13.0718 2 -0.0585938 15.432 -0.0585938 32C-0.0585938 48.568 13.0718 62 29.2683 62C33.6858 62 37.8592 60.9718 41.6158 59.1832V42.141C38.8311 44.6552 35.0209 46.2104 30.8117 46.2104Z" fill="#B0BEC5"/>
<path d="M41.611 40.5075C39.1552 43.5802 35.403 45.5494 31.1924 45.5494C23.7937 45.5494 17.7971 39.4837 17.7971 31.9999C17.7971 24.5161 23.7937 18.4504 31.1924 18.4504C35.403 18.4504 39.1552 20.4196 41.611 23.4923V19.2258C38.7801 16.8606 35.15 15.4395 31.1924 15.4395C22.1505 15.4395 14.8203 22.854 14.8203 31.9999C14.8203 41.1458 22.1505 48.5603 31.1924 48.5603C35.15 48.5603 38.7801 47.1392 41.611 44.774V40.5075Z" fill="#90A4AE"/>
<path d="M44.6124 6.77886C44.1034 6.36334 43.6138 5.93126 43.0898 5.5293V58.6612C43.6138 58.2638 44.1034 57.8332 44.6124 57.4192V6.77886Z" fill="#F57C00"/>
</g>
<defs>
<clipPath id="clip0_10704_21757">
<rect width="64" height="64" fill="white"/>
</clipPath>
</defs>
</svg>
