<svg width="64" height="64" viewBox="0 0 64 64" fill="none" xmlns="http://www.w3.org/2000/svg">
<path d="M20.4449 25.0748C20.6203 25.1838 20.7902 25.2333 20.9547 25.2246C21.2628 25.2045 21.5586 24.9914 21.842 24.5861C21.969 24.4047 22.0626 24.2236 22.123 24.0425C22.2401 23.6934 22.1906 23.4416 21.9737 23.2863C21.8113 23.1701 21.6533 23.1493 21.4996 23.2236C21.347 23.3005 21.1536 23.4547 20.9193 23.6843L20.4894 24.1095C20.2092 24.3875 19.9861 24.5665 19.8208 24.647C19.5374 24.7877 19.2709 24.7691 19.0225 24.5912C18.7553 24.4003 18.6146 24.1299 18.6009 23.7805C18.5871 23.4314 18.7256 23.0495 19.0152 22.6348C19.2821 22.2532 19.5836 21.9829 19.9199 21.8233C20.2565 21.6636 20.5895 21.7019 20.9193 21.9377L20.5856 22.4158C20.412 22.3279 20.2547 22.2933 20.1141 22.3115C19.8577 22.3491 19.6057 22.5448 19.3591 22.8975C19.1599 23.1828 19.0666 23.4237 19.0792 23.6198C19.0926 23.8162 19.1642 23.9608 19.2955 24.0548C19.4419 24.1594 19.5999 24.162 19.7706 24.0621C19.8805 23.9951 20.0873 23.8147 20.3918 23.5203L20.8397 23.0797C21.0563 22.8676 21.2516 22.7241 21.4255 22.649C21.7242 22.5185 22.0058 22.5477 22.2705 22.7368C22.5992 22.9718 22.7312 23.2871 22.6675 23.6824C22.6035 24.0771 22.4358 24.4695 22.1638 24.8584C21.8467 25.312 21.5043 25.5995 21.1366 25.7213C20.7703 25.8444 20.4283 25.7887 20.1104 25.5533L20.4449 25.0748ZM27.1211 16.613L27.8102 16.4706L29.4409 17.9431L30.3684 15.9429L31.0576 15.8008L29.8275 18.302L30.1203 19.7556L29.5172 19.8803L29.2244 18.4263L27.1211 16.613ZM33.5947 15.9101L34.1971 16.0384L33.8312 17.7981L36.3948 16.5059L37.2344 16.6841L35.0505 17.7401L36.449 20.28L35.698 20.1361L34.5417 17.9868L33.7086 18.3895L33.4472 19.6449L32.8452 19.517L33.5947 15.9101ZM39.4237 17.6399L42.1963 19.5151L41.9569 19.8777L39.6956 18.348L39.0734 19.2903L41.1607 20.702L40.921 21.0638L38.8336 19.6525L38.1499 20.6874L40.4419 22.2376L40.2026 22.6002L37.3989 20.7042L39.4237 17.6399ZM24.5047 18.1617C24.3662 18.204 24.2039 18.2984 24.0177 18.4442L23.0551 19.197L23.8231 20.2017L24.7856 19.4488C25.0026 19.279 25.1501 19.1037 25.2282 18.9226C25.3063 18.7419 25.273 18.5571 25.1284 18.3676C24.9653 18.1541 24.7571 18.0852 24.5047 18.1617ZM22.3049 19.2334L23.9139 17.9744C24.2317 17.7256 24.5456 17.598 24.8554 17.5904C25.1653 17.5834 25.4217 17.7128 25.6252 17.9788C25.8006 18.2084 25.8653 18.4773 25.8187 18.7841C25.7724 19.0921 25.5695 19.3865 25.2098 19.6674L24.0871 20.5464L25.021 21.7671L24.534 22.1483L22.3049 19.2334ZM44.0946 24.158L43.1867 22.8461L44.2204 22.114L45.116 23.408C45.116 23.408 45.6052 24.1777 45.0961 24.4918C44.5867 24.8059 44.0946 24.158 44.0946 24.158ZM43.9015 24.5585C43.895 24.4127 44.6333 25.5066 45.4151 24.9531C46.1964 24.3988 45.5687 23.3785 45.5687 23.3785L44.232 21.4468L41.2164 23.5829L41.5227 24.0253L42.8714 23.0695L43.4159 23.8566C43.7793 24.3817 43.0254 26.1964 43.0254 26.1964L43.3928 26.7281C43.3931 26.7281 43.9532 25.6528 43.9015 24.5585ZM17.4955 36.1104L17.4966 36.1162L19.9817 35.4665L20.028 35.6472L17.1339 36.4044L17.0779 36.184L19.3569 34.761L19.3555 34.7555L16.8783 35.4034L16.832 35.2219L19.7257 34.4651L19.7836 34.691L17.4955 36.1104ZM20.16 36.0386L20.229 36.2124L18.2183 37.033C17.8267 37.193 17.6304 37.3475 17.7508 37.6496C17.8755 37.9619 18.1655 37.9243 18.539 37.772L20.5277 36.9601L20.5968 37.1336L18.6674 37.9211C18.1279 38.1415 17.7114 38.1747 17.5386 37.7421C17.3852 37.3573 17.6134 37.0778 18.1196 36.8712L20.16 36.0386ZM18.197 39.0493L20.792 37.5483L20.8839 37.7108L18.4895 39.0959L18.8822 39.7908L18.6819 39.9067L18.197 39.0493ZM19.0369 40.4752L21.4902 38.7472L21.5958 38.9009L19.3323 40.4952L19.7847 41.1519L19.5948 41.2856L19.0369 40.4752ZM21.4183 41.6759L22.3685 40.454L22.3649 40.4497L21.043 41.2426L21.4183 41.6759ZM22.6838 40.3163L20.813 42.745L20.6893 42.6022L21.2707 41.8603L20.843 41.3665L20.0363 41.8482L19.9181 41.7116L22.5431 40.1541L22.6838 40.3163ZM24.0332 42.0927L24.2143 41.8377L25.1501 42.5187L24.969 42.7742L24.5759 42.4881L23.0114 44.6873L22.8613 44.578L24.4259 42.3788L24.0332 42.0927ZM24.0039 45.3651L25.4828 42.7374L26.3936 43.2592L26.2464 43.5227L25.4972 43.0938L24.9968 43.9789L25.6845 44.3728L25.5565 44.6086L24.8688 44.215L24.3069 45.2175L25.0688 45.6537L24.9267 45.8942L24.0039 45.3651ZM26.6384 46.1992L26.6438 46.2017L27.6414 43.8087L27.8117 43.8816L26.6499 46.6678L26.4427 46.5793L26.7081 43.8834L26.7027 43.8809L25.7084 46.2659L25.5381 46.1934L26.6995 43.4068L26.9121 43.4975L26.6384 46.1992ZM28.3522 45.9871L28.5005 44.4399L28.4954 44.438L27.8052 45.8275L28.3522 45.9871ZM28.6928 44.1516L28.4126 47.2177L28.2322 47.1652L28.3262 46.2232L27.7028 46.041L27.2802 46.8872L27.1077 46.8365L28.4875 44.0922L28.6928 44.1516ZM30.3315 46.5239C30.257 47.0344 29.9811 47.577 29.5595 47.5063C28.9499 47.4043 29.1152 46.3901 29.2186 45.7575C29.3187 45.145 29.5162 44.2868 30.0755 44.3801C30.4548 44.4435 30.5763 44.9012 30.4964 45.4066L30.3138 45.3764C30.355 45.0193 30.316 44.657 30.0321 44.6097C29.5881 44.5357 29.4572 45.4452 29.3918 45.8472C29.3169 46.3045 29.1531 47.2009 29.617 47.2785C29.9316 47.331 30.0809 46.8573 30.1489 46.4929L30.3315 46.5239ZM30.8113 47.597L30.9502 44.5761L31.1353 44.5849L30.9961 47.6058L30.8113 47.597ZM33.1569 47.6109L32.8582 44.602L33.0426 44.5831L33.3409 47.5923L33.1569 47.6109ZM34.8364 46.9735L34.8418 46.9721L34.4181 44.4114L34.6007 44.3805L35.0942 47.3631L34.8729 47.4006L33.6696 44.9799L33.6638 44.9806L34.0865 47.5336L33.9039 47.5646L33.41 44.582L33.6374 44.5433L34.8364 46.9735ZM34.9854 44.328L35.1712 44.2719L36.3883 46.7024L36.3941 46.7006L36.1037 43.9898L36.2755 43.9377L36.5886 46.999L36.3901 47.0595L34.9854 44.328ZM37.8147 46.564L36.6436 43.7825L36.8135 43.7092L37.985 46.4911L37.8147 46.564ZM38.7794 44.8276L37.8444 43.5934L37.8389 43.5966L38.271 45.0881L38.7794 44.8276ZM37.7901 43.2508L39.6533 45.6857L39.4859 45.7714L38.9197 45.0182L38.3408 45.3155L38.6026 46.2254L38.4424 46.3078L37.5999 43.3488L37.7901 43.2508ZM42.0321 41.7735C42.3807 41.6722 42.6396 41.595 43.033 41.9729C43.4058 42.3307 43.4777 42.7341 43.221 43.0078C42.952 43.2938 42.5308 43.1743 42.1522 42.7986L42.2777 42.6649C42.5477 42.928 42.8497 43.0635 43.0514 42.8485C43.2297 42.6587 43.1798 42.3722 42.9111 42.1139C42.585 41.8001 42.3724 41.9211 42.1052 42.0064C41.7917 42.1059 41.5205 42.1314 41.1734 41.7979C40.8216 41.459 40.7189 41.0706 40.9583 40.8159C41.1879 40.5717 41.5726 40.6362 41.9078 40.97L41.7845 41.1016C41.5523 40.8625 41.2887 40.8035 41.1239 40.9788C40.9568 41.1562 41.0526 41.4237 41.2895 41.6511C41.5035 41.857 41.634 41.8872 41.8492 41.8282L42.0321 41.7735ZM41.9244 40.3862L41.6937 40.2102L42.3908 39.2814L42.6212 39.4567L42.3286 39.8466L44.48 41.4984L44.3683 41.6474L42.2169 39.9956L41.9244 40.3862ZM43.3237 37.783L43.4025 37.6044L46.0174 38.2549L46.02 38.2498L43.7992 36.7047L43.8722 36.5389L46.3711 38.2946L46.2865 38.4866L43.3237 37.783ZM46.861 37.0658L44.0038 36.1774L44.0581 35.9985L46.9152 36.8869L46.861 37.0658ZM46.1256 35.2143L44.5914 35.1236L44.5903 35.1294L45.9889 35.7737L46.1256 35.2143ZM44.2992 34.941L47.3383 35.1057L47.2934 35.2905L46.3595 35.2314L46.2033 35.8691L47.0552 36.2638L47.0121 36.4398L44.2482 35.1505L44.2992 34.941ZM41.4287 44.52L39.5745 42.1481L40.3935 41.4889L40.58 41.7258L39.9061 42.2684L40.5301 43.069L41.1484 42.5712L41.3169 42.78L40.6986 43.2774L41.4066 44.18L42.0918 43.6287L42.2592 43.8517L41.4287 44.52Z" fill="black"/>
<path fill-rule="evenodd" clip-rule="evenodd" d="M33.3623 30.4399C33.3622 30.4399 33.3621 30.4398 33.4592 30.2883C33.5563 30.1368 33.5563 30.1367 33.5563 30.1367L33.5567 30.137L33.5594 30.1387C33.562 30.1404 33.566 30.1429 33.5716 30.1464C33.5828 30.1533 33.5999 30.1637 33.6228 30.1771C33.6684 30.2039 33.7367 30.2424 33.8252 30.288C34.0024 30.3794 34.2603 30.4991 34.58 30.6107C35.2203 30.8343 36.102 31.023 37.0787 30.8929L37.1256 31.2506C36.0774 31.3902 35.1377 31.1872 34.4628 30.9516C34.1249 30.8336 33.8516 30.7069 33.6622 30.6092C33.5674 30.5604 33.4935 30.5187 33.4427 30.4889C33.4173 30.474 33.3977 30.4621 33.3842 30.4537C33.3774 30.4495 33.3722 30.4462 33.3685 30.4439L33.3641 30.4411L33.3628 30.4403L33.3623 30.4399ZM30.8486 33.2671C30.8487 33.2671 30.8487 33.2671 30.7514 33.4185C30.6541 33.5699 30.6541 33.5699 30.6542 33.5699L30.6537 33.5697L30.6511 33.568C30.6485 33.5664 30.6445 33.5638 30.639 33.5604C30.6279 33.5535 30.6109 33.5431 30.5883 33.5298C30.543 33.5032 30.4753 33.4649 30.3874 33.4195C30.2114 33.3287 29.9552 33.2097 29.6372 33.0988C29.0002 32.8766 28.1216 32.6893 27.1447 32.8197L27.0977 32.4621C28.1459 32.3221 29.0824 32.5236 29.7543 32.7578C30.0906 32.8751 30.3623 33.0012 30.5506 33.0984C30.6448 33.1471 30.7182 33.1886 30.7687 33.2182C30.7939 33.233 30.8134 33.2449 30.8268 33.2533C30.8335 33.2574 30.8387 33.2607 30.8424 33.2631L30.8467 33.2658L30.848 33.2667L30.8486 33.2671Z" fill="black"/>
<path fill-rule="evenodd" clip-rule="evenodd" d="M24.2735 24.1959C25.9014 22.4759 28.4456 20.8526 32.1675 20.8792C39.1466 20.9295 41.7402 26.6231 42.2348 27.7087C42.2438 27.7286 42.2521 27.7469 42.2598 27.7636L42.2599 27.7638C42.3838 28.0348 42.4085 28.2893 42.3647 28.5184C42.3215 28.7441 42.2149 28.9288 42.1005 29.0708C41.9862 29.2126 41.8589 29.3183 41.7621 29.388C41.7133 29.4232 41.6709 29.4501 41.6399 29.4687C41.6244 29.478 41.6116 29.4853 41.6022 29.4905C41.5975 29.4931 41.5936 29.4951 41.5907 29.4967L41.5869 29.4987L41.5856 29.4994L41.5851 29.4997L41.5848 29.4998C41.5847 29.4999 41.5846 29.4999 41.4676 29.269C41.5069 29.5253 41.5069 29.5253 41.5068 29.5253L41.4518 29.5338C41.4158 29.5394 41.3631 29.5475 41.2957 29.5579C41.1608 29.5787 40.9675 29.6083 40.7332 29.6437C40.2647 29.7146 39.6322 29.8089 38.9769 29.9025C38.3218 29.9961 37.6427 30.0891 37.0811 30.1574C36.5299 30.2243 36.0665 30.2709 35.8607 30.2643L35.8606 30.2643C35.0272 30.2372 34.1527 29.9341 33.6035 29.564L33.6034 29.5639C33.2931 29.3546 33.0386 29.2342 32.7813 29.164C32.5221 29.0932 32.2464 29.0695 31.8862 29.0695C31.6957 29.0695 31.5256 29.0814 31.2941 29.1545C31.0563 29.2296 30.7447 29.3723 30.2808 29.6477L30.2806 29.6477C29.7707 29.95 29.1587 30.0952 28.6885 30.1666C28.4508 30.2027 28.2437 30.2207 28.0955 30.2297C28.0214 30.2343 27.9617 30.2365 27.9201 30.2377C27.8993 30.2383 27.883 30.2386 27.8717 30.2387C27.866 30.2388 27.8615 30.2388 27.8584 30.2389L27.8546 30.2389L27.8534 30.2389H27.8529C27.8528 30.2389 27.8528 30.2389 27.8528 29.9796V30.2389H27.8336L22.9574 29.5035C22.6496 29.4569 22.3502 29.2651 22.1424 29.031C21.9384 28.8011 21.7735 28.4718 21.8452 28.1321C21.8906 27.9167 22.098 27.3577 22.4853 26.6509C22.8767 25.9368 23.4611 25.0544 24.2735 24.1959ZM22.0974 28.1862L22.3484 28.24C22.3254 28.3492 22.3746 28.5147 22.5259 28.6853C22.6736 28.8517 22.871 28.966 23.034 28.9908C23.034 28.9908 23.0339 28.9908 23.034 28.9908L27.8706 29.7201C27.8794 29.72 27.8912 29.7198 27.906 29.7194C27.9424 29.7183 27.9964 29.7163 28.0644 29.7121C28.2007 29.7038 28.3923 29.6872 28.6119 29.6538C29.0562 29.5864 29.5929 29.4539 30.0198 29.2008C30.4999 28.9158 30.8496 28.7515 31.1403 28.6597C31.4375 28.5659 31.6633 28.551 31.8862 28.551C32.2667 28.551 32.5938 28.5756 32.9159 28.6635C33.2398 28.7519 33.5451 28.9006 33.8895 29.133C34.3571 29.448 35.1378 29.722 35.8772 29.746C36.0349 29.751 36.453 29.7114 37.0195 29.6425C37.5759 29.5749 38.2509 29.4825 38.9047 29.3891C39.5582 29.2958 40.1891 29.2017 40.6568 29.1309C40.8906 29.0955 41.0835 29.066 41.218 29.0453C41.2852 29.035 41.3378 29.0268 41.3736 29.0213L41.3819 29.02C41.4021 29.0078 41.4302 28.9897 41.463 28.9661C41.5351 28.9142 41.6244 28.8391 41.7011 28.7439C41.7776 28.649 41.8364 28.5406 41.8595 28.4202C41.8819 28.3032 41.8739 28.1587 41.7926 27.9807C41.7853 27.965 41.7775 27.9478 41.7691 27.9294C41.2814 26.8598 38.813 21.4456 32.1638 21.3978C28.6111 21.3723 26.1962 22.9157 24.6458 24.5538C23.8692 25.3745 23.3097 26.2191 22.9357 26.9016C22.5578 27.5912 22.3783 28.0981 22.3485 28.2399L22.0974 28.1862ZM41.4676 29.269L41.5068 29.5253L41.5478 29.5189L41.5846 29.4999L41.4676 29.269Z" fill="black"/>
<path fill-rule="evenodd" clip-rule="evenodd" d="M26.9472 22.4023L27.1666 22.2852L32.006 28.6921L31.8058 28.8457L27.428 23.0499L29.6604 29.7633L22.8399 28.4573L24.3536 29.3052L24.2314 29.5269L22.0352 28.2967L22.1198 28.0613L29.2852 29.4333L26.9472 22.4023Z" fill="black"/>
<path fill-rule="evenodd" clip-rule="evenodd" d="M34.4762 22.2073L31.6492 28.8472L31.418 28.7472L34.5409 21.4121L34.782 21.4714L34.1981 29.5006L33.9471 29.4821L34.4762 22.2073Z" fill="black"/>
<path fill-rule="evenodd" clip-rule="evenodd" d="M23.1758 25.9705L23.3154 25.7637L30.4931 29.1049L30.3876 29.3351L23.8973 26.3139L27.5124 29.7907L27.3386 29.9742L23.1758 25.9705ZM40.3303 26.3267L33.6701 29.3632L33.5664 29.1322L40.906 25.7859L41.0445 25.9934L36.8216 30.0317L36.6484 29.8477L40.3303 26.3267Z" fill="black"/>
<path fill-rule="evenodd" clip-rule="evenodd" d="M29.4102 21.4711L29.6513 21.4121L32.7818 28.7694L32.5506 28.8693L29.7145 22.2041L30.2198 29.3256L29.9688 29.3437L29.4102 21.4711Z" fill="black"/>
<path fill-rule="evenodd" clip-rule="evenodd" d="M36.7668 23.049L32.4464 28.7715L32.2461 28.618L37.0287 22.2832L37.2481 22.4003L34.8075 29.7328L34.5689 29.6522L36.7668 23.049Z" fill="black"/>
<path fill-rule="evenodd" clip-rule="evenodd" d="M24.8594 23.982L25.0438 23.8145L31.256 28.8027L31.0992 29.0011L25.4797 24.4887L28.7851 29.698L28.5731 29.8346L24.8594 23.982ZM41.3459 28.4834L34.4659 29.7856L34.4194 29.5363L42.0046 28.1006L42.0918 28.3345L39.9263 29.6215L39.7984 29.4031L41.3459 28.4834Z" fill="black"/>
<path fill-rule="evenodd" clip-rule="evenodd" d="M32.1082 21.897L30.9122 28.9911L30.6641 28.9486L31.9871 21.1016L32.2353 21.1025L33.5088 29.0159L33.2604 29.0565L32.1082 21.897Z" fill="black"/>
<path fill-rule="evenodd" clip-rule="evenodd" d="M38.748 24.4391L33.1703 29.0012L33.0117 28.8043L39.1911 23.75L39.3765 23.9166L35.5311 30.0017L35.3189 29.8655L38.748 24.4391Z" fill="black"/>
<path fill-rule="evenodd" clip-rule="evenodd" d="M37.0257 34.1403C36.4584 34.0713 36.0397 34.0315 35.8818 34.0365C35.1417 34.0605 34.3599 34.3349 33.8909 34.651C33.5461 34.8833 33.2404 35.0321 32.9161 35.1206C32.5936 35.2086 32.266 35.2333 31.8847 35.2333C31.6619 35.2333 31.4358 35.2184 31.1383 35.1245C30.8472 35.0326 30.4968 34.8681 30.0157 34.5827C29.5883 34.3291 29.0508 34.1964 28.6058 34.1288C28.3859 34.0954 28.194 34.0787 28.0575 34.0703C27.9894 34.0662 27.9353 34.0641 27.8988 34.0631C27.884 34.0627 27.8721 34.0624 27.8634 34.0623L23.0198 34.7931C23.0198 34.7931 23.0197 34.7931 23.0197 34.7932C22.8564 34.8179 22.6586 34.9325 22.5107 35.0991C22.359 35.27 22.3097 35.436 22.3329 35.5457L22.0812 35.5997L22.3329 35.5458C22.3628 35.6878 22.5427 36.1955 22.9212 36.8861C23.2958 37.5696 23.8561 38.4155 24.6339 39.2375C26.1866 40.8782 28.6049 42.424 32.1624 42.3985C38.8247 42.3507 41.2968 36.9237 41.7834 35.8555C41.7916 35.8375 41.7992 35.8207 41.8063 35.8053C41.8879 35.6269 41.8959 35.482 41.8735 35.3649C41.8504 35.2442 41.7915 35.1358 41.7148 35.0407C41.6379 34.9454 41.5484 34.8703 41.4762 34.8183C41.4432 34.7946 41.4149 34.7765 41.3946 34.7643L41.3861 34.763C41.3503 34.7574 41.2976 34.7493 41.2303 34.7389C41.0956 34.7182 40.9024 34.6886 40.6683 34.6531C40.1999 34.5822 39.568 34.4879 38.9136 34.3944C38.2589 34.3008 37.5828 34.2081 37.0257 34.1403ZM41.4802 34.5152C41.597 34.2842 41.5971 34.2843 41.5973 34.2844L41.5975 34.2845L41.5994 34.2855L41.6031 34.2874C41.6061 34.289 41.61 34.2911 41.6147 34.2937C41.6241 34.2989 41.6369 34.3062 41.6524 34.3155C41.6835 34.334 41.7259 34.361 41.7749 34.3962C41.8719 34.4659 41.9995 34.5717 42.114 34.7136C42.2287 34.8557 42.3354 35.0407 42.3787 35.2666C42.4226 35.496 42.3977 35.7509 42.2736 36.0223C42.2661 36.0387 42.2579 36.0566 42.2491 36.076C41.7556 37.1604 39.1583 42.8668 32.166 42.9171C28.4395 42.9437 25.8917 41.318 24.2616 39.5953C23.4481 38.7356 22.8628 37.8519 22.4708 37.1368C22.0829 36.429 21.8751 35.8692 21.8296 35.6537M41.4802 34.5152L41.5196 34.259L41.5603 34.2654L41.597 34.2842L41.4802 34.5152ZM21.8296 35.6536C21.7578 35.3133 21.9228 34.9836 22.1272 34.7534C22.3353 34.5189 22.6352 34.327 22.9433 34.2803L27.8264 33.5436H27.8455V33.8028C27.8455 33.5436 27.8456 33.5436 27.8456 33.5436L27.8462 33.5436L27.8473 33.5436L27.8511 33.5436C27.8543 33.5436 27.8587 33.5436 27.8644 33.5437C27.8758 33.5439 27.8922 33.5442 27.913 33.5447C27.9546 33.5459 28.0144 33.5482 28.0887 33.5527C28.237 33.5618 28.4445 33.5799 28.6825 33.616C29.1533 33.6875 29.7663 33.833 30.2767 34.1358C30.7415 34.4116 31.0538 34.5545 31.2921 34.6297C31.524 34.7028 31.6942 34.7147 31.8847 34.7147C32.2457 34.7147 32.5219 34.691 32.7816 34.6201C33.0394 34.5497 33.2942 34.4292 33.6049 34.2199C34.1555 33.8488 35.0311 33.5452 35.8653 33.5182L35.8656 33.5182C36.0715 33.5117 36.5354 33.5584 37.0874 33.6255C37.6497 33.694 38.3298 33.7872 38.9859 33.881C39.6421 33.9748 40.2755 34.0693 40.7447 34.1403C40.9793 34.1758 41.173 34.2055 41.308 34.2263C41.3755 34.2367 41.4284 34.2449 41.4644 34.2504L41.5196 34.259C41.5196 34.259 41.5196 34.259 41.4802 34.5152" fill="black"/>
<path fill-rule="evenodd" clip-rule="evenodd" d="M29.656 34.0215L27.4197 40.7453L31.8042 34.9405L32.0045 35.0941L27.1582 41.5102L26.9388 41.393L29.2808 34.3515L22.1041 35.7257L22.0195 35.4902L24.2194 34.2582L24.3416 34.4799L22.8245 35.3296L29.656 34.0215Z" fill="black"/>
<path fill-rule="evenodd" clip-rule="evenodd" d="M34.2017 34.2871L34.7864 42.3287L34.5452 42.388L31.418 35.0417L31.6492 34.9417L34.4805 41.5927L33.9507 34.3056L34.2017 34.2871Z" fill="black"/>
<path fill-rule="evenodd" clip-rule="evenodd" d="M36.8262 33.7539L41.0556 37.7984L40.9171 38.0059L33.5663 34.6545L33.67 34.4234L40.3415 37.4651L36.653 33.9379L36.8262 33.7539ZM23.1602 37.8209L27.3295 33.811L27.5032 33.9945L23.8816 37.4776L30.3831 34.4516L30.4887 34.6818L23.2998 38.0278L23.1602 37.8209Z" fill="black"/>
<path fill-rule="evenodd" clip-rule="evenodd" d="M29.4062 42.326L29.966 34.4414L30.217 34.4595L29.7106 41.593L32.5513 34.9168L32.7826 35.0168L29.6474 42.385L29.4062 42.326Z" fill="black"/>
<path fill-rule="evenodd" clip-rule="evenodd" d="M34.8107 34.0508L37.255 41.3942L37.0355 41.5113L32.2461 35.1675L32.4464 35.0139L36.7736 40.7456L34.5721 34.1314L34.8107 34.0508Z" fill="black"/>
<path fill-rule="evenodd" clip-rule="evenodd" d="M24.8477 39.8106L28.5676 33.9492L28.7796 34.0859L25.468 39.3038L31.0969 34.7842L31.2537 34.9825L25.0321 39.9781L24.8477 39.8106ZM42.0186 35.6858L34.4222 34.2482L34.4686 33.999L41.3599 35.3031L39.8095 34.3815L39.9373 34.163L42.1057 35.4519L42.0186 35.6858Z" fill="black"/>
<path fill-rule="evenodd" clip-rule="evenodd" d="M33.505 34.7691L32.2297 42.6952L31.9814 42.6962L30.6562 34.8367L30.9044 34.7943L32.1026 41.9007L33.2566 34.7285L33.505 34.7691Z" fill="black"/>
<path fill-rule="evenodd" clip-rule="evenodd" d="M35.534 33.7832L39.3855 39.8782L39.2001 40.0448L33.0117 34.9821L33.1703 34.7852L38.7569 39.3555L35.3218 33.9194L35.534 33.7832Z" fill="black"/>
<path fill-rule="evenodd" clip-rule="evenodd" d="M32.0957 29.9467C31.059 29.9467 30.2173 30.7973 30.2173 31.8481C30.2173 32.899 31.059 33.7496 32.0957 33.7496C33.1325 33.7496 33.9741 32.899 33.9741 31.8481C33.9741 30.7973 33.1325 29.9467 32.0957 29.9467ZM29.8594 31.8481C29.8594 30.5995 30.8599 29.5859 32.0957 29.5859C33.3315 29.5859 34.3321 30.5995 34.3321 31.8481C34.3321 33.0968 33.3315 34.1104 32.0957 34.1104C30.8599 34.1104 29.8594 33.0968 29.8594 31.8481Z" fill="black"/>
<path d="M30.9453 30.1559L33.2525 33.5471L32.8179 33.7941L32.2752 33.89L31.8142 33.8761L31.3662 33.7391L31.0541 33.5605L33.2251 30.1148L32.8179 29.8677L32.4111 29.7715H32.0311L31.6106 29.813L31.2574 29.9639L30.9453 30.1559Z" fill="black"/>
<path fill-rule="evenodd" clip-rule="evenodd" d="M32.1005 15.3627C23.9597 15.3627 17.2125 21.403 16 29.2959L15.6462 29.2407C16.8852 21.1757 23.7795 15.002 32.1005 15.002C40.4545 15.002 47.3708 21.2247 48.5695 29.3372L48.2155 29.3903C47.0423 21.4509 40.2735 15.3627 32.1005 15.3627ZM15.9792 34.2582C17.132 42.2211 23.9115 48.3342 32.1009 48.3342C40.2496 48.3342 47.0019 42.282 48.2047 34.3768L48.5586 34.4315C47.3295 42.509 40.43 48.6949 32.1009 48.6949C23.7301 48.6949 16.8029 42.4468 15.625 34.3103L15.9792 34.2582Z" fill="black"/>
<path fill-rule="evenodd" clip-rule="evenodd" d="M32.0967 20.5229C26.5185 20.5229 21.8921 24.6511 21.0411 30.0533L20.6876 29.9967C21.5656 24.4231 26.3387 20.1621 32.0967 20.1621C37.8999 20.1621 42.702 24.4894 43.5257 30.127L43.1716 30.1796C42.3732 24.7153 37.7187 20.5229 32.0967 20.5229ZM21.0183 33.4959C21.806 38.9724 26.4666 43.1774 32.0967 43.1774C37.6731 43.1774 42.2978 39.0531 43.1516 33.6534L43.5051 33.7102C42.6242 39.2812 37.8529 43.5381 32.0967 43.5381C26.2851 43.5381 21.4767 39.1979 20.6641 33.5477L21.0183 33.4959Z" fill="black"/>
<path fill-rule="evenodd" clip-rule="evenodd" d="M63.2857 27.4425C63.5621 27.572 63.8012 27.7756 63.9223 28.0845C64.0936 28.5222 63.9661 29.0081 63.6924 29.478C63.4166 29.9514 62.9733 30.4432 62.4457 30.9181C59.5645 33.5105 56.5368 34.5018 54.2289 34.8442C53.0753 35.0153 52.1013 35.0244 51.4146 34.9905C51.0712 34.9736 50.7994 34.9459 50.6126 34.9222C50.5193 34.9104 50.4471 34.8996 50.3979 34.8917C50.3833 34.8894 50.3707 34.8873 50.3602 34.8855C50.353 34.8842 50.3467 34.8831 50.3414 34.8822C50.335 34.8811 50.33 34.8802 50.3265 34.8795L50.3253 34.8793L48.4081 34.6051L43.3933 33.8874L43.389 33.8868L43.3871 33.8867L43.3833 33.8862L43.3794 33.8856L43.408 33.7075C43.3794 33.8856 43.3795 33.8856 43.3794 33.8856L43.3247 33.8767C43.2889 33.8708 43.2361 33.8622 43.1683 33.8512C43.0327 33.8291 42.8371 33.7974 42.597 33.7585C42.1167 33.6807 41.4585 33.5746 40.7467 33.4609C39.3223 33.2335 37.6855 32.9765 36.8292 32.8571C36.0925 32.7545 35.2911 32.9125 34.6638 33.1028C34.3522 33.1973 34.0877 33.2985 33.9015 33.376C33.8085 33.4147 33.7351 33.4474 33.6854 33.4702C33.6605 33.4816 33.6416 33.4906 33.629 33.4966C33.6227 33.4996 33.6181 33.5019 33.615 33.5033L33.6118 33.5049L33.6111 33.5053L33.611 33.5053C33.611 33.5053 33.611 33.5053 33.6109 33.5051L33.4016 33.2199L33.5319 33.3435C33.4016 33.2199 33.4016 33.2199 33.4016 33.2199L33.4207 33.1994C33.4331 33.1862 33.4512 33.167 33.474 33.1428C33.5197 33.0943 33.5845 33.0258 33.6611 32.9455C33.8141 32.7851 34.0149 32.5771 34.2044 32.3881C34.7371 31.8569 35.3615 31.498 35.8489 31.2724C36.0932 31.1592 36.3049 31.0788 36.4561 31.0265C36.5318 31.0003 36.5924 30.9811 36.6345 30.9683C36.6555 30.962 36.672 30.9572 36.6834 30.954C36.6891 30.9523 36.6936 30.9511 36.6967 30.9502L36.7004 30.9492L36.7019 30.9488L36.702 30.9488C36.702 30.9488 36.7021 30.9488 36.7478 31.1232L36.7021 30.9488L36.7121 30.9461L48.3871 29.2513L48.4214 29.2463L48.4221 29.2462L60.9662 27.3676C61.0831 27.3256 61.2835 27.2833 61.5172 27.2551C61.7695 27.2246 62.0753 27.2089 62.3841 27.2312C62.6915 27.2534 63.0114 27.3139 63.2857 27.4425ZM36.7843 31.3001C36.7831 31.3005 36.7818 31.3008 36.7804 31.3012C36.7709 31.3039 36.7565 31.3081 36.7375 31.3139C36.6995 31.3254 36.6433 31.3431 36.5724 31.3677C36.4305 31.4168 36.2301 31.4929 35.9983 31.6002C35.5332 31.8155 34.9489 32.1532 34.4562 32.6445C34.3855 32.715 34.313 32.7884 34.242 32.861C34.3414 32.8265 34.4481 32.7915 34.5606 32.7573C35.2072 32.5612 36.0667 32.3867 36.8783 32.4998C37.7387 32.6198 39.3791 32.8773 40.8027 33.1046C41.5148 33.2183 42.1733 33.3245 42.6537 33.4023C42.894 33.4412 43.0897 33.473 43.2253 33.495L43.4331 33.5289L43.4351 33.5291L43.4372 33.5294L50.3837 34.5233L50.3879 34.5241L50.388 34.5241L50.3885 34.5242L50.3912 34.5247C50.3938 34.5252 50.3979 34.5259 50.4035 34.5269C50.4146 34.5289 50.4316 34.5318 50.4544 34.5355C50.4998 34.5428 50.568 34.553 50.6572 34.5643C50.8357 34.5869 51.0985 34.6137 51.4321 34.6302C52.0995 34.6631 53.0498 34.6545 54.1767 34.4873C56.4298 34.1531 59.3882 33.1855 62.2073 30.649C62.7217 30.186 63.1346 29.723 63.3837 29.2953C63.6349 28.8641 63.7011 28.5026 63.5893 28.2169C63.5109 28.0169 63.3531 27.8719 63.1348 27.7696C62.9143 27.6662 62.6417 27.6115 62.3586 27.591C62.0769 27.5707 61.7943 27.585 61.5598 27.6133C61.321 27.6421 61.1465 27.6836 61.0762 27.7113L61.0574 27.7187L48.474 29.6031L48.4733 29.6032L48.4382 29.6083L43.4766 30.3288L36.7843 31.3001ZM13.8427 28.8411L13.8415 28.8409C13.838 28.8402 13.833 28.8393 13.8265 28.8382C13.8136 28.8359 13.7947 28.8326 13.7701 28.8287C13.7209 28.8207 13.6487 28.8099 13.5554 28.7981C13.3686 28.7745 13.0968 28.7468 12.7534 28.7298C12.0668 28.6959 11.0928 28.705 9.93927 28.8761C7.63141 29.2184 4.60372 30.2096 1.72232 32.8019C1.19473 33.2768 0.751365 33.7685 0.47557 34.2419C0.201839 34.7117 0.0743946 35.1975 0.245691 35.6354C0.3667 35.9444 0.605838 36.1481 0.882239 36.2777C1.15651 36.4064 1.47644 36.4669 1.78377 36.4892C2.09255 36.5115 2.39839 36.4958 2.65056 36.4655C2.88428 36.4373 3.08459 36.395 3.20134 36.3531L15.7415 34.4752L15.7423 34.4751L15.7809 34.4691L15.7824 34.4689L27.4563 32.7742L27.4663 32.7716L27.4206 32.5972C27.4663 32.7716 27.4663 32.7716 27.4664 32.7716L27.4665 32.7715L27.468 32.7711L27.4717 32.7701C27.4748 32.7693 27.4792 32.768 27.4849 32.7664C27.4964 32.7632 27.5128 32.7584 27.5339 32.752C27.576 32.7393 27.6366 32.7201 27.7122 32.6939C27.8634 32.6416 28.0751 32.5611 28.3194 32.448C28.8067 32.2224 29.4311 31.8635 29.9636 31.3323M27.384 32.4202C27.3841 32.4202 27.3842 32.4202 27.3842 32.4202L27.3879 32.4191C27.3974 32.4165 27.4119 32.4123 27.4309 32.4065C27.4689 32.395 27.525 32.3772 27.5959 32.3527C27.7378 32.3036 27.9382 32.2275 28.17 32.1202C28.635 31.9049 29.2192 31.5672 29.7118 31.0759C29.7826 31.0053 29.855 30.9319 29.926 30.8594C29.8266 30.8939 29.7199 30.9289 29.6073 30.963C28.9607 31.1592 28.1013 31.3337 27.2897 31.2206C26.4293 31.1006 24.7889 30.843 23.3653 30.6158C22.6532 30.5021 21.9947 30.3959 21.5142 30.3181C21.274 30.2792 21.0783 30.2474 20.9426 30.2253C20.8748 30.2143 20.822 30.2057 20.7861 30.1998L20.7349 30.1915L20.734 30.1913L20.7322 30.1911L20.7316 30.1909L20.7314 30.1909L20.6928 30.1852L20.6921 30.1851L15.7107 29.4725L13.7843 29.1971L13.7801 29.1963L13.78 29.1963L13.7795 29.1962L13.7768 29.1957C13.7742 29.1952 13.7701 29.1944 13.7645 29.1935C13.7534 29.1915 13.7363 29.1885 13.7136 29.1849C13.6682 29.1776 13.6 29.1674 13.5108 29.1561C13.3323 29.1335 13.0696 29.1066 12.7359 29.0902C12.0686 29.0572 11.1183 29.0659 9.99139 29.233C7.73833 29.5672 4.77995 30.5347 1.96074 33.071C1.44627 33.5341 1.03338 33.9969 0.784254 34.4245C0.533081 34.8556 0.466892 35.2172 0.578683 35.503M20.7599 30.0128C20.7886 29.8348 20.7886 29.8348 20.7886 29.8348L20.7888 29.8348L20.8433 29.8437C20.8791 29.8495 20.9319 29.8581 20.9997 29.8692C21.1353 29.8912 21.3309 29.923 21.571 29.9619C22.0513 30.0396 22.7095 30.1458 23.4213 30.2594C24.8457 30.4869 26.4824 30.7438 27.3388 30.8632M27.384 32.4202L15.7291 34.1121L15.6889 34.1183L15.6881 34.1185L3.11032 36.002L3.09155 36.0094C3.0213 36.037 2.84682 36.0785 2.60808 36.1073C2.37366 36.1355 2.09108 36.1497 1.8094 36.1293C1.52628 36.1089 1.25372 36.054 1.03326 35.9507C0.814953 35.8483 0.65709 35.7032 0.578683 35.503M13.8427 28.8411L15.761 29.1153L20.744 29.8282L20.7872 29.8346L20.7886 29.8348L20.7599 30.0128M30.557 30.2151C30.557 30.2151 30.557 30.2151 30.5571 30.2153L30.7664 30.5005L30.6361 30.3769C30.7664 30.5005 30.7664 30.5005 30.7664 30.5005L30.7663 30.5006L30.7473 30.5209C30.7397 30.529 30.7299 30.5394 30.7182 30.5519C30.7109 30.5597 30.7028 30.5682 30.6941 30.5775C30.6485 30.6259 30.5837 30.6944 30.5072 30.7746C30.3542 30.9349 30.1535 31.1429 29.9636 31.3323M30.557 30.2151L30.5562 30.2154L30.553 30.217C30.5499 30.2185 30.5453 30.2208 30.539 30.2238C30.5264 30.2298 30.5075 30.2388 30.4826 30.2502C30.4329 30.273 30.3595 30.3057 30.2665 30.3444C30.0803 30.4218 29.8158 30.523 29.5042 30.6176C28.8769 30.8079 28.0755 30.9659 27.3388 30.8632" fill="black"/>
</svg>
