<?xml version="1.0" standalone="no"?>
<!DOCTYPE svg PUBLIC "-//W3C//DTD SVG 20010904//EN"
 "http://www.w3.org/TR/2001/REC-SVG-20010904/DTD/svg10.dtd">
<svg version="1.0" xmlns="http://www.w3.org/2000/svg"
 width="719.000000pt" height="213.000000pt" viewBox="0 0 719.000000 213.000000"
 preserveAspectRatio="xMidYMid meet">
<metadata>
Created by potrace 1.16, written by Peter Selinger 2001-2019
</metadata>
<g transform="translate(0.000000,213.000000) scale(0.100000,-0.100000)"
fill="#000000" stroke="none">
<path d="M5530 2107 c0 -22 22 -115 35 -149 6 -15 1 -18 -35 -18 -105 0 -377
-100 -460 -169 -32 -26 -18 -26 54 -1 93 32 210 50 320 50 141 0 234 -28 299
-88 15 -14 27 -23 27 -20 0 4 -15 42 -33 85 -44 101 -81 213 -73 220 10 11
160 -48 323 -127 116 -56 192 -86 269 -105 273 -68 498 -201 640 -379 97 -122
155 -253 130 -295 -21 -33 -233 10 -347 70 -31 17 -92 62 -135 101 -135 121
-203 158 -319 176 -69 11 -70 7 -9 -108 62 -117 149 -227 226 -285 l63 -47 5
28 c5 28 7 29 70 32 97 5 345 -39 411 -73 58 -30 104 -104 111 -180 l3 -30
-100 1 c-82 1 -116 7 -187 31 -56 19 -88 25 -88 18 0 -7 30 -47 68 -89 138
-159 129 -146 108 -162 -10 -7 -41 -21 -69 -30 -76 -25 -106 -12 -239 109
-297 271 -325 289 -459 295 -103 5 -114 -2 -149 -94 -42 -114 -52 -187 -47
-349 5 -140 28 -289 47 -309 4 -4 59 -9 122 -11 62 -2 126 -7 142 -12 l30 -9
-32 -23 c-118 -83 -442 -110 -485 -40 -8 13 -2 35 25 90 55 111 69 171 75 304
4 101 2 135 -16 210 -34 139 -103 264 -214 384 -20 22 -37 42 -37 45 0 3 24
18 53 33 45 23 67 27 162 31 153 6 280 -28 405 -109 34 -22 64 -39 66 -37 1 2
-8 18 -22 35 -62 79 -242 185 -374 220 -88 23 -253 22 -340 -1 -80 -22 -207
-83 -279 -136 -47 -34 -52 -40 -35 -46 132 -47 262 -129 359 -229 144 -147
191 -308 149 -513 -22 -110 -79 -225 -148 -299 -31 -34 -52 -64 -47 -67 5 -4
56 -13 113 -22 126 -19 396 -14 502 10 139 31 255 105 298 190 11 22 23 67 25
100 l5 61 -45 -43 c-52 -51 -72 -51 -104 -3 -24 36 -29 74 -14 114 7 18 5 26
-10 35 -25 16 -25 66 1 117 14 28 17 42 9 52 -8 9 -8 21 -1 43 18 49 -5 34
-32 -23 -37 -74 -53 -201 -38 -303 9 -67 15 -83 39 -103 15 -14 20 -22 11 -18
-10 3 -40 9 -68 13 -28 4 -53 10 -55 15 -3 4 9 30 26 57 19 31 29 60 27 76
l-3 26 -44 -35 c-24 -20 -69 -43 -99 -51 -67 -20 -82 -10 -89 60 -5 44 -4 48
37 84 l42 37 -41 23 c-57 32 -52 81 14 142 l26 25 -27 21 -26 22 28 52 c38 69
62 84 122 77 68 -9 116 -25 145 -47 20 -16 26 -32 32 -87 4 -38 9 -71 11 -75
3 -4 20 0 39 9 26 13 35 23 35 42 l0 25 30 -29 c29 -28 40 -65 20 -65 -6 0
-10 -28 -10 -65 0 -83 13 -90 74 -40 l45 36 16 -24 c15 -23 15 -29 1 -74 -9
-26 -22 -76 -30 -110 -13 -58 -13 -62 3 -54 41 23 142 103 157 126 16 24 20
25 113 25 54 0 101 -3 104 -7 4 -3 -6 -14 -22 -24 -25 -15 -30 -25 -36 -79 -4
-34 -5 -64 -2 -66 10 -10 147 129 191 194 71 106 81 154 66 342 -12 154 -11
158 10 209 29 67 23 129 -24 227 -97 205 -297 407 -570 578 -91 58 -317 176
-334 176 -6 0 -4 -23 5 -56 8 -31 12 -58 9 -61 -10 -10 -101 19 -212 67 -141
61 -297 114 -396 134 -106 22 -118 21 -118 -7z m875 -224 c24 -16 18 -16 -26
-1 -33 11 -49 24 -49 42 0 8 21 -4 75 -41z m18 -554 c37 -20 157 -139 139
-139 -41 0 -121 49 -146 89 -37 58 -35 72 7 50z m647 -733 c-12 -31 -25 -56
-30 -56 -5 0 -16 12 -24 27 -13 26 -12 29 28 64 22 20 42 34 44 29 1 -4 -7
-33 -18 -64z"/>
<path d="M637 1699 c-137 -32 -193 -135 -117 -214 52 -53 96 -70 335 -125 121
-27 229 -54 240 -59 13 -6 -164 -10 -481 -10 l-501 -1 -29 -22 c-62 -48 -84
-72 -84 -90 0 -17 30 -18 763 -18 834 0 838 0 922 58 24 17 45 42 53 64 13 34
13 41 -5 74 -33 65 -87 86 -393 155 -151 34 -279 65 -285 70 -5 5 197 9 472 9
l481 0 56 51 c31 28 56 55 56 60 0 12 -1433 10 -1483 -2z"/>
<path d="M2365 1695 c-43 -22 -529 -510 -521 -524 9 -15 354 -15 393 0 15 5
111 93 213 194 149 148 193 185 225 194 42 11 541 16 569 5 9 -3 16 -14 16
-23 0 -27 -91 -108 -155 -138 -59 -27 -63 -27 -298 -31 -194 -4 -237 -7 -235
-18 4 -20 378 -412 414 -435 28 -17 51 -19 202 -19 115 0 173 4 178 11 4 7
-61 79 -156 174 l-162 162 124 6 c202 9 278 46 453 221 115 115 137 152 111
191 -10 14 -28 30 -42 35 -15 6 -281 10 -662 10 -544 0 -641 -3 -667 -15z"/>
<path d="M3906 1651 c-91 -92 -96 -90 232 -84 154 3 287 3 295 0 10 -4 -39
-59 -169 -188 -102 -101 -184 -191 -184 -201 0 -17 14 -18 191 -18 119 0 198
4 212 11 12 6 108 96 212 200 l190 188 257 3 258 3 61 61 c35 35 59 67 55 73
-5 8 -224 11 -779 11 l-773 0 -58 -59z"/>
</g>
</svg>
