<svg width="64" height="64" viewBox="0 0 64 64" fill="none" xmlns="http://www.w3.org/2000/svg">
<g clip-path="url(#clip0_10704_21789)">
<path d="M49.2404 22.205C49.2404 22.4012 49.4363 23.2308 49.552 23.5341C49.6055 23.6679 49.5609 23.6947 49.2404 23.6947C48.3054 23.6947 45.8835 24.5867 45.1444 25.2022C44.8595 25.4341 44.9842 25.4341 45.6253 25.2111C46.4534 24.9256 47.4952 24.7651 48.4746 24.7651C49.7301 24.7651 50.5582 25.0148 51.137 25.55C51.2705 25.6749 51.3774 25.7552 51.3774 25.7285C51.3774 25.6928 51.2438 25.3538 51.0836 24.9702C50.6918 24.0693 50.3623 23.0702 50.4335 23.0078C50.5226 22.9097 51.8582 23.436 53.3096 24.1407C54.3425 24.6402 55.0192 24.9078 55.7048 25.0773C58.1357 25.6839 60.1391 26.8702 61.4035 28.458C62.2672 29.5463 62.7837 30.7148 62.5611 31.0895C62.3741 31.3839 60.4864 31.0003 59.4713 30.4651C59.1953 30.3134 58.6521 29.912 58.2692 29.5641C57.0672 28.4848 56.4617 28.1547 55.4288 27.9942C54.8144 27.8961 54.8055 27.9317 55.3487 28.9576C55.9007 30.0012 56.6754 30.9824 57.361 31.4998L57.922 31.9191L57.9665 31.6693C58.011 31.4195 58.0288 31.4106 58.5898 31.3839C59.4535 31.3393 61.6617 31.7317 62.2494 32.035C62.7659 32.3026 63.1755 32.9627 63.2378 33.6407L63.2645 33.9083L62.3741 33.8993C61.6439 33.8904 61.3412 33.8369 60.709 33.6228C60.2104 33.4533 59.9254 33.3998 59.9254 33.4623C59.9254 33.5247 60.1926 33.8815 60.5309 34.2562C61.7597 35.6745 61.6796 35.5585 61.4926 35.7012C61.4035 35.7637 61.1275 35.8885 60.8782 35.9688C60.2015 36.1918 59.9343 36.0759 58.7501 34.9965C56.1055 32.5792 55.8562 32.4186 54.663 32.3651C53.7459 32.3205 53.648 32.3829 53.3363 33.2036C52.9623 34.2205 52.8733 34.8716 52.9178 36.3167C52.9623 37.5655 53.1671 38.8947 53.3363 39.0731C53.3719 39.1087 53.8617 39.1533 54.4226 39.1712C54.9747 39.189 55.5446 39.2336 55.687 39.2782L55.9542 39.3585L55.6692 39.5637C54.6185 40.304 51.7336 40.5449 51.3507 39.9205C51.2794 39.8045 51.3329 39.6083 51.5733 39.1177C52.063 38.1275 52.1877 37.5923 52.2411 36.4059C52.2767 35.505 52.2589 35.2017 52.0986 34.5327C51.7959 33.2928 51.1815 32.1777 50.1931 31.1073C50.015 30.9111 49.8637 30.7327 49.8637 30.7059C49.8637 30.6792 50.0774 30.5454 50.3356 30.4116C50.7363 30.2064 50.9322 30.1707 51.7781 30.135C53.1404 30.0815 54.2713 30.3848 55.3843 31.1073C55.687 31.3036 55.9542 31.4552 55.972 31.4374C55.9809 31.4195 55.9007 31.2768 55.7761 31.1252C55.224 30.4205 53.6213 29.4749 52.4459 29.1627C51.6623 28.9576 50.1931 28.9665 49.4185 29.1716C48.7061 29.3679 47.5753 29.912 46.9342 30.3848C46.5157 30.6881 46.4712 30.7416 46.6225 30.7951C47.7979 31.2144 48.9554 31.9458 49.8192 32.8378C51.1014 34.1491 51.5199 35.5853 51.1459 37.4139C50.95 38.3951 50.4424 39.4209 49.8281 40.081C49.552 40.3843 49.365 40.6519 49.4096 40.6787C49.4541 40.7144 49.9082 40.7947 50.4157 40.8749C51.5377 41.0444 53.9418 40.9998 54.8856 40.7857C56.1233 40.5092 57.1562 39.8491 57.5391 39.0909C57.637 38.8947 57.7439 38.4932 57.7617 38.1989L57.8062 37.6547L57.4055 38.0383C56.9425 38.4932 56.7644 38.4932 56.4795 38.0651C56.2658 37.7439 56.2213 37.405 56.3548 37.0482C56.4172 36.8876 56.3994 36.8162 56.2658 36.736C56.0432 36.5932 56.0432 36.1472 56.2747 35.6923C56.3994 35.4425 56.4261 35.3177 56.3548 35.2285C56.2836 35.1482 56.2836 35.0411 56.3459 34.8449C56.5062 34.4078 56.3014 34.5416 56.061 35.05C55.7315 35.7101 55.5891 36.843 55.7226 37.7529C55.8028 38.3505 55.8562 38.4932 56.0699 38.6716C56.2035 38.7965 56.248 38.8679 56.1679 38.8322C56.0788 38.8054 55.8117 38.7519 55.5624 38.7162C55.313 38.6806 55.0904 38.627 55.0726 38.5824C55.0459 38.5468 55.1528 38.3148 55.3041 38.074C55.4733 37.7975 55.5624 37.5388 55.5446 37.3961L55.5178 37.1641L55.1261 37.4763C54.9124 37.6547 54.5117 37.8599 54.2445 37.9313C53.648 38.1097 53.5144 38.0205 53.4521 37.3961C53.4075 37.0036 53.4165 36.9679 53.7815 36.6468L54.1555 36.3167L53.7904 36.1116C53.2829 35.8261 53.3274 35.389 53.9151 34.8449L54.1466 34.6219L53.9062 34.4346L53.6747 34.2383L53.924 33.7745C54.2624 33.159 54.4761 33.0252 55.0103 33.0876C55.6158 33.1679 56.0432 33.3106 56.3014 33.5069C56.4795 33.6496 56.5329 33.7923 56.5863 34.2829C56.622 34.6219 56.6665 34.9162 56.6843 34.9519C56.711 34.9876 56.8624 34.9519 57.0316 34.8716C57.2631 34.7557 57.3432 34.6665 57.3432 34.497V34.274L57.6103 34.5327C57.8686 34.7824 57.9665 35.1125 57.7884 35.1125C57.735 35.1125 57.6994 35.3623 57.6994 35.6923C57.6994 36.4327 57.8151 36.4951 58.3583 36.0491L58.759 35.728L58.9014 35.9421C59.035 36.1472 59.035 36.2008 58.9103 36.6022C58.8302 36.8341 58.7145 37.2801 58.6432 37.5834C58.5275 38.1008 58.5275 38.1364 58.6699 38.0651C59.035 37.8599 59.9343 37.1463 60.0679 36.9411C60.2104 36.727 60.246 36.7181 61.0741 36.7181C61.5549 36.7181 61.9734 36.7449 62.0001 36.7806C62.0357 36.8073 61.9467 36.9054 61.8042 36.9947C61.5816 37.1285 61.5371 37.2177 61.4837 37.6993C61.448 38.0026 61.4391 38.2702 61.4659 38.2881C61.5549 38.3773 62.7748 37.1374 63.1666 36.5576C63.7988 35.612 63.8878 35.1839 63.7542 33.5069C63.6474 32.1331 63.6563 32.0975 63.8433 31.6425C64.1015 31.0449 64.0481 30.4918 63.6296 29.6177C62.7659 27.789 60.985 25.9871 58.5542 24.4618C57.7439 23.9444 55.7315 22.8918 55.5802 22.8918C55.5267 22.8918 55.5446 23.097 55.6247 23.3914C55.6959 23.6679 55.7315 23.9087 55.7048 23.9355C55.6158 24.0247 54.8055 23.766 53.8171 23.3378C52.5616 22.7937 51.1726 22.3209 50.2911 22.1425C49.3472 21.9463 49.2404 21.9552 49.2404 22.205ZM57.0316 24.2031C57.2453 24.3458 57.1918 24.3458 56.8001 24.212C56.5062 24.1139 56.3637 23.9979 56.3637 23.8374C56.3637 23.766 56.5507 23.8731 57.0316 24.2031ZM57.1918 29.1449C57.5213 29.3233 58.5898 30.3848 58.4295 30.3848C58.0644 30.3848 57.3521 29.9477 57.1295 29.5909C56.8001 29.0735 56.8179 28.9486 57.1918 29.1449ZM62.9529 35.6834C62.846 35.9599 62.7303 36.1829 62.6857 36.1829C62.6412 36.1829 62.5433 36.0759 62.472 35.9421C62.3563 35.7101 62.3652 35.6834 62.7213 35.3712C62.9172 35.1928 63.0953 35.0679 63.1131 35.1125C63.122 35.1482 63.0508 35.4069 62.9529 35.6834Z" fill="black"/>
<path d="M5.67198 25.8444C4.4521 26.1298 3.95347 27.0486 4.63019 27.7533C5.09321 28.2261 5.48499 28.3777 7.6131 28.8683C8.69051 29.1092 9.65216 29.35 9.7501 29.3946C9.86586 29.4481 8.28982 29.4838 5.46718 29.4838L1.00618 29.4927L0.747953 29.689C0.195893 30.1171 0 30.3312 0 30.4918C0 30.6434 0.267126 30.6523 6.79391 30.6523C14.22 30.6523 14.2556 30.6523 15.0036 30.135C15.2173 29.9833 15.4043 29.7603 15.4755 29.5641C15.5913 29.2608 15.5913 29.1984 15.431 28.904C15.1371 28.3242 14.6563 28.1369 11.9316 27.5214C10.5871 27.2181 9.44736 26.9415 9.39394 26.8969C9.34942 26.8523 11.1481 26.8167 13.5967 26.8167H17.8796L18.3783 26.3617C18.6543 26.112 18.8769 25.8711 18.8769 25.8265C18.8769 25.7195 6.11719 25.7373 5.67198 25.8444Z" fill="black"/>
<path d="M21.0579 25.8792C20.675 26.0754 16.3476 30.4284 16.4188 30.5533C16.499 30.6871 19.5709 30.6871 19.9182 30.5533C20.0518 30.5087 20.9066 29.7238 21.8148 28.8228C23.1415 27.5026 23.5333 27.1726 23.8182 27.0923C24.1922 26.9942 28.6354 26.9496 28.8847 27.0477C28.9649 27.0745 29.0272 27.1726 29.0272 27.2529C29.0272 27.4937 28.2169 28.2162 27.647 28.4838C27.1217 28.7247 27.0861 28.7247 24.9936 28.7604C23.2662 28.7961 22.8833 28.8228 22.9011 28.9209C22.9367 29.0993 26.2669 32.5961 26.5874 32.8012C26.8368 32.9529 27.0416 32.9707 28.3861 32.9707C29.4101 32.9707 29.9265 32.935 29.971 32.8726C30.0067 32.8101 29.4279 32.1679 28.582 31.3205L27.1395 29.8754L28.2436 29.8219C30.0423 29.7416 30.719 29.4115 32.2772 27.8505C33.3012 26.8247 33.4971 26.4946 33.2656 26.1468C33.1766 26.0219 33.0163 25.8792 32.8916 25.8346C32.7581 25.781 30.3895 25.7454 26.997 25.7454C22.1531 25.7454 21.2894 25.7721 21.0579 25.8792Z" fill="black"/>
<path d="M34.7798 26.2725C33.9695 27.0932 33.925 27.0753 36.8456 27.0218C38.2168 26.9951 39.4011 26.9951 39.4723 27.0218C39.5613 27.0575 39.125 27.5481 37.9675 28.6988C37.0593 29.5998 36.3291 30.4026 36.3291 30.4918C36.3291 30.6434 36.4538 30.6523 38.0298 30.6523C39.0894 30.6523 39.7928 30.6167 39.9175 30.5542C40.0244 30.5007 40.8792 29.6979 41.8052 28.7702L43.497 27.0932L45.7854 27.0664L48.0827 27.0397L48.6258 26.4955C48.9375 26.1833 49.1512 25.8979 49.1156 25.8444C49.071 25.773 47.121 25.7462 42.1792 25.7462H35.2962L34.7798 26.2725Z" fill="black"/>
</g>
<defs>
<clipPath id="clip0_10704_21789">
<rect width="64" height="64" fill="white"/>
</clipPath>
</defs>
</svg>
