<svg width="64" height="64" viewBox="0 0 64 64" fill="none" xmlns="http://www.w3.org/2000/svg">
<path fill-rule="evenodd" clip-rule="evenodd" d="M32.077 26.7287C31.552 26.7277 31.4366 26.7235 30.5793 26.7183C29.165 26.7096 27.1614 26.7044 26.4667 26.7044C25.3504 26.7044 21.7611 26.7336 21.7611 26.7336C21.3522 26.7336 21.0417 26.817 20.7521 27.0656C20.5953 27.1988 20.4142 27.3768 20.279 27.5211C20.1507 27.6563 16.5009 31.2936 16.488 31.3075C16.4633 31.336 16.4056 31.4135 16.4286 31.4841C16.4536 31.5641 16.5273 31.5863 16.5774 31.5863C16.6132 31.5863 19.3663 31.586 19.3663 31.586C19.9615 31.586 20.2393 31.3301 20.5269 31.0502C20.837 30.7481 23.1639 28.4086 23.1639 28.4086C23.5345 28.0384 23.8902 27.9636 24.4433 27.9636H28.4693C28.8316 27.9636 29.0099 27.9821 29.0718 28.1197C29.1149 28.2153 29.0687 28.3183 28.9143 28.4938C28.7832 28.6444 28.5579 28.8731 28.3587 29.049C28.1129 29.2653 27.7969 29.4666 27.3905 29.59C26.9354 29.727 26.3092 29.7343 26.1893 29.7343L23.0193 29.7322C22.9111 29.7322 22.8124 29.8671 22.9202 29.9749C22.9202 29.9749 26.238 33.455 26.2901 33.51C26.3416 33.5652 26.7257 33.9181 27.193 33.9181C27.6283 33.9181 29.401 33.916 29.6618 33.916H29.8092C29.9469 33.916 29.9816 33.7495 29.8926 33.6605C29.886 33.6532 29.8283 33.5927 29.8186 33.583C29.5363 33.2881 27.2121 30.9327 27.1996 30.9202C27.168 30.8879 27.1308 30.8534 27.1395 30.8246C27.1489 30.7926 27.1829 30.7856 27.1996 30.7856C27.226 30.7856 28.1063 30.7863 28.1063 30.7863C28.4835 30.7863 29.1834 30.7314 29.6041 30.6069C30.4371 30.3604 30.7896 30.0969 31.1049 29.8483C31.2896 29.7023 31.5082 29.5132 32.1692 28.8989C32.5554 28.5404 33.0741 27.9438 33.167 27.7961C33.2514 27.6615 33.3763 27.4286 33.3005 27.2134C33.2125 26.9641 32.9775 26.7305 32.077 26.7287ZM48.1782 27.8475C48.2811 27.7641 48.9865 27.05 49.0362 27.0003C49.064 26.9731 49.1155 26.9043 49.071 26.8254C49.0341 26.7583 48.9667 26.7451 48.9065 26.7451C48.8822 26.7451 35.4883 26.7451 35.4883 26.7451C35.3298 26.7451 35.3086 26.7416 35.2057 26.8435C35.2057 26.8435 34.3191 27.7307 34.3118 27.7377C34.3063 27.7436 34.2333 27.8065 34.2785 27.8965C34.3059 27.9511 34.3702 27.9859 34.4102 27.9859C34.4592 27.9859 39.4802 27.9828 39.5498 27.9828C39.6071 27.9828 39.6162 27.9991 39.6297 28.0179C39.6297 28.0179 39.6464 28.0572 39.6224 28.0811C39.53 28.1705 36.3495 31.329 36.3495 31.329C36.2967 31.3934 36.2921 31.4688 36.3245 31.5196C36.3377 31.5411 36.3811 31.5867 36.4545 31.5867C36.4545 31.5867 39.2921 31.5849 39.354 31.5849C39.6346 31.5888 39.7747 31.5571 39.9051 31.4921C39.9917 31.45 40.0991 31.3558 40.2409 31.2154C40.4207 31.0374 40.5882 30.868 40.6866 30.7697C41.5061 29.9492 43.3671 28.0902 43.3824 28.0745C43.4005 28.0551 43.4259 28.0356 43.4415 28.02C43.4624 28.0001 43.4937 27.9859 43.5288 27.9859C43.5476 27.9859 47.8253 27.9859 47.8253 27.9859C47.9539 27.9859 48.0815 27.925 48.1782 27.8475ZM14.047 29L14.0411 28.9972C13.9274 28.9684 9.36919 27.9327 9.36919 27.9327C9.31704 27.9188 9.28123 27.8889 9.28123 27.8545C9.28123 27.8068 9.34972 27.7679 9.43386 27.7679L17.4785 27.7641C17.7396 27.7641 17.9294 27.7168 18.1092 27.551C18.2757 27.3969 18.5219 27.1577 18.6435 27.042C18.8181 26.8775 18.8695 26.8299 18.8455 26.7666C18.8215 26.7044 18.6727 26.7176 18.5267 26.7176L6.66017 26.7148C5.36512 26.7148 4.31551 27.3097 4.31551 28.0426C4.31551 28.5595 4.88708 29.0852 5.64255 29.3195C5.83029 29.3772 6.02638 29.4357 6.02638 29.4357C6.02638 29.4357 9.59761 30.2631 9.82081 30.317C9.87783 30.3305 9.91781 30.3615 9.91781 30.3987C9.91781 30.4481 9.85836 30.487 9.72903 30.487C9.494 30.487 1.33671 30.4835 1.33671 30.4835C1.07526 30.4835 0.891344 30.5378 0.705691 30.6966C0.60591 30.7818 0.494657 30.8903 0.407393 30.9824C0.407393 30.9824 0.1828 31.2032 0.0767619 31.3023C0.0711993 31.3082 -0.0372727 31.4038 0.0134867 31.5025C0.0607693 31.594 0.137256 31.5849 0.193926 31.5849C0.193926 31.5849 11.6617 31.5849 13.1515 31.5849C14.4597 31.5849 15.5205 30.9845 15.5205 30.2429C15.5205 29.6808 14.911 29.1999 14.047 29ZM62.8702 36.8684C62.8184 37.044 62.6786 37.2317 62.6108 37.1719C62.5427 37.1121 62.5069 37.028 62.3671 36.8044C62.2274 36.5809 62.3991 36.5249 62.3991 36.5249C62.7026 36.3772 63.1299 35.8897 63.1299 35.8897C63.2019 36.0695 62.9223 36.6925 62.8702 36.8684ZM58.6787 31.409C58.5984 31.4052 57.821 31.2849 57.4483 30.9963C57.0756 30.7078 56.8274 30.1146 56.8274 30.1146C56.8274 30.1146 56.7109 29.9022 56.9074 29.9704C57.1038 30.0385 57.545 30.2617 57.7334 30.5061C58.0453 30.8719 58.4023 31.1768 58.5584 31.2769C58.7149 31.377 58.7587 31.4132 58.6787 31.409ZM56.3873 25.094L56.2694 24.6747C56.2694 24.6747 57.376 25.3419 57.3962 25.483C57.0774 25.2897 56.3873 25.094 56.3873 25.094ZM63.8537 31.2804C63.8537 31.2804 62.9856 27.2155 55.5101 23.8713L55.7629 24.9814C55.7629 24.9814 54.9059 24.8969 54.189 24.5176C54.189 24.5176 50.9991 23.0139 49.2146 23C49.2146 23 49.3255 23.9898 49.6206 24.6851C49.6206 24.6851 48.0537 24.4651 45.111 26.1686C44.9598 26.2743 44.9695 26.3557 45.0978 26.315C45.0978 26.315 49.4193 24.6535 51.3524 26.6814C51.3524 26.6814 50.1765 24.1536 50.3997 23.9206C50.3997 23.9206 51.7205 24.1716 54.8057 25.83C54.8057 25.83 60.327 26.5424 62.3876 30.957C62.3876 30.957 63.1042 32.2625 62.1189 32.2114C61.7173 32.1906 60.3281 32.0306 59.1123 31.2692C57.8965 30.5075 57.2335 29.0563 54.8753 28.9096C54.8753 28.9096 55.8995 31.6864 57.9215 32.8383L57.9146 32.3933C57.9146 32.3933 58.209 31.9083 61.7121 32.7816C61.7121 32.7816 63.1998 32.9353 63.2766 34.8836C63.2766 34.8836 61.8752 35.2003 59.9175 34.327C59.9175 34.327 59.591 34.2599 61.1746 35.92L61.5988 36.4196C61.5988 36.4196 61.8175 36.6463 60.771 36.9821C60.771 36.9821 60.1132 37.2828 59.428 36.6209C59.428 36.6209 57.1028 34.4831 56.4909 34.0102C55.5988 33.2423 54.6239 33.3121 54.6239 33.3121C53.7179 33.2002 53.5771 33.6296 53.5771 33.6296C52.1475 36.3452 53.2969 39.9362 53.2969 39.9362C53.3713 40.2112 53.5872 40.1014 53.5872 40.1014C54.4546 39.9206 55.9384 40.2505 55.9384 40.2505C55.9384 40.2505 55.1854 41.4169 51.9486 41.1996C51.9486 41.1996 50.9421 41.0321 51.2776 40.5189C51.2776 40.5189 53.1519 37.8596 51.7011 34.3864C51.7011 34.3864 51.2926 33.2423 49.8928 31.7914C49.8928 31.7914 49.5149 31.6586 50.5673 31.2195C50.5673 31.2195 53.0903 30.2899 55.9304 32.4044C55.9304 32.4044 55.814 32.1016 55.2945 31.6621C53.8535 30.4432 50.4408 28.5147 46.4774 31.7024C47.6897 32.0279 50.0271 33.309 50.9338 35.3279C51.7174 37.0728 51.1886 40.2053 49.2705 41.539C49.7597 41.7813 52.4496 42.2009 54.8009 41.7048C56.5041 41.3457 57.9608 40.4177 57.7018 38.6314C57.7018 38.6314 57.4 39.1442 57.0826 39.3111C57.0826 39.3111 56.6091 39.7467 56.2757 38.7194C56.2757 38.7194 56.082 38.3589 56.4046 37.7456C56.4046 37.7456 55.9475 37.8259 56.0281 37.2505C56.0281 37.2505 56.0281 36.7446 56.4422 36.2659C56.4422 36.2659 56.082 36.2065 56.2325 35.9537L56.3939 35.5233C56.3939 35.5233 55.7496 35.9238 55.6787 37.683C55.6787 37.683 55.6012 39.4742 56.0716 39.6157L56.471 39.8542L55.0665 39.5966C55.0665 39.5966 54.854 39.5708 55.0407 39.3195C55.0407 39.3195 55.6978 38.5657 55.5174 38.0759C55.5174 38.0759 54.8732 38.9005 53.8295 38.9909C53.8295 38.9909 53.5009 39.0876 53.4234 38.5396L53.3462 38.0696C53.3462 38.0696 53.2496 37.9597 53.6556 37.6573L54.0937 37.2707L53.5458 36.9678C53.5458 36.9678 53.301 36.8903 53.4105 36.4717C53.5204 36.0528 53.8423 35.7176 54.0162 35.6276C54.0162 35.6276 54.1966 35.5372 53.8809 35.4086C53.8809 35.4086 53.5781 35.2796 53.6942 35.0734C53.6942 35.0734 54.0808 34.2425 54.319 34.1006C54.319 34.1006 54.4803 33.8621 55.5045 34.1072C55.5045 34.1072 56.5806 34.3068 56.5548 34.9058L56.6258 35.8143C56.6258 35.8143 56.632 36.0013 56.8639 35.8595L57.1991 35.679C57.1991 35.679 57.3729 35.6019 57.3343 35.4472C57.2957 35.2924 57.2957 35.1701 57.2957 35.1701C57.2957 35.1701 57.8951 35.5824 57.9142 35.9109C57.9142 35.9109 57.9723 36.0142 57.869 36.0462L57.7209 36.1109L57.7338 37.116C57.7338 37.116 57.7338 37.4768 58.0175 37.2189L58.7198 36.6456C58.7198 36.6456 58.9708 36.916 59.0288 37.0708C59.0288 37.0708 59.1707 37.2449 58.9259 37.4188L58.5198 39.0681C58.5198 39.0681 59.9116 38.2048 60.0791 37.7602C60.0791 37.7602 60.1306 37.5797 60.4786 37.6183C60.8266 37.6573 61.7994 37.6441 61.7994 37.6441L62.1474 37.7539L61.7542 37.9535C61.7542 37.9535 61.5223 38.0115 61.4966 38.411C61.4708 38.8105 61.4256 39.2551 61.4256 39.2551C61.4256 39.2551 62.7311 38.24 63.343 37.1636C63.343 37.1636 63.9733 36.1063 63.7439 34.9695L63.6045 33.1449C63.6045 33.1449 63.6643 32.7858 63.8537 32.467C64.0432 32.1478 64.0533 31.8088 63.8537 31.2804Z" fill="#111617"/>
</svg>
