<svg width="64" height="64" viewBox="0 0 64 64" fill="none" xmlns="http://www.w3.org/2000/svg">
<g clip-path="url(#clip0_10704_21795)">
<path fill-rule="evenodd" clip-rule="evenodd" d="M6.94361 48.6448C6.80066 47.3171 3.21773 45.701 3.21773 45.701C2.28607 45.1273 2.67986 44.4103 2.67986 44.4103C3.25357 43.1521 6.26278 44.3381 6.26278 44.3381L6.83497 42.9745C5.2404 41.7702 3.20477 42.0219 3.20477 42.0219C0.702557 42.3083 0.328978 44.0024 0.328978 44.0024C-0.241683 46.5975 1.75658 47.2132 1.75658 47.2132C3.57835 48.0711 4.12728 48.4236 4.12728 48.4236C5.62046 49.3908 4.30264 50.0294 4.30264 50.0294C2.67871 50.7979 0.636609 49.7426 0.636609 49.7426L0 51.2384C1.69102 52.3816 4.30264 51.8988 4.30264 51.8988C7.61796 51.4141 6.94361 48.6448 6.94361 48.6448Z" fill="#1A3B73"/>
<path fill-rule="evenodd" clip-rule="evenodd" d="M11.9596 49.3161C11.858 48.2535 9.29778 46.9622 9.29778 46.9622C8.63156 46.5021 8.91387 45.928 8.91387 45.928C9.32369 44.9232 11.4741 45.8703 11.4741 45.8703L11.8829 44.7794C10.7436 43.8169 9.28937 44.0173 9.28937 44.0173C7.50202 44.2464 7.2352 45.6023 7.2352 45.6023C6.82705 47.6779 8.25404 48.1712 8.25404 48.1712C9.55586 48.8571 9.94819 49.1386 9.94819 49.1386C11.0141 49.9128 10.0734 50.422 10.0734 50.422C8.91353 51.0388 7.4539 50.194 7.4539 50.194L7 51.3909C8.20794 52.3059 10.0734 51.9186 10.0734 51.9186C12.4418 51.531 11.9596 49.3161 11.9596 49.3161Z" fill="#1A3B73"/>
<path fill-rule="evenodd" clip-rule="evenodd" d="M14.8229 44.1494L12 51.6423L13.6261 51.6713L14.3617 50.034H17.7676L18.5039 51.5208H20.0676L17.1233 44.1494H14.8229ZM14.9139 48.6993L15.9878 46.09L17.1534 48.6993H14.9139ZM25.3135 49.094L22.1545 44.2104H20.0676V51.5208L21.602 51.5505V46.7583L24.9759 51.7635H26.9087V44.2394H25.3135V49.094ZM33.7792 47.5162H31.2025V48.6692H32.9519V50.428C31.755 50.883 30.4981 50.3983 30.4981 50.3983C28.0127 48.7614 29.3625 46.7278 29.3625 46.7278C30.8969 44.3613 34.5471 45.8183 34.5471 45.8183V44.4531C30.0981 43.0269 28.1962 45.4232 28.1962 45.4232C25.6819 48.8509 28.8096 51.0967 28.8096 51.0967C31.878 52.9771 34.8234 51.3383 34.8234 51.3383V48.6383C34.7617 47.3961 33.7792 47.5162 33.7792 47.5162ZM62.958 47.5162H60.3817V48.6692H62.1288V50.428C60.932 50.883 59.6747 50.3983 59.6747 50.3983C57.1897 48.7614 58.5395 46.7278 58.5395 46.7278C60.0739 44.3613 63.7241 45.8183 63.7241 45.8183V44.4531C59.2759 43.0269 57.3743 45.4232 57.3743 45.4232C54.8585 48.8509 57.9866 51.0967 57.9866 51.0967C61.0553 52.9771 64 51.3383 64 51.3383V48.6383C63.9399 47.3961 62.958 47.5162 62.958 47.5162Z" fill="#1A3B73"/>
<path fill-rule="evenodd" clip-rule="evenodd" d="M40.6264 42.625L38.2818 46.4658L35.9383 42.7166H33.8992L37.3992 48.3268L35.4511 51.9268H37.3074L42.6972 42.625H40.6264ZM44.584 44.1133C42.3749 44.1133 40.5839 45.8794 40.5839 48.057C40.5839 50.2346 42.3749 52 44.584 52C46.794 52 48.5868 50.2346 48.5868 48.057C48.5868 45.8794 46.794 44.1133 44.584 44.1133ZM44.584 50.4566C43.2392 50.4566 42.1499 49.382 42.1499 48.0566C42.1499 47.4202 42.4064 46.8099 42.8631 46.3598C43.3197 45.9098 43.939 45.657 44.5848 45.657C45.2305 45.657 45.8499 45.9098 46.3065 46.3598C46.7631 46.8099 47.0196 47.4202 47.0196 48.0566C47.0196 48.6932 46.7629 49.3036 46.3061 49.7537C45.8494 50.2038 45.2299 50.4566 44.584 50.4566ZM54.3873 49.0166L51.2515 44.246H49.1203V51.6559L50.7348 51.6272V46.8265L54.0523 51.7158H56V44.2158H54.3873V49.0166ZM52.5426 19.713C51.3768 15.4707 45.8065 13.3325 45.8065 13.3325C44.3203 12.7964 44.9138 13.6384 44.9138 13.6384C44.9138 13.6384 51.3235 16.5461 51.3235 20.5935C51.3235 25.6063 44.3389 27.1056 44.3389 27.1056C50.6916 25.1137 50.7098 20.863 50.7098 20.863C50.5983 16.613 44.9138 13.6384 44.9138 13.6384C42.7222 12.413 41.5333 12.1064 41.5333 12.1064C38.6727 11.1619 39.6009 12.2597 39.6009 12.2597C39.6009 12.2597 48.2306 14.9395 48.2306 20.8512C48.2306 26.8894 36.2021 28.8291 36.2021 28.8291C47.5128 26.7607 47.5151 20.9012 47.5151 20.9012C47.5151 15.6233 39.6009 12.2597 39.6009 12.2597C38.4124 11.6218 36.3964 11.1078 36.3964 11.1078C34.5289 10.7156 35.5884 11.5196 35.5884 11.5196C43.1679 15.885 43.1679 20.71 43.1679 20.71C43.1679 26.0718 38.1799 27.4115 38.1799 27.4115C36.7307 27.967 33.9265 28.4115 33.9265 28.4115C33.4725 28.5438 33.155 28.8515 33.155 29.2122C33.155 29.3578 33.1908 29.5019 33.2986 29.6162C33.5724 29.9045 34.4942 30.5802 34.4942 30.5802C34.8244 30.8865 35.0173 31.2655 35.0173 31.6758C35.0173 32.6824 33.8429 33.4993 32.3839 33.5181H32.2765C30.8179 33.4993 29.6424 32.6828 29.6424 31.6758C29.6424 31.2655 29.8364 30.8865 30.1658 30.5802C30.1658 30.5802 31.0872 29.9045 31.361 29.6162C31.4688 29.5019 31.5058 29.3582 31.5058 29.2122C31.5058 28.8515 31.1876 28.5438 30.7339 28.4115C30.7339 28.4115 27.9294 27.9674 26.4801 27.4115C26.4801 27.4115 21.4921 26.0721 21.4921 20.71C21.4921 20.71 21.4921 15.8847 29.0716 11.5196C29.0716 11.5196 30.1307 10.7156 28.2636 11.1078C28.2636 11.1078 26.2477 11.6218 25.0592 12.2597C25.0592 12.2597 17.1453 15.6229 17.1453 20.9012C17.1453 20.9012 17.1468 26.7607 28.4587 28.8291C28.4587 28.8291 16.4298 26.8898 16.4298 20.8512C16.4298 14.9395 25.0592 12.2597 25.0592 12.2597C25.0592 12.2597 25.9873 11.1619 23.1268 12.1064C23.1268 12.1064 21.9379 12.4126 19.7458 13.6384C19.7458 13.6384 14.061 16.613 13.9498 20.863C13.9498 20.863 13.9681 25.1137 20.3215 27.1056C20.3215 27.1056 13.3365 25.606 13.3365 20.5935C13.3365 16.5461 19.7458 13.6384 19.7458 13.6384C19.7458 13.6384 20.3401 12.7961 18.8543 13.3325C18.8543 13.3325 13.2828 15.4711 12.1178 19.713C12.1178 19.713 11.7645 21.3111 12.2816 22.4784C12.9083 23.9078 14.5426 26.2754 18.705 27.6023C18.705 27.6023 20.6001 28.3692 28.1801 29.8626L28.6266 29.9629C28.6266 29.9629 28.9526 30.1037 28.7191 30.3574L27.675 31.242C27.675 31.242 26.1436 32.403 28.3293 33.3802C28.3293 33.3802 29.6629 33.828 30.603 34.8199C30.603 34.8199 31.2077 35.3868 32.2317 35.4151V35.4192H32.3C32.303 35.4192 32.3056 35.4203 32.3078 35.4203V35.4192H32.3518V35.4203L32.3597 35.4192H32.4067V35.4177C33.4441 35.3956 34.0563 34.8199 34.0563 34.8199C34.9967 33.828 36.3296 33.3802 36.3296 33.3802C38.5161 32.403 36.984 31.242 36.984 31.242L35.9405 30.3574C35.7074 30.1037 36.0331 29.9629 36.0331 29.9629L36.4788 29.8626C44.0584 28.3692 45.9542 27.6023 45.9542 27.6023C50.1167 26.2754 51.751 23.9082 52.3785 22.4784C52.8959 21.3111 52.5426 19.713 52.5426 19.713Z" fill="#1A3B73"/>
</g>
<defs>
<clipPath id="clip0_10704_21795">
<rect width="64" height="64" fill="white"/>
</clipPath>
</defs>
</svg>
