<svg width="64" height="64" viewBox="0 0 64 64" fill="none" xmlns="http://www.w3.org/2000/svg">
<g clip-path="url(#clip0_10704_21802)">
<path d="M31.9974 14.6699C15.088 14.6699 1.33203 22.4446 1.33203 32.0033C1.33203 41.5619 15.088 49.3366 31.9974 49.3366C48.908 49.3366 62.6654 41.5606 62.6654 32.0033C62.6654 22.4459 48.908 14.6699 31.9974 14.6699Z" fill="#1565C0"/>
<path d="M31.9987 16.0046C47.9 16.0046 61.3333 23.3312 61.3333 32.0046C61.3333 40.6779 47.9 48.0046 31.9987 48.0046C16.0987 48.0046 2.66667 40.6766 2.66667 32.0046C2.66667 23.3326 16.0987 16.0046 31.9987 16.0046ZM31.9987 13.3379C14.3547 13.3379 0 21.7112 0 32.0046C0 42.2979 14.3547 50.6712 31.9987 50.6712C49.644 50.6712 64 42.2979 64 32.0046C64 21.7112 49.644 13.3379 31.9987 13.3379Z" fill="#CACEEB"/>
<path d="M51.7787 40.8746C51.7787 40.8559 51.7747 40.8373 51.7694 40.8213C51.768 40.8173 51.7667 40.8133 51.7654 40.8093C51.7587 40.7933 51.7494 40.7773 51.736 40.7626L51.7347 40.7613C51.7214 40.7479 51.704 40.7346 51.684 40.7226C51.6787 40.7186 51.672 40.7159 51.6667 40.7119C51.644 40.6999 51.62 40.6879 51.5907 40.6773C51.5854 40.6759 51.5787 40.6733 51.5747 40.6719C51.548 40.6626 51.5174 40.6533 51.484 40.6439C51.468 40.6399 51.452 40.6359 51.4347 40.6306C51.428 40.6293 51.4227 40.6279 51.416 40.6253H51.4134C51.2747 40.5933 51.092 40.5613 50.844 40.5266C50.2174 40.4373 48.5374 40.2479 47.3387 40.0319C47.284 40.0213 47.228 40.0119 47.1747 40.0013C47.1347 39.9933 47.0947 39.9866 47.056 39.9786C46.9534 39.9586 46.8534 39.9373 46.7614 39.9173C45.608 39.6573 45.5414 38.6986 45.372 38.2293C45.252 37.8893 45.1574 37.4026 45.012 37.1599V37.1586C45.0107 37.1559 45.0094 37.1546 45.0067 37.1519C44.9987 37.1373 44.9894 37.1253 44.98 37.1133C44.9747 37.1053 44.9694 37.0973 44.9627 37.0906C44.9547 37.0813 44.9454 37.0733 44.9374 37.0653C44.9307 37.0586 44.9254 37.0533 44.9187 37.0479C44.9094 37.0399 44.8987 37.0346 44.888 37.0306C44.8827 37.0279 44.8774 37.0239 44.8707 37.0213C44.8547 37.0146 44.8374 37.0119 44.82 37.0119C44.7907 37.0119 44.764 37.0199 44.7387 37.0319C44.7294 37.0359 44.7214 37.0413 44.7134 37.0466C44.6987 37.0559 44.684 37.0666 44.6707 37.0799C44.6614 37.0893 44.652 37.0973 44.644 37.1079C44.636 37.1186 44.628 37.1306 44.62 37.1426C44.5134 37.3026 44.4707 37.5679 44.436 37.6746C44.3854 37.8306 44.1187 38.8239 43.9187 39.1546C43.7174 39.4853 43.5667 39.8506 42.7814 40.0079C41.9947 40.1639 40.5227 40.4946 39.1347 40.5293C39.0347 40.5319 38.94 40.5333 38.8454 40.5346C38.8094 40.5346 38.776 40.5346 38.7414 40.5359C38.6854 40.5359 38.6307 40.5359 38.5774 40.5359C38.536 40.5359 38.4934 40.5359 38.4534 40.5359C38.4134 40.5359 38.3734 40.5346 38.3334 40.5346C37.404 40.5199 36.732 40.4319 35.872 40.3213C34.7854 40.1813 33.7814 40.1293 33.0294 39.7813C32.9827 39.7599 32.9387 39.7346 32.8947 39.7079C32.8907 39.7053 32.8867 39.7026 32.8827 39.6999C32.2254 39.2799 31.8774 38.2373 31.6907 37.5879C31.548 37.0919 31.44 36.7839 31.3467 36.6466V36.6439C31.3454 36.6413 31.3427 36.6399 31.3414 36.6373C31.3294 36.6199 31.3174 36.6079 31.3067 36.5959C31.3014 36.5906 31.2947 36.5826 31.2894 36.5786C31.2734 36.5666 31.256 36.5586 31.24 36.5586C31.2267 36.5586 31.212 36.5666 31.196 36.5799C31.1934 36.5813 31.192 36.5826 31.1894 36.5853C31.1747 36.5986 31.16 36.6173 31.144 36.6399C31.1387 36.6466 31.1334 36.6546 31.1294 36.6613C31.128 36.6639 31.1254 36.6666 31.124 36.6693V36.6706C31.0094 36.8466 30.8707 37.2079 30.7734 37.5346C30.64 37.9879 30.288 39.3293 29.7694 39.6599C29.2507 39.9906 28.38 40.1813 26.8254 40.3386C26.8254 40.3386 25.092 40.4773 24.2414 40.6933H24.2387C23.96 40.7653 23.776 40.8439 23.7814 40.9306C23.7854 41.0199 23.9494 41.1026 24.2027 41.1786H24.2054C24.9427 41.3986 26.4134 41.5533 26.724 41.5933C26.9854 41.6253 27.7214 41.7133 28.352 41.8159C28.356 41.8159 28.36 41.8173 28.364 41.8173C28.6094 41.8573 28.8387 41.8999 29.016 41.9426C29.0227 41.9439 29.0294 41.9453 29.036 41.9479C29.0707 41.9559 29.1027 41.9653 29.132 41.9733C29.14 41.9759 29.1494 41.9786 29.1574 41.9813C29.192 41.9919 29.224 42.0013 29.2507 42.0119C29.7187 42.1866 30.0374 42.3253 30.2214 42.8653C30.4054 43.4039 30.856 45.0066 30.856 45.0066C30.856 45.0066 30.9547 45.4066 31.0747 45.6693V45.6706C31.076 45.6746 31.0787 45.6773 31.08 45.6813C31.0907 45.7039 31.1014 45.7266 31.1134 45.7466C31.1187 45.7559 31.124 45.7653 31.1294 45.7746C31.14 45.7919 31.1494 45.8079 31.16 45.8213C31.1654 45.8279 31.1694 45.8333 31.1747 45.8386C31.184 45.8506 31.1947 45.8599 31.204 45.8693C31.208 45.8733 31.212 45.8773 31.2174 45.8799C31.2307 45.8893 31.2454 45.8959 31.2587 45.8959C31.272 45.8959 31.2867 45.8893 31.3 45.8799C31.304 45.8773 31.3094 45.8719 31.3134 45.8679C31.3227 45.8599 31.332 45.8493 31.3427 45.8373C31.3467 45.8319 31.352 45.8253 31.356 45.8186C31.368 45.8013 31.38 45.7813 31.392 45.7599C31.3934 45.7573 31.3947 45.7546 31.3974 45.7519C31.4107 45.7266 31.424 45.6986 31.4374 45.6679C31.4387 45.6653 31.44 45.6626 31.4414 45.6586V45.6573C31.5614 45.3786 31.66 44.9546 31.66 44.9546C31.66 44.9546 32.112 42.9519 32.4467 42.5866C32.7814 42.2199 32.8307 42.0813 34.32 41.8373C34.5387 41.8013 34.756 41.7653 34.972 41.7293C35.0574 41.7146 35.144 41.7013 35.2294 41.6866C35.324 41.6706 35.4174 41.6559 35.5107 41.6399C35.6014 41.6253 35.6907 41.6106 35.78 41.5959C35.856 41.5839 35.932 41.5719 36.0067 41.5599C36.156 41.5359 36.3027 41.5146 36.448 41.4933C36.508 41.4839 36.5667 41.4773 36.6267 41.4679C36.7227 41.4546 36.8187 41.4413 36.9134 41.4293C36.9774 41.4213 37.04 41.4133 37.1027 41.4066C37.1974 41.3959 37.2894 41.3853 37.3814 41.3759C37.424 41.3719 37.4654 41.3666 37.5067 41.3639C37.5307 41.3613 37.5547 41.3599 37.5774 41.3573C37.6814 41.3479 37.784 41.3399 37.884 41.3346C37.9254 41.3319 37.9667 41.3293 38.008 41.3279C38.1427 41.3213 38.2747 41.3173 38.4 41.3173C39.5214 41.3173 39.7387 41.3346 40.4227 41.4213C41.1107 41.5093 42.5814 41.7013 43.1667 41.8919C43.752 42.0839 43.9534 42.5186 44.104 42.9199C44.2547 43.3199 44.5894 44.3826 44.5894 44.3826C44.5894 44.3826 44.6734 44.8186 44.8734 44.8186C44.896 44.8199 44.9187 44.8119 44.9387 44.7999C44.9414 44.7986 44.944 44.7973 44.9454 44.7959C45.1134 44.6946 45.2107 44.2479 45.2387 44.0999C45.4 43.5946 45.764 42.5213 45.992 42.3093C46.2947 42.0306 46.512 41.7693 48 41.5786C49.4894 41.3866 50.3747 41.1946 50.8934 41.1599C51.096 41.1466 51.2734 41.1266 51.4174 41.0986C51.4507 41.0919 51.4827 41.0853 51.512 41.0773C51.5214 41.0746 51.5307 41.0719 51.54 41.0693C51.5734 41.0599 51.604 41.0493 51.6307 41.0386C51.6347 41.0373 51.6387 41.0346 51.6427 41.0333C51.668 41.0226 51.6894 41.0106 51.7067 40.9973C51.7094 40.9959 51.712 40.9933 51.7147 40.9919C51.7334 40.9786 51.7467 40.9626 51.7574 40.9466C51.76 40.9439 51.7614 40.9399 51.7627 40.9359C51.7734 40.9119 51.7787 40.8933 51.7787 40.8746Z" fill="white"/>
<path d="M59.2016 33.9634C59.2043 33.9594 59.2096 33.9554 59.2123 33.9514C59.2203 33.9394 59.2243 33.9261 59.2243 33.9127C59.2243 33.8901 59.2203 33.8687 59.2136 33.8487C59.2123 33.8434 59.2096 33.8381 59.2069 33.8341C59.2003 33.8181 59.1909 33.8034 59.1789 33.7901C59.1763 33.7861 59.1736 33.7834 59.1709 33.7794C59.1549 33.7621 59.1349 33.7474 59.1096 33.7327C59.1069 33.7314 59.1029 33.7301 59.1003 33.7274C59.0776 33.7141 59.0509 33.7021 59.0203 33.6914C59.0123 33.6887 59.0043 33.6847 58.9963 33.6821C58.9629 33.6701 58.9256 33.6594 58.8829 33.6487C58.8803 33.6474 58.8776 33.6474 58.8749 33.6461C58.8349 33.6367 58.7923 33.6261 58.7443 33.6167H58.7403C58.6056 33.5901 58.4403 33.5647 58.2336 33.5354C57.5496 33.4434 56.2896 33.1527 55.3723 32.9461C55.3443 32.9394 55.3189 32.9341 55.2923 32.9274C55.2269 32.9127 55.1643 32.8994 55.1043 32.8847C54.1803 32.6794 53.9069 31.5007 53.9069 31.5007C53.9069 31.5007 53.6829 30.7794 53.4709 30.4581V30.4567C53.4643 30.4461 53.4576 30.4381 53.4496 30.4274C53.4443 30.4194 53.4376 30.4114 53.4323 30.4034C53.4203 30.3874 53.4083 30.3754 53.3976 30.3634C53.3936 30.3594 53.3883 30.3527 53.3843 30.3487C53.3723 30.3367 53.3589 30.3287 53.3469 30.3221C53.3429 30.3194 53.3403 30.3167 53.3363 30.3154C53.3203 30.3074 53.3056 30.3034 53.2909 30.3047C53.2763 30.3061 53.2616 30.3114 53.2456 30.3194C53.2429 30.3207 53.2403 30.3234 53.2376 30.3247C53.2256 30.3327 53.2123 30.3434 53.1989 30.3554C53.1949 30.3594 53.1909 30.3634 53.1869 30.3687C53.1749 30.3821 53.1629 30.3954 53.1509 30.4127C53.1469 30.4181 53.1416 30.4247 53.1376 30.4314C53.1296 30.4421 53.1229 30.4514 53.1149 30.4634V30.4661C52.9029 30.7994 52.6509 31.5847 52.3989 32.1674C52.0749 32.9194 51.0496 33.0901 50.5029 33.1754C49.9549 33.2607 49.0829 33.5007 47.6803 33.5341C46.2789 33.5687 44.9523 33.3127 44.9523 33.3127C43.8416 33.1727 42.8149 33.1207 42.0456 32.7727C41.2749 32.4247 40.8829 31.2754 40.6776 30.5794C40.4736 29.8821 40.3363 29.5527 40.2163 29.5527C40.0963 29.5527 39.8749 30.0754 39.7376 30.5274C39.6003 30.9794 39.2416 32.3207 38.7109 32.6527C38.1816 32.9834 37.2909 33.1754 35.7016 33.3327C35.7016 33.3327 33.4083 33.5114 32.7603 33.7807C32.7403 33.7887 32.7216 33.7967 32.7043 33.8047C32.7003 33.8061 32.6976 33.8074 32.6936 33.8087C32.6749 33.8181 32.6576 33.8261 32.6416 33.8354C32.6389 33.8367 32.6363 33.8381 32.6336 33.8394C32.6176 33.8487 32.6043 33.8581 32.5936 33.8687C32.5923 33.8701 32.5909 33.8701 32.5896 33.8714C32.5776 33.8821 32.5696 33.8927 32.5643 33.9034C32.5643 33.9034 32.5643 33.9047 32.5629 33.9047C32.5576 33.9154 32.5536 33.9274 32.5549 33.9381C32.5549 33.9501 32.5589 33.9607 32.5656 33.9727C32.5669 33.9754 32.5683 33.9767 32.5696 33.9794C32.5749 33.9887 32.5816 33.9981 32.5909 34.0074C32.5936 34.0101 32.5963 34.0127 32.5989 34.0141C32.6083 34.0234 32.6189 34.0314 32.6309 34.0394C32.6349 34.0421 32.6389 34.0447 32.6429 34.0461C32.6563 34.0541 32.6709 34.0634 32.6856 34.0714C32.6896 34.0741 32.6949 34.0754 32.6989 34.0781C32.7163 34.0861 32.7336 34.0954 32.7536 34.1034C32.7589 34.1061 32.7629 34.1074 32.7683 34.1101C32.7883 34.1181 32.8109 34.1274 32.8336 34.1354C32.8389 34.1367 32.8443 34.1394 32.8496 34.1407C32.8736 34.1487 32.8976 34.1567 32.9243 34.1661C32.9296 34.1674 32.9363 34.1701 32.9416 34.1714C32.9669 34.1794 32.9936 34.1874 33.0216 34.1954C33.0256 34.1967 33.0309 34.1981 33.0349 34.1994C33.8056 34.4127 35.2629 34.5607 35.5763 34.5994C35.9509 34.6447 37.2803 34.7954 37.9323 34.9487C37.9363 34.9501 37.9416 34.9514 37.9456 34.9514C37.9843 34.9607 38.0203 34.9701 38.0536 34.9794C38.0603 34.9807 38.0669 34.9834 38.0723 34.9847C38.1083 34.9954 38.1416 35.0047 38.1696 35.0154C38.6496 35.1887 38.9763 35.3287 39.1669 35.8661C39.3549 36.4047 39.8189 38.0007 39.8189 38.0007C39.8189 38.0007 39.9189 38.3994 40.0429 38.6607V38.6621C40.0443 38.6661 40.0469 38.6687 40.0483 38.6727C40.0616 38.6994 40.0736 38.7247 40.0869 38.7487C40.1029 38.7767 40.1189 38.7994 40.1349 38.8194C40.1363 38.8207 40.1376 38.8234 40.1389 38.8247C40.1536 38.8421 40.1669 38.8567 40.1816 38.8661C40.1829 38.8674 40.1843 38.8687 40.1856 38.8687C40.2003 38.8794 40.2163 38.8861 40.2309 38.8861C40.2456 38.8861 40.2603 38.8781 40.2763 38.8674C40.2789 38.8661 40.2803 38.8634 40.2829 38.8621C40.2949 38.8514 40.3083 38.8394 40.3203 38.8234C40.3229 38.8194 40.3269 38.8154 40.3296 38.8114C40.3363 38.8021 40.3429 38.7914 40.3509 38.7807C40.3563 38.7727 40.3616 38.7634 40.3669 38.7541C40.3696 38.7501 40.3723 38.7461 40.3749 38.7407C40.3869 38.7181 40.4003 38.6927 40.4123 38.6661C40.4149 38.6607 40.4176 38.6554 40.4203 38.6501V38.6474C40.5443 38.3701 40.6443 37.9474 40.6443 37.9474C40.6443 37.9474 41.1069 35.9501 41.4509 35.5861C41.7949 35.2221 41.8456 35.0834 43.3749 34.8394C44.5589 34.6514 45.7336 34.4421 46.7376 34.3567L46.7363 34.3434C46.7909 34.3394 46.8456 34.3341 46.8989 34.3314C46.9549 34.3274 47.0136 34.3221 47.0696 34.3194C47.2296 34.3114 47.3843 34.3061 47.5336 34.3061C48.3469 34.3074 48.9949 34.3727 50.5176 34.5954C51.7336 34.7727 52.1416 34.9954 52.4136 35.6181C52.4229 35.6381 52.4309 35.6594 52.4403 35.6794C52.4509 35.7074 52.4629 35.7354 52.4736 35.7647C52.4816 35.7874 52.4909 35.8087 52.4989 35.8327C52.5083 35.8581 52.5163 35.8861 52.5256 35.9127C52.5349 35.9421 52.5456 35.9714 52.5549 36.0021C52.5723 36.0554 52.5883 36.1101 52.6056 36.1687C52.8296 36.9407 53.0256 37.5567 53.1763 37.8354C53.1776 37.8381 53.1789 37.8407 53.1803 37.8421C53.1909 37.8621 53.2016 37.8794 53.2123 37.8967C53.2149 37.9007 53.2176 37.9061 53.2216 37.9114C53.2309 37.9247 53.2389 37.9354 53.2483 37.9461C53.2523 37.9501 53.2563 37.9554 53.2589 37.9594C53.2669 37.9687 53.2749 37.9741 53.2829 37.9794C53.2869 37.9821 53.2896 37.9861 53.2936 37.9874C53.3043 37.9941 53.3149 37.9967 53.3243 37.9967C53.4789 37.9967 53.5123 37.7754 53.6656 37.2954C53.6856 37.2061 53.7043 37.1247 53.7243 37.0434C53.7389 36.9794 53.7549 36.9181 53.7696 36.8594C53.7723 36.8487 53.7749 36.8381 53.7776 36.8274C53.8256 36.6367 53.8736 36.4674 53.9216 36.3167C53.9256 36.3021 53.9309 36.2874 53.9349 36.2727C53.9496 36.2287 53.9629 36.1861 53.9776 36.1447C53.9869 36.1181 53.9963 36.0914 54.0056 36.0661C54.0136 36.0447 54.0203 36.0234 54.0283 36.0034C54.0323 35.9941 54.0349 35.9861 54.0389 35.9767C54.0443 35.9621 54.0509 35.9474 54.0563 35.9327C54.0696 35.8994 54.0829 35.8674 54.0963 35.8367C54.1029 35.8207 54.1096 35.8047 54.1163 35.7887C54.1603 35.6914 54.2043 35.6047 54.2496 35.5287C54.2563 35.5181 54.2616 35.5087 54.2683 35.4981C54.2856 35.4701 54.3043 35.4421 54.3216 35.4167C54.3283 35.4074 54.3336 35.3994 54.3403 35.3901C54.3869 35.3247 54.4363 35.2674 54.4856 35.2167C54.4923 35.2101 54.4989 35.2034 54.5056 35.1967C54.5256 35.1781 54.5443 35.1594 54.5643 35.1407C54.5709 35.1354 54.5776 35.1287 54.5843 35.1234C54.6363 35.0781 54.6896 35.0381 54.7456 34.9994C54.7536 34.9941 54.7629 34.9874 54.7709 34.9821C54.7923 34.9674 54.8136 34.9541 54.8349 34.9394C54.8443 34.9341 54.8523 34.9274 54.8616 34.9221C54.8896 34.9034 54.9189 34.8861 54.9496 34.8661C55.4963 34.5234 58.2163 34.2167 58.2163 34.2167C58.2163 34.2167 58.4389 34.1941 58.6736 34.1487H58.6763C58.6883 34.1461 58.7003 34.1434 58.7123 34.1407C58.7189 34.1394 58.7243 34.1381 58.7309 34.1367C58.7536 34.1327 58.7749 34.1274 58.7976 34.1221C58.8123 34.1181 58.8269 34.1154 58.8416 34.1114C58.8576 34.1074 58.8723 34.1034 58.8869 34.0994C58.9056 34.0941 58.9229 34.0901 58.9403 34.0847C58.9523 34.0807 58.9643 34.0781 58.9749 34.0741C58.9936 34.0687 59.0096 34.0621 59.0269 34.0567C59.0363 34.0527 59.0469 34.0501 59.0563 34.0461C59.0723 34.0394 59.0869 34.0327 59.1003 34.0261C59.1083 34.0221 59.1176 34.0181 59.1243 34.0154C59.1376 34.0087 59.1483 34.0007 59.1589 33.9941C59.1656 33.9901 59.1723 33.9861 59.1776 33.9821C59.1869 33.9807 59.1936 33.9714 59.2016 33.9634Z" fill="white"/>
<path d="M25.4491 32.0498C25.4718 31.9911 25.4945 31.9285 25.5185 31.8605C25.5425 31.7938 25.5678 31.7231 25.5958 31.6498C25.5971 31.6458 25.5985 31.6418 25.6011 31.6365C25.6291 31.5618 25.6598 31.4858 25.6945 31.4058C25.6945 31.4045 25.6958 31.4031 25.6958 31.4018C25.7291 31.3245 25.7651 31.2458 25.8038 31.1658C25.8078 31.1591 25.8105 31.1511 25.8145 31.1445C25.8531 31.0671 25.8958 30.9871 25.9438 30.9085C25.9465 30.9031 25.9505 30.8978 25.9531 30.8925C26.0025 30.8098 26.0571 30.7258 26.1171 30.6431C26.1198 30.6391 26.1238 30.6338 26.1265 30.6298C26.1851 30.5498 26.2478 30.4711 26.3171 30.3925C26.3238 30.3845 26.3305 30.3778 26.3371 30.3698C26.4011 30.2991 26.4705 30.2298 26.5438 30.1618C26.5865 30.1218 26.6305 30.0818 26.6771 30.0431C26.6851 30.0365 26.6918 30.0298 26.6998 30.0245C26.7625 29.9738 26.8291 29.9245 26.8985 29.8751C26.9118 29.8658 26.9251 29.8565 26.9398 29.8471C27.0105 29.7991 27.0838 29.7538 27.1611 29.7085C27.1758 29.7005 27.1891 29.6925 27.2038 29.6845C27.2851 29.6391 27.3705 29.5938 27.4611 29.5525C27.4665 29.5498 27.4718 29.5485 27.4771 29.5458C27.5665 29.5045 27.6598 29.4658 27.7571 29.4285C27.7718 29.4231 27.7851 29.4178 27.7998 29.4125C27.8985 29.3765 28.0011 29.3431 28.1091 29.3111C28.1291 29.3045 28.1505 29.2991 28.1718 29.2925C28.2811 29.2618 28.3945 29.2325 28.5131 29.2071C28.5318 29.2031 28.5518 29.1991 28.5705 29.1951C28.6971 29.1685 28.8265 29.1445 28.9638 29.1245C31.7385 28.7205 36.9078 28.1738 36.9078 28.1738C36.9078 28.1738 36.9238 28.1725 36.9465 28.1698C36.9531 28.1685 36.9598 28.1685 36.9691 28.1671C36.9865 28.1658 37.0065 28.1631 37.0305 28.1605C37.0371 28.1591 37.0451 28.1591 37.0518 28.1578C37.0665 28.1565 37.0825 28.1538 37.0985 28.1525C37.5211 28.1058 38.5985 27.9911 39.7931 27.8871C39.8025 27.8858 39.8118 27.8858 39.8211 27.8845C39.8825 27.8791 39.9438 27.8738 40.0051 27.8685C40.0171 27.8671 40.0291 27.8671 40.0398 27.8658C40.1505 27.8565 40.2625 27.8471 40.3745 27.8378C40.3931 27.8365 40.4131 27.8351 40.4318 27.8338C40.4825 27.8298 40.5331 27.8258 40.5851 27.8218C40.6171 27.8191 40.6478 27.8165 40.6798 27.8138C40.7278 27.8098 40.7758 27.8058 40.8238 27.8031C40.8825 27.7991 40.9425 27.7938 41.0011 27.7898C41.0465 27.7871 41.0918 27.7831 41.1371 27.7805C41.1891 27.7765 41.2425 27.7725 41.2945 27.7698C41.3265 27.7671 41.3571 27.7658 41.3878 27.7631C41.4518 27.7591 41.5145 27.7551 41.5771 27.7511C41.5825 27.7511 41.5891 27.7498 41.5945 27.7498C41.6278 27.7471 41.6598 27.7458 41.6918 27.7445C41.7665 27.7405 41.8411 27.7351 41.9131 27.7311C41.9998 27.7258 42.0865 27.7218 42.1718 27.7178C42.2131 27.7151 42.2545 27.7138 42.2958 27.7125C42.3611 27.7098 42.4251 27.7071 42.4878 27.7045C42.5251 27.7031 42.5625 27.7018 42.5998 27.7005C42.6798 27.6978 42.7585 27.6951 42.8358 27.6938C42.8518 27.6938 42.8678 27.6925 42.8838 27.6925C42.9758 27.6898 43.0651 27.6898 43.1505 27.6885C43.1718 27.6885 43.1918 27.6885 43.2131 27.6885C43.2785 27.6885 43.3425 27.6885 43.4038 27.6898C43.4251 27.6898 43.4465 27.6898 43.4665 27.6911C43.5425 27.6925 43.6158 27.6951 43.6825 27.6991C45.4118 27.7938 47.3478 28.0325 47.8318 28.1031C47.8851 28.1111 47.9438 28.1191 48.0038 28.1285C48.0451 28.1351 48.0878 28.1418 48.1318 28.1485C48.1465 28.1511 48.1611 28.1538 48.1758 28.1565C48.2118 28.1631 48.2491 28.1711 48.2851 28.1791C48.3011 28.1831 48.3171 28.1858 48.3345 28.1898C48.3825 28.2018 48.4305 28.2138 48.4798 28.2285C48.4945 28.2325 48.5078 28.2378 48.5225 28.2418C48.5665 28.2565 48.6091 28.2711 48.6518 28.2885C48.6625 28.2925 48.6718 28.2965 48.6825 28.3005C48.7318 28.3218 48.7811 28.3458 48.8291 28.3725C48.8425 28.3805 48.8558 28.3871 48.8691 28.3951C48.9185 28.4245 48.9665 28.4551 49.0118 28.4898C49.0171 28.4938 49.0211 28.4978 49.0251 28.5018C49.0678 28.5351 49.1078 28.5725 49.1478 28.6125C49.1611 28.6271 49.1758 28.6405 49.1891 28.6551C49.2065 28.6738 49.2225 28.6951 49.2398 28.7165C49.2545 28.7338 49.2678 28.7511 49.2811 28.7698C49.2985 28.7938 49.3145 28.8205 49.3305 28.8458C49.3411 28.8631 49.3531 28.8805 49.3638 28.8991C49.3891 28.9458 49.4145 28.9938 49.4358 29.0458C49.7745 29.8378 50.1478 31.3285 50.1478 31.3285C50.1478 31.3285 50.2665 31.7885 50.4531 31.7885C50.6398 31.7885 50.7585 31.3605 50.7585 31.3605C50.7585 31.3605 51.3185 29.5538 51.5225 29.0938C51.5371 29.0605 51.5531 29.0285 51.5691 28.9965C51.5758 28.9831 51.5838 28.9711 51.5905 28.9578C51.6025 28.9378 51.6145 28.9178 51.6265 28.8978C51.6358 28.8845 51.6438 28.8711 51.6531 28.8578C51.6691 28.8351 51.6865 28.8125 51.7038 28.7911C51.7118 28.7818 51.7171 28.7725 51.7251 28.7645C51.7398 28.7471 51.7585 28.7298 51.7758 28.7125C51.7905 28.6978 51.8038 28.6831 51.8198 28.6685C51.8291 28.6591 51.8398 28.6511 51.8505 28.6418C51.8758 28.6205 51.9025 28.5991 51.9305 28.5778C51.9425 28.5685 51.9531 28.5605 51.9665 28.5511C52.0065 28.5231 52.0478 28.4965 52.0945 28.4711C52.1038 28.4658 52.1145 28.4618 52.1225 28.4565C52.1611 28.4351 52.2025 28.4151 52.2465 28.3951C52.2665 28.3858 52.2878 28.3765 52.3091 28.3685C52.3478 28.3525 52.3878 28.3365 52.4291 28.3218C52.4518 28.3138 52.4745 28.3058 52.4971 28.2978C52.5598 28.2765 52.6251 28.2565 52.6971 28.2365C52.7091 28.2325 52.7225 28.2298 52.7358 28.2271C52.8025 28.2098 52.8731 28.1925 52.9465 28.1765C52.9745 28.1698 53.0038 28.1645 53.0331 28.1591C53.0971 28.1458 53.1638 28.1338 53.2331 28.1231C53.2638 28.1178 53.2931 28.1125 53.3238 28.1085C53.4251 28.0925 53.5291 28.0778 53.6425 28.0658C55.1531 27.8911 56.7491 27.5751 56.7491 27.5751C56.7491 27.5751 57.1558 27.5658 57.3758 27.4565H57.3771C57.3798 27.4551 57.3811 27.4538 57.3838 27.4525C57.3958 27.4458 57.4078 27.4391 57.4185 27.4311C57.4238 27.4271 57.4305 27.4245 57.4345 27.4205C57.4465 27.4125 57.4558 27.4031 57.4651 27.3938C57.4691 27.3898 57.4731 27.3871 57.4758 27.3831C57.4838 27.3725 57.4905 27.3618 57.4958 27.3498C57.4971 27.3458 57.5011 27.3431 57.5025 27.3391C57.5091 27.3231 57.5118 27.3071 57.5118 27.2898C57.5118 27.2711 57.5078 27.2538 57.4998 27.2378C57.4971 27.2325 57.4945 27.2285 57.4905 27.2231C57.4838 27.2125 57.4771 27.2018 57.4678 27.1925C57.4638 27.1871 57.4571 27.1831 57.4531 27.1791C57.4425 27.1698 57.4318 27.1618 57.4198 27.1538C57.4131 27.1498 57.4078 27.1458 57.4011 27.1418C57.3865 27.1338 57.3718 27.1258 57.3558 27.1191C57.3491 27.1165 57.3438 27.1138 57.3371 27.1111C57.3171 27.1031 57.2958 27.0951 57.2745 27.0885C57.2705 27.0871 57.2678 27.0858 57.2638 27.0845C57.0238 27.0111 56.6971 27.0058 56.6971 27.0058L53.2345 26.4831C53.2345 26.4831 53.2291 26.4831 53.2211 26.4818C53.2198 26.4818 53.2185 26.4818 53.2171 26.4818C53.1971 26.4805 53.1585 26.4765 53.1078 26.4698C53.1051 26.4698 53.1025 26.4685 53.0998 26.4685C53.0731 26.4645 53.0438 26.4605 53.0118 26.4551C53.0078 26.4551 53.0025 26.4538 52.9985 26.4525C52.9745 26.4485 52.9478 26.4431 52.9211 26.4391C52.9065 26.4365 52.8918 26.4338 52.8771 26.4298C52.8518 26.4245 52.8265 26.4191 52.7998 26.4125C52.7865 26.4098 52.7745 26.4071 52.7611 26.4031C52.7238 26.3938 52.6851 26.3845 52.6451 26.3738C52.6398 26.3725 52.6358 26.3711 52.6305 26.3698C52.5905 26.3591 52.5505 26.3458 52.5105 26.3325C52.4971 26.3285 52.4825 26.3231 52.4678 26.3178C52.4371 26.3071 52.4051 26.2951 52.3731 26.2831C52.3585 26.2778 52.3438 26.2711 52.3278 26.2658C52.2865 26.2485 52.2451 26.2311 52.2038 26.2111C52.1985 26.2085 52.1918 26.2058 52.1865 26.2031C52.1451 26.1831 52.1051 26.1618 52.0651 26.1391C52.0505 26.1311 52.0371 26.1231 52.0225 26.1138C51.9931 26.0951 51.9625 26.0765 51.9345 26.0565C51.9211 26.0471 51.9078 26.0378 51.8945 26.0285C51.8558 26.0005 51.8198 25.9711 51.7838 25.9405C51.7811 25.9378 51.7771 25.9351 51.7745 25.9325C51.7398 25.9005 51.7065 25.8658 51.6745 25.8298C51.6638 25.8178 51.6545 25.8058 51.6451 25.7938C51.6225 25.7658 51.5998 25.7365 51.5798 25.7045C51.5718 25.6911 51.5625 25.6791 51.5545 25.6658C51.5278 25.6218 51.5038 25.5778 51.4838 25.5285C51.1278 24.6725 50.7531 23.7378 50.7531 23.7378C50.7531 23.7378 50.7211 23.5698 50.6411 23.4565V23.4538C50.6331 23.4418 50.6238 23.4311 50.6145 23.4218C50.6131 23.4205 50.6118 23.4178 50.6105 23.4165C50.5958 23.4005 50.5785 23.3885 50.5598 23.3791C50.5558 23.3765 50.5505 23.3751 50.5451 23.3725C50.5251 23.3645 50.5051 23.3578 50.4825 23.3578C50.4585 23.3578 50.4371 23.3658 50.4158 23.3765C50.4131 23.3778 50.4105 23.3778 50.4091 23.3805C50.3905 23.3911 50.3718 23.4071 50.3558 23.4258C50.3518 23.4298 50.3478 23.4338 50.3438 23.4391C50.3425 23.4418 50.3398 23.4431 50.3371 23.4458V23.4471C50.2305 23.5805 50.1771 23.8191 50.1771 23.8191C50.1771 23.8191 49.7691 25.1351 49.4478 25.5631C49.1251 25.9911 48.7358 26.4191 47.0211 26.5778C46.2398 26.6498 45.6291 26.7258 45.1291 26.7871C45.0638 26.7951 45.0011 26.8031 44.9398 26.8111C44.9211 26.8138 44.9025 26.8151 44.8851 26.8178C44.8425 26.8231 44.7998 26.8285 44.7585 26.8338C44.7291 26.8378 44.7011 26.8405 44.6731 26.8445C44.6371 26.8485 44.6025 26.8525 44.5678 26.8565C44.5425 26.8591 44.5171 26.8618 44.4918 26.8658C44.4558 26.8698 44.4211 26.8738 44.3878 26.8778C44.3665 26.8805 44.3438 26.8831 44.3225 26.8845C44.2878 26.8885 44.2545 26.8911 44.2211 26.8951C44.2011 26.8965 44.1811 26.8991 44.1611 26.9005C44.1278 26.9031 44.0945 26.9058 44.0625 26.9085C44.0451 26.9098 44.0265 26.9111 44.0091 26.9125C43.9731 26.9151 43.9385 26.9178 43.9051 26.9191C43.8918 26.9205 43.8785 26.9205 43.8665 26.9218C43.8198 26.9245 43.7731 26.9258 43.7291 26.9271C43.0491 26.9431 41.6398 26.9431 40.5198 26.8165C39.4011 26.6898 32.1518 25.8658 32.1518 25.8658C32.1518 25.8658 31.8451 25.8338 31.4011 25.7818C30.9398 25.7271 30.3305 25.6498 29.7571 25.5631C29.7505 25.5618 29.7438 25.5605 29.7371 25.5605C29.6798 25.5511 29.6238 25.5431 29.5665 25.5338C29.5491 25.5311 29.5318 25.5285 29.5145 25.5258C29.4651 25.5178 29.4171 25.5098 29.3678 25.5018C29.3518 25.4991 29.3358 25.4965 29.3198 25.4938C29.2625 25.4845 29.2065 25.4738 29.1518 25.4645C29.1305 25.4605 29.1091 25.4565 29.0878 25.4525C29.0518 25.4458 29.0158 25.4391 28.9811 25.4325C28.9585 25.4285 28.9358 25.4245 28.9145 25.4191C28.8758 25.4111 28.8398 25.4045 28.8025 25.3965C28.7865 25.3938 28.7705 25.3898 28.7545 25.3871C28.7078 25.3778 28.6625 25.3671 28.6198 25.3578C28.6038 25.3538 28.5878 25.3498 28.5731 25.3471C28.5425 25.3391 28.5131 25.3325 28.4838 25.3245C28.4691 25.3205 28.4558 25.3165 28.4411 25.3138C28.4011 25.3031 28.3638 25.2925 28.3291 25.2818C27.4131 24.9965 26.0718 24.9485 25.0371 21.9218C24.0011 18.8951 23.9345 18.6725 23.9345 18.6725C23.9345 18.6725 23.9011 18.4565 23.8051 18.2938C23.8038 18.2911 23.8011 18.2871 23.7985 18.2845C23.7891 18.2685 23.7785 18.2525 23.7665 18.2391C23.7598 18.2311 23.7531 18.2231 23.7465 18.2151C23.7358 18.2031 23.7251 18.1925 23.7145 18.1831C23.7065 18.1765 23.6998 18.1698 23.6905 18.1645C23.6758 18.1538 23.6598 18.1458 23.6438 18.1378C23.6371 18.1351 23.6305 18.1325 23.6251 18.1311C23.6038 18.1245 23.5811 18.1191 23.5571 18.1191C23.5345 18.1191 23.5131 18.1245 23.4931 18.1311C23.4878 18.1325 23.4825 18.1351 23.4785 18.1378C23.4611 18.1458 23.4451 18.1551 23.4305 18.1671C23.4278 18.1685 23.4251 18.1698 23.4238 18.1725C23.4051 18.1871 23.3878 18.2058 23.3718 18.2258C23.2331 18.4018 23.1865 18.7365 23.1865 18.7365C23.1865 18.7365 22.0318 22.2391 21.4878 23.2845C20.9451 24.3298 20.5545 25.3125 16.0238 25.7885C12.0011 26.2805 9.88781 26.5885 9.88781 26.5885L6.17048 27.0631C6.17048 27.0631 5.50781 27.0871 5.50781 27.3245C5.50781 27.5618 6.06915 27.5618 6.27181 27.5858C6.47581 27.6098 10.4478 28.1085 10.4478 28.1085C10.4478 28.1085 16.7878 28.9165 17.3985 29.0111C17.7785 29.0698 18.5785 29.1751 19.3078 29.3938C19.3345 29.4018 19.3598 29.4098 19.3851 29.4178C19.4278 29.4311 19.4705 29.4445 19.5118 29.4591C19.5318 29.4658 19.5505 29.4725 19.5705 29.4791C19.6225 29.4978 19.6745 29.5165 19.7265 29.5365C19.7385 29.5405 19.7491 29.5458 19.7611 29.5498C19.8878 29.6005 20.0078 29.6565 20.1198 29.7165C20.1331 29.7231 20.1451 29.7311 20.1585 29.7378C20.1998 29.7618 20.2398 29.7858 20.2785 29.8111C20.2918 29.8191 20.3051 29.8285 20.3185 29.8365C20.3665 29.8698 20.4131 29.9031 20.4545 29.9378C21.1931 30.5551 21.8291 31.8871 22.2878 33.8605C22.7451 35.8338 23.2291 37.5218 23.2291 37.5218C23.2291 37.5218 23.3065 38.1165 23.5598 38.1165C23.5745 38.1165 23.5891 38.1138 23.6038 38.1098C23.6091 38.1085 23.6145 38.1058 23.6198 38.1031C23.6278 38.0991 23.6371 38.0965 23.6451 38.0911C23.6505 38.0871 23.6571 38.0831 23.6625 38.0791C23.6691 38.0738 23.6758 38.0698 23.6825 38.0631C23.6878 38.0578 23.6931 38.0511 23.6998 38.0458C23.7051 38.0391 23.7105 38.0338 23.7158 38.0271C23.7211 38.0205 23.7265 38.0125 23.7318 38.0058C23.7371 37.9991 23.7411 37.9925 23.7451 37.9845C23.7505 37.9765 23.7545 37.9685 23.7598 37.9591C23.7638 37.9511 23.7678 37.9445 23.7718 37.9365C23.7771 37.9271 23.7811 37.9178 23.7851 37.9085C23.7878 37.9018 23.7918 37.8938 23.7945 37.8871C23.7998 37.8765 23.8038 37.8645 23.8078 37.8538C23.8078 37.8525 23.8091 37.8511 23.8091 37.8498C23.8705 37.6831 23.8931 37.5005 23.8931 37.5005C23.8931 37.5005 25.1438 32.8578 25.4491 32.0498Z" fill="white"/>
</g>
<defs>
<clipPath id="clip0_10704_21802">
<rect width="64" height="64" fill="white"/>
</clipPath>
</defs>
</svg>
