<svg width="64" height="60" viewBox="0 0 64 60" fill="none" xmlns="http://www.w3.org/2000/svg">
<g clip-path="url(#clip0_10704_21810)">
<path d="M0 42.3047H15.4076V47.0909H10.9875V58.5935H4.56721V47.0909H0V42.3047ZM23.2107 48.886L19.9668 58.5935H13.8011L19.8482 42.3047H26.5443L32.7371 58.5935H26.4956L23.2107 48.886ZM31.2642 42.3047H46.6711V47.0909H42.2524V58.5935H35.8324V47.0909H31.2642V42.3047ZM54.477 48.886L51.2318 58.5935H45.0661L51.1152 42.3047H57.8093L64 58.5935H57.7608L54.477 48.886Z" fill="#486AAE"/>
<path fill-rule="evenodd" clip-rule="evenodd" d="M54.7062 12.3846C54.131 11.2298 53.3733 10.123 52.4308 9.08499C50.3127 6.75134 47.3242 4.80944 43.7876 3.47011C40.2219 2.12041 36.1549 1.40625 32.022 1.40625C27.8891 1.40625 23.8221 2.12041 20.2582 3.47011C16.7198 4.8096 13.7312 6.75149 11.6131 9.08499C10.6712 10.1228 9.91106 11.2312 9.33594 12.3866C13.9401 11.2501 21.8159 9.74947 29.1286 9.59081C29.834 9.57534 30.3197 9.80596 30.6395 10.2197C31.029 10.7235 30.9997 12.5194 30.9902 13.3229L30.7823 34.09C31.1941 34.104 31.6079 34.1129 32.022 34.1129C32.4396 34.1129 32.8557 34.106 33.2675 34.092L33.0596 13.3228C33.0488 12.5194 33.0187 10.7234 33.4096 10.2195C33.7301 9.80596 34.2141 9.57533 34.9193 9.59066C42.229 9.74807 50.103 11.249 54.7062 12.3846Z" fill="#486AAE"/>
<path fill-rule="evenodd" clip-rule="evenodd" d="M55.6874 15.0852C48.9488 13.5302 44.4486 13.2426 40.0083 12.991C36.1378 12.7714 36.0873 14.1822 36.4737 16.8784C36.499 17.0429 36.5301 17.2503 36.5669 17.4868C37.8652 25.3362 39.4818 32.0908 39.7596 33.2373C49.1955 31.0355 56.0004 24.9311 56.0004 17.76C56.0004 16.857 55.8935 15.9624 55.6874 15.0852ZM27.5703 16.8784C27.9571 14.1824 27.9076 12.7714 24.0375 12.991C19.5957 13.2426 15.0945 13.53 8.35324 15.0862C8.14733 15.9633 8.03906 16.8569 8.03906 17.7599C8.03906 20.8592 9.27423 23.8583 11.6114 26.4349C13.7295 28.7686 16.7181 30.7105 20.2565 32.0508C21.5372 32.5348 22.8887 32.9315 24.2808 33.2488C24.542 32.1747 26.1958 25.2795 27.5082 17.2898C27.5324 17.1367 27.5549 16.9954 27.5703 16.8784Z" fill="#486AAE"/>
</g>
<defs>
<clipPath id="clip0_10704_21810">
<rect width="64" height="60" fill="white"/>
</clipPath>
</defs>
</svg>
