<svg width="64" height="64" viewBox="0 0 64 64" fill="none" xmlns="http://www.w3.org/2000/svg">
<g clip-path="url(#clip0_10704_21816)">
<path fill-rule="evenodd" clip-rule="evenodd" d="M3.42188 10.8345C10.8824 7.79052 23.1918 7.39448 28.5388 7.59711L31.9613 12.0242L35.3853 7.59711C40.7324 7.39448 53.0417 7.78899 60.5007 10.8345C59.4706 12.8055 54.9891 15.6085 52.5266 16.2317C52.3864 12.3588 46.9525 11.5514 41.7396 11.5514L31.9598 64.3842L22.1815 11.5498C16.9624 11.5498 11.5285 12.3573 11.3884 16.2301C8.92892 15.6085 4.45045 12.8055 3.42188 10.8345Z" fill="#B71C1C"/>
<path fill-rule="evenodd" clip-rule="evenodd" d="M-0.0390625 5.58194L1.87027 8.40486C9.11294 5.84443 17.7087 4.61333 26.78 4.33702C30.2131 4.2311 33.7087 4.2311 37.1388 4.33702C46.2101 4.61179 54.8074 5.84289 62.0501 8.40486L63.9609 5.58194C55.4078 2.6623 46.3198 1.68909 37.2455 1.45269C33.7301 1.36212 30.1903 1.36212 26.6809 1.45269C17.599 1.68909 8.5156 2.6623 -0.0390625 5.58194Z" fill="#B71C1C"/>
</g>
<defs>
<clipPath id="clip0_10704_21816">
<rect width="64" height="64" fill="white"/>
</clipPath>
</defs>
</svg>
