<?xml version="1.0" standalone="no"?>
<!DOCTYPE svg PUBLIC "-//W3C//DTD SVG 20010904//EN"
 "http://www.w3.org/TR/2001/REC-SVG-20010904/DTD/svg10.dtd">
<svg version="1.0" xmlns="http://www.w3.org/2000/svg"
 width="904.000000pt" height="736.000000pt" viewBox="0 0 904.000000 736.000000"
 preserveAspectRatio="xMidYMid meet">

<g transform="translate(0.000000,736.000000) scale(0.100000,-0.100000)"
fill="#000000" stroke="none">
<path d="M1620 5890 l0 -260 2560 0 2560 0 0 260 0 260 -2560 0 -2560 0 0
-260z"/>
<path d="M1620 5210 l0 -260 928 -2 927 -3 50 -24 c66 -33 131 -100 163 -169
l27 -57 3 -1617 2 -1618 185 0 185 0 -2 1878 -3 1877 -26 56 c-34 72 -96 134
-168 168 l-56 26 -1107 3 -1108 2 0 -260z"/>
<path d="M4503 5451 c-29 -10 -71 -31 -94 -47 -53 -36 -114 -129 -128 -195 -8
-35 -11 -619 -11 -1899 l0 -1850 185 0 185 0 2 1618 3 1617 27 57 c32 69 97
136 163 169 l50 24 928 3 927 2 0 260 0 260 -1092 0 c-1025 -1 -1096 -2 -1145
-19z"/>
<path d="M1620 4535 l0 -235 638 0 c728 0 700 3 783 -80 85 -85 79 19 79
-1459 l0 -1306 210 3 210 3 0 1587 c0 1526 -1 1589 -19 1628 -10 23 -34 52
-52 65 l-34 24 -907 3 -908 2 0 -235z"/>
<path d="M4915 4756 c-38 -17 -60 -41 -80 -89 -13 -32 -15 -218 -15 -1622 l0
-1585 210 0 210 0 2 1328 3 1327 22 41 c12 23 41 58 64 77 79 69 62 67 771 67
l638 0 0 235 0 235 -897 0 c-723 -1 -904 -3 -928 -14z"/>
</g>
</svg>
