<svg width="64" height="64" viewBox="0 0 64 64" fill="none" xmlns="http://www.w3.org/2000/svg">
<g clip-path="url(#clip0_10704_21819)">
<path d="M0 6.24308V9.48633H31.9988H63.9976V6.24308V2.99982H31.9988H0V6.24308Z" fill="black"/>
<path d="M0 14.7282V17.9714L11.5996 17.9964L23.1866 18.0338L23.8116 18.3332C24.6366 18.7448 25.449 19.5806 25.849 20.4413L26.1865 21.1523L26.224 41.3228L26.249 61.5059H28.5614H30.8738L30.8488 38.0796L30.8113 14.6658L30.4863 13.9673C30.0614 13.0691 29.2864 12.2957 28.3864 11.8716L27.6864 11.5473L13.8495 11.5099L0 11.4849V14.7282Z" fill="black"/>
<path d="M36.0374 11.7219C35.6749 11.8467 35.1499 12.1086 34.8624 12.3082C34.2 12.7573 33.4375 13.9174 33.2625 14.7407C33.1625 15.1772 33.125 22.4621 33.125 38.4289V61.5059H35.4374H37.7498L37.7748 41.3228L37.8123 21.1523L38.1498 20.4413C38.5498 19.5806 39.3623 18.7448 40.1872 18.3332L40.8122 18.0338L52.4118 17.9964L63.9988 17.9714V14.7282V11.4849H50.3493C37.5373 11.4974 36.6499 11.5099 36.0374 11.7219Z" fill="black"/>
<path d="M0 23.1483V26.0797H7.9747C17.0743 26.0797 16.7244 26.0423 17.7618 27.0776C18.8243 28.1379 18.7493 26.8406 18.7493 45.2773V61.5684L21.3742 61.5309L23.9991 61.4935V41.6972C23.9991 22.6618 23.9866 21.8759 23.7616 21.3894C23.6366 21.1025 23.3366 20.7408 23.1116 20.5786L22.6866 20.2793L11.3496 20.2418L0 20.2169V23.1483Z" fill="black"/>
<path d="M41.1875 20.3914C40.7125 20.6035 40.4375 20.9028 40.1875 21.5016C40.025 21.9008 40 24.2209 40 41.7345V61.5059H42.6249H45.2498L45.2748 44.9403L45.3123 28.3873L45.5873 27.8758C45.7373 27.5889 46.0998 27.1523 46.3873 26.9153C47.3747 26.0546 47.1622 26.0796 56.0244 26.0796H63.9991V23.1482V20.2168H52.787C43.7499 20.2292 41.4874 20.2542 41.1875 20.3914Z" fill="black"/>
</g>
<defs>
<clipPath id="clip0_10704_21819">
<rect width="64" height="64" fill="white"/>
</clipPath>
</defs>
</svg>
