<svg xmlns="http://www.w3.org/2000/svg"  viewBox="0 0 100 100" width="50px" height="50px"><path fill="#b1bdd0" d="M50,21C26.803,21,8,33.089,8,48s18.803,27,42,27s42-12.089,42-27S73.197,21,50,21z M50,69.6 c-19.161,0-34.696-9.671-34.696-21.6S30.839,26.4,50,26.4S84.696,36.071,84.696,48S69.161,69.6,50,69.6z"/><path fill="#b1bdd0" d="M50,21c-16.137,0-29.217,6.044-29.217,13.5S33.863,48,50,48s29.217-6.044,29.217-13.5 S66.137,21,50,21z M50,42.6c-12.101,0-21.913-4.077-21.913-8.55S37.899,26.4,50,26.4s21.913,3.177,21.913,7.65S62.101,42.6,50,42.6 z"/><ellipse cx="50" cy="48" fill="none" stroke="#1f212b" stroke-linecap="round" stroke-linejoin="round" stroke-miterlimit="10" stroke-width="2" rx="42" ry="27"/><path fill="#b1bdd0" d="M50,26.4c-6.052,0-10.957,9.671-10.957,21.6S43.948,69.6,50,69.6S60.957,59.929,60.957,48 S56.052,26.4,50,26.4z M50,62.4c-3.026,0-5.478-6.448-5.478-14.4S46.974,33.6,50,33.6s5.478,6.448,5.478,14.4S53.026,62.4,50,62.4z"/><path fill="none" stroke="#1f212b" stroke-linecap="round" stroke-linejoin="round" stroke-miterlimit="10" stroke-width="2" d="M50,26.4c4.905,0,9.056,6.356,10.453,15.116c6.826-1.505,11.46-4.392,11.46-7.466C71.913,29.577,62.102,26.4,50,26.4z"/><path fill="none" stroke="#1f212b" stroke-linecap="round" stroke-linejoin="round" stroke-miterlimit="10" stroke-width="2" d="M50,33.6c-2.264,0-4.206,3.609-5.041,8.757C46.578,42.514,48.264,42.6,50,42.6s3.422-0.086,5.041-0.243 C54.206,37.209,52.264,33.6,50,33.6z"/><path fill="none" stroke="#1f212b" stroke-linecap="round" stroke-linejoin="round" stroke-miterlimit="10" stroke-width="2" d="M28.087,34.05c0,3.074,4.634,5.961,11.46,7.466C40.944,32.756,45.095,26.4,50,26.4C37.898,26.4,28.087,29.577,28.087,34.05z"/><g><path fill="none" stroke="#1f212b" stroke-linecap="round" stroke-linejoin="round" stroke-miterlimit="10" stroke-width="2" d="M39.043,48c0-0.331,0.018-0.653,0.025-0.98c-9.665-1.804-16.763-5.927-18.063-10.878c-3.6,3.404-5.701,7.478-5.701,11.858 c0,11.929,15.535,21.6,34.696,21.6C43.948,69.6,39.043,59.929,39.043,48z"/><path fill="none" stroke="#1f212b" stroke-linecap="round" stroke-linejoin="round" stroke-miterlimit="10" stroke-width="2" d="M44.526,47.763c0,0.08-0.005,0.157-0.005,0.237c0,7.952,2.452,14.4,5.478,14.4s5.478-6.448,5.478-14.4 c0-0.08-0.004-0.157-0.005-0.237C53.701,47.919,51.871,48,50,48S46.299,47.919,44.526,47.763z"/><path fill="none" stroke="#1f212b" stroke-linecap="round" stroke-linejoin="round" stroke-miterlimit="10" stroke-width="2" d="M78.995,36.142c-1.3,4.951-8.398,9.074-18.063,10.878c0.007,0.327,0.025,0.649,0.025,0.98c0,11.929-4.905,21.6-10.957,21.6 c19.161,0,34.696-9.671,34.696-21.6C84.696,43.62,82.595,39.546,78.995,36.142z"/></g></svg>