<svg width="64" height="64" viewBox="0 0 64 64" fill="none" xmlns="http://www.w3.org/2000/svg">
<path d="M31.9994 10.791C14.8781 10.791 1 19.7137 1 30.7192C1 41.7247 14.8781 50.6473 31.9994 50.6473C49.1206 50.6473 62.9987 41.7247 62.9987 30.7192C62.9987 19.7137 49.1206 10.791 31.9994 10.791ZM31.9994 46.6617C17.857 46.6617 6.39094 39.5237 6.39094 30.7192C6.39094 21.9146 17.857 14.7766 31.9994 14.7766C46.1417 14.7766 57.6078 21.9146 57.6078 30.7192C57.6078 39.5237 46.1417 46.6617 31.9994 46.6617Z" fill="#B1BDD0"/>
<path d="M31.9981 10.791C20.0877 10.791 10.4336 15.252 10.4336 20.7551C10.4336 26.2582 20.0877 30.7192 31.9981 30.7192C43.9085 30.7192 53.5626 26.2582 53.5626 20.7551C53.5626 15.252 43.9085 10.791 31.9981 10.791ZM31.9981 26.7335C23.0666 26.7335 15.8245 23.7244 15.8245 20.423C15.8245 17.1215 23.0666 14.7766 31.9981 14.7766C40.9296 14.7766 48.1716 17.1215 48.1716 20.423C48.1716 23.7244 40.9296 26.7335 31.9981 26.7335Z" fill="#B1BDD0"/>
<path d="M31.9994 50.6473C49.1198 50.6473 62.9987 41.7252 62.9987 30.7192C62.9987 19.7132 49.1198 10.791 31.9994 10.791C14.8789 10.791 1 19.7132 1 30.7192C1 41.7252 14.8789 50.6473 31.9994 50.6473Z" stroke="#1F212B" stroke-miterlimit="10" stroke-linecap="round" stroke-linejoin="round"/>
<path d="M31.9973 14.7773C27.5304 14.7773 23.9102 21.9153 23.9102 30.7199C23.9102 39.5244 27.5304 46.6624 31.9973 46.6624C36.4642 46.6624 40.0844 39.5244 40.0844 30.7199C40.0844 21.9153 36.4642 14.7773 31.9973 14.7773ZM31.9973 41.3482C29.7639 41.3482 27.9541 36.5891 27.9541 30.7199C27.9541 24.8507 29.7639 20.0915 31.9973 20.0915C34.2307 20.0915 36.0405 24.8507 36.0405 30.7199C36.0405 36.5891 34.2307 41.3482 31.9973 41.3482Z" fill="#B1BDD0"/>
<path d="M32 14.7773C35.6203 14.7773 38.6841 19.4686 39.7151 25.9342C44.7533 24.8234 48.1735 22.6925 48.1735 20.4237C48.1735 17.1222 40.9322 14.7773 32 14.7773Z" stroke="#1F212B" stroke-miterlimit="10" stroke-linecap="round" stroke-linejoin="round"/>
<path d="M31.998 20.0918C30.327 20.0918 28.8936 22.7555 28.2773 26.5552C29.4723 26.671 30.7167 26.7345 31.998 26.7345C33.2793 26.7345 34.5237 26.671 35.7187 26.5552C35.1024 22.7555 33.669 20.0918 31.998 20.0918Z" stroke="#1F212B" stroke-miterlimit="10" stroke-linecap="round" stroke-linejoin="round"/>
<path d="M15.8242 20.4237C15.8242 22.6925 19.2445 24.8234 24.2826 25.9342C25.3137 19.4686 28.3775 14.7773 31.9978 14.7773C23.0655 14.7773 15.8242 17.1222 15.8242 20.4237Z" stroke="#1F212B" stroke-miterlimit="10" stroke-linecap="round" stroke-linejoin="round"/>
<path d="M23.908 30.7209C23.908 30.4766 23.9213 30.2389 23.9265 29.9976C16.7929 28.6661 11.554 25.623 10.5945 21.9688C7.93742 24.4812 6.38672 27.4881 6.38672 30.7209C6.38672 39.5255 17.8528 46.6634 31.9951 46.6634C27.5283 46.6634 23.908 39.5255 23.908 30.7209Z" stroke="#1F212B" stroke-miterlimit="10" stroke-linecap="round" stroke-linejoin="round"/>
<path d="M27.9529 30.5449C27.9529 30.604 27.9492 30.6608 27.9492 30.7198C27.9492 36.5891 29.759 41.3482 31.9924 41.3482C34.2259 41.3482 36.0356 36.5891 36.0356 30.7198C36.0356 30.6608 36.0327 30.604 36.0319 30.5449C34.7248 30.6601 33.3741 30.7198 31.9932 30.7198C30.6122 30.7198 29.2615 30.6601 27.9529 30.5449Z" stroke="#1F212B" stroke-miterlimit="10" stroke-linecap="round" stroke-linejoin="round"/>
<path d="M53.3967 21.9688C52.4372 25.623 47.1983 28.6661 40.0648 29.9976C40.07 30.2389 40.0832 30.4766 40.0832 30.7209C40.0832 39.5255 36.463 46.6634 31.9961 46.6634C46.1384 46.6634 57.6045 39.5255 57.6045 30.7209C57.6045 27.4881 56.0538 24.4812 53.3967 21.9688Z" stroke="#1F212B" stroke-miterlimit="10" stroke-linecap="round" stroke-linejoin="round"/>
</svg>
