<svg width="64" height="64" viewBox="0 0 64 64" fill="none" xmlns="http://www.w3.org/2000/svg">
<path d="M2.79008 20.2275C2.98944 20.057 3.21728 20 3.53024 20H29.2384C29.6371 20 29.9789 20.1994 30.1498 20.5126C30.2067 20.5696 30.2352 20.6262 30.2352 20.6832C30.2637 20.769 30.2925 20.8256 30.2925 20.8826C30.2925 20.9114 30.2925 20.9114 30.2925 20.9114L31.5165 30.4198L36.6979 20.8541C36.9827 20.3414 37.1818 20 38.2349 20H55.2032C57.9072 20 60.0998 21.0531 61.6374 22.6474C63.1747 24.2707 64 26.4342 64 28.655C64 30.3344 63.3168 32.2701 62.1776 33.8083C61.0109 35.3453 59.3882 36.4845 57.4803 36.4845C57.0531 36.4845 56.7686 36.5414 56.6262 36.6269C56.5693 36.655 56.5408 36.6838 56.5408 36.712C56.5123 36.712 56.5123 36.7408 56.5123 36.769C56.5123 36.8547 56.5693 36.9683 56.6259 37.0822L59.872 42.1782C60.0714 42.4627 60.1853 42.7757 60.1853 43.0602C60.1853 43.2026 60.1283 43.3734 60.0717 43.487C60.0147 43.6301 59.9008 43.7434 59.7584 43.8294C59.559 43.943 59.303 44.0282 58.9901 44.0282H49.9933C49.4525 44.0282 49.1392 43.9718 48.9114 43.8C48.6554 43.6301 48.513 43.4019 48.2854 43.0598L42.5338 34.007C42.4483 33.8931 42.3632 33.7507 42.2778 33.6656C42.2208 33.6086 42.1354 33.552 42.0784 33.552H41.7651C41.7082 33.552 41.623 33.609 41.5661 33.6656C41.4803 33.7792 41.4237 33.9219 41.3382 34.064L36.8115 43.1168C36.3562 44.0282 35.8154 44.0282 35.0746 44.0282H23.4877C22.8899 44.0282 22.5763 43.8864 22.3773 43.6301C22.1779 43.4019 22.1494 43.1168 22.121 42.7757L20.384 29.3098C20.3555 28.8826 20.2134 28.8826 20.0707 28.8826H19.473C19.1315 28.8826 19.0746 28.9965 18.9891 29.2525C18.9891 29.3098 19.0173 29.167 18.9891 29.3098L14.2637 43.1744C14.1498 43.487 14.0355 43.7149 13.8646 43.8294C13.6653 43.9718 13.4666 44.0282 13.2099 44.0282H4.29888C3.72992 44.0282 3.38816 43.8582 3.21728 43.5155C3.0752 43.231 3.10368 42.8035 3.27424 42.2918L7.71584 29.224C7.74432 29.0819 7.77248 28.9677 7.77248 28.9392C7.74432 28.911 7.6592 28.8822 7.48768 28.8822H0.85408C0.17088 28.8826 0 28.5693 0 28.1994C0 28 0.05696 27.7722 0.11392 27.6301C0.11392 27.6013 0.11392 27.6013 0.1424 27.5731L2.33472 21.0531C2.4768 20.6262 2.6192 20.3984 2.79008 20.2275Z" fill="black"/>
<path d="M30.2935 20.9108C30.322 20.9674 30.2935 20.8535 30.2935 20.9108V20.9108ZM18.5639 29.1101C18.5639 29.1101 18.5639 29.1101 18.5354 29.1383L13.8378 43.0026C13.7521 43.2589 13.6666 43.4013 13.5815 43.4583C13.4961 43.5447 13.3537 43.5725 13.2113 43.5725H4.30023C3.93031 43.5725 3.70279 43.4861 3.64583 43.3156C3.53191 43.145 3.58855 42.8317 3.70279 42.433L8.14407 29.3658C8.22951 29.138 8.25799 28.9104 8.17255 28.7396C8.08711 28.5402 7.88775 28.4263 7.48903 28.4263H0.855431C0.542151 28.4263 0.457031 28.3127 0.457031 28.1988C0.457031 28.0564 0.513991 27.8855 0.542471 27.7716C0.571271 27.7146 0.571271 27.7146 0.571271 27.7146L2.79143 21.1949C2.90535 20.8535 2.99079 20.6823 3.10471 20.5687C3.19015 20.4829 3.33255 20.4551 3.53159 20.4551H29.2397C29.7524 20.4551 29.8375 20.8535 29.8663 21.1383L31.0618 30.505C31.0618 30.6759 31.0903 30.7898 31.0903 30.8752C31.1188 30.9888 31.1473 31.1028 31.2042 31.1597C31.3748 31.3306 31.5175 31.3021 31.6881 31.0461C31.7453 30.9607 31.802 30.8468 31.9162 30.6474L37.1258 21.0816C37.3252 20.7114 37.4391 20.4554 38.2359 20.4554H55.2042C57.7668 20.4554 59.8446 21.4516 61.2961 22.9888C62.7486 24.498 63.5457 26.5479 63.5457 28.6548C63.5457 30.2487 62.891 32.0711 61.8084 33.5229C60.7268 34.946 59.218 35.9991 57.4813 35.9991C56.9406 35.9991 56.5988 36.0855 56.371 36.2279C56.2574 36.2842 56.2004 36.3703 56.1434 36.4554C56.0865 36.569 56.0577 36.6548 56.0577 36.7687C56.0577 36.9399 56.115 37.1386 56.2286 37.338L59.5025 42.4336C59.6449 42.6618 59.7018 42.8612 59.7018 43.0599C59.7018 43.1456 59.7018 43.2311 59.6734 43.2887C59.6164 43.3456 59.5876 43.402 59.5025 43.4298C59.3889 43.5156 59.2177 43.5728 58.9902 43.5728H49.9934C49.5662 43.5728 49.3102 43.5152 49.1678 43.4016C48.9972 43.3159 48.8829 43.1165 48.6839 42.8036L42.9326 33.7792C42.8186 33.6368 42.7332 33.466 42.6193 33.3524C42.4484 33.21 42.2778 33.096 42.0785 33.096H41.7652C41.5377 33.096 41.3668 33.2096 41.2247 33.3808C41.1108 33.5229 41.0254 33.6941 40.9399 33.865L36.4132 42.9181C36.0718 43.5732 35.6439 43.5732 35.0746 43.5732H23.489C23.0618 43.5732 22.8343 43.4868 22.7489 43.3456C22.635 43.2026 22.6068 42.9757 22.578 42.7188L20.8698 29.2519C20.7559 28.4263 20.4142 28.4263 20.0727 28.4263H19.475C18.7914 28.4263 18.7063 28.6256 18.5639 29.0813V29.1101ZM18.5639 29.1101C18.5639 29.0813 18.5639 29.0813 18.5639 29.0813V29.1101ZM18.5639 29.1101C18.5639 29.0813 18.5639 29.0813 18.5639 29.0813V29.1101Z" fill="white"/>
<path d="M2.70606 23.0454C11.5889 23.0454 20.4712 23.0454 29.3537 23.0454L29.4673 23.9564C20.4427 23.9564 11.4177 23.9564 2.39278 23.9564L2.70606 23.0454ZM36.8414 23.0454C44.699 23.0454 52.5281 23.0454 60.3573 23.0454C60.6705 23.3299 60.955 23.6435 61.211 23.9564C52.9265 23.9564 44.6421 23.9564 36.3281 23.9564L36.8414 23.0454ZM29.0977 21.1663L29.2113 22.0774H3.04814L3.36142 21.1663H29.0977ZM29.5816 24.9241L29.6952 25.8643C20.3854 25.8643 11.076 25.8643 1.76654 25.8643L2.07982 24.9241C11.2475 24.9241 20.4142 24.9241 29.5816 24.9241ZM29.8094 26.8035L29.923 27.743C23.0331 27.743 16.172 27.743 9.28238 27.743V27.7145H1.14062L1.42542 26.8035C10.9054 26.8035 20.3573 26.8035 29.8094 26.8035ZM30.0654 28.6825L30.1793 29.6223C27.2753 29.6223 24.3998 29.6223 21.4958 29.6223L21.3822 28.6825C24.2862 28.6825 27.1617 28.6825 30.0654 28.6825ZM30.2936 30.5612L30.4069 31.5011C27.5317 31.5011 24.6277 31.5011 21.7521 31.5011L21.6101 30.5612C24.5141 30.5612 27.4181 30.5612 30.2936 30.5612ZM30.5211 32.4115L30.6635 33.3516C27.7595 33.3516 24.8558 33.3516 21.98 33.3516L21.8664 32.4115C24.7416 32.4115 27.6456 32.4115 30.5211 32.4115ZM31.2331 33.3516L31.7457 32.4115C34.7633 32.4115 37.8094 32.4115 40.8846 32.4115L40.4005 33.3516C37.3541 33.3516 34.2789 33.3516 31.2331 33.3516ZM32.2296 31.5007L32.7422 30.5609C35.7595 30.5609 38.7771 30.5609 41.8235 30.5609L41.3681 31.5007C38.3217 31.5007 35.275 31.5007 32.2296 31.5007ZM33.2542 29.622L33.7669 28.6822C36.7563 28.6822 39.7739 28.6822 42.7627 28.6822L42.3073 29.622C39.2901 29.622 36.2725 29.622 33.2542 29.622ZM34.2789 27.7427L34.7915 26.8031C44.0731 26.8031 53.3537 26.8031 62.6353 26.8031C62.7489 27.1164 62.8059 27.4294 62.8347 27.7427C59.1336 27.7427 55.404 27.7427 51.7029 27.7427V27.7142H43.2469V27.7427C40.2581 27.7427 37.2686 27.7427 34.2789 27.7427ZM35.3035 25.8639L35.8168 24.9238C44.5 24.9238 53.1829 24.9238 61.8373 24.9238C62.0373 25.2374 62.1787 25.5503 62.3221 25.8639C53.3253 25.8639 44.3006 25.8639 35.3035 25.8639ZM37.3822 22.0771L37.8661 21.166H55.7454C56.9976 21.166 58.1371 21.5075 59.1048 22.0771H37.3822ZM62.9198 28.6825C62.9198 28.9958 62.8629 29.2803 62.8059 29.6223C59.532 29.6223 56.2577 29.6223 52.9553 29.6223C53.4107 29.4799 53.4107 28.8534 53.0123 28.6825C56.3147 28.6825 59.6174 28.6825 62.9198 28.6825ZM62.5499 30.5612C62.4353 30.8745 62.3221 31.1878 62.1515 31.5011C56.2008 31.5011 50.2219 31.5011 44.2437 31.5011L44.699 30.5612C50.6494 30.5612 56.5992 30.5612 62.5499 30.5612ZM61.6389 32.4115C61.4395 32.7535 61.211 33.0668 60.955 33.3516C55.0907 33.3516 49.1969 33.3516 43.3041 33.3516L43.7589 32.4115C49.7096 32.4115 55.6881 32.4115 61.6389 32.4115ZM60.0158 34.3193C59.4181 34.8316 58.7349 35.1734 58.0801 35.2303C53.5246 35.2303 48.9979 35.2303 44.443 35.2303L43.8453 34.3193C49.2539 34.3193 54.635 34.3193 60.0158 34.3193ZM55.603 36.1983C55.5176 36.4835 55.5176 36.7964 55.6315 37.1097C52.3006 37.1097 48.9697 37.1097 45.6382 37.1097L45.0689 36.1983C48.5707 36.1983 52.0728 36.1983 55.603 36.1983ZM56.2008 38.0771L56.7701 38.9884C53.4673 38.9884 50.1646 38.9884 46.8344 38.9884L46.2645 38.0771C49.5672 38.0771 52.8699 38.0771 56.2008 38.0771ZM57.396 39.9564L57.9653 40.8678C54.6635 40.8678 51.3608 40.8678 48.0584 40.8678L47.4606 39.9564C50.7633 39.9564 54.0651 39.9564 57.396 39.9564ZM58.5928 41.8351L59.1617 42.7459H49.2254L48.6565 41.8351H58.5928ZM39.9448 34.3193L39.4606 35.2303C33.7096 35.2303 27.9873 35.2303 22.2078 35.2303L22.0939 34.3193C28.0446 34.3193 33.9944 34.3193 39.9448 34.3193ZM39.0046 36.1983L38.5208 37.1097C33.1688 37.1097 27.8165 37.1097 22.4641 37.1097L22.3502 36.1983C27.9016 36.1983 33.4251 36.1983 39.0046 36.1983ZM38.0654 38.0771L37.5816 38.9884C32.628 38.9884 27.6741 38.9884 22.6917 38.9884L22.5781 38.0771C27.7313 38.0771 32.8843 38.0771 38.0654 38.0771ZM37.0977 39.9564L36.6424 40.8678C32.0587 40.8678 27.5032 40.8678 22.9198 40.8678L22.8059 39.9564C27.5886 39.9564 32.3435 39.9564 37.0977 39.9564ZM36.1582 41.8351L35.7307 42.7459H23.1761L23.0622 41.8351H36.1582ZM18.1653 28.6825L17.852 29.6223C14.7774 29.6223 11.7025 29.6223 8.62798 29.6223L8.94126 28.6825C12.0158 28.6825 15.0907 28.6825 18.1653 28.6825ZM17.5387 30.5612L17.2257 31.5011C14.1512 31.5011 11.0763 31.5011 8.00174 31.5011L8.31502 30.5612C11.3896 30.5612 14.4641 30.5612 17.5387 30.5612ZM16.8843 32.4115L16.571 33.3516C13.4965 33.3516 10.4213 33.3516 7.3467 33.3516L7.65999 32.4115C10.7345 32.4115 13.8094 32.4115 16.8843 32.4115ZM16.2581 34.3193L15.9448 35.2303C12.8705 35.2303 9.79534 35.2303 6.72078 35.2303L7.03406 34.3193C10.108 34.3193 13.1832 34.3193 16.2581 34.3193ZM15.603 36.1983L15.2897 37.1097C12.2152 37.1097 9.14031 37.1097 6.09422 37.1097L6.4075 36.1983C9.45358 36.1983 12.5281 36.1983 15.603 36.1983ZM14.9765 38.0771L14.6635 38.9884C11.5889 38.9884 8.51374 38.9884 5.4395 38.9884L5.75278 38.0771C8.82734 38.0771 11.9019 38.0771 14.9765 38.0771ZM14.3502 39.9564L14.0369 40.8678C10.9624 40.8678 7.8875 40.8678 4.81294 40.8678L5.12622 39.9564C8.20078 39.9564 11.2753 39.9564 14.3502 39.9564ZM13.6955 41.8351L13.3822 42.7459H4.1867L4.4715 41.8351H13.6955Z" fill="black"/>
</svg>
