<svg width="64" height="64" viewBox="0 0 64 64" fill="none" xmlns="http://www.w3.org/2000/svg">
<g clip-path="url(#clip0_10704_21838)">
<path fill-rule="evenodd" clip-rule="evenodd" d="M0.0898438 22.1149C0.0898438 22.1149 0.262378 21.5331 0.865572 21.7144L31.9011 31.0456L63.1405 21.6751C63.1405 21.6751 63.7248 21.4898 63.923 22.0961C62.8857 22.445 31.8917 33.0682 31.8917 33.0682L0.0898438 22.1149Z" fill="#DEE1E9"/>
<path fill-rule="evenodd" clip-rule="evenodd" d="M39.6496 28.7211C38.0786 25.5207 34.7304 23.3457 30.9141 23.3457C27.2942 23.3457 24.1559 25.2988 22.5 28.2339L23.1072 29.0985C24.5401 26.2493 27.4978 24.2935 30.9141 24.2935C34.5844 24.2935 37.7672 26.5152 39.0565 29.7129L39.6496 28.7211Z" fill="#97A0B2"/>
<path fill-rule="evenodd" clip-rule="evenodd" d="M38.6023 33.4475C38.358 37.4644 35.0108 40.6466 30.9179 40.6466C26.6658 40.6466 23.2189 37.2122 23.2189 32.9754C23.2189 32.8431 23.2222 32.7115 23.229 32.5809L22.305 31.4648C22.2162 31.9678 22.1716 32.4775 22.1719 32.9881C22.1719 37.8008 26.0876 41.7026 30.9179 41.7026C35.7478 41.7026 39.6638 37.8008 39.6638 32.9881C39.6638 32.6873 39.648 32.3902 39.6183 32.0974L38.6023 33.4475Z" fill="#DEE1E9"/>
<path fill-rule="evenodd" clip-rule="evenodd" d="M25.0279 35.4216C25.0279 35.4216 24.8105 34.7921 25.5128 34.4993C26.215 34.2069 26.5598 34.0796 26.5598 34.0796L31.8928 33.0684L25.0279 35.4216Z" fill="#DEE1E9"/>
<path fill-rule="evenodd" clip-rule="evenodd" d="M39.6443 32.1477L39.6214 32.1806C39.6449 32.4408 39.6588 32.7044 39.6588 32.9709C39.6588 37.7765 35.7484 41.6726 30.9252 41.6726C26.1021 41.6726 22.1921 37.7765 22.1921 32.9709C22.1921 32.4881 22.2335 32.0144 22.3093 31.5527L21.3031 31.8576C21.2582 32.2336 21.2352 32.6118 21.2344 32.9904C21.2344 38.3232 25.573 42.6459 30.9252 42.6459C36.2775 42.6459 40.6161 38.3232 40.6161 32.9904C40.6161 32.8585 40.6114 32.7282 40.6063 32.5976L39.6443 32.1477Z" fill="black"/>
<path fill-rule="evenodd" clip-rule="evenodd" d="M63.9488 22.0938L31.8949 33.0711L0.077268 22.1156C0.077268 22.1156 0.00144746 22.2962 9.95432e-05 22.412C-0.00158536 22.5279 0.0135788 22.8065 0.408182 22.9724C0.802786 23.1386 21.3144 31.8685 21.3144 31.8685L22.3153 31.5646L23.2433 32.6669L26.575 34.0848L31.8683 33.0805L25.0199 35.4257C25.0199 35.4257 25.1041 35.8139 25.6706 35.8542C26.237 35.8948 31.9694 36.3598 31.9694 36.3598L38.5894 33.5476L39.6259 32.1737L40.6008 32.6699C40.6008 32.6699 63.1714 23.1537 63.6735 22.9506C64.1759 22.7475 63.9488 22.0938 63.9488 22.0938Z" fill="black"/>
<path fill-rule="evenodd" clip-rule="evenodd" d="M24.4074 28.7839C25.7843 26.6683 28.1755 25.2689 30.8943 25.2689C33.8247 25.2689 36.3746 26.895 37.6841 29.2909L39.0526 29.7146C37.7488 26.5233 34.6041 24.2734 30.9327 24.2734C27.4996 24.2734 24.5274 26.2403 23.0898 29.1046L24.4074 28.7839Z" fill="black"/>
</g>
<defs>
<clipPath id="clip0_10704_21838">
<rect width="64" height="64" fill="white"/>
</clipPath>
</defs>
</svg>
