<svg width="64" height="64" viewBox="0 0 64 64" fill="none" xmlns="http://www.w3.org/2000/svg">
<g clip-path="url(#clip0_10704_21848)">
<path fill-rule="evenodd" clip-rule="evenodd" d="M44.4064 22.4033C44.4064 22.4033 44.3917 23.9527 43.8714 25.3619C43.3757 26.7035 42.2893 28.368 40.7773 29.7904C38.6191 31.8216 36.0938 33.6107 34.4867 34.5333C32.8796 35.456 30.2825 36.6797 29.2781 37.0094C28.3107 37.3266 25.9137 37.924 24.5245 37.6684C22.7272 37.3384 22.6499 36.0207 23.1856 34.2411C23.721 32.4617 26.9349 21.4551 26.9349 21.4551C14.6441 22.3441 5.58984 26.462 5.58984 31.4865C5.58984 37.1582 17.4366 41.7557 32.0511 41.7557C46.6649 41.7557 58.5123 37.1582 58.5123 31.4865C58.5119 27.5474 52.7954 24.1261 44.4064 22.4033ZM40.4585 36.6366C40.4585 36.6366 38.823 36.6282 38.1025 36.6521C37.4204 36.6747 37.9414 37.2293 39.0959 37.8812C39.748 38.2499 39.7479 38.819 39.6559 39.1844C39.5731 39.5103 38.8934 39.8986 38.1573 40.0303C37.4324 40.1602 35.4893 40.3337 34.4176 40.4C33.3465 40.4657 31.0638 40.467 29.7916 40.467C28.5194 40.467 26.4423 40.2663 25.1704 40.1347C24.021 40.0154 21.6018 39.6208 21.6018 39.6208L21.8877 38.5483C21.8877 38.5483 22.7679 38.7611 24.308 38.9588C25.8477 39.1564 27.3662 39.2302 29.7765 39.2521C31.7213 39.2699 33.5843 38.8093 34.3663 38.3281C35.0286 37.9203 35.033 37.3303 34.5674 37.0097C33.8713 36.5302 33.4409 36.4854 33.5631 36.0211C33.7242 35.4045 34.3916 35.2388 35.1698 35.2301C36.1742 35.2189 40.4608 35.226 40.4608 35.226L40.4585 36.6366Z" fill="#2D509F"/>
<path fill-rule="evenodd" clip-rule="evenodd" d="M31.9996 18.4141C14.3265 18.4141 0 24.2726 0 31.4997C0 38.7268 14.3265 44.5854 31.9996 44.5854C49.6726 44.5854 63.9994 38.7268 63.9994 31.4997C63.9994 24.2726 49.6726 18.4141 31.9996 18.4141ZM32.0019 43.3742C15.0476 43.3742 1.30368 38.0591 1.30368 31.5024C1.30368 25.3573 13.3963 20.3079 28.878 19.6977C28.563 20.7211 25.6347 30.765 25.059 32.6581C24.1997 35.484 25.057 35.9127 26.8857 34.6435C28.5236 33.5067 29.9036 32.2335 31.1803 30.6279C32.4836 28.9893 33.2772 27.3686 33.5239 26.2119C33.8013 24.9124 33.7062 23.2914 33.0303 21.7508C32.6694 20.9271 32.146 19.9301 31.991 19.6364C48.9512 19.6364 62.6999 24.9458 62.6999 31.5021C62.6999 38.0584 48.9563 43.3742 32.0019 43.3742Z" fill="#2D509F"/>
</g>
<defs>
<clipPath id="clip0_10704_21848">
<rect width="64" height="64" fill="white"/>
</clipPath>
</defs>
</svg>
