<svg width="64" height="64" viewBox="0 0 64 64" fill="none" xmlns="http://www.w3.org/2000/svg">
<g clip-path="url(#clip0_11467_10858)">
<path d="M9.36028 9.12891H54.6651L64 21.2795L63.7971 21.4825L63.0614 22.2181L62.3512 23.0552L61.6663 23.9176L60.9814 24.8055L60.2965 25.7187L59.6369 26.708L59.0028 27.6973L58.4193 28.7373L57.8105 29.8027L57.2525 30.8935L56.7198 32.0096L56.1617 33.1511L55.6797 34.318L55.1978 35.4595L54.7919 36.6263L54.3861 37.8186L54.0056 39.0362L53.6758 40.2284L53.346 41.4206L53.067 42.6129L52.8387 43.8051L52.6357 45.0227L52.5089 46.1895L52.3567 47.331L52.2806 48.4979V49.6394V50.7555L52.3567 51.8463L52.5089 52.9117L52.6611 53.9771L52.7372 54.3069L31.6068 64.2506L10.2228 53.9771L10.2988 53.6981L10.5018 52.6834L10.6286 51.6687L10.7047 50.6033L10.7808 49.4872V48.3711L10.7301 47.2803L10.6793 46.1134L10.5272 44.9466L10.3496 43.7797L10.1974 42.6129L9.94372 41.446L9.66468 40.2538L9.41102 39.0869L9.05589 37.8947L8.67539 36.7278L8.32026 35.5609L7.86365 34.3941L7.40705 33.2779L6.92509 32.1618L6.46849 31.071L5.91043 30.0056L5.35236 28.9402L4.79429 27.9256L4.21086 26.9109L3.60206 25.9723L2.94253 25.0338L2.283 24.1713L1.5981 23.3342L0.913198 22.5479L0.202932 21.7869L0 21.6093L9.36028 9.12891Z" fill="#2D2A27"/>
<path d="M19.634 2V12.933L18.7969 13.4911L18.8222 2.17757L19.634 2Z" fill="#4E5356"/>
<path d="M20.4738 2.17757V13.4911L19.6367 12.933V2L20.4738 2.17757Z" fill="#4E5356"/>
<path d="M27.7512 2V12.933L26.9141 13.4911L26.9394 2.17757L27.7512 2Z" fill="#4E5356"/>
<path d="M28.591 2.17757V13.4911L27.7539 12.933V2L28.591 2.17757Z" fill="#4E5356"/>
<path d="M35.8449 2V12.933L35.0078 13.4911L35.0332 2.17757L35.8449 2Z" fill="#4E5356"/>
<path d="M36.6808 2.17757V13.4911L35.8438 12.933V2L36.6808 2.17757Z" fill="#4E5356"/>
<path d="M43.9601 2V12.933L43.0977 13.4911L43.123 2.17757L43.9601 2Z" fill="#4E5356"/>
<path d="M44.798 2.17757V13.4911L43.9609 12.933V2L44.798 2.17757Z" fill="#4E5356"/>
<path d="M0.964844 21.7096L9.71633 10.0156L11.5681 13.6431H11.5174L5.50547 21.7096H0.964844Z" fill="#C7CBCC"/>
<path d="M31.6077 63.7425L11.2383 53.951L14.7389 51.6934L31.6077 59.6077V63.7425Z" fill="url(#paint0_linear_11467_10858)"/>
<path d="M52.1544 54.1034L31.6328 63.7427V59.6333L31.6582 59.6841L48.7045 51.9219L52.1544 54.1034Z" fill="url(#paint1_linear_11467_10858)"/>
<path d="M54.4885 9.96484L63.0624 21.6335L58.6993 21.6081L52.6367 13.643L54.4885 9.96484Z" fill="#4E5356"/>
<path d="M54.5161 10.0156L52.6136 13.8714H11.5958L9.61719 10.0156H54.5161Z" fill="url(#paint2_linear_11467_10858)"/>
<path d="M11.3889 13.668H52.7111L58.5962 21.4302H58.444V21.7346H58.5962L57.6069 22.8761L57.0742 23.4849L56.5922 24.1698L56.1356 24.88L55.6537 25.641L55.1717 26.4274L54.6897 27.2391L54.2331 28.1016L53.8019 28.9894L53.3453 29.928L52.9141 30.8665L52.5082 31.8305L52.1277 32.8198L51.7472 33.8091L51.3667 34.7984L51.0369 35.8384L50.6818 36.8531L50.3774 37.9185L50.0984 38.9585L49.8447 39.9732L49.591 40.9878L49.3881 42.0279L49.1852 43.0172L49.0076 44.0065L48.8808 44.9704L48.7286 45.9343L48.6779 46.8729L48.6018 47.7607L48.5764 48.6232V49.4856L48.6018 50.272L48.7032 51.8701L31.7076 59.6069L14.6105 51.5911L14.7373 50.0183L14.7627 49.232V48.4202V47.5578L14.7373 46.6699L14.6612 45.7567L14.5597 44.7928L14.4583 43.8289L14.2807 42.8396L14.1285 41.8503L13.9509 40.8103L13.748 39.7956L13.4943 38.7809L13.2153 37.7409L12.9616 36.7262L12.6826 35.6862L12.3528 34.6715L12.0231 33.6315L11.6933 32.6422L11.3128 31.6783L10.9323 30.7397L10.5265 29.7758L10.146 28.8626L9.71472 27.9747L9.28348 27.1123L8.85225 26.2752L8.39565 25.4888L7.96442 24.7786L7.48246 24.0683L7.02585 23.4088L6.56925 22.8253L5.45312 21.557L11.3889 13.668Z" fill="#E9EBEB"/>
<path d="M48.4529 40.8114C47.5905 44.6164 47.2353 48.2692 47.489 51.1356L31.6856 58.3143L15.8061 50.8819C16.1105 48.117 15.8314 44.5149 15.1212 40.786H48.4783V40.8114H48.4529ZM11.925 14.8359H52.1311L57.2298 21.5327C53.7038 25.3885 50.4569 32.694 48.7066 39.6952H14.8421C13.3709 32.694 10.3776 25.287 6.95312 21.482L11.925 14.8359Z" fill="#081A58"/>
<path d="M11.1876 53.9265L11.0861 53.8504L11.1115 53.825L11.3144 52.785L11.4666 51.745L11.5174 50.6542L11.5935 49.5634V48.4219L11.5681 47.2804L11.492 46.1389L11.3398 44.9721L11.1876 43.8052L11.01 42.613L10.7817 41.4461L10.5027 40.2539L10.1729 39.0363L9.8939 37.8948L9.5134 36.6772L9.10753 35.5357L8.6763 34.3688L8.24507 33.2273L7.7631 32.1112L7.25577 30.9697L6.6977 29.9297L6.13964 28.8643L5.58157 27.8242L4.94741 26.8096L4.3386 25.8456L3.67907 24.9324L3.04491 24.0446L2.36001 23.1822L1.64974 22.3958L0.964844 21.6602H5.7084L6.79917 22.9285L7.28113 23.5119L7.71237 24.1715L8.16897 24.8563L8.6002 25.6173L9.0568 26.353L9.5134 27.1901L9.91926 28.0272L10.3505 28.915L10.731 29.8028L11.1369 30.7668L11.5174 31.7307L11.8725 32.6946L12.2023 33.6839L12.532 34.6986L12.8618 35.6879L13.1662 36.7279L13.4452 37.7426L13.6735 38.7826L13.9272 39.7973L14.1301 40.812L14.3331 41.8266L14.4853 42.8159L14.6375 43.8052L14.7389 44.7691L14.8404 45.6824L14.9165 46.5956L14.9419 47.5087L14.9672 48.3458L14.9419 49.1829L14.9165 49.9186L14.7643 51.5928L11.1876 53.9265Z" fill="url(#paint3_linear_11467_10858)"/>
<path d="M62.9864 21.6348L62.6059 22.0406L61.8449 22.8777L61.16 23.7148L60.4243 24.6534L59.7902 25.5666L59.1053 26.5559L58.4965 27.5959L57.8877 28.6106L57.2535 29.676L56.7208 30.8175L56.1374 31.9082L55.6301 33.0751L55.1227 34.2166L54.6661 35.3835L54.2095 36.5757L53.8037 37.7933L53.4232 38.9855L53.068 40.1778L52.7636 41.37L52.51 42.613L52.2563 43.8052L52.0534 44.9974L51.9265 46.1897L51.7743 47.3565L51.7236 48.5234L51.6729 49.6903L51.7236 50.8064L51.7743 51.9225L51.9265 53.0133L52.1041 54.0533L48.705 51.9225L48.5781 50.1976V49.3859V48.5488L48.6035 47.7117L48.6289 46.8238L48.7303 45.8853L48.8318 44.9213L48.984 43.9828L49.1362 42.9935L49.3645 41.9788L49.5928 40.9641L49.8465 39.9241L50.0748 38.9094L50.3792 37.8948L50.6836 36.8547L50.988 35.8401L51.3431 34.8254L51.7236 33.8107L52.1041 32.8214L52.4592 31.8575L52.8905 30.8936L53.3217 29.955L53.7276 29.0165L54.1842 28.1286L54.6661 27.2915L55.0974 26.4544L55.5793 25.6681L56.0613 24.9578L56.5433 24.2475L57.0252 23.588L57.5072 22.9792L58.674 21.6348H62.9864Z" fill="url(#paint4_linear_11467_10858)"/>
<path d="M21.436 28.9889C21.436 28.9889 22.8312 28.9889 23.0848 29.1157C23.3385 29.2426 23.4653 29.3694 23.7951 29.3694C24.1756 29.3694 24.3278 29.3948 24.1756 29.7245C24.0234 30.0543 23.516 30.6885 23.516 30.6885L21.2838 29.4709C21.0301 29.2172 21.2331 29.065 21.436 28.9889ZM37.7214 24.778C35.0832 24.8034 33.3329 24.9049 30.7202 24.981C30.7202 24.981 28.7669 24.8541 29.5787 23.3829C30.3904 21.9116 30.7455 21.5565 30.7455 21.5565C30.7455 21.5565 31.7095 20.415 31.6587 20.1867C31.6334 19.933 31.6587 19.7555 32.0392 19.8316C32.4197 19.933 33.891 19.8062 33.891 19.8062C33.891 19.8062 34.3222 19.4511 34.0178 19.375C33.891 19.3496 33.6373 19.2735 33.4344 19.2481C33.2315 19.2228 33.0539 19.172 33.0539 19.172C32.9271 19.1467 32.7749 19.0706 32.6734 19.0452C32.3944 19.0706 32.1661 19.1213 31.887 19.1467C31.887 19.1467 31.5319 19.172 31.5065 18.7915C31.4812 18.411 30.9738 18.0052 31.4051 18.0813C31.8363 18.1066 32.2929 18.4364 32.6988 18.4364C33.13 18.4364 35.9457 18.4618 36.4277 18.4364C36.9096 18.411 40.4863 16.6861 40.461 16.1027C40.4356 15.5192 40.258 15.4939 39.9283 15.6207C39.5985 15.7729 38.8629 16.889 38.5331 17.1681C38.178 17.4725 37.0618 17.8783 36.5799 17.853C36.0979 17.8276 35.5398 17.3203 35.3115 17.3203C35.0579 17.3203 35.4384 17.3203 34.4998 17.7008C33.5359 18.0813 31.8363 17.8276 31.8363 17.8276C31.8363 17.8276 30.9485 17.1427 30.6948 17.1427C30.086 17.4471 27.6254 16.9651 27.8284 16.7876C27.8284 16.7876 27.3464 17.0412 27.9298 17.1427C28.3611 17.3456 30.0353 17.8276 30.2128 17.7261C30.2128 17.7261 30.6441 17.8276 30.4158 18.0305C30.1621 18.2335 28.3357 18.4618 28.3357 18.4618C28.2089 18.5379 28.0567 18.5886 27.9552 18.6647C27.9552 18.6647 26.3571 18.6901 26.4078 19.0959C26.4078 19.5018 26.5093 19.7047 26.9405 19.6286C27.1181 19.6286 28.1328 19.933 28.2089 19.933C28.2089 19.933 28.4625 20.1867 28.1835 20.5418C27.8791 20.9223 25.7229 22.8756 25.7229 22.8756C25.7229 22.8756 24.0234 24.9302 24.0741 25.26C24.0995 25.6151 23.2878 25.8688 23.3892 26.3C23.2117 26.6805 23.3131 27.9742 23.516 27.9742C22.476 27.9742 21.436 27.9742 20.396 27.9742C20.396 27.9742 19.3559 28.2533 19.7872 28.7606C19.914 29.3694 20.3199 29.6231 20.4721 29.5723C21.2584 30.105 22.0448 30.6377 22.8565 31.1704C22.0702 32.2358 21.3092 33.2505 20.5228 34.3159C19.7111 35.2037 18.6964 35.9647 17.7578 36.7004C17.7578 36.7004 15.5763 38.5268 15.8807 38.679C16.1851 38.8058 17.5803 38.3746 17.5803 38.3746C17.5803 38.3746 17.2759 38.3999 17.9354 37.5628C18.5442 36.7004 18.8993 36.7004 18.8993 36.7004C19.3052 36.3452 19.7111 36.0155 20.0916 35.6603C20.7004 34.9501 21.3599 34.2144 21.9687 33.5549C21.9687 33.5549 22.2224 33.2505 22.4507 33.1998C22.7043 33.1744 23.3385 31.8046 23.6175 31.8046C23.9219 31.8046 25.4439 32.7178 25.4439 32.7178C25.4439 32.7178 27.321 32.7178 27.4986 32.4134C27.6254 32.109 26.6869 31.5256 26.6869 31.5256C26.6869 31.5256 26.3064 32.109 25.9766 32.0075C25.6215 31.9061 24.4292 31.2212 24.4292 31.2212C24.9619 30.7392 25.52 30.2572 26.0781 29.7499C26.0781 29.7499 27.2196 30.1304 27.5493 30.1304C27.9045 30.1304 31.1007 29.547 31.5065 29.547C31.9378 29.547 34.9564 29.547 34.9564 29.547C34.9564 29.547 36.2247 30.9168 36.3262 31.2973C36.4277 31.6778 36.3516 32.0836 36.1233 32.3373C35.9964 32.4641 35.5145 33.0476 34.931 33.5295C34.0432 34.3159 33.2822 35.0008 32.5719 35.6857C31.608 35.7872 29.9592 38.8565 30.1367 38.7297C30.0099 38.6282 31.6841 38.2985 31.6841 38.2985C31.6841 37.715 31.887 37.157 32.2168 36.6496C32.3944 36.396 32.8002 36.4467 32.9778 36.1677C33.7642 34.8993 34.931 33.91 36.0472 33.5042C36.0472 33.5042 38.1272 32.3627 38.0004 32.109C37.8736 31.8046 37.0872 30.1558 37.7467 30.3333C38.3555 29.9528 42.0337 31.6017 42.0844 31.9314C42.9723 33.149 43.8601 34.392 44.7479 35.6096C45.3314 37.2584 46.5236 38.476 48.35 39.4146C48.2231 39.0341 48.0709 38.6282 47.9695 38.2477C47.9695 38.2477 47.9948 37.5375 47.5636 37.4614C45.9655 37.2077 46.4728 37.1823 46.067 36.0155C45.103 34.874 43.9869 33.2505 43.6318 32.109C43.6318 32.109 43.8347 31.6778 43.6064 31.3987C43.3528 31.0943 42.9215 30.9168 42.6932 30.8153C42.4396 30.7138 41.5517 30.0289 41.4249 29.6738C41.2981 29.3187 40.1312 26.0717 40.5117 25.9449C40.8922 25.8181 40.9429 25.8688 40.9429 25.8688C41.0444 25.6151 37.8989 24.4483 37.7214 24.778Z" fill="white"/>
<path d="M38.9141 17.1178L38.9394 17.0925C39.1931 16.6612 40.3092 15.951 40.2585 16.0271V15.951V15.8749V15.7988V15.7734V15.748H40.2331H40.2078H40.1824L40.157 15.7734H40.1317H40.1063L40.0809 15.7988L40.0556 15.8241L40.0302 15.8495L40.0048 15.8749L39.9795 15.9002L39.9541 15.9256L39.9287 15.951C39.6497 16.2554 39.4214 16.5598 39.1424 16.9149L39.117 16.991L38.9141 17.1178Z" fill="white"/>
<path d="M35.3603 17.5239C35.3349 17.5239 35.2842 17.5493 35.2842 17.6C34.3964 18.1835 33.2295 18.1835 32.2148 18.1074C32.2148 18.1074 33.2549 18.2342 33.4324 18.2342C34.4978 18.2342 35.4364 17.5493 36.4003 18.1581C36.172 17.9044 35.6647 17.3971 35.3603 17.5239Z" fill="white"/>
<path d="M12.2539 12.9331V4.10547C12.2539 4.10547 15.0189 5.42453 15.374 5.93186C15.374 5.93186 18.0121 4.10547 18.8746 4.10547V12.9331L18.4434 13.3643H12.8373L12.2539 12.9331Z" fill="url(#paint5_linear_11467_10858)"/>
<path d="M12.5583 4.28306V12.9077V13.2121L12.2539 12.9331V4.13086L12.5583 4.28306Z" fill="#7C7C7C"/>
<path d="M18.8218 4.13086V12.9331L18.3652 13.415L18.3398 4.23233L18.8218 4.13086Z" fill="white"/>
<path d="M18.8238 2.17743V4.13066C18.8238 4.13066 18.4433 3.92772 15.3232 5.95705C15.3232 5.95705 15.1964 5.57655 12.2031 4.13066V2.17743C12.2031 2.17743 14.4608 2.30426 15.3232 3.44576C15.3232 3.44576 17.0989 2.02523 18.8238 2.17743Z" fill="#B2BBC4"/>
<path d="M15.3242 5.93116C15.3242 5.93116 16.1106 3.06473 16.8716 2.53203C16.8716 2.53203 17.7848 2.12617 18.7994 2.15153V4.10477C18.8248 4.13013 17.3282 4.56136 15.3242 5.93116Z" fill="#2A2E39"/>
<path d="M15.3242 3.44643C15.3242 3.44643 16.0852 2.86299 16.8716 2.55859C16.8716 2.55859 16.1867 3.04056 15.3242 5.95772V3.44643Z" fill="#CDDBE2"/>
<path d="M20.4453 12.9331V4.10547C20.4453 4.10547 23.2103 5.42453 23.5654 5.93186C23.5654 5.93186 26.2035 4.10547 27.066 4.10547V12.9331L26.6348 13.3643H21.0541L20.4453 12.9331Z" fill="url(#paint6_linear_11467_10858)"/>
<path d="M20.7497 4.28306V12.9077V13.2121L20.4453 12.9331V4.13086L20.7497 4.28306Z" fill="#7C7C7C"/>
<path d="M27.0659 4.13086V12.9331L26.5586 13.415V4.23233L27.0659 4.13086Z" fill="white"/>
<path d="M27.066 2.17743V4.13066C27.066 4.13066 26.6855 3.92772 23.5654 5.95705C23.5654 5.95705 23.4386 5.57655 20.4453 4.13066V2.17743C20.4453 2.17743 22.7029 2.30426 23.5654 3.44576C23.5654 3.44576 25.3411 2.02523 27.066 2.17743Z" fill="#B2BBC4"/>
<path d="M23.5664 5.93116C23.5664 5.93116 24.3528 3.06473 25.1138 2.53203C25.1138 2.53203 26.027 2.12617 27.0416 2.15153V4.10477C27.067 4.13013 25.545 4.56136 23.5664 5.93116Z" fill="#2A2E39"/>
<path d="M23.5664 3.44643C23.5664 3.44643 24.3274 2.86299 25.1138 2.55859C25.1138 2.55859 24.4289 3.04056 23.5664 5.95772V3.44643Z" fill="#CDDBE2"/>
<path d="M28.5117 12.9838V4.13086C28.5117 4.13086 31.2767 5.44992 31.6318 5.95726C31.6318 5.95726 34.2699 4.13086 35.1324 4.13086V12.9584L34.7012 13.3897H29.0952L28.5117 12.9838Z" fill="url(#paint7_linear_11467_10858)"/>
<path d="M28.8161 4.28306V12.9077V13.2121L28.5117 12.9838V4.13086L28.8161 4.28306Z" fill="#7C7C7C"/>
<path d="M35.0582 4.13086V12.9838L34.6269 13.415L34.6016 4.25769L35.0582 4.13086Z" fill="white"/>
<path d="M35.0582 2.20286V4.13072C35.0582 4.13072 34.6777 3.92778 31.5576 5.95711C31.5576 5.95711 31.4308 5.57661 28.4375 4.13072V2.20286C28.4375 2.20286 30.6951 2.32969 31.5576 3.47119C31.583 3.44582 33.3586 2.02529 35.0582 2.20286Z" fill="#B2BBC4"/>
<path d="M31.582 5.95655C31.582 5.95655 32.3684 3.09012 33.1294 2.55742C33.1294 2.55742 34.0426 2.15156 35.0573 2.17692V4.10479C35.0573 4.13015 33.5606 4.61212 31.582 5.95655Z" fill="#2A2E39"/>
<path d="M31.582 3.44643C31.582 3.44643 32.343 2.86299 33.1294 2.55859C33.1294 2.55859 32.4445 3.04056 31.582 5.95772V3.44643Z" fill="#CDDBE2"/>
<path d="M36.5547 12.9331V4.10547C36.5547 4.10547 39.3197 5.42453 39.6748 5.93186C39.6748 5.93186 42.3129 4.10547 43.1754 4.10547V12.9331L42.7441 13.3643H37.1635L36.5547 12.9331Z" fill="url(#paint8_linear_11467_10858)"/>
<path d="M36.8591 4.28306V12.9077V13.2121L36.5547 12.9331V4.13086L36.8591 4.28306Z" fill="#7C7C7C"/>
<path d="M43.1226 4.13086V12.9331L42.666 13.415L42.6406 4.23233L43.1226 4.13086Z" fill="white"/>
<path d="M43.1246 2.17743V4.13066C43.1246 4.13066 42.7441 3.92772 39.624 5.95705C39.624 5.95705 39.4972 5.57655 36.5039 4.13066V2.17743C36.5039 2.17743 38.7615 2.30426 39.624 3.44576C39.6747 3.44576 41.4504 2.02523 43.1246 2.17743Z" fill="#B2BBC4"/>
<path d="M39.6758 5.93116C39.6758 5.93116 40.4621 3.06473 41.2231 2.53203C41.2231 2.53203 42.1363 2.12617 43.151 2.15153V4.10477C43.1764 4.13013 41.6797 4.56136 39.6758 5.93116Z" fill="#2A2E39"/>
<path d="M39.6758 3.44643C39.6758 3.44643 40.4368 2.86299 41.2231 2.55859C41.2231 2.55859 40.5382 3.04056 39.6758 5.95772V3.44643Z" fill="#CDDBE2"/>
<path d="M44.7969 12.9076V4.05469C44.7969 4.05469 47.5618 5.37376 47.917 5.88109C47.917 5.88109 50.5551 4.05469 51.4176 4.05469V12.8823L50.9863 13.3135H45.4057L44.7969 12.9076Z" fill="url(#paint9_linear_11467_10858)"/>
<path d="M45.1013 4.23226V12.8569V13.1613L44.7969 12.9076V4.05469L45.1013 4.23226Z" fill="#7C7C7C"/>
<path d="M51.3687 4.05469V12.9076L50.9375 13.3642V4.18152L51.3687 4.05469Z" fill="white"/>
<path d="M51.3668 2.12684V4.08007C51.3668 4.08007 50.9863 3.87713 47.8662 5.90646C47.8662 5.90646 47.7394 5.52596 44.7461 4.08007V2.12684C44.7461 2.12684 47.0037 2.25367 47.8662 3.39517C47.9169 3.3698 49.6926 1.97464 51.3668 2.12684Z" fill="#B2BBC4"/>
<path d="M47.918 5.90772C47.918 5.90772 48.7043 3.04129 49.4653 2.50859C49.4653 2.50859 50.3785 2.10273 51.3932 2.12809V4.08132C51.3678 4.05596 49.8712 4.53792 47.918 5.90772Z" fill="#2A2E39"/>
<path d="M47.918 3.37025C47.918 3.37025 48.679 2.78682 49.4653 2.48242C49.4653 2.48242 48.7804 2.96439 47.918 5.88155V3.37025Z" fill="#CDDBE2"/>
<path d="M27.7764 45.6822V44.1602H19.2532C19.2532 44.1602 18.4922 44.6421 18.4922 45.1241V49.5632C18.4922 49.5632 18.6698 50.4511 19.2025 50.7555H29.0193V49.4364H27.8017V47.052H23.6162V49.0559H22.5255V45.7329L27.7764 45.6822Z" fill="white"/>
<path d="M27.625 50.7555H28.9948L29.1977 49.8169H31.2271L31.5568 50.7555H36.4272L34.2711 44.1348H29.2231L27.625 50.7555Z" fill="white"/>
<path d="M29.4258 48.7008L30.136 46.2148L30.9985 48.7008H29.4258Z" fill="#00275A"/>
<path d="M35.9714 45.7075V44.1348H43.9618V44.8958L40.7403 48.853H44.0633V50.7555H34.6016L38.4066 45.7075H35.9714Z" fill="white"/>
</g>
<defs>
<linearGradient id="paint0_linear_11467_10858" x1="11.246" y1="57.7207" x2="31.5981" y2="57.7207" gradientUnits="userSpaceOnUse">
<stop stop-color="#4D4D4D"/>
<stop offset="1" stop-color="white"/>
</linearGradient>
<linearGradient id="paint1_linear_11467_10858" x1="31.6311" y1="57.8262" x2="52.1604" y2="57.8262" gradientUnits="userSpaceOnUse">
<stop stop-color="#4D4D4D"/>
<stop offset="1" stop-color="white"/>
</linearGradient>
<linearGradient id="paint2_linear_11467_10858" x1="32.0658" y1="13.8752" x2="32.0658" y2="10.0087" gradientUnits="userSpaceOnUse">
<stop stop-color="#999999"/>
<stop offset="1" stop-color="#4D4D4D"/>
</linearGradient>
<linearGradient id="paint3_linear_11467_10858" x1="0.953632" y1="37.796" x2="14.9797" y2="37.796" gradientUnits="userSpaceOnUse">
<stop stop-color="#4D4D4D"/>
<stop offset="1" stop-color="white"/>
</linearGradient>
<linearGradient id="paint4_linear_11467_10858" x1="48.5713" y1="37.8458" x2="62.974" y2="37.8458" gradientUnits="userSpaceOnUse">
<stop stop-color="#4D4D4D"/>
<stop offset="1" stop-color="white"/>
</linearGradient>
<linearGradient id="paint5_linear_11467_10858" x1="12.2353" y1="8.75147" x2="18.82" y2="8.75147" gradientUnits="userSpaceOnUse">
<stop stop-color="white"/>
<stop offset="0.1331" stop-color="white"/>
<stop offset="1" stop-color="#999999"/>
</linearGradient>
<linearGradient id="paint6_linear_11467_10858" x1="20.4516" y1="8.75147" x2="27.0363" y2="8.75147" gradientUnits="userSpaceOnUse">
<stop stop-color="white"/>
<stop offset="0.1331" stop-color="white"/>
<stop offset="1" stop-color="#999999"/>
</linearGradient>
<linearGradient id="paint7_linear_11467_10858" x1="28.4848" y1="8.75149" x2="35.0695" y2="8.75149" gradientUnits="userSpaceOnUse">
<stop stop-color="white"/>
<stop offset="0.1331" stop-color="white"/>
<stop offset="1" stop-color="#999999"/>
</linearGradient>
<linearGradient id="paint8_linear_11467_10858" x1="36.5434" y1="8.75147" x2="43.1281" y2="8.75147" gradientUnits="userSpaceOnUse">
<stop stop-color="white"/>
<stop offset="0.1331" stop-color="white"/>
<stop offset="1" stop-color="#999999"/>
</linearGradient>
<linearGradient id="paint9_linear_11467_10858" x1="44.7952" y1="8.68496" x2="51.3799" y2="8.68496" gradientUnits="userSpaceOnUse">
<stop stop-color="white"/>
<stop offset="0.1331" stop-color="white"/>
<stop offset="1" stop-color="#999999"/>
</linearGradient>
<clipPath id="clip0_11467_10858">
<rect width="64" height="64" fill="white"/>
</clipPath>
</defs>
</svg>
