<svg width="64" height="64" viewBox="0 0 64 64" fill="none" xmlns="http://www.w3.org/2000/svg">
<path fill-rule="evenodd" clip-rule="evenodd" d="M32.0132 0C49.6328 0 64 14.368 64 32.013C64 49.6057 49.6324 64 32.0132 64C14.394 64 8.31142e-09 49.6057 8.31142e-09 32.013C-0.000399393 14.3676 14.394 0 32.0132 0Z" fill="#295CA7"/>
<path fill-rule="evenodd" clip-rule="evenodd" d="M32.0128 4.06445C47.3769 4.06445 59.9365 16.6231 59.9365 32.014C59.9365 47.3784 47.3773 59.9107 32.0128 59.9107C16.6482 59.9107 4.08984 47.378 4.08984 32.0136C4.08984 16.6231 16.6482 4.06445 32.0128 4.06445ZM13.3184 16.9902L23.3342 42.973L27.0047 33.4817H36.627L40.2971 42.973L50.4179 16.6755C48.6321 14.5209 46.485 12.6934 44.0727 11.2748L37.0464 30.624H27.1353L20.0831 11.1957C17.4873 12.6903 15.2064 14.6569 13.3184 16.9902ZM54.4563 23.5188L43.0506 53.2771C50.7071 49.2656 55.9764 41.2429 55.9764 32.014C55.9764 29.0249 55.4524 26.1668 54.4563 23.5188ZM38.0689 55.217L37.991 54.6139L31.8027 38.5681L25.6152 54.6139L25.5892 55.1124C27.6341 55.6887 29.7841 55.9775 32.0128 55.9775C34.11 55.9775 36.129 55.7155 38.0689 55.217ZM20.5024 53.0147L9.3859 24.0432C8.49444 26.5338 8.02235 29.2082 8.02235 32.0136C8.02235 41.0328 13.0564 48.9504 20.5024 53.0147ZM32.0128 8.02329C34.11 8.02329 36.1813 8.28569 38.148 8.80971L32.0914 25.5637L26.0086 8.78374C27.9696 8.27635 29.9872 8.02081 32.0128 8.02329Z" fill="white"/>
</svg>
