<svg xmlns="http://www.w3.org/2000/svg"  viewBox="0 0 100 100" width="50px" height="50px"><path fill="#3070b7" d="M50,15c-19.33,0-35,15.67-35,35s15.67,35,35,35s35-15.67,35-35S69.33,15,50,15z"/><path fill="#e3e2e3" d="M50,20.5c-16.292,0-29.5,13.208-29.5,29.5c0,16.292,13.208,29.5,29.5,29.5 c16.292,0,29.5-13.208,29.5-29.5C79.5,33.708,66.292,20.5,50,20.5z M50,24.5c2.59,0,5.09,0.39,7.44,1.11L50,40.5l-7.44-14.89 C44.91,24.89,47.41,24.5,50,24.5z M24.5,50c0-1.56,0.073-2.139,0.353-3.619L37,71.5C28.94,67.23,24.5,59.77,24.5,50z M50,75 c-3.16,0-6-0.5-8.5-1.5l8.5-15l8.97,15.37C56.18,74.93,53.16,75,50,75z M54.5,51.5h-9l-5.5,10L28.4,36.45 c2.03-3.23,4.77-5.98,8-8.02l9.1,19.07h9l9-18.5c3.24,2.04,5.341,4.207,7.54,7.491L60,60.5L54.5,51.5z M61.96,72.52l13.13-27.07 c0.27,1.47,0.41,3,0.41,4.55C75.5,59.76,70.01,68.24,61.96,72.52z"/><circle cx="50" cy="50" r="29.5" fill="none" stroke="#1f212b" stroke-linecap="round" stroke-linejoin="round" stroke-miterlimit="10"/><path fill="none" stroke="#1f212b" stroke-linecap="round" stroke-linejoin="round" stroke-miterlimit="10" d="M70.974,35.5 c0.215,0.312,0.424,0.629,0.626,0.95l-1.412,3.05"/><path fill="none" stroke="#1f212b" stroke-linecap="round" stroke-linejoin="round" stroke-miterlimit="10" d="M66,48.543L60,61.5 l-5.5-10h-9l-5.5,10L28.4,36.45c2.03-3.23,4.77-5.98,8-8.02l9.1,19.07h9l9.08-19.08c1.805,1.137,3.459,2.494,4.92,4.034"/><line x1="68.335" x2="67.409" y1="43.5" y2="45.5" fill="none" stroke="#1f212b" stroke-linecap="round" stroke-linejoin="round" stroke-miterlimit="10"/><path fill="none" stroke="#1f212b" stroke-linecap="round" stroke-linejoin="round" stroke-miterlimit="10" d="M43.5,74.663 c-0.841-0.222-1.665-0.487-2.47-0.793L50,58.5l8.97,15.37c-2.79,1.06-5.81,1.63-8.97,1.63c-1.188,0-2.356-0.081-3.5-0.237"/><g><path fill="none" stroke="#1f212b" stroke-linecap="round" stroke-linejoin="round" stroke-miterlimit="10" d="M31.26,58.5 l6.8,14.03C30,68.26,24.5,59.77,24.5,50c0-1.56,0.14-3.1,0.42-4.58l1.978,4.08"/><line x1="28.352" x2="29.806" y1="52.5" y2="55.5" fill="none" stroke="#1f212b" stroke-linecap="round" stroke-linejoin="round" stroke-miterlimit="10"/><path fill="none" stroke="#1f212b" stroke-linecap="round" stroke-linejoin="round" stroke-miterlimit="10" d="M50,40.5 l-7.44-14.89c2.35-0.72,4.85-1.11,7.44-1.11c2.59,0,5.09,0.39,7.44,1.11L50,40.5z"/><path fill="none" stroke="#1f212b" stroke-linecap="round" stroke-linejoin="round" stroke-miterlimit="10" d="M75.5,50 c0,9.76-5.49,18.24-13.54,22.52l13.13-27.07C75.36,46.92,75.5,48.45,75.5,50z"/></g><circle cx="50" cy="50" r="35" fill="none" stroke="#1f212b" stroke-miterlimit="10" stroke-width="2"/></svg>