<svg width="64" height="64" viewBox="0 0 64 64" fill="none" xmlns="http://www.w3.org/2000/svg">
<g clip-path="url(#clip0_10704_21867)">
<path d="M57.664 12.8L59.2 11.264C60.288 12.672 61.184 14.208 62.144 15.808H63.36V0.704H48.192V1.92C49.792 2.752 51.2 3.712 52.608 4.864L51.072 6.4C45.76 2.304 39.168 0 32 0C14.272 0 0 14.272 0 32C0 49.728 14.272 64 32 64C49.728 64 64 49.728 64 32C64 24.768 61.568 18.112 57.664 12.8ZM55.36 37.76C52.736 48.192 43.264 56.064 32 56.064C20.736 56.064 11.2 48.32 8.64 37.76H55.36ZM8.576 26.176C11.2 15.68 20.672 7.872 31.936 7.872C43.2 7.872 52.736 15.616 55.296 26.176H8.576ZM49.088 31.872C49.088 30.784 49.664 29.76 50.624 29.76C51.52 29.76 52.032 30.784 52.032 32C52.032 33.088 51.52 34.24 50.496 34.24C49.472 34.112 49.088 33.024 49.088 31.872ZM22.528 31.872C22.528 30.784 23.104 29.76 24.064 29.76C24.96 29.76 25.472 30.784 25.472 32C25.472 33.088 24.96 34.24 23.936 34.24C22.912 34.112 22.528 33.024 22.528 31.872ZM24.064 28.8C26.88 28.8 28.288 30.208 28.288 31.936C28.288 33.664 26.88 35.072 24.064 35.072C21.248 35.072 19.84 33.6 19.84 31.872C19.84 30.144 21.248 28.8 24.064 28.8ZM15.424 33.536L17.408 29.824H16.192V28.928H20.288V29.824H18.88L16.192 34.88H12.992L10.176 29.824H8.768V28.928H14.784V29.824H13.376L15.424 33.536ZM50.624 28.8C53.44 28.8 54.848 30.208 54.848 31.936C54.848 33.664 53.44 35.072 50.624 35.072C47.808 35.072 46.4 33.664 46.4 31.936C46.4 30.208 47.808 28.8 50.624 28.8ZM36.8 29.888H35.392V28.992H41.408V29.888H40L41.984 33.6L43.968 29.888H42.88V28.992H46.976V29.888H45.568L42.88 34.944H39.68C39.616 34.944 36.8 29.888 36.8 29.888ZM29.952 29.888H28.544V28.992H34.048V29.888H32.64V33.984H33.92C35.136 33.984 35.84 33.152 35.84 32.192H36.736V35.008H28.544V34.112H29.952V29.888Z" fill="black"/>
</g>
<defs>
<clipPath id="clip0_10704_21867">
<rect width="64" height="64" fill="white"/>
</clipPath>
</defs>
</svg>
