<svg width="64" height="64" viewBox="0 0 64 64" fill="none" xmlns="http://www.w3.org/2000/svg">
<path fill-rule="evenodd" clip-rule="evenodd" d="M46.5131 9.22999H39.2972C39.2161 9.22921 39.1357 9.24461 39.0607 9.27528C38.9856 9.30595 38.9175 9.35129 38.8602 9.40862C38.8029 9.46596 38.7576 9.53415 38.7269 9.60921C38.6963 9.68426 38.681 9.76467 38.6818 9.84573V10.6585C38.6818 11.0033 38.9524 11.2743 39.2972 11.2743H41.1198C41.5874 11.2743 41.6617 11.4959 41.6617 11.7669V14.993C40.2085 15.9782 38.0907 15.5842 37.4992 14.993V6.93975C37.4992 6.44715 37.9429 5.90529 38.5829 5.90529H45.9719C46.7597 5.90529 46.6365 5.1664 46.5377 4.79695L46.1443 3.71323H35.406C32.8938 3.71323 32.2537 6.00381 32.2537 6.93975V14.993C32.2537 17.1605 34.0021 17.7762 35.1108 17.7762H40.6765C41.4154 17.7762 42.2774 17.2344 42.7457 16.9881C43.238 17.6035 43.657 17.7762 44.4695 17.7762H47.0799V9.84573C47.0795 9.35314 46.7594 9.22999 46.5131 9.22999ZM56.1673 15.6334H57.2756C57.9899 15.6334 58.581 15.0423 58.581 14.3284V7.08719C58.581 6.37292 57.9896 5.78214 57.2756 5.78214H55.0836C54.9119 5.78119 54.7418 5.8143 54.5831 5.87955C54.4243 5.9448 54.2801 6.0409 54.1588 6.16228C54.0374 6.28366 53.9414 6.42791 53.8762 6.58667C53.8109 6.74543 53.7779 6.91556 53.7789 7.08719V14.328C53.7779 14.4997 53.8109 14.6698 53.8762 14.8285C53.9414 14.9873 54.0374 15.1316 54.1588 15.2529C54.2801 15.3743 54.4243 15.4704 54.5831 15.5357C54.7418 15.6009 54.9119 15.634 55.0836 15.6331H56.1673V15.6334ZM56.1673 3.71323H61.0194C61.4109 3.71251 61.7988 3.78911 62.1607 3.93863C62.5225 4.08814 62.8513 4.30764 63.1282 4.58453C63.4051 4.86142 63.6245 5.19024 63.774 5.55214C63.9235 5.91404 64 6.3019 63.9993 6.69345V14.796C64 15.1875 63.9235 15.5754 63.774 15.9373C63.6245 16.2991 63.405 16.6279 63.1282 16.9048C62.8513 17.1817 62.5225 17.4011 62.1606 17.5506C61.7988 17.7001 61.4109 17.7766 61.0194 17.7759H51.5126C49.8877 17.7759 48.5327 16.4459 48.5327 14.796V6.69345C48.5327 5.04325 49.8877 3.71323 51.5126 3.71323H56.1673ZM30.1109 3.71323H29.175C28.8055 3.71323 28.4607 4.05805 28.4607 4.4275V14.993C27.6479 15.6334 23.1903 16.1014 21.2445 14.993V4.32898C21.2941 4.00879 21.1213 3.71323 20.703 3.71323H13.5364C13.0684 3.71323 12.8467 3.88564 12.5758 4.20583C12.3049 4.50105 9.22647 9.13112 9.22647 9.13112L6.02493 3.71289H0.434284C-0.00905375 3.71289 -0.107573 4.20549 0.114096 4.6242L4.69491 12.2588V17.3815C4.69491 17.677 4.84269 17.7755 5.08899 17.7755H9.57129C9.81759 17.7755 9.94074 17.5785 9.94074 17.3322V12.4315L15.359 4.45213C15.4821 4.32898 15.8266 4.27972 15.8266 4.55065V15.3375C15.8266 15.9779 16.4181 17.7759 18.8068 17.7759H27.3773C28.7074 17.7759 30.8255 17.0616 30.8255 14.9927V4.4275C30.8252 4.23812 30.7497 4.0566 30.6158 3.92272C30.4819 3.78883 30.3003 3.7135 30.1109 3.71323ZM32.0382 60.2871H31.9609V60.2864C23.1571 60.2597 15.5266 52.7832 15.6716 43.0533C15.7698 32.3872 23.0223 24.9175 31.7023 25C31.9006 25.004 32.0989 25.004 32.2972 25C40.9768 24.9175 48.2293 32.3872 48.3275 43.0533C48.4725 52.7832 40.8417 60.2597 32.0379 60.2864V60.2871H32.0382ZM32.0382 27.7291H31.9609C28.3126 27.7205 24.6239 29.1344 22.3812 31.7855C26.2601 34.6155 31.1108 37.4582 31.5723 42.5323V56.5437C31.574 56.8016 31.7806 56.9419 31.9999 56.9627C32.2192 56.9419 32.4258 56.8016 32.4272 56.5437V42.5323C32.889 37.4586 37.7393 34.6155 41.6186 31.7855C39.3752 29.1344 35.6865 27.7205 32.0382 27.7291ZM36.4408 43.0027V56.3117C36.4134 57.0441 37.2919 56.4749 38.1618 55.9963C44.5437 52.3477 47.8732 44.8038 44.5806 36.1457C44.0227 34.595 41.6357 36.525 40.7189 37.0809C38.6931 38.7708 36.6159 40.1343 36.4408 43.0027ZM27.5586 43.0027V56.4099C27.5857 57.143 26.7069 56.4746 25.8369 55.9963C19.4557 52.3477 16.1263 44.8038 19.4185 36.1457C19.9764 34.595 22.3641 36.525 23.2806 37.0809C25.3057 38.7708 27.3832 40.1343 27.5586 43.0027Z" fill="black"/>
</svg>
